<?xml version="1.0" encoding="iso-8859-1"?>
<!-- Generator: Adobe Illustrator 19.0.0, SVG Export Plug-In . SVG Version: 6.00 Build 0)  -->
<svg version="1.1" id="Capa_1" xmlns="http://www.w3.org/2000/svg" xmlns:xlink="http://www.w3.org/1999/xlink" x="0px" y="0px"
	 viewBox="0 0 512 512" style="enable-background:new 0 0 512 512;" xml:space="preserve">
<path style="fill:#95ADC0;" d="M362.667,458.667v32c0,5.891-4.776,10.667-10.667,10.667H160c-5.891,0-10.667-4.776-10.667-10.667
	v-32H362.667z"/>
<path style="fill:#D9EEF7;" d="M181.333,373.333h149.333v85.333H181.333V373.333z"/>
<path style="fill:#69F0F7;" d="M448,256v32H64v-32V64h384V256z"/>
<path style="fill:#D9EEF7;" d="M501.333,32v256H448V64H64v224H10.667V32C10.702,20.233,20.233,10.702,32,10.667h448
	C491.768,10.702,501.298,20.233,501.333,32z"/>
<path style="fill:#AAC4DA;" d="M501.333,288v64c-0.035,11.768-9.566,21.298-21.333,21.333H32
	c-11.767-0.035-21.298-9.566-21.333-21.333v-64H501.333z"/>
<circle style="fill:#FFE451;" cx="256" cy="138.667" r="106.667"/>
<g>
	<path style="fill:#4C5B66;" d="M42.667,277.333h426.667v21.333H42.667V277.333z"/>
	<path style="fill:#4C5B66;" d="M480,0h-96v21.333h96c5.891,0,10.667,4.776,10.667,10.667v320c0,5.891-4.776,10.667-10.667,10.667
		H32c-5.891,0-10.667-4.776-10.667-10.667V32c0-5.891,4.776-10.667,10.667-10.667h96V0H32C14.327,0,0,14.327,0,32v320
		c0,17.673,14.327,32,32,32h138.667v64h-21.333c-5.891,0-10.667,4.776-10.667,10.667v32h-21.333V512h277.333v-21.333h-21.333v-32
		c0-5.891-4.776-10.667-10.667-10.667h-21.333v-64H480c17.673,0,32-14.327,32-32V32C512,14.327,497.673,0,480,0z M352,490.667H160
		v-21.333h192V490.667z M320,448H192v-64h128V448z"/>
	<path style="fill:#4C5B66;" d="M458.667,256V64c0-5.891-4.776-10.667-10.667-10.667h-53.333v21.333h42.667V256H458.667z"/>
	<path style="fill:#4C5B66;" d="M117.333,74.667V53.333H64c-5.891,0-10.667,4.776-10.667,10.667v192h21.333V74.667H117.333z"/>
	<path style="fill:#4C5B66;" d="M256,256c64.801,0,117.333-52.532,117.333-117.333S320.801,21.333,256,21.333
		S138.667,73.865,138.667,138.667C138.743,203.436,191.23,255.924,256,256z M256,42.667c53.019,0,96,42.981,96,96s-42.981,96-96,96
		s-96-42.981-96-96C160.065,85.674,203.007,42.731,256,42.667z"/>
	<path style="fill:#4C5B66;" d="M234.667,192h10.667v21.333h21.333V192h10.667c11.782,0,21.333-9.551,21.333-21.333v-21.333
		c0-11.782-9.551-21.333-21.333-21.333h-42.667v-21.333h42.667v10.667h21.333v-10.667c0-11.782-9.551-21.333-21.333-21.333h-10.667
		V64h-21.333v21.333h-10.667c-11.782,0-21.333,9.551-21.333,21.333V128c0,11.782,9.551,21.333,21.333,21.333h42.667v21.333h-42.667
		V160h-21.333v10.667C213.333,182.449,222.885,192,234.667,192z"/>
</g>
<g>
</g>
<g>
</g>
<g>
</g>
<g>
</g>
<g>
</g>
<g>
</g>
<g>
</g>
<g>
</g>
<g>
</g>
<g>
</g>
<g>
</g>
<g>
</g>
<g>
</g>
<g>
</g>
<g>
</g>
</svg>
