<?xml version="1.0"?>
<svg xmlns="http://www.w3.org/2000/svg" viewBox="0 0 512 512" width="512" height="512"><g id="User_Pin" data-name="User Pin"><g id="Glyph"><path d="M256.125-.5C145.914-.5,56.25,89.668,56.25,200.5c0,43.087,10.362,86.063,30.8,127.733,16.256,33.148,38.887,65.533,67.263,96.257,48.183,52.17,95.677,81.148,97.675,82.356l4.139,2.5,4.139-2.5c2-1.208,49.492-30.186,97.675-82.356,28.376-30.724,51.007-63.109,67.263-96.257C445.638,286.563,456,243.587,456,200.5,456,89.668,366.336-.5,256.125-.5ZM214.857,437.714a22.857,22.857,0,1,1,22.857-22.857A22.857,22.857,0,0,1,214.857,437.714Zm40,34.286A17.143,17.143,0,1,1,272,454.857,17.143,17.143,0,0,1,254.857,472ZM256,368c-92.636,0-168-75.364-168-168S163.364,32,256,32s168,75.364,168,168S348.636,368,256,368Z"/><path d="M195.614,114.447c8.141-4.356,16.041-6.477,24.106-6.477a45.371,45.371,0,0,1,25.69,8.126,19.252,19.252,0,0,0,21.277-.065,43.151,43.151,0,0,1,24.5-7.588c7.7,0,15.92,1.974,25.13,6.034,1.712.755,6.554,2.364,11.728,3.978A71.115,71.115,0,0,0,312.706,89.1a73.95,73.95,0,0,0-110.88-.185,71.157,71.157,0,0,0-15.272,28.687Z"/><path d="M257.186,240c-28.447,0-53.2-17.888-61.608-44.511l-.191-.719-10.429-52.364a8,8,0,0,1,5.213-9.117l11.968-4.172c6.149-3.463,11.9-5.147,17.581-5.147a29.672,29.672,0,0,1,16.751,5.4,35.248,35.248,0,0,0,39.091-.021c10.452-7.059,21.391-5.918,34.3-.227,2.829,1.247,9.077,3.265,14.01,4.794a8,8,0,0,1,5.469,9.213L318.9,195.134l-.112.355C310.39,222.112,285.632,240,257.186,240Z"/><path d="M368,297.67a39.768,39.768,0,0,0-31.32-39.05l-39.188-8.705A7.8,7.8,0,0,0,288,257.53h0c0,21.213-14.355,38.47-32,38.47-8.615,0-16.7-4.056-22.759-11.42l-.005-.006A42.554,42.554,0,0,1,224,257.53h0a7.8,7.8,0,0,0-9.492-7.615L175.32,258.62A39.768,39.768,0,0,0,144,297.67v4.979a151.765,151.765,0,0,0,224,0Z"/></g></g></svg>
