<?xml version="1.0" encoding="UTF-8"?>
<!DOCTYPE svg PUBLIC "-//W3C//DTD SVG 1.1//EN" "http://www.w3.org/Graphics/SVG/1.1/DTD/svg11.dtd">
<!-- Creator: CorelDRAW 2017 -->
<svg xmlns="http://www.w3.org/2000/svg" xml:space="preserve" width="343px" height="383px" version="1.1" style="shape-rendering:geometricPrecision; text-rendering:geometricPrecision; image-rendering:optimizeQuality; fill-rule:evenodd; clip-rule:evenodd"
viewBox="0 0 18.69 20.85"
 xmlns:xlink="http://www.w3.org/1999/xlink">
 <defs>
  <style type="text/css">
   <![CDATA[
    .fil0 {fill:#9CFF9C}
   ]]>
  </style>
 </defs>
 <g id="PowerClip_x0020_Contents">
  <metadata id="CorelCorpID_0Corel-Layer"/>
  <g id="_2855225539376">
   <path class="fil0" d="M14.08 12.05l0.35 -0.32 2.11 -1.92 0.26 -0.23c0.17,-0.15 0.37,-0.26 0.59,-0.31 0.47,-0.12 0.96,0.02 1.3,0.36l-4.77 5.37c-0.49,0.41 -1.07,0.71 -1.69,0.86 -0.24,0.06 -0.48,0.1 -0.73,0.11l-3.48 0.21c-0.1,0 -0.2,0.01 -0.31,0.04 -0.21,0.05 -0.4,0.16 -0.56,0.3l-1.52 1.59 -2.28 -3.82 0.01 0c0.37,-0.17 0.69,-0.44 0.92,-0.77l0.43 -0.63c0.52,-0.64 1.23,-1.09 2.03,-1.28 0.56,-0.14 1.14,-0.15 1.69,-0.03l0.26 0.05c0.4,0.08 0.81,0.08 1.21,-0.02l2.21 -0.55c0.81,-0.2 1.64,0.22 1.97,0.99l0 0z"/>
   <path class="fil0" d="M15.61 5.11l0.4 1.61 -4.41 1.09 -0.45 -1.84c0,0 0,-0.01 0,-0.01 -0.09,-0.36 -0.29,-0.69 -0.56,-0.94 0.22,-0.29 0.53,-0.5 0.88,-0.6 0.35,0.29 0.81,0.4 1.25,0.29 0.42,-0.1 0.76,-0.39 0.95,-0.77 0.01,-0.02 0.02,-0.04 0.03,-0.06 0.86,-0.16 1.7,0.38 1.91,1.23l0 0z"/>
   <path class="fil0" d="M16.54 9.81l0 0 -2.11 1.92 -0.35 0.32c-0.16,-0.37 -0.43,-0.66 -0.78,-0.84l1.36 -1.24 0.34 -0.31c0.44,-0.37 1.15,-0.26 1.54,0.15z"/>
   <path class="fil0" d="M13.32 1.12l0.18 0.72c0.19,0.79 -0.29,1.58 -1.08,1.78 -0.79,0.19 -1.59,-0.29 -1.78,-1.08l-0.18 -0.71c-0.19,-0.79 0.29,-1.59 1.08,-1.79 0.79,-0.19 1.59,0.29 1.78,1.08z"/>
   <path class="fil0" d="M14.63 9.94l0.03 0.03 -1.36 1.24c-0.36,-0.19 -0.79,-0.25 -1.19,-0.15 0,0 0,0 0,0l-0.49 0.13 1.13 -1.04c0.2,-0.19 0.44,-0.32 0.71,-0.39 0.4,-0.09 0.82,-0.03 1.17,0.18l0 0z"/>
   <path class="fil0" d="M10.59 5.02c0.27,0.25 0.47,0.58 0.56,0.94 0,0 0,0.01 0,0.01l0.66 2.65 -6.07 1.5 -0.66 -2.65c0,0 0,-0.01 0,-0.01 -0.24,-0.99 0.35,-2 1.34,-2.28 0.4,0.33 0.93,0.46 1.43,0.33 0.48,-0.12 0.87,-0.44 1.08,-0.88 0.01,-0.03 0.03,-0.05 0.04,-0.07 0.58,-0.11 1.18,0.06 1.62,0.46l0 0z"/>
   <path class="fil0" d="M8.54 1.41l0.2 0.82c0.22,0.9 -0.33,1.81 -1.23,2.03 -0.9,0.23 -1.81,-0.32 -2.04,-1.23l-0.2 -0.81c-0.22,-0.91 0.33,-1.82 1.23,-2.04 0.9,-0.22 1.82,0.33 2.04,1.23z"/>
   <path class="fil0" d="M5.06 6.33l0.08 0.05c-0.13,0.34 -0.15,0.72 -0.06,1.08 0,0 0,0 0,0.01l0.46 1.83 -4.41 1.09 -0.4 -1.61c-0.21,-0.87 0.31,-1.76 1.17,-1.99 0.35,0.29 0.82,0.39 1.26,0.28 0.41,-0.1 0.76,-0.38 0.94,-0.77 0.01,-0.02 0.02,-0.04 0.03,-0.06 0.32,-0.06 0.64,-0.03 0.93,0.09l0 0z"/>
   <path class="fil0" d="M3.76 3.48l0.17 0.72c0.2,0.79 -0.28,1.59 -1.07,1.78 -0.79,0.2 -1.59,-0.29 -1.79,-1.08l-0.17 -0.71c-0.2,-0.79 0.28,-1.59 1.07,-1.78 0.79,-0.2 1.59,0.28 1.79,1.07z"/>
   <path class="fil0" d="M14.22 12.55c0,0 0,0 -0.01,0l-1.91 0.38c-0.13,0.03 -0.27,0.06 -0.41,0.1 -0.41,0.1 -0.82,0.23 -1.22,0.39 -0.01,0 -0.02,0.01 -0.04,0.01 -0.13,0.03 -0.27,-0.05 -0.31,-0.19 -0.03,-0.12 0.04,-0.25 0.16,-0.3 0.42,-0.16 0.85,-0.3 1.29,-0.41 0.14,-0.04 0.29,-0.07 0.43,-0.1l1.63 -0.32c-0.29,-0.63 -0.99,-0.96 -1.66,-0.8l-2.21 0.55c-0.43,0.1 -0.89,0.11 -1.32,0.02l-0.26 -0.05c-0.52,-0.11 -1.06,-0.11 -1.58,0.02 -0.74,0.18 -1.4,0.6 -1.88,1.19l-0.43 0.62c-0.25,0.38 -0.61,0.67 -1.02,0.86 -0.02,0.01 -0.03,0.01 -0.05,0.02 -0.13,0.03 -0.27,-0.05 -0.31,-0.19 -0.03,-0.12 0.03,-0.25 0.15,-0.3 0.33,-0.14 0.61,-0.38 0.81,-0.68l0.43 -0.62c0,-0.01 0.01,-0.01 0.01,-0.02 0.56,-0.68 1.32,-1.16 2.17,-1.37 0.59,-0.15 1.21,-0.16 1.81,-0.03l0.25 0.05c0.36,0.08 0.74,0.07 1.1,-0.02l2.21 -0.54c0,0 0,0 0,0 1.05,-0.26 2.1,0.38 2.36,1.42 0,0 0,0 0,0 0.03,0.14 -0.05,0.28 -0.19,0.31l0 0z"/>
   <path class="fil0" d="M5.63 18.11l1.05 1.76 -3.99 0.98 -2.69 -7.06 2.66 -0.65 0.69 1.15 2.28 3.82zm-0.94 0.9c-0.07,-0.3 -0.37,-0.48 -0.66,-0.4 -0.3,0.07 -0.48,0.37 -0.4,0.66 0.07,0.29 0.37,0.47 0.66,0.4 0,0 0,0 0,0 0.29,-0.07 0.47,-0.37 0.4,-0.66 0,0 0,0 0,0l0 0z"/>
   <circle class="fil0" transform="matrix(0.242891 -0.0599891 0.0599889 0.24289 4.15921 19.1383)" r="2.19"/>
  </g>
 </g>
</svg>
