<?xml version="1.0" encoding="UTF-8"?>
<!DOCTYPE svg PUBLIC "-//W3C//DTD SVG 1.1//EN" "http://www.w3.org/Graphics/SVG/1.1/DTD/svg11.dtd">
<!-- Creator: CorelDRAW 2017 -->
<svg xmlns="http://www.w3.org/2000/svg" xml:space="preserve" width="528px" height="529px" version="1.1" style="shape-rendering:geometricPrecision; text-rendering:geometricPrecision; image-rendering:optimizeQuality; fill-rule:evenodd; clip-rule:evenodd"
viewBox="0 0 36.89 36.94"
 xmlns:xlink="http://www.w3.org/1999/xlink">
 <defs>
  <style type="text/css">
   <![CDATA[
    .str2 {stroke:#3DA37C;stroke-width:1.16;stroke-linecap:round;stroke-linejoin:round;stroke-miterlimit:10}
    .str0 {stroke:#4B607C;stroke-width:0.58;stroke-linecap:round;stroke-linejoin:round;stroke-miterlimit:10}
    .str1 {stroke:#6E829E;stroke-width:0.58;stroke-linecap:round;stroke-linejoin:round;stroke-miterlimit:10}
    .fil11 {fill:none;fill-rule:nonzero}
    .fil26 {fill:#005675;fill-rule:nonzero}
    .fil27 {fill:#006285;fill-rule:nonzero}
    .fil25 {fill:#0095C8;fill-rule:nonzero}
    .fil19 {fill:#283444;fill-rule:nonzero}
    .fil0 {fill:#36465B;fill-rule:nonzero}
    .fil7 {fill:#368E6E;fill-rule:nonzero}
    .fil6 {fill:#3DA37C;fill-rule:nonzero}
    .fil2 {fill:#3F526E;fill-rule:nonzero}
    .fil21 {fill:#4B5B6E;fill-rule:nonzero}
    .fil10 {fill:#4B5F7D;fill-rule:nonzero}
    .fil1 {fill:#4B607C;fill-rule:nonzero}
    .fil8 {fill:#5BC19C;fill-rule:nonzero}
    .fil18 {fill:#5D7087;fill-rule:nonzero}
    .fil20 {fill:#6E829E;fill-rule:nonzero}
    .fil9 {fill:#8CD8BC;fill-rule:nonzero}
    .fil4 {fill:#BAC4C8;fill-rule:nonzero}
    .fil14 {fill:#CFA387;fill-rule:nonzero}
    .fil13 {fill:#D8AA8E;fill-rule:nonzero}
    .fil15 {fill:#E6B597;fill-rule:nonzero}
    .fil3 {fill:#E9EDEF;fill-rule:nonzero}
    .fil17 {fill:#EFC6AF;fill-rule:nonzero}
    .fil22 {fill:#F6E2D4;fill-rule:nonzero}
    .fil24 {fill:#FFCFB3;fill-rule:nonzero}
    .fil16 {fill:#FFD6BC;fill-rule:nonzero}
    .fil23 {fill:#FFEBDF;fill-rule:nonzero}
    .fil5 {fill:white;fill-rule:nonzero}
    .fil12 {fill:black;fill-rule:nonzero;fill-opacity:0.101961}
   ]]>
  </style>
 </defs>
 <g id="PowerClip_x0020_Contents">
  <metadata id="CorelCorpID_0Corel-Layer"/>
  <g id="_2127801035520">
   <path class="fil0" d="M23.88 33.92l-15.72 2.97c-1.5,0.29 -2.96,-0.71 -3.25,-2.21l-4.79 -25.34c-0.5,-2.16 0.62,-3.35 2.12,-3.63l15.81 -2.59c1.5,-0.29 2.96,0.71 3.25,2.21l5.18 25.23c0.28,1.5 -0.39,2.85 -2.6,3.36z"/>
   <path class="fil1" d="M24.23 33.41l-15.72 2.98c-1.5,0.28 -2.96,-0.71 -3.24,-2.22l-4.8 -25.34c-0.28,-1.5 0.71,-2.96 2.21,-3.25l15.73 -2.97c1.5,-0.28 2.96,0.71 3.24,2.21l4.79 25.35c0.29,1.5 -0.71,2.96 -2.21,3.24z"/>
   <path class="fil2" d="M17.18 6.73c0.28,-0.12 0.5,-0.32 0.64,-0.57 0.04,-0.08 0.07,-0.15 0.1,-0.23 0.03,-0.08 0.04,-0.16 0.05,-0.25 0.02,-0.12 0.01,-0.25 -0.01,-0.38 -0.01,-0.04 -0.02,-0.08 -0.03,-0.12 0,-0.02 -0.01,-0.04 -0.02,-0.06 0,-0.01 -0.01,-0.03 -0.01,-0.04 -0.01,-0.03 -0.02,-0.05 -0.04,-0.08 0,0 0,-0.01 -0.01,-0.02 -0.24,-0.51 -0.81,-0.82 -1.4,-0.71l-0.5 0.1 -0.16 -0.81c0,-0.04 -0.01,-0.09 -0.03,-0.13 0,-0.01 0,-0.02 0,-0.03 -0.01,-0.04 -0.03,-0.08 -0.04,-0.12 0,0 0,0 0,0 -0.02,-0.05 -0.03,-0.09 -0.05,-0.13 0,-0.01 -0.01,-0.01 -0.01,-0.02 0,0 0,0 0,0l-11.04 2.09c0,0 0,0 0,0 0,0 0,0.01 0,0.02 0,0.04 0,0.09 0,0.13 0,0 0,0.01 0,0.01 0,0.04 0.01,0.08 0.01,0.12 0,0.02 0,0.03 0,0.04 0.01,0.04 0.02,0.08 0.02,0.13l0.16 0.8 -0.51 0.1c-0.59,0.11 -1,0.6 -1.04,1.17 -0.01,0.01 -0.01,0.02 -0.01,0.03 0,0.02 0,0.05 0,0.08 0,0.01 0,0.03 0,0.05 0,0.02 0,0.04 0.01,0.06 0,0.04 0.01,0.07 0.01,0.11l0 0c0.04,0.22 0.14,0.42 0.27,0.58 0.21,0.25 0.52,0.43 0.85,0.46 0.13,0.02 0.26,0.01 0.39,-0.01l12.15 -2.3c0.09,-0.02 0.17,-0.04 0.25,-0.07z"/>
   <path class="fil2" d="M25.09 31.38l-2.91 -12.53 -0.01 -0.04 -1.7 -13.08c0,-0.02 -0.02,-0.04 -0.03,-0.06 -0.02,-0.01 -0.05,-0.02 -0.07,-0.01l-0.67 0.08 -0.07 -0.39c-0.01,-0.05 -0.06,-0.08 -0.11,-0.07l-0.47 0.09 -0.04 -0.18c-0.01,-0.02 -0.02,-0.04 -0.04,-0.05 -0.02,-0.02 -0.04,-0.02 -0.07,-0.02l-6.3 1.47 -1.37 0.26 -8.38 1.09c-0.05,0.01 -0.08,0.05 -0.08,0.1l0.05 0.4 -0.66 0.12c-0.02,0.01 -0.04,0.02 -0.05,0.04 -0.02,0.02 -0.02,0.04 -0.02,0.06l0.07 0.35 -0.47 0.11c-0.02,0.01 -0.04,0.02 -0.05,0.04 -0.02,0.02 -0.02,0.04 -0.01,0.07l2.96 12.77 1.65 12.7c0.01,0.05 0.06,0.08 0.1,0.07l0.67 -0.08 0.08 0.39c0.01,0.05 0.05,0.08 0.1,0.07l0.43 -0.08 0.08 0.34c0.01,0.04 0.05,0.07 0.09,0.07 0.01,0 0.01,0 0.02,0l8.81 -2.05 7.25 -0.94c0.04,-0.01 0.08,-0.05 0.07,-0.1l-0.05 -0.4 0.66 -0.12c0.05,-0.01 0.08,-0.06 0.07,-0.1l-0.03 -0.18 0.43 -0.11c0.05,-0.01 0.08,-0.05 0.07,-0.1z"/>
   <polygon class="fil3" points="23.99,31.89 6.47,34.17 3,7.51 20.52,5.23 "/>
   <polygon class="fil4" points="25.14,30.88 7.93,34.88 1.85,8.69 19.06,4.7 "/>
   <polygon class="fil5" points="24.68,31.27 7.31,34.55 2.32,8.13 19.68,4.85 "/>
   <g>
    <path class="fil3" d="M8.46 15.3c0.13,0.71 -0.33,1.39 -1.04,1.52 -0.7,0.13 -1.38,-0.33 -1.51,-1.03 -0.14,-0.71 0.33,-1.39 1.03,-1.52 0.71,-0.13 1.39,0.33 1.52,1.03z"/>
    <path class="fil3" d="M18.18 13.73l-8.65 1.63c-0.14,0.03 -0.27,-0.06 -0.3,-0.2 -0.02,-0.14 0.07,-0.28 0.21,-0.31l8.65 -1.63c0.14,-0.03 0.27,0.06 0.3,0.2 0.03,0.14 -0.07,0.28 -0.21,0.31z"/>
    <path class="fil3" d="M18.74 12.56l-9.82 1.86c-0.14,0.03 -0.28,-0.06 -0.3,-0.2 -0.03,-0.14 0.06,-0.28 0.2,-0.31l9.82 -1.85c0.14,-0.03 0.28,0.06 0.3,0.2l0 0c0.03,0.14 -0.06,0.28 -0.2,0.3z"/>
    <path class="fil3" d="M17.59 14.9l-8.29 1.56c-0.14,0.03 -0.27,-0.06 -0.3,-0.2 -0.02,-0.14 0.07,-0.28 0.21,-0.3l8.28 -1.57c0.14,-0.03 0.28,0.07 0.3,0.21 0.03,0.14 -0.06,0.27 -0.2,0.3z"/>
   </g>
   <g>
    <path class="fil3" d="M9.23 19.36c0.13,0.7 -0.33,1.38 -1.04,1.52 -0.7,0.13 -1.38,-0.33 -1.52,-1.04 -0.13,-0.7 0.33,-1.38 1.04,-1.52 0.7,-0.13 1.38,0.33 1.52,1.04z"/>
    <path class="fil3" d="M18.95 17.78l-8.65 1.64c-0.14,0.03 -0.27,-0.07 -0.3,-0.21 -0.03,-0.14 0.07,-0.27 0.21,-0.3l8.64 -1.64c0.14,-0.02 0.28,0.07 0.31,0.21 0.02,0.14 -0.07,0.28 -0.21,0.3z"/>
    <path class="fil3" d="M19.5 16.62l-9.81 1.86c-0.14,0.02 -0.28,-0.07 -0.31,-0.21 -0.02,-0.14 0.07,-0.27 0.21,-0.3l9.82 -1.86c0.14,-0.02 0.27,0.07 0.3,0.21 0.03,0.14 -0.07,0.27 -0.21,0.3z"/>
    <path class="fil3" d="M18.35 18.95l-8.28 1.57c-0.14,0.03 -0.27,-0.07 -0.3,-0.21 -0.03,-0.14 0.07,-0.27 0.21,-0.3l8.28 -1.56c0.14,-0.03 0.27,0.06 0.3,0.2 0.03,0.14 -0.07,0.28 -0.21,0.3z"/>
   </g>
   <g>
    <path class="fil3" d="M9.99 23.41c0.14,0.71 -0.33,1.39 -1.03,1.52 -0.71,0.13 -1.38,-0.33 -1.52,-1.03 -0.13,-0.71 0.33,-1.39 1.04,-1.52 0.7,-0.13 1.38,0.33 1.51,1.03z"/>
    <path class="fil3" d="M19.72 21.84l-8.65 1.63c-0.14,0.03 -0.28,-0.06 -0.3,-0.2 -0.03,-0.14 0.06,-0.28 0.2,-0.3l8.65 -1.64c0.14,-0.03 0.28,0.07 0.3,0.21 0.03,0.14 -0.06,0.27 -0.2,0.3z"/>
    <path class="fil3" d="M20.27 20.68l-9.82 1.85c-0.14,0.03 -0.27,-0.06 -0.3,-0.2 -0.03,-0.14 0.07,-0.28 0.21,-0.31l9.81 -1.85c0.14,-0.03 0.28,0.06 0.31,0.2 0.02,0.14 -0.07,0.28 -0.21,0.31z"/>
   </g>
   <g>
    <path class="fil3" d="M10.76 27.47c0.13,0.7 -0.33,1.38 -1.03,1.52 -0.71,0.13 -1.39,-0.33 -1.52,-1.04 -0.13,-0.7 0.33,-1.38 1.03,-1.51 0.71,-0.14 1.39,0.33 1.52,1.03z"/>
    <path class="fil3" d="M19.19 26.14l-7.35 1.39c-0.14,0.03 -0.28,-0.07 -0.31,-0.21 -0.02,-0.14 0.07,-0.27 0.21,-0.3l7.36 -1.39c0.14,-0.03 0.27,0.07 0.3,0.21 0.03,0.14 -0.07,0.27 -0.21,0.3z"/>
    <path class="fil3" d="M19.75 24.98l-8.53 1.61c-0.14,0.03 -0.28,-0.07 -0.3,-0.21 -0.03,-0.14 0.06,-0.27 0.2,-0.3l8.53 -1.61c0.14,-0.03 0.28,0.06 0.3,0.2 0.03,0.14 -0.06,0.28 -0.2,0.31z"/>
   </g>
   <g>
    <path class="fil6" d="M9.78 0.03c-0.89,0.17 -1.47,1.02 -1.3,1.9 0.17,0.88 1.02,1.46 1.9,1.29 0.88,-0.16 1.46,-1.01 1.29,-1.9 -0.16,-0.88 -1.01,-1.46 -1.89,-1.29zm0.4 2.12l0 0c-0.29,0.06 -0.57,-0.13 -0.63,-0.42 -0.05,-0.3 0.14,-0.58 0.43,-0.63 0.29,-0.06 0.57,0.13 0.62,0.43 0.06,0.29 -0.13,0.57 -0.42,0.62z"/>
    <path class="fil7" d="M9.9 0.71c-0.5,0.09 -0.84,0.58 -0.74,1.09 0.09,0.51 0.58,0.84 1.09,0.75 0.51,-0.1 0.84,-0.59 0.75,-1.1 -0.1,-0.51 -0.59,-0.84 -1.1,-0.74zm0.28 1.44l0 0c-0.29,0.06 -0.57,-0.13 -0.63,-0.42 -0.05,-0.3 0.14,-0.58 0.43,-0.63 0.29,-0.06 0.57,0.13 0.62,0.43 0.06,0.29 -0.13,0.57 -0.42,0.62z"/>
    <path class="fil6" d="M15.54 7.04l-8.57 1.62c-0.71,0.13 -1.4,-0.34 -1.53,-1.05l-0.33 -1.77c-0.21,-1.08 0.5,-2.12 1.58,-2.32l7.23 -1.37c1.08,-0.21 2.12,0.51 2.33,1.58l0.33 1.77c0.13,0.71 -0.34,1.4 -1.04,1.54z"/>
    <path class="fil7" d="M15.01 4.24l-8.57 1.62c-0.54,0.11 -1.08,-0.15 -1.36,-0.6 -0.02,0.19 -0.01,0.38 0.03,0.58l0.33 1.77c0.13,0.71 0.82,1.18 1.53,1.05l8.57 -1.62c0.7,-0.14 1.17,-0.83 1.04,-1.54l-0.33 -1.77c-0.04,-0.2 -0.11,-0.38 -0.2,-0.55 -0.09,0.52 -0.49,0.96 -1.04,1.06z"/>
    <path class="fil8" d="M17.38 6.97l-12.15 2.3c-0.7,0.13 -1.38,-0.33 -1.51,-1.03 -0.13,-0.69 0.33,-1.37 1.03,-1.5l12.16 -2.3c0.69,-0.13 1.37,0.33 1.5,1.03l0 0c0.13,0.69 -0.33,1.37 -1.03,1.5z"/>
    <path class="fil9" d="M11.63 6.32l-5.64 1.07c-0.15,0.03 -0.29,-0.07 -0.32,-0.22 -0.03,-0.14 0.07,-0.29 0.22,-0.32l5.64 -1.06c0.14,-0.03 0.29,0.07 0.31,0.21 0.03,0.15 -0.06,0.29 -0.21,0.32z"/>
    <path class="fil9" d="M15.99 5.5l-3.29 0.62c-0.15,0.03 -0.29,-0.07 -0.32,-0.22 -0.03,-0.14 0.07,-0.29 0.22,-0.31l3.29 -0.63c0.15,-0.02 0.29,0.07 0.32,0.22 0.02,0.15 -0.07,0.29 -0.22,0.32z"/>
    <path class="fil8" d="M11.3 3.6l-4.64 0.88c-0.15,0.03 -0.29,-0.07 -0.32,-0.22 -0.03,-0.14 0.07,-0.29 0.21,-0.31l4.65 -0.88c0.15,-0.03 0.29,0.07 0.32,0.21 0.03,0.15 -0.07,0.29 -0.22,0.32z"/>
    <path class="fil8" d="M14.48 3l-1.94 0.37c-0.14,0.02 -0.29,-0.07 -0.32,-0.22 -0.02,-0.15 0.07,-0.29 0.22,-0.32l1.94 -0.36c0.14,-0.03 0.29,0.07 0.31,0.21 0.03,0.15 -0.07,0.29 -0.21,0.32z"/>
    <path class="fil6" d="M18.26 5.07c-0.08,0.53 -0.48,0.97 -1.03,1.08l-12.16 2.3c-0.55,0.1 -1.09,-0.17 -1.35,-0.63 -0.02,0.14 -0.02,0.28 0,0.42 0.13,0.7 0.81,1.16 1.51,1.03l12.15 -2.3c0.7,-0.13 1.16,-0.81 1.03,-1.5 -0.03,-0.15 -0.08,-0.28 -0.15,-0.4z"/>
   </g>
   <path class="fil10" d="M8.04 9.64l0.02 0.13c-0.16,0.02 -0.34,0.05 -0.55,0.09 0.03,0.1 0.06,0.23 0.09,0.4 0.14,-0.02 0.28,-0.05 0.41,-0.08l0.03 0.13c-0.13,0.02 -0.27,0.04 -0.42,0.07 0.05,0.23 0.08,0.4 0.11,0.51l-0.16 0.03c-0.03,-0.19 -0.06,-0.39 -0.11,-0.61 -0.04,-0.21 -0.07,-0.39 -0.11,-0.55l0.69 -0.12zm1.34 0.33c0.04,0.19 0.01,0.35 -0.08,0.49 -0.09,0.13 -0.22,0.21 -0.36,0.24 -0.15,0.03 -0.28,0 -0.41,-0.09 -0.13,-0.08 -0.21,-0.21 -0.24,-0.39 -0.04,-0.2 -0.01,-0.36 0.08,-0.49 0.09,-0.14 0.21,-0.22 0.36,-0.25 0.15,-0.02 0.28,0.01 0.41,0.09 0.13,0.09 0.21,0.22 0.24,0.4zm-0.16 0.05c-0.02,-0.16 -0.09,-0.27 -0.18,-0.34 -0.1,-0.06 -0.2,-0.09 -0.31,-0.07 -0.1,0.02 -0.18,0.08 -0.24,0.18 -0.06,0.11 -0.08,0.23 -0.05,0.38 0.03,0.15 0.09,0.26 0.19,0.33 0.1,0.07 0.2,0.09 0.31,0.07 0.1,-0.02 0.18,-0.08 0.24,-0.18 0.06,-0.1 0.07,-0.23 0.04,-0.37zm1.42 0.33l-0.17 0.03c-0.09,-0.16 -0.15,-0.26 -0.19,-0.31 -0.05,-0.07 -0.09,-0.1 -0.14,-0.12 -0.04,-0.01 -0.1,0 -0.19,0.01 -0.05,0.01 -0.09,0.02 -0.13,0.03 0.03,0.19 0.07,0.36 0.1,0.49l-0.17 0.03c-0.02,-0.18 -0.06,-0.38 -0.1,-0.61 -0.04,-0.2 -0.08,-0.39 -0.12,-0.54l0.13 -0.03c0.03,0 0.06,-0.01 0.1,-0.02 0.05,-0.01 0.09,-0.02 0.15,-0.03 0.26,-0.05 0.41,0.02 0.44,0.2 0.03,0.15 -0.02,0.26 -0.16,0.35l0 0.01c0.07,0.01 0.13,0.04 0.19,0.11 0.04,0.05 0.13,0.18 0.26,0.4zm-0.43 -0.78c-0.03,-0.14 -0.14,-0.2 -0.33,-0.16 -0.07,0.01 -0.13,0.03 -0.17,0.04 0.02,0.11 0.05,0.25 0.08,0.42 0.04,0 0.07,-0.01 0.11,-0.02 0.23,-0.04 0.34,-0.14 0.31,-0.28zm1.92 0.5l-0.17 0.03c-0.02,-0.13 -0.07,-0.32 -0.13,-0.56 -0.07,-0.25 -0.11,-0.4 -0.12,-0.45l-0.01 0c-0.02,0.21 -0.06,0.43 -0.11,0.67 -0.05,0.24 -0.07,0.38 -0.06,0.42l-0.12 0.03c-0.01,-0.05 -0.08,-0.17 -0.21,-0.38 -0.13,-0.21 -0.21,-0.35 -0.25,-0.43 -0.04,-0.07 -0.06,-0.12 -0.08,-0.15l-0.01 0c0.02,0.08 0.04,0.25 0.06,0.5 0.03,0.25 0.05,0.43 0.07,0.53l-0.16 0.03c0,0 -0.01,-0.17 -0.03,-0.5 -0.02,-0.32 -0.04,-0.55 -0.06,-0.68l0.23 -0.04c0.02,0.07 0.1,0.22 0.24,0.46 0.15,0.24 0.22,0.39 0.24,0.45l0 0c-0.01,-0.06 0.02,-0.23 0.08,-0.51 0.06,-0.28 0.08,-0.45 0.07,-0.52l0.23 -0.04c0.02,0.13 0.08,0.35 0.17,0.66 0.08,0.31 0.13,0.47 0.13,0.48zm1.04 -1.39c0.02,0.11 0.04,0.22 0.06,0.32 0.02,0.09 0.03,0.18 0.05,0.27 0.07,0.39 -0.05,0.62 -0.37,0.68 -0.08,0.02 -0.15,0.02 -0.22,0.01 -0.06,-0.02 -0.12,-0.04 -0.16,-0.08 -0.05,-0.05 -0.09,-0.1 -0.12,-0.17 -0.03,-0.07 -0.06,-0.16 -0.08,-0.26 -0.01,-0.08 -0.03,-0.18 -0.05,-0.28 -0.02,-0.09 -0.04,-0.2 -0.07,-0.31l0.17 -0.03c0.04,0.23 0.07,0.4 0.09,0.53 0.02,0.1 0.04,0.19 0.07,0.25 0.02,0.06 0.05,0.11 0.08,0.15 0.04,0.04 0.07,0.06 0.12,0.07 0.04,0.01 0.09,0.01 0.15,0 0.07,-0.01 0.12,-0.03 0.16,-0.05 0.03,-0.03 0.06,-0.06 0.08,-0.11 0.02,-0.05 0.02,-0.1 0.02,-0.17 0,-0.07 -0.01,-0.16 -0.03,-0.26 -0.01,-0.06 -0.03,-0.14 -0.05,-0.23 -0.02,-0.08 -0.04,-0.18 -0.06,-0.3l0.16 -0.03zm1.23 0.83l0.02 0.14 -0.71 0.13c-0.02,-0.15 -0.05,-0.35 -0.1,-0.61 -0.04,-0.22 -0.08,-0.41 -0.12,-0.55l0.17 -0.03c0.02,0.12 0.05,0.31 0.1,0.55 0.03,0.2 0.06,0.37 0.08,0.49 0.18,-0.03 0.37,-0.07 0.56,-0.12zm0.39 0.07l-0.17 0.03c-0.03,-0.19 -0.06,-0.4 -0.1,-0.61 -0.04,-0.21 -0.08,-0.39 -0.12,-0.55l0.17 -0.03c0.02,0.17 0.05,0.35 0.09,0.55 0.04,0.22 0.09,0.42 0.13,0.61zm1.23 -0.23l-0.17 0.03c-0.09,-0.16 -0.16,-0.26 -0.2,-0.31 -0.04,-0.07 -0.09,-0.1 -0.14,-0.12 -0.03,0 -0.09,0 -0.18,0.01 -0.05,0.01 -0.1,0.02 -0.14,0.03 0.04,0.19 0.07,0.36 0.11,0.49l-0.17 0.03c-0.03,-0.18 -0.06,-0.38 -0.1,-0.61 -0.04,-0.2 -0.08,-0.39 -0.12,-0.54l0.13 -0.02c0.03,-0.01 0.06,-0.02 0.1,-0.03 0.04,-0.01 0.09,-0.02 0.14,-0.03 0.27,-0.04 0.41,0.02 0.45,0.2 0.03,0.15 -0.03,0.27 -0.16,0.35l0 0.01c0.07,0.01 0.13,0.04 0.18,0.11 0.05,0.05 0.14,0.18 0.27,0.4zm-0.43 -0.78c-0.03,-0.14 -0.14,-0.2 -0.33,-0.16 -0.07,0.01 -0.13,0.03 -0.18,0.04 0.03,0.11 0.06,0.25 0.09,0.42 0.04,0 0.07,-0.01 0.1,-0.01 0.24,-0.05 0.34,-0.14 0.32,-0.29z"/>
   <g>
    <line class="fil11 str0" x1="5.2" y1="11.88" x2="18.36" y2= "9.39" />
   </g>
   <g>
    <line class="fil11 str1" x1="22.36" y1="29.86" x2="15.03" y2= "31.25" />
   </g>
   <polyline class="fil11 str2" points="6.31,15.7 7.1,16.24 7.78,15.02 "/>
   <polyline class="fil11 str2" points="7.18,19.67 7.98,20.21 8.66,18.99 "/>
   <polyline class="fil11 str2" points="8.75,27.78 9.54,28.32 10.22,27.1 "/>
   <path class="fil12" d="M26.09 29.18l0.13 -0.2 -1.02 -5.38 -2.28 2.42c-0.39,0.42 -0.39,1.07 -0.01,1.46 0,0.01 0,0.01 0,0.01 -0.07,0.12 -0.1,0.26 -0.06,0.37 0,0.01 0,0.02 0.01,0.03l-0.36 0.53c-0.07,0.11 -0.09,0.24 -0.04,0.32l-0.13 0.18c-0.06,0.1 -0.08,0.2 -0.06,0.26l-0.13 0.17c-0.04,0.06 -0.03,0.14 0.03,0.18 0.06,0.04 0.14,0.03 0.18,-0.03l0.13 -0.17c0.06,0.01 0.15,-0.04 0.22,-0.13l0.14 -0.17c0.09,0.01 0.21,-0.04 0.3,-0.14l0.4 -0.49c0.01,0 0.02,0 0.03,0 0.12,0 0.26,-0.07 0.36,-0.19l0.83 -1.04 0.23 0.28 -0.4 0.72c-0.27,0.43 -0.15,1 0.25,1.27 0.4,0.27 0.95,0.16 1.25,-0.26z"/>
   <g>
    <path class="fil13" d="M29.57 23.94l-1.23 4.98c-0.15,0.52 -0.68,0.81 -1.17,0.66 -0.5,-0.14 -0.79,-0.68 -0.66,-1.2l0.95 -5.06c0.18,-0.71 0.82,-1.17 1.42,-0.99 0.6,0.17 0.91,0.91 0.69,1.61z"/>
    <path class="fil14" d="M30.93 24.35l-1.25 4.62c-0.15,0.51 -0.68,0.81 -1.17,0.66 -0.49,-0.14 -0.79,-0.68 -0.66,-1.2l0.96 -4.7c0.19,-0.71 0.83,-1.17 1.43,-0.99 0.6,0.17 0.9,0.91 0.69,1.61z"/>
    <path class="fil15" d="M28.06 23.93l-2.15 4.58c-0.22,0.45 -0.76,0.64 -1.2,0.43 -0.43,-0.2 -0.63,-0.75 -0.44,-1.22l1.81 -4.74c0.3,-0.7 1.02,-1.09 1.58,-0.82 0.57,0.27 0.74,1.08 0.4,1.77z"/>
    <path class="fil16" d="M26.93 23.59l-3 3.51c-0.36,0.45 -0.99,0.53 -1.42,0.2 -0.43,-0.33 -0.53,-0.97 -0.2,-1.45l2.62 -3.8c0.52,-0.76 1.44,-1.06 2.03,-0.61 0.58,0.45 0.55,1.43 -0.03,2.15z"/>
    <path class="fil17" d="M25.36 24.48l0.11 -0.19c0.05,-0.08 0.04,-0.18 -0.01,-0.23l0.3 -0.57c0.02,0.02 0.03,0.04 0.06,0.05 0.13,0.07 0.29,0.02 0.36,-0.11l0.96 -1.81c-0.05,-0.07 -0.11,-0.13 -0.18,-0.18 -0.49,-0.38 -1.23,-0.23 -1.76,0.28l-0.91 1.72c-0.07,-0.02 -0.15,0.03 -0.2,0.12l-0.16 0.34c-0.13,0.03 -0.26,0.07 -0.37,0.14l-0.64 0.92c-0.04,0.27 0,0.54 0.12,0.79l-0.68 1.41c0.04,0.05 0.09,0.1 0.15,0.14 0.36,0.27 0.85,0.26 1.22,0l0.3 -0.53 0.11 0.09 1.68 -1.97 -0.46 -0.41z"/>
    <path class="fil16" d="M29.53 24.33l-3.39 -0.39c-0.72,-0.07 -1.27,-0.73 -1.2,-1.47 0.06,-0.74 0.71,-1.28 1.44,-1.21l3.38 0.39c0.73,0.07 1.27,0.73 1.21,1.46 -0.06,0.74 -0.71,1.29 -1.44,1.22z"/>
    <g>
     <path class="fil0" d="M24.6 24.71l0 0c-0.32,-0.17 -0.44,-0.58 -0.27,-0.9l3.67 -6.92c0.17,-0.32 0.57,-0.45 0.89,-0.28 0.32,0.17 0.44,0.58 0.27,0.9l-3.67 6.92c-0.17,0.32 -0.57,0.45 -0.89,0.28z"/>
     <path class="fil18" d="M28.48 18.8l0.58 -1.1c0.23,-0.43 0.15,-0.92 -0.17,-1.09 -0.32,-0.17 -0.77,0.05 -1,0.48l-0.58 1.09 1.17 0.62z"/>
     <path class="fil19" d="M22.09 29.44c-0.06,-0.04 -0.09,-0.12 -0.05,-0.18l0.26 -0.5c0.03,-0.06 0.11,-0.08 0.18,-0.05 0.06,0.03 0.08,0.11 0.05,0.18l-0.26 0.49c-0.04,0.07 -0.12,0.09 -0.18,0.06z"/>
     <path class="fil0" d="M22.33 29.19l-0.17 -0.09c-0.06,-0.03 -0.06,-0.16 0,-0.29l0.5 -1.01c0.09,-0.18 0.22,-0.3 0.3,-0.26l0.21 0.11c0.08,0.04 0.06,0.23 -0.04,0.4l-0.56 0.98c-0.07,0.12 -0.18,0.19 -0.24,0.16z"/>
     <path class="fil18" d="M22.6 28.82l-0.28 -0.15c-0.11,-0.06 -0.14,-0.23 -0.07,-0.39l0.59 -1.25c0.11,-0.22 0.31,-0.35 0.44,-0.27l0.36 0.18c0.14,0.08 0.14,0.32 0.02,0.53l-0.71 1.19c-0.08,0.15 -0.24,0.22 -0.35,0.16z"/>
     <path class="fil20" d="M22.82 28.05c-0.15,-0.08 -0.25,-0.23 -0.31,-0.36 -0.05,-0.12 -0.05,-0.27 0.02,-0.41l1.82 -3.77c0.06,-0.12 0.19,-0.17 0.26,-0.08 0.1,0.12 0.25,0.27 0.46,0.38 0.21,0.12 0.43,0.16 0.58,0.17 0.11,0.01 0.15,0.14 0.08,0.26l-2.1 3.62c-0.08,0.14 -0.2,0.23 -0.33,0.25 -0.14,0.02 -0.32,0.03 -0.48,-0.06z"/>
     <path class="fil20" d="M27.8 19.63l-0.79 -0.42c-0.16,-0.09 -0.22,-0.29 -0.14,-0.45l0.36 -0.68c0.09,-0.16 0.29,-0.22 0.45,-0.14l0.79 0.42c0.16,0.09 0.22,0.29 0.14,0.45l-0.36 0.68c-0.09,0.16 -0.29,0.22 -0.45,0.14z"/>
     <path class="fil21" d="M26.06 22.93c-0.11,-0.06 -0.15,-0.2 -0.09,-0.31l0.07 -0.13c0.06,-0.12 0.2,-0.16 0.31,-0.1 0.11,0.06 0.15,0.2 0.09,0.31l-0.07 0.14c-0.06,0.11 -0.2,0.15 -0.31,0.09z"/>
     <path class="fil18" d="M26.08 23.48c-0.13,-0.07 -0.19,-0.23 -0.12,-0.36l2.26 -4.25c0.07,-0.13 0.23,-0.18 0.36,-0.11 0.13,0.07 0.18,0.24 0.11,0.37l-2.25 4.24c-0.07,0.13 -0.23,0.18 -0.36,0.11z"/>
     <path class="fil20" d="M28.89 16.61c-0.19,-0.1 -0.43,-0.06 -0.63,0.07 -0.03,0.27 0.07,0.51 0.27,0.61 0.2,0.11 0.45,0.05 0.66,-0.11 -0.01,-0.25 -0.11,-0.46 -0.3,-0.57z"/>
    </g>
    <path class="fil16" d="M28.71 28.89c-0.46,0.54 -1.28,0.59 -1.82,0.12l-3.28 -2.9c-0.54,-0.47 -0.6,-1.3 -0.13,-1.85 0.46,-0.54 1.28,-0.59 1.82,-0.12l3.28 2.9c0.54,0.47 0.6,1.3 0.13,1.85z"/>
    <path class="fil22" d="M25.27 25.67l-0.34 0.39c-0.25,0.3 -0.7,0.33 -0.99,0.07l-0.19 -0.17c-0.4,-0.35 -0.45,-0.97 -0.1,-1.38 0.35,-0.4 0.96,-0.44 1.36,-0.09l0.19 0.17c0.29,0.26 0.32,0.71 0.07,1.01z"/>
    <path class="fil23" d="M25.43 25.33c-0.25,0.01 -0.5,0.12 -0.68,0.33 -0.16,0.18 -0.24,0.41 -0.24,0.64 0.16,-0.03 0.31,-0.11 0.42,-0.24l0.34 -0.39c0.09,-0.1 0.14,-0.22 0.16,-0.34z"/>
    <polygon class="fil24" points="30.39,30.05 33.93,33.03 36.57,29.18 32.87,25.87 "/>
    <path class="fil16" d="M27.14 25.77c0,0 2.05,1.82 2.88,0.33 0.79,-1.43 -1.05,-1.84 -1.05,-1.84l0.58 -2.64c0,0 1.9,-0.12 3.01,1.49 1.12,1.62 3.05,5 1.89,6.59 -1.17,1.59 -4.26,2.99 -7.77,-0.87l0.46 -3.06z"/>
    <path class="fil25" d="M36.89 28.25l-0.65 -0.43c-0.26,-0.17 -0.62,-0.1 -0.79,0.17l-2.72 4.32c-0.15,0.23 -0.11,0.54 0.1,0.72l4.06 3.69 0 -8.47z"/>
    <path class="fil26" d="M34.6 32.87c0,0.29 -0.24,0.54 -0.54,0.54 -0.3,0 -0.54,-0.25 -0.54,-0.54 0,-0.3 0.24,-0.54 0.54,-0.54 0.3,0 0.54,0.24 0.54,0.54z"/>
    <path class="fil27" d="M34.43 32.87c0,0.2 -0.16,0.37 -0.37,0.37 -0.2,0 -0.37,-0.17 -0.37,-0.37 0,-0.21 0.17,-0.38 0.37,-0.38 0.21,0 0.37,0.17 0.37,0.38z"/>
   </g>
  </g>
 </g>
</svg>
