<?xml version="1.0" encoding="UTF-8"?>
<!DOCTYPE svg PUBLIC "-//W3C//DTD SVG 1.1//EN" "http://www.w3.org/Graphics/SVG/1.1/DTD/svg11.dtd">
<!-- Creator: CorelDRAW 2017 -->
<svg xmlns="http://www.w3.org/2000/svg" xml:space="preserve" width="221px" height="186px" version="1.1" style="shape-rendering:geometricPrecision; text-rendering:geometricPrecision; image-rendering:optimizeQuality; fill-rule:evenodd; clip-rule:evenodd"
viewBox="0 0 9.86 8.28"
 xmlns:xlink="http://www.w3.org/1999/xlink">
 <defs>
  <style type="text/css">
   <![CDATA[
    .fil0 {fill:#3B9044;fill-rule:nonzero}
    .fil1 {fill:#7BDD44;fill-rule:nonzero}
   ]]>
  </style>
 </defs>
 <g id="Layer_x0020_1">
  <metadata id="CorelCorpID_0Corel-Layer"/>
  <g id="_2128059788400">
   <g>
    <path class="fil0" d="M3.62 8.28c-0.97,0 -1.88,-0.14 -2.56,-0.39 -0.68,-0.25 -1.06,-0.58 -1.06,-0.94 0,-0.35 0.38,-0.68 1.06,-0.93 0.68,-0.25 1.59,-0.39 2.56,-0.39 0.97,0 1.88,0.14 2.56,0.39 0.68,0.25 1.06,0.58 1.06,0.93 0,0.36 -0.38,0.69 -1.06,0.94 -0.68,0.25 -1.59,0.39 -2.56,0.39zm0 -2.31l0 0c-1.49,0 -2.7,0.44 -2.7,0.98 0,0.55 1.21,0.99 2.7,0.99 1.49,0 2.7,-0.44 2.7,-0.99 0,-0.54 -1.21,-0.98 -2.7,-0.98z"/>
   </g>
   <polygon class="fil1" points="9.86,1.17 8.68,0 3.7,4.93 1.72,2.99 0.55,4.17 3.68,7.27 3.74,7.2 3.76,7.22 "/>
  </g>
 </g>
</svg>
