<?xml version="1.0" encoding="UTF-8"?>
<!DOCTYPE svg PUBLIC "-//W3C//DTD SVG 1.1//EN" "http://www.w3.org/Graphics/SVG/1.1/DTD/svg11.dtd">
<!-- Creator: CorelDRAW 2017 -->
<svg xmlns="http://www.w3.org/2000/svg" xml:space="preserve" width="51px" height="63px" version="1.1" style="shape-rendering:geometricPrecision; text-rendering:geometricPrecision; image-rendering:optimizeQuality; fill-rule:evenodd; clip-rule:evenodd"
viewBox="0 0 0.43 0.53"
 xmlns:xlink="http://www.w3.org/1999/xlink">
 <defs>
  <style type="text/css">
   <![CDATA[
    .fil4 {fill:#163457}
    .fil2 {fill:#1C3D66}
    .fil3 {fill:#FFAF00}
    .fil1 {fill:#FFC733}
    .fil0 {fill:#FFE365}
   ]]>
  </style>
 </defs>
 <g id="Layer_x0020_1">
  <metadata id="CorelCorpID_0Corel-Layer"/>
  <path class="fil0" d="M0.41 0.53l-0.39 0c-0.01,0 -0.02,-0.01 -0.02,-0.02l0 -0.49c0,-0.01 0.01,-0.02 0.02,-0.02l0.27 0c0,0 0,0 0.01,0.01l0.12 0.12c0.01,0 0.01,0.01 0.01,0.01l0 0.37c0,0.01 -0.01,0.02 -0.02,0.02z"/>
  <path class="fil1" d="M0.42 0.13l-0.12 -0.12c-0.01,-0.01 -0.01,-0.01 -0.01,-0.01l-0.08 0 0 0.53 0.2 0c0.01,0 0.02,-0.01 0.02,-0.02l0 -0.37c0,0 0,-0.01 -0.01,-0.01z"/>
  <path class="fil2" d="M0.12 0.44c-0.02,-0.01 -0.02,-0.04 0,-0.06l0.12 -0.12c0,0 0.01,0 0.02,0 0.01,0.01 0.01,0.02 0,0.03l-0.11 0.11c-0.01,0.01 -0.01,0.01 0,0.02 0,0 0.01,0 0.01,0l0.12 -0.12c0.02,-0.02 0.02,-0.04 0,-0.06 -0.01,-0.01 -0.04,-0.01 -0.06,0l-0.09 0.1c-0.01,0 -0.02,0 -0.03,0 0,-0.01 0,-0.02 0,-0.03l0.1 -0.09c0.03,-0.03 0.08,-0.03 0.11,0 0.03,0.03 0.03,0.07 0,0.1l-0.12 0.12c-0.02,0.02 -0.05,0.02 -0.07,0z"/>
  <path class="fil3" d="M0.41 0.16l-0.12 0c-0.01,0 -0.02,-0.01 -0.02,-0.02l0 -0.12c0,-0.02 0.02,-0.03 0.03,-0.01l0.12 0.12c0.01,0.01 0.01,0.03 -0.01,0.03z"/>
  <path class="fil4" d="M0.31 0.22c-0.03,-0.03 -0.07,-0.03 -0.1,-0.01l0 0.04 0.01 -0.01c0.02,-0.01 0.05,-0.01 0.06,0 0.02,0.02 0.02,0.04 0,0.06l-0.07 0.07 0 0.05 0.1 -0.1c0.03,-0.03 0.03,-0.07 0,-0.1z"/>
  <path class="fil4" d="M0.26 0.29c0.01,-0.01 0.01,-0.02 0,-0.03 -0.01,0 -0.02,0 -0.02,0l-0.03 0.03 0 0.04 0.05 -0.04z"/>
 </g>
</svg>
