<?xml version="1.0" encoding="UTF-8"?>
<!DOCTYPE svg PUBLIC "-//W3C//DTD SVG 1.1//EN" "http://www.w3.org/Graphics/SVG/1.1/DTD/svg11.dtd">
<!-- Creator: CorelDRAW 2017 -->
<svg xmlns="http://www.w3.org/2000/svg" xml:space="preserve" width="96.3412mm" height="62.3763mm" version="1.1" style="shape-rendering:geometricPrecision; text-rendering:geometricPrecision; image-rendering:optimizeQuality; fill-rule:evenodd; clip-rule:evenodd"
viewBox="0 0 1341 868"
 xmlns:xlink="http://www.w3.org/1999/xlink">
 <defs>
  <style type="text/css">
   <![CDATA[
    .fil4 {fill:#332C2B}
    .fil3 {fill:#332C2B}
    .fil2 {fill:#F08619}
    .fil1 {fill:#332C2B;fill-rule:nonzero}
    .fil0 {fill:#ED7020;fill-rule:nonzero}
   ]]>
  </style>
 </defs>
 <g id="Layer_x0020_1">
  <metadata id="CorelCorpID_0Corel-Layer"/>
  <g id="_1820543745344">
   <path class="fil0" d="M65 760l10 40c0,2 1,4 1,6 0,2 1,4 1,7 1,-3 1,-5 1,-7 0,-2 1,-4 1,-5l9 -40 21 0 -22 83 -19 0 -9 -36c0,-1 -1,-4 -2,-7 0,-2 -1,-3 -1,-4 0,1 0,2 -1,3 -1,4 -1,6 -2,8l-9 36 -19 0 -22 -83 21 0 9 40c0,2 1,4 1,6 0,2 1,4 1,6 0,-2 1,-3 1,-5 0,-2 1,-4 2,-7l10 -40 17 0zm306 83l0 -83 21 0 0 38 24 -38 24 0 -28 41 31 43 -26 0 -25 -37 0 37 -21 0zm695 -83l10 40c0,2 1,4 1,6 0,2 1,4 1,7 1,-3 1,-5 1,-7 0,-2 1,-4 1,-5l9 -40 21 0 -22 83 -19 0 -9 -36c0,-1 -1,-4 -2,-7 0,-2 -1,-3 -1,-4 0,1 0,2 -1,3 -1,4 -1,6 -2,8l-9 36 -19 0 -22 -83 21 0 9 40c0,2 1,4 1,6 0,2 1,4 1,6 0,-2 1,-3 1,-5 0,-2 1,-4 2,-7l10 -40 17 0z"/>
   <path class="fil1" d="M151 814c0,-4 -1,-8 -3,-11 -2,-3 -5,-4 -9,-4 -4,0 -7,1 -9,4 -2,3 -3,6 -3,11 0,4 1,8 3,11 2,3 5,4 9,4 4,0 7,-1 9,-4 2,-3 3,-6 3,-11zm16 -29l0 57 -17 0 0 -9c-2,4 -5,7 -8,9 -3,2 -7,3 -11,3 -7,0 -13,-3 -17,-8 -4,-6 -6,-13 -6,-22 0,-9 2,-17 7,-22 4,-6 10,-8 18,-8 4,0 7,1 10,3 3,2 5,5 7,9l0 -9 17 0zm14 57l0 -57 18 0 0 14c2,-5 4,-9 7,-11 3,-2 7,-4 11,-4 1,0 1,0 2,0 1,0 1,0 2,0l-2 18c-1,0 -2,-1 -3,-1 -1,0 -2,0 -3,0 -5,0 -8,2 -10,5 -2,3 -4,7 -4,13l0 24 -18 0zm50 0l0 -43 -8 0 0 -14 8 0 0 -17 18 0 0 17 8 0 0 14 -8 0 0 43 -18 0zm75 -29c0,-4 -1,-8 -3,-11 -2,-3 -5,-4 -9,-4 -4,0 -7,1 -9,4 -2,3 -3,6 -3,11 0,4 1,8 3,11 2,3 5,4 9,4 4,0 7,-1 9,-4 2,-3 3,-6 3,-11zm16 -29l0 57 -17 0 0 -9c-2,4 -5,7 -8,9 -3,2 -7,3 -11,3 -7,0 -13,-3 -17,-8 -4,-6 -6,-13 -6,-22 0,-9 2,-17 7,-22 4,-6 10,-8 18,-8 4,0 7,1 10,3 3,2 5,5 7,9l0 -9 17 0zm164 29c0,-4 -1,-8 -3,-11 -2,-3 -5,-4 -9,-4 -4,0 -7,1 -9,4 -2,3 -3,6 -3,11 0,4 1,8 3,11 2,3 5,4 9,4 4,0 7,-1 9,-4 2,-3 3,-6 3,-11zm16 -29l0 57 -17 0 0 -9c-2,4 -5,7 -8,9 -3,2 -7,3 -11,3 -7,0 -13,-3 -17,-8 -4,-6 -6,-13 -6,-22 0,-9 2,-17 7,-22 4,-6 10,-8 18,-8 4,0 7,1 10,3 3,2 5,5 7,9l0 -9 17 0zm14 57l0 -88 19 0 0 88 -19 0zm32 -75c0,-3 1,-6 3,-8 2,-2 4,-3 7,-3 3,0 5,1 7,3 2,2 3,5 3,8 0,3 -1,6 -3,8 -2,2 -4,3 -7,3 -3,0 -5,-1 -7,-3 -2,-2 -3,-5 -3,-8zm1 75l0 -57 19 0 0 57 -19 0zm49 -28c0,4 1,8 3,11 2,3 5,4 9,4 4,0 7,-1 9,-4 2,-3 3,-6 3,-11 0,-4 -1,-8 -3,-11 -2,-3 -5,-4 -9,-4 -4,0 -7,1 -9,4 -2,3 -3,6 -3,11zm-16 54l0 -83 17 0 0 10c2,-4 5,-7 8,-9 3,-2 6,-3 10,-3 7,0 13,3 18,8 4,6 7,13 7,22 0,9 -2,17 -7,22 -4,6 -10,8 -17,8 -4,0 -8,-1 -11,-3 -3,-2 -5,-5 -7,-9 0,1 0,3 0,4 0,2 0,4 0,6l0 24 -18 0zm124 -83l0 29c0,6 0,11 -1,14 -1,3 -3,6 -5,8 -2,3 -5,4 -9,6 -3,1 -8,2 -12,2 -5,0 -9,-1 -12,-2 -3,-1 -6,-3 -9,-6 -2,-2 -4,-5 -5,-8 -1,-3 -1,-8 -1,-14l0 -29 18 0 0 31c0,5 1,8 2,10 1,2 4,3 7,3 3,0 6,-1 7,-3 1,-2 2,-6 2,-10l0 -31 18 0zm51 19c-2,-2 -4,-3 -5,-4 -2,-1 -3,-1 -5,-1 -4,0 -7,1 -9,4 -2,3 -3,6 -3,11 0,4 1,8 3,11 2,3 5,4 9,4 2,0 4,0 5,-1 2,-1 3,-2 5,-4l0 18c-2,1 -4,2 -7,3 -2,1 -5,1 -7,1 -8,0 -15,-3 -20,-8 -5,-6 -8,-13 -8,-22 0,-9 3,-16 8,-22 5,-6 12,-9 20,-9 3,0 5,0 7,1 2,1 4,1 6,3l0 17zm51 10c0,-4 -1,-8 -3,-11 -2,-3 -5,-4 -9,-4 -4,0 -7,1 -9,4 -2,3 -3,6 -3,11 0,4 1,8 3,11 2,3 5,4 9,4 4,0 7,-1 9,-4 2,-3 3,-6 3,-11zm16 -29l0 57 -17 0 0 -9c-2,4 -5,7 -8,9 -3,2 -7,3 -11,3 -7,0 -13,-3 -17,-8 -4,-6 -6,-13 -6,-22 0,-9 2,-17 7,-22 4,-6 10,-8 18,-8 4,0 7,1 10,3 3,2 5,5 7,9l0 -9 17 0zm14 57l0 -57 17 0 0 12c2,-5 5,-8 9,-10 3,-2 7,-3 12,-3 3,0 6,1 9,2 3,1 5,3 6,5 1,2 2,4 3,7 1,3 1,7 1,12l0 33 -19 0 0 -31c0,-5 -1,-8 -2,-10 -1,-2 -4,-3 -7,-3 -4,0 -7,2 -8,5 -2,3 -3,8 -3,15l0 24 -18 0zm110 -29c0,-4 -1,-8 -3,-10 -2,-3 -5,-4 -9,-4 -4,0 -7,1 -9,4 -2,3 -3,6 -3,10 0,4 1,8 3,10 2,3 5,4 9,4 4,0 7,-1 9,-4 2,-3 3,-6 3,-10zm16 -28l0 57c0,9 -2,15 -7,19 -5,4 -12,6 -22,6 -8,0 -15,-2 -19,-5 -5,-3 -7,-8 -7,-14l19 0c0,2 1,3 3,4 2,1 4,2 6,2 4,0 7,-1 8,-3 2,-2 2,-7 2,-13l0 -5c-2,4 -4,6 -7,8 -3,2 -7,3 -11,3 -7,0 -13,-3 -17,-8 -4,-5 -6,-13 -6,-22 0,-9 2,-17 7,-22 4,-5 10,-8 18,-8 4,0 7,1 10,3 3,2 5,5 7,8l0 -9 17 0zm183 21c0,-3 -1,-6 -3,-8 -2,-2 -4,-3 -7,-3 -3,0 -5,1 -7,3 -2,2 -3,5 -4,8l21 0zm18 11l-40 0c0,4 1,8 3,10 2,2 5,4 9,4 3,0 5,-1 7,-2 2,-1 3,-3 4,-5l14 6c-2,4 -5,8 -9,10 -4,2 -9,4 -16,4 -9,0 -17,-3 -22,-8 -6,-6 -8,-13 -8,-22 0,-9 3,-16 8,-22 6,-6 13,-9 21,-9 9,0 16,3 21,9 5,6 8,14 8,25l0 1zm13 25l0 -43 -8 0 0 -14 8 0 0 -17 18 0 0 17 8 0 0 14 -8 0 0 43 -18 0zm75 -29c0,-4 -1,-8 -3,-11 -2,-3 -5,-4 -9,-4 -4,0 -7,1 -9,4 -2,3 -3,6 -3,11 0,4 1,8 3,11 2,3 5,4 9,4 4,0 7,-1 9,-4 2,-3 3,-6 3,-11zm16 -29l0 57 -17 0 0 -9c-2,4 -5,7 -8,9 -3,2 -7,3 -11,3 -7,0 -13,-3 -17,-8 -4,-6 -6,-13 -6,-22 0,-9 2,-17 7,-22 4,-6 10,-8 18,-8 4,0 7,1 10,3 3,2 5,5 7,9l0 -9 17 0zm14 57l0 -57 17 0 0 12c2,-5 5,-8 9,-10 3,-2 7,-3 12,-3 3,0 6,1 9,2 3,1 5,3 6,5 1,2 2,4 3,7 1,3 1,7 1,12l0 33 -19 0 0 -31c0,-5 -1,-8 -2,-10 -1,-2 -4,-3 -7,-3 -4,0 -7,2 -8,5 -2,3 -3,8 -3,15l0 24 -18 0z"/>
  </g>
  <path class="fil2" d="M835 374c67,-56 119,-33 164,27 56,109 112,146 164,76 70,-106 119,-228 152,-344l-49 228c-22,101 -77,286 -152,292 -37,3 -82,-52 -127,-133 -66,-118 -113,-147 -153,-147z"/>
  <path class="fil3" d="M364 145c64,210 134,306 207,290 68,-15 138,-100 213,-140 35,-18 70,-25 108,-11 -18,-3 -31,1 -41,8 27,-8 52,-4 74,14 -21,-6 -40,-6 -59,4 41,-8 67,3 85,25 -31,-12 -56,-15 -72,-5 56,-3 87,14 119,71 -48,-63 -103,-68 -164,-27 -39,1 -135,65 -256,163 -45,36 -65,30 -88,6 -44,-45 -88,-206 -126,-398z"/>
  <path class="fil4" d="M336 124c-7,-7 -8,-15 -11,-25 -3,6 -6,8 -10,6 6,-2 8,-8 7,-17 -5,8 -10,11 -16,7 10,-4 14,-12 13,-23 -6,15 -15,20 -27,15 16,-2 25,-18 23,-28 -2,-7 -6,-13 -12,-16 4,21 -5,30 -25,31 -21,-1 -30,-10 -29,-24 1,-6 8,-12 23,-11 6,1 14,7 11,15 -2,3 -4,4 -8,3 -1,-1 -1,-1 0,-2 3,-3 3,-6 0,-8 -4,-2 -7,-2 -11,-1 -15,5 1,16 7,17 13,1 21,-2 24,-8 3,-8 -1,-17 -9,-19 -5,-2 -11,-2 -17,-3 -22,1 -32,12 -36,30 -1,11 5,21 17,31 -8,0 -15,-5 -20,-16 -5,18 22,34 72,49l-23 0c-54,-14 -67,-36 -53,-65l-149 -45 -8 0c-9,4 -12,15 -13,30 -4,-11 -2,-23 8,-34l-4 0c-9,4 -14,15 -15,29 -3,-11 -3,-22 9,-33l-31 -9c-26,2 -32,14 -18,40l127 44c-5,-9 -6,-18 -3,-25 3,15 9,27 21,31 -5,-13 -5,-22 -1,-26 1,19 10,29 22,34 -8,-14 -8,-25 -4,-33 3,21 11,35 25,40 -8,-12 -10,-22 -6,-31 1,16 11,30 30,39 18,8 38,12 61,13l23 0c21,9 55,9 63,35 2,4 19,61 19,64l-5 -29 -7 -30c-4,-32 -28,-35 -35,-41z"/>
 </g>
</svg>
