<svg xmlns="http://www.w3.org/2000/svg" width="31.508" height="24" viewBox="0 0 31.508 24">
  <g id="_008-id-card" data-name="008-id-card" transform="translate(0 -61)">
    <g id="Group_218" data-name="Group 218" transform="translate(0 61)">
      <g id="Group_217" data-name="Group 217">
        <path id="Path_543" data-name="Path 543" d="M28.738,61H2.769A2.772,2.772,0,0,0,0,63.769V82.231A2.772,2.772,0,0,0,2.769,85H28.738a2.772,2.772,0,0,0,2.769-2.769V63.769A2.772,2.772,0,0,0,28.738,61Zm.923,21.231a.924.924,0,0,1-.923.923H2.769a.924.924,0,0,1-.923-.923V63.769a.924.924,0,0,1,.923-.923H28.738a.924.924,0,0,1,.923.923Z" transform="translate(0 -61)" fill="#b2adad"/>
      </g>
    </g>
    <g id="Group_220" data-name="Group 220" transform="translate(3.692 72.077)">
      <g id="Group_219" data-name="Group 219">
        <path id="Path_544" data-name="Path 544" d="M65.538,241A5.545,5.545,0,0,0,60,246.538v.923a2.772,2.772,0,0,0,2.769,2.769h5.538a2.772,2.772,0,0,0,2.769-2.769v-.923A5.545,5.545,0,0,0,65.538,241Zm3.692,6.462a.924.924,0,0,1-.923.923H62.769a.924.924,0,0,1-.923-.923v-.923a3.692,3.692,0,0,1,7.385,0Z" transform="translate(-60 -241)" fill="#b2adad"/>
      </g>
    </g>
    <g id="Group_222" data-name="Group 222" transform="translate(5.538 64.692)">
      <g id="Group_221" data-name="Group 221">
        <path id="Path_545" data-name="Path 545" d="M93.692,121a3.692,3.692,0,1,0,3.692,3.692A3.7,3.7,0,0,0,93.692,121Zm0,5.538a1.846,1.846,0,1,1,1.846-1.846A1.848,1.848,0,0,1,93.692,126.538Z" transform="translate(-90 -121)" fill="#b2adad"/>
      </g>
    </g>
    <g id="Group_224" data-name="Group 224" transform="translate(16.738 77.615)">
      <g id="Group_223" data-name="Group 223">
        <path id="Path_546" data-name="Path 546" d="M282.154,331h-9.231a.923.923,0,1,0,0,1.846h9.231a.923.923,0,1,0,0-1.846Z" transform="translate(-272 -331)" fill="#b2adad"/>
      </g>
    </g>
    <g id="Group_226" data-name="Group 226" transform="translate(16.738 73.923)">
      <g id="Group_225" data-name="Group 225">
        <path id="Path_547" data-name="Path 547" d="M282.154,271h-9.231a.923.923,0,1,0,0,1.846h9.231a.923.923,0,1,0,0-1.846Z" transform="translate(-272 -271)" fill="#b2adad"/>
      </g>
    </g>
    <g id="Group_228" data-name="Group 228" transform="translate(16.738 70.231)">
      <g id="Group_227" data-name="Group 227">
        <path id="Path_548" data-name="Path 548" d="M282.154,211h-9.231a.923.923,0,1,0,0,1.846h9.231a.923.923,0,1,0,0-1.846Z" transform="translate(-272 -211)" fill="#b2adad"/>
      </g>
    </g>
    <g id="Group_230" data-name="Group 230" transform="translate(18.585 66.538)">
      <g id="Group_229" data-name="Group 229">
        <path id="Path_549" data-name="Path 549" d="M308.462,151h-5.538a.923.923,0,0,0,0,1.846h5.538a.923.923,0,1,0,0-1.846Z" transform="translate(-302 -151)" fill="#b2adad"/>
      </g>
    </g>
  </g>
</svg>
