<svg xmlns="http://www.w3.org/2000/svg" width="45" height="45" viewBox="0 0 45 45">
  <g id="Group_38" data-name="Group 38" transform="translate(-198 -499)">
    <g id="Layer_x0020_1" transform="translate(198 499)">
      <g id="_2855429481776">
        <path id="Path_198" data-name="Path 198" d="M16.652,11.495c.147.808-1.984.514-2.572,1.249-.514.735-1.837.294-2.131.147s-1.47.294-1.323-.514c.073-.808.808-.808,1.543-1.176.735-.294,1.837-1.4,1.323-1.543a5.089,5.089,0,0,1-3.38-3.087c-.147,0-.147-1.69-.808-1.69a16.353,16.353,0,0,1-1.911,0c-1.029-.22-.808-.808-.955-2.131s.441-.882.735-1.323c0-.073.073-.073.073-.147A8.973,8.973,0,0,0,1.22,9.731V9.8c.661,0,1.837.147,1.911.588.073.588,0,1.4.514,1.617s.661-.882,1.176-.588c.441.294,1.69.588,1.69,1.1,0,.588-.22,1.4,0,1.617a6.343,6.343,0,0,1,1.176,1.323c0,.22.294.955.22,1.249a4.341,4.341,0,0,1-.882,1.4,8.541,8.541,0,0,0,3.087.588,9,9,0,0,0,8.966-8.966,8.469,8.469,0,0,0-1.029-4.042,8.585,8.585,0,0,0,.22,1.984c.882,1.249-2.058,2.058-1.617,3.821Z" transform="translate(12.407 12.899)" fill="#219536" fill-rule="evenodd"/>
        <path id="Path_199" data-name="Path 199" d="M22.5,0A22.5,22.5,0,1,0,45,22.5,22.524,22.524,0,0,0,22.5,0Zm0,36.111A13.565,13.565,0,1,1,36.111,22.5,13.554,13.554,0,0,1,22.5,36.111Z" fill="#219536" fill-rule="evenodd"/>
      </g>
    </g>
  </g>
</svg>
