<svg xmlns="http://www.w3.org/2000/svg" width="45" height="45" viewBox="0 0 45 45">
  <g id="Group_41" data-name="Group 41" transform="translate(-198 -592)">
    <g id="Layer_x0020_1" transform="translate(198 592)">
      <g id="_2855370465984">
        <path id="Path_202" data-name="Path 202" d="M11.677,1.22A10.457,10.457,0,1,0,22.134,11.677,10.438,10.438,0,0,0,11.677,1.22ZM5.887,17.467,8.911,10.38l4.062,4.062Zm8.642-4.58L10.467,8.825l7-2.938Z" transform="translate(10.823 10.823)" fill="#219536" fill-rule="evenodd"/>
        <path id="Path_203" data-name="Path 203" d="M22.5,0A22.5,22.5,0,1,0,45,22.5,22.524,22.524,0,0,0,22.5,0Zm0,36.019A13.565,13.565,0,1,1,36.111,22.5,13.594,13.594,0,0,1,22.5,36.019Z" fill="#219536" fill-rule="evenodd"/>
      </g>
    </g>
  </g>
</svg>
