<svg id="Layer_x0020_1" xmlns="http://www.w3.org/2000/svg" width="45" height="45" viewBox="0 0 45 45">
  <g id="_2855370489280">
    <circle id="Ellipse_8" data-name="Ellipse 8" cx="3.728" cy="3.728" r="3.728" transform="translate(18.864 12.883)" fill="#219536"/>
    <path id="Path_196" data-name="Path 196" d="M22.5,0A22.5,22.5,0,1,0,45,22.5,22.524,22.524,0,0,0,22.5,0Zm0,10.278h.093a7.057,7.057,0,0,1,6.852,7.037c0,4.63-4.907,9.352-6.944,11.019l-.37-.37h-.093c-2.13-1.944-6.481-6.3-6.481-10.648A7.138,7.138,0,0,1,22.5,10.278Zm.093,24.63c-4.167,0-8.333-1.2-8.333-3.519,0-1.574,2.037-2.685,4.722-3.148a19.068,19.068,0,0,0,1.481,1.389c-2.963.278-4.63,1.2-4.63,1.759,0,.648,2.593,1.944,6.759,1.944,4.259,0,6.852-1.3,6.852-1.944,0-.556-1.759-1.481-4.815-1.759.463-.463.926-.926,1.481-1.389,2.685.463,4.907,1.574,4.907,3.148,0,2.315-4.259,3.519-8.426,3.519Z" fill="#219536" fill-rule="evenodd"/>
  </g>
</svg>
