<svg xmlns="http://www.w3.org/2000/svg" width="45" height="45" viewBox="0 0 45 45">
  <g id="Group_39" data-name="Group 39" transform="translate(-180 -529)">
    <g id="Layer_x0020_1" transform="translate(180 529)">
      <path id="Path_200" data-name="Path 200" d="M22.5,0A22.5,22.5,0,1,0,45,22.5,22.524,22.524,0,0,0,22.5,0ZM6.111,31.019c0-7.037,6.2-7.037,7.593-8.889L13.8,21.3a6.725,6.725,0,0,1-3.241-6.111c0-3.611,2.315-6.574,5.278-6.574,2.222,0,4.167,1.852,4.907,4.444-2.87.926-5,4.074-5,7.778a8.7,8.7,0,0,0,2.685,6.481,5.847,5.847,0,0,1-.833.37,12.115,12.115,0,0,0-4.63,3.333H6.111Zm16.481,5.648H12.87c0-7.037,6.111-7.037,7.5-8.889l.185-.833a6.79,6.79,0,0,1-3.333-6.111c0-3.611,2.407-6.574,5.278-6.574,2.963,0,5.278,2.963,5.278,6.574a6.725,6.725,0,0,1-3.241,6.111l.185.926c1.481,1.759,7.5,1.852,7.5,8.8Zm9.444-5.648h0A11.879,11.879,0,0,0,27.5,27.685a3.289,3.289,0,0,1-.833-.37,8.7,8.7,0,0,0,2.685-6.481c0-3.7-2.13-6.852-5.093-7.778.741-2.593,2.685-4.444,5-4.444,2.87,0,5.278,2.963,5.278,6.574A6.913,6.913,0,0,1,31.3,21.3l.185.926c1.481,1.759,7.407,1.852,7.407,8.8H32.037Z" fill="#219536" fill-rule="evenodd"/>
    </g>
  </g>
</svg>
