<?xml version="1.0" encoding="UTF-8"?>
<!DOCTYPE svg PUBLIC "-//W3C//DTD SVG 1.1//EN" "http://www.w3.org/Graphics/SVG/1.1/DTD/svg11.dtd">
<!-- Creator: CorelDRAW 2017 -->
<svg xmlns="http://www.w3.org/2000/svg" xml:space="preserve" width="273px" height="218px" version="1.1" style="shape-rendering:geometricPrecision; text-rendering:geometricPrecision; image-rendering:optimizeQuality; fill-rule:evenodd; clip-rule:evenodd"
viewBox="0 0 9 7.2"
 xmlns:xlink="http://www.w3.org/1999/xlink">
 <defs>
  <style type="text/css">
   <![CDATA[
    .fil3 {fill:#429846}
    .fil1 {fill:#4CAF50}
    .fil7 {fill:#546D79}
    .fil4 {fill:#607D8B}
    .fil9 {fill:#7D8F97}
    .fil5 {fill:#90A4AE}
    .fil8 {fill:#D5D5D5}
    .fil2 {fill:#DEB26F}
    .fil6 {fill:whitesmoke}
    .fil0 {fill:#FFCC80}
   ]]>
  </style>
 </defs>
 <g id="Layer_x0020_1">
  <metadata id="CorelCorpID_0Corel-Layer"/>
  <g id="_2854644157632">
   <path class="fil0" d="M2.32 5.85l0 0.97 -0.45 0 0 -0.97c0,-0.12 0.11,-0.22 0.23,-0.22 0.12,0 0.22,0.1 0.22,0.22z"/>
   <path class="fil1" d="M2.1 6c-0.33,0 -0.6,-0.27 -0.6,-0.6 0,-0.33 0.27,-0.6 0.6,-0.6 0.33,0 0.6,0.27 0.6,0.6 0,0.33 -0.27,0.6 -0.6,0.6z"/>
   <path class="fil0" d="M7.72 5.85l0 0.97 -0.45 0 0 -0.97c0,-0.12 0.11,-0.22 0.23,-0.22 0.12,0 0.22,0.1 0.22,0.22z"/>
   <path class="fil1" d="M7.5 6c-0.33,0 -0.6,-0.27 -0.6,-0.6 0,-0.33 0.27,-0.6 0.6,-0.6 0.33,0 0.6,0.27 0.6,0.6 0,0.33 -0.27,0.6 -0.6,0.6z"/>
   <path class="fil2" d="M1.87 5.96l0 0.86 0.23 0 0 -0.82c-0.08,0 -0.16,-0.02 -0.23,-0.04z"/>
   <path class="fil3" d="M2.1 4.8c-0.33,0 -0.6,0.27 -0.6,0.6 0,0.25 0.16,0.47 0.37,0.56 0.07,0.02 0.15,0.04 0.23,0.04l0 -1.2z"/>
   <path class="fil2" d="M7.27 5.96l0 0.86 0.23 0 0 -0.82c-0.08,0 -0.16,-0.02 -0.23,-0.04z"/>
   <path class="fil3" d="M7.5 4.8c-0.33,0 -0.6,0.27 -0.6,0.6 0,0.25 0.15,0.47 0.37,0.56 0.07,0.02 0.15,0.04 0.23,0.04l0 -1.2z"/>
   <path class="fil4" d="M4.8 1.12c-0.17,0 -0.3,-0.13 -0.3,-0.3l0 -0.52c0,-0.17 0.13,-0.3 0.3,-0.3 0.16,0 0.3,0.13 0.3,0.3l0 0.52c0,0.17 -0.14,0.3 -0.3,0.3z"/>
   <path class="fil5" d="M5.77 2.1l-1.95 0c-0.12,0 -0.22,-0.1 -0.22,-0.23l0 -0.75c0,-0.28 0.23,-0.52 0.52,-0.52l1.35 0c0.29,0 0.53,0.24 0.53,0.52l0 0.75c0,0.13 -0.1,0.23 -0.23,0.23l0 0z"/>
   <path class="fil4" d="M6.07 1.5l-2.55 0c-0.28,0 -0.52,0.24 -0.52,0.52l0 4.8 3.6 0 0 -4.8c0,-0.28 -0.24,-0.52 -0.53,-0.52z"/>
   <path class="fil6" d="M5.4 6.9l-1.2 0 0 -1.58c0,-0.12 0.1,-0.22 0.22,-0.22l0.75 0c0.13,0 0.23,0.1 0.23,0.22l0 1.58z"/>
   <path class="fil6" d="M5.1 4.2l-0.6 0c-0.17,0 -0.3,-0.14 -0.3,-0.3 0,-0.17 0.13,-0.3 0.3,-0.3l0.6 0c0.16,0 0.3,0.13 0.3,0.3 0,0.16 -0.14,0.3 -0.3,0.3l0 0z"/>
   <path class="fil6" d="M5.1 3l-0.6 0c-0.17,0 -0.3,-0.14 -0.3,-0.3 0,-0.17 0.13,-0.3 0.3,-0.3l0.6 0c0.16,0 0.3,0.13 0.3,0.3 0,0.16 -0.14,0.3 -0.3,0.3l0 0z"/>
   <path class="fil7" d="M4.8 0c-0.17,0 -0.3,0.13 -0.3,0.3l0 0.3 0.3 0 0 -0.6z"/>
   <path class="fil8" d="M4.8 5.1l-0.38 0c-0.12,0 -0.22,0.1 -0.22,0.22l0 1.28 0.6 0 0 -1.5z"/>
   <path class="fil8" d="M4.8 3.6l-0.3 0c-0.17,0 -0.3,0.13 -0.3,0.3 0,0.16 0.13,0.3 0.3,0.3l0.3 0 0 -0.6z"/>
   <path class="fil8" d="M4.8 2.4l-0.3 0c-0.17,0 -0.3,0.13 -0.3,0.3 0,0.16 0.13,0.3 0.3,0.3l0.3 0 0 -0.6z"/>
   <path class="fil5" d="M8.7 7.2l-6.6 0c-0.17,0 -0.3,-0.14 -0.3,-0.3 0,-0.17 0.13,-0.3 0.3,-0.3l6.6 0c0.16,0 0.3,0.13 0.3,0.3 0,0.16 -0.14,0.3 -0.3,0.3l0 0z"/>
   <path class="fil9" d="M5.4 6.6l-0.6 0 -4.2 0 -0.3 0c-0.17,0 -0.3,0.13 -0.3,0.3 0,0.16 0.13,0.3 0.3,0.3l3.3 0 1.8 -0.6z"/>
  </g>
 </g>
</svg>
