<?xml version="1.0" encoding="UTF-8"?>
<!DOCTYPE svg PUBLIC "-//W3C//DTD SVG 1.1//EN" "http://www.w3.org/Graphics/SVG/1.1/DTD/svg11.dtd">
<!-- Creator: CorelDRAW 2017 -->
<svg xmlns="http://www.w3.org/2000/svg" xml:space="preserve" width="222px" height="222px" version="1.1" style="shape-rendering:geometricPrecision; text-rendering:geometricPrecision; image-rendering:optimizeQuality; fill-rule:evenodd; clip-rule:evenodd"
viewBox="0 0 9.83 9.83"
 xmlns:xlink="http://www.w3.org/1999/xlink">
 <defs>
  <style type="text/css">
   <![CDATA[
    .fil3 {fill:#E48E66}
    .fil2 {fill:#EDB288}
    .fil0 {fill:#F7CAA5}
    .fil1 {fill:#F8EC7D}
   ]]>
  </style>
 </defs>
 <g id="Layer_x0020_1">
  <metadata id="CorelCorpID_0Corel-Layer"/>
  <g id="_2854697552128">
   <path class="fil0" d="M7.23 6.85l0.21 -0.12 1.29 -0.69 0.16 -0.09c0.1,-0.05 0.22,-0.08 0.33,-0.08 0.25,0 0.48,0.13 0.61,0.34l-3.04 2.09c-0.3,0.14 -0.62,0.22 -0.95,0.22 -0.13,0 -0.25,-0.01 -0.38,-0.04l-1.76 -0.32c-0.05,-0.01 -0.1,-0.02 -0.15,-0.02 -0.12,0 -0.23,0.03 -0.32,0.08l-0.96 0.61 -0.66 -2.19 0.01 0c0.2,-0.03 0.39,-0.13 0.55,-0.27l0.29 -0.26c0.34,-0.25 0.75,-0.39 1.17,-0.39 0.29,0 0.58,0.07 0.85,0.2l0.12 0.05c0.18,0.1 0.39,0.14 0.6,0.14l1.17 0c0.43,0 0.79,0.31 0.86,0.74l0 0z"/>
   <path class="fil1" d="M8.85 3.58l0 0.85 -2.33 0 0 -0.97c0,0 0,-0.01 0,-0.01 0,-0.19 -0.06,-0.38 -0.17,-0.54 0.15,-0.11 0.33,-0.18 0.52,-0.18 0.14,0.18 0.35,0.29 0.59,0.29 0.22,0 0.42,-0.1 0.56,-0.27 0.01,-0.01 0.02,-0.01 0.03,-0.02 0.45,0.03 0.8,0.4 0.8,0.85l0 0z"/>
   <path class="fil2" d="M8.73 6.03l0 0.01 -1.29 0.69 -0.21 0.12c-0.03,-0.2 -0.13,-0.39 -0.28,-0.52l0.82 -0.45 0.22 -0.11c0.26,-0.13 0.6,0.01 0.74,0.26z"/>
   <path class="fil1" d="M8.2 1.31l0 0.38c0,0.41 -0.34,0.75 -0.76,0.75 -0.42,0 -0.75,-0.34 -0.75,-0.75l0 -0.38c0,-0.42 0.33,-0.76 0.75,-0.76 0.42,0 0.76,0.34 0.76,0.76z"/>
   <path class="fil2" d="M7.76 5.86l0.01 0.02 -0.82 0.45c-0.16,-0.14 -0.37,-0.22 -0.58,-0.22 0,0 0,0 0,0l-0.26 0 0.69 -0.37c0.12,-0.07 0.26,-0.11 0.4,-0.11 0.21,0 0.41,0.09 0.56,0.23l0 0z"/>
   <path class="fil3" d="M6.35 2.91c0.11,0.16 0.17,0.35 0.17,0.54 0,0 0,0.01 0,0.01l0 1.4 -3.21 0 0 -1.4c0,0 0,0 0,0 0,-0.53 0.42,-0.96 0.95,-0.98 0.16,0.22 0.41,0.34 0.67,0.34 0.25,0 0.49,-0.11 0.65,-0.3 0.01,-0.01 0.02,-0.03 0.03,-0.03 0.3,0.01 0.58,0.17 0.74,0.42l0 0z"/>
   <path class="fil3" d="M5.78 0.86l0 0.44c0,0.47 -0.39,0.86 -0.86,0.86 -0.48,0 -0.87,-0.39 -0.87,-0.86l0 -0.44c0,-0.47 0.39,-0.86 0.87,-0.86 0.47,0 0.86,0.39 0.86,0.86z"/>
   <path class="fil1" d="M3.44 2.89l0.03 0.03c-0.1,0.16 -0.16,0.34 -0.16,0.53 0,0 0,0.01 0,0.01l0 0.97 -2.33 0 0 -0.85c0,-0.46 0.37,-0.84 0.83,-0.85 0.14,0.18 0.36,0.29 0.59,0.29 0.22,0 0.43,-0.1 0.57,-0.27 0,-0.01 0.01,-0.01 0.02,-0.02 0.16,0.01 0.32,0.06 0.45,0.16l0 0z"/>
   <path class="fil1" d="M3.14 1.31l0 0.38c0,0.41 -0.34,0.75 -0.76,0.75 -0.41,0 -0.75,-0.34 -0.75,-0.75l0 -0.38c0,-0.42 0.34,-0.76 0.75,-0.76 0.42,0 0.76,0.34 0.76,0.76z"/>
   <path class="fil2" d="M7.24 7.11c0,0 0,0 -0.01,0l-0.99 -0.04c-0.07,0 -0.15,-0.01 -0.22,-0.01 -0.22,0 -0.44,0.02 -0.66,0.05 0,0 -0.01,0 -0.02,0 -0.07,0 -0.13,-0.06 -0.13,-0.13 0,-0.07 0.05,-0.12 0.12,-0.13 0.23,-0.03 0.46,-0.05 0.69,-0.05 0.08,0 0.15,0 0.23,0.01l0.85 0.04c-0.07,-0.35 -0.37,-0.61 -0.73,-0.61l-1.17 0c-0.23,0 -0.45,-0.05 -0.66,-0.15l-0.12 -0.06c-0.25,-0.11 -0.52,-0.18 -0.79,-0.18 -0.39,0 -0.78,0.13 -1.09,0.37l-0.29 0.25c-0.17,0.16 -0.38,0.26 -0.61,0.3 -0.01,0 -0.02,0 -0.03,0 -0.07,0 -0.13,-0.05 -0.13,-0.13 0,-0.06 0.05,-0.12 0.11,-0.13 0.18,-0.03 0.35,-0.11 0.49,-0.23l0.29 -0.26c0,-0.01 0.01,-0.01 0.01,-0.01 0.36,-0.27 0.8,-0.42 1.25,-0.42 0.31,0 0.62,0.07 0.9,0.21l0.12 0.06c0.17,0.08 0.36,0.12 0.55,0.12l1.17 0c0,0 0,0 0,0 0.55,0 1,0.45 1,1 0,0 0,0 0,0 0,0.08 -0.06,0.13 -0.13,0.13l0 0z"/>
   <path class="fil3" d="M2.27 8.83l0.31 1 -2.11 0 -0.47 -3.85 1.41 0 0.2 0.66 0.66 2.19zm-0.57 0.33c0,-0.16 -0.13,-0.28 -0.29,-0.28 -0.15,0 -0.28,0.12 -0.28,0.28 0,0.15 0.13,0.28 0.28,0.28 0,0 0,0 0,0 0.16,0 0.29,-0.13 0.29,-0.28 0,0 0,0 0,0l0 0z"/>
   <circle class="fil1" cx="1.41" cy="9.16" r="0.28"/>
  </g>
 </g>
</svg>
