<?xml version="1.0" encoding="UTF-8"?>
<!DOCTYPE svg PUBLIC "-//W3C//DTD SVG 1.1//EN" "http://www.w3.org/Graphics/SVG/1.1/DTD/svg11.dtd">
<!-- Creator: CorelDRAW 2017 -->
<svg xmlns="http://www.w3.org/2000/svg" xml:space="preserve" width="222px" height="222px" version="1.1" style="shape-rendering:geometricPrecision; text-rendering:geometricPrecision; image-rendering:optimizeQuality; fill-rule:evenodd; clip-rule:evenodd"
viewBox="0 0 27.05 27.05"
 xmlns:xlink="http://www.w3.org/1999/xlink">
 <defs>
  <style type="text/css">
   <![CDATA[
    .fil5 {fill:#4C5B66}
    .fil2 {fill:#69F0F7}
    .fil0 {fill:#95ADC0}
    .fil3 {fill:#AAC4DA}
    .fil1 {fill:#D9EEF7}
    .fil4 {fill:#FFE451}
   ]]>
  </style>
 </defs>
 <g id="Layer_x0020_1">
  <metadata id="CorelCorpID_0Corel-Layer"/>
  <g id="_2854841242912">
   <path class="fil0" d="M19.16 24.23l0 1.69c0,0.31 -0.25,0.57 -0.56,0.57l-10.15 0c-0.31,0 -0.56,-0.26 -0.56,-0.57l0 -1.69 11.27 0z"/>
   <polygon class="fil1" points="9.58,19.72 17.47,19.72 17.47,24.23 9.58,24.23 "/>
   <polygon class="fil2" points="23.67,13.52 23.67,15.22 3.38,15.22 3.38,13.52 3.38,3.38 23.67,3.38 "/>
   <path class="fil1" d="M26.49 1.69l0 13.53 -2.82 0 0 -11.84 -20.29 0 0 11.84 -2.82 0 0 -13.53c0.01,-0.62 0.51,-1.12 1.13,-1.13l23.67 0c0.62,0.01 1.12,0.51 1.13,1.13z"/>
   <path class="fil3" d="M26.49 15.22l0 3.38c-0.01,0.62 -0.51,1.12 -1.13,1.12l-23.67 0c-0.62,0 -1.12,-0.5 -1.13,-1.12l0 -3.38 25.93 0z"/>
   <circle class="fil4" cx="13.52" cy="7.33" r="5.64"/>
   <polygon class="fil5" points="2.25,14.65 24.8,14.65 24.8,15.78 2.25,15.78 "/>
   <path class="fil5" d="M25.36 0l-5.07 0 0 1.13 5.07 0c0.31,0 0.56,0.25 0.56,0.56l0 16.91c0,0.31 -0.25,0.56 -0.56,0.56l-23.67 0c-0.31,0 -0.56,-0.25 -0.56,-0.56l0 -16.91c0,-0.31 0.25,-0.56 0.56,-0.56l5.07 0 0 -1.13 -5.07 0c-0.93,0 -1.69,0.76 -1.69,1.69l0 16.91c0,0.93 0.76,1.69 1.69,1.69l7.33 0 0 3.38 -1.13 0c-0.31,0 -0.56,0.25 -0.56,0.56l0 1.69 -1.13 0 0 1.13 14.65 0 0 -1.13 -1.13 0 0 -1.69c0,-0.31 -0.25,-0.56 -0.56,-0.56l-1.13 0 0 -3.38 7.33 0c0.93,0 1.69,-0.76 1.69,-1.69l0 -16.91c0,-0.93 -0.76,-1.69 -1.69,-1.69zm-6.76 25.92l-10.15 0 0 -1.12 10.15 0 0 1.12zm-1.69 -2.25l-6.77 0 0 -3.38 6.77 0 0 3.38z"/>
   <path class="fil5" d="M24.23 13.52l0 -10.14c0,-0.31 -0.25,-0.56 -0.56,-0.56l-2.82 0 0 1.12 2.25 0 0 9.58 1.13 0z"/>
   <path class="fil5" d="M6.2 3.94l0 -1.12 -2.82 0c-0.31,0 -0.56,0.25 -0.56,0.56l0 10.14 1.12 0 0 -9.58 2.26 0z"/>
   <path class="fil5" d="M13.52 13.52c3.43,0 6.2,-2.77 6.2,-6.19 0,-3.43 -2.77,-6.2 -6.2,-6.2 -3.42,0 -6.19,2.77 -6.19,6.2 0,3.42 2.77,6.19 6.19,6.19zm0 -11.27c2.81,0 5.08,2.27 5.08,5.08 0,2.8 -2.27,5.07 -5.08,5.07 -2.8,0 -5.07,-2.27 -5.07,-5.07 0.01,-2.8 2.28,-5.07 5.07,-5.08z"/>
   <path class="fil5" d="M12.4 10.14l0.56 0 0 1.13 1.13 0 0 -1.13 0.56 0c0.62,0 1.13,-0.5 1.13,-1.12l0 -1.13c0,-0.62 -0.51,-1.13 -1.13,-1.13l-2.25 0 0 -1.12 2.25 0 0 0.56 1.13 0 0 -0.56c0,-0.63 -0.51,-1.13 -1.13,-1.13l-0.56 0 0 -1.13 -1.13 0 0 1.13 -0.56 0c-0.62,0 -1.13,0.5 -1.13,1.13l0 1.12c0,0.62 0.51,1.13 1.13,1.13l2.25 0 0 1.13 -2.25 0 0 -0.57 -1.13 0 0 0.57c0,0.62 0.51,1.12 1.13,1.12z"/>
  </g>
 </g>
</svg>
