<?xml version="1.0" encoding="UTF-8"?>
<!DOCTYPE svg PUBLIC "-//W3C//DTD SVG 1.1//EN" "http://www.w3.org/Graphics/SVG/1.1/DTD/svg11.dtd">
<!-- Creator: CorelDRAW 2017 -->
<svg xmlns="http://www.w3.org/2000/svg" xml:space="preserve" width="222px" height="222px" version="1.1" style="shape-rendering:geometricPrecision; text-rendering:geometricPrecision; image-rendering:optimizeQuality; fill-rule:evenodd; clip-rule:evenodd"
viewBox="0 0 35.76 35.76"
 xmlns:xlink="http://www.w3.org/1999/xlink">
 <defs>
  <style type="text/css">
   <![CDATA[
    .fil16 {fill:#2A2F4F}
    .fil1 {fill:#2BA1CF}
    .fil9 {fill:#3D4159}
    .fil2 {fill:#66BAED}
    .fil6 {fill:#A35418}
    .fil15 {fill:#BF8E75}
    .fil11 {fill:#BFD5DE}
    .fil5 {fill:#CC7A3B}
    .fil13 {fill:#D3A489}
    .fil4 {fill:#D8D5D0}
    .fil12 {fill:#DDE8ED}
    .fil7 {fill:#EAB599}
    .fil3 {fill:#F2F0EC}
    .fil8 {fill:#F6CAAE}
    .fil14 {fill:#F74F4F}
    .fil0 {fill:#FFE152}
    .fil10 {fill:white}
   ]]>
  </style>
 </defs>
 <g id="Layer_x0020_1">
  <metadata id="CorelCorpID_0Corel-Layer"/>
  <g id="_2854697520768">
   <path class="fil0" d="M35.76 17.88c0,2.65 -0.57,5.16 -1.6,7.42 -1.76,3.86 -4.86,6.98 -8.7,8.78 -0.69,0.33 -1.41,0.61 -2.16,0.85 -0.83,0.26 -1.69,0.47 -2.57,0.61 -0.01,0 -0.01,0 -0.01,0 -0.44,0.07 -0.88,0.12 -1.32,0.16 -0.09,0.01 -0.19,0.02 -0.28,0.02 -0.14,0.01 -0.27,0.02 -0.41,0.03 -0.27,0.01 -0.55,0.01 -0.83,0.01 -0.28,0 -0.57,0 -0.85,-0.02 -0.13,0 -0.26,-0.01 -0.38,-0.02 -0.1,0 -0.19,-0.01 -0.29,-0.02 -0.45,-0.04 -0.9,-0.09 -1.34,-0.16 -0.22,-0.04 -0.43,-0.08 -0.64,-0.12 -0.9,-0.18 -1.78,-0.42 -2.63,-0.74 -0.49,-0.17 -0.98,-0.38 -1.45,-0.6 -0.16,-0.07 -0.32,-0.15 -0.48,-0.23 -0.4,-0.21 -0.8,-0.43 -1.19,-0.66 -1.95,-1.18 -3.65,-2.72 -5.02,-4.53 -0.82,-1.08 -1.52,-2.26 -2.08,-3.52 -0.98,-2.22 -1.53,-4.67 -1.53,-7.26 0,-9.87 8.01,-17.88 17.88,-17.88 9.88,0 17.88,8.01 17.88,17.88l0 0zm0 0z"/>
   <path class="fil1" d="M14.38 23.21l0 12.21c-0.9,-0.18 -1.78,-0.42 -2.63,-0.74 -0.49,-0.17 -0.98,-0.38 -1.45,-0.6 -0.16,-0.07 -0.32,-0.15 -0.48,-0.23 -0.4,-0.21 -0.8,-0.43 -1.19,-0.66 -1.95,-1.18 -3.65,-2.72 -5.02,-4.53 -0.82,-1.08 -1.52,-2.26 -2.08,-3.52l0 -1.93c0,-2.25 1.53,-4.13 3.59,-4.69 0.08,-0.02 0.16,-0.03 0.23,-0.05 0.21,-0.05 0.42,-0.08 0.63,-0.09 0.14,-0.01 0.27,-0.02 0.4,-0.02l3.16 0c0.35,0 0.69,0.04 1.03,0.11 0.01,0 0.03,0.01 0.05,0.01 0.06,0.01 0.11,0.03 0.17,0.04 0,0 0,0 0,0 0.55,0.15 1.06,0.39 1.51,0.7 1.26,0.88 2.08,2.34 2.08,3.99l0 0zm0 0z"/>
   <path class="fil2" d="M14.38 23.21l0 12.21c-0.9,-0.18 -1.78,-0.42 -2.63,-0.74 -0.49,-0.17 -0.98,-0.38 -1.45,-0.6 -0.16,-0.07 -0.32,-0.15 -0.48,-0.23 -0.4,-0.21 -0.8,-0.43 -1.19,-0.66 -1.95,-1.18 -3.65,-2.72 -5.02,-4.53l0 -5.45c0,-2.25 1.53,-4.13 3.59,-4.69 0.08,-0.02 0.16,-0.03 0.23,-0.05 0.21,-0.05 0.42,-0.08 0.63,-0.09 0.14,-0.01 0.27,-0.02 0.4,-0.02l1.08 0c0.35,0 0.69,0.04 1.03,0.11 0.01,0 0.03,0.01 0.05,0.01 0.06,0.01 0.11,0.03 0.17,0.04 0,0 0,0 0,0 0.55,0.15 1.06,0.39 1.51,0.7 1.26,0.88 2.08,2.34 2.08,3.99l0 0zm0 0z"/>
   <path class="fil3" d="M10.81 18.47l-0.02 0.05 -1.45 6.75c-0.14,0.65 -0.71,1.12 -1.37,1.12 0,0 -0.01,0 -0.01,0 0,0 -0.01,0 -0.01,0 -0.67,0 -1.24,-0.47 -1.38,-1.12l-1.45 -6.75 -0.01 -0.05 5.7 0zm0 0z"/>
   <g>
    <path class="fil4" d="M7.96 20.34l-2.18 1.22 -0.67 -3.09 1.36 -0.8 1.49 2.67zm0 0l0 0 0 0z"/>
   </g>
   <g>
    <path class="fil4" d="M7.96 20.34l2.18 1.22 0.67 -3.09 -1.36 -0.8 -1.49 2.67zm0 0l0 0 0 0z"/>
   </g>
   <g>
    <path class="fil5" d="M1.44 17.19l0 -7.31c0,-0.74 0.13,-1.47 0.37,-2.16 0.92,-2.6 3.39,-4.35 6.15,-4.35 0.34,0 0.68,0.02 1.01,0.08 1.52,0.23 2.91,1.01 3.92,2.18 1.02,1.18 1.59,2.69 1.59,4.25l0 7.31 -13.04 0zm0 0l0 0 0 0z"/>
   </g>
   <path class="fil6" d="M4.12 10.17c0,2.58 1.52,5.57 2.35,7.02l-5.03 0 0 -7.31c0,-0.74 0.13,-1.47 0.37,-2.16 0.91,-2.59 3.36,-4.33 6.1,-4.35 -2,0.05 -3.79,3.26 -3.79,6.8l0 0zm0 0z"/>
   <path class="fil7" d="M9.69 16.49l0 2.13c0,0.77 -0.51,1.43 -1.22,1.65 -0.16,0.05 -0.33,0.07 -0.51,0.07 -0.96,0 -1.73,-0.77 -1.73,-1.72l0 -2.13 3.46 0zm0 0z"/>
   <path class="fil8" d="M9.69 18.48l0 0.14c0,0.77 -0.51,1.43 -1.22,1.65 -0.64,-0.2 -1.11,-0.75 -1.2,-1.43 0.11,0.01 0.23,0.01 0.35,0.01 0.32,0 0.64,-0.03 0.96,-0.08 0.38,-0.06 0.75,-0.16 1.11,-0.29zm0 0z"/>
   <path class="fil8" d="M3.22 13.01c0,0.81 -0.59,1.47 -1.35,1.59 -0.09,0.02 -0.17,0.02 -0.26,0.02 -0.89,0 -1.61,-0.72 -1.61,-1.61 0,-0.88 0.72,-1.6 1.61,-1.6 0.09,0 0.17,0 0.26,0.02 0.76,0.12 1.35,0.78 1.35,1.58l0 0zm0 0z"/>
   <path class="fil7" d="M3.22 13.01c0,0.81 -0.59,1.47 -1.35,1.59 -0.14,-0.5 -0.22,-1.04 -0.22,-1.59 0,-0.54 0.08,-1.08 0.22,-1.58 0.76,0.12 1.35,0.78 1.35,1.58zm0 0z"/>
   <path class="fil7" d="M2.18 13.01c0,0.32 -0.25,0.58 -0.57,0.58 -0.32,0 -0.58,-0.26 -0.58,-0.58 0,-0.31 0.26,-0.57 0.58,-0.57 0.32,0 0.57,0.26 0.57,0.57zm0 0z"/>
   <path class="fil7" d="M12.09 10.96l0 5.53c-0.86,0.81 -1.95,1.38 -3.17,1.58 -0.01,0 -0.02,0 -0.03,0 -0.3,0.05 -0.61,0.07 -0.93,0.07 -3.3,0 -5.98,-2.68 -5.98,-5.98l0 -2.28c0,-0.29 0.02,-0.58 0.06,-0.86 1.42,1.03 3.46,0.93 4.76,-0.3 0.43,-0.41 0.73,-0.89 0.9,-1.41 0.1,0.9 0.51,1.78 1.24,2.47 0.87,0.82 2.01,1.21 3.15,1.18l0 0zm0 0z"/>
   <path class="fil8" d="M12.09 10.96l0 5.53c-0.86,0.81 -1.95,1.38 -3.17,1.58 -0.01,0 -0.02,0 -0.03,0 -2.86,-0.45 -5.05,-2.92 -5.05,-5.91l0 -2.28c0,-0.06 0,-0.12 0,-0.18 1.06,0.11 2.15,-0.22 2.96,-0.98 0.43,-0.41 0.73,-0.9 0.9,-1.41 0.1,0.9 0.51,1.78 1.24,2.47 0.87,0.82 2.01,1.21 3.15,1.18l0 0zm0 0z"/>
   <g>
    <path class="fil7" d="M11.17 11.66c0,-0.55 -0.44,-1 -0.99,-1 -0.55,0 -0.99,0.45 -0.99,1l1.98 0zm0 0l0 0 0 0z"/>
   </g>
   <g>
    <path class="fil7" d="M6.73 11.66c0,-0.55 -0.44,-1 -0.99,-1 -0.55,0 -0.99,0.45 -0.99,1l1.98 0zm0 0l0 0 0 0z"/>
   </g>
   <path class="fil9" d="M6.42 12.08c0,0.37 -0.3,0.68 -0.68,0.68 -0.37,0 -0.68,-0.31 -0.68,-0.68 0,-0.38 0.31,-0.68 0.68,-0.68 0.38,0 0.68,0.3 0.68,0.68zm0 0z"/>
   <path class="fil9" d="M10.86 12.08c0,0.37 -0.31,0.68 -0.68,0.68 -0.38,0 -0.68,-0.31 -0.68,-0.68 0,-0.38 0.3,-0.68 0.68,-0.68 0.37,0 0.68,0.3 0.68,0.68zm0 0z"/>
   <path class="fil7" d="M8.64 13.79l-1.36 0c-0.16,0 -0.29,-0.13 -0.29,-0.3 0,-0.16 0.13,-0.29 0.29,-0.29l1.36 0c0.16,0 0.29,0.13 0.29,0.29 0,0.17 -0.13,0.3 -0.29,0.3zm0 0z"/>
   <path class="fil7" d="M7.96 15.64c-0.5,0 -1,-0.13 -1.46,-0.38 -0.13,-0.07 -0.17,-0.23 -0.1,-0.36 0.07,-0.13 0.23,-0.17 0.36,-0.1 0.75,0.41 1.65,0.41 2.4,0 0.13,-0.07 0.29,-0.03 0.36,0.1 0.07,0.13 0.03,0.29 -0.1,0.36 -0.46,0.25 -0.96,0.38 -1.46,0.38l0 0zm0 0z"/>
   <path class="fil10" d="M6.28 11.96c0,0.16 -0.13,0.29 -0.29,0.29 -0.16,0 -0.29,-0.13 -0.29,-0.29 0,-0.16 0.13,-0.29 0.29,-0.29 0.16,0 0.29,0.13 0.29,0.29zm0 0z"/>
   <path class="fil10" d="M10.75 11.96c0,0.16 -0.13,0.29 -0.29,0.29 -0.16,0 -0.29,-0.13 -0.29,-0.29 0,-0.16 0.13,-0.29 0.29,-0.29 0.16,0 0.29,0.13 0.29,0.29zm0 0z"/>
   <path class="fil7" d="M12.03 13.73c0,0.41 -0.33,0.75 -0.74,0.75 -0.41,0 -0.75,-0.34 -0.75,-0.75 0,-0.41 0.34,-0.74 0.75,-0.74 0.41,0 0.74,0.33 0.74,0.74zm0 0z"/>
   <path class="fil7" d="M5.38 13.73c0,0.41 -0.34,0.75 -0.75,0.75 -0.41,0 -0.74,-0.34 -0.74,-0.75 0,-0.41 0.33,-0.74 0.74,-0.74 0.41,0 0.75,0.33 0.75,0.74zm0 0z"/>
   <path class="fil11" d="M34.16 23.06l0 2.24c-1.76,3.86 -4.86,6.98 -8.7,8.78 -0.69,0.33 -1.41,0.61 -2.16,0.85 -0.83,0.26 -1.69,0.47 -2.57,0.61 -0.01,0 -0.01,0 -0.01,0l0 -12.48c0,-2.66 2.04,-4.84 4.65,-5.05 0.14,-0.02 0.28,-0.02 0.42,-0.02l3.3 0c0.39,0 0.77,0.04 1.13,0.13 2.26,0.51 3.94,2.53 3.94,4.94zm0 0z"/>
   <path class="fil12" d="M34.16 23.06l0 2.24c-1.76,3.86 -4.86,6.98 -8.7,8.78 -0.69,0.33 -1.41,0.61 -2.16,0.85l0 -11.87c0,-2.8 2.28,-5.07 5.08,-5.07l0.71 0c2.8,0 5.07,2.27 5.07,5.07l0 0zm0 0z"/>
   <path class="fil13" d="M22.47 12.4c0,0.83 -0.61,1.53 -1.41,1.66 -0.09,0.01 -0.18,0.02 -0.27,0.02 -0.93,0 -1.68,-0.75 -1.68,-1.68 0,-0.93 0.75,-1.69 1.68,-1.69 0.09,0 0.18,0.01 0.27,0.03 0.8,0.12 1.41,0.82 1.41,1.66zm0 0z"/>
   <g>
    <path class="fil14" d="M28.8 19.82l-1.36 2.18 -1.36 -2.18 2.72 0zm0 0l0 0 0 0z"/>
   </g>
   <path class="fil14" d="M29.27 28.17l-1.83 2.31 -1.83 -2.31 1.83 -6.74 1.83 6.74zm0 0z"/>
   <path class="fil15" d="M22.47 12.4c0,0.83 -0.61,1.53 -1.41,1.66 -0.14,-0.53 -0.22,-1.09 -0.22,-1.66 0,-0.58 0.08,-1.14 0.22,-1.66 0.8,0.12 1.41,0.82 1.41,1.66zm0 0z"/>
   <path class="fil15" d="M21.39 12.4c0,0.33 -0.27,0.6 -0.6,0.6 -0.33,0 -0.6,-0.27 -0.6,-0.6 0,-0.34 0.27,-0.6 0.6,-0.6 0.33,0 0.6,0.26 0.6,0.6zm0 0z"/>
   <g>
    <path class="fil11" d="M27.44 20.06l-2.29 1.27 -0.69 -3.23 1.42 -0.83 1.56 2.79zm0 0l0 0 0 0z"/>
   </g>
   <g>
    <path class="fil11" d="M27.44 20.06l2.28 1.27 0.69 -3.23 -1.41 -0.83 -1.56 2.79zm0 0l0 0 0 0z"/>
   </g>
   <path class="fil13" d="M32.4 12.4c0,0.83 0.61,1.53 1.41,1.66 0.09,0.01 0.18,0.02 0.27,0.02 0.93,0 1.68,-0.75 1.68,-1.68 0,-0.93 -0.75,-1.69 -1.68,-1.69 -0.09,0 -0.18,0.01 -0.27,0.03 -0.8,0.12 -1.41,0.82 -1.41,1.66zm0 0z"/>
   <path class="fil15" d="M32.4 12.4c0,0.83 0.61,1.53 1.41,1.66 0.15,-0.53 0.23,-1.09 0.23,-1.66 0,-0.58 -0.08,-1.14 -0.23,-1.66 -0.8,0.12 -1.41,0.82 -1.41,1.66zm0 0z"/>
   <path class="fil15" d="M34.68 12.4c0,0.33 -0.27,0.6 -0.6,0.6 -0.33,0 -0.6,-0.27 -0.6,-0.6 0,-0.34 0.27,-0.6 0.6,-0.6 0.33,0 0.6,0.26 0.6,0.6zm0 0z"/>
   <path class="fil15" d="M33.7 11.5c0,3.12 -2.28,5.7 -5.26,6.18 -0.32,0.06 -0.66,0.08 -1,0.08 -3.46,0 -6.26,-2.8 -6.26,-6.26 0,-1.63 0.57,-4.09 1.59,-5.2 1.15,-1.25 2.85,-1.06 4.67,-1.06 0.34,0 0.67,0.03 1,0.08 2.98,0.48 5.26,3.07 5.26,6.18l0 0zm0 0z"/>
   <path class="fil15" d="M29.25 16.04l0 2.22c0,0.81 -0.54,1.5 -1.28,1.72 -0.17,0.06 -0.35,0.08 -0.53,0.08 -1,0 -1.81,-0.81 -1.81,-1.8l0 -2.22 3.62 0zm0 0z"/>
   <path class="fil13" d="M29.25 18.12l0 0.14c0,0.81 -0.54,1.5 -1.28,1.72 -0.66,-0.2 -1.16,-0.78 -1.26,-1.49 0.12,0.01 0.25,0.01 0.37,0.01 0.34,0 0.68,-0.02 1,-0.08 0.41,-0.06 0.79,-0.17 1.17,-0.3l0 0zm0 0z"/>
   <path class="fil13" d="M33.7 11.5c0,3.12 -2.28,5.7 -5.26,6.18 -2.98,-0.48 -5.25,-3.06 -5.25,-6.18 0,-1.92 0.86,-3.63 2.22,-4.78 0.85,-0.72 1.89,-1.21 3.03,-1.4 2.78,0.45 4.95,2.73 5.23,5.56 0.02,0.2 0.03,0.41 0.03,0.62l0 0zm0 0z"/>
   <path class="fil15" d="M27.44 14.59c-0.53,0 -1.05,-0.14 -1.53,-0.4 -0.13,-0.07 -0.18,-0.24 -0.11,-0.38 0.08,-0.13 0.24,-0.18 0.38,-0.11 0.79,0.44 1.73,0.44 2.52,0 0.13,-0.07 0.3,-0.02 0.37,0.11 0.08,0.14 0.03,0.31 -0.11,0.38 -0.47,0.26 -1,0.4 -1.52,0.4zm0 0z"/>
   <path class="fil9" d="M26.1 11.14c0,0.39 -0.31,0.71 -0.71,0.71 -0.39,0 -0.71,-0.32 -0.71,-0.71 0,-0.39 0.32,-0.71 0.71,-0.71 0.4,0 0.71,0.32 0.71,0.71zm0 0z"/>
   <path class="fil9" d="M30.19 11.14c0,0.39 -0.32,0.71 -0.71,0.71 -0.39,0 -0.71,-0.32 -0.71,-0.71 0,-0.39 0.32,-0.71 0.71,-0.71 0.39,0 0.71,0.32 0.71,0.71zm0 0z"/>
   <path class="fil10" d="M25.96 11.01c0,0.17 -0.14,0.31 -0.3,0.31 -0.17,0 -0.31,-0.14 -0.31,-0.31 0,-0.17 0.14,-0.3 0.31,-0.3 0.16,0 0.3,0.13 0.3,0.3zm0 0z"/>
   <path class="fil10" d="M30.08 11.01c0,0.17 -0.14,0.31 -0.3,0.31 -0.17,0 -0.31,-0.14 -0.31,-0.31 0,-0.17 0.14,-0.3 0.31,-0.3 0.16,0 0.3,0.13 0.3,0.3zm0 0z"/>
   <path class="fil15" d="M28.15 12.93l-1.42 0c-0.17,0 -0.31,-0.14 -0.31,-0.31 0,-0.17 0.14,-0.31 0.31,-0.31l1.42 0c0.17,0 0.3,0.14 0.3,0.31 0,0.17 -0.13,0.31 -0.3,0.31zm0 0z"/>
   <path class="fil11" d="M29.5 22.89l2.73 0 0 0.84 -2.73 0 0 -0.84zm0 0z"/>
   <path class="fil16" d="M27.07 3.45c1.9,0.14 3.42,1.67 3.52,3.6l0.01 0.36 1.1 0 0.58 3.91 1.43 -0.44 -0.2 -3.83c-0.1,-2.03 -1.77,-3.61 -3.8,-3.61l-2.64 0.01zm0 0z"/>
   <path class="fil9" d="M33.39 1.94c1.51,1.51 1.51,3.96 0,5.47 -1.51,1.51 -3.95,1.51 -5.46,0l5.46 -5.47zm0 0z"/>
   <g>
    <path class="fil9" d="M27.93 7.41l-4.75 0 -0.59 3.91 -1.42 -0.44 0.19 -3.83c0.1,-2.03 1.78,-3.61 3.8,-3.61l6.86 0.03 0.9 1.63 -4.99 2.31zm0 0l0 0 0 0z"/>
   </g>
   <path class="fil16" d="M27.8 3.45c-1.89,0.14 -3.42,1.67 -3.51,3.6l-0.02 0.36 -1.09 0 -0.59 3.91 -1.42 -0.44 0.19 -3.83c0.1,-2.03 1.78,-3.61 3.8,-3.61l2.64 0.01zm0 0z"/>
   <path class="fil9" d="M25.46 32.74l0 1.34c-2.3,1.08 -4.87,1.68 -7.58,1.68 -2.71,0 -5.28,-0.6 -7.58,-1.68l0 -1.34c0,-2.64 1.8,-4.87 4.24,-5.52 0.09,-0.02 0.18,-0.05 0.27,-0.07 0.24,-0.05 0.49,-0.09 0.74,-0.11 0.16,-0.01 0.31,-0.01 0.47,-0.01l3.72 0c0.42,0 0.83,0.04 1.22,0.12 0.02,0.01 0.04,0.01 0.06,0.02 0.07,0.01 0.14,0.03 0.2,0.05 0,0 0,0 0.01,0 0.64,0.17 1.24,0.45 1.77,0.82 1.49,1.03 2.46,2.76 2.46,4.7l0 0zm0 0z"/>
   <path class="fil2" d="M21.24 27.15l-0.01 0.07 -1.83 8.48c-0.09,0.01 -0.19,0.02 -0.28,0.02 -0.14,0.01 -0.27,0.02 -0.41,0.03 -0.27,0.01 -0.55,0.01 -0.83,0.01 -0.28,0 -0.57,0 -0.85,-0.02 -0.13,0 -0.26,-0.01 -0.38,-0.02 -0.1,0 -0.19,-0.01 -0.29,-0.02l-1.82 -8.48 -0.02 -0.07 6.72 0zm0 0z"/>
   <g>
    <path class="fil9" d="M19.42 29.09l-1.54 2.46 -1.53 -2.46 3.07 0zm0 0l0 0 0 0z"/>
   </g>
   <path class="fil9" d="M19.12 35.72c-0.14,0.01 -0.27,0.02 -0.41,0.03 -0.27,0.01 -0.55,0.01 -0.83,0.01 -0.28,0 -0.57,0 -0.85,-0.02 -0.13,0 -0.26,-0.01 -0.38,-0.02l1.23 -4.81 1.24 4.81zm0 0z"/>
   <g>
    <path class="fil1" d="M17.88 29.37l-2.57 1.43 -0.79 -3.65 1.6 -0.94 1.76 3.16zm0 0l0 0 0 0z"/>
   </g>
   <g>
    <path class="fil1" d="M17.88 29.37l2.58 1.43 0.78 -3.65 -1.6 -0.94 -1.76 3.16zm0 0l0 0 0 0z"/>
   </g>
   <path class="fil16" d="M21.34 32.07l0.81 0 -1.42 3.47c-0.66,0.11 -1.33,0.17 -2.02,0.21l2.51 -8.53 0.02 -0.07 1.76 0.58 -1.66 4.34zm0 0z"/>
   <path class="fil16" d="M17.03 35.74c-0.68,-0.03 -1.35,-0.1 -2.01,-0.2l-1.43 -3.47 0.82 0 -1.67 -4.34 1.77 -0.58 0.01 0.07 2.51 8.52zm0 0z"/>
   <path class="fil7" d="M19.92 24.82l0 2.51c0,0.91 -0.6,1.69 -1.43,1.94 -0.2,0.06 -0.4,0.1 -0.61,0.1 -1.13,0 -2.04,-0.92 -2.04,-2.04l0 -2.51 4.08 0zm0 0z"/>
   <path class="fil8" d="M19.92 27.17l0 0.16c0,0.91 -0.6,1.69 -1.43,1.95 -0.76,-0.24 -1.32,-0.89 -1.42,-1.69 0.13,0.01 0.27,0.01 0.41,0.01 0.38,0 0.76,-0.03 1.13,-0.09 0.45,-0.07 0.89,-0.19 1.31,-0.34l0 0zm0 0z"/>
   <path class="fil8" d="M12.29 20.72c0,0.94 -0.69,1.73 -1.6,1.87 -0.1,0.02 -0.2,0.03 -0.3,0.03 -1.05,0 -1.9,-0.85 -1.9,-1.9 0,-1.05 0.85,-1.9 1.9,-1.9 0.1,0 0.2,0.01 0.3,0.03 0.91,0.14 1.6,0.92 1.6,1.87zm0 0z"/>
   <path class="fil7" d="M12.29 20.72c0,0.94 -0.69,1.73 -1.6,1.87 -0.16,-0.59 -0.25,-1.22 -0.25,-1.87 0,-0.65 0.09,-1.28 0.25,-1.87 0.91,0.14 1.6,0.92 1.6,1.87zm0 0z"/>
   <path class="fil7" d="M11.07 20.72c0,0.37 -0.31,0.68 -0.68,0.68 -0.38,0 -0.68,-0.31 -0.68,-0.68 0,-0.38 0.3,-0.68 0.68,-0.68 0.37,0 0.68,0.3 0.68,0.68zm0 0z"/>
   <path class="fil8" d="M23.48 20.72c0,0.94 0.69,1.73 1.59,1.87 0.1,0.02 0.2,0.03 0.31,0.03 1.04,0 1.89,-0.85 1.89,-1.9 0,-1.05 -0.85,-1.9 -1.89,-1.9 -0.11,0 -0.21,0.01 -0.31,0.03 -0.9,0.14 -1.59,0.92 -1.59,1.87zm0 0z"/>
   <path class="fil7" d="M23.48 20.72c0,0.94 0.69,1.73 1.59,1.87 0.17,-0.59 0.25,-1.22 0.25,-1.87 0,-0.65 -0.08,-1.28 -0.25,-1.87 -0.9,0.14 -1.59,0.92 -1.59,1.87zm0 0z"/>
   <path class="fil7" d="M24.94 17.02l0 2.69c0,3.51 -2.57,6.43 -5.93,6.97 -0.01,0 -0.02,0 -0.03,0 -0.36,0.06 -0.72,0.09 -1.1,0.09 -3.9,0 -7.06,-3.16 -7.06,-7.06l0 -2.69c0,-0.82 0.14,-1.61 0.4,-2.34 0.97,-2.75 3.58,-4.72 6.66,-4.72l0 0c0.38,0 0.74,0.03 1.1,0.09 3.38,0.53 5.96,3.45 5.96,6.97l0 0zm0 0z"/>
   <path class="fil7" d="M26.05 20.72c0,0.37 -0.3,0.68 -0.67,0.68 -0.38,0 -0.68,-0.31 -0.68,-0.68 0,-0.38 0.3,-0.68 0.68,-0.68 0.37,0 0.67,0.3 0.67,0.68zm0 0z"/>
   <path class="fil8" d="M24.94 17.02l0 2.69c0,3.51 -2.57,6.43 -5.93,6.97 -0.01,0 -0.02,0 -0.03,0 -3.38,-0.52 -5.96,-3.44 -5.96,-6.97l0 -2.69c0,-3.52 2.58,-6.44 5.96,-6.97 3.38,0.53 5.96,3.45 5.96,6.97l0 0zm0 0z"/>
   <path class="fil9" d="M16.38 19.3c0,0.44 -0.36,0.8 -0.8,0.8 -0.44,0 -0.8,-0.36 -0.8,-0.8 0,-0.44 0.36,-0.8 0.8,-0.8 0.44,0 0.8,0.36 0.8,0.8zm0 0z"/>
   <path class="fil9" d="M20.99 19.3c0,0.44 -0.36,0.8 -0.8,0.8 -0.45,0 -0.8,-0.36 -0.8,-0.8 0,-0.44 0.35,-0.8 0.8,-0.8 0.44,0 0.8,0.36 0.8,0.8zm0 0z"/>
   <path class="fil10" d="M16.22 19.16c0,0.19 -0.16,0.34 -0.35,0.34 -0.19,0 -0.34,-0.15 -0.34,-0.34 0,-0.19 0.15,-0.34 0.34,-0.34 0.19,0 0.35,0.15 0.35,0.34zm0 0z"/>
   <path class="fil10" d="M20.86 19.16c0,0.19 -0.15,0.34 -0.34,0.34 -0.19,0 -0.34,-0.15 -0.34,-0.34 0,-0.19 0.15,-0.34 0.34,-0.34 0.19,0 0.34,0.15 0.34,0.34zm0 0z"/>
   <path class="fil7" d="M18.68 21l-1.6 0c-0.19,0 -0.34,-0.15 -0.34,-0.34 0,-0.19 0.15,-0.35 0.34,-0.35l1.6 0c0.19,0 0.35,0.16 0.35,0.35 0,0.19 -0.16,0.34 -0.35,0.34zm0 0z"/>
   <path class="fil7" d="M17.88 23.19c-0.59,0 -1.18,-0.15 -1.72,-0.45 -0.15,-0.08 -0.21,-0.27 -0.12,-0.42 0.08,-0.16 0.27,-0.21 0.42,-0.13 0.89,0.49 1.95,0.49 2.84,0 0.15,-0.08 0.34,-0.03 0.43,0.13 0.08,0.15 0.02,0.34 -0.13,0.42 -0.54,0.3 -1.13,0.45 -1.72,0.45l0 0zm0 0z"/>
   <path class="fil16" d="M24.94 14.58l0 2.76 -1.31 0 0 -2.16 -9.49 -1.76 -2 -0.37 0 4.29 -1.32 0 0 -2.76c0,-3.14 2.55,-5.68 5.69,-5.68l2.75 0c0.07,0 0.15,0 0.22,0.01 3.04,0.11 5.46,2.61 5.46,5.67l0 0zm0 0z"/>
   <path class="fil9" d="M24.94 14.58l0 2.76 -1.31 0 0 -2.16 -9.49 -1.76c0.53,-2.51 2.7,-4.41 5.34,-4.51 3.04,0.11 5.46,2.61 5.46,5.67l0 0zm0 0z"/>
  </g>
 </g>
</svg>
