<?xml version="1.0" encoding="UTF-8"?>
<!DOCTYPE svg PUBLIC "-//W3C//DTD SVG 1.1//EN" "http://www.w3.org/Graphics/SVG/1.1/DTD/svg11.dtd">
<!-- Creator: CorelDRAW 2017 -->
<svg xmlns="http://www.w3.org/2000/svg" xml:space="preserve" width="222px" height="222px" version="1.1" style="shape-rendering:geometricPrecision; text-rendering:geometricPrecision; image-rendering:optimizeQuality; fill-rule:evenodd; clip-rule:evenodd"
viewBox="0 0 10.77 10.77"
 xmlns:xlink="http://www.w3.org/1999/xlink">
 <defs>
  <style type="text/css">
   <![CDATA[
    .fil0 {fill:#19CFFC;fill-rule:nonzero}
    .fil9 {fill:#333940;fill-rule:nonzero}
    .fil8 {fill:#414952;fill-rule:nonzero}
    .fil1 {fill:#4AB8F7;fill-rule:nonzero}
    .fil5 {fill:#707789;fill-rule:nonzero}
    .fil4 {fill:#7E8596;fill-rule:nonzero}
    .fil7 {fill:#CDD2E1;fill-rule:nonzero}
    .fil6 {fill:#DCE1EB;fill-rule:nonzero}
    .fil3 {fill:#E9EDF5;fill-rule:nonzero}
    .fil10 {fill:#FE6A16;fill-rule:nonzero}
    .fil2 {fill:white;fill-rule:nonzero}
   ]]>
  </style>
 </defs>
 <g id="Layer_x0020_1">
  <metadata id="CorelCorpID_0Corel-Layer"/>
  <g id="_2854841243232">
   <path class="fil0" d="M10.77 5.38c0,2.98 -2.41,5.39 -5.39,5.39 -2.97,0 -5.38,-2.41 -5.38,-5.39 0,-2.97 2.41,-5.38 5.38,-5.38 2.98,0 5.39,2.41 5.39,5.38zm0 0z"/>
   <path class="fil1" d="M10.77 5.38c0,-0.24 -0.02,-0.47 -0.05,-0.7l-2.69 -2.69 -0.5 0.7 -0.89 -0.9 -0.08 0.15 -0.64 -0.64 -3.19 7.67 1.72 1.71c0.3,0.06 0.62,0.09 0.93,0.09 2.98,0 5.39,-2.41 5.39,-5.39zm0 0z"/>
   <path class="fil2" d="M2.73 1.99l5.3 0 0 6.98 -5.3 0 0 -6.98zm0 0z"/>
   <path class="fil3" d="M5.38 1.99l2.65 0 0 6.98 -2.65 0 0 -6.98zm0 0z"/>
   <path class="fil4" d="M7.09 4.59c0,0.94 -0.77,1.7 -1.71,1.7 -0.94,0 -1.7,-0.76 -1.7,-1.7 0,-0.94 0.76,-1.7 1.7,-1.7 0.94,0 1.71,0.76 1.71,1.7zm0 0z"/>
   <path class="fil5" d="M5.38 2.89c0,0 0,0 0,0l0 3.4c0,0 0,0 0,0 0.94,0 1.71,-0.76 1.71,-1.7 0,-0.94 -0.77,-1.7 -1.71,-1.7zm0 0z"/>
   <path class="fil6" d="M6.14 4.12c0,0.41 -0.34,0.75 -0.76,0.75 -0.41,0 -0.75,-0.34 -0.75,-0.75 0,-0.42 0.34,-0.76 0.75,-0.76 0.42,0 0.76,0.34 0.76,0.76zm0 0z"/>
   <path class="fil7" d="M5.38 3.36c0,0 0,0 0,0l0 1.51c0,0 0,0 0,0 0.42,0 0.76,-0.34 0.76,-0.75 0,-0.42 -0.34,-0.76 -0.76,-0.76zm0 0z"/>
   <path class="fil6" d="M5.38 6.29c0.51,0 0.96,-0.22 1.27,-0.56 -0.2,-0.5 -0.69,-0.86 -1.27,-0.86 -0.57,0 -1.06,0.36 -1.27,0.86 0.31,0.34 0.77,0.56 1.27,0.56zm0 0z"/>
   <path class="fil7" d="M5.38 4.87c0,0 0,0 0,0l0 1.42c0,0 0,0 0,0 0.51,0 0.96,-0.22 1.27,-0.56 -0.2,-0.5 -0.69,-0.86 -1.27,-0.86zm0 0z"/>
   <path class="fil8" d="M6.13 1.79c-0.01,-0.4 -0.34,-0.72 -0.75,-0.72 -0.4,0 -0.73,0.32 -0.75,0.72l-0.5 0 0 0.89 2.51 0 0 -0.89 -0.51 0zm0 0z"/>
   <path class="fil9" d="M6.64 1.79l-0.51 0c-0.01,-0.4 -0.34,-0.72 -0.75,-0.72 0,0 0,0 0,0l0 1.61 1.26 0 0 -0.89zm0 0z"/>
   <path class="fil10" d="M3.27 6.7l1.58 0 0 0.42 -1.58 0 0 -0.42zm0 0z"/>
   <path class="fil4" d="M4.98 6.7l2.19 0 0 0.42 -2.19 0 0 -0.42zm0 0z"/>
   <path class="fil5" d="M5.38 6.7l1.79 0 0 0.42 -1.79 0 0 -0.42zm0 0z"/>
   <path class="fil10" d="M3.27 7.39l1.58 0 0 0.43 -1.58 0 0 -0.43zm0 0z"/>
   <path class="fil4" d="M4.98 7.39l1.48 0 0 0.43 -1.48 0 0 -0.43zm0 0z"/>
   <path class="fil5" d="M5.38 7.39l1.08 0 0 0.43 -1.08 0 0 -0.43zm0 0z"/>
   <path class="fil10" d="M3.27 8.08l1.58 0 0 0.43 -1.58 0 0 -0.43zm0 0z"/>
   <path class="fil4" d="M4.98 8.08l2.52 0 0 0.43 -2.52 0 0 -0.43zm0 0z"/>
   <path class="fil5" d="M5.38 8.08l2.12 0 0 0.43 -2.12 0 0 -0.43zm0 0z"/>
  </g>
 </g>
</svg>
