<?xml version="1.0" encoding="UTF-8"?>
<!DOCTYPE svg PUBLIC "-//W3C//DTD SVG 1.1//EN" "http://www.w3.org/Graphics/SVG/1.1/DTD/svg11.dtd">
<!-- Creator: CorelDRAW 2017 -->
<svg xmlns="http://www.w3.org/2000/svg" xml:space="preserve" width="222px" height="283px" version="1.1" style="shape-rendering:geometricPrecision; text-rendering:geometricPrecision; image-rendering:optimizeQuality; fill-rule:evenodd; clip-rule:evenodd"
viewBox="0 0 6.34 8.08"
 xmlns:xlink="http://www.w3.org/1999/xlink">
 <defs>
  <style type="text/css">
   <![CDATA[
    .fil1 {fill:#00C728}
    .fil0 {fill:#4AB8F7}
   ]]>
  </style>
 </defs>
 <g id="Layer_x0020_1">
  <metadata id="CorelCorpID_0Corel-Layer"/>
  <g id="_2854644133984">
   <path class="fil0" d="M3.17 0c-1.75,0 -3.17,1.43 -3.17,3.19 0,0.68 0.16,1.36 0.49,2.02 0.26,0.53 0.61,1.04 1.06,1.53 0.77,0.82 1.52,1.28 1.55,1.3l0.07 0.04 0.06 -0.04c0.04,-0.02 0.79,-0.48 1.55,-1.3 0.45,-0.49 0.81,-1 1.07,-1.53 0.32,-0.66 0.49,-1.34 0.49,-2.02 0,-1.76 -1.42,-3.19 -3.17,-3.19zm-0.66 6.95c-0.2,0 -0.36,-0.17 -0.36,-0.37 0,-0.2 0.16,-0.36 0.36,-0.36 0.2,0 0.37,0.16 0.37,0.36 0,0.2 -0.17,0.37 -0.37,0.37l0 0zm1 0.18c0.04,-0.03 0.09,-0.04 0.14,-0.04 0.15,0 0.27,0.12 0.27,0.27 0,0.15 -0.12,0.27 -0.27,0.27 -0.15,0 -0.27,-0.12 -0.27,-0.27 0,-0.05 0.01,-0.1 0.04,-0.14 0,0.15 -0.12,0.27 -0.27,0.27l0.36 -0.36zm-0.34 -1.29c-1.47,0 -2.67,-1.19 -2.67,-2.66 0,-1.47 1.2,-2.66 2.67,-2.66 1.46,0 2.66,1.19 2.66,2.66 0,1.47 -1.2,2.66 -2.66,2.66z"/>
   <path class="fil1" d="M2.21 1.82c0.13,-0.07 0.25,-0.1 0.38,-0.1 0.15,0 0.29,0.05 0.41,0.13 0.05,0.03 0.11,0.05 0.17,0.05 0.06,0 0.12,-0.02 0.17,-0.05 0.11,-0.08 0.24,-0.12 0.38,-0.12 0,0 0,0 0,0 0.13,0 0.26,0.03 0.4,0.09 0.03,0.01 0.11,0.04 0.19,0.07 -0.05,-0.18 -0.13,-0.34 -0.24,-0.47 -0.23,-0.25 -0.55,-0.4 -0.89,-0.4 -0.33,0 -0.65,0.15 -0.87,0.4 -0.12,0.13 -0.2,0.28 -0.24,0.45l0.14 -0.05z"/>
   <path class="fil1" d="M3.18 3.81c-0.45,0 -0.84,-0.28 -0.97,-0.7l0 -0.01 -0.17 -0.83c0,-0.01 0,-0.02 0,-0.03 0,-0.05 0.03,-0.1 0.08,-0.12l0.19 -0.07c0.1,-0.05 0.19,-0.08 0.28,-0.08 0.1,0 0.19,0.03 0.27,0.09 0.09,0.06 0.2,0.09 0.31,0.09 0.11,0 0.21,-0.03 0.31,-0.09 0.16,-0.11 0.34,-0.1 0.54,-0.01 0.04,0.02 0.14,0.06 0.22,0.08 0.06,0.02 0.09,0.07 0.09,0.12 0,0.01 0,0.02 0,0.03l-0.17 0.82 0 0.01c-0.13,0.42 -0.52,0.7 -0.98,0.7z"/>
   <path class="fil1" d="M4.94 4.73c0,0 0,-0.01 0,-0.01 0,-0.29 -0.21,-0.55 -0.49,-0.61l-0.63 -0.14c0,0 -0.01,0 -0.02,0 -0.07,0 -0.13,0.05 -0.13,0.12 0,0 0,0 0,0l0 0c0,0.34 -0.22,0.61 -0.5,0.61 -0.14,0 -0.27,-0.06 -0.36,-0.18l0 0c-0.1,-0.12 -0.15,-0.27 -0.15,-0.42 0,0 0,-0.01 0,-0.01l0 0c0,0 0,0 0,0 0,-0.07 -0.06,-0.12 -0.12,-0.12 -0.01,0 -0.02,0 -0.03,0l-0.62 0.14c-0.29,0.06 -0.5,0.32 -0.5,0.61 0,0 0,0.01 0,0.01l0 0.08c0.46,0.49 1.1,0.78 1.78,0.78 0.67,0 1.32,-0.29 1.77,-0.78l0 -0.08z"/>
  </g>
 </g>
</svg>
