<?xml version="1.0" encoding="UTF-8"?>
<!DOCTYPE svg PUBLIC "-//W3C//DTD SVG 1.1//EN" "http://www.w3.org/Graphics/SVG/1.1/DTD/svg11.dtd">
<!-- Creator: CorelDRAW 2017 -->
<svg xmlns="http://www.w3.org/2000/svg" xml:space="preserve" width="100px" height="99px" version="1.1" style="shape-rendering:geometricPrecision; text-rendering:geometricPrecision; image-rendering:optimizeQuality; fill-rule:evenodd; clip-rule:evenodd"
viewBox="0 0 1.63 1.61"
 xmlns:xlink="http://www.w3.org/1999/xlink">
 <defs>
  <style type="text/css">
   <![CDATA[
    .fil3 {fill:black}
    .fil6 {fill:#45738A}
    .fil5 {fill:#537D91}
    .fil1 {fill:#CEE4F7}
    .fil2 {fill:#E48E66}
    .fil0 {fill:#E6F1FA}
    .fil7 {fill:#FDB53E}
    .fil4 {fill:#FEDA43}
   ]]>
  </style>
 </defs>
 <g id="Layer_x0020_1">
  <metadata id="CorelCorpID_0Corel-Layer"/>
  <g id="_2855038914880">
   <path class="fil0" d="M0.22 0.66l0.16 0 0 0.66 -0.16 0 0 -0.66zm0 0z"/>
   <path class="fil1" d="M0.31 0.66l0.07 0 0 0.66 -0.07 0 0 -0.66zm0 0z"/>
   <path class="fil2" d="M1.52 0.48l-0.7 -0.48c0,0 -0.01,0 -0.02,0l-0.69 0.48 0 0.06 1.41 0 0 -0.06zm0 0z"/>
   <path class="fil3" d="M0.82 0c0,0 -0.01,0 -0.02,0l-0.02 0.02 0.67 0.46 0 0.06 0.07 0 0 -0.06 -0.7 -0.48zm0 0z"/>
   <path class="fil4" d="M0.87 0.32c0,0.03 -0.03,0.06 -0.06,0.06 -0.03,0 -0.05,-0.03 -0.05,-0.06 0,-0.03 0.02,-0.05 0.05,-0.05 0.03,0 0.06,0.02 0.06,0.05zm0 0z"/>
   <path class="fil5" d="M0.41 0.7l-0.23 0c-0.01,0 -0.02,-0.01 -0.02,-0.02l0 -0.12 0.27 0 0 0.12c0,0.01 -0.01,0.02 -0.02,0.02l0 0zm0 0z"/>
   <path class="fil6" d="M0.36 0.56l0 0.12c0,0.01 -0.01,0.02 -0.02,0.02l0.07 0c0.01,0 0.02,-0.01 0.02,-0.02l0 -0.12 -0.07 0zm0 0z"/>
   <path class="fil5" d="M0.41 1.29l-0.23 0c-0.01,0 -0.02,0.01 -0.02,0.02l0 0.12 0.27 0 0 -0.12c0,-0.01 -0.01,-0.02 -0.02,-0.02zm0 0z"/>
   <path class="fil6" d="M0.36 1.43l0 -0.12c0,-0.01 -0.01,-0.02 -0.02,-0.02l0.07 0c0.01,0 0.02,0.01 0.02,0.02l0 0.12 -0.07 0zm0 0z"/>
   <path class="fil0" d="M0.73 0.66l0.16 0 0 0.66 -0.16 0 0 -0.66zm0 0z"/>
   <path class="fil1" d="M0.82 0.66l0.07 0 0 0.66 -0.07 0 0 -0.66zm0 0z"/>
   <path class="fil5" d="M0.93 0.7l-0.23 0c-0.01,0 -0.02,-0.01 -0.02,-0.02l0 -0.12 0.27 0 0 0.12c0,0.01 -0.01,0.02 -0.02,0.02l0 0zm0 0z"/>
   <path class="fil6" d="M0.88 0.56l0 0.12c0,0.01 -0.01,0.02 -0.02,0.02l0.07 0c0.01,0 0.02,-0.01 0.02,-0.02l0 -0.12 -0.07 0zm0 0z"/>
   <path class="fil5" d="M0.93 1.29l-0.23 0c-0.01,0 -0.02,0.01 -0.02,0.02l0 0.12 0.27 0 0 -0.12c0,-0.01 -0.01,-0.02 -0.02,-0.02l0 0zm0 0z"/>
   <path class="fil6" d="M0.88 1.43l0 -0.12c0,-0.01 -0.01,-0.02 -0.02,-0.02l0.07 0c0.01,0 0.02,0.01 0.02,0.02l0 0.12 -0.07 0zm0 0z"/>
   <path class="fil0" d="M1.25 0.66l0.16 0 0 0.66 -0.16 0 0 -0.66zm0 0z"/>
   <path class="fil1" d="M1.34 0.66l0.07 0 0 0.66 -0.07 0 0 -0.66zm0 0z"/>
   <path class="fil5" d="M1.44 0.7l-0.23 0c-0.01,0 -0.02,-0.01 -0.02,-0.02l0 -0.12 0.27 0 0 0.12c0,0.01 -0.01,0.02 -0.02,0.02l0 0zm0 0z"/>
   <path class="fil6" d="M1.39 0.56l0 0.12c0,0.01 -0.01,0.02 -0.02,0.02l0.07 0c0.01,0 0.02,-0.01 0.02,-0.02l0 -0.12 -0.07 0zm0 0z"/>
   <path class="fil5" d="M1.44 1.29l-0.23 0c-0.01,0 -0.02,0.01 -0.02,0.02l0 0.12 0.27 0 0 -0.12c0,-0.01 -0.01,-0.02 -0.02,-0.02zm0 0z"/>
   <path class="fil6" d="M1.39 1.43l0 -0.12c0,-0.01 -0.01,-0.02 -0.02,-0.02l0.07 0c0.01,0 0.02,0.01 0.02,0.02l0 0.12 -0.07 0zm0 0z"/>
   <path class="fil4" d="M1.55 0.59l-1.48 0c-0.01,0 -0.02,-0.01 -0.02,-0.02l0 -0.07c0,-0.01 0.01,-0.02 0.02,-0.02l1.48 0c0.01,0 0.02,0.01 0.02,0.02l0 0.07c0,0.01 -0.01,0.02 -0.02,0.02l0 0zm0 0z"/>
   <path class="fil7" d="M1.55 0.48l-0.07 0c0.01,0 0.02,0.01 0.02,0.02l0 0.07c0,0.01 -0.01,0.02 -0.02,0.02l0.07 0c0.01,0 0.02,-0.01 0.02,-0.02l0 -0.07c0,-0.01 -0.01,-0.02 -0.02,-0.02l0 0zm0 0z"/>
   <path class="fil4" d="M1.57 1.56l-1.52 0 0 -0.15c0,-0.01 0.01,-0.02 0.02,-0.02l1.48 0c0.01,0 0.02,0.01 0.02,0.02l0 0.15zm0 0z"/>
   <path class="fil7" d="M1.55 1.39l-0.07 0c0.01,0 0.02,0.01 0.02,0.02l0 0.15 0.07 0 0 -0.15c0,-0.01 -0.01,-0.02 -0.02,-0.02zm0 0z"/>
   <path class="fil2" d="M1.61 1.61l-1.59 0c-0.01,0 -0.02,-0.01 -0.02,-0.02l0 -0.07c0,-0.01 0.01,-0.02 0.02,-0.02l1.59 0c0.01,0 0.02,0.01 0.02,0.02l0 0.07c0,0.01 -0.01,0.02 -0.02,0.02l0 0zm0 0z"/>
   <path class="fil1" d="M1.61 1.5l-0.08 0c0.02,0 0.02,0.01 0.02,0.02l0 0.07c0,0.01 0,0.02 -0.02,0.02l0.08 0c0.01,0 0.02,-0.01 0.02,-0.02l0 -0.07c0,-0.01 -0.01,-0.02 -0.02,-0.02l0 0zm0 0z"/>
   <path class="fil3" d="M0.81 0.4c0.05,0 0.08,-0.04 0.08,-0.08 0,-0.04 -0.03,-0.08 -0.08,-0.08 -0.04,0 -0.08,0.04 -0.08,0.08 0,0.04 0.04,0.08 0.08,0.08zm0 -0.11c0.02,0 0.03,0.01 0.03,0.03 0,0.02 -0.01,0.03 -0.03,0.03 -0.01,0 -0.03,-0.01 -0.03,-0.03 0,-0.02 0.02,-0.03 0.03,-0.03zm0 0z"/>
  </g>
 </g>
</svg>
