<?xml version="1.0" encoding="UTF-8"?>
<!DOCTYPE svg PUBLIC "-//W3C//DTD SVG 1.1//EN" "http://www.w3.org/Graphics/SVG/1.1/DTD/svg11.dtd">
<!-- Creator: CorelDRAW 2017 -->
<svg xmlns="http://www.w3.org/2000/svg" xml:space="preserve" width="59px" height="59px" version="1.1" style="shape-rendering:geometricPrecision; text-rendering:geometricPrecision; image-rendering:optimizeQuality; fill-rule:evenodd; clip-rule:evenodd"
viewBox="0 0 0.38 0.38"
 xmlns:xlink="http://www.w3.org/1999/xlink">
 <defs>
  <style type="text/css">
   <![CDATA[
    .fil0 {fill:#02C402}
   ]]>
  </style>
 </defs>
 <g id="PowerClip_x0020_Contents">
  <metadata id="CorelCorpID_0Corel-Layer"/>
  <g id="_2855225562672">
   <path class="fil0" d="M0.11 0.05l0.02 0.04c0.01,0 0,0.01 0,0.02l-0.03 0.02c-0.01,0.01 -0.01,0.02 -0.01,0.02 0.01,0.02 0.02,0.04 0.06,0.08 0.04,0.04 0.06,0.05 0.08,0.06 0,0 0.01,0 0.02,-0.01l0.02 -0.03c0.01,0 0.02,-0.01 0.02,0l0.04 0.02 0.04 0.03c0.01,0.01 0.01,0.02 0.01,0.02l-0.02 0.04c-0.01,0.01 -0.02,0.01 -0.03,0.02 -0.03,0.01 -0.1,0.01 -0.22,-0.11 -0.12,-0.12 -0.12,-0.19 -0.11,-0.22 0.01,-0.01 0.01,-0.02 0.02,-0.03l0.04 -0.02c0,0 0.01,0 0.02,0.01l0.03 0.04z"/>
   <path class="fil0" d="M0.22 0.05c-0.01,0 -0.01,0 -0.01,0 0,0.01 0,0.01 0.01,0.01 0.06,0 0.11,0.05 0.11,0.11 0,0 0,0.01 0,0.01 0.01,0 0.01,-0.01 0.01,-0.01 0,-0.07 -0.05,-0.12 -0.12,-0.12z"/>
   <path class="fil0" d="M0.22 0.09c-0.01,0 -0.01,0 -0.01,0 0,0.01 0,0.01 0.01,0.01 0.04,0 0.07,0.03 0.07,0.07 0,0 0,0.01 0.01,0.01 0,0 0,-0.01 0,-0.01 0,-0.05 -0.04,-0.08 -0.08,-0.08z"/>
   <path class="fil0" d="M0.22 0.12c-0.01,0 -0.01,0.01 -0.01,0.01 0,0 0,0.01 0.01,0.01 0.01,0 0.03,0.01 0.03,0.03 0,0 0,0.01 0.01,0.01 0,0 0,-0.01 0,-0.01 0,-0.02 -0.02,-0.05 -0.04,-0.05z"/>
   <path class="fil0" d="M0.18 0.31c0,0 0,0 0,0 -0.05,-0.04 -0.11,-0.11 -0.11,-0.12 0,0 0,0 0,0 0,0 0,-0.01 0,-0.01 0,0 0.01,0 0.01,0.01 0,0 0.06,0.07 0.11,0.11 0,0 0,0.01 0,0.01 0,0 0,0 -0.01,0z"/>
   <circle class="fil0" cx="0.2" cy="0.32" r="0.01"/>
  </g>
 </g>
</svg>
