<?xml version="1.0" encoding="UTF-8"?>
<!DOCTYPE svg PUBLIC "-//W3C//DTD SVG 1.1//EN" "http://www.w3.org/Graphics/SVG/1.1/DTD/svg11.dtd">
<!-- Creator: CorelDRAW 2017 -->
<svg xmlns="http://www.w3.org/2000/svg" xml:space="preserve" width="425px" height="450px" version="1.1" style="shape-rendering:geometricPrecision; text-rendering:geometricPrecision; image-rendering:optimizeQuality; fill-rule:evenodd; clip-rule:evenodd"
viewBox="0 0 23.75 25.16"
 xmlns:xlink="http://www.w3.org/1999/xlink">
 <defs>
  <style type="text/css">
   <![CDATA[
    .fil1 {fill:#0A4854;fill-rule:nonzero}
    .fil0 {fill:#217080;fill-rule:nonzero}
    .fil8 {fill:#C12846;fill-rule:nonzero}
    .fil2 {fill:#ED7070;fill-rule:nonzero}
    .fil4 {fill:#EFAC70;fill-rule:nonzero}
    .fil5 {fill:#FF3F52;fill-rule:nonzero}
    .fil10 {fill:#FF4966;fill-rule:nonzero}
    .fil6 {fill:#FFA867;fill-rule:nonzero}
    .fil7 {fill:#FFB656;fill-rule:nonzero}
    .fil3 {fill:#FFC88E;fill-rule:nonzero}
    .fil11 {fill:white;fill-rule:nonzero}
    .fil9 {fill:url(#id0);fill-rule:nonzero}
   ]]>
  </style>
  <linearGradient id="id0" gradientUnits="userSpaceOnUse" x1="14.32" y1="8.13" x2="4.01" y2="3.26">
   <stop offset="0" style="stop-opacity:0.301961; stop-color:white"/>
   <stop offset="1" style="stop-opacity:0; stop-color:white"/>
  </linearGradient>
 </defs>
 <g id="Layer_x0020_1">
  <metadata id="CorelCorpID_0Corel-Layer"/>
  <g id="_2128113320880">
   <g>
    <g>
     <polygon class="fil0" points="8.05,22.74 7.35,22.74 7.35,18.63 8.05,18.63 "/>
     <polygon class="fil0" points="8.3,22.74 7.1,22.74 7.1,20.25 8.3,20.25 "/>
     <polygon class="fil0" points="7.1,22.74 3.46,23.59 3.46,24.03 4.41,24.03 4.41,23.74 8.19,23.32 8.3,22.74 "/>
     <polygon class="fil0" points="8.23,22.74 11.87,23.59 11.87,24.03 10.92,24.03 10.92,23.74 7.14,23.32 7.03,22.74 "/>
     <path class="fil0" d="M4.43 24.17c0,0.29 -0.24,0.53 -0.53,0.53 -0.29,0 -0.53,-0.24 -0.53,-0.53 0,-0.29 0.24,-0.52 0.53,-0.52 0.29,0 0.53,0.23 0.53,0.52z"/>
     <path class="fil0" d="M7.62 24.17c0,0.29 -0.12,0.53 -0.26,0.53 -0.15,0 -0.27,-0.24 -0.27,-0.53 0,-0.29 0.12,-0.52 0.27,-0.52 0.14,0 0.26,0.23 0.26,0.52z"/>
     <path class="fil0" d="M6.9 24.17c0,0.29 -0.12,0.53 -0.26,0.53 -0.15,0 -0.27,-0.24 -0.27,-0.53 0,-0.29 0.12,-0.52 0.27,-0.52 0.14,0 0.26,0.23 0.26,0.52z"/>
     <path class="fil0" d="M11.87 24.17c0,0.29 -0.24,0.53 -0.53,0.53 -0.29,0 -0.53,-0.24 -0.53,-0.53 0,-0.29 0.24,-0.52 0.53,-0.52 0.29,0 0.53,0.23 0.53,0.52z"/>
     <polygon class="fil0" points="7.03,22.74 6.74,23.65 6.74,24.03 7.36,24.03 7.36,23.65 8.23,22.74 "/>
    </g>
    <path class="fil0" d="M10.69 18.69l-5.84 0c-0.59,0 -1.07,-0.48 -1.07,-1.07 0,-0.19 0.16,-0.34 0.35,-0.34l7.28 0c0.19,0 0.34,0.15 0.34,0.34 0,0.59 -0.48,1.07 -1.06,1.07z"/>
    <path class="fil0" d="M5.91 10.09c0,0 -1.28,-0.37 -2.61,-0.06 -0.28,0.07 -0.47,0.32 -0.48,0.6 -0.03,2.33 0.62,5.54 0.62,5.54l4.61 -0.19 -2.14 -5.89z"/>
    <path class="fil1" d="M7.18 4.56c0.03,-0.07 0.02,-0.15 -0.02,-0.21 -0.03,-0.07 -0.09,-0.12 -0.14,-0.17 0.02,0.02 0.04,0.04 0.07,0.05 0.03,0.01 0.07,-0.02 0.07,-0.05 -0.01,-0.03 -0.06,-0.04 -0.09,-0.04 0.13,-0.01 0.24,-0.11 0.3,-0.24 0.06,-0.12 0.07,-0.26 0.08,-0.39 0.01,-0.12 0.01,-0.25 -0.08,-0.34 -0.04,-0.04 -0.1,-0.06 -0.16,-0.08 -0.1,-0.02 -0.22,-0.03 -0.28,0.05 0.02,-0.05 0.04,-0.11 0.02,-0.16 -0.02,-0.06 -0.1,-0.08 -0.13,-0.03 0.01,-0.26 -0.15,-0.5 -0.37,-0.63 -0.22,-0.12 -0.5,-0.13 -0.74,-0.06 -0.06,0.02 -0.12,0.04 -0.17,0.09 -0.12,0.11 -0.11,0.3 -0.09,0.47 -0.05,-0.09 -0.17,-0.14 -0.27,-0.11 -0.1,0.04 -0.17,0.15 -0.16,0.25 -0.28,-0.2 -0.7,-0.18 -0.96,0.05 -0.05,0.04 -0.09,0.09 -0.12,0.15 -0.02,0.06 -0.03,0.12 -0.04,0.18 -0.01,0.1 -0.02,0.19 -0.01,0.29 0.02,0.21 0.14,0.4 0.31,0.52 -0.06,0.01 -0.12,0.05 -0.13,0.11 -0.02,0.06 0.02,0.13 0.08,0.14 -0.16,-0.02 -0.23,0.2 -0.04,0.22 -0.1,0.02 -0.17,0.11 -0.21,0.2 -0.05,0.12 -0.05,0.27 0.02,0.39 0.06,0.12 0.21,0.19 0.34,0.15 -0.05,0.01 -0.09,0.04 -0.09,0.08 -0.01,0.04 0.07,0.07 0.08,0.03 0,0.02 0,0.05 0.01,0.07 0.02,0.01 0.06,0.02 0.06,-0.01 -0.08,0.06 -0.08,0.2 -0.03,0.29 0.1,0.15 0.32,0.21 0.48,0.12 0.01,0.18 0.19,0.33 0.37,0.35 0.19,0.01 0.37,-0.1 0.48,-0.24 0.12,-0.15 0.17,-0.34 0.19,-0.52 0.01,-0.12 0.01,-0.24 0.05,-0.35 0.06,-0.18 0.2,-0.31 0.36,-0.4 0.09,-0.05 0.19,-0.09 0.29,-0.12 0.09,-0.02 0.17,-0.07 0.26,-0.09 0.12,-0.03 0.12,0.07 0.2,0.1 0.08,0.03 0.18,-0.04 0.21,-0.11z"/>
    <path class="fil2" d="M6.05 8.67c0,0 -1.14,-0.58 -1.43,-0.7 -0.29,-0.12 -0.51,-0.01 -0.58,0.63 -0.08,0.64 0,2.72 0,2.72 0,0 0.51,-0.47 1.4,-0.14 -0.07,0.33 -0.82,1.87 -0.82,1.87 0,0 0.56,2.29 0.61,2.62 -0.18,0.01 0.07,0.48 0.07,0.48 0,0 -0.01,0.53 0.13,0.79 0.45,-0.42 3.24,-1.6 4.04,-1.71 -0.36,-0.64 -0.9,-2.98 -1.01,-3.61 0,0 0.55,-0.76 1.12,-0.8 -0.47,-1 -1.16,-2.94 -1.51,-2.79 -0.36,0.15 -1.43,0.64 -1.43,0.64l-0.15 0.27 -0.44 -0.27z"/>
    <path class="fil3" d="M5.99 6.98c0,0 0.07,1.33 0.06,1.69 0.36,0.8 0.97,0.94 0.59,0l-0.12 0.03 -0.19 -1.62 -0.34 -0.1z"/>
    <path class="fil4" d="M6.33 7.08l-0.34 -0.1c0,0 0.01,0.17 0.02,0.41l0.36 0.01 -0.04 -0.32z"/>
    <path class="fil3" d="M6.59 3.79c0,0 0.36,0.44 0.46,0.81 0.01,0.52 0.01,1.28 0.36,1.77 0.02,0.23 -0.6,0.86 -0.6,0.86 0,0 -0.77,-0.03 -1.31,-0.51 -0.21,-0.62 -0.44,-1.53 -0.49,-1.78 -0.04,-0.26 0.04,-0.52 0.37,-0.72 0.34,-0.2 0.88,-0.4 1.21,-0.43z"/>
    <path class="fil1" d="M6.27 4.83c0,0 -0.13,0.66 -0.74,0.52 0.27,-0.15 0.68,-0.43 0.74,-0.52z"/>
    <path class="fil1" d="M6.52 4.83c0,0 0.34,-0.43 0.53,-0.12 -0.03,-0.18 -0.11,-0.31 -0.25,-0.27 -0.19,0.05 -0.28,0.39 -0.28,0.39z"/>
    <path class="fil5" d="M4.92 6.23c0,0 0,0 0,0 -0.01,0 -0.02,-0.02 -0.02,-0.03l0.05 -0.77c0,-0.02 0.01,-0.03 0.03,-0.03l0.56 0c0.01,0 0.03,0.01 0.03,0.03 0,0.01 -0.02,0.02 -0.03,0.02l-0.54 0 -0.05 0.75c0,0.02 -0.01,0.03 -0.03,0.03z"/>
    <path class="fil3" d="M5.29 5.69c0,0 -0.14,-0.35 -0.39,-0.31 -0.25,0.04 -0.03,0.8 0.18,0.8 0.21,0 0.27,-0.08 0.27,-0.08l-0.06 -0.41z"/>
    <path class="fil5" d="M5.99 6.1c-0.27,0 -0.48,-0.26 -0.48,-0.59 0,-0.32 0.21,-0.59 0.48,-0.59 0.27,0 0.48,0.27 0.48,0.59 0,0.33 -0.21,0.59 -0.48,0.59zm0 -1.12l0 0c-0.24,0 -0.43,0.24 -0.43,0.53 0,0.3 0.19,0.54 0.43,0.54 0.24,0 0.43,-0.24 0.43,-0.54 0,-0.29 -0.19,-0.53 -0.43,-0.53z"/>
    <path class="fil5" d="M7.06 5.72c-0.25,0 -0.45,-0.25 -0.45,-0.55 0,-0.3 0.2,-0.54 0.45,-0.54 0.24,0 0.44,0.24 0.44,0.54 0,0.3 -0.2,0.55 -0.44,0.55zm0 -1.04l0 0c-0.22,0 -0.4,0.22 -0.4,0.49 0,0.28 0.18,0.5 0.4,0.5 0.21,0 0.39,-0.22 0.39,-0.5 0,-0.27 -0.18,-0.49 -0.39,-0.49z"/>
    <path class="fil5" d="M6.42 5.26l-0.05 -0.03c0,0 0.06,-0.1 0.15,-0.11 0.04,-0.01 0.09,0.01 0.13,0.05l-0.03 0.04c-0.04,-0.03 -0.07,-0.04 -0.1,-0.04 -0.06,0.01 -0.1,0.09 -0.1,0.09z"/>
    <path class="fil1" d="M6.29 5.59c0,0.06 -0.02,0.1 -0.06,0.1 -0.03,0 -0.06,-0.04 -0.06,-0.1 0,-0.06 0.03,-0.11 0.06,-0.11 0.04,0 0.06,0.05 0.06,0.11z"/>
    <path class="fil1" d="M6.87 5.38c0,0.06 -0.03,0.11 -0.07,0.11 -0.03,0 -0.06,-0.05 -0.06,-0.11 0,-0.06 0.03,-0.11 0.06,-0.11 0.04,0 0.07,0.05 0.07,0.11z"/>
    <g>
     <path class="fil6" d="M6.59 5.43c0.01,0.09 0.02,0.19 0.04,0.28 0.02,0.09 0.04,0.18 0.08,0.26l-0.04 -0.01c0.03,-0.02 0.06,-0.04 0.1,-0.05 0.01,-0.01 0.03,-0.02 0.05,-0.03 0.02,0 0.04,-0.01 0.07,0 0.03,0.02 0.04,0.05 0.04,0.07 0,0.02 0,0.04 0,0.06 -0.01,0.03 -0.02,0.07 -0.03,0.1 -0.03,0.07 -0.06,0.14 -0.11,0.19 -0.02,0.01 -0.03,0.02 -0.05,0.03 -0.02,0.01 -0.04,0.01 -0.06,0 -0.03,-0.03 -0.04,-0.06 -0.05,-0.1 0.01,0.03 0.03,0.07 0.06,0.08 0.03,0.02 0.05,-0.01 0.07,-0.03 0.05,-0.05 0.07,-0.12 0.1,-0.18 0.01,-0.04 0.02,-0.07 0.02,-0.1 0,-0.03 0,-0.07 -0.01,-0.07 -0.02,0 -0.05,0.01 -0.08,0.02 -0.03,0.02 -0.06,0.04 -0.09,0.06l-0.02 0.01 -0.02 -0.02c-0.04,-0.09 -0.06,-0.19 -0.07,-0.28 -0.01,-0.1 -0.01,-0.2 0,-0.29z"/>
     <path class="fil6" d="M7.1 6.49c-0.12,0 -0.25,0.02 -0.36,0.08 -0.05,0.02 -0.1,0.06 -0.14,0.11 -0.04,0.04 -0.08,0.09 -0.11,0.14 0.01,-0.06 0.04,-0.12 0.08,-0.17 0.02,-0.03 0.04,-0.05 0.07,-0.08 0.02,-0.01 0.05,-0.04 0.08,-0.05 0.06,-0.03 0.12,-0.05 0.19,-0.05 0.07,-0.01 0.13,0 0.19,0.02z"/>
     <path class="fil6" d="M4.9 5.69c0.01,-0.02 0.02,-0.05 0.03,-0.07 0.02,-0.02 0.04,-0.04 0.07,-0.04 0.06,-0.01 0.11,0.02 0.15,0.05 0.02,0.01 0.04,0.03 0.06,0.05 0.01,0.02 0.03,0.04 0.04,0.06 0.04,0.04 0.06,0.08 0.08,0.13l0.02 0.03 -0.03 0c-0.02,0 -0.04,0 -0.05,0.01 -0.02,0 -0.02,0 -0.02,0.02 0.01,0.01 0.02,0.03 0.03,0.04 0.01,0.02 0.02,0.03 0.04,0.04 -0.02,0 -0.04,-0.01 -0.05,-0.03 -0.02,-0.01 -0.03,-0.02 -0.04,-0.04 -0.01,-0.01 -0.01,-0.03 -0.01,-0.04 0.01,-0.01 0.01,-0.01 0.02,-0.02 0,0 0.01,0 0.01,-0.01 0.02,-0.01 0.04,-0.01 0.06,-0.01l-0.01 0.03c-0.03,-0.04 -0.06,-0.08 -0.09,-0.12 -0.01,-0.02 -0.03,-0.04 -0.04,-0.05l-0.03 -0.03c-0.01,-0.01 -0.01,-0.01 -0.02,-0.02 -0.04,-0.03 -0.07,-0.06 -0.12,-0.06 -0.04,0 -0.07,0.04 -0.1,0.08z"/>
    </g>
    <path class="fil3" d="M4.04 11.32c0,0 0.15,1.74 1.01,2.19 0.87,-0.47 0.65,-2.41 0.65,-2.41l-0.2 -0.62 -0.26 0.63c0,0 -0.68,-0.2 -1.2,0.21z"/>
    <path class="fil3" d="M9.65 12.89c-0.66,-0.25 -1.19,-1.27 -1.19,-1.27 0.24,-0.36 0.6,-0.62 0.6,-0.62 0.16,-0.36 0.37,-1.76 0.4,-2.17 0.03,-0.42 -0.13,-1.64 -0.13,-1.64 0,0 -0.52,-0.25 -0.61,-0.49 0.12,0.61 -0.67,-0.03 -0.78,-0.18 -0.12,-0.15 -0.14,-0.38 -0.05,-0.58 -0.06,-0.14 0.13,-0.32 0.13,-0.32 0,0 0.01,-0.21 0.09,-0.31 0.06,-0.06 0.37,-0.06 0.37,-0.06l-0.32 -0.45c0,0 -0.42,-0.01 -0.75,-0.1 -0.34,-0.09 -0.42,-0.43 -0.27,-0.39 0.15,0.04 0.85,0.13 1.16,0.19 0.17,0.16 0.84,0.7 0.84,0.7l0.51 1.28c0,0 0.76,2.24 0.76,3.72 0,1.48 -0.68,2.63 -0.68,2.63 0,0 -0.02,0.05 -0.08,0.06z"/>
    <path class="fil3" d="M5.47 10.72c0,0 0.02,-0.21 0.05,-0.3 0.02,-0.09 0.58,-0.29 0.86,-0.19 0.28,0.1 0.67,0.23 0.94,0.22 0.27,-0.01 0.46,-0.01 0.24,0.21 -0.21,0.21 -0.66,0.1 -0.66,0.1l0.46 0.52c0,0 0.29,0.69 0.41,0.91 0.11,0.22 -0.12,0.22 -0.29,0 -0.18,-0.22 -0.41,-0.71 -0.41,-0.71l-0.09 -0.09c0,0 0.2,0.96 0.28,1.15 0.08,0.19 -0.06,0.26 -0.26,0.09 -0.01,0.18 -0.28,0.01 -0.37,-0.1 -0.04,0.13 -0.34,-0.01 -0.52,-0.71 -0.15,-0.11 -0.59,-0.8 -0.64,-1.1z"/>
    <polygon class="fil0" points="13.95,14.37 13.74,13.84 9.22,13.84 7.1,14.22 7.23,14.49 "/>
    <g>
     <polygon class="fil0" points="23.37,6.81 19.3,3.38 19.56,3.03 23.65,6.49 23.6,6.55 19.58,3.14 19.4,3.37 23.42,6.75 "/>
     <polygon class="fil0" points="21.85,13.74 22.53,13.75 23.75,6.63 23.12,6.54 "/>
     <polygon class="fil0" points="21.41,14.75 23,14.75 23,13.88 21.41,13.88 "/>
     <polygon class="fil0" points="21.67,14.56 22.75,14.56 22.75,13.69 21.67,13.69 "/>
     <g>
      <path class="fil5" d="M23.31 6.52c-0.02,0.08 0.03,0.16 0.11,0.18 0.08,0.03 0.16,-0.02 0.18,-0.1 0.03,-0.09 -0.02,-0.17 -0.1,-0.19 -0.09,-0.02 -0.17,0.02 -0.19,0.11z"/>
      <path class="fil5" d="M23.46 6.75c-0.02,0 -0.04,-0.01 -0.05,-0.01 -0.05,-0.01 -0.09,-0.04 -0.12,-0.09 -0.02,-0.04 -0.03,-0.09 -0.02,-0.14 0.02,-0.05 0.05,-0.09 0.09,-0.12 0.05,-0.02 0.1,-0.03 0.15,-0.02 0.05,0.02 0.09,0.05 0.11,0.09 0.03,0.05 0.03,0.1 0.02,0.15 -0.02,0.08 -0.1,0.14 -0.18,0.14zm0 -0.31l0 0c-0.02,0 -0.04,0.01 -0.06,0.02 -0.03,0.01 -0.05,0.04 -0.06,0.07 0,0 0,0 0,0 0,0.03 0,0.06 0.02,0.08 0.01,0.03 0.04,0.05 0.07,0.06 0.06,0.01 0.12,-0.02 0.14,-0.08 0.01,-0.03 0,-0.06 -0.01,-0.09 -0.02,-0.03 -0.04,-0.05 -0.07,-0.06 -0.01,0 -0.02,0 -0.03,0zm-0.15 0.08l0 0 0 0 0 0z"/>
     </g>
     <polygon class="fil0" points="19.51,3.16 19.36,3.03 19.25,3.2 19.45,3.25 "/>
     <polygon class="fil0" points="18.98,3.63 19.52,2.66 17.25,1.44 16.92,2 "/>
    </g>
    <polygon class="fil1" points="22.41,14.9 1.84,14.9 1.84,14.37 22.41,14.37 "/>
    <polygon class="fil7" points="1.87,24.97 1.15,24.97 3.31,14.9 4.03,14.9 "/>
    <polygon class="fil7" points="22.11,24.97 22.82,24.97 20.66,14.9 19.94,14.9 "/>
    <path class="fil1" d="M9.47 15.23c0,0 4.02,0.71 5.87,1.52 -0.23,0.53 -2.14,6.87 -2.14,6.87l-0.57 0.21c0,0 0.01,-0.32 -0.21,-0.71 -0.21,-0.39 0.47,-0.47 0.47,-0.47 0,0 -0.39,-0.18 0.14,-0.52 0.25,-1.44 0.2,-4.83 0.2,-4.83l-5.23 0.34c0,0 -2.33,0.41 -2.57,-0.7 0,0 1.61,-1.24 4.04,-1.71z"/>
    <path class="fil1" d="M9.81 24.01c0,0 -0.63,-3.27 -0.87,-5.49 -0.23,-2.22 -0.51,-2.55 -1.26,-2.5 -0.76,0.05 -0.93,1.35 -0.58,2.61 0.35,1.25 1.82,4.47 1.82,4.47 0,0 -0.36,0.02 -0.13,0.32 -0.26,0.09 0.13,0.59 0.13,0.59l0.89 0z"/>
    <g>
     <path class="fil6" d="M6.98 11.39c-0.05,-0.06 -0.09,-0.12 -0.12,-0.19 -0.03,-0.07 -0.05,-0.14 -0.06,-0.22 0.05,0.06 0.08,0.13 0.11,0.2 0.03,0.07 0.06,0.14 0.07,0.21z"/>
     <path class="fil6" d="M6.49 11.07c0.02,0.05 0.05,0.1 0.07,0.15 0.03,0.05 0.05,0.1 0.07,0.15 0.05,0.11 0.1,0.21 0.14,0.31l0 0 0 0.01c0.05,0.15 0.09,0.31 0.13,0.47 0.04,0.16 0.07,0.31 0.1,0.47 -0.05,-0.15 -0.1,-0.31 -0.15,-0.46 -0.04,-0.16 -0.09,-0.31 -0.13,-0.47l0 0c-0.04,-0.1 -0.08,-0.21 -0.12,-0.31 -0.02,-0.06 -0.04,-0.11 -0.06,-0.16 -0.02,-0.06 -0.04,-0.11 -0.05,-0.16z"/>
     <path class="fil6" d="M6.63 12.53c-0.04,-0.12 -0.08,-0.25 -0.11,-0.38 -0.04,-0.12 -0.07,-0.25 -0.1,-0.38l0 0.01c-0.08,-0.18 -0.17,-0.36 -0.24,-0.55 0.1,0.17 0.2,0.35 0.29,0.52l0 0.01 0 0c0.03,0.13 0.06,0.26 0.09,0.38 0.03,0.13 0.05,0.26 0.07,0.39z"/>
     <path class="fil6" d="M5.24 11.11c-0.09,0.21 -0.2,0.41 -0.32,0.61 -0.12,0.2 -0.24,0.4 -0.37,0.59 0.1,-0.21 0.21,-0.41 0.32,-0.61 0.12,-0.2 0.24,-0.4 0.37,-0.59z"/>
    </g>
    <g>
     <path class="fil6" d="M8.72 6.7c-0.05,-0.01 -0.09,-0.05 -0.11,-0.08 -0.03,-0.04 -0.04,-0.09 -0.03,-0.14 0.03,0.04 0.05,0.07 0.07,0.11 0.03,0.03 0.05,0.07 0.07,0.11z"/>
     <path class="fil6" d="M8.81 6.39c-0.02,0.04 -0.07,0.07 -0.11,0.09 -0.05,0.02 -0.1,0.02 -0.15,0.02 -0.03,0 -0.05,0 -0.07,0 -0.03,-0.01 -0.05,-0.01 -0.08,-0.02 -0.04,-0.01 -0.09,-0.03 -0.13,-0.05 0.05,0 0.09,0 0.14,0.01 0.05,0 0.09,0.01 0.14,0.01 0.05,0 0.09,-0.01 0.13,-0.01 0.05,-0.01 0.09,-0.02 0.13,-0.05z"/>
     <path class="fil6" d="M8.44 6.48c0.03,0.01 0.07,0.03 0.1,0.05 0.03,0.03 0.06,0.05 0.09,0.08 0.03,0.03 0.05,0.06 0.07,0.1 0.02,0.03 0.03,0.07 0.03,0.11 -0.04,-0.07 -0.08,-0.12 -0.14,-0.17 -0.05,-0.06 -0.1,-0.11 -0.15,-0.17z"/>
     <path class="fil6" d="M7.89 5.94c0.14,-0.01 0.28,0 0.43,0.01 0.14,0.01 0.28,0.03 0.42,0.06 -0.14,0.01 -0.29,0.01 -0.43,0 -0.14,-0.02 -0.28,-0.03 -0.42,-0.07z"/>
     <path class="fil6" d="M8.02 5.62c0.12,-0.02 0.24,-0.03 0.36,-0.03 0.12,0 0.24,0.01 0.36,0.03 -0.12,0.02 -0.24,0.03 -0.36,0.03 -0.12,0 -0.24,-0.01 -0.36,-0.03z"/>
     <path class="fil6" d="M8.48 5.25c0.08,-0.02 0.15,-0.02 0.22,-0.02 0.08,0.01 0.15,0.02 0.22,0.04 -0.07,0.02 -0.15,0.02 -0.22,0.02 -0.07,-0.01 -0.15,-0.02 -0.22,-0.04z"/>
    </g>
    <path class="fil8" d="M8.46 11.62c-0.05,-0.18 -0.1,-0.36 -0.14,-0.54 -0.04,-0.18 -0.08,-0.36 -0.11,-0.54 -0.04,-0.18 -0.08,-0.37 -0.11,-0.55l-0.04 -0.28c-0.02,-0.09 -0.03,-0.18 -0.04,-0.27 0.02,0.09 0.04,0.18 0.07,0.27l0.06 0.27c0.04,0.18 0.08,0.36 0.12,0.55 0.03,0.18 0.07,0.36 0.1,0.54 0.03,0.19 0.06,0.37 0.09,0.55z"/>
    <polygon class="fil9" points="21.26,7.19 10.79,0 0.38,11.71 10.54,12.96 "/>
    <path class="fil6" d="M9.06 11c-0.01,0.11 0,0.22 0,0.33 0.01,0.11 0.03,0.21 0.06,0.32 0.02,0.1 0.06,0.2 0.11,0.3 0.04,0.1 0.1,0.19 0.16,0.28 -0.08,-0.08 -0.15,-0.17 -0.2,-0.26 -0.03,-0.05 -0.05,-0.1 -0.07,-0.15 -0.02,-0.06 -0.04,-0.11 -0.05,-0.16 -0.03,-0.11 -0.05,-0.22 -0.05,-0.33 0,-0.11 0.01,-0.22 0.04,-0.33z"/>
    <path class="fil0" d="M8.82 17.58c0,-0.1 -0.01,-0.21 -0.02,-0.31 -0.02,-0.11 -0.04,-0.21 -0.07,-0.31 -0.05,-0.21 -0.14,-0.4 -0.27,-0.56 -0.07,-0.08 -0.14,-0.15 -0.23,-0.21 -0.09,-0.05 -0.19,-0.09 -0.29,-0.12 -0.05,-0.02 -0.1,-0.03 -0.15,-0.04l-0.16 -0.02c-0.05,0 -0.1,-0.01 -0.15,-0.02 -0.03,0 -0.06,0 -0.08,0 -0.01,0 -0.02,0 -0.02,0 -0.01,0 -0.02,0 -0.02,0.01 0.01,0.01 0.02,0.01 0.03,0.01 -0.01,0 -0.02,0 -0.03,-0.01 0,-0.01 0.01,-0.01 0.02,-0.01 0,-0.01 0.01,-0.01 0.02,-0.01 0.02,0 0.05,0 0.08,0 0.05,0 0.1,0 0.16,0.01l0.16 0.01c0.05,0.01 0.1,0.01 0.15,0.03 0.22,0.05 0.41,0.17 0.55,0.33 0.14,0.17 0.23,0.38 0.27,0.59 0.05,0.2 0.07,0.42 0.05,0.63z"/>
    <path class="fil0" d="M6.98 16.86c-0.01,0.14 -0.02,0.28 -0.03,0.42 0,0.07 0,0.14 -0.01,0.22 0,0.07 0,0.14 0,0.21 -0.04,-0.14 -0.05,-0.29 -0.04,-0.43 0,-0.07 0.01,-0.14 0.02,-0.22 0.01,-0.07 0.03,-0.14 0.06,-0.2z"/>
    <path class="fil10" d="M13.2 23.62c0,0 2.33,0.06 3.07,0.39 0.73,0.33 0.96,0.54 0.96,0.54l-4.56 -0.33 -0.04 -0.39 0.57 -0.21z"/>
    <path class="fil10" d="M9.81 24.01c0,0 -0.5,-0.69 -0.89,0 0,0 -0.25,0.4 -0.55,0.63 -0.31,0.23 -0.13,0.52 -0.13,0.52l1.85 0c0,0 -0.07,-0.54 -0.28,-1.15z"/>
    <g>
     <g>
      <polygon class="fil0" points="21.1,6.97 12.21,6.97 10.37,12.74 10.54,12.96 19.26,12.74 21.26,7.19 "/>
      <polygon class="fil1" points="21.26,7.19 12.38,7.19 10.54,12.96 19.43,12.96 "/>
     </g>
     <g>
      <polygon class="fil0" points="16.95,10.39 15.31,10.39 14.13,14.09 14.23,14.23 15.77,14.09 17.06,10.53 "/>
      <polygon class="fil1" points="17.06,10.53 15.41,10.53 14.23,14.23 15.88,14.23 "/>
     </g>
     <polygon class="fil0" points="17.08,14.37 13.13,14.37 13.13,14.06 17.08,14.06 "/>
    </g>
    <path class="fil1" d="M4.94 14.37c0,0 0.95,-1.5 2.13,0l-2.13 0z"/>
   </g>
   <g>
    <path class="fil2" d="M1.55 0.98c0.86,0 1.56,0.69 1.56,1.55 0,0.33 -0.11,0.64 -0.28,0.89l0.65 1.34 -1.07 -0.93c-0.25,0.16 -0.54,0.26 -0.86,0.26 -0.85,0 -1.55,-0.7 -1.55,-1.56 0,-0.86 0.7,-1.55 1.55,-1.55z"/>
    <path class="fil11" d="M1.38 2.83c0,-0.03 0,-0.04 0,-0.05 0,-0.07 0.01,-0.13 0.03,-0.18 0.02,-0.03 0.04,-0.07 0.07,-0.11 0.02,-0.02 0.06,-0.06 0.12,-0.11 0.06,-0.06 0.1,-0.1 0.12,-0.13 0.01,-0.03 0.02,-0.06 0.02,-0.1 0,-0.07 -0.02,-0.13 -0.08,-0.18 -0.05,-0.05 -0.11,-0.07 -0.18,-0.07 -0.08,0 -0.14,0.02 -0.19,0.07 -0.04,0.04 -0.08,0.11 -0.09,0.21l-0.18 -0.02c0.02,-0.13 0.07,-0.23 0.14,-0.3 0.08,-0.07 0.18,-0.1 0.31,-0.1 0.14,0 0.24,0.04 0.33,0.11 0.08,0.07 0.12,0.16 0.12,0.27 0,0.06 -0.02,0.11 -0.05,0.17 -0.02,0.05 -0.08,0.11 -0.16,0.18 -0.06,0.05 -0.09,0.09 -0.11,0.11 -0.02,0.02 -0.03,0.05 -0.04,0.08 -0.01,0.03 -0.01,0.08 -0.01,0.15l-0.17 0zm-0.03 0.34l0 -0.2 0.2 0 0 0.2 -0.2 0z"/>
   </g>
  </g>
 </g>
</svg>
