<?xml version="1.0" encoding="UTF-8"?>
<!DOCTYPE svg PUBLIC "-//W3C//DTD SVG 1.1//EN" "http://www.w3.org/Graphics/SVG/1.1/DTD/svg11.dtd">
<!-- Creator: CorelDRAW 2017 -->
<svg xmlns="http://www.w3.org/2000/svg" xml:space="preserve" width="120px" height="120px" version="1.1" style="shape-rendering:geometricPrecision; text-rendering:geometricPrecision; image-rendering:optimizeQuality; fill-rule:evenodd; clip-rule:evenodd"
viewBox="0 0 1.62 1.62"
 xmlns:xlink="http://www.w3.org/1999/xlink">
 <defs>
  <style type="text/css">
   <![CDATA[
    .fil3 {fill:#E48E66}
    .fil2 {fill:#EDB288}
    .fil0 {fill:#F7CAA5}
    .fil1 {fill:#F8EC7D}
   ]]>
  </style>
 </defs>
 <g id="Layer_x0020_1">
  <metadata id="CorelCorpID_0Corel-Layer"/>
  <g id="_2854870844224">
   <path class="fil0" d="M1.19 1.13l0.04 -0.02 0.21 -0.11 0.03 -0.02c0.02,-0.01 0.03,-0.01 0.05,-0.01 0.04,0 0.08,0.02 0.1,0.06l-0.5 0.34c-0.05,0.02 -0.1,0.04 -0.15,0.04 -0.03,0 -0.05,0 -0.07,-0.01l-0.29 -0.05c-0.01,0 -0.02,-0.01 -0.02,-0.01 -0.02,0 -0.04,0.01 -0.06,0.02l-0.15 0.1 -0.11 -0.36 0 0c0.03,-0.01 0.06,-0.02 0.09,-0.05l0.05 -0.04c0.05,-0.04 0.12,-0.06 0.19,-0.06 0.05,0 0.1,0.01 0.14,0.03l0.02 0.01c0.03,0.01 0.06,0.02 0.1,0.02l0.19 0c0.07,0 0.13,0.05 0.14,0.12l0 0z"/>
   <path class="fil1" d="M1.46 0.59l0 0.14 -0.38 0 0 -0.16c0,0 0,0 0,0 0,-0.03 -0.01,-0.06 -0.03,-0.09 0.02,-0.02 0.05,-0.03 0.08,-0.03 0.03,0.03 0.06,0.05 0.1,0.05 0.04,0 0.07,-0.02 0.1,-0.04 0,-0.01 0,-0.01 0,-0.01 0.07,0.01 0.13,0.07 0.13,0.14l0 0z"/>
   <path class="fil2" d="M1.44 1l0 0 -0.21 0.11 -0.04 0.02c0,-0.03 -0.02,-0.06 -0.04,-0.08l0.13 -0.08 0.04 -0.02c0.04,-0.02 0.1,0.01 0.12,0.05z"/>
   <path class="fil1" d="M1.35 0.22l0 0.06c0,0.07 -0.05,0.12 -0.12,0.12 -0.07,0 -0.13,-0.05 -0.13,-0.12l0 -0.06c0,-0.07 0.06,-0.13 0.13,-0.13 0.07,0 0.12,0.06 0.12,0.13z"/>
   <path class="fil2" d="M1.28 0.97l0 0 -0.13 0.08c-0.03,-0.03 -0.06,-0.04 -0.1,-0.04 0,0 0,0 0,0l-0.04 0 0.11 -0.06c0.02,-0.01 0.05,-0.02 0.07,-0.02 0.03,0 0.07,0.01 0.09,0.04l0 0z"/>
   <path class="fil3" d="M1.05 0.48c0.02,0.03 0.03,0.06 0.03,0.09 0,0 0,0 0,0l0 0.23 -0.53 0 0 -0.23c0,0 0,0 0,0 0,-0.09 0.07,-0.16 0.15,-0.16 0.03,0.04 0.07,0.06 0.11,0.06 0.05,0 0.09,-0.02 0.11,-0.05 0,-0.01 0,-0.01 0.01,-0.01 0.05,0 0.09,0.03 0.12,0.07l0 0z"/>
   <path class="fil3" d="M0.95 0.14l0 0.07c0,0.08 -0.06,0.15 -0.14,0.15 -0.08,0 -0.14,-0.07 -0.14,-0.15l0 -0.07c0,-0.08 0.06,-0.14 0.14,-0.14 0.08,0 0.14,0.06 0.14,0.14z"/>
   <path class="fil1" d="M0.57 0.48l0 0c-0.01,0.03 -0.02,0.06 -0.02,0.09 0,0 0,0 0,0l0 0.16 -0.39 0 0 -0.14c0,-0.08 0.06,-0.14 0.14,-0.14 0.02,0.03 0.06,0.05 0.1,0.05 0.03,0 0.07,-0.02 0.09,-0.04 0,-0.01 0,-0.01 0,-0.01 0.03,0 0.06,0.01 0.08,0.03l0 0z"/>
   <path class="fil1" d="M0.52 0.22l0 0.06c0,0.07 -0.06,0.12 -0.13,0.12 -0.07,0 -0.12,-0.05 -0.12,-0.12l0 -0.06c0,-0.07 0.05,-0.13 0.12,-0.13 0.07,0 0.13,0.06 0.13,0.13z"/>
   <path class="fil2" d="M1.2 1.18c0,0 0,0 0,0l-0.17 -0.01c-0.01,0 -0.02,0 -0.04,0 -0.03,0 -0.07,0 -0.1,0 -0.01,0 -0.01,0 -0.01,0 -0.01,0 -0.02,0 -0.02,-0.02 0,-0.01 0.01,-0.02 0.02,-0.02 0.04,0 0.08,-0.01 0.11,-0.01 0.02,0 0.03,0 0.04,0l0.14 0.01c-0.01,-0.06 -0.06,-0.1 -0.12,-0.1l-0.19 0c-0.04,0 -0.08,-0.01 -0.11,-0.02l-0.02 -0.01c-0.04,-0.02 -0.09,-0.03 -0.13,-0.03 -0.07,0 -0.13,0.02 -0.18,0.06l-0.05 0.04c-0.03,0.02 -0.06,0.04 -0.1,0.05 0,0 0,0 0,0 -0.02,0 -0.03,-0.01 -0.03,-0.02 0,-0.01 0.01,-0.02 0.02,-0.02 0.03,-0.01 0.06,-0.02 0.08,-0.04l0.05 -0.05c0,0 0,0 0,0 0.06,-0.04 0.13,-0.07 0.21,-0.07 0.05,0 0.1,0.02 0.15,0.04l0.02 0.01c0.03,0.01 0.06,0.02 0.09,0.02l0.19 0c0,0 0,0 0,0 0.09,0 0.17,0.07 0.17,0.16 0,0 0,0 0,0 0,0.02 -0.01,0.03 -0.02,0.03l0 0z"/>
   <path class="fil3" d="M0.38 1.46l0.05 0.16 -0.35 0 -0.08 -0.63 0.23 0 0.04 0.11 0.11 0.36zm-0.1 0.05c0,-0.02 -0.02,-0.04 -0.05,-0.04 -0.02,0 -0.04,0.02 -0.04,0.04 0,0.03 0.02,0.05 0.04,0.05 0,0 0,0 0,0 0.03,0 0.05,-0.02 0.05,-0.05 0,0 0,0 0,0l0 0z"/>
   <circle class="fil1" cx="0.23" cy="1.51" r="0.05"/>
  </g>
 </g>
</svg>
