<?xml version="1.0" encoding="UTF-8"?>
<!DOCTYPE svg PUBLIC "-//W3C//DTD SVG 1.1//EN" "http://www.w3.org/Graphics/SVG/1.1/DTD/svg11.dtd">
<!-- Creator: CorelDRAW 2017 -->
<svg xmlns="http://www.w3.org/2000/svg" xml:space="preserve" width="120px" height="120px" version="1.1" style="shape-rendering:geometricPrecision; text-rendering:geometricPrecision; image-rendering:optimizeQuality; fill-rule:evenodd; clip-rule:evenodd"
viewBox="0 0 1.72 1.72"
 xmlns:xlink="http://www.w3.org/1999/xlink">
 <defs>
  <style type="text/css">
   <![CDATA[
    .fil5 {fill:#4C5B66}
    .fil2 {fill:#69F0F7}
    .fil0 {fill:#95ADC0}
    .fil3 {fill:#AAC4DA}
    .fil1 {fill:#D9EEF7}
    .fil4 {fill:#FFE451}
   ]]>
  </style>
 </defs>
 <g id="Layer_x0020_1">
  <metadata id="CorelCorpID_0Corel-Layer"/>
  <g id="_2854907435168">
   <path class="fil0" d="M1.22 1.54l0 0.11c0,0.02 -0.02,0.03 -0.04,0.03l-0.64 0c-0.02,0 -0.04,-0.01 -0.04,-0.03l0 -0.11 0.72 0z"/>
   <polygon class="fil1" points="0.61,1.25 1.11,1.25 1.11,1.54 0.61,1.54 "/>
   <polygon class="fil2" points="1.51,0.86 1.51,0.97 0.22,0.97 0.22,0.86 0.22,0.22 1.51,0.22 "/>
   <path class="fil1" d="M1.68 0.11l0 0.86 -0.17 0 0 -0.75 -1.29 0 0 0.75 -0.18 0 0 -0.86c0,-0.04 0.03,-0.07 0.07,-0.07l1.5 0c0.04,0 0.07,0.03 0.07,0.07z"/>
   <path class="fil3" d="M1.68 0.97l0 0.21c0,0.04 -0.03,0.07 -0.07,0.07l-1.5 0c-0.04,0 -0.07,-0.03 -0.07,-0.07l0 -0.21 1.64 0z"/>
   <circle class="fil4" cx="0.86" cy="0.47" r="0.36"/>
   <polygon class="fil5" points="0.14,0.93 1.58,0.93 1.58,1 0.14,1 "/>
   <path class="fil5" d="M1.61 0l-0.32 0 0 0.07 0.32 0c0.02,0 0.04,0.02 0.04,0.04l0 1.07c0,0.02 -0.02,0.04 -0.04,0.04l-1.5 0c-0.02,0 -0.04,-0.02 -0.04,-0.04l0 -1.07c0,-0.02 0.02,-0.04 0.04,-0.04l0.32 0 0 -0.07 -0.32 0c-0.06,0 -0.11,0.05 -0.11,0.11l0 1.07c0,0.06 0.05,0.11 0.11,0.11l0.46 0 0 0.22 -0.07 0c-0.02,0 -0.03,0.01 -0.03,0.03l0 0.11 -0.08 0 0 0.07 0.94 0 0 -0.07 -0.08 0 0 -0.11c0,-0.02 -0.01,-0.03 -0.03,-0.03l-0.07 0 0 -0.22 0.46 0c0.06,0 0.11,-0.05 0.11,-0.11l0 -1.07c0,-0.06 -0.05,-0.11 -0.11,-0.11zm-0.43 1.65l-0.64 0 0 -0.07 0.64 0 0 0.07zm-0.1 -0.14l-0.43 0 0 -0.22 0.43 0 0 0.22z"/>
   <path class="fil5" d="M1.54 0.86l0 -0.64c0,-0.02 -0.01,-0.04 -0.03,-0.04l-0.18 0 0 0.07 0.14 0 0 0.61 0.07 0z"/>
   <path class="fil5" d="M0.39 0.25l0 -0.07 -0.17 0c-0.02,0 -0.04,0.02 -0.04,0.04l0 0.64 0.07 0 0 -0.61 0.14 0z"/>
   <path class="fil5" d="M0.86 0.86c0.22,0 0.39,-0.18 0.39,-0.39 0,-0.22 -0.17,-0.4 -0.39,-0.4 -0.22,0 -0.39,0.18 -0.39,0.4 0,0.21 0.17,0.39 0.39,0.39zm0 -0.72c0.18,0 0.32,0.15 0.32,0.33 0,0.17 -0.14,0.32 -0.32,0.32 -0.18,0 -0.32,-0.15 -0.32,-0.32 0,-0.18 0.14,-0.33 0.32,-0.33z"/>
   <path class="fil5" d="M0.79 0.65l0.03 0 0 0.07 0.08 0 0 -0.07 0.03 0c0.04,0 0.07,-0.04 0.07,-0.08l0 -0.07c0,-0.04 -0.03,-0.07 -0.07,-0.07l-0.14 0 0 -0.07 0.14 0 0 0.03 0.07 0 0 -0.03c0,-0.04 -0.03,-0.07 -0.07,-0.07l-0.03 0 0 -0.07 -0.08 0 0 0.07 -0.03 0c-0.04,0 -0.07,0.03 -0.07,0.07l0 0.07c0,0.04 0.03,0.07 0.07,0.07l0.14 0 0 0.07 -0.14 0 0 -0.03 -0.07 0 0 0.03c0,0.04 0.03,0.08 0.07,0.08z"/>
  </g>
 </g>
</svg>
