<?xml version="1.0" encoding="UTF-8"?>
<!DOCTYPE svg PUBLIC "-//W3C//DTD SVG 1.1//EN" "http://www.w3.org/Graphics/SVG/1.1/DTD/svg11.dtd">
<!-- Creator: CorelDRAW 2017 -->
<svg xmlns="http://www.w3.org/2000/svg" xml:space="preserve" width="120px" height="120px" version="1.1" style="shape-rendering:geometricPrecision; text-rendering:geometricPrecision; image-rendering:optimizeQuality; fill-rule:evenodd; clip-rule:evenodd"
viewBox="0 0 1.83 1.83"
 xmlns:xlink="http://www.w3.org/1999/xlink">
 <defs>
  <style type="text/css">
   <![CDATA[
    .fil16 {fill:#2A2F4F}
    .fil1 {fill:#2BA1CF}
    .fil9 {fill:#3D4159}
    .fil2 {fill:#66BAED}
    .fil6 {fill:#A35418}
    .fil15 {fill:#BF8E75}
    .fil11 {fill:#BFD5DE}
    .fil5 {fill:#CC7A3B}
    .fil13 {fill:#D3A489}
    .fil4 {fill:#D8D5D0}
    .fil12 {fill:#DDE8ED}
    .fil7 {fill:#EAB599}
    .fil3 {fill:#F2F0EC}
    .fil8 {fill:#F6CAAE}
    .fil14 {fill:#F74F4F}
    .fil0 {fill:#FFE152}
    .fil10 {fill:white}
   ]]>
  </style>
 </defs>
 <g id="Layer_x0020_1">
  <metadata id="CorelCorpID_0Corel-Layer"/>
  <g id="_2854910630704">
   <path class="fil0" d="M1.83 0.91c0,0.14 -0.03,0.27 -0.08,0.38 -0.09,0.2 -0.25,0.36 -0.45,0.45 -0.03,0.02 -0.07,0.03 -0.11,0.05 -0.04,0.01 -0.08,0.02 -0.13,0.03 0,0 0,0 0,0 -0.02,0 -0.04,0 -0.07,0.01 0,0 -0.01,0 -0.01,0 -0.01,0 -0.02,0 -0.02,0 -0.02,0 -0.03,0 -0.05,0 -0.01,0 -0.02,0 -0.04,0 -0.01,0 -0.01,0 -0.02,0 0,0 -0.01,0 -0.01,0 -0.03,-0.01 -0.05,-0.01 -0.07,-0.01 -0.01,0 -0.02,-0.01 -0.03,-0.01 -0.05,-0.01 -0.1,-0.02 -0.14,-0.04 -0.02,0 -0.05,-0.01 -0.07,-0.03 -0.01,0 -0.02,0 -0.03,-0.01 -0.02,-0.01 -0.04,-0.02 -0.06,-0.03 -0.1,-0.06 -0.19,-0.14 -0.26,-0.23 -0.04,-0.06 -0.07,-0.12 -0.1,-0.18 -0.05,-0.12 -0.08,-0.24 -0.08,-0.38 0,-0.5 0.41,-0.91 0.91,-0.91 0.51,0 0.92,0.41 0.92,0.91l0 0zm0 0z"/>
   <path class="fil1" d="M0.74 1.19l0 0.62c-0.05,-0.01 -0.1,-0.02 -0.14,-0.04 -0.02,0 -0.05,-0.01 -0.07,-0.03 -0.01,0 -0.02,0 -0.03,-0.01 -0.02,-0.01 -0.04,-0.02 -0.06,-0.03 -0.1,-0.06 -0.19,-0.14 -0.26,-0.23 -0.04,-0.06 -0.07,-0.12 -0.1,-0.18l0 -0.1c0,-0.12 0.08,-0.21 0.18,-0.24 0.01,0 0.01,0 0.01,-0.01 0.01,0 0.03,0 0.04,0 0,0 0.01,0 0.02,0l0.16 0c0.02,0 0.03,0 0.05,0 0,0.01 0,0.01 0,0.01 0.01,0 0.01,0 0.01,0 0,0 0,0 0,0 0.03,0.01 0.06,0.02 0.08,0.03 0.06,0.05 0.11,0.12 0.11,0.21l0 0zm0 0z"/>
   <path class="fil2" d="M0.74 1.19l0 0.62c-0.05,-0.01 -0.1,-0.02 -0.14,-0.04 -0.02,0 -0.05,-0.01 -0.07,-0.03 -0.01,0 -0.02,0 -0.03,-0.01 -0.02,-0.01 -0.04,-0.02 -0.06,-0.03 -0.1,-0.06 -0.19,-0.14 -0.26,-0.23l0 -0.28c0,-0.12 0.08,-0.21 0.19,-0.24 0,0 0.01,0 0.01,-0.01 0.01,0 0.02,0 0.03,0 0.01,0 0.02,0 0.02,0l0.06 0c0.02,0 0.03,0 0.05,0 0,0.01 0,0.01 0,0.01 0.01,0 0.01,0 0.01,0 0,0 0,0 0,0 0.03,0.01 0.06,0.02 0.08,0.03 0.06,0.05 0.11,0.12 0.11,0.21l0 0zm0 0z"/>
   <path class="fil3" d="M0.55 0.94l0 0.01 -0.07 0.34c-0.01,0.04 -0.04,0.06 -0.07,0.06 0,0 0,0 0,0 0,0 0,0 0,0 -0.04,0 -0.07,-0.02 -0.07,-0.06l-0.08 -0.34 0 -0.01 0.29 0zm0 0z"/>
   <g>
    <path class="fil4" d="M0.41 1.04l-0.11 0.06 -0.04 -0.16 0.07 -0.04 0.08 0.14zm0 0l0 0 0 0z"/>
   </g>
   <g>
    <path class="fil4" d="M0.41 1.04l0.11 0.06 0.03 -0.16 -0.07 -0.04 -0.07 0.14zm0 0l0 0 0 0z"/>
   </g>
   <g>
    <path class="fil5" d="M0.07 0.88l0 -0.37c0,-0.04 0.01,-0.08 0.02,-0.12 0.05,-0.13 0.18,-0.22 0.32,-0.22 0.01,0 0.03,0 0.05,0.01 0.08,0.01 0.15,0.05 0.2,0.11 0.05,0.06 0.08,0.14 0.08,0.22l0 0.37 -0.67 0zm0 0l0 0 0 0z"/>
   </g>
   <path class="fil6" d="M0.21 0.52c0,0.13 0.08,0.29 0.12,0.36l-0.26 0 0 -0.37c0,-0.04 0.01,-0.08 0.02,-0.12 0.05,-0.13 0.17,-0.22 0.31,-0.22 -0.1,0 -0.19,0.17 -0.19,0.35l0 0zm0 0z"/>
   <path class="fil7" d="M0.5 0.84l0 0.11c0,0.04 -0.03,0.08 -0.07,0.09 0,0 -0.01,0 -0.02,0 -0.05,0 -0.09,-0.04 -0.09,-0.09l0 -0.11 0.18 0zm0 0z"/>
   <path class="fil8" d="M0.5 0.95l0 0c0,0.04 -0.03,0.08 -0.07,0.09 -0.03,-0.01 -0.05,-0.04 -0.06,-0.08 0.01,0 0.01,0 0.02,0 0.02,0 0.03,0 0.05,0 0.02,0 0.04,-0.01 0.06,-0.01zm0 0z"/>
   <path class="fil8" d="M0.16 0.67c0,0.04 -0.03,0.07 -0.06,0.08 -0.01,0 -0.01,0 -0.02,0 -0.04,0 -0.08,-0.04 -0.08,-0.08 0,-0.05 0.04,-0.09 0.08,-0.09 0.01,0 0.01,0 0.02,0 0.03,0.01 0.06,0.04 0.06,0.09l0 0zm0 0z"/>
   <path class="fil7" d="M0.16 0.67c0,0.04 -0.03,0.07 -0.06,0.08 -0.01,-0.03 -0.02,-0.06 -0.02,-0.08 0,-0.03 0.01,-0.06 0.02,-0.09 0.03,0.01 0.06,0.04 0.06,0.09zm0 0z"/>
   <path class="fil7" d="M0.11 0.67c0,0.01 -0.01,0.03 -0.03,0.03 -0.01,0 -0.03,-0.02 -0.03,-0.03 0,-0.02 0.02,-0.03 0.03,-0.03 0.02,0 0.03,0.01 0.03,0.03zm0 0z"/>
   <path class="fil7" d="M0.62 0.56l0 0.28c-0.05,0.05 -0.1,0.07 -0.16,0.08 0,0 0,0 -0.01,0 -0.01,0.01 -0.03,0.01 -0.04,0.01 -0.17,0 -0.31,-0.14 -0.31,-0.31l0 -0.11c0,-0.02 0,-0.03 0,-0.05 0.08,0.05 0.18,0.05 0.25,-0.01 0.02,-0.02 0.04,-0.05 0.04,-0.08 0.01,0.05 0.03,0.09 0.07,0.13 0.04,0.04 0.1,0.06 0.16,0.06l0 0zm0 0z"/>
   <path class="fil8" d="M0.62 0.56l0 0.28c-0.05,0.05 -0.1,0.07 -0.16,0.08 0,0 0,0 -0.01,0 -0.14,-0.02 -0.25,-0.15 -0.25,-0.3l0 -0.11c0,-0.01 0,-0.01 0,-0.01 0.05,0 0.11,-0.01 0.15,-0.05 0.02,-0.02 0.04,-0.05 0.04,-0.08 0.01,0.05 0.03,0.09 0.07,0.13 0.04,0.04 0.1,0.06 0.16,0.06l0 0zm0 0z"/>
   <g>
    <path class="fil7" d="M0.57 0.6c0,-0.03 -0.02,-0.05 -0.05,-0.05 -0.03,0 -0.05,0.02 -0.05,0.05l0.1 0zm0 0l0 0 0 0z"/>
   </g>
   <g>
    <path class="fil7" d="M0.34 0.6c0,-0.03 -0.02,-0.05 -0.05,-0.05 -0.02,0 -0.05,0.02 -0.05,0.05l0.1 0zm0 0l0 0 0 0z"/>
   </g>
   <path class="fil9" d="M0.33 0.62c0,0.02 -0.02,0.03 -0.04,0.03 -0.02,0 -0.03,-0.01 -0.03,-0.03 0,-0.02 0.01,-0.04 0.03,-0.04 0.02,0 0.04,0.02 0.04,0.04zm0 0z"/>
   <path class="fil9" d="M0.56 0.62c0,0.02 -0.02,0.03 -0.04,0.03 -0.02,0 -0.03,-0.01 -0.03,-0.03 0,-0.02 0.01,-0.04 0.03,-0.04 0.02,0 0.04,0.02 0.04,0.04zm0 0z"/>
   <path class="fil7" d="M0.44 0.71l-0.07 0c-0.01,0 -0.01,-0.01 -0.01,-0.02 0,-0.01 0,-0.01 0.01,-0.01l0.07 0c0.01,0 0.02,0 0.02,0.01 0,0.01 -0.01,0.02 -0.02,0.02zm0 0z"/>
   <path class="fil7" d="M0.41 0.8c-0.03,0 -0.05,-0.01 -0.08,-0.02 0,0 -0.01,-0.01 0,-0.02 0,0 0.01,-0.01 0.02,0 0.03,0.02 0.08,0.02 0.12,0 0.01,-0.01 0.01,0 0.02,0 0,0.01 0,0.02 -0.01,0.02 -0.02,0.01 -0.05,0.02 -0.07,0.02l0 0zm0 0z"/>
   <path class="fil10" d="M0.32 0.61c0,0.01 -0.01,0.02 -0.01,0.02 -0.01,0 -0.02,-0.01 -0.02,-0.02 0,-0.01 0.01,-0.01 0.02,-0.01 0,0 0.01,0 0.01,0.01zm0 0z"/>
   <path class="fil10" d="M0.55 0.61c0,0.01 -0.01,0.02 -0.01,0.02 -0.01,0 -0.02,-0.01 -0.02,-0.02 0,-0.01 0.01,-0.01 0.02,-0.01 0,0 0.01,0 0.01,0.01zm0 0z"/>
   <path class="fil7" d="M0.62 0.7c0,0.02 -0.02,0.04 -0.04,0.04 -0.02,0 -0.04,-0.02 -0.04,-0.04 0,-0.02 0.02,-0.04 0.04,-0.04 0.02,0 0.04,0.02 0.04,0.04zm0 0z"/>
   <path class="fil7" d="M0.28 0.7c0,0.02 -0.02,0.04 -0.04,0.04 -0.02,0 -0.04,-0.02 -0.04,-0.04 0,-0.02 0.02,-0.04 0.04,-0.04 0.02,0 0.04,0.02 0.04,0.04zm0 0z"/>
   <path class="fil11" d="M1.75 1.18l0 0.11c-0.09,0.2 -0.25,0.36 -0.45,0.45 -0.03,0.02 -0.07,0.03 -0.11,0.05 -0.04,0.01 -0.08,0.02 -0.13,0.03 0,0 0,0 0,0l0 -0.64c0,-0.14 0.1,-0.25 0.24,-0.26 0.01,0 0.01,0 0.02,0l0.17 0c0.02,0 0.04,0 0.06,0.01 0.11,0.02 0.2,0.13 0.2,0.25zm0 0z"/>
   <path class="fil12" d="M1.75 1.18l0 0.11c-0.09,0.2 -0.25,0.36 -0.45,0.45 -0.03,0.02 -0.07,0.03 -0.11,0.05l0 -0.61c0,-0.14 0.12,-0.26 0.26,-0.26l0.04 0c0.14,0 0.26,0.12 0.26,0.26l0 0zm0 0z"/>
   <path class="fil13" d="M1.15 0.63c0,0.05 -0.03,0.08 -0.07,0.09 -0.01,0 -0.01,0 -0.02,0 -0.04,0 -0.08,-0.04 -0.08,-0.09 0,-0.04 0.04,-0.08 0.08,-0.08 0.01,0 0.01,0 0.02,0 0.04,0.01 0.07,0.04 0.07,0.08zm0 0z"/>
   <g>
    <path class="fil14" d="M1.47 1.01l-0.07 0.12 -0.07 -0.12 0.14 0zm0 0l0 0 0 0z"/>
   </g>
   <path class="fil14" d="M1.5 1.44l-0.1 0.12 -0.09 -0.12 0.09 -0.34 0.1 0.34zm0 0z"/>
   <path class="fil15" d="M1.15 0.63c0,0.05 -0.03,0.08 -0.07,0.09 -0.01,-0.03 -0.01,-0.06 -0.01,-0.09 0,-0.03 0,-0.05 0.01,-0.08 0.04,0.01 0.07,0.04 0.07,0.08zm0 0z"/>
   <path class="fil15" d="M1.09 0.63c0,0.02 -0.01,0.03 -0.03,0.03 -0.01,0 -0.03,-0.01 -0.03,-0.03 0,-0.01 0.02,-0.03 0.03,-0.03 0.02,0 0.03,0.02 0.03,0.03zm0 0z"/>
   <g>
    <path class="fil11" d="M1.4 1.03l-0.11 0.06 -0.04 -0.16 0.07 -0.05 0.08 0.15zm0 0l0 0 0 0z"/>
   </g>
   <g>
    <path class="fil11" d="M1.4 1.03l0.12 0.06 0.04 -0.16 -0.08 -0.05 -0.08 0.15zm0 0l0 0 0 0z"/>
   </g>
   <path class="fil13" d="M1.66 0.63c0,0.05 0.03,0.08 0.07,0.09 0,0 0.01,0 0.01,0 0.05,0 0.09,-0.04 0.09,-0.09 0,-0.04 -0.04,-0.08 -0.09,-0.08 0,0 -0.01,0 -0.01,0 -0.04,0.01 -0.07,0.04 -0.07,0.08zm0 0z"/>
   <path class="fil15" d="M1.66 0.63c0,0.05 0.03,0.08 0.07,0.09 0.01,-0.03 0.01,-0.06 0.01,-0.09 0,-0.03 0,-0.05 -0.01,-0.08 -0.04,0.01 -0.07,0.04 -0.07,0.08zm0 0z"/>
   <path class="fil15" d="M1.77 0.63c0,0.02 -0.01,0.03 -0.03,0.03 -0.01,0 -0.03,-0.01 -0.03,-0.03 0,-0.01 0.02,-0.03 0.03,-0.03 0.02,0 0.03,0.02 0.03,0.03zm0 0z"/>
   <path class="fil15" d="M1.72 0.59c0,0.16 -0.11,0.29 -0.26,0.31 -0.02,0.01 -0.04,0.01 -0.06,0.01 -0.17,0 -0.32,-0.14 -0.32,-0.32 0,-0.09 0.03,-0.21 0.09,-0.27 0.05,-0.06 0.14,-0.05 0.23,-0.05 0.02,0 0.04,0 0.06,0 0.15,0.03 0.26,0.16 0.26,0.32l0 0zm0 0z"/>
   <path class="fil15" d="M1.5 0.82l0 0.11c0,0.05 -0.03,0.08 -0.07,0.09 -0.01,0.01 -0.02,0.01 -0.03,0.01 -0.05,0 -0.09,-0.04 -0.09,-0.1l0 -0.11 0.19 0zm0 0z"/>
   <path class="fil13" d="M1.5 0.93l0 0c0,0.05 -0.03,0.08 -0.07,0.09 -0.03,-0.01 -0.06,-0.04 -0.06,-0.07 0,0 0.01,0 0.02,0 0.01,0 0.03,0 0.05,-0.01 0.02,0 0.04,-0.01 0.06,-0.01l0 0zm0 0z"/>
   <path class="fil13" d="M1.72 0.59c0,0.16 -0.11,0.29 -0.26,0.31 -0.16,-0.02 -0.27,-0.15 -0.27,-0.31 0,-0.1 0.04,-0.19 0.11,-0.25 0.04,-0.03 0.1,-0.06 0.16,-0.07 0.14,0.03 0.25,0.14 0.26,0.29 0,0.01 0,0.02 0,0.03l0 0zm0 0z"/>
   <path class="fil15" d="M1.4 0.75c-0.02,0 -0.05,-0.01 -0.07,-0.02 -0.01,-0.01 -0.01,-0.02 -0.01,-0.02 0,-0.01 0.01,-0.01 0.02,-0.01 0.04,0.02 0.09,0.02 0.13,0 0,0 0.01,0 0.02,0.01 0,0 0,0.01 -0.01,0.02 -0.02,0.01 -0.05,0.02 -0.08,0.02zm0 0z"/>
   <path class="fil9" d="M1.34 0.57c0,0.02 -0.02,0.04 -0.04,0.04 -0.02,0 -0.04,-0.02 -0.04,-0.04 0,-0.02 0.02,-0.04 0.04,-0.04 0.02,0 0.04,0.02 0.04,0.04zm0 0z"/>
   <path class="fil9" d="M1.54 0.57c0,0.02 -0.01,0.04 -0.03,0.04 -0.02,0 -0.04,-0.02 -0.04,-0.04 0,-0.02 0.02,-0.04 0.04,-0.04 0.02,0 0.03,0.02 0.03,0.04zm0 0z"/>
   <path class="fil10" d="M1.33 0.56c0,0.01 -0.01,0.02 -0.02,0.02 -0.01,0 -0.01,-0.01 -0.01,-0.02 0,-0.01 0,-0.01 0.01,-0.01 0.01,0 0.02,0 0.02,0.01zm0 0z"/>
   <path class="fil10" d="M1.54 0.56c0,0.01 -0.01,0.02 -0.02,0.02 -0.01,0 -0.01,-0.01 -0.01,-0.02 0,-0.01 0,-0.01 0.01,-0.01 0.01,0 0.02,0 0.02,0.01zm0 0z"/>
   <path class="fil15" d="M1.44 0.66l-0.07 0c-0.01,0 -0.02,-0.01 -0.02,-0.01 0,-0.01 0.01,-0.02 0.02,-0.02l0.07 0c0.01,0 0.02,0.01 0.02,0.02 0,0 -0.01,0.01 -0.02,0.01zm0 0z"/>
   <path class="fil11" d="M1.51 1.17l0.14 0 0 0.04 -0.14 0 0 -0.04zm0 0z"/>
   <path class="fil16" d="M1.38 0.18c0.1,0 0.18,0.08 0.18,0.18l0.01 0.02 0.05 0 0.03 0.2 0.07 -0.02 -0.01 -0.2c0,-0.1 -0.09,-0.18 -0.19,-0.18l-0.14 0zm0 0z"/>
   <path class="fil9" d="M1.71 0.1c0.08,0.08 0.08,0.2 0,0.28 -0.08,0.08 -0.2,0.08 -0.28,0l0.28 -0.28zm0 0z"/>
   <g>
    <path class="fil9" d="M1.43 0.38l-0.24 0 -0.03 0.2 -0.08 -0.02 0.01 -0.2c0.01,-0.1 0.09,-0.18 0.2,-0.18l0.35 0 0.04 0.08 -0.25 0.12zm0 0l0 0 0 0z"/>
   </g>
   <path class="fil16" d="M1.42 0.18c-0.09,0 -0.17,0.08 -0.18,0.18l0 0.02 -0.05 0 -0.03 0.2 -0.08 -0.02 0.01 -0.2c0.01,-0.1 0.09,-0.18 0.2,-0.18l0.13 0zm0 0z"/>
   <path class="fil9" d="M1.3 1.68l0 0.06c-0.12,0.06 -0.25,0.09 -0.39,0.09 -0.13,0 -0.27,-0.03 -0.38,-0.09l0 -0.06c0,-0.14 0.09,-0.25 0.21,-0.29 0.01,0 0.01,0 0.02,0 0.01,0 0.02,-0.01 0.04,-0.01 0,0 0.01,0 0.02,0l0.19 0c0.02,0 0.04,0 0.06,0.01 0,0 0,0 0.01,0 0,0 0,0 0.01,0 0,0 0,0 0,0 0.03,0.01 0.06,0.03 0.09,0.04 0.07,0.06 0.12,0.15 0.12,0.25l0 0zm0 0z"/>
   <path class="fil2" d="M1.09 1.39l0 0 -0.1 0.44c0,0 -0.01,0 -0.01,0 -0.01,0 -0.02,0 -0.02,0 -0.02,0 -0.03,0 -0.05,0 -0.01,0 -0.02,0 -0.04,0 -0.01,0 -0.01,0 -0.02,0 0,0 -0.01,0 -0.01,0l-0.1 -0.44 0 0 0.35 0zm0 0z"/>
   <g>
    <path class="fil9" d="M0.99 1.49l-0.08 0.12 -0.07 -0.12 0.15 0zm0 0l0 0 0 0z"/>
   </g>
   <path class="fil9" d="M0.98 1.83c-0.01,0 -0.02,0 -0.02,0 -0.02,0 -0.03,0 -0.05,0 -0.01,0 -0.02,0 -0.04,0 -0.01,0 -0.01,0 -0.02,0l0.06 -0.25 0.07 0.25zm0 0z"/>
   <g>
    <path class="fil1" d="M0.91 1.5l-0.13 0.08 -0.04 -0.19 0.08 -0.05 0.09 0.16zm0 0l0 0 0 0z"/>
   </g>
   <g>
    <path class="fil1" d="M0.91 1.5l0.14 0.08 0.04 -0.19 -0.09 -0.05 -0.09 0.16zm0 0l0 0 0 0z"/>
   </g>
   <path class="fil16" d="M1.09 1.64l0.04 0 -0.07 0.18c-0.03,0 -0.07,0.01 -0.1,0.01l0.13 -0.44 0 0 0.09 0.03 -0.09 0.22zm0 0z"/>
   <path class="fil16" d="M0.87 1.83c-0.03,0 -0.07,-0.01 -0.1,-0.01l-0.07 -0.18 0.04 0 -0.09 -0.22 0.09 -0.03 0 0 0.13 0.44zm0 0z"/>
   <path class="fil7" d="M1.02 1.27l0 0.13c0,0.04 -0.03,0.08 -0.07,0.1 -0.01,0 -0.02,0 -0.04,0 -0.05,0 -0.1,-0.04 -0.1,-0.1l0 -0.13 0.21 0zm0 0z"/>
   <path class="fil8" d="M1.02 1.39l0 0.01c0,0.04 -0.03,0.08 -0.07,0.1 -0.04,-0.01 -0.07,-0.05 -0.08,-0.09 0.01,0 0.02,0 0.02,0 0.02,0 0.04,0 0.06,0 0.03,-0.01 0.05,-0.01 0.07,-0.02l0 0zm0 0z"/>
   <path class="fil8" d="M0.63 1.06c0,0.05 -0.04,0.09 -0.08,0.1 -0.01,0 -0.01,0 -0.02,0 -0.05,0 -0.1,-0.05 -0.1,-0.1 0,-0.05 0.05,-0.1 0.1,-0.1 0.01,0 0.01,0 0.02,0 0.04,0.01 0.08,0.05 0.08,0.1zm0 0z"/>
   <path class="fil7" d="M0.63 1.06c0,0.05 -0.04,0.09 -0.08,0.1 -0.01,-0.03 -0.02,-0.07 -0.02,-0.1 0,-0.03 0.01,-0.07 0.02,-0.1 0.04,0.01 0.08,0.05 0.08,0.1zm0 0z"/>
   <path class="fil7" d="M0.57 1.06c0,0.02 -0.02,0.03 -0.04,0.03 -0.02,0 -0.03,-0.01 -0.03,-0.03 0,-0.02 0.01,-0.03 0.03,-0.03 0.02,0 0.04,0.01 0.04,0.03zm0 0z"/>
   <path class="fil8" d="M1.2 1.06c0,0.05 0.04,0.09 0.08,0.1 0.01,0 0.01,0 0.02,0 0.05,0 0.1,-0.05 0.1,-0.1 0,-0.05 -0.05,-0.1 -0.1,-0.1 -0.01,0 -0.01,0 -0.02,0 -0.04,0.01 -0.08,0.05 -0.08,0.1zm0 0z"/>
   <path class="fil7" d="M1.2 1.06c0,0.05 0.04,0.09 0.08,0.1 0.01,-0.03 0.02,-0.07 0.02,-0.1 0,-0.03 -0.01,-0.07 -0.02,-0.1 -0.04,0.01 -0.08,0.05 -0.08,0.1zm0 0z"/>
   <path class="fil7" d="M1.28 0.87l0 0.14c0,0.18 -0.14,0.33 -0.31,0.35 0,0 0,0.01 0,0.01 -0.02,0 -0.04,0 -0.06,0 -0.19,0 -0.36,-0.16 -0.36,-0.36l0 -0.14c0,-0.04 0.01,-0.08 0.02,-0.12 0.05,-0.14 0.19,-0.24 0.34,-0.24l0 0c0.02,0 0.04,0 0.06,0 0.17,0.03 0.31,0.18 0.31,0.36l0 0zm0 0z"/>
   <path class="fil7" d="M1.33 1.06c0,0.02 -0.01,0.03 -0.03,0.03 -0.02,0 -0.04,-0.01 -0.04,-0.03 0,-0.02 0.02,-0.03 0.04,-0.03 0.02,0 0.03,0.01 0.03,0.03zm0 0z"/>
   <path class="fil8" d="M1.28 0.87l0 0.14c0,0.18 -0.14,0.33 -0.31,0.35 0,0 0,0.01 0,0.01 -0.17,-0.03 -0.3,-0.18 -0.3,-0.36l0 -0.14c0,-0.18 0.13,-0.33 0.3,-0.36 0.17,0.03 0.31,0.18 0.31,0.36l0 0zm0 0z"/>
   <path class="fil9" d="M0.84 0.99c0,0.02 -0.02,0.04 -0.04,0.04 -0.03,0 -0.04,-0.02 -0.04,-0.04 0,-0.03 0.01,-0.04 0.04,-0.04 0.02,0 0.04,0.01 0.04,0.04zm0 0z"/>
   <path class="fil9" d="M1.07 0.99c0,0.02 -0.01,0.04 -0.04,0.04 -0.02,0 -0.04,-0.02 -0.04,-0.04 0,-0.03 0.02,-0.04 0.04,-0.04 0.03,0 0.04,0.01 0.04,0.04zm0 0z"/>
   <path class="fil10" d="M0.83 0.98c0,0.01 -0.01,0.02 -0.02,0.02 -0.01,0 -0.02,-0.01 -0.02,-0.02 0,-0.01 0.01,-0.02 0.02,-0.02 0.01,0 0.02,0.01 0.02,0.02zm0 0z"/>
   <path class="fil10" d="M1.07 0.98c0,0.01 -0.01,0.02 -0.02,0.02 -0.01,0 -0.02,-0.01 -0.02,-0.02 0,-0.01 0.01,-0.02 0.02,-0.02 0.01,0 0.02,0.01 0.02,0.02zm0 0z"/>
   <path class="fil7" d="M0.96 1.07l-0.09 0c-0.01,0 -0.01,0 -0.01,-0.01 0,-0.01 0,-0.02 0.01,-0.02l0.09 0c0.01,0 0.01,0.01 0.01,0.02 0,0.01 0,0.01 -0.01,0.01zm0 0z"/>
   <path class="fil7" d="M0.91 1.19c-0.03,0 -0.06,-0.01 -0.08,-0.03 -0.01,0 -0.01,-0.01 -0.01,-0.02 0,-0.01 0.01,-0.01 0.02,0 0.05,0.02 0.1,0.02 0.15,0 0.01,-0.01 0.01,-0.01 0.02,0 0,0.01 0,0.02 -0.01,0.02 -0.02,0.02 -0.05,0.03 -0.09,0.03l0 0zm0 0z"/>
   <path class="fil16" d="M1.28 0.75l0 0.14 -0.07 0 0 -0.11 -0.49 -0.09 -0.1 -0.02 0 0.22 -0.07 0 0 -0.14c0,-0.16 0.13,-0.29 0.29,-0.29l0.15 0c0,0 0,0 0.01,0 0.15,0 0.28,0.13 0.28,0.29l0 0zm0 0z"/>
   <path class="fil9" d="M1.28 0.75l0 0.14 -0.07 0 0 -0.11 -0.49 -0.09c0.03,-0.13 0.14,-0.23 0.28,-0.23 0.15,0 0.28,0.13 0.28,0.29l0 0zm0 0z"/>
  </g>
 </g>
</svg>
