<?xml version="1.0" encoding="UTF-8"?>
<!DOCTYPE svg PUBLIC "-//W3C//DTD SVG 1.1//EN" "http://www.w3.org/Graphics/SVG/1.1/DTD/svg11.dtd">
<!-- Creator: CorelDRAW 2017 -->
<svg xmlns="http://www.w3.org/2000/svg" xml:space="preserve" width="120px" height="120px" version="1.1" style="shape-rendering:geometricPrecision; text-rendering:geometricPrecision; image-rendering:optimizeQuality; fill-rule:evenodd; clip-rule:evenodd"
viewBox="0 0 1.95 1.95"
 xmlns:xlink="http://www.w3.org/1999/xlink">
 <defs>
  <style type="text/css">
   <![CDATA[
    .fil0 {fill:#19CFFC;fill-rule:nonzero}
    .fil9 {fill:#333940;fill-rule:nonzero}
    .fil8 {fill:#414952;fill-rule:nonzero}
    .fil1 {fill:#4AB8F7;fill-rule:nonzero}
    .fil5 {fill:#707789;fill-rule:nonzero}
    .fil4 {fill:#7E8596;fill-rule:nonzero}
    .fil7 {fill:#CDD2E1;fill-rule:nonzero}
    .fil6 {fill:#DCE1EB;fill-rule:nonzero}
    .fil3 {fill:#E9EDF5;fill-rule:nonzero}
    .fil10 {fill:#FE6A16;fill-rule:nonzero}
    .fil2 {fill:white;fill-rule:nonzero}
   ]]>
  </style>
 </defs>
 <g id="Layer_x0020_1">
  <metadata id="CorelCorpID_0Corel-Layer"/>
  <g id="_2854697584064">
   <path class="fil0" d="M1.95 0.98c0,0.54 -0.43,0.97 -0.97,0.97 -0.54,0 -0.98,-0.43 -0.98,-0.97 0,-0.54 0.44,-0.98 0.98,-0.98 0.54,0 0.97,0.44 0.97,0.98zm0 0z"/>
   <path class="fil1" d="M1.95 0.98c0,-0.05 0,-0.09 0,-0.13l-0.49 -0.49 -0.09 0.13 -0.17 -0.16 -0.01 0.02 -0.12 -0.11 -0.57 1.39 0.31 0.31c0.05,0.01 0.11,0.01 0.17,0.01 0.54,0 0.97,-0.43 0.97,-0.97zm0 0z"/>
   <path class="fil2" d="M0.5 0.36l0.96 0 0 1.27 -0.96 0 0 -1.27zm0 0z"/>
   <path class="fil3" d="M0.98 0.36l0.48 0 0 1.27 -0.48 0 0 -1.27zm0 0z"/>
   <path class="fil4" d="M1.29 0.83c0,0.17 -0.14,0.31 -0.31,0.31 -0.17,0 -0.31,-0.14 -0.31,-0.31 0,-0.17 0.14,-0.31 0.31,-0.31 0.17,0 0.31,0.14 0.31,0.31zm0 0z"/>
   <path class="fil5" d="M0.98 0.52c0,0 0,0 0,0l0 0.62c0,0 0,0 0,0 0.17,0 0.31,-0.14 0.31,-0.31 0,-0.17 -0.14,-0.31 -0.31,-0.31zm0 0z"/>
   <path class="fil6" d="M1.11 0.75c0,0.07 -0.06,0.13 -0.13,0.13 -0.08,0 -0.14,-0.06 -0.14,-0.13 0,-0.08 0.06,-0.14 0.14,-0.14 0.07,0 0.13,0.06 0.13,0.14zm0 0z"/>
   <path class="fil7" d="M0.98 0.61c0,0 0,0 0,0l0 0.27c0,0 0,0 0,0 0.07,0 0.13,-0.06 0.13,-0.13 0,-0.08 -0.06,-0.14 -0.13,-0.14zm0 0z"/>
   <path class="fil6" d="M0.98 1.14c0.09,0 0.17,-0.04 0.23,-0.1 -0.04,-0.09 -0.13,-0.16 -0.23,-0.16 -0.11,0 -0.2,0.07 -0.23,0.16 0.05,0.06 0.14,0.1 0.23,0.1zm0 0z"/>
   <path class="fil7" d="M0.98 0.88c0,0 0,0 0,0l0 0.26c0,0 0,0 0,0 0.09,0 0.17,-0.04 0.23,-0.1 -0.04,-0.09 -0.13,-0.16 -0.23,-0.16zm0 0z"/>
   <path class="fil8" d="M1.11 0.33c0,-0.08 -0.06,-0.14 -0.13,-0.14 -0.08,0 -0.14,0.06 -0.14,0.14l-0.09 0 0 0.16 0.45 0 0 -0.16 -0.09 0zm0 0z"/>
   <path class="fil9" d="M1.2 0.33l-0.09 0c0,-0.08 -0.06,-0.14 -0.13,-0.14 0,0 0,0 0,0l0 0.3 0.22 0 0 -0.16zm0 0z"/>
   <path class="fil10" d="M0.59 1.22l0.29 0 0 0.07 -0.29 0 0 -0.07zm0 0z"/>
   <path class="fil4" d="M0.9 1.22l0.4 0 0 0.07 -0.4 0 0 -0.07zm0 0z"/>
   <path class="fil5" d="M0.98 1.22l0.32 0 0 0.07 -0.32 0 0 -0.07zm0 0z"/>
   <path class="fil10" d="M0.59 1.34l0.29 0 0 0.08 -0.29 0 0 -0.08zm0 0z"/>
   <path class="fil4" d="M0.9 1.34l0.27 0 0 0.08 -0.27 0 0 -0.08zm0 0z"/>
   <path class="fil5" d="M0.98 1.34l0.19 0 0 0.08 -0.19 0 0 -0.08zm0 0z"/>
   <path class="fil10" d="M0.59 1.47l0.29 0 0 0.07 -0.29 0 0 -0.07zm0 0z"/>
   <path class="fil4" d="M0.9 1.47l0.46 0 0 0.07 -0.46 0 0 -0.07zm0 0z"/>
   <path class="fil5" d="M0.98 1.47l0.38 0 0 0.07 -0.38 0 0 -0.07zm0 0z"/>
  </g>
 </g>
</svg>
