<?xml version="1.0" encoding="UTF-8"?>
<!DOCTYPE svg PUBLIC "-//W3C//DTD SVG 1.1//EN" "http://www.w3.org/Graphics/SVG/1.1/DTD/svg11.dtd">
<!-- Creator: CorelDRAW 2017 -->
<svg xmlns="http://www.w3.org/2000/svg" xml:space="preserve" width="94px" height="120px" version="1.1" style="shape-rendering:geometricPrecision; text-rendering:geometricPrecision; image-rendering:optimizeQuality; fill-rule:evenodd; clip-rule:evenodd"
viewBox="0 0 2.43 3.1"
 xmlns:xlink="http://www.w3.org/1999/xlink">
 <defs>
  <style type="text/css">
   <![CDATA[
    .fil1 {fill:#3D4159}
    .fil0 {fill:#4C5B66}
   ]]>
  </style>
 </defs>
 <g id="Layer_x0020_1">
  <metadata id="CorelCorpID_0Corel-Layer"/>
  <path class="fil0" d="M1.21 0c-0.67,0 -1.21,0.55 -1.21,1.22 0,0.26 0.06,0.52 0.19,0.78 0.1,0.2 0.23,0.39 0.41,0.58 0.29,0.32 0.58,0.49 0.59,0.5l0.02 0.02 0.03 -0.02c0.01,-0.01 0.3,-0.18 0.59,-0.5 0.17,-0.19 0.31,-0.38 0.41,-0.58 0.12,-0.26 0.19,-0.52 0.19,-0.78 0,-0.67 -0.55,-1.22 -1.22,-1.22zm-0.25 2.66c-0.07,0 -0.14,-0.06 -0.14,-0.14 0,-0.07 0.07,-0.14 0.14,-0.14 0.08,0 0.14,0.07 0.14,0.14l0 0c0,0.08 -0.06,0.14 -0.14,0.14zm0.25 0.21c-0.06,0 -0.11,-0.05 -0.11,-0.11 0,-0.05 0.05,-0.1 0.11,-0.1 0.05,0 0.1,0.05 0.1,0.1 0,0.06 -0.05,0.11 -0.1,0.11l0 0zm0 -0.63c-0.56,0 -1.02,-0.46 -1.02,-1.02 0,-0.57 0.46,-1.02 1.02,-1.02 0.57,0 1.02,0.45 1.02,1.02 0,0.56 -0.45,1.02 -1.02,1.02z"/>
  <path class="fil1" d="M0.85 0.7c0.05,-0.03 0.09,-0.04 0.14,-0.04 0.06,0 0.11,0.02 0.16,0.05 0.04,0.02 0.09,0.02 0.13,0 0.04,-0.03 0.09,-0.05 0.15,-0.05 0.04,0 0.09,0.01 0.15,0.04 0.01,0 0.04,0.01 0.07,0.02 -0.02,-0.06 -0.05,-0.12 -0.09,-0.18 -0.17,-0.18 -0.45,-0.2 -0.64,-0.04 -0.01,0.02 -0.02,0.03 -0.04,0.04 -0.04,0.05 -0.07,0.11 -0.09,0.18l0.06 -0.02z"/>
  <path class="fil1" d="M1.22 1.46c-0.17,0 -0.32,-0.11 -0.37,-0.27l-0.01 0 -0.06 -0.32c0,-0.03 0.01,-0.05 0.03,-0.06l0.08 -0.02c0.03,-0.02 0.07,-0.03 0.1,-0.03 0.04,0 0.07,0.01 0.1,0.03 0.08,0.05 0.17,0.05 0.24,0 0.06,-0.04 0.13,-0.04 0.21,0 0.02,0 0.05,0.02 0.08,0.03 0.03,0 0.04,0.03 0.04,0.05l-0.07 0.32 0 0c-0.05,0.16 -0.2,0.27 -0.37,0.27z"/>
  <path class="fil1" d="M1.89 1.81c0,-0.11 -0.08,-0.21 -0.19,-0.24l-0.24 -0.05c-0.02,-0.01 -0.05,0.01 -0.05,0.04 0,0 0,0 0,0.01l0 0c0,0.13 -0.09,0.23 -0.2,0.23 -0.05,0 -0.1,-0.02 -0.14,-0.07l0 0c-0.03,-0.05 -0.05,-0.1 -0.05,-0.16l0 0c0,-0.03 -0.02,-0.05 -0.05,-0.05 0,0 -0.01,0 -0.01,0l-0.24 0.05c-0.11,0.03 -0.19,0.13 -0.19,0.24l0 0.03c0.35,0.38 0.93,0.4 1.3,0.06 0.02,-0.02 0.04,-0.04 0.06,-0.06l0 -0.03z"/>
 </g>
</svg>
