<?xml version="1.0" encoding="UTF-8"?>
<!DOCTYPE svg PUBLIC "-//W3C//DTD SVG 1.1//EN" "http://www.w3.org/Graphics/SVG/1.1/DTD/svg11.dtd">
<!-- Creator: CorelDRAW 2017 -->
<svg xmlns="http://www.w3.org/2000/svg" xml:space="preserve" width="200px" height="200px" version="1.1" style="shape-rendering:geometricPrecision; text-rendering:geometricPrecision; image-rendering:optimizeQuality; fill-rule:evenodd; clip-rule:evenodd"
viewBox="0 0 9.83 9.83"
 xmlns:xlink="http://www.w3.org/1999/xlink">
 <defs>
  <style type="text/css">
   <![CDATA[
    .fil1 {fill:#19CFFC}
    .fil2 {fill:#2864F0}
    .fil3 {fill:#3389FF}
    .fil0 {fill:#FFCD02}
   ]]>
  </style>
 </defs>
 <g id="PowerClip_x0020_Contents">
  <metadata id="CorelCorpID_0Corel-Layer"/>
  <rect class="fil0" width="9.83" height="9.83" rx="0.82" ry="0.82"/>
  <g id="_2854963252592">
   <g>
    <path class="fil1" d="M2.85 2.51l-1.16 0c-0.12,0 -0.22,-0.1 -0.22,-0.23 0,-0.12 0.1,-0.23 0.22,-0.23l1.16 0c0.13,0 0.23,0.11 0.23,0.23 0,0.13 -0.1,0.23 -0.23,0.23z"/>
    <path class="fil1" d="M2.85 4.34l-1.16 0c-0.12,0 -0.22,-0.1 -0.22,-0.23 0,-0.12 0.1,-0.23 0.22,-0.23l1.16 0c0.13,0 0.23,0.11 0.23,0.23 0,0.13 -0.1,0.23 -0.23,0.23z"/>
    <path class="fil1" d="M2.4 3.43l-1.16 0c-0.13,0 -0.23,-0.11 -0.23,-0.23 0,-0.13 0.1,-0.23 0.23,-0.23l1.16 0c0.12,0 0.22,0.1 0.22,0.23 0,0.12 -0.1,0.23 -0.22,0.23z"/>
   </g>
   <g>
    <path class="fil2" d="M5.28 1.79c-0.18,-0.12 -0.42,-0.1 -0.58,0.05l-1.25 1.26c-0.18,0.18 -0.18,0.47 0,0.65 0.17,0.18 0.46,0.18 0.64,0l1 -0.99 0.71 0.51 0.97 -0.45 -1.49 -1.03z"/>
    <path class="fil2" d="M4.36 4.7l-2.97 2.98c-0.18,0.18 -0.18,0.47 0,0.65 0.17,0.17 0.46,0.17 0.64,0l2.65 -2.66 -0.32 -0.97z"/>
   </g>
   <g>
    <path class="fil3" d="M8.36 4.11l-1.39 0 0 -0.91c0,-0.18 -0.11,-0.35 -0.28,-0.43 -0.18,-0.07 -0.37,-0.02 -0.5,0.1l-1.83 1.83c-0.18,0.18 -0.18,0.47 0,0.65l1.05 1.05 -1.28 1.28c-0.18,0.18 -0.18,0.47 0,0.65 0.18,0.17 0.47,0.17 0.65,0l1.6 -1.61c0.18,-0.18 0.18,-0.46 0,-0.64l-1.05 -1.05 0.73 -0.73 0 0.27c0,0.25 0.2,0.46 0.45,0.46l1.85 0c0.25,0 0.46,-0.21 0.46,-0.46 0,-0.25 -0.21,-0.46 -0.46,-0.46z"/>
    <circle class="fil3" cx="7.66" cy="2.05" r="0.69"/>
   </g>
   <g>
   </g>
   <g>
   </g>
   <g>
   </g>
   <g>
   </g>
   <g>
   </g>
   <g>
   </g>
   <g>
   </g>
   <g>
   </g>
   <g>
   </g>
   <g>
   </g>
   <g>
   </g>
   <g>
   </g>
   <g>
   </g>
   <g>
   </g>
   <g>
   </g>
  </g>
 </g>
</svg>
