<?xml version="1.0" encoding="UTF-8"?>
<!DOCTYPE svg PUBLIC "-//W3C//DTD SVG 1.1//EN" "http://www.w3.org/Graphics/SVG/1.1/DTD/svg11.dtd">
<!-- Creator: CorelDRAW 2017 -->
<svg xmlns="http://www.w3.org/2000/svg" xml:space="preserve" width="849px" height="441px" version="1.1" style="shape-rendering:geometricPrecision; text-rendering:geometricPrecision; image-rendering:optimizeQuality; fill-rule:evenodd; clip-rule:evenodd"
viewBox="0 0 81.46 42.31"
 xmlns:xlink="http://www.w3.org/1999/xlink">
 <defs>
  <style type="text/css">
   <![CDATA[
    .fil4 {fill:none}
    .fil9 {fill:black;fill-rule:nonzero}
    .fil8 {fill:#061B1B;fill-rule:nonzero}
    .fil5 {fill:#3FB500;fill-rule:nonzero}
    .fil6 {fill:#59FF00;fill-rule:nonzero}
    .fil3 {fill:url(#id1)}
    .fil0 {fill:url(#id2)}
    .fil2 {fill:url(#id3)}
    .fil7 {fill:url(#id4)}
    .fil1 {fill:url(#id5)}
   ]]>
  </style>
     <clipPath id="id0">
      <path d="M29.85 0.79l21.76 0c1.5,0 2.72,1.22 2.72,2.72l0 21.76c0,1.5 -1.22,2.72 -2.72,2.72l-21.76 0c-1.5,0 -2.72,-1.22 -2.72,-2.72l0 -21.76c0,-1.5 1.22,-2.72 2.72,-2.72z"/>
     </clipPath>
  <linearGradient id="id1" gradientUnits="userSpaceOnUse" x1="48.72" y1="8.95" x2="55.44" y2="-6.15">
   <stop offset="0" style="stop-opacity:1; stop-color:black"/>
   <stop offset="1" style="stop-opacity:1; stop-color:#064747"/>
  </linearGradient>
  <linearGradient id="id2" gradientUnits="userSpaceOnUse" x1="54.32" y1="10.63" x2="26.34" y2="17.91">
   <stop offset="0" style="stop-opacity:1; stop-color:#064747"/>
   <stop offset="1" style="stop-opacity:1; stop-color:#010808"/>
  </linearGradient>
  <linearGradient id="id3" gradientUnits="userSpaceOnUse" xlink:href="#id1" x1="51.52" y1="-3.92" x2="46.48" y2="8.39">
  </linearGradient>
  <linearGradient id="id4" gradientUnits="userSpaceOnUse" x1="29.14" y1="20.7" x2="51.52" y2="20.7">
   <stop offset="0" style="stop-opacity:1; stop-color:#59FF00"/>
   <stop offset="1" style="stop-opacity:1; stop-color:#3FB500"/>
  </linearGradient>
  <linearGradient id="id5" gradientUnits="userSpaceOnUse" x1="26.9" y1="13.99" x2="54.32" y2="13.99">
   <stop offset="0" style="stop-opacity:1; stop-color:#064747"/>
   <stop offset="1" style="stop-opacity:1; stop-color:#061414"/>
  </linearGradient>
 </defs>
 <g id="Layer_x0020_1">
  <metadata id="CorelCorpID_0Corel-Layer"/>
  <g id="_2854472449744">
   <g id="_2854694468624">
    <path class="fil0" d="M29.86 0l21.74 0c1.94,0 3.52,1.58 3.52,3.53l0 21.73c0,1.94 -1.58,3.52 -3.52,3.52l-21.74 0c-1.94,0 -3.52,-1.58 -3.52,-3.52l0 -21.73c0,-1.95 1.58,-3.53 3.52,-3.53z"/>
    <path class="fil1" d="M29.85 0.79l21.76 0c1.5,0 2.72,1.22 2.72,2.72l0 21.76c0,1.5 -1.22,2.72 -2.72,2.72l-21.76 0c-1.5,0 -2.72,-1.22 -2.72,-2.72l0 -21.76c0,-1.5 1.22,-2.72 2.72,-2.72z"/>
    <g>
    </g>
    <g style="clip-path:url(#id0)">
     <g>
      <circle class="fil2" cx="49.43" cy="2.18" r="7.09"/>
      <circle class="fil3" cx="52.56" cy="1.31" r="8.44"/>
     </g>
    </g>
    <path class="fil4" d="M29.85 0.79l21.76 0c1.5,0 2.72,1.22 2.72,2.72l0 21.76c0,1.5 -1.22,2.72 -2.72,2.72l-21.76 0c-1.5,0 -2.72,-1.22 -2.72,-2.72l0 -21.76c0,-1.5 1.22,-2.72 2.72,-2.72z"/>
    <path class="fil4" d="M29.85 0.79l21.76 0c1.5,0 2.72,1.22 2.72,2.72l0 21.76c0,1.5 -1.22,2.72 -2.72,2.72l-21.76 0c-1.5,0 -2.72,-1.22 -2.72,-2.72l0 -21.76c0,-1.5 1.22,-2.72 2.72,-2.72z"/>
    <g>
     <polygon class="fil5" points="39.09,7.34 36.77,7.75 36.77,18.31 39.09,18.31 39.09,14.82 39.1,14.82 41.21,18.31 43.7,18.31 41.4,14.44 43.7,10.79 41.21,10.79 39.1,14.11 39.09,14.11 "/>
     <polygon class="fil6" points="53.81,10.79 51.42,10.79 50.23,15.53 49.12,10.79 47.05,10.79 45.95,15.53 44.74,10.79 42.37,10.79 44.57,18.31 47.09,18.31 48.09,14.98 49.07,18.31 51.61,18.31 "/>
     <polygon class="fil6" points="39.09,10.79 36.77,10.79 35.51,15.53 34.41,10.79 32.34,10.79 31.24,15.53 30.02,10.79 27.65,10.79 29.85,18.31 32.38,18.31 33.38,14.98 34.35,18.31 36.89,18.31 "/>
    </g>
    <path class="fil7" d="M33.53 19.75l14.21 0c2.2,0 3.99,0.67 3.99,1.51l0 0c0,0.83 -1.79,1.51 -3.99,1.51l-14.21 0c-2.21,0 -4,-0.68 -4,-1.51l0 0c0,-0.84 1.79,-1.51 4,-1.51z"/>
    <path class="fil8" d="M30.91 20.69c0.01,-0.04 0.03,-0.08 0.06,-0.12 0.02,-0.04 0.06,-0.07 0.1,-0.11 0.04,-0.03 0.08,-0.07 0.13,-0.1 0.04,-0.03 0.09,-0.05 0.13,-0.08 0.05,-0.02 0.08,-0.04 0.12,-0.05 0.04,-0.01 0.08,-0.01 0.1,-0.01l0.02 0c0.01,0 0.02,0 0.04,0.01 0.02,0.01 0.03,0.02 0.04,0.04 0.02,0.01 0.02,0.02 0.03,0.04 0.01,0.01 0.01,0.02 0.01,0.02 -0.03,0.14 -0.06,0.28 -0.09,0.42 -0.03,0.14 -0.06,0.27 -0.08,0.39 -0.03,0.12 -0.04,0.22 -0.06,0.31 -0.01,0.08 -0.02,0.14 -0.01,0.18 0,0.02 0.01,0.02 0.03,0.02 0.02,0 0.04,-0.01 0.06,-0.02 0.03,-0.02 0.06,-0.05 0.09,-0.1 0.03,-0.04 0.06,-0.11 0.1,-0.18 0.04,-0.08 0.08,-0.18 0.11,-0.31 0.02,-0.06 0.03,-0.12 0.05,-0.19 0.02,-0.06 0.03,-0.11 0.04,-0.16 0.02,-0.05 0.03,-0.09 0.04,-0.13 0.01,-0.04 0.02,-0.06 0.02,-0.07 0.01,-0.02 0.02,-0.03 0.05,-0.03 0.01,0 0.02,0.01 0.04,0.02 0.02,0.01 0.03,0.02 0.04,0.03 0.02,0.01 0.02,0.03 0.03,0.04 0.01,0.01 0.01,0.02 0.01,0.03 -0.03,0.15 -0.06,0.27 -0.09,0.4 -0.02,0.11 -0.05,0.22 -0.07,0.31 -0.02,0.1 -0.04,0.17 -0.04,0.23 -0.01,0.06 -0.01,0.1 0.01,0.12 0,0.01 0.01,0.01 0.02,0.01 0.01,0 0.04,-0.02 0.07,-0.06 0.04,-0.05 0.08,-0.12 0.12,-0.19 0.04,-0.08 0.08,-0.16 0.12,-0.26 0.05,-0.1 0.09,-0.19 0.12,-0.29 0.04,-0.1 0.06,-0.2 0.09,-0.3 0.02,-0.1 0.03,-0.18 0.03,-0.26 0,-0.02 0,-0.05 -0.01,-0.06 -0.01,-0.03 -0.03,-0.04 -0.05,-0.04 -0.01,0 -0.01,-0.01 -0.01,-0.01 0,-0.01 0,-0.01 0,-0.02 0.01,-0.01 0.01,-0.01 0.03,-0.02 0.01,0 0.02,0 0.03,0 0.02,-0.01 0.04,-0.01 0.07,-0.01 0.02,0 0.03,0.01 0.05,0.01 0.02,0.01 0.03,0.03 0.05,0.04 0.01,0.01 0.02,0.02 0.03,0.05 0.01,0.01 0.01,0.04 0.01,0.06 0,0.04 0,0.1 -0.02,0.17 -0.01,0.06 -0.03,0.14 -0.05,0.23 -0.02,0.08 -0.05,0.16 -0.09,0.26 -0.03,0.09 -0.07,0.18 -0.11,0.27 -0.04,0.09 -0.08,0.17 -0.13,0.25 -0.05,0.08 -0.09,0.16 -0.14,0.22 -0.05,0.06 -0.1,0.11 -0.15,0.14 -0.05,0.04 -0.11,0.06 -0.16,0.06 0,0 -0.01,-0.01 -0.02,-0.01 -0.02,-0.01 -0.03,-0.01 -0.05,-0.03 -0.01,-0.02 -0.02,-0.04 -0.04,-0.07 -0.01,-0.03 -0.02,-0.06 -0.02,-0.11 0,-0.06 0,-0.11 0,-0.18 -0.02,0.06 -0.05,0.11 -0.08,0.16 -0.02,0.04 -0.06,0.09 -0.09,0.12 -0.03,0.04 -0.07,0.07 -0.1,0.09 -0.04,0.02 -0.08,0.03 -0.12,0.03l0 0c-0.01,0 -0.01,-0.01 -0.02,-0.01 -0.02,-0.01 -0.04,-0.01 -0.05,-0.03 -0.01,-0.02 -0.03,-0.04 -0.04,-0.07 -0.02,-0.03 -0.02,-0.06 -0.03,-0.11 0,-0.05 0.01,-0.11 0.01,-0.18 0.01,-0.07 0.02,-0.14 0.03,-0.22 0.02,-0.09 0.04,-0.16 0.06,-0.25 0.02,-0.09 0.03,-0.17 0.06,-0.25 0.01,-0.08 0.03,-0.16 0.05,-0.23 0.02,-0.07 0.03,-0.13 0.05,-0.18 -0.05,0.02 -0.1,0.04 -0.16,0.08 -0.05,0.04 -0.09,0.08 -0.13,0.13 -0.05,0.04 -0.08,0.09 -0.1,0.15 -0.02,0.06 -0.03,0.1 -0.01,0.15 0.01,0.03 0,0.05 -0.02,0.05 -0.01,0 -0.03,0 -0.05,-0.02 -0.02,-0.01 -0.04,-0.03 -0.06,-0.05 -0.02,-0.02 -0.03,-0.05 -0.04,-0.07 -0.01,-0.03 -0.01,-0.06 -0.01,-0.09l0 0z"/>
    <path id="_1" class="fil8" d="M32.69 21.02c0.03,-0.08 0.08,-0.14 0.12,-0.18 0.05,-0.05 0.1,-0.07 0.15,-0.07 0.06,0 0.11,0.02 0.14,0.07 0.03,0.02 0.05,0.07 0.06,0.13 0.01,-0.02 0.01,-0.03 0.02,-0.05 0,-0.02 0,-0.03 0.01,-0.04 0,-0.01 0,-0.02 0.02,-0.02 0,-0.01 0.01,-0.01 0.02,-0.01 0.02,0.01 0.04,0.01 0.05,0.02 0.03,0.01 0.04,0.01 0.06,0.02 0.02,0.01 0.03,0.02 0.04,0.03 0.02,0.01 0.02,0.02 0.02,0.03 0,0.02 0,0.04 -0.01,0.07 -0.01,0.03 -0.01,0.07 -0.02,0.11 -0.01,0.05 -0.02,0.11 -0.04,0.17 -0.01,0.06 -0.02,0.12 -0.03,0.17 -0.01,0.06 -0.01,0.11 -0.02,0.14 0,0.05 0,0.07 0.01,0.08 0.01,0.01 0.02,0.01 0.02,0.01 0.01,0 0.03,-0.01 0.05,-0.02 0.02,-0.02 0.04,-0.04 0.06,-0.07 0.01,-0.03 0.03,-0.06 0.05,-0.09 0.03,-0.03 0.04,-0.06 0.06,-0.09 0.01,-0.03 0.03,-0.06 0.04,-0.08 0.01,-0.03 0.02,-0.05 0.03,-0.06 0,-0.01 0.01,-0.02 0.02,-0.02 0.01,0 0.02,0 0.03,0 0.01,0.01 0.01,0.01 0.01,0.02 0,0.01 0,0.01 0,0.01 -0.01,0.03 -0.04,0.09 -0.06,0.15 -0.03,0.07 -0.06,0.14 -0.1,0.2 -0.04,0.07 -0.08,0.13 -0.13,0.18 -0.04,0.05 -0.09,0.08 -0.14,0.08 -0.09,0 -0.14,-0.09 -0.15,-0.25 -0.07,0.16 -0.14,0.24 -0.24,0.24 -0.05,0 -0.09,-0.01 -0.13,-0.03 -0.03,-0.03 -0.06,-0.06 -0.08,-0.1 -0.02,-0.03 -0.03,-0.08 -0.03,-0.12 -0.02,-0.05 -0.02,-0.09 -0.02,-0.14 0,-0.08 0.01,-0.16 0.03,-0.25 0.02,-0.09 0.05,-0.17 0.08,-0.24l0 0zm0.2 0.68c0.03,0 0.06,-0.01 0.08,-0.03 0.02,-0.03 0.04,-0.06 0.06,-0.09 0.01,-0.04 0.02,-0.08 0.04,-0.11 0.01,-0.04 0.01,-0.07 0.02,-0.09 0,-0.03 0,-0.07 0.01,-0.1 0,-0.04 0.01,-0.07 0.02,-0.11 0,-0.09 0,-0.16 -0.02,-0.21 -0.01,-0.04 -0.02,-0.07 -0.05,-0.07 -0.02,0 -0.06,0.02 -0.09,0.06 -0.02,0.03 -0.05,0.09 -0.08,0.16 -0.02,0.06 -0.04,0.13 -0.06,0.2 -0.01,0.08 -0.02,0.14 -0.02,0.2 0,0.01 0.01,0.03 0.01,0.05 0,0.02 0,0.04 0.01,0.07 0,0.02 0.02,0.04 0.03,0.05 0.01,0.01 0.02,0.02 0.04,0.02l0 0z"/>
    <path id="_2" class="fil8" d="M33.77 20.66c0.03,0 0.05,0.01 0.06,0.04 0,0.03 0,0.05 0,0.09 -0.01,0.04 -0.02,0.08 -0.04,0.13 0.01,0 0.03,0 0.05,-0.01 0.03,-0.01 0.05,-0.02 0.07,-0.02 0.03,-0.01 0.05,-0.02 0.07,-0.03 0.03,0 0.05,-0.01 0.07,-0.01l0.01 0c0.01,0 0.02,0.01 0.03,0.01 0.02,0.02 0.03,0.03 0.04,0.04 0.01,0.02 0.02,0.03 0.03,0.05 0.01,0.02 0.01,0.04 0.01,0.07 0,0.01 0,0.04 -0.01,0.07 -0.01,0.04 -0.02,0.08 -0.03,0.13 -0.01,0.05 -0.02,0.11 -0.04,0.17 -0.01,0.05 -0.02,0.1 -0.03,0.15 0,0.05 -0.01,0.09 0,0.11 0,0.04 0,0.05 0.02,0.05 0.01,0 0.03,-0.01 0.05,-0.03 0.02,-0.02 0.04,-0.05 0.07,-0.08 0.03,-0.04 0.06,-0.08 0.09,-0.13 0.03,-0.05 0.06,-0.11 0.1,-0.17 0,-0.02 0.01,-0.03 0.02,-0.03 0.01,0 0.01,0.01 0.01,0.01 0.01,0.01 0.01,0.01 0,0.02 0,0.01 0,0.02 -0.01,0.06 -0.01,0.03 -0.02,0.06 -0.05,0.11 -0.01,0.05 -0.04,0.09 -0.06,0.15 -0.03,0.05 -0.05,0.09 -0.08,0.14 -0.04,0.04 -0.07,0.08 -0.1,0.11 -0.04,0.03 -0.08,0.04 -0.12,0.04 -0.04,0 -0.07,-0.01 -0.1,-0.04 -0.01,-0.03 -0.03,-0.07 -0.03,-0.12 -0.01,-0.05 -0.01,-0.11 0,-0.17 0,-0.07 0.01,-0.13 0.02,-0.2 0.01,-0.06 0.03,-0.12 0.04,-0.19 0.02,-0.06 0.03,-0.12 0.05,-0.17 -0.01,-0.02 -0.02,-0.03 -0.05,-0.03 -0.01,0 -0.04,0.01 -0.07,0.01 -0.03,0.01 -0.06,0.01 -0.1,0.02 0,0.03 -0.02,0.07 -0.04,0.13 -0.02,0.07 -0.05,0.14 -0.09,0.23 0,0 -0.01,0 -0.01,0.01 0,0 0,0 -0.01,0 -0.01,0.01 -0.02,0 -0.03,-0.01 -0.01,-0.01 -0.01,-0.02 -0.01,-0.04 0.01,-0.02 0.02,-0.03 0.03,-0.06 0.01,-0.02 0.01,-0.05 0.02,-0.08 0.02,-0.03 0.02,-0.06 0.03,-0.09 0.01,-0.03 0.01,-0.06 0.02,-0.08l-0.01 0c-0.02,0 -0.05,-0.01 -0.06,-0.03 -0.01,-0.01 -0.02,-0.04 -0.03,-0.06 0,-0.03 0,-0.06 0.01,-0.09 0.01,-0.03 0.02,-0.06 0.03,-0.09 0.02,-0.02 0.04,-0.05 0.06,-0.06 0.03,-0.02 0.07,-0.03 0.1,-0.03l0 0z"/>
    <path id="_3" class="fil8" d="M34.07 20.53c0,-0.03 0.01,-0.05 0.03,-0.05 0.01,0 0.01,0 0.02,0 0,0 0,0 0,0.01 0.02,0.02 0.05,0.02 0.08,0.03 0.03,0 0.05,0 0.07,0 0.04,0 0.08,0 0.12,0 0.04,-0.01 0.09,-0.01 0.13,-0.02 0.01,-0.04 0.02,-0.08 0.02,-0.11 0.01,-0.03 0.02,-0.05 0.02,-0.06 0.01,-0.02 0.03,-0.04 0.05,-0.03 0.02,0.01 0.03,0.01 0.06,0.02 0.01,0 0.03,0.01 0.05,0.01 0.02,0.01 0.03,0.03 0.04,0.04 0.01,0 0.02,0.02 0.02,0.03 0,0.01 0,0.01 0,0.02 0,0.01 -0.01,0.03 -0.01,0.05 0.1,-0.02 0.2,-0.04 0.32,-0.05 0.1,-0.01 0.21,-0.02 0.31,-0.02 0.03,0 0.05,0 0.08,0.01 0.04,0 0.06,0 0.09,0.01 0.03,0.01 0.05,0.03 0.08,0.04 0.02,0.02 0.04,0.04 0.05,0.07 0.02,0.02 0.02,0.04 0.02,0.07 0,0.01 0,0.04 0,0.05 -0.01,0.02 -0.01,0.04 -0.03,0.06 -0.01,0.02 -0.02,0.02 -0.03,0.02 0,0 0,0 0,0 0,0 0,0 0,-0.01 0,-0.01 0,-0.01 0,-0.01 -0.04,-0.03 -0.08,-0.06 -0.16,-0.07 -0.06,-0.01 -0.14,-0.02 -0.23,-0.02 -0.07,0 -0.14,0 -0.21,0.01 -0.08,0.01 -0.15,0.01 -0.23,0.02 -0.01,0 -0.03,0 -0.05,0 -0.01,0 -0.03,0 -0.05,0.01 0,0 0,0.01 0,0.01 0,0 0,0.01 0,0.02 -0.02,0.06 -0.03,0.12 -0.04,0.19 -0.02,0.07 -0.03,0.14 -0.05,0.21 -0.01,0.08 -0.02,0.15 -0.04,0.22 -0.01,0.06 -0.02,0.13 -0.02,0.18 -0.02,0.06 -0.02,0.1 -0.02,0.14 0,0.04 0,0.06 0,0.07 0.01,0 0.01,0 0.02,0 0.01,0 0.02,-0.01 0.05,-0.02 0.01,-0.02 0.03,-0.04 0.05,-0.07 0.02,-0.03 0.04,-0.06 0.06,-0.09 0.02,-0.03 0.04,-0.06 0.05,-0.09 0.02,-0.03 0.03,-0.06 0.04,-0.08 0.01,-0.03 0.03,-0.05 0.03,-0.06 0.01,-0.01 0.01,-0.02 0.02,-0.02 0.01,0 0.03,0 0.04,0 0,0.01 0.01,0.01 0,0.02l0 0.01c-0.01,0.03 -0.03,0.09 -0.06,0.15 -0.03,0.07 -0.06,0.14 -0.09,0.2 -0.04,0.07 -0.08,0.13 -0.13,0.18 -0.05,0.05 -0.09,0.08 -0.14,0.08 -0.03,0 -0.06,-0.02 -0.08,-0.05 -0.02,-0.03 -0.03,-0.07 -0.05,-0.13 0,-0.06 -0.01,-0.13 -0.01,-0.2 0.01,-0.07 0.01,-0.15 0.02,-0.23 0.01,-0.08 0.02,-0.16 0.03,-0.23 0.01,-0.07 0.02,-0.14 0.04,-0.21 0.01,-0.07 0.02,-0.13 0.04,-0.19 -0.08,0 -0.15,0 -0.22,0 -0.06,-0.01 -0.11,-0.02 -0.15,-0.04 -0.02,-0.01 -0.04,-0.02 -0.04,-0.04 -0.01,-0.02 -0.01,-0.04 -0.01,-0.06l0 0z"/>
    <path id="_4" class="fil8" d="M34.95 21.02c0.03,-0.08 0.07,-0.14 0.12,-0.18 0.05,-0.05 0.1,-0.07 0.15,-0.07 0.06,0 0.1,0.02 0.13,0.07 0.03,0.02 0.05,0.07 0.07,0.13 0,-0.02 0.01,-0.03 0.01,-0.05 0.01,-0.02 0.01,-0.03 0.01,-0.04 0.01,-0.01 0.01,-0.02 0.02,-0.02 0.01,-0.01 0.02,-0.01 0.03,-0.01 0.01,0.01 0.03,0.01 0.05,0.02 0.02,0.01 0.04,0.01 0.06,0.02 0.02,0.01 0.03,0.02 0.04,0.03 0.02,0.01 0.02,0.02 0.02,0.03 0,0.02 0,0.04 -0.01,0.07 -0.01,0.03 -0.02,0.07 -0.03,0.11 0,0.05 -0.01,0.11 -0.03,0.17 -0.01,0.06 -0.02,0.12 -0.03,0.17 -0.01,0.06 -0.02,0.11 -0.02,0.14 0,0.05 0,0.07 0.01,0.08 0.01,0.01 0.01,0.01 0.02,0.01 0.01,0 0.03,-0.01 0.05,-0.02 0.01,-0.02 0.03,-0.04 0.05,-0.07 0.02,-0.03 0.04,-0.06 0.06,-0.09 0.02,-0.03 0.04,-0.06 0.05,-0.09 0.02,-0.03 0.03,-0.06 0.05,-0.08 0.01,-0.03 0.02,-0.05 0.02,-0.06 0.01,-0.01 0.01,-0.02 0.02,-0.02 0.02,0 0.03,0 0.03,0 0.01,0.01 0.02,0.01 0.01,0.02 0,0.01 0,0.01 0,0.01 -0.01,0.03 -0.03,0.09 -0.06,0.15 -0.03,0.07 -0.06,0.14 -0.09,0.2 -0.04,0.07 -0.09,0.13 -0.13,0.18 -0.05,0.05 -0.09,0.08 -0.14,0.08 -0.09,0 -0.15,-0.09 -0.16,-0.25 -0.05,0.16 -0.13,0.24 -0.23,0.24 -0.05,0 -0.1,-0.01 -0.13,-0.03 -0.04,-0.03 -0.06,-0.06 -0.08,-0.1 -0.02,-0.03 -0.03,-0.08 -0.04,-0.12 -0.01,-0.05 -0.01,-0.09 -0.01,-0.14 0,-0.08 0.01,-0.16 0.03,-0.25 0.02,-0.09 0.04,-0.17 0.08,-0.24l0 0zm0.2 0.68c0.03,0 0.05,-0.01 0.07,-0.03 0.03,-0.03 0.05,-0.06 0.06,-0.09 0.02,-0.04 0.03,-0.08 0.04,-0.11 0.01,-0.04 0.02,-0.07 0.02,-0.09 0.01,-0.03 0.01,-0.07 0.01,-0.1 0.01,-0.04 0.01,-0.07 0.03,-0.11 0,-0.09 -0.01,-0.16 -0.02,-0.21 -0.01,-0.04 -0.03,-0.07 -0.05,-0.07 -0.03,0 -0.06,0.02 -0.09,0.06 -0.03,0.03 -0.06,0.09 -0.08,0.16 -0.03,0.06 -0.04,0.13 -0.06,0.2 -0.01,0.08 -0.02,0.14 -0.02,0.2 0,0.01 0,0.03 0,0.05 0,0.02 0.01,0.04 0.01,0.07 0.01,0.02 0.02,0.04 0.03,0.05 0.01,0.01 0.03,0.02 0.05,0.02l0 0z"/>
    <path id="_5" class="fil8" d="M36.35 20.66c0.01,-0.04 0.02,-0.07 0.04,-0.1 0.03,-0.04 0.06,-0.07 0.09,-0.1 0.04,-0.04 0.08,-0.07 0.12,-0.1 0.04,-0.03 0.08,-0.05 0.12,-0.08 0.04,-0.02 0.08,-0.04 0.12,-0.05 0.04,-0.01 0.07,-0.01 0.1,-0.01l0.01 0c0.01,0 0.03,0 0.04,0.01 0.01,0.01 0.03,0.02 0.04,0.04 0.01,0.01 0.02,0.02 0.03,0.04 0.01,0.01 0.01,0.02 0.01,0.02 0,0.01 -0.01,0.04 -0.02,0.07 0,0.03 -0.01,0.08 -0.02,0.13 -0.01,0.06 -0.03,0.13 -0.04,0.2 -0.01,0.07 -0.02,0.14 -0.04,0.22 -0.01,0.08 -0.03,0.16 -0.04,0.23 -0.02,0.08 -0.03,0.16 -0.05,0.23 0.03,-0.05 0.06,-0.11 0.09,-0.19 0.04,-0.08 0.07,-0.15 0.12,-0.23 0.04,-0.09 0.08,-0.16 0.13,-0.24 0.05,-0.08 0.1,-0.15 0.15,-0.22 0.06,-0.06 0.11,-0.11 0.16,-0.15 0.06,-0.04 0.12,-0.06 0.17,-0.06 0.02,0 0.05,0.01 0.08,0.02 0.02,0.01 0.04,0.03 0.06,0.05 0.01,0.03 0.02,0.06 0.03,0.08 0,0.03 0.01,0.05 0.01,0.07 -0.01,0.02 -0.01,0.02 -0.02,0.01 -0.04,-0.03 -0.07,-0.04 -0.11,-0.04 -0.03,0 -0.07,0.01 -0.11,0.04 -0.04,0.02 -0.08,0.06 -0.12,0.1 -0.04,0.04 -0.08,0.09 -0.12,0.14 -0.03,0.05 -0.07,0.1 -0.11,0.16 -0.03,0.05 -0.06,0.11 -0.09,0.15 -0.02,0.05 -0.05,0.1 -0.06,0.13 0,0.05 0.02,0.1 0.04,0.18 0.01,0.07 0.04,0.14 0.07,0.22 0.03,0.07 0.07,0.14 0.11,0.2 0.04,0.06 0.09,0.1 0.15,0.13 0.01,0.01 0.02,0.01 0.03,0.02 0.01,0 0.02,0 0.03,0 0.01,0 0.03,0 0.05,-0.01 0,0 0.01,0 0.01,0 0.01,0 0.01,0.01 0.01,0.02 -0.01,0.01 -0.02,0.03 -0.03,0.05 -0.01,0.02 -0.02,0.04 -0.04,0.06 -0.01,0.01 -0.03,0.03 -0.05,0.05 -0.01,0.01 -0.04,0.01 -0.06,0.01 -0.02,0 -0.04,0 -0.06,-0.01 -0.02,0 -0.04,-0.02 -0.06,-0.04 -0.05,-0.04 -0.09,-0.09 -0.13,-0.15 -0.03,-0.06 -0.06,-0.12 -0.08,-0.19 -0.03,-0.06 -0.05,-0.13 -0.07,-0.19 -0.01,-0.06 -0.02,-0.11 -0.03,-0.16 -0.02,0.04 -0.04,0.08 -0.06,0.13 -0.02,0.04 -0.04,0.08 -0.06,0.11 -0.01,0.03 -0.03,0.06 -0.04,0.09 -0.01,0.03 -0.02,0.05 -0.04,0.06l0 0.02c0,0.02 0,0.03 0,0.04 -0.01,0 -0.02,0 -0.03,0 -0.01,0 -0.02,0 -0.04,0 -0.02,0 -0.04,-0.01 -0.05,-0.01 -0.03,-0.02 -0.04,-0.02 -0.06,-0.03 -0.01,-0.01 -0.01,-0.03 -0.01,-0.05 0.01,-0.01 0.02,-0.05 0.03,-0.11 0.01,-0.07 0.02,-0.14 0.04,-0.23 0.02,-0.09 0.03,-0.18 0.05,-0.28 0.01,-0.1 0.03,-0.21 0.05,-0.3 0.02,-0.1 0.04,-0.2 0.05,-0.28 0.01,-0.09 0.03,-0.16 0.04,-0.22 -0.05,0.01 -0.11,0.03 -0.16,0.07 -0.05,0.04 -0.1,0.08 -0.14,0.13 -0.04,0.05 -0.07,0.1 -0.1,0.16 -0.02,0.06 -0.02,0.1 -0.01,0.15 0.01,0.03 0.01,0.05 -0.01,0.05 -0.01,0 -0.02,0 -0.04,-0.02 -0.01,-0.01 -0.03,-0.04 -0.04,-0.06 -0.01,-0.02 -0.02,-0.05 -0.03,-0.08 -0.01,-0.03 -0.01,-0.07 0,-0.1l0 0z"/>
    <path id="_6" class="fil8" d="M37.58 21.02c0.04,-0.08 0.08,-0.14 0.13,-0.18 0.04,-0.05 0.09,-0.07 0.14,-0.07 0.06,0 0.11,0.02 0.14,0.07 0.03,0.02 0.05,0.07 0.07,0.13 0,-0.02 0,-0.03 0.01,-0.05 0,-0.02 0,-0.03 0.01,-0.04 0,-0.01 0.01,-0.02 0.02,-0.02 0.01,-0.01 0.01,-0.01 0.02,-0.01 0.02,0.01 0.04,0.01 0.06,0.02 0.02,0.01 0.03,0.01 0.05,0.02 0.02,0.01 0.03,0.02 0.04,0.03 0.02,0.01 0.03,0.02 0.03,0.03 0,0.02 -0.01,0.04 -0.01,0.07 -0.02,0.03 -0.02,0.07 -0.03,0.11 -0.01,0.05 -0.02,0.11 -0.04,0.17 -0.01,0.06 -0.02,0.12 -0.02,0.17 -0.02,0.06 -0.02,0.11 -0.03,0.14 0,0.05 0.01,0.07 0.01,0.08 0.01,0.01 0.02,0.01 0.02,0.01 0.01,0 0.03,-0.01 0.05,-0.02 0.02,-0.02 0.04,-0.04 0.06,-0.07 0.01,-0.03 0.04,-0.06 0.05,-0.09 0.03,-0.03 0.04,-0.06 0.06,-0.09 0.02,-0.03 0.03,-0.06 0.04,-0.08 0.02,-0.03 0.02,-0.05 0.03,-0.06 0,-0.01 0.01,-0.02 0.02,-0.02 0.01,0 0.02,0 0.03,0 0.01,0.01 0.01,0.01 0.01,0.02 0,0.01 0,0.01 0,0.01 -0.01,0.03 -0.03,0.09 -0.06,0.15 -0.03,0.07 -0.06,0.14 -0.1,0.2 -0.04,0.07 -0.08,0.13 -0.13,0.18 -0.04,0.05 -0.09,0.08 -0.14,0.08 -0.09,0 -0.14,-0.09 -0.15,-0.25 -0.06,0.16 -0.14,0.24 -0.24,0.24 -0.05,0 -0.09,-0.01 -0.13,-0.03 -0.03,-0.03 -0.06,-0.06 -0.08,-0.1 -0.02,-0.03 -0.03,-0.08 -0.03,-0.12 -0.01,-0.05 -0.02,-0.09 -0.02,-0.14 0,-0.08 0.02,-0.16 0.03,-0.25 0.02,-0.09 0.05,-0.17 0.08,-0.24l0 0zm0.2 0.68c0.04,0 0.06,-0.01 0.08,-0.03 0.02,-0.03 0.05,-0.06 0.06,-0.09 0.01,-0.04 0.02,-0.08 0.04,-0.11 0.01,-0.04 0.01,-0.07 0.02,-0.09 0,-0.03 0,-0.07 0.01,-0.1 0,-0.04 0.01,-0.07 0.02,-0.11 0,-0.09 0,-0.16 -0.02,-0.21 -0.01,-0.04 -0.02,-0.07 -0.05,-0.07 -0.02,0 -0.06,0.02 -0.09,0.06 -0.02,0.03 -0.05,0.09 -0.08,0.16 -0.02,0.06 -0.04,0.13 -0.06,0.2 -0.01,0.08 -0.01,0.14 -0.01,0.2 0,0.01 0,0.03 0,0.05 0,0.02 0,0.04 0.01,0.07 0,0.02 0.02,0.04 0.03,0.05 0.01,0.01 0.03,0.02 0.04,0.02l0 0z"/>
    <path id="_7" class="fil8" d="M38.51 21.11c0.02,-0.08 0.03,-0.17 0.04,-0.25 0.02,-0.07 0.03,-0.14 0.05,-0.2 0.01,-0.06 0.03,-0.12 0.04,-0.16 0.01,-0.05 0.01,-0.08 0.02,-0.09 0.01,-0.02 0.01,-0.02 0.02,-0.03 0.01,0 0.01,-0.01 0.03,0 0.01,0 0.03,0.01 0.05,0.01 0.02,0.01 0.03,0.02 0.05,0.02 0.02,0.01 0.04,0.02 0.05,0.03 0.01,0.01 0.02,0.03 0.02,0.04 0,0.01 -0.01,0.04 -0.02,0.09 -0.01,0.04 -0.02,0.1 -0.04,0.18 -0.01,0.06 -0.02,0.11 -0.04,0.18 -0.01,0.07 -0.02,0.14 -0.04,0.2 -0.01,0.07 -0.02,0.14 -0.03,0.2 -0.02,0.06 -0.02,0.12 -0.03,0.17 -0.01,0.05 -0.01,0.1 -0.01,0.13 0,0.04 0,0.06 0.01,0.06 0,0.01 0,0.01 0,0.01 0.01,0 0.03,-0.01 0.05,-0.03 0.03,-0.02 0.05,-0.04 0.08,-0.08 0.02,-0.04 0.05,-0.09 0.08,-0.14 0.03,-0.05 0.06,-0.1 0.08,-0.16 0,-0.01 0.02,-0.02 0.03,-0.02 0.01,0 0.02,0 0.02,0 0.02,0.01 0.02,0.01 0.02,0.02 0,0.01 0,0.01 -0.01,0.01 -0.01,0.02 -0.02,0.05 -0.03,0.09 -0.02,0.04 -0.04,0.08 -0.06,0.13 -0.02,0.04 -0.04,0.09 -0.07,0.13 -0.02,0.05 -0.05,0.09 -0.08,0.13 -0.03,0.04 -0.06,0.06 -0.09,0.09 -0.03,0.02 -0.06,0.04 -0.09,0.04 -0.03,0 -0.06,-0.02 -0.08,-0.05 -0.03,-0.03 -0.04,-0.07 -0.05,-0.13 0,-0.05 -0.01,-0.12 -0.01,-0.19 0,-0.07 0.01,-0.14 0.02,-0.22 0,-0.07 0.01,-0.14 0.02,-0.21l0 0z"/>
    <path id="_8" class="fil8" d="M38.96 21.35c0.01,-0.04 0.01,-0.09 0.02,-0.14 0.01,-0.05 0.02,-0.09 0.03,-0.13 0.01,-0.05 0.02,-0.09 0.03,-0.12 0.01,-0.03 0.01,-0.06 0.02,-0.08 0,-0.01 0.01,-0.02 0.01,-0.02 0.02,-0.01 0.02,-0.01 0.03,-0.01 0.02,0.01 0.04,0.01 0.06,0.02 0.02,0.01 0.04,0.01 0.05,0.02 0.02,0.01 0.03,0.02 0.05,0.03 0.01,0.01 0.02,0.02 0.02,0.03 0,0.02 -0.01,0.04 -0.02,0.07 0,0.03 -0.01,0.07 -0.02,0.11 -0.01,0.05 -0.02,0.11 -0.03,0.17 -0.02,0.06 -0.03,0.12 -0.03,0.17 -0.02,0.06 -0.02,0.11 -0.02,0.14 -0.01,0.05 0,0.07 0.01,0.08 0.01,0.01 0.01,0.01 0.01,0.01 0.01,0 0.03,-0.01 0.05,-0.03 0.02,-0.02 0.05,-0.05 0.08,-0.08 0.02,-0.04 0.06,-0.09 0.08,-0.14 0.04,-0.05 0.06,-0.1 0.09,-0.16 0.01,-0.02 0.02,-0.03 0.03,-0.03 0.01,0 0.01,0 0.01,0 0.01,0.01 0.02,0.02 0.01,0.03l0 0.01c-0.02,0.05 -0.04,0.1 -0.06,0.17 -0.03,0.07 -0.06,0.14 -0.1,0.2 -0.04,0.06 -0.08,0.12 -0.12,0.16 -0.05,0.05 -0.1,0.08 -0.15,0.08 -0.03,0 -0.05,-0.02 -0.08,-0.03 -0.01,-0.02 -0.03,-0.04 -0.04,-0.07 -0.01,-0.03 -0.02,-0.06 -0.02,-0.08 -0.01,-0.04 -0.01,-0.06 -0.01,-0.09 -0.01,-0.08 0,-0.18 0.01,-0.29l0 0zm0.2 -0.86c0.02,-0.03 0.03,-0.06 0.05,-0.06 0.02,0 0.04,0 0.07,0 0.03,0.01 0.05,0.03 0.07,0.05 0.03,0.03 0.04,0.05 0.04,0.08 0,0.01 0,0.01 0,0.01 -0.01,0 -0.01,0 -0.02,0.01 0,0.01 -0.01,0.02 -0.02,0.03 -0.01,0.01 -0.01,0.04 -0.02,0.06 0,0 0,0.01 0,0.02 0,0.01 -0.01,0.02 -0.01,0.04 -0.02,0.01 -0.02,0.02 -0.04,0.03 -0.01,0.01 -0.03,0.01 -0.05,0 -0.01,0 -0.03,-0.01 -0.04,-0.01 -0.02,-0.01 -0.03,-0.03 -0.04,-0.05 -0.01,-0.02 -0.02,-0.05 -0.01,-0.08 0,-0.03 0,-0.07 0.02,-0.13l0 0z"/>
    <path id="_9" class="fil8" d="M39.3 22.47c0,-0.02 0,-0.06 0.01,-0.09 0,-0.05 0.01,-0.09 0.02,-0.14 0,-0.05 0.01,-0.1 0.02,-0.16 0.01,-0.06 0.02,-0.11 0.03,-0.17 0,-0.05 0.01,-0.11 0.02,-0.15 0.01,-0.05 0.02,-0.09 0.02,-0.12 0.02,-0.09 0.03,-0.17 0.05,-0.25 0.02,-0.09 0.03,-0.16 0.05,-0.23 0.01,-0.07 0.02,-0.13 0.03,-0.18 0.01,-0.05 0.02,-0.08 0.02,-0.09 0.01,-0.01 0.01,-0.02 0.02,-0.03 0.01,0 0.02,0 0.03,0 0.01,0 0.04,0.01 0.05,0.02 0.03,0 0.04,0.01 0.06,0.02 0.02,0 0.03,0.02 0.04,0.03 0.02,0 0.02,0.02 0.02,0.03 0,0.01 0,0.01 0,0.02 0,0 0,0.01 0,0.02 0.07,-0.15 0.15,-0.23 0.25,-0.23 0.05,0 0.1,0.02 0.13,0.04 0.03,0.02 0.06,0.05 0.08,0.09 0.02,0.04 0.03,0.08 0.03,0.13 0.01,0.04 0.01,0.09 0.01,0.13 0,0.08 -0.01,0.16 -0.02,0.25 -0.02,0.09 -0.05,0.17 -0.08,0.24 -0.04,0.08 -0.08,0.14 -0.13,0.19 -0.05,0.04 -0.09,0.06 -0.14,0.06 -0.04,0 -0.07,-0.01 -0.1,-0.02 -0.03,-0.02 -0.05,-0.04 -0.07,-0.06 -0.02,-0.03 -0.04,-0.06 -0.05,-0.09 -0.02,-0.03 -0.03,-0.06 -0.04,-0.09 -0.01,0.09 -0.03,0.18 -0.05,0.28 -0.02,0.1 -0.03,0.19 -0.05,0.28 -0.02,0.08 -0.03,0.16 -0.04,0.23 0,0.07 -0.01,0.12 -0.01,0.15 0,0.03 0,0.04 0,0.04 -0.01,0.01 -0.02,0.01 -0.03,0.01 -0.05,0 -0.09,-0.01 -0.13,-0.04 -0.03,-0.03 -0.05,-0.07 -0.05,-0.12l0 0zm0.39 -0.98c0,0.01 0.01,0.04 0.01,0.07 0.01,0.03 0.02,0.07 0.03,0.1 0.02,0.03 0.03,0.06 0.04,0.08 0.02,0.03 0.04,0.04 0.05,0.04 0.03,0 0.07,-0.01 0.09,-0.05 0.03,-0.04 0.06,-0.09 0.09,-0.17 0.02,-0.06 0.04,-0.12 0.05,-0.2 0.01,-0.07 0.02,-0.14 0.02,-0.2 0,-0.01 0,-0.03 0,-0.05 0,-0.02 -0.01,-0.04 -0.01,-0.07 -0.01,-0.01 -0.02,-0.03 -0.03,-0.05 -0.01,-0.01 -0.03,-0.02 -0.04,-0.02 -0.04,0 -0.06,0.02 -0.09,0.05 -0.03,0.02 -0.06,0.06 -0.08,0.11 -0.03,0.04 -0.05,0.08 -0.06,0.13 -0.03,0.04 -0.04,0.07 -0.05,0.11 0,0.02 0,0.04 -0.01,0.06 0,0.02 0,0.04 -0.01,0.06l0 0z"/>
    <path id="_10" class="fil8" d="M40.37 21.35c0,-0.04 0.01,-0.09 0.02,-0.14 0,-0.05 0.02,-0.09 0.02,-0.13 0.01,-0.05 0.02,-0.09 0.03,-0.12 0.01,-0.03 0.02,-0.06 0.02,-0.08 0.01,-0.02 0.02,-0.03 0.05,-0.03 0.02,0.01 0.04,0.01 0.05,0.02 0.03,0.01 0.04,0.01 0.06,0.02 0.02,0.01 0.03,0.02 0.04,0.03 0.01,0.01 0.02,0.02 0.02,0.03 0,0.02 -0.01,0.04 -0.01,0.07 -0.01,0.03 -0.02,0.07 -0.02,0.11 -0.01,0.05 -0.03,0.11 -0.04,0.17 -0.01,0.06 -0.02,0.11 -0.02,0.17 -0.02,0.06 -0.02,0.1 -0.02,0.14 0,0.04 0,0.07 0,0.08 0.01,0.01 0.01,0.01 0.02,0.01 0.01,0 0.02,-0.01 0.05,-0.04 0.02,-0.03 0.05,-0.07 0.07,-0.11 0.03,-0.04 0.05,-0.09 0.08,-0.13 0.02,-0.05 0.04,-0.09 0.05,-0.12 0.01,-0.09 0.03,-0.18 0.04,-0.26 0.02,-0.07 0.03,-0.13 0.05,-0.16 0,-0.02 0.02,-0.03 0.04,-0.03 0.02,0.01 0.03,0.01 0.06,0.02 0.01,0.01 0.03,0.01 0.05,0.02 0.01,0.01 0.03,0.02 0.04,0.03 0.01,0.01 0.02,0.02 0.02,0.03 0,0.02 0,0.04 -0.01,0.07 0,0.03 -0.01,0.07 -0.02,0.11 -0.02,0.05 -0.03,0.11 -0.04,0.17 -0.01,0.06 -0.03,0.12 -0.03,0.17 -0.01,0.06 -0.02,0.11 -0.02,0.14 0,0.05 0,0.07 0.01,0.08 0.01,0.01 0.01,0.01 0.01,0.01 0.02,0 0.04,-0.01 0.05,-0.03 0.03,-0.02 0.05,-0.05 0.08,-0.08 0.03,-0.04 0.06,-0.09 0.09,-0.14 0.02,-0.05 0.06,-0.1 0.09,-0.16 0.01,-0.02 0.02,-0.03 0.02,-0.03 0.01,0 0.02,0 0.02,0 0.01,0.01 0.01,0.02 0.01,0.03l0 0.01c0,0 0,0 0,0 -0.03,0.05 -0.05,0.1 -0.08,0.17 -0.02,0.07 -0.06,0.13 -0.09,0.2 -0.03,0.06 -0.07,0.12 -0.12,0.16 -0.04,0.05 -0.09,0.08 -0.14,0.08 -0.04,0 -0.07,-0.02 -0.09,-0.04 -0.03,-0.03 -0.04,-0.07 -0.05,-0.13 -0.02,-0.05 -0.02,-0.12 -0.02,-0.2 -0.01,0.02 -0.02,0.06 -0.04,0.1 -0.02,0.04 -0.04,0.09 -0.07,0.13 -0.03,0.03 -0.05,0.06 -0.09,0.09 -0.03,0.03 -0.06,0.05 -0.1,0.05 -0.03,0 -0.06,-0.02 -0.08,-0.03 -0.02,-0.02 -0.03,-0.04 -0.05,-0.07 -0.01,-0.03 -0.01,-0.06 -0.02,-0.08 0,-0.04 0,-0.06 -0.01,-0.09 0,-0.04 0,-0.08 0,-0.13 0.01,-0.05 0.01,-0.1 0.02,-0.16l0 0z"/>
    <path id="_11" class="fil8" d="M41.33 21.52c0,-0.08 0.01,-0.17 0.03,-0.25 0.01,-0.09 0.04,-0.17 0.08,-0.24 0.03,-0.09 0.07,-0.15 0.12,-0.19 0.05,-0.04 0.09,-0.06 0.14,-0.06 0.08,0 0.13,0.02 0.17,0.07 0.02,0.03 0.03,0.06 0.04,0.09 0,0.04 0.01,0.07 0.01,0.1 -0.01,0.03 -0.01,0.06 -0.01,0.08 -0.01,0.02 -0.01,0.04 -0.01,0.04 0,0 -0.01,0 -0.01,0 -0.01,0 -0.02,0.01 -0.02,0.01 -0.01,0 -0.02,0 -0.03,0 -0.01,0 -0.01,0 -0.02,0 0,0 0,-0.01 0,-0.01 0,-0.01 0,-0.02 0,-0.03 0,-0.01 0,-0.02 0.01,-0.04 0,-0.03 0.01,-0.06 0.01,-0.1 0.01,-0.04 0,-0.06 -0.01,-0.08 -0.01,-0.01 -0.01,-0.02 -0.03,-0.02 -0.03,0 -0.06,0.03 -0.09,0.06 -0.03,0.04 -0.06,0.09 -0.08,0.16 -0.03,0.07 -0.04,0.14 -0.06,0.21 -0.01,0.07 -0.02,0.13 -0.02,0.19 0,0.02 0,0.03 0,0.05 0,0.03 0.01,0.05 0.01,0.07 0.01,0.02 0.02,0.04 0.03,0.05 0.01,0.02 0.02,0.03 0.05,0.03 0.03,0 0.05,-0.01 0.08,-0.03 0.03,-0.03 0.07,-0.08 0.11,-0.14 0.04,-0.07 0.09,-0.15 0.13,-0.25 0.01,-0.01 0.01,-0.02 0.02,-0.02 0.02,0 0.03,0 0.03,0 0.01,0.01 0.02,0.01 0.01,0.02 0,0.01 0,0.01 0,0.01 -0.01,0.03 -0.03,0.09 -0.06,0.15 -0.03,0.07 -0.06,0.14 -0.1,0.2 -0.03,0.07 -0.08,0.13 -0.12,0.18 -0.05,0.05 -0.1,0.08 -0.14,0.08l-0.01 0c-0.06,0 -0.1,-0.02 -0.12,-0.04 -0.03,-0.01 -0.05,-0.03 -0.07,-0.06 -0.02,-0.03 -0.03,-0.06 -0.04,-0.09 -0.01,-0.03 -0.02,-0.07 -0.02,-0.1 -0.01,-0.03 -0.01,-0.07 -0.01,-0.1l0 0z"/>
    <path id="_12" class="fil8" d="M42.04 21.02c0.04,-0.08 0.08,-0.14 0.13,-0.18 0.04,-0.05 0.09,-0.07 0.14,-0.07 0.06,0 0.1,0.02 0.14,0.07 0.03,0.02 0.05,0.07 0.07,0.13 0,-0.02 0,-0.03 0.01,-0.05 0,-0.02 0.01,-0.03 0.01,-0.04 0,-0.01 0.01,-0.02 0.01,-0.02 0.02,-0.01 0.02,-0.01 0.03,-0.01 0.02,0.01 0.04,0.01 0.06,0.02 0.02,0.01 0.04,0.01 0.05,0.02 0.02,0.01 0.03,0.02 0.05,0.03 0.01,0.01 0.02,0.02 0.02,0.03 0,0.02 -0.01,0.04 -0.01,0.07 -0.01,0.03 -0.02,0.07 -0.03,0.11 -0.01,0.05 -0.02,0.11 -0.03,0.17 -0.02,0.06 -0.03,0.12 -0.03,0.17 -0.02,0.06 -0.02,0.11 -0.02,0.14 -0.01,0.05 0,0.07 0.01,0.08 0.01,0.01 0.01,0.01 0.01,0.01 0.02,0 0.03,-0.01 0.05,-0.02 0.02,-0.02 0.04,-0.04 0.06,-0.07 0.01,-0.03 0.04,-0.06 0.06,-0.09 0.02,-0.03 0.03,-0.06 0.05,-0.09 0.02,-0.03 0.03,-0.06 0.04,-0.08 0.02,-0.03 0.02,-0.05 0.03,-0.06 0,-0.01 0.01,-0.02 0.02,-0.02 0.02,0 0.02,0 0.03,0 0.01,0.01 0.01,0.01 0.01,0.02 0,0.01 0,0.01 0,0.01 -0.01,0.03 -0.04,0.09 -0.06,0.15 -0.03,0.07 -0.06,0.14 -0.1,0.2 -0.04,0.07 -0.08,0.13 -0.12,0.18 -0.05,0.05 -0.1,0.08 -0.15,0.08 -0.09,0 -0.14,-0.09 -0.15,-0.25 -0.06,0.16 -0.14,0.24 -0.23,0.24 -0.06,0 -0.1,-0.01 -0.14,-0.03 -0.03,-0.03 -0.06,-0.06 -0.08,-0.1 -0.01,-0.03 -0.03,-0.08 -0.04,-0.12 0,-0.05 -0.01,-0.09 -0.01,-0.14 0,-0.08 0.01,-0.16 0.03,-0.25 0.02,-0.09 0.05,-0.17 0.08,-0.24l0 0zm0.21 0.68c0.03,0 0.05,-0.01 0.08,-0.03 0.02,-0.03 0.03,-0.06 0.05,-0.09 0.01,-0.04 0.03,-0.08 0.03,-0.11 0.02,-0.04 0.02,-0.07 0.03,-0.09 0,-0.03 0.01,-0.07 0.01,-0.1 0.01,-0.04 0.02,-0.07 0.02,-0.11 0,-0.09 0,-0.16 -0.02,-0.21 -0.01,-0.04 -0.02,-0.07 -0.04,-0.07 -0.03,0 -0.06,0.02 -0.1,0.06 -0.02,0.03 -0.05,0.09 -0.08,0.16 -0.02,0.06 -0.04,0.13 -0.05,0.2 -0.02,0.08 -0.02,0.14 -0.02,0.2 0,0.01 0,0.03 0,0.05 0,0.02 0,0.04 0.01,0.07 0,0.02 0.02,0.04 0.03,0.05 0.01,0.01 0.02,0.02 0.05,0.02l0 0z"/>
    <path id="_13" class="fil8" d="M42.94 21.35c0.01,-0.05 0.02,-0.11 0.03,-0.16 0,-0.05 0.02,-0.1 0.03,-0.14 0.01,-0.05 0.01,-0.08 0.02,-0.11 0.01,-0.04 0.02,-0.06 0.03,-0.08 0,-0.01 0.02,-0.02 0.04,-0.02 0.01,0 0.02,0.01 0.04,0.01 0.02,0.01 0.03,0.01 0.05,0.02 0.01,0.01 0.02,0.02 0.03,0.03 0.02,0.02 0.02,0.03 0.02,0.04 0,0.01 0,0.04 -0.01,0.08 -0.01,0.03 -0.02,0.07 -0.02,0.13 -0.01,0.05 -0.02,0.1 -0.03,0.16 -0.01,0.05 -0.02,0.1 -0.02,0.15 -0.01,0.04 -0.01,0.08 -0.01,0.11 0,0.03 -0.01,0.06 -0.01,0.08 0.01,-0.05 0.03,-0.11 0.05,-0.18 0.03,-0.07 0.06,-0.14 0.1,-0.21 0.03,-0.08 0.06,-0.15 0.1,-0.22 0.04,-0.06 0.08,-0.12 0.1,-0.16 0.07,-0.08 0.11,-0.12 0.15,-0.12l0 0c0,0 0.01,0 0.01,0 0,0 0,0 0,0 0.02,0 0.04,0 0.06,0.01 0.02,0.01 0.04,0.02 0.05,0.02 0.02,0.01 0.04,0.02 0.05,0.03 0.01,0.01 0.01,0.03 0.01,0.04 0,0.01 0,0.03 -0.01,0.07 0,0.03 -0.01,0.07 -0.03,0.12 -0.01,0.06 -0.02,0.13 -0.03,0.2 -0.02,0.07 -0.03,0.14 -0.04,0.2 -0.01,0.06 -0.01,0.11 -0.01,0.16 -0.01,0.04 0,0.07 0.01,0.08 0,0.01 0,0.01 0,0.01 0.02,0 0.04,-0.01 0.06,-0.03 0.02,-0.02 0.04,-0.05 0.07,-0.08 0.03,-0.04 0.06,-0.09 0.09,-0.14 0.03,-0.05 0.06,-0.1 0.09,-0.16 0.01,-0.02 0.02,-0.03 0.02,-0.03 0.01,0 0.01,0 0.02,0 0.01,0.01 0.01,0.02 0,0.03l0 0.01c0,0 0,0 0,0 -0.01,0.05 -0.03,0.1 -0.06,0.17 -0.03,0.07 -0.06,0.14 -0.09,0.2 -0.04,0.06 -0.08,0.12 -0.13,0.16 -0.04,0.05 -0.09,0.08 -0.14,0.08 -0.04,0 -0.07,-0.02 -0.09,-0.05 -0.02,-0.03 -0.04,-0.07 -0.05,-0.12 -0.01,-0.04 -0.01,-0.09 -0.01,-0.15 0,-0.05 0,-0.12 0,-0.18 0.01,-0.06 0.01,-0.12 0.03,-0.18 0,-0.05 0.01,-0.11 0.02,-0.15 0.01,-0.05 0.02,-0.09 0.03,-0.12 -0.03,0.02 -0.04,0.06 -0.07,0.1 -0.02,0.03 -0.05,0.07 -0.07,0.12 -0.02,0.04 -0.04,0.09 -0.07,0.14 -0.02,0.05 -0.03,0.1 -0.06,0.15 -0.01,0.06 -0.03,0.11 -0.04,0.15 -0.01,0.04 -0.02,0.08 -0.03,0.11 -0.02,0.06 -0.03,0.1 -0.04,0.13 -0.02,0.03 -0.03,0.04 -0.05,0.04 -0.06,0 -0.11,-0.02 -0.14,-0.07 -0.07,-0.08 -0.08,-0.24 -0.05,-0.48l0 0z"/>
    <path id="_14" class="fil8" d="M44.1 21.02c0.04,-0.08 0.08,-0.14 0.13,-0.18 0.04,-0.05 0.09,-0.07 0.14,-0.07 0.06,0 0.1,0.02 0.14,0.07 0.03,0.02 0.05,0.07 0.06,0.13 0,-0.02 0.01,-0.03 0.02,-0.05 0,-0.02 0.01,-0.03 0.01,-0.04 0,-0.01 0.01,-0.02 0.01,-0.02 0.02,-0.01 0.02,-0.01 0.03,-0.01 0.01,0.01 0.03,0.01 0.05,0.01 0.01,0.01 0.03,0.02 0.05,0.02 0.01,0.01 0.02,0.01 0.04,0.02 0.01,0.01 0.02,0.02 0.03,0.03 0.01,0.01 0.01,0.02 0.01,0.02 -0.03,0.11 -0.05,0.21 -0.07,0.31 -0.01,0.11 -0.03,0.21 -0.04,0.33l-0.02 0.15c0.04,-0.04 0.09,-0.1 0.15,-0.18 0.05,-0.08 0.1,-0.17 0.15,-0.27 0.02,-0.02 0.03,-0.03 0.05,-0.03 0.01,0.01 0.02,0.02 0.01,0.03 -0.01,0.03 -0.02,0.07 -0.04,0.13 -0.03,0.05 -0.05,0.12 -0.09,0.18 -0.04,0.07 -0.08,0.13 -0.12,0.19 -0.05,0.07 -0.09,0.11 -0.15,0.14 -0.01,0.13 -0.04,0.23 -0.06,0.31 -0.02,0.07 -0.04,0.14 -0.07,0.2 -0.06,0.14 -0.15,0.2 -0.26,0.2l0 0c-0.05,0 -0.1,-0.01 -0.13,-0.04 -0.03,-0.03 -0.05,-0.08 -0.06,-0.15 0,-0.05 0,-0.1 0.01,-0.16 0.01,-0.07 0.04,-0.13 0.06,-0.18 0.04,-0.06 0.08,-0.12 0.14,-0.16 0.05,-0.04 0.1,-0.07 0.17,-0.09 0,-0.02 0,-0.04 0,-0.07 0,-0.02 0.01,-0.05 0.01,-0.07 -0.05,0.12 -0.13,0.18 -0.2,0.18 -0.06,0 -0.1,-0.01 -0.14,-0.03 -0.03,-0.03 -0.06,-0.06 -0.08,-0.09 -0.02,-0.04 -0.03,-0.09 -0.04,-0.13 0,-0.05 -0.01,-0.09 -0.01,-0.14 0,-0.08 0.01,-0.16 0.03,-0.25 0.02,-0.09 0.05,-0.17 0.08,-0.24l0 0zm0.2 0.68c0.03,0 0.06,-0.01 0.08,-0.03 0.02,-0.03 0.04,-0.06 0.05,-0.09 0.02,-0.04 0.03,-0.08 0.04,-0.11 0.02,-0.04 0.02,-0.07 0.03,-0.09 0,-0.01 0,-0.01 0,-0.01 0,-0.04 0.01,-0.06 0.01,-0.1 0.01,-0.04 0.01,-0.07 0.02,-0.1 0,-0.09 -0.01,-0.16 -0.02,-0.21 -0.01,-0.04 -0.02,-0.07 -0.05,-0.07 -0.03,0 -0.06,0.02 -0.09,0.06 -0.02,0.03 -0.05,0.09 -0.08,0.16 -0.02,0.06 -0.04,0.13 -0.06,0.2 -0.01,0.08 -0.01,0.14 -0.01,0.2 0,0.01 0,0.03 0,0.05 0,0.02 0,0.04 0.01,0.07 0,0.02 0.01,0.04 0.03,0.05 0.01,0.01 0.02,0.02 0.04,0.02l0 0zm-0.07 0.72l0 0.02 0 0c0.03,0 0.05,-0.02 0.08,-0.05 0.02,-0.04 0.04,-0.08 0.05,-0.13 0.02,-0.04 0.03,-0.09 0.04,-0.13 0.01,-0.05 0.01,-0.08 0.02,-0.1 -0.06,0.03 -0.11,0.08 -0.14,0.15 -0.04,0.07 -0.05,0.15 -0.05,0.24l0 0z"/>
    <path id="_15" class="fil8" d="M45.47 20.69c0.01,-0.04 0.03,-0.08 0.06,-0.12 0.02,-0.04 0.06,-0.07 0.1,-0.11 0.04,-0.03 0.08,-0.07 0.13,-0.1 0.04,-0.03 0.08,-0.05 0.13,-0.08 0.04,-0.02 0.08,-0.04 0.12,-0.05 0.04,-0.01 0.08,-0.01 0.1,-0.01l0.01 0c0.02,0 0.03,0 0.05,0.01 0.02,0.01 0.03,0.02 0.04,0.04 0.02,0.01 0.02,0.02 0.03,0.04 0.01,0.01 0.01,0.02 0.01,0.02 -0.03,0.14 -0.06,0.28 -0.09,0.42 -0.03,0.14 -0.06,0.27 -0.09,0.39 -0.02,0.12 -0.04,0.22 -0.05,0.31 -0.01,0.08 -0.02,0.14 -0.01,0.18 0,0.02 0.01,0.02 0.03,0.02 0.01,0 0.03,-0.01 0.06,-0.02 0.03,-0.02 0.06,-0.05 0.09,-0.1 0.03,-0.04 0.06,-0.11 0.1,-0.18 0.04,-0.08 0.07,-0.18 0.11,-0.31 0.02,-0.06 0.03,-0.12 0.05,-0.19 0.02,-0.06 0.03,-0.11 0.04,-0.16 0.02,-0.05 0.03,-0.09 0.04,-0.13 0.01,-0.04 0.01,-0.06 0.02,-0.07 0.01,-0.02 0.02,-0.03 0.04,-0.03 0.02,0 0.03,0.01 0.05,0.02 0.02,0.01 0.03,0.02 0.04,0.03 0.01,0.01 0.02,0.03 0.03,0.04 0.01,0.01 0.01,0.02 0.01,0.03 -0.03,0.15 -0.06,0.27 -0.09,0.4 -0.02,0.11 -0.05,0.22 -0.07,0.31 -0.02,0.1 -0.04,0.17 -0.04,0.23 -0.01,0.06 -0.01,0.1 0,0.12 0.01,0.01 0.01,0.01 0.02,0.01 0.02,0 0.05,-0.02 0.08,-0.06 0.04,-0.05 0.08,-0.12 0.11,-0.19 0.04,-0.08 0.09,-0.16 0.13,-0.26 0.05,-0.1 0.09,-0.19 0.12,-0.29 0.03,-0.1 0.06,-0.2 0.08,-0.3 0.03,-0.1 0.04,-0.18 0.04,-0.26 0,-0.02 0,-0.05 -0.01,-0.06 -0.01,-0.03 -0.03,-0.04 -0.05,-0.04 -0.01,0 -0.01,-0.01 -0.01,-0.01 -0.01,-0.01 0,-0.01 0,-0.02 0.01,-0.01 0.01,-0.01 0.02,-0.02 0.01,0 0.03,0 0.04,0 0.02,-0.01 0.04,-0.01 0.07,-0.01 0.02,0 0.03,0.01 0.04,0.01 0.02,0.01 0.04,0.03 0.05,0.04 0.02,0.01 0.03,0.02 0.04,0.05 0,0.01 0.01,0.04 0.01,0.06 0,0.04 -0.01,0.1 -0.02,0.17 -0.01,0.06 -0.03,0.14 -0.05,0.23 -0.03,0.08 -0.05,0.16 -0.09,0.26 -0.03,0.09 -0.07,0.18 -0.11,0.27 -0.04,0.09 -0.08,0.17 -0.13,0.25 -0.05,0.08 -0.09,0.16 -0.14,0.22 -0.05,0.06 -0.1,0.11 -0.15,0.14 -0.06,0.04 -0.11,0.06 -0.16,0.06 0,0 -0.01,-0.01 -0.02,-0.01 -0.02,-0.01 -0.03,-0.01 -0.05,-0.03 -0.01,-0.02 -0.03,-0.04 -0.04,-0.07 -0.01,-0.03 -0.03,-0.06 -0.03,-0.11 0,-0.06 0,-0.11 0.01,-0.18 -0.02,0.06 -0.05,0.11 -0.08,0.16 -0.03,0.04 -0.06,0.09 -0.09,0.12 -0.03,0.04 -0.07,0.07 -0.1,0.09 -0.04,0.02 -0.08,0.03 -0.12,0.03l0 0c-0.01,0 -0.01,-0.01 -0.03,-0.01 -0.01,-0.01 -0.03,-0.01 -0.04,-0.03 -0.02,-0.02 -0.03,-0.04 -0.05,-0.07 -0.01,-0.03 -0.02,-0.06 -0.02,-0.11 0,-0.05 0,-0.11 0.01,-0.18 0.01,-0.07 0.02,-0.14 0.03,-0.22 0.02,-0.09 0.04,-0.16 0.05,-0.25 0.02,-0.09 0.04,-0.17 0.06,-0.25 0.02,-0.08 0.04,-0.16 0.06,-0.23 0.02,-0.07 0.03,-0.13 0.05,-0.18 -0.05,0.02 -0.1,0.04 -0.16,0.08 -0.05,0.04 -0.1,0.08 -0.14,0.13 -0.04,0.04 -0.07,0.09 -0.09,0.15 -0.02,0.06 -0.03,0.1 -0.01,0.15 0,0.03 0,0.05 -0.02,0.05 -0.01,0 -0.03,0 -0.05,-0.02 -0.03,-0.01 -0.04,-0.03 -0.06,-0.05 -0.02,-0.02 -0.03,-0.05 -0.04,-0.07 -0.02,-0.03 -0.02,-0.06 -0.01,-0.09l0 0z"/>
    <path id="_16" class="fil8" d="M47.14 21.52c0,-0.05 0.01,-0.11 0.02,-0.17 0.01,-0.07 0.02,-0.13 0.04,-0.19 0.02,-0.06 0.04,-0.12 0.08,-0.17 0.03,-0.06 0.06,-0.1 0.1,-0.14 0.05,-0.05 0.1,-0.07 0.15,-0.07 0.06,0 0.11,0.01 0.14,0.04 0.04,0.03 0.06,0.07 0.07,0.13 0,0.04 0,0.09 -0.03,0.16 -0.01,0.05 -0.04,0.11 -0.08,0.16 -0.04,0.05 -0.08,0.1 -0.12,0.13 -0.05,0.04 -0.1,0.06 -0.14,0.06 -0.01,0.12 0,0.19 0.04,0.23 0.01,0.01 0.02,0.02 0.05,0.02 0.02,0 0.05,-0.01 0.07,-0.03 0.04,-0.03 0.07,-0.08 0.12,-0.14 0.04,-0.07 0.08,-0.15 0.13,-0.25 0,-0.01 0.01,-0.02 0.02,-0.02 0.01,0 0.02,0 0.03,0 0.01,0.01 0.01,0.01 0.01,0.02 0,0.01 0,0.01 0,0.01 -0.01,0.02 -0.02,0.05 -0.04,0.09 -0.01,0.04 -0.03,0.08 -0.05,0.13 -0.03,0.04 -0.05,0.09 -0.07,0.13 -0.03,0.05 -0.06,0.09 -0.08,0.13 -0.03,0.04 -0.06,0.06 -0.09,0.09 -0.03,0.02 -0.06,0.04 -0.1,0.04l0 0c-0.07,0 -0.1,-0.02 -0.12,-0.04 -0.03,-0.01 -0.06,-0.03 -0.07,-0.06 -0.03,-0.03 -0.04,-0.06 -0.05,-0.09 -0.01,-0.03 -0.02,-0.07 -0.02,-0.1 -0.01,-0.03 -0.01,-0.07 -0.01,-0.1l0 0zm0.24 -0.15c0.03,-0.01 0.05,-0.02 0.09,-0.06 0.03,-0.04 0.06,-0.08 0.09,-0.14 0.02,-0.05 0.05,-0.09 0.06,-0.14 0.02,-0.05 0.02,-0.08 0.02,-0.11 0,-0.02 -0.02,-0.03 -0.03,-0.03 -0.03,0 -0.05,0.02 -0.08,0.05 -0.02,0.03 -0.04,0.06 -0.06,0.1 -0.02,0.05 -0.04,0.1 -0.05,0.16 -0.02,0.06 -0.04,0.11 -0.04,0.17l0 0z"/>
    <path id="_17" class="fil8" d="M47.46 20.53c0.01,-0.03 0.02,-0.05 0.04,-0.05 0,0 0.01,0 0.01,0 0,0 0.01,0 0.01,0.01 0.01,0.02 0.04,0.02 0.07,0.03 0.03,0 0.06,0 0.08,0 0.03,0 0.07,0 0.11,0 0.05,-0.01 0.09,-0.01 0.14,-0.02 0.01,-0.04 0.01,-0.08 0.02,-0.11 0.01,-0.03 0.01,-0.05 0.02,-0.06 0.01,-0.02 0.02,-0.04 0.04,-0.03 0.02,0.01 0.04,0.01 0.06,0.02 0.02,0 0.03,0.01 0.05,0.01 0.02,0.01 0.03,0.03 0.05,0.04 0.01,0 0.01,0.02 0.01,0.03 0,0.01 0,0.01 0,0.02 0,0.01 0,0.03 0,0.05 0.09,-0.02 0.2,-0.04 0.31,-0.05 0.11,-0.01 0.21,-0.02 0.31,-0.02 0.03,0 0.06,0 0.09,0.01 0.03,0 0.06,0 0.09,0.01 0.02,0.01 0.05,0.03 0.07,0.04 0.03,0.02 0.04,0.04 0.06,0.07 0.01,0.02 0.02,0.04 0.02,0.07 0,0.01 -0.01,0.04 -0.01,0.05 0,0.02 -0.01,0.04 -0.02,0.06 -0.01,0.02 -0.02,0.02 -0.03,0.02 0,0 0,0 0,0 -0.01,0 -0.01,0 -0.01,-0.01 0.01,-0.01 0.01,-0.01 0,-0.01 -0.03,-0.03 -0.08,-0.06 -0.15,-0.07 -0.07,-0.01 -0.15,-0.02 -0.24,-0.02 -0.06,0 -0.14,0 -0.21,0.01 -0.07,0.01 -0.15,0.01 -0.22,0.02 -0.02,0 -0.04,0 -0.05,0 -0.02,0 -0.04,0 -0.05,0.01 -0.01,0 -0.01,0.01 -0.01,0.01 0,0 0,0.01 0,0.02 -0.01,0.06 -0.03,0.12 -0.04,0.19 -0.01,0.07 -0.02,0.14 -0.04,0.21 -0.02,0.08 -0.03,0.15 -0.04,0.22 -0.01,0.06 -0.02,0.13 -0.03,0.18 -0.01,0.06 -0.02,0.1 -0.02,0.14 0,0.04 0,0.06 0.01,0.07 0,0 0.01,0 0.01,0 0.01,0 0.03,-0.01 0.05,-0.02 0.02,-0.02 0.04,-0.04 0.05,-0.07 0.02,-0.03 0.04,-0.06 0.06,-0.09 0.02,-0.03 0.04,-0.06 0.06,-0.09 0.01,-0.03 0.03,-0.06 0.04,-0.08 0.01,-0.03 0.02,-0.05 0.03,-0.06 0,-0.01 0.01,-0.02 0.02,-0.02 0.01,0 0.02,0 0.03,0 0.01,0.01 0.01,0.01 0.01,0.02l0 0.01c-0.01,0.03 -0.04,0.09 -0.06,0.15 -0.03,0.07 -0.07,0.14 -0.1,0.2 -0.04,0.07 -0.08,0.13 -0.13,0.18 -0.04,0.05 -0.09,0.08 -0.14,0.08 -0.03,0 -0.05,-0.02 -0.08,-0.05 -0.02,-0.03 -0.03,-0.07 -0.04,-0.13 -0.01,-0.06 -0.01,-0.13 -0.01,-0.2 0,-0.07 0,-0.15 0.02,-0.23 0.01,-0.08 0.01,-0.16 0.02,-0.23 0.01,-0.07 0.03,-0.14 0.04,-0.21 0.01,-0.07 0.02,-0.13 0.04,-0.19 -0.08,0 -0.15,0 -0.21,0 -0.06,-0.01 -0.11,-0.02 -0.16,-0.04 -0.01,-0.01 -0.03,-0.02 -0.04,-0.04 -0.01,-0.02 -0.01,-0.04 -0.01,-0.06l0 0z"/>
    <path id="_18" class="fil8" d="M48.34 21.02c0.04,-0.08 0.08,-0.14 0.12,-0.18 0.05,-0.05 0.1,-0.07 0.15,-0.07 0.06,0 0.11,0.02 0.14,0.07 0.03,0.02 0.05,0.07 0.07,0.13 0,-0.02 0,-0.03 0.01,-0.05 0,-0.02 0,-0.03 0.01,-0.04 0,-0.01 0.01,-0.02 0.02,-0.02 0.01,-0.01 0.01,-0.01 0.02,-0.01 0.02,0.01 0.04,0.01 0.06,0.02 0.02,0.01 0.03,0.01 0.05,0.02 0.02,0.01 0.03,0.02 0.04,0.03 0.02,0.01 0.03,0.02 0.03,0.03 0,0.02 -0.01,0.04 -0.01,0.07 -0.02,0.03 -0.02,0.07 -0.03,0.11 -0.01,0.05 -0.03,0.11 -0.04,0.17 -0.01,0.06 -0.02,0.12 -0.02,0.17 -0.02,0.06 -0.02,0.11 -0.03,0.14 0,0.05 0.01,0.07 0.01,0.08 0.01,0.01 0.02,0.01 0.02,0.01 0.01,0 0.03,-0.01 0.05,-0.02 0.02,-0.02 0.04,-0.04 0.06,-0.07 0.01,-0.03 0.04,-0.06 0.05,-0.09 0.03,-0.03 0.04,-0.06 0.06,-0.09 0.02,-0.03 0.03,-0.06 0.04,-0.08 0.02,-0.03 0.02,-0.05 0.03,-0.06 0,-0.01 0.01,-0.02 0.02,-0.02 0.01,0 0.02,0 0.03,0 0.01,0.01 0.01,0.01 0.01,0.02 0,0.01 0,0.01 0,0.01 -0.01,0.03 -0.04,0.09 -0.06,0.15 -0.03,0.07 -0.06,0.14 -0.1,0.2 -0.04,0.07 -0.08,0.13 -0.13,0.18 -0.04,0.05 -0.09,0.08 -0.14,0.08 -0.09,0 -0.14,-0.09 -0.15,-0.25 -0.06,0.16 -0.14,0.24 -0.24,0.24 -0.05,0 -0.09,-0.01 -0.13,-0.03 -0.03,-0.03 -0.06,-0.06 -0.08,-0.1 -0.02,-0.03 -0.03,-0.08 -0.03,-0.12 -0.01,-0.05 -0.02,-0.09 -0.02,-0.14 0,-0.08 0.02,-0.16 0.03,-0.25 0.02,-0.09 0.05,-0.17 0.08,-0.24l0 0zm0.2 0.68c0.04,0 0.06,-0.01 0.08,-0.03 0.02,-0.03 0.04,-0.06 0.06,-0.09 0.01,-0.04 0.02,-0.08 0.04,-0.11 0.01,-0.04 0.01,-0.07 0.02,-0.09 0,-0.03 0,-0.07 0.01,-0.1 0,-0.04 0.01,-0.07 0.02,-0.11 0,-0.09 0,-0.16 -0.02,-0.21 -0.01,-0.04 -0.02,-0.07 -0.05,-0.07 -0.02,0 -0.06,0.02 -0.09,0.06 -0.02,0.03 -0.05,0.09 -0.08,0.16 -0.02,0.06 -0.04,0.13 -0.06,0.2 -0.01,0.08 -0.01,0.14 -0.01,0.2 0,0.01 0,0.03 0,0.05 0,0.02 0,0.04 0.01,0.07 0,0.02 0.02,0.04 0.03,0.05 0.01,0.01 0.02,0.02 0.04,0.02l0 0z"/>
    <path id="_19" class="fil8" d="M49.24 21.35c0.01,-0.05 0.02,-0.11 0.02,-0.16 0.01,-0.05 0.03,-0.1 0.04,-0.14 0,-0.05 0.01,-0.08 0.03,-0.11 0,-0.04 0.01,-0.06 0.02,-0.08 0,-0.01 0.02,-0.02 0.04,-0.02 0.01,0 0.02,0.01 0.04,0.01 0.01,0.01 0.03,0.01 0.05,0.02 0.01,0.01 0.02,0.02 0.03,0.03 0.01,0.02 0.02,0.03 0.02,0.04 0,0.01 0,0.04 -0.01,0.08 -0.01,0.03 -0.02,0.07 -0.02,0.13 -0.01,0.05 -0.02,0.1 -0.03,0.16 -0.01,0.05 -0.02,0.1 -0.02,0.15 -0.01,0.04 -0.01,0.08 -0.02,0.11 0,0.03 0,0.06 0,0.08 0.01,-0.05 0.02,-0.11 0.05,-0.18 0.03,-0.07 0.06,-0.14 0.09,-0.21 0.03,-0.08 0.07,-0.15 0.11,-0.22 0.04,-0.06 0.08,-0.12 0.1,-0.16 0.06,-0.08 0.11,-0.12 0.15,-0.12l0 0c0,0 0,0 0,0 0.01,0 0.01,0 0.01,0 0.02,0 0.03,0 0.06,0.01 0.01,0.01 0.04,0.02 0.05,0.02 0.02,0.01 0.03,0.02 0.04,0.03 0.02,0.01 0.02,0.03 0.02,0.04 0,0.01 0,0.03 -0.01,0.07 0,0.03 -0.01,0.07 -0.03,0.12 -0.01,0.06 -0.02,0.13 -0.03,0.2 -0.02,0.07 -0.03,0.14 -0.04,0.2 -0.01,0.06 -0.01,0.11 -0.01,0.16 -0.01,0.04 0,0.07 0,0.08 0.01,0.01 0.01,0.01 0.01,0.01 0.02,0 0.04,-0.01 0.06,-0.03 0.02,-0.02 0.04,-0.05 0.07,-0.08 0.03,-0.04 0.06,-0.09 0.09,-0.14 0.03,-0.05 0.06,-0.1 0.09,-0.16 0.01,-0.02 0.02,-0.03 0.02,-0.03 0.01,0 0.01,0 0.01,0 0.01,0.01 0.02,0.02 0.01,0.03l0 0.01c0,0 0,0 0,0 -0.01,0.05 -0.03,0.1 -0.06,0.17 -0.02,0.07 -0.06,0.14 -0.1,0.2 -0.03,0.06 -0.07,0.12 -0.12,0.16 -0.05,0.05 -0.09,0.08 -0.14,0.08 -0.04,0 -0.07,-0.02 -0.09,-0.05 -0.02,-0.03 -0.04,-0.07 -0.05,-0.12 -0.01,-0.04 -0.01,-0.09 -0.01,-0.15 0,-0.05 0,-0.12 0,-0.18 0.01,-0.06 0.02,-0.12 0.03,-0.18 0,-0.05 0.01,-0.11 0.02,-0.15 0.01,-0.05 0.02,-0.09 0.02,-0.12 -0.02,0.02 -0.04,0.06 -0.06,0.1 -0.02,0.03 -0.05,0.07 -0.07,0.12 -0.02,0.04 -0.04,0.09 -0.06,0.14 -0.03,0.05 -0.05,0.1 -0.07,0.15 -0.01,0.06 -0.03,0.11 -0.04,0.15 -0.01,0.04 -0.02,0.08 -0.03,0.11 -0.02,0.06 -0.03,0.1 -0.04,0.13 -0.02,0.03 -0.03,0.04 -0.05,0.04 -0.07,0 -0.11,-0.02 -0.14,-0.07 -0.07,-0.08 -0.08,-0.24 -0.05,-0.48l0 0z"/>
   </g>
  </g>
  <path class="fil9" d="M0.03 34.13c0.03,-0.17 0.11,-0.33 0.23,-0.5 0.12,-0.16 0.26,-0.32 0.42,-0.47 0.17,-0.15 0.34,-0.28 0.54,-0.41 0.19,-0.12 0.37,-0.23 0.56,-0.32 0.18,-0.1 0.35,-0.17 0.51,-0.23 0.17,-0.05 0.3,-0.08 0.41,-0.08l0.06 0c0.06,0.02 0.12,0.04 0.19,0.08 0.06,0.05 0.12,0.09 0.17,0.14 0.06,0.05 0.1,0.11 0.13,0.16 0.03,0.05 0.04,0.09 0.04,0.13 -0.12,0.59 -0.24,1.18 -0.37,1.76 -0.13,0.58 -0.25,1.12 -0.36,1.61 -0.1,0.49 -0.18,0.92 -0.24,1.28 -0.05,0.37 -0.07,0.63 -0.04,0.78 0.02,0.07 0.06,0.1 0.12,0.1 0.07,0 0.16,-0.04 0.27,-0.12 0.11,-0.07 0.23,-0.21 0.36,-0.4 0.13,-0.19 0.27,-0.45 0.42,-0.78 0.15,-0.33 0.31,-0.75 0.47,-1.25 0.06,-0.29 0.13,-0.55 0.2,-0.81 0.07,-0.26 0.14,-0.49 0.19,-0.7 0.06,-0.2 0.11,-0.38 0.15,-0.52 0.04,-0.15 0.07,-0.25 0.08,-0.31 0.02,-0.09 0.08,-0.12 0.19,-0.11 0.05,0.01 0.12,0.04 0.18,0.08 0.07,0.04 0.13,0.09 0.18,0.14 0.05,0.05 0.09,0.1 0.13,0.15 0.03,0.05 0.04,0.1 0.03,0.14 -0.11,0.59 -0.23,1.14 -0.36,1.64 -0.12,0.51 -0.23,0.95 -0.31,1.33 -0.09,0.39 -0.15,0.7 -0.18,0.96 -0.04,0.25 -0.03,0.42 0.04,0.52 0.02,0.02 0.05,0.04 0.09,0.04 0.07,0 0.18,-0.1 0.32,-0.29 0.14,-0.2 0.3,-0.46 0.47,-0.77 0.17,-0.32 0.35,-0.68 0.53,-1.09 0.19,-0.4 0.35,-0.82 0.5,-1.24 0.15,-0.42 0.27,-0.84 0.36,-1.24 0.1,-0.41 0.15,-0.77 0.15,-1.09 0,-0.1 -0.03,-0.18 -0.08,-0.26 -0.04,-0.08 -0.11,-0.13 -0.19,-0.15 -0.03,-0.02 -0.05,-0.04 -0.06,-0.07 -0.01,-0.02 0,-0.05 0.03,-0.07 0.02,-0.02 0.05,-0.04 0.1,-0.05 0.04,-0.02 0.1,-0.03 0.17,-0.04 0.07,-0.02 0.16,-0.02 0.28,-0.02 0.05,0 0.12,0.02 0.19,0.05 0.07,0.04 0.13,0.08 0.19,0.14 0.06,0.06 0.11,0.13 0.14,0.21 0.04,0.08 0.06,0.16 0.06,0.26 0,0.18 -0.03,0.41 -0.08,0.7 -0.05,0.29 -0.13,0.61 -0.23,0.95 -0.1,0.35 -0.22,0.72 -0.36,1.1 -0.14,0.39 -0.3,0.77 -0.47,1.14 -0.16,0.37 -0.35,0.73 -0.54,1.07 -0.19,0.34 -0.39,0.64 -0.6,0.89 -0.21,0.26 -0.42,0.46 -0.64,0.62 -0.21,0.15 -0.43,0.23 -0.65,0.23 0,0 -0.04,-0.01 -0.09,-0.04 -0.06,-0.02 -0.12,-0.06 -0.19,-0.13 -0.06,-0.07 -0.12,-0.16 -0.18,-0.28 -0.06,-0.12 -0.09,-0.27 -0.09,-0.47 -0.02,-0.22 -0.01,-0.47 0.02,-0.75 -0.1,0.23 -0.21,0.45 -0.33,0.65 -0.12,0.21 -0.25,0.38 -0.39,0.53 -0.14,0.15 -0.28,0.27 -0.44,0.36 -0.15,0.08 -0.31,0.13 -0.49,0.13l-0.01 0c0,0 -0.03,-0.01 -0.09,-0.04 -0.06,-0.02 -0.12,-0.06 -0.19,-0.13 -0.07,-0.07 -0.13,-0.16 -0.19,-0.28 -0.05,-0.12 -0.08,-0.27 -0.09,-0.47 -0.01,-0.2 0.01,-0.45 0.04,-0.74 0.04,-0.3 0.09,-0.61 0.15,-0.95 0.06,-0.33 0.13,-0.68 0.2,-1.04 0.08,-0.36 0.16,-0.71 0.24,-1.05 0.09,-0.33 0.16,-0.65 0.24,-0.95 0.07,-0.29 0.14,-0.54 0.19,-0.74 -0.21,0.05 -0.42,0.16 -0.64,0.32 -0.22,0.15 -0.42,0.33 -0.58,0.54 -0.17,0.2 -0.3,0.41 -0.39,0.63 -0.09,0.23 -0.11,0.44 -0.06,0.63 0.04,0.14 0.02,0.22 -0.07,0.22 -0.06,0 -0.13,-0.03 -0.22,-0.09 -0.08,-0.06 -0.16,-0.13 -0.24,-0.22 -0.07,-0.1 -0.13,-0.2 -0.18,-0.31 -0.04,-0.11 -0.05,-0.23 -0.02,-0.34z"/>
  <path id="1" class="fil9" d="M7.47 35.51c0.15,-0.34 0.33,-0.6 0.52,-0.78 0.2,-0.18 0.4,-0.27 0.61,-0.27 0.25,0 0.44,0.09 0.58,0.27 0.12,0.13 0.21,0.32 0.27,0.57 0.02,-0.07 0.04,-0.14 0.05,-0.21 0.02,-0.06 0.04,-0.12 0.05,-0.18 0.02,-0.03 0.04,-0.06 0.07,-0.09 0.04,-0.02 0.08,-0.02 0.11,-0.01 0.08,0.02 0.15,0.04 0.24,0.06 0.08,0.02 0.16,0.05 0.23,0.09 0.07,0.03 0.13,0.07 0.18,0.12 0.05,0.04 0.07,0.09 0.07,0.15 0,0.04 -0.01,0.13 -0.04,0.27 -0.03,0.13 -0.06,0.29 -0.1,0.48 -0.04,0.21 -0.09,0.44 -0.14,0.7 -0.05,0.25 -0.1,0.49 -0.14,0.72 -0.04,0.23 -0.06,0.43 -0.07,0.6 -0.01,0.17 0.01,0.28 0.04,0.33 0.03,0.01 0.05,0.02 0.06,0.02 0.07,0 0.14,-0.04 0.21,-0.11 0.08,-0.07 0.16,-0.16 0.24,-0.27 0.08,-0.11 0.16,-0.23 0.24,-0.37 0.09,-0.13 0.16,-0.26 0.23,-0.39 0.06,-0.13 0.12,-0.25 0.17,-0.35 0.06,-0.11 0.09,-0.18 0.11,-0.23 0.02,-0.04 0.05,-0.07 0.1,-0.08 0.05,-0.01 0.09,-0.01 0.12,0.01 0.04,0.01 0.06,0.04 0.05,0.08 -0.01,0.01 -0.01,0.01 -0.01,0.02 -0.05,0.15 -0.14,0.37 -0.25,0.65 -0.12,0.28 -0.26,0.57 -0.42,0.85 -0.15,0.28 -0.33,0.52 -0.52,0.73 -0.19,0.21 -0.39,0.31 -0.6,0.31 -0.38,0 -0.6,-0.34 -0.65,-1.02 -0.24,0.67 -0.57,1.01 -0.98,1.01 -0.22,0 -0.4,-0.05 -0.54,-0.15 -0.14,-0.1 -0.25,-0.23 -0.33,-0.39 -0.08,-0.15 -0.14,-0.33 -0.17,-0.52 -0.03,-0.19 -0.04,-0.38 -0.04,-0.56 0,-0.34 0.04,-0.7 0.12,-1.06 0.08,-0.36 0.19,-0.69 0.33,-1zm0.85 2.85c0.12,0 0.23,-0.05 0.33,-0.16 0.09,-0.1 0.17,-0.23 0.23,-0.37 0.07,-0.15 0.12,-0.3 0.16,-0.45 0.04,-0.15 0.07,-0.28 0.09,-0.37 0.01,-0.14 0.03,-0.29 0.05,-0.44 0.03,-0.14 0.05,-0.3 0.08,-0.46 0,-0.37 -0.02,-0.66 -0.06,-0.86 -0.05,-0.2 -0.11,-0.3 -0.2,-0.3 -0.13,0 -0.26,0.08 -0.38,0.24 -0.13,0.16 -0.24,0.39 -0.35,0.68 -0.1,0.27 -0.18,0.56 -0.23,0.85 -0.06,0.3 -0.09,0.57 -0.09,0.82 0,0.06 0,0.14 0.01,0.23 0.01,0.09 0.02,0.18 0.05,0.27 0.02,0.08 0.06,0.16 0.11,0.22 0.05,0.07 0.11,0.1 0.2,0.1z"/>
  <path id="2" class="fil9" d="M11.99 33.98c0.13,0 0.21,0.06 0.24,0.17 0.02,0.11 0.02,0.24 0,0.37 -0.03,0.16 -0.08,0.34 -0.16,0.55 0.06,0 0.14,-0.01 0.23,-0.04 0.09,-0.03 0.19,-0.06 0.29,-0.09 0.1,-0.04 0.2,-0.07 0.3,-0.09 0.1,-0.03 0.19,-0.04 0.27,-0.04l0.05 0c0.04,0 0.08,0.02 0.14,0.05 0.05,0.04 0.1,0.09 0.15,0.15 0.05,0.06 0.09,0.13 0.13,0.21 0.03,0.09 0.05,0.17 0.05,0.27 0,0.05 -0.02,0.15 -0.05,0.31 -0.04,0.16 -0.08,0.34 -0.13,0.55 -0.06,0.22 -0.11,0.44 -0.16,0.67 -0.05,0.23 -0.09,0.45 -0.12,0.65 -0.03,0.2 -0.05,0.36 -0.04,0.49 0.01,0.13 0.04,0.19 0.1,0.19 0.05,0 0.12,-0.04 0.21,-0.13 0.09,-0.08 0.2,-0.19 0.31,-0.35 0.12,-0.15 0.24,-0.32 0.37,-0.53 0.13,-0.21 0.26,-0.44 0.39,-0.7 0.05,-0.08 0.09,-0.12 0.13,-0.12 0.02,0 0.04,0.01 0.05,0.04 0.02,0.02 0.02,0.05 0,0.08 0,0.02 -0.03,0.1 -0.07,0.23 -0.05,0.13 -0.11,0.29 -0.19,0.48 -0.07,0.19 -0.16,0.39 -0.27,0.61 -0.1,0.21 -0.22,0.41 -0.35,0.6 -0.13,0.18 -0.27,0.33 -0.42,0.45 -0.16,0.12 -0.32,0.18 -0.48,0.18 -0.17,0 -0.31,-0.06 -0.39,-0.18 -0.09,-0.13 -0.15,-0.29 -0.18,-0.5 -0.02,-0.21 -0.02,-0.45 0,-0.71 0.02,-0.27 0.06,-0.54 0.11,-0.81 0.05,-0.28 0.11,-0.55 0.17,-0.81 0.06,-0.27 0.13,-0.5 0.18,-0.71 0,-0.08 -0.06,-0.12 -0.18,-0.12 -0.08,0 -0.17,0.01 -0.29,0.04 -0.12,0.03 -0.25,0.06 -0.4,0.08 -0.03,0.1 -0.09,0.28 -0.19,0.54 -0.09,0.26 -0.22,0.58 -0.39,0.97 0,0 -0.01,0.01 -0.02,0.02 -0.01,0.01 -0.02,0.02 -0.03,0.02 -0.07,0.01 -0.12,-0.01 -0.15,-0.05 -0.04,-0.05 -0.04,-0.1 -0.02,-0.17 0.03,-0.07 0.06,-0.15 0.09,-0.26 0.04,-0.1 0.08,-0.22 0.12,-0.33 0.03,-0.12 0.07,-0.24 0.11,-0.36 0.03,-0.13 0.06,-0.24 0.08,-0.34l-0.05 0c-0.1,0 -0.18,-0.04 -0.24,-0.12 -0.06,-0.07 -0.1,-0.17 -0.11,-0.28 -0.02,-0.11 -0.01,-0.23 0.02,-0.36 0.03,-0.13 0.07,-0.26 0.14,-0.37 0.07,-0.11 0.16,-0.2 0.27,-0.28 0.1,-0.08 0.23,-0.12 0.38,-0.12z"/>
  <path id="3" class="fil9" d="M13.25 33.44c0.02,-0.12 0.06,-0.18 0.13,-0.19 0.03,-0.01 0.05,-0.01 0.06,0 0.01,0 0.02,0.01 0.04,0.02 0.07,0.07 0.17,0.11 0.3,0.12 0.13,0.01 0.24,0.02 0.33,0.02 0.15,0 0.31,-0.01 0.47,-0.02 0.17,-0.01 0.36,-0.03 0.56,-0.06 0.03,-0.18 0.07,-0.33 0.1,-0.45 0.03,-0.13 0.05,-0.22 0.08,-0.29 0.03,-0.09 0.09,-0.12 0.19,-0.1 0.07,0.01 0.15,0.03 0.23,0.06 0.08,0.02 0.15,0.05 0.23,0.09 0.07,0.03 0.13,0.07 0.18,0.12 0.05,0.04 0.07,0.09 0.07,0.15 0,0.01 0,0.04 -0.01,0.09 -0.01,0.05 -0.01,0.11 -0.03,0.19 0.41,-0.09 0.85,-0.15 1.31,-0.21 0.47,-0.05 0.91,-0.08 1.32,-0.08 0.12,0 0.24,0.01 0.37,0.02 0.12,0.01 0.25,0.04 0.36,0.08 0.12,0.03 0.22,0.09 0.32,0.16 0.09,0.08 0.17,0.17 0.23,0.29 0.05,0.09 0.07,0.18 0.07,0.27 0,0.09 0,0.16 -0.02,0.23 -0.01,0.1 -0.04,0.18 -0.09,0.25 -0.04,0.06 -0.09,0.09 -0.13,0.09 -0.01,0 -0.02,0 -0.02,-0.01 0,0 0,-0.02 0,-0.04 0.01,-0.01 0.01,-0.02 0,-0.03 -0.14,-0.14 -0.35,-0.24 -0.63,-0.3 -0.29,-0.05 -0.62,-0.08 -0.99,-0.08 -0.28,0 -0.58,0.01 -0.89,0.03 -0.31,0.03 -0.63,0.05 -0.95,0.08 -0.07,0.01 -0.14,0.02 -0.21,0.02 -0.07,0 -0.14,0.01 -0.21,0.01 -0.01,0.03 -0.01,0.05 -0.02,0.07 0,0.02 0,0.04 -0.01,0.07 -0.05,0.25 -0.11,0.52 -0.16,0.81 -0.06,0.3 -0.12,0.6 -0.18,0.9 -0.06,0.31 -0.12,0.6 -0.17,0.88 -0.05,0.29 -0.09,0.55 -0.12,0.78 -0.03,0.23 -0.05,0.42 -0.06,0.57 -0.01,0.16 0,0.25 0.03,0.29 0,0.01 0.01,0.01 0.03,0.01 0.06,0 0.13,-0.04 0.21,-0.11 0.07,-0.07 0.15,-0.16 0.23,-0.27 0.08,-0.11 0.16,-0.23 0.25,-0.37 0.08,-0.13 0.16,-0.26 0.22,-0.39 0.07,-0.13 0.13,-0.25 0.18,-0.35 0.05,-0.11 0.09,-0.18 0.11,-0.23 0.02,-0.04 0.05,-0.07 0.1,-0.08 0.05,-0.01 0.09,-0.01 0.13,0.01 0.04,0.01 0.05,0.04 0.04,0.08l0 0.02c-0.06,0.15 -0.14,0.37 -0.26,0.65 -0.12,0.28 -0.25,0.57 -0.41,0.85 -0.16,0.28 -0.33,0.52 -0.52,0.73 -0.2,0.21 -0.39,0.31 -0.6,0.31 -0.12,0 -0.23,-0.05 -0.32,-0.17 -0.09,-0.13 -0.16,-0.31 -0.19,-0.56 -0.04,-0.25 -0.05,-0.52 -0.05,-0.83 0.01,-0.31 0.03,-0.63 0.07,-0.97 0.04,-0.34 0.08,-0.66 0.13,-0.97 0.04,-0.29 0.09,-0.58 0.14,-0.86 0.06,-0.28 0.11,-0.55 0.16,-0.8 -0.32,0.01 -0.61,0.01 -0.87,-0.01 -0.26,-0.02 -0.48,-0.07 -0.65,-0.15 -0.09,-0.04 -0.14,-0.1 -0.18,-0.19 -0.04,-0.08 -0.05,-0.17 -0.03,-0.25z"/>
  <path id="4" class="fil9" d="M16.92 35.51c0.15,-0.34 0.33,-0.6 0.52,-0.78 0.2,-0.18 0.4,-0.27 0.61,-0.27 0.25,0 0.44,0.09 0.58,0.27 0.12,0.13 0.21,0.32 0.27,0.57 0.02,-0.07 0.04,-0.14 0.06,-0.21 0.01,-0.06 0.03,-0.12 0.04,-0.18 0.02,-0.03 0.04,-0.06 0.08,-0.09 0.03,-0.02 0.07,-0.02 0.11,-0.01 0.07,0.02 0.14,0.04 0.23,0.06 0.08,0.02 0.16,0.05 0.23,0.09 0.07,0.03 0.13,0.07 0.18,0.12 0.05,0.04 0.07,0.09 0.07,0.15 0,0.04 -0.01,0.13 -0.04,0.27 -0.03,0.13 -0.06,0.29 -0.1,0.48 -0.04,0.21 -0.09,0.44 -0.14,0.7 -0.05,0.25 -0.1,0.49 -0.14,0.72 -0.04,0.23 -0.06,0.43 -0.07,0.6 -0.01,0.17 0.01,0.28 0.04,0.33 0.03,0.01 0.05,0.02 0.06,0.02 0.07,0 0.14,-0.04 0.21,-0.11 0.08,-0.07 0.16,-0.16 0.24,-0.27 0.08,-0.11 0.16,-0.23 0.24,-0.37 0.09,-0.13 0.16,-0.26 0.23,-0.39 0.06,-0.13 0.12,-0.25 0.18,-0.35 0.05,-0.11 0.08,-0.18 0.1,-0.23 0.02,-0.04 0.05,-0.07 0.1,-0.08 0.05,-0.01 0.09,-0.01 0.12,0.01 0.04,0.01 0.06,0.04 0.05,0.08 -0.01,0.01 -0.01,0.01 -0.01,0.02 -0.05,0.15 -0.14,0.37 -0.25,0.65 -0.12,0.28 -0.26,0.57 -0.42,0.85 -0.15,0.28 -0.33,0.52 -0.52,0.73 -0.19,0.21 -0.39,0.31 -0.59,0.31 -0.39,0 -0.61,-0.34 -0.66,-1.02 -0.24,0.67 -0.57,1.01 -0.98,1.01 -0.22,0 -0.4,-0.05 -0.54,-0.15 -0.14,-0.1 -0.25,-0.23 -0.33,-0.39 -0.08,-0.15 -0.14,-0.33 -0.17,-0.52 -0.03,-0.19 -0.04,-0.38 -0.04,-0.56 0,-0.34 0.04,-0.7 0.12,-1.06 0.08,-0.36 0.19,-0.69 0.33,-1zm0.85 2.85c0.12,0 0.23,-0.05 0.33,-0.16 0.09,-0.1 0.17,-0.23 0.23,-0.37 0.07,-0.15 0.12,-0.3 0.16,-0.45 0.04,-0.15 0.07,-0.28 0.09,-0.37 0.01,-0.14 0.03,-0.29 0.05,-0.44 0.03,-0.14 0.05,-0.3 0.09,-0.46 0,-0.37 -0.03,-0.66 -0.07,-0.86 -0.05,-0.2 -0.11,-0.3 -0.2,-0.3 -0.13,0 -0.26,0.08 -0.38,0.24 -0.13,0.16 -0.24,0.39 -0.35,0.68 -0.1,0.27 -0.18,0.56 -0.23,0.85 -0.06,0.3 -0.09,0.57 -0.09,0.82 0,0.06 0,0.14 0.01,0.23 0.01,0.09 0.02,0.18 0.05,0.27 0.02,0.08 0.06,0.16 0.11,0.22 0.05,0.07 0.11,0.1 0.2,0.1z"/>
  <path id="5" class="fil9" d="M22.79 33.97c0.03,-0.13 0.09,-0.27 0.19,-0.41 0.11,-0.15 0.23,-0.29 0.37,-0.42 0.15,-0.14 0.31,-0.27 0.48,-0.39 0.18,-0.12 0.36,-0.23 0.53,-0.32 0.18,-0.1 0.34,-0.17 0.5,-0.23 0.15,-0.05 0.28,-0.08 0.39,-0.08l0.05 0c0.06,0.02 0.12,0.04 0.18,0.08 0.06,0.05 0.12,0.09 0.17,0.14 0.05,0.05 0.09,0.11 0.12,0.16 0.03,0.05 0.04,0.09 0.04,0.13 -0.01,0.03 -0.03,0.12 -0.06,0.27 -0.03,0.16 -0.06,0.35 -0.11,0.58 -0.04,0.23 -0.09,0.5 -0.15,0.8 -0.06,0.29 -0.12,0.6 -0.18,0.93 -0.06,0.32 -0.12,0.65 -0.18,0.98 -0.06,0.33 -0.12,0.65 -0.17,0.96 0.1,-0.22 0.22,-0.49 0.36,-0.81 0.14,-0.31 0.3,-0.64 0.47,-0.97 0.18,-0.34 0.37,-0.68 0.57,-1.01 0.21,-0.33 0.42,-0.63 0.64,-0.9 0.22,-0.26 0.45,-0.48 0.68,-0.64 0.23,-0.16 0.45,-0.25 0.68,-0.25 0.1,0 0.21,0.03 0.33,0.08 0.1,0.04 0.18,0.11 0.24,0.23 0.07,0.11 0.11,0.22 0.15,0.33 0.03,0.11 0.04,0.21 0.04,0.28 -0.01,0.07 -0.04,0.08 -0.1,0.03 -0.13,-0.1 -0.27,-0.16 -0.43,-0.16 -0.16,0 -0.32,0.06 -0.48,0.16 -0.17,0.11 -0.33,0.25 -0.5,0.43 -0.17,0.17 -0.33,0.37 -0.49,0.59 -0.16,0.22 -0.31,0.44 -0.45,0.66 -0.14,0.23 -0.27,0.44 -0.39,0.65 -0.11,0.2 -0.21,0.37 -0.28,0.51 0.04,0.21 0.09,0.47 0.17,0.77 0.08,0.3 0.18,0.6 0.3,0.9 0.13,0.3 0.28,0.59 0.46,0.85 0.18,0.26 0.4,0.45 0.64,0.57 0.05,0.02 0.09,0.04 0.13,0.06 0.04,0.01 0.08,0.02 0.12,0.02 0.06,0 0.12,-0.02 0.2,-0.06 0.03,-0.01 0.06,-0.01 0.08,0.01 0.02,0.02 0.02,0.05 0.01,0.08 -0.03,0.06 -0.06,0.13 -0.11,0.21 -0.04,0.08 -0.1,0.16 -0.16,0.24 -0.06,0.08 -0.14,0.14 -0.22,0.2 -0.08,0.05 -0.17,0.08 -0.27,0.08 -0.07,0 -0.15,-0.02 -0.23,-0.05 -0.08,-0.03 -0.17,-0.09 -0.26,-0.16 -0.2,-0.18 -0.38,-0.39 -0.53,-0.64 -0.15,-0.25 -0.28,-0.52 -0.38,-0.79 -0.1,-0.27 -0.18,-0.54 -0.25,-0.79 -0.06,-0.26 -0.1,-0.49 -0.13,-0.68 -0.09,0.18 -0.18,0.35 -0.27,0.52 -0.08,0.17 -0.16,0.33 -0.23,0.47 -0.07,0.15 -0.14,0.27 -0.19,0.39 -0.05,0.11 -0.1,0.2 -0.13,0.26l0 0.06c0,0.09 -0.01,0.14 -0.03,0.17 -0.03,0.02 -0.06,0.03 -0.11,0.03 -0.04,0 -0.1,-0.01 -0.18,-0.02 -0.08,-0.01 -0.16,-0.04 -0.24,-0.07 -0.07,-0.03 -0.14,-0.07 -0.19,-0.12 -0.05,-0.05 -0.07,-0.1 -0.05,-0.17 0.02,-0.08 0.06,-0.25 0.1,-0.51 0.05,-0.26 0.11,-0.57 0.17,-0.93 0.07,-0.36 0.13,-0.75 0.2,-1.18 0.07,-0.42 0.15,-0.85 0.22,-1.26 0.07,-0.42 0.14,-0.81 0.21,-1.17 0.06,-0.37 0.11,-0.67 0.16,-0.91 -0.21,0.05 -0.43,0.15 -0.65,0.3 -0.23,0.16 -0.43,0.34 -0.6,0.55 -0.17,0.2 -0.3,0.42 -0.4,0.65 -0.09,0.23 -0.11,0.44 -0.06,0.63 0.04,0.14 0.02,0.22 -0.05,0.22 -0.04,0 -0.09,-0.03 -0.15,-0.09 -0.06,-0.06 -0.12,-0.14 -0.18,-0.24 -0.05,-0.1 -0.09,-0.22 -0.12,-0.35 -0.03,-0.14 -0.03,-0.28 -0.01,-0.44z"/>
  <path id="6" class="fil9" d="M27.95 35.51c0.16,-0.34 0.33,-0.6 0.53,-0.78 0.19,-0.18 0.4,-0.27 0.61,-0.27 0.24,0 0.43,0.09 0.57,0.27 0.12,0.13 0.21,0.32 0.27,0.57 0.02,-0.07 0.04,-0.14 0.06,-0.21 0.02,-0.06 0.03,-0.12 0.05,-0.18 0.01,-0.03 0.03,-0.06 0.07,-0.09 0.03,-0.02 0.07,-0.02 0.11,-0.01 0.07,0.02 0.15,0.04 0.23,0.06 0.08,0.02 0.16,0.05 0.23,0.09 0.07,0.03 0.13,0.07 0.18,0.12 0.05,0.04 0.08,0.09 0.08,0.15 0,0.04 -0.02,0.13 -0.04,0.27 -0.03,0.13 -0.07,0.29 -0.11,0.48 -0.04,0.21 -0.09,0.44 -0.14,0.7 -0.05,0.25 -0.1,0.49 -0.13,0.72 -0.04,0.23 -0.07,0.43 -0.08,0.6 -0.01,0.17 0.01,0.28 0.05,0.33 0.02,0.01 0.04,0.02 0.05,0.02 0.07,0 0.14,-0.04 0.22,-0.11 0.07,-0.07 0.15,-0.16 0.23,-0.27 0.08,-0.11 0.16,-0.23 0.25,-0.37 0.08,-0.13 0.15,-0.26 0.22,-0.39 0.07,-0.13 0.13,-0.25 0.18,-0.35 0.05,-0.11 0.09,-0.18 0.1,-0.23 0.02,-0.04 0.06,-0.07 0.1,-0.08 0.05,-0.01 0.09,-0.01 0.12,0.01 0.04,0.01 0.06,0.04 0.05,0.08 0,0.01 -0.01,0.01 -0.01,0.02 -0.05,0.15 -0.13,0.37 -0.25,0.65 -0.12,0.28 -0.26,0.57 -0.41,0.85 -0.16,0.28 -0.33,0.52 -0.53,0.73 -0.19,0.21 -0.39,0.31 -0.59,0.31 -0.39,0 -0.6,-0.34 -0.65,-1.02 -0.25,0.67 -0.57,1.01 -0.98,1.01 -0.23,0 -0.41,-0.05 -0.55,-0.15 -0.14,-0.1 -0.25,-0.23 -0.33,-0.39 -0.08,-0.15 -0.13,-0.33 -0.16,-0.52 -0.03,-0.19 -0.05,-0.38 -0.05,-0.56 0,-0.34 0.04,-0.7 0.12,-1.06 0.08,-0.36 0.19,-0.69 0.33,-1zm0.85 2.85c0.13,0 0.24,-0.05 0.33,-0.16 0.09,-0.1 0.17,-0.23 0.23,-0.37 0.07,-0.15 0.12,-0.3 0.16,-0.45 0.04,-0.15 0.08,-0.28 0.09,-0.37 0.02,-0.14 0.03,-0.29 0.06,-0.44 0.02,-0.14 0.05,-0.3 0.08,-0.46 0,-0.37 -0.02,-0.66 -0.07,-0.86 -0.04,-0.2 -0.11,-0.3 -0.2,-0.3 -0.13,0 -0.25,0.08 -0.38,0.24 -0.12,0.16 -0.24,0.39 -0.35,0.68 -0.1,0.27 -0.17,0.56 -0.23,0.85 -0.06,0.3 -0.09,0.57 -0.09,0.82 0,0.06 0.01,0.14 0.01,0.23 0.01,0.09 0.03,0.18 0.05,0.27 0.03,0.08 0.06,0.16 0.11,0.22 0.05,0.07 0.12,0.1 0.2,0.1z"/>
  <path id="7" class="fil9" d="M31.85 35.86c0.05,-0.34 0.11,-0.67 0.17,-1 0.07,-0.32 0.13,-0.61 0.19,-0.88 0.06,-0.26 0.11,-0.48 0.16,-0.67 0.05,-0.19 0.08,-0.32 0.1,-0.39 0.02,-0.04 0.04,-0.07 0.08,-0.09 0.03,-0.02 0.07,-0.03 0.11,-0.02 0.07,0.02 0.14,0.04 0.23,0.07 0.08,0.02 0.16,0.05 0.23,0.08 0.07,0.04 0.13,0.08 0.18,0.12 0.05,0.05 0.08,0.1 0.08,0.16 0,0.03 -0.02,0.16 -0.06,0.36 -0.04,0.21 -0.1,0.46 -0.17,0.78 -0.05,0.23 -0.1,0.48 -0.16,0.76 -0.06,0.28 -0.11,0.56 -0.17,0.84 -0.05,0.28 -0.1,0.55 -0.15,0.82 -0.05,0.27 -0.09,0.51 -0.12,0.72 -0.02,0.21 -0.04,0.39 -0.05,0.54 0,0.14 0.01,0.23 0.04,0.27 0,0.01 0.01,0.02 0.03,0.02 0.05,0 0.12,-0.04 0.21,-0.13 0.09,-0.08 0.19,-0.19 0.3,-0.34 0.12,-0.17 0.24,-0.36 0.35,-0.57 0.12,-0.21 0.23,-0.43 0.34,-0.68 0.02,-0.04 0.05,-0.07 0.1,-0.08 0.06,-0.01 0.1,-0.01 0.13,0.01 0.04,0.01 0.05,0.04 0.04,0.08 0,0.01 -0.01,0.01 -0.01,0.02 -0.03,0.1 -0.08,0.23 -0.15,0.39 -0.07,0.17 -0.15,0.35 -0.23,0.54 -0.09,0.19 -0.18,0.38 -0.29,0.57 -0.1,0.19 -0.22,0.36 -0.34,0.52 -0.12,0.15 -0.25,0.28 -0.37,0.37 -0.13,0.1 -0.26,0.15 -0.4,0.15 -0.14,0 -0.25,-0.06 -0.33,-0.18 -0.09,-0.13 -0.16,-0.31 -0.19,-0.54 -0.04,-0.23 -0.05,-0.5 -0.05,-0.79 0.01,-0.29 0.02,-0.59 0.05,-0.91 0.04,-0.32 0.07,-0.62 0.12,-0.92z"/>
  <path id="8" class="fil9" d="M33.73 36.9c0.03,-0.2 0.06,-0.41 0.1,-0.6 0.03,-0.2 0.07,-0.39 0.11,-0.56 0.04,-0.18 0.08,-0.34 0.12,-0.48 0.03,-0.14 0.06,-0.26 0.08,-0.35 0.02,-0.03 0.04,-0.06 0.07,-0.09 0.04,-0.02 0.08,-0.02 0.12,-0.01 0.07,0.02 0.14,0.04 0.23,0.06 0.08,0.02 0.16,0.05 0.23,0.09 0.07,0.03 0.13,0.07 0.18,0.12 0.05,0.04 0.07,0.09 0.07,0.15 0,0.04 -0.01,0.13 -0.04,0.27 -0.03,0.13 -0.06,0.29 -0.1,0.48 -0.04,0.21 -0.09,0.44 -0.14,0.7 -0.05,0.25 -0.1,0.49 -0.14,0.72 -0.04,0.23 -0.06,0.43 -0.07,0.6 -0.01,0.17 0.01,0.28 0.04,0.33 0.03,0.01 0.05,0.02 0.05,0.02 0.06,0 0.13,-0.04 0.23,-0.13 0.09,-0.09 0.19,-0.2 0.31,-0.35 0.11,-0.16 0.24,-0.34 0.37,-0.55 0.13,-0.21 0.26,-0.44 0.38,-0.69 0.03,-0.07 0.06,-0.11 0.09,-0.11 0.03,-0.01 0.05,-0.01 0.06,0 0.05,0.02 0.06,0.06 0.04,0.12l-0.02 0.04c-0.06,0.19 -0.14,0.43 -0.25,0.71 -0.12,0.29 -0.25,0.57 -0.4,0.83 -0.16,0.27 -0.33,0.5 -0.52,0.7 -0.18,0.19 -0.39,0.28 -0.6,0.28 -0.14,0 -0.25,-0.03 -0.33,-0.11 -0.08,-0.08 -0.15,-0.17 -0.2,-0.28 -0.05,-0.12 -0.08,-0.23 -0.09,-0.36 -0.02,-0.12 -0.03,-0.24 -0.04,-0.34 -0.02,-0.34 0,-0.74 0.06,-1.21zm0.84 -3.62c0.06,-0.14 0.12,-0.22 0.19,-0.24 0.08,-0.01 0.17,-0.01 0.28,0.01 0.14,0.03 0.25,0.09 0.34,0.2 0.09,0.11 0.14,0.22 0.15,0.33 0,0.02 0,0.03 -0.02,0.03 -0.01,0.01 -0.03,0.02 -0.05,0.04 -0.03,0.03 -0.06,0.07 -0.09,0.12 -0.03,0.06 -0.06,0.16 -0.1,0.29 0,0 0,0.02 -0.01,0.07 -0.01,0.05 -0.03,0.1 -0.06,0.15 -0.03,0.05 -0.07,0.1 -0.12,0.13 -0.05,0.04 -0.12,0.04 -0.21,0.03 -0.06,-0.02 -0.13,-0.05 -0.2,-0.09 -0.07,-0.04 -0.12,-0.1 -0.16,-0.18 -0.04,-0.09 -0.06,-0.2 -0.06,-0.34 0.01,-0.14 0.05,-0.32 0.12,-0.55z"/>
  <path id="9" class="fil9" d="M35.15 41.57c0,-0.09 0.01,-0.23 0.03,-0.4 0.02,-0.17 0.04,-0.36 0.07,-0.58 0.03,-0.21 0.06,-0.43 0.1,-0.66 0.04,-0.24 0.08,-0.47 0.12,-0.69 0.04,-0.23 0.07,-0.44 0.11,-0.65 0.03,-0.2 0.06,-0.37 0.09,-0.51 0.06,-0.35 0.13,-0.7 0.19,-1.04 0.07,-0.35 0.13,-0.67 0.19,-0.95 0.06,-0.29 0.11,-0.54 0.16,-0.74 0.04,-0.21 0.07,-0.34 0.09,-0.41 0.01,-0.03 0.04,-0.07 0.07,-0.09 0.04,-0.02 0.08,-0.02 0.11,-0.01 0.07,0.02 0.15,0.04 0.23,0.06 0.09,0.02 0.16,0.05 0.23,0.09 0.07,0.03 0.14,0.07 0.19,0.11 0.05,0.04 0.07,0.09 0.07,0.15 0,0.01 0,0.03 0,0.06 0,0.03 -0.01,0.07 -0.02,0.12 0.3,-0.64 0.65,-0.97 1.05,-0.97 0.23,0 0.42,0.05 0.56,0.15 0.15,0.1 0.26,0.23 0.33,0.39 0.08,0.15 0.13,0.33 0.16,0.52 0.02,0.19 0.03,0.38 0.03,0.57 0,0.34 -0.03,0.69 -0.11,1.06 -0.07,0.36 -0.18,0.69 -0.33,1 -0.16,0.34 -0.33,0.6 -0.53,0.78 -0.19,0.17 -0.39,0.26 -0.6,0.26 -0.15,0 -0.29,-0.03 -0.41,-0.1 -0.12,-0.06 -0.22,-0.15 -0.3,-0.26 -0.09,-0.11 -0.16,-0.23 -0.22,-0.36 -0.05,-0.13 -0.1,-0.26 -0.13,-0.39 -0.08,0.38 -0.16,0.78 -0.23,1.19 -0.07,0.41 -0.14,0.8 -0.21,1.16 -0.06,0.36 -0.11,0.68 -0.15,0.97 -0.04,0.29 -0.06,0.5 -0.06,0.64 0,0.09 -0.01,0.15 -0.03,0.18 -0.02,0.02 -0.05,0.03 -0.11,0.03 -0.19,0 -0.36,-0.05 -0.51,-0.17 -0.15,-0.12 -0.23,-0.29 -0.23,-0.51zm1.64 -4.1c0,0.05 0.02,0.15 0.05,0.29 0.03,0.14 0.07,0.27 0.12,0.41 0.05,0.14 0.11,0.26 0.18,0.37 0.07,0.11 0.14,0.16 0.21,0.16 0.12,0 0.24,-0.08 0.37,-0.24 0.12,-0.16 0.24,-0.38 0.35,-0.68 0.1,-0.27 0.18,-0.55 0.23,-0.85 0.06,-0.29 0.08,-0.57 0.08,-0.83 0,-0.05 0,-0.13 -0.01,-0.22 0,-0.09 -0.02,-0.18 -0.04,-0.27 -0.03,-0.09 -0.07,-0.16 -0.11,-0.22 -0.05,-0.06 -0.12,-0.09 -0.2,-0.09 -0.14,0 -0.26,0.06 -0.38,0.19 -0.12,0.12 -0.23,0.27 -0.33,0.45 -0.1,0.18 -0.18,0.36 -0.26,0.55 -0.07,0.18 -0.12,0.34 -0.16,0.47 -0.02,0.08 -0.03,0.16 -0.05,0.25 -0.02,0.08 -0.04,0.17 -0.05,0.26z"/>
  <path id="10" class="fil9" d="M39.62 36.9c0.03,-0.2 0.06,-0.41 0.09,-0.6 0.03,-0.2 0.06,-0.39 0.1,-0.56 0.03,-0.18 0.07,-0.34 0.11,-0.48 0.04,-0.15 0.07,-0.26 0.1,-0.35 0.04,-0.08 0.1,-0.12 0.2,-0.1 0.07,0.01 0.14,0.03 0.22,0.06 0.08,0.02 0.16,0.05 0.23,0.09 0.08,0.03 0.14,0.07 0.18,0.12 0.05,0.04 0.08,0.09 0.08,0.15 0,0.04 -0.02,0.13 -0.05,0.27 -0.03,0.13 -0.06,0.29 -0.1,0.48 -0.04,0.21 -0.09,0.44 -0.13,0.69 -0.05,0.25 -0.09,0.49 -0.12,0.72 -0.04,0.22 -0.06,0.42 -0.07,0.59 -0.01,0.17 0,0.28 0.02,0.34 0.02,0.02 0.03,0.03 0.05,0.03 0.05,0 0.13,-0.06 0.23,-0.18 0.1,-0.12 0.2,-0.27 0.31,-0.45 0.11,-0.17 0.21,-0.36 0.31,-0.55 0.09,-0.19 0.16,-0.36 0.2,-0.49 0.06,-0.4 0.12,-0.77 0.19,-1.09 0.07,-0.32 0.13,-0.55 0.18,-0.68 0.03,-0.08 0.1,-0.12 0.19,-0.1 0.07,0.01 0.15,0.03 0.23,0.06 0.09,0.02 0.16,0.05 0.23,0.09 0.08,0.03 0.14,0.07 0.19,0.12 0.05,0.04 0.07,0.09 0.07,0.15 0,0.04 -0.01,0.13 -0.03,0.27 -0.03,0.13 -0.07,0.29 -0.11,0.48 -0.05,0.21 -0.1,0.44 -0.16,0.7 -0.05,0.26 -0.1,0.5 -0.14,0.72 -0.04,0.23 -0.06,0.43 -0.06,0.6 -0.01,0.17 0.01,0.28 0.05,0.32 0.02,0.02 0.04,0.03 0.05,0.03 0.05,0 0.12,-0.04 0.21,-0.13 0.09,-0.09 0.19,-0.2 0.31,-0.35 0.11,-0.16 0.24,-0.34 0.36,-0.55 0.13,-0.21 0.26,-0.44 0.4,-0.69 0.04,-0.07 0.07,-0.11 0.1,-0.11 0.03,-0.01 0.04,-0.01 0.05,0 0.05,0.02 0.06,0.06 0.04,0.12l0 0.01c0,0.01 0,0.02 -0.01,0.03 -0.09,0.18 -0.19,0.41 -0.31,0.7 -0.11,0.28 -0.24,0.56 -0.39,0.83 -0.14,0.27 -0.3,0.51 -0.48,0.7 -0.18,0.2 -0.38,0.29 -0.6,0.29 -0.15,0 -0.27,-0.05 -0.37,-0.15 -0.1,-0.12 -0.18,-0.29 -0.23,-0.52 -0.05,-0.23 -0.07,-0.52 -0.06,-0.86 -0.04,0.12 -0.1,0.27 -0.18,0.44 -0.08,0.17 -0.18,0.34 -0.29,0.5 -0.11,0.17 -0.23,0.31 -0.36,0.42 -0.14,0.12 -0.28,0.17 -0.43,0.17 -0.14,0 -0.25,-0.03 -0.33,-0.11 -0.08,-0.08 -0.15,-0.17 -0.2,-0.28 -0.04,-0.12 -0.08,-0.23 -0.1,-0.36 -0.02,-0.12 -0.03,-0.24 -0.04,-0.34 -0.01,-0.17 -0.01,-0.35 0,-0.55 0.02,-0.2 0.04,-0.42 0.07,-0.66z"/>
  <path id="11" class="fil9" d="M43.64 37.59c0,-0.34 0.04,-0.7 0.12,-1.06 0.08,-0.36 0.19,-0.69 0.33,-1 0.16,-0.34 0.33,-0.6 0.52,-0.78 0.2,-0.18 0.4,-0.27 0.6,-0.27 0.32,0 0.55,0.1 0.69,0.29 0.09,0.12 0.14,0.26 0.17,0.41 0.02,0.15 0.03,0.29 0.03,0.42 -0.01,0.12 -0.02,0.23 -0.04,0.33 -0.02,0.09 -0.03,0.14 -0.03,0.15 0,0 -0.01,0 -0.04,0.01 -0.03,0.01 -0.06,0.02 -0.1,0.03 -0.03,0.01 -0.07,0.02 -0.1,0.02 -0.04,0 -0.07,0 -0.09,-0.02 -0.01,-0.01 -0.02,-0.02 -0.02,-0.04 0,-0.04 0.01,-0.08 0.02,-0.12 0.01,-0.05 0.02,-0.1 0.03,-0.16 0.03,-0.14 0.05,-0.28 0.07,-0.43 0.02,-0.16 0,-0.27 -0.06,-0.34 -0.02,-0.04 -0.06,-0.06 -0.12,-0.06 -0.13,0 -0.26,0.08 -0.38,0.24 -0.13,0.16 -0.24,0.39 -0.35,0.68 -0.1,0.27 -0.17,0.56 -0.23,0.85 -0.06,0.3 -0.09,0.57 -0.09,0.82 0,0.06 0,0.14 0.01,0.23 0.01,0.09 0.02,0.18 0.05,0.27 0.02,0.08 0.06,0.16 0.11,0.22 0.05,0.07 0.11,0.1 0.2,0.1 0.12,0 0.24,-0.05 0.35,-0.14 0.12,-0.11 0.27,-0.3 0.45,-0.58 0.18,-0.27 0.36,-0.61 0.55,-1.03 0.02,-0.04 0.05,-0.07 0.1,-0.08 0.05,-0.01 0.09,-0.01 0.12,0.01 0.04,0.01 0.06,0.04 0.05,0.08 0,0.01 -0.01,0.01 -0.01,0.02 -0.05,0.15 -0.14,0.37 -0.26,0.65 -0.11,0.28 -0.25,0.57 -0.41,0.85 -0.16,0.28 -0.33,0.52 -0.52,0.73 -0.19,0.21 -0.39,0.31 -0.6,0.31l-0.01 0c-0.26,0 -0.43,-0.04 -0.5,-0.12 -0.13,-0.07 -0.23,-0.16 -0.31,-0.27 -0.08,-0.12 -0.14,-0.24 -0.18,-0.37 -0.05,-0.14 -0.08,-0.28 -0.09,-0.43 -0.02,-0.14 -0.03,-0.28 -0.03,-0.42z"/>
  <path id="12" class="fil9" d="M46.63 35.51c0.16,-0.34 0.33,-0.6 0.53,-0.78 0.19,-0.18 0.4,-0.27 0.61,-0.27 0.24,0 0.43,0.09 0.57,0.27 0.12,0.13 0.21,0.32 0.27,0.57 0.02,-0.07 0.04,-0.14 0.06,-0.21 0.02,-0.06 0.03,-0.12 0.05,-0.18 0.01,-0.03 0.03,-0.06 0.07,-0.09 0.03,-0.02 0.07,-0.02 0.11,-0.01 0.07,0.02 0.15,0.04 0.23,0.06 0.08,0.02 0.16,0.05 0.23,0.09 0.07,0.03 0.13,0.07 0.18,0.12 0.05,0.04 0.08,0.09 0.08,0.15 0,0.04 -0.02,0.13 -0.04,0.27 -0.03,0.13 -0.07,0.29 -0.11,0.48 -0.04,0.21 -0.09,0.44 -0.14,0.7 -0.05,0.25 -0.1,0.49 -0.13,0.72 -0.04,0.23 -0.07,0.43 -0.08,0.6 -0.01,0.17 0.01,0.28 0.05,0.33 0.02,0.01 0.04,0.02 0.05,0.02 0.07,0 0.14,-0.04 0.22,-0.11 0.07,-0.07 0.15,-0.16 0.23,-0.27 0.08,-0.11 0.16,-0.23 0.25,-0.37 0.08,-0.13 0.15,-0.26 0.22,-0.39 0.07,-0.13 0.13,-0.25 0.18,-0.35 0.05,-0.11 0.08,-0.18 0.1,-0.23 0.02,-0.04 0.06,-0.07 0.1,-0.08 0.05,-0.01 0.09,-0.01 0.12,0.01 0.04,0.01 0.06,0.04 0.05,0.08 0,0.01 -0.01,0.01 -0.01,0.02 -0.05,0.15 -0.13,0.37 -0.25,0.65 -0.12,0.28 -0.26,0.57 -0.41,0.85 -0.16,0.28 -0.33,0.52 -0.53,0.73 -0.19,0.21 -0.39,0.31 -0.59,0.31 -0.39,0 -0.6,-0.34 -0.65,-1.02 -0.25,0.67 -0.57,1.01 -0.98,1.01 -0.23,0 -0.41,-0.05 -0.55,-0.15 -0.14,-0.1 -0.25,-0.23 -0.33,-0.39 -0.08,-0.15 -0.13,-0.33 -0.16,-0.52 -0.03,-0.19 -0.05,-0.38 -0.05,-0.56 0,-0.34 0.04,-0.7 0.12,-1.06 0.08,-0.36 0.19,-0.69 0.33,-1zm0.85 2.85c0.13,0 0.24,-0.05 0.33,-0.16 0.09,-0.1 0.17,-0.23 0.23,-0.37 0.07,-0.15 0.12,-0.3 0.16,-0.45 0.04,-0.15 0.08,-0.28 0.09,-0.37 0.02,-0.14 0.03,-0.29 0.06,-0.44 0.02,-0.14 0.05,-0.3 0.08,-0.46 0,-0.37 -0.02,-0.66 -0.07,-0.86 -0.04,-0.2 -0.11,-0.3 -0.2,-0.3 -0.13,0 -0.25,0.08 -0.38,0.24 -0.12,0.16 -0.24,0.39 -0.35,0.68 -0.1,0.27 -0.17,0.56 -0.23,0.85 -0.06,0.3 -0.09,0.57 -0.09,0.82 0,0.06 0.01,0.14 0.01,0.23 0.01,0.09 0.03,0.18 0.05,0.27 0.03,0.08 0.06,0.16 0.11,0.22 0.05,0.07 0.12,0.1 0.2,0.1z"/>
  <path id="13" class="fil9" d="M50.4 36.88c0.03,-0.23 0.06,-0.45 0.11,-0.67 0.04,-0.22 0.08,-0.42 0.12,-0.59 0.04,-0.18 0.08,-0.34 0.12,-0.47 0.03,-0.14 0.06,-0.24 0.09,-0.29 0.03,-0.09 0.09,-0.12 0.19,-0.1 0.04,0.01 0.1,0.02 0.16,0.04 0.07,0.03 0.13,0.05 0.19,0.09 0.06,0.03 0.11,0.07 0.16,0.12 0.04,0.04 0.06,0.1 0.06,0.16 0,0.05 -0.01,0.15 -0.04,0.31 -0.03,0.15 -0.06,0.34 -0.09,0.56 -0.03,0.21 -0.07,0.43 -0.11,0.65 -0.03,0.23 -0.07,0.45 -0.1,0.65 -0.03,0.17 -0.04,0.32 -0.05,0.46 -0.01,0.14 -0.01,0.25 -0.01,0.33 0.03,-0.19 0.1,-0.44 0.21,-0.73 0.11,-0.29 0.24,-0.6 0.38,-0.91 0.15,-0.31 0.3,-0.6 0.46,-0.89 0.16,-0.28 0.3,-0.51 0.42,-0.69 0.25,-0.34 0.45,-0.51 0.61,-0.51l0.02 0c0.01,0 0.01,0 0.02,0 0,0 0,0.01 0.01,0.01 0.07,0.01 0.15,0.03 0.23,0.05 0.08,0.03 0.16,0.06 0.23,0.1 0.07,0.03 0.13,0.07 0.18,0.12 0.06,0.04 0.08,0.09 0.08,0.15 0,0.04 -0.01,0.13 -0.04,0.28 -0.03,0.14 -0.07,0.32 -0.11,0.52 -0.05,0.25 -0.11,0.53 -0.17,0.82 -0.05,0.29 -0.1,0.57 -0.14,0.83 -0.05,0.27 -0.07,0.49 -0.08,0.69 -0.01,0.19 0,0.31 0.04,0.36 0.01,0.01 0.03,0.02 0.04,0.02 0.06,0 0.13,-0.04 0.23,-0.13 0.09,-0.09 0.19,-0.2 0.31,-0.35 0.11,-0.16 0.24,-0.34 0.37,-0.55 0.13,-0.21 0.25,-0.44 0.38,-0.69 0.03,-0.07 0.06,-0.11 0.09,-0.11 0.03,-0.01 0.05,-0.01 0.06,0 0.04,0.02 0.06,0.06 0.04,0.12l0 0.01c-0.01,0.01 -0.01,0.02 -0.01,0.03 -0.07,0.19 -0.15,0.43 -0.27,0.71 -0.11,0.29 -0.24,0.57 -0.39,0.83 -0.16,0.27 -0.33,0.5 -0.52,0.7 -0.19,0.19 -0.39,0.28 -0.6,0.28 -0.16,0 -0.28,-0.06 -0.38,-0.19 -0.09,-0.11 -0.15,-0.27 -0.19,-0.47 -0.04,-0.2 -0.06,-0.41 -0.06,-0.65 -0.01,-0.24 0,-0.49 0.02,-0.74 0.03,-0.26 0.06,-0.51 0.09,-0.75 0.04,-0.24 0.07,-0.46 0.11,-0.66 0.04,-0.21 0.07,-0.37 0.1,-0.49 -0.08,0.1 -0.17,0.23 -0.26,0.39 -0.1,0.16 -0.19,0.33 -0.29,0.52 -0.1,0.19 -0.19,0.38 -0.28,0.59 -0.1,0.21 -0.18,0.42 -0.26,0.63 -0.08,0.23 -0.15,0.44 -0.19,0.62 -0.05,0.19 -0.1,0.35 -0.13,0.48 -0.07,0.25 -0.13,0.43 -0.18,0.54 -0.04,0.12 -0.11,0.17 -0.21,0.17 -0.24,0 -0.44,-0.09 -0.58,-0.28 -0.26,-0.35 -0.32,-1.02 -0.19,-2.03z"/>
  <path id="14" class="fil9" d="M55.25 35.51c0.15,-0.34 0.33,-0.6 0.52,-0.78 0.2,-0.18 0.4,-0.27 0.6,-0.27 0.25,0 0.45,0.09 0.59,0.27 0.12,0.13 0.21,0.32 0.27,0.57 0.02,-0.07 0.03,-0.14 0.05,-0.21 0.02,-0.06 0.04,-0.12 0.05,-0.18 0.01,-0.03 0.04,-0.06 0.07,-0.09 0.04,-0.02 0.08,-0.02 0.11,-0.01 0.06,0.01 0.13,0.03 0.2,0.05 0.07,0.02 0.14,0.04 0.2,0.06 0.07,0.03 0.13,0.06 0.19,0.09 0.06,0.03 0.1,0.07 0.11,0.11 0.02,0.04 0.03,0.08 0.02,0.11 -0.1,0.41 -0.18,0.84 -0.25,1.29 -0.06,0.44 -0.12,0.9 -0.19,1.35l-0.08 0.63c0.18,-0.16 0.38,-0.41 0.62,-0.75 0.24,-0.33 0.46,-0.7 0.66,-1.12 0.05,-0.1 0.11,-0.14 0.18,-0.11 0.06,0.02 0.08,0.06 0.06,0.12 -0.04,0.1 -0.1,0.28 -0.2,0.52 -0.09,0.24 -0.21,0.5 -0.35,0.78 -0.14,0.27 -0.31,0.54 -0.5,0.8 -0.19,0.26 -0.39,0.46 -0.61,0.6 -0.08,0.5 -0.17,0.91 -0.25,1.25 -0.09,0.34 -0.19,0.62 -0.3,0.86 -0.28,0.57 -0.64,0.86 -1.1,0.86l-0.03 0c-0.21,0 -0.38,-0.07 -0.51,-0.2 -0.13,-0.14 -0.22,-0.34 -0.25,-0.59 -0.04,-0.23 -0.02,-0.47 0.03,-0.73 0.06,-0.26 0.15,-0.5 0.28,-0.73 0.15,-0.27 0.33,-0.49 0.54,-0.67 0.22,-0.18 0.45,-0.3 0.71,-0.37 0.01,-0.09 0.02,-0.18 0.03,-0.28 0.01,-0.1 0.02,-0.2 0.04,-0.31 -0.23,0.51 -0.52,0.76 -0.87,0.76 -0.23,0 -0.41,-0.05 -0.56,-0.14 -0.14,-0.1 -0.25,-0.23 -0.33,-0.39 -0.08,-0.16 -0.13,-0.33 -0.16,-0.52 -0.03,-0.19 -0.04,-0.38 -0.04,-0.57 0,-0.34 0.04,-0.7 0.11,-1.06 0.08,-0.36 0.19,-0.69 0.34,-1zm0.84 2.85c0.13,0 0.23,-0.05 0.33,-0.16 0.09,-0.1 0.17,-0.23 0.24,-0.38 0.06,-0.15 0.12,-0.3 0.16,-0.45 0.04,-0.15 0.07,-0.27 0.09,-0.36 0,-0.02 0,-0.04 0.01,-0.05 0.01,-0.13 0.03,-0.27 0.05,-0.41 0.02,-0.14 0.05,-0.29 0.07,-0.44 0,-0.37 -0.02,-0.66 -0.07,-0.86 -0.05,-0.2 -0.11,-0.3 -0.2,-0.3 -0.13,0 -0.25,0.08 -0.37,0.24 -0.13,0.16 -0.24,0.39 -0.35,0.68 -0.1,0.27 -0.18,0.56 -0.23,0.85 -0.06,0.3 -0.09,0.57 -0.09,0.82 0,0.06 0,0.14 0.01,0.23 0.01,0.09 0.02,0.18 0.05,0.27 0.02,0.08 0.06,0.16 0.11,0.22 0.05,0.07 0.11,0.1 0.19,0.1zm-0.3 3.01l0 0.07 0.01 0c0.12,0 0.23,-0.07 0.32,-0.22 0.09,-0.14 0.17,-0.31 0.23,-0.5 0.06,-0.19 0.11,-0.38 0.15,-0.57 0.04,-0.19 0.06,-0.33 0.07,-0.41 -0.25,0.13 -0.44,0.33 -0.58,0.61 -0.13,0.28 -0.2,0.62 -0.2,1.02z"/>
  <path id="15" class="fil9" d="M60.99 34.13c0.04,-0.17 0.11,-0.33 0.23,-0.5 0.12,-0.16 0.26,-0.32 0.42,-0.47 0.17,-0.15 0.35,-0.28 0.54,-0.41 0.19,-0.12 0.38,-0.23 0.56,-0.32 0.18,-0.1 0.35,-0.17 0.52,-0.23 0.16,-0.05 0.3,-0.08 0.4,-0.08l0.06 0c0.06,0.02 0.12,0.04 0.19,0.08 0.07,0.05 0.13,0.09 0.18,0.14 0.05,0.05 0.09,0.11 0.12,0.16 0.03,0.05 0.05,0.09 0.04,0.13 -0.12,0.59 -0.24,1.18 -0.37,1.76 -0.13,0.58 -0.25,1.12 -0.35,1.61 -0.11,0.49 -0.19,0.92 -0.24,1.28 -0.06,0.37 -0.07,0.63 -0.05,0.78 0.02,0.07 0.06,0.1 0.12,0.1 0.07,0 0.17,-0.04 0.28,-0.12 0.1,-0.07 0.22,-0.21 0.35,-0.4 0.13,-0.19 0.27,-0.45 0.42,-0.78 0.16,-0.33 0.31,-0.75 0.47,-1.25 0.07,-0.29 0.13,-0.55 0.2,-0.81 0.07,-0.26 0.14,-0.49 0.2,-0.7 0.05,-0.2 0.1,-0.38 0.14,-0.52 0.05,-0.15 0.07,-0.25 0.09,-0.31 0.02,-0.09 0.08,-0.12 0.18,-0.11 0.06,0.01 0.12,0.04 0.19,0.08 0.06,0.04 0.12,0.09 0.17,0.14 0.05,0.05 0.1,0.1 0.13,0.15 0.03,0.05 0.04,0.1 0.04,0.14 -0.12,0.59 -0.24,1.14 -0.36,1.64 -0.13,0.51 -0.23,0.95 -0.32,1.33 -0.09,0.39 -0.15,0.7 -0.18,0.96 -0.04,0.25 -0.02,0.42 0.04,0.52 0.02,0.02 0.05,0.04 0.09,0.04 0.07,0 0.18,-0.1 0.32,-0.29 0.14,-0.2 0.3,-0.46 0.47,-0.77 0.18,-0.32 0.35,-0.68 0.54,-1.09 0.18,-0.4 0.34,-0.82 0.49,-1.24 0.15,-0.42 0.27,-0.84 0.36,-1.24 0.1,-0.41 0.15,-0.77 0.15,-1.09 0,-0.1 -0.03,-0.18 -0.07,-0.26 -0.05,-0.08 -0.12,-0.13 -0.2,-0.15 -0.03,-0.02 -0.05,-0.04 -0.06,-0.07 0,-0.02 0.01,-0.05 0.03,-0.07 0.02,-0.02 0.06,-0.04 0.11,-0.05 0.03,-0.02 0.09,-0.03 0.16,-0.04 0.07,-0.02 0.16,-0.02 0.28,-0.02 0.06,0 0.12,0.02 0.19,0.05 0.07,0.04 0.13,0.08 0.19,0.14 0.06,0.06 0.11,0.13 0.15,0.21 0.03,0.08 0.05,0.16 0.05,0.26 0,0.18 -0.02,0.41 -0.08,0.7 -0.05,0.29 -0.13,0.61 -0.23,0.95 -0.1,0.35 -0.22,0.72 -0.36,1.1 -0.14,0.39 -0.29,0.77 -0.46,1.14 -0.17,0.37 -0.35,0.73 -0.55,1.07 -0.19,0.34 -0.39,0.64 -0.6,0.89 -0.2,0.26 -0.42,0.46 -0.63,0.62 -0.22,0.15 -0.44,0.23 -0.66,0.23 0,0 -0.03,-0.01 -0.09,-0.04 -0.06,-0.02 -0.12,-0.06 -0.18,-0.13 -0.07,-0.07 -0.13,-0.16 -0.19,-0.28 -0.05,-0.12 -0.09,-0.27 -0.09,-0.47 -0.02,-0.22 -0.01,-0.47 0.03,-0.75 -0.11,0.23 -0.22,0.45 -0.34,0.65 -0.12,0.21 -0.25,0.38 -0.39,0.53 -0.14,0.15 -0.28,0.27 -0.43,0.36 -0.16,0.08 -0.32,0.13 -0.49,0.13l-0.01 0c-0.01,0 -0.04,-0.01 -0.1,-0.04 -0.06,-0.02 -0.12,-0.06 -0.19,-0.13 -0.06,-0.07 -0.13,-0.16 -0.18,-0.28 -0.06,-0.12 -0.09,-0.27 -0.1,-0.47 -0.01,-0.2 0.01,-0.45 0.04,-0.74 0.04,-0.3 0.09,-0.61 0.15,-0.95 0.06,-0.33 0.13,-0.68 0.2,-1.04 0.08,-0.36 0.16,-0.71 0.24,-1.05 0.09,-0.33 0.17,-0.65 0.24,-0.95 0.07,-0.29 0.14,-0.54 0.2,-0.74 -0.22,0.05 -0.43,0.16 -0.65,0.32 -0.22,0.15 -0.42,0.33 -0.58,0.54 -0.17,0.2 -0.3,0.41 -0.39,0.63 -0.09,0.23 -0.11,0.44 -0.05,0.63 0.03,0.14 0.01,0.22 -0.08,0.22 -0.06,0 -0.13,-0.03 -0.22,-0.09 -0.08,-0.06 -0.16,-0.13 -0.24,-0.22 -0.07,-0.1 -0.13,-0.2 -0.17,-0.31 -0.05,-0.11 -0.06,-0.23 -0.03,-0.34z"/>
  <path id="16" class="fil9" d="M67.99 37.59c0,-0.22 0.02,-0.46 0.06,-0.72 0.05,-0.26 0.11,-0.52 0.19,-0.77 0.08,-0.26 0.18,-0.5 0.3,-0.73 0.13,-0.23 0.27,-0.43 0.44,-0.59 0.2,-0.2 0.42,-0.3 0.64,-0.3 0.25,0 0.44,0.06 0.6,0.18 0.15,0.11 0.24,0.29 0.27,0.54 0.01,0.19 -0.03,0.41 -0.11,0.65 -0.08,0.24 -0.19,0.47 -0.35,0.7 -0.16,0.23 -0.33,0.41 -0.52,0.55 -0.19,0.14 -0.39,0.23 -0.58,0.26 -0.02,0.46 0.03,0.77 0.17,0.93 0.06,0.06 0.12,0.09 0.2,0.09 0.12,0 0.23,-0.05 0.34,-0.14 0.12,-0.11 0.27,-0.3 0.45,-0.58 0.18,-0.27 0.36,-0.61 0.55,-1.03 0.02,-0.04 0.05,-0.07 0.1,-0.08 0.06,-0.01 0.1,-0.01 0.13,0.01 0.04,0.01 0.05,0.04 0.04,0.08 0,0.01 -0.01,0.01 -0.01,0.02 -0.03,0.1 -0.08,0.23 -0.15,0.39 -0.07,0.17 -0.14,0.35 -0.23,0.54 -0.09,0.19 -0.18,0.38 -0.29,0.57 -0.1,0.19 -0.22,0.36 -0.34,0.52 -0.12,0.15 -0.25,0.28 -0.37,0.37 -0.13,0.1 -0.26,0.15 -0.4,0.15l-0.02 0c-0.27,0 -0.44,-0.04 -0.5,-0.12 -0.13,-0.07 -0.23,-0.16 -0.31,-0.27 -0.08,-0.12 -0.14,-0.24 -0.18,-0.37 -0.05,-0.14 -0.08,-0.28 -0.09,-0.43 -0.02,-0.14 -0.03,-0.28 -0.03,-0.42zm0.98 -0.61c0.12,-0.03 0.25,-0.12 0.38,-0.27 0.14,-0.15 0.27,-0.34 0.39,-0.57 0.11,-0.2 0.19,-0.4 0.25,-0.6 0.05,-0.19 0.08,-0.34 0.06,-0.44 0,-0.09 -0.03,-0.13 -0.09,-0.13 -0.11,0 -0.22,0.06 -0.32,0.18 -0.1,0.12 -0.2,0.27 -0.28,0.46 -0.09,0.19 -0.16,0.4 -0.23,0.64 -0.07,0.24 -0.12,0.48 -0.16,0.73z"/>
  <path id="17" class="fil9" d="M69.33 33.44c0.02,-0.12 0.07,-0.18 0.14,-0.19 0.03,-0.01 0.05,-0.01 0.06,0 0.01,0 0.02,0.01 0.03,0.02 0.07,0.07 0.18,0.11 0.31,0.12 0.13,0.01 0.24,0.02 0.33,0.02 0.14,0 0.3,-0.01 0.47,-0.02 0.17,-0.01 0.36,-0.03 0.55,-0.06 0.04,-0.18 0.08,-0.33 0.11,-0.45 0.02,-0.13 0.05,-0.22 0.08,-0.29 0.03,-0.09 0.09,-0.12 0.19,-0.1 0.07,0.01 0.14,0.03 0.22,0.06 0.08,0.02 0.16,0.05 0.23,0.09 0.08,0.03 0.14,0.07 0.19,0.12 0.04,0.04 0.07,0.09 0.07,0.15 0,0.01 0,0.04 -0.01,0.09 -0.01,0.05 -0.02,0.11 -0.03,0.19 0.41,-0.09 0.85,-0.15 1.31,-0.21 0.46,-0.05 0.9,-0.08 1.32,-0.08 0.11,0 0.24,0.01 0.36,0.02 0.13,0.01 0.25,0.04 0.37,0.08 0.11,0.03 0.22,0.09 0.31,0.16 0.1,0.08 0.18,0.17 0.24,0.29 0.05,0.09 0.07,0.18 0.07,0.27 0,0.09 0,0.16 -0.02,0.23 -0.01,0.1 -0.04,0.18 -0.09,0.25 -0.05,0.06 -0.09,0.09 -0.13,0.09 -0.01,0 -0.02,0 -0.02,-0.01 0,0 -0.01,-0.02 -0.01,-0.04 0.02,-0.01 0.02,-0.02 0,-0.03 -0.13,-0.14 -0.34,-0.24 -0.63,-0.3 -0.28,-0.05 -0.61,-0.08 -0.98,-0.08 -0.29,0 -0.59,0.01 -0.9,0.03 -0.31,0.03 -0.62,0.05 -0.94,0.08 -0.07,0.01 -0.14,0.02 -0.21,0.02 -0.07,0 -0.14,0.01 -0.21,0.01 -0.01,0.03 -0.01,0.05 -0.02,0.07 0,0.02 -0.01,0.04 -0.01,0.07 -0.05,0.25 -0.11,0.52 -0.16,0.81 -0.06,0.3 -0.12,0.6 -0.18,0.9 -0.06,0.31 -0.12,0.6 -0.17,0.88 -0.05,0.29 -0.09,0.55 -0.12,0.78 -0.04,0.23 -0.06,0.42 -0.06,0.57 -0.01,0.16 0,0.25 0.03,0.29 0,0.01 0.01,0.01 0.03,0.01 0.06,0 0.13,-0.04 0.21,-0.11 0.07,-0.07 0.15,-0.16 0.23,-0.27 0.08,-0.11 0.16,-0.23 0.25,-0.37 0.08,-0.13 0.15,-0.26 0.22,-0.39 0.07,-0.13 0.13,-0.25 0.18,-0.35 0.05,-0.11 0.09,-0.18 0.1,-0.23 0.02,-0.04 0.06,-0.07 0.11,-0.08 0.05,-0.01 0.09,-0.01 0.12,0.01 0.05,0.01 0.06,0.04 0.04,0.08l0 0.02c-0.05,0.15 -0.13,0.37 -0.25,0.65 -0.12,0.28 -0.26,0.57 -0.41,0.85 -0.16,0.28 -0.33,0.52 -0.53,0.73 -0.19,0.21 -0.39,0.31 -0.59,0.31 -0.12,0 -0.23,-0.05 -0.32,-0.17 -0.09,-0.13 -0.16,-0.31 -0.19,-0.56 -0.04,-0.25 -0.05,-0.52 -0.05,-0.83 0.01,-0.31 0.03,-0.63 0.07,-0.97 0.04,-0.34 0.08,-0.66 0.12,-0.97 0.05,-0.29 0.1,-0.58 0.15,-0.86 0.06,-0.28 0.11,-0.55 0.16,-0.8 -0.32,0.01 -0.61,0.01 -0.87,-0.01 -0.26,-0.02 -0.48,-0.07 -0.65,-0.15 -0.09,-0.04 -0.15,-0.1 -0.18,-0.19 -0.04,-0.08 -0.05,-0.17 -0.04,-0.25z"/>
  <path id="18" class="fil9" d="M73.01 35.51c0.15,-0.34 0.33,-0.6 0.52,-0.78 0.2,-0.18 0.4,-0.27 0.61,-0.27 0.24,0 0.44,0.09 0.58,0.27 0.12,0.13 0.21,0.32 0.27,0.57 0.01,-0.07 0.03,-0.14 0.05,-0.21 0.02,-0.06 0.04,-0.12 0.05,-0.18 0.01,-0.03 0.04,-0.06 0.07,-0.09 0.04,-0.02 0.07,-0.02 0.11,-0.01 0.07,0.02 0.15,0.04 0.23,0.06 0.09,0.02 0.16,0.05 0.23,0.09 0.07,0.03 0.13,0.07 0.19,0.12 0.05,0.04 0.07,0.09 0.07,0.15 0,0.04 -0.01,0.13 -0.04,0.27 -0.03,0.13 -0.06,0.29 -0.1,0.48 -0.05,0.21 -0.09,0.44 -0.15,0.7 -0.05,0.25 -0.09,0.49 -0.13,0.72 -0.04,0.23 -0.06,0.43 -0.07,0.6 -0.01,0.17 0,0.28 0.04,0.33 0.03,0.01 0.05,0.02 0.06,0.02 0.06,0 0.13,-0.04 0.21,-0.11 0.08,-0.07 0.16,-0.16 0.24,-0.27 0.08,-0.11 0.16,-0.23 0.24,-0.37 0.08,-0.13 0.16,-0.26 0.23,-0.39 0.06,-0.13 0.12,-0.25 0.17,-0.35 0.05,-0.11 0.09,-0.18 0.11,-0.23 0.02,-0.04 0.05,-0.07 0.1,-0.08 0.05,-0.01 0.09,-0.01 0.12,0.01 0.04,0.01 0.05,0.04 0.05,0.08 -0.01,0.01 -0.01,0.01 -0.01,0.02 -0.05,0.15 -0.14,0.37 -0.26,0.65 -0.11,0.28 -0.25,0.57 -0.41,0.85 -0.16,0.28 -0.33,0.52 -0.52,0.73 -0.19,0.21 -0.39,0.31 -0.6,0.31 -0.38,0 -0.6,-0.34 -0.65,-1.02 -0.24,0.67 -0.57,1.01 -0.98,1.01 -0.22,0 -0.4,-0.05 -0.54,-0.15 -0.15,-0.1 -0.26,-0.23 -0.34,-0.39 -0.08,-0.15 -0.13,-0.33 -0.16,-0.52 -0.03,-0.19 -0.04,-0.38 -0.04,-0.56 0,-0.34 0.04,-0.7 0.12,-1.06 0.08,-0.36 0.19,-0.69 0.33,-1zm0.84 2.85c0.13,0 0.24,-0.05 0.33,-0.16 0.1,-0.1 0.18,-0.23 0.24,-0.37 0.06,-0.15 0.12,-0.3 0.16,-0.45 0.04,-0.15 0.07,-0.28 0.09,-0.37 0.01,-0.14 0.03,-0.29 0.05,-0.44 0.02,-0.14 0.05,-0.3 0.08,-0.46 0,-0.37 -0.02,-0.66 -0.06,-0.86 -0.05,-0.2 -0.12,-0.3 -0.21,-0.3 -0.12,0 -0.25,0.08 -0.37,0.24 -0.13,0.16 -0.25,0.39 -0.35,0.68 -0.1,0.27 -0.18,0.56 -0.24,0.85 -0.05,0.3 -0.08,0.57 -0.08,0.82 0,0.06 0,0.14 0.01,0.23 0,0.09 0.02,0.18 0.05,0.27 0.02,0.08 0.06,0.16 0.11,0.22 0.04,0.07 0.11,0.1 0.19,0.1z"/>
  <path id="19" class="fil9" d="M76.77 36.88c0.03,-0.23 0.07,-0.45 0.11,-0.67 0.04,-0.22 0.08,-0.42 0.12,-0.59 0.05,-0.18 0.08,-0.34 0.12,-0.47 0.04,-0.14 0.07,-0.24 0.09,-0.29 0.03,-0.09 0.1,-0.12 0.19,-0.1 0.05,0.01 0.1,0.02 0.17,0.04 0.06,0.03 0.12,0.05 0.18,0.09 0.06,0.03 0.12,0.07 0.16,0.12 0.05,0.04 0.07,0.1 0.07,0.16 0,0.05 -0.02,0.15 -0.04,0.31 -0.03,0.15 -0.06,0.34 -0.1,0.56 -0.03,0.21 -0.06,0.43 -0.1,0.65 -0.04,0.23 -0.07,0.45 -0.11,0.65 -0.02,0.17 -0.04,0.32 -0.04,0.46 -0.01,0.14 -0.01,0.25 -0.01,0.33 0.03,-0.19 0.1,-0.44 0.21,-0.73 0.11,-0.29 0.23,-0.6 0.38,-0.91 0.14,-0.31 0.29,-0.6 0.45,-0.89 0.16,-0.28 0.3,-0.51 0.42,-0.69 0.25,-0.34 0.46,-0.51 0.62,-0.51l0.02 0c0,0 0.01,0 0.01,0 0,0 0.01,0.01 0.02,0.01 0.07,0.01 0.14,0.03 0.23,0.05 0.08,0.03 0.16,0.06 0.23,0.1 0.07,0.03 0.13,0.07 0.18,0.12 0.05,0.04 0.08,0.09 0.08,0.15 0,0.04 -0.02,0.13 -0.05,0.28 -0.03,0.14 -0.06,0.32 -0.11,0.52 -0.05,0.25 -0.1,0.53 -0.16,0.82 -0.06,0.29 -0.11,0.57 -0.15,0.83 -0.04,0.27 -0.07,0.49 -0.08,0.69 -0.01,0.19 0.01,0.31 0.05,0.36 0.01,0.01 0.02,0.02 0.03,0.02 0.06,0 0.14,-0.04 0.23,-0.13 0.09,-0.09 0.2,-0.2 0.31,-0.35 0.12,-0.16 0.24,-0.34 0.37,-0.55 0.13,-0.21 0.26,-0.44 0.38,-0.69 0.03,-0.07 0.06,-0.11 0.09,-0.11 0.03,-0.01 0.05,-0.01 0.06,0 0.05,0.02 0.06,0.06 0.04,0.12l0 0.01c0,0.01 -0.01,0.02 -0.01,0.03 -0.06,0.19 -0.15,0.43 -0.26,0.71 -0.11,0.29 -0.25,0.57 -0.4,0.83 -0.15,0.27 -0.32,0.5 -0.51,0.7 -0.19,0.19 -0.39,0.28 -0.6,0.28 -0.16,0 -0.29,-0.06 -0.39,-0.19 -0.09,-0.11 -0.15,-0.27 -0.19,-0.47 -0.04,-0.2 -0.06,-0.41 -0.06,-0.65 0,-0.24 0.01,-0.49 0.03,-0.74 0.02,-0.26 0.05,-0.51 0.08,-0.75 0.04,-0.24 0.08,-0.46 0.12,-0.66 0.03,-0.21 0.07,-0.37 0.09,-0.49 -0.08,0.1 -0.16,0.23 -0.26,0.39 -0.09,0.16 -0.19,0.33 -0.29,0.52 -0.09,0.19 -0.19,0.38 -0.28,0.59 -0.09,0.21 -0.18,0.42 -0.25,0.63 -0.09,0.23 -0.15,0.44 -0.2,0.62 -0.05,0.19 -0.09,0.35 -0.13,0.48 -0.07,0.25 -0.13,0.43 -0.17,0.54 -0.05,0.12 -0.12,0.17 -0.21,0.17 -0.25,0 -0.44,-0.09 -0.59,-0.28 -0.25,-0.35 -0.32,-1.02 -0.19,-2.03z"/>
 </g>
</svg>
