<?xml version="1.0" encoding="UTF-8"?>
<!DOCTYPE svg PUBLIC "-//W3C//DTD SVG 1.1//EN" "http://www.w3.org/Graphics/SVG/1.1/DTD/svg11.dtd">
<!-- Creator: CorelDRAW 2017 -->
<svg xmlns="http://www.w3.org/2000/svg" xml:space="preserve" width="320px" height="320px" version="1.1" style="shape-rendering:geometricPrecision; text-rendering:geometricPrecision; image-rendering:optimizeQuality; fill-rule:evenodd; clip-rule:evenodd"
viewBox="0 0 80 80"
 xmlns:xlink="http://www.w3.org/1999/xlink">
 <defs>
  <style type="text/css">
   <![CDATA[
    .fil3 {fill:#171719}
    .fil2 {fill:#3C3B41}
    .fil7 {fill:#D8D8DA}
    .fil5 {fill:#EBB300}
    .fil1 {fill:#FF4F19}
    .fil0 {fill:#FF7A53}
    .fil4 {fill:#FFDB2D}
    .fil6 {fill:white}
   ]]>
  </style>
 </defs>
 <g id="Layer_x0020_1">
  <metadata id="CorelCorpID_0Corel-Layer"/>
  <g id="_2854904897504">
   <circle class="fil0" cx="40" cy="40" r="40"/>
   <path class="fil1" d="M79.92 42.55l-29.12 -29.12c-2.69,-2.9 -6.54,-4.72 -10.8,-4.72 -8.12,0 -14.73,6.61 -14.73,14.73l0 8.77 -2.39 0c-2.64,0 -4.79,2.15 -4.79,4.79l0 19.81c0,2.94 1.29,5.59 3.33,7.42l15.67 15.67c0.96,0.06 1.93,0.1 2.91,0.1 21.24,0 38.6,-16.55 39.92,-37.45z"/>
   <path class="fil2" d="M49.31 26.29l0 -2.85c0,-5.13 -4.18,-9.31 -9.31,-9.31 -5.13,0 -9.31,4.18 -9.31,9.31l0 11.82 -5.42 0 0 -11.82c0,-8.12 6.61,-14.73 14.73,-14.73 8.12,0 14.73,6.61 14.73,14.73l0 2.85 -5.42 0z"/>
   <path class="fil3" d="M40 8.71l0 5.42 0 0c5.13,0 9.31,4.18 9.31,9.31l0 2.85 5.42 0 0 -2.85c0,-8.12 -6.61,-14.73 -14.73,-14.73z"/>
   <path class="fil4" d="M51.94 66.78l-23.88 0c-5.49,0 -9.97,-4.49 -9.97,-9.97l0 -19.81c0,-2.64 2.16,-4.79 4.79,-4.79l34.24 0c2.64,0 4.79,2.15 4.79,4.79l0 19.81c0,5.48 -4.48,9.97 -9.97,9.97z"/>
   <path class="fil5" d="M57.12 32.21l-17.12 0 0 34.57 11.94 0c5.49,0 9.97,-4.49 9.97,-9.97l0 -19.81c0,-2.64 -2.15,-4.79 -4.79,-4.79z"/>
   <rect class="fil6" x="22.23" y="43.05" width="35.54" height="12.87"/>
   <rect class="fil7" x="40" y="43.05" width="17.77" height="12.87"/>
   <rect class="fil2" x="23.51" y="44.44" width="32.97" height="10.1"/>
   <rect class="fil3" x="40" y="44.44" width="16.49" height="10.1"/>
   <polygon class="fil6" points="33.32,48.03 32.54,46.91 30.7,48.18 30.7,45.94 29.32,45.94 29.32,48.18 27.48,46.91 26.7,48.03 28.81,49.49 26.7,50.95 27.48,52.08 29.32,50.8 29.32,53.04 30.7,53.04 30.7,50.8 32.54,52.08 33.32,50.95 31.22,49.49 "/>
   <polygon class="fil6" points="43.31,48.03 42.53,46.91 40.69,48.18 40.69,45.94 39.32,45.94 39.32,48.18 37.47,46.91 36.69,48.03 38.8,49.49 36.69,50.95 37.47,52.08 39.32,50.8 39.32,53.04 40.69,53.04 40.69,50.8 42.53,52.08 43.31,50.95 41.21,49.49 "/>
   <polygon class="fil7" points="40.69,50.8 42.53,52.08 43.31,50.95 41.21,49.49 43.31,48.03 42.53,46.91 40.69,48.18 40.69,45.94 40,45.94 40,53.04 40.69,53.04 "/>
   <polygon class="fil7" points="53.3,48.03 52.52,46.91 50.68,48.18 50.68,45.94 49.31,45.94 49.31,48.18 47.46,46.91 46.68,48.03 48.79,49.49 46.68,50.95 47.46,52.08 49.31,50.8 49.31,53.04 50.68,53.04 50.68,50.8 52.52,52.08 53.3,50.95 51.2,49.49 "/>
  </g>
 </g>
</svg>
