<?xml version="1.0" encoding="UTF-8"?>
<!DOCTYPE svg PUBLIC "-//W3C//DTD SVG 1.1//EN" "http://www.w3.org/Graphics/SVG/1.1/DTD/svg11.dtd">
<!-- Creator: CorelDRAW 2017 -->
<svg xmlns="http://www.w3.org/2000/svg" xml:space="preserve" width="50mm" height="39mm" version="1.1" style="shape-rendering:geometricPrecision; text-rendering:geometricPrecision; image-rendering:optimizeQuality; fill-rule:evenodd; clip-rule:evenodd"
viewBox="0 0 5000 3900"
 xmlns:xlink="http://www.w3.org/1999/xlink">
 <defs>
  <style type="text/css">
   <![CDATA[
    .fil0 {fill:none}
    .fil17 {fill:black;fill-rule:nonzero}
    .fil4 {fill:#262626;fill-rule:nonzero}
    .fil18 {fill:#297F49;fill-rule:nonzero}
    .fil5 {fill:#338AD3;fill-rule:nonzero}
    .fil6 {fill:#3DB5F2;fill-rule:nonzero}
    .fil20 {fill:#439E49;fill-rule:nonzero}
    .fil13 {fill:#683A2B;fill-rule:nonzero}
    .fil7 {fill:#6ED6FF;fill-rule:nonzero}
    .fil19 {fill:#73BF52;fill-rule:nonzero}
    .fil14 {fill:#91583C;fill-rule:nonzero}
    .fil2 {fill:#ACD8E2;fill-rule:nonzero}
    .fil21 {fill:#AFDD66;fill-rule:nonzero}
    .fil15 {fill:#B27255;fill-rule:nonzero}
    .fil10 {fill:#BA2A4C;fill-rule:nonzero}
    .fil1 {fill:#D4ECF3;fill-rule:nonzero}
    .fil8 {fill:#E57A65;fill-rule:nonzero}
    .fil3 {fill:#F44A52;fill-rule:nonzero}
    .fil12 {fill:#F47A7A;fill-rule:nonzero}
    .fil11 {fill:#F8B294;fill-rule:nonzero}
    .fil9 {fill:#F9B295;fill-rule:nonzero}
    .fil16 {fill:white;fill-rule:nonzero}
   ]]>
  </style>
 </defs>
 <g id="Layer_x0020_1">
  <metadata id="CorelCorpID_0Corel-Layer"/>
  <rect class="fil0" width="5000" height="3900"/>
  <g id="_1691496463808">
   <path class="fil1" d="M4415 3229c0,0 31,-417 -146,-480 -177,-63 -326,101 -326,101 0,0 -44,-703 -462,-844 -418,-141 -565,445 -565,445 0,0 42,-805 -583,-977 -625,-171 -712,639 -554,944 0,0 -280,-544 -541,-314 -261,230 -24,675 -24,675 0,0 -164,-192 -401,14 -237,206 -25,435 69,435l3531 0z"/>
   <g>
    <path class="fil2" d="M2636 2461c-20,-5 -29,49 -44,51 -15,2 -33,-3 -37,-13 -1,-4 -4,-9 -7,-13 0,-33 -8,-66 -22,-95 2,-5 3,-10 4,-15 2,-14 21,-23 31,-10 11,13 31,27 47,18 15,-9 9,-31 -18,-72 -27,-40 -46,-54 -62,-45 -15,9 12,47 4,57 -8,10 -22,18 -30,14 -4,-2 -10,-3 -16,-4 -22,-23 -49,-41 -79,-52 -2,-5 -6,-11 -10,-16 -10,-13 -2,-36 17,-34 19,2 48,-4 53,-24 5,-20 -19,-33 -74,-44 -55,-11 -83,-6 -88,14 -5,20 49,29 51,44 2,15 -3,33 -13,37 -5,2 -11,6 -17,10 -12,0 -25,1 -37,4 -19,4 -38,10 -55,18 -4,-1 -9,-3 -13,-3 -14,-2 -23,-21 -10,-31 13,-11 27,-31 18,-47 -9,-15 -31,-9 -72,18 -40,27 -54,46 -45,62 9,15 47,-12 57,-4 10,8 18,22 14,30 -1,3 -3,8 -4,12 -23,22 -42,49 -54,80 -5,2 -11,6 -16,10 -13,10 -36,2 -34,-17 2,-19 -4,-48 -24,-53 -20,-5 -33,19 -44,74 -11,55 -6,83 14,88 20,5 29,-49 44,-51 15,-2 33,3 37,13 2,4 5,10 9,16 0,32 7,63 20,92 -2,5 -4,11 -4,17 -2,14 -21,23 -31,10 -11,-13 -31,-27 -47,-18 -15,9 -9,31 18,72 27,40 46,54 62,45 15,-9 -12,-47 -4,-57 8,-10 22,-18 30,-14 4,2 10,3 16,4 22,24 50,42 81,54 2,4 5,9 8,13 10,13 2,36 -17,34 -19,-2 -48,4 -53,24 -5,20 19,33 74,44 55,11 83,6 88,-14 5,-20 -49,-29 -51,-44 -2,-15 3,-33 13,-37 4,-1 8,-4 13,-7 35,0 69,-8 99,-23 3,1 7,2 10,2 14,2 23,21 10,31 -13,11 -27,31 -18,47 9,15 31,9 72,-18 40,-27 54,-46 45,-62 -9,-15 -47,12 -57,4 -10,-8 -18,-22 -14,-30 1,-2 2,-5 3,-9 25,-23 45,-52 58,-86 4,-2 9,-5 13,-8 13,-10 36,-2 34,17 -2,19 4,48 24,53 20,5 33,-19 44,-74 11,-55 6,-83 -14,-88z"/>
    <path class="fil2" d="M1474 2421c-14,1 -9,37 -18,42 -9,4 -22,5 -27,-1 -2,-2 -5,-5 -8,-7 -7,-22 -19,-41 -34,-56 0,-3 0,-7 -1,-11 -2,-9 8,-19 18,-13 10,6 26,11 34,2 8,-9 -1,-22 -27,-42 -26,-20 -41,-25 -49,-16 -8,9 17,28 15,36 -3,8 -11,16 -17,16 -3,0 -7,0 -11,1 -19,-10 -40,-16 -62,-17 -3,-3 -6,-6 -10,-8 -9,-6 -9,-23 4,-26 13,-3 30,-12 30,-27 -1,-14 -19,-18 -57,-13 -38,4 -55,13 -54,27 1,14 37,9 42,18 4,9 5,22 -1,27 -3,2 -6,6 -9,10 -8,3 -16,6 -23,10 -12,6 -22,14 -32,23 -3,0 -6,0 -9,1 -9,2 -19,-8 -13,-18 6,-10 11,-26 2,-34 -9,-8 -22,1 -42,27 -20,26 -25,41 -16,49 9,8 28,-17 36,-15 8,3 16,11 16,17 0,2 0,6 0,9 -11,19 -17,40 -18,63 -3,3 -6,6 -9,10 -6,9 -23,9 -26,-4 -3,-13 -12,-30 -27,-30 -14,1 -18,19 -13,57 4,38 13,55 27,54 14,-1 9,-37 18,-42 9,-4 22,-5 27,1 2,2 6,6 9,8 7,21 18,40 32,55 0,3 0,8 1,12 2,9 -8,19 -18,13 -10,-6 -26,-11 -34,-2 -8,9 1,22 27,42 26,20 41,25 49,16 8,-9 -17,-28 -15,-36 3,-8 10,-16 17,-16 3,0 7,0 11,-1 19,11 41,17 64,18 2,2 5,5 8,7 9,6 9,23 -4,26 -13,3 -30,12 -30,27 1,14 19,18 57,13 38,-4 55,-13 54,-27 -1,-14 -37,-9 -42,-18 -4,-9 -5,-22 1,-27 2,-2 4,-4 7,-7 23,-7 43,-19 60,-35 2,0 5,0 7,-1 9,-2 19,8 13,18 -6,10 -11,26 -2,34 9,8 22,-1 42,-27 20,-26 25,-41 16,-49 -9,-8 -28,17 -36,15 -8,-3 -16,-10 -16,-17 0,-2 0,-4 0,-6 12,-20 19,-43 19,-68 2,-2 5,-5 7,-8 6,-9 23,-9 26,4 3,13 12,30 27,30 14,-1 18,-19 13,-57 -4,-38 -13,-55 -27,-54z"/>
    <path class="fil2" d="M1112 1432c1,-6 6,-14 11,-14 2,0 6,-1 8,-2 16,6 33,9 51,7 2,2 5,3 7,5 8,4 9,17 0,20 -10,4 -22,13 -20,24 2,11 16,12 45,4 29,-7 41,-16 39,-27 -2,-11 -30,-3 -34,-9 -4,-6 -6,-17 -2,-21 1,-1 3,-4 4,-6 17,-8 31,-19 42,-33 2,0 4,-1 6,-1 7,-2 16,5 12,13 -4,8 -6,21 2,26 8,5 17,-3 30,-25 13,-22 15,-34 7,-39 -8,-5 -20,16 -26,15 -6,-1 -14,-6 -14,-11 0,-1 0,-3 -1,-5 7,-17 10,-35 8,-54 2,-2 3,-4 5,-7 4,-8 17,-9 20,0 4,10 13,22 24,20 11,-2 12,-16 4,-45 -7,-29 -16,-41 -27,-39 -11,2 -3,30 -9,34 -6,4 -17,6 -21,2 -2,-2 -4,-3 -7,-5 -8,-16 -19,-29 -32,-40 0,-3 -1,-5 -2,-8 -2,-7 5,-16 13,-12 8,4 21,6 26,-2 5,-8 -3,-17 -25,-30 -22,-13 -34,-15 -39,-7 -5,8 16,20 15,26 -1,6 -6,14 -11,14 -2,0 -6,1 -8,2 -15,-6 -32,-8 -49,-7 -2,-2 -5,-4 -8,-6 -8,-4 -9,-17 0,-20 10,-4 22,-13 20,-24 -2,-11 -16,-12 -45,-4 -29,7 -41,16 -39,27 2,11 30,3 34,9 4,6 6,17 2,21 -2,2 -4,5 -6,8 -6,3 -11,6 -17,10 -8,6 -16,13 -22,21 -2,0 -5,1 -7,2 -7,2 -16,-5 -12,-13 4,-8 6,-21 -2,-26 -8,-5 -17,3 -30,25 -13,22 -15,34 -7,39 8,5 20,-16 26,-15 6,1 14,6 14,11 0,2 1,4 1,7 -6,16 -9,33 -8,50 -2,2 -4,5 -6,8 -4,8 -17,9 -20,0 -4,-10 -13,-22 -24,-20 -11,2 -12,16 -4,45 7,29 16,41 27,39 11,-2 3,-30 9,-34 6,-4 17,-6 21,-2 2,2 5,4 8,5 7,15 18,29 30,39 0,3 1,6 2,9 2,7 -5,16 -13,12 -8,-4 -21,-6 -26,2 -5,8 3,17 25,30 22,13 34,15 39,7 5,-8 -16,-20 -15,-26z"/>
    <path class="fil2" d="M973 2986c-5,-1 -6,12 -9,13 -3,1 -8,0 -9,-2 0,-1 -1,-1 -1,-2 0,-9 -3,-19 -8,-27 0,-1 1,-3 1,-4 0,-4 6,-8 10,-4 4,4 11,8 15,4 5,-3 2,-10 -7,-22 -9,-12 -16,-16 -21,-13 -5,3 5,15 3,18 -2,3 -7,6 -9,5 -1,0 -3,-1 -4,-1 -7,-6 -15,-10 -23,-12 -1,-1 -1,-2 -3,-4 -3,-3 -1,-8 3,-8 5,0 11,-2 12,-7 1,-5 -5,-7 -18,-9 -13,-2 -19,0 -20,5 -1,5 12,6 13,9 1,3 0,8 -2,9 -1,0 -2,2 -4,3 -9,1 -17,3 -25,7 -2,0 -3,-1 -5,-1 -4,0 -8,-6 -4,-10 4,-4 8,-11 4,-15 -3,-5 -10,-2 -22,7 -12,9 -16,16 -13,21 3,5 15,-5 18,-3 3,2 6,7 5,9 0,1 -1,3 -1,5 -2,3 -4,5 -6,8 -3,5 -5,10 -6,15 -1,1 -2,1 -3,2 -3,3 -8,1 -8,-3 0,-5 -2,-11 -7,-12 -5,-1 -7,5 -9,18 -2,13 0,19 5,20 5,1 6,-12 9,-13 3,-1 8,0 9,2 0,1 1,2 2,3 0,9 3,17 7,25 0,2 -1,3 -1,5 0,4 -6,8 -10,4 -4,-4 -11,-8 -15,-4 -5,3 -2,10 7,22 9,12 16,16 21,13 5,-3 -5,-15 -3,-18 2,-3 7,-6 9,-5 1,0 3,1 5,1 7,6 14,10 22,12 1,1 2,3 3,4 3,3 1,8 -3,8 -5,0 -11,2 -12,7 -1,5 5,7 18,9 13,2 19,0 20,-5 1,-5 -12,-6 -13,-9 -1,-3 0,-8 2,-9 1,0 2,-2 4,-3 9,0 17,-3 25,-7 1,0 3,1 4,1 4,0 8,6 4,10 -4,4 -8,11 -4,15 3,5 10,2 22,-7 12,-9 16,-16 13,-21 -3,-5 -15,5 -18,3 -3,-2 -6,-7 -5,-9 0,-1 1,-2 1,-4 6,-7 11,-16 13,-24 1,-1 2,-1 2,-2 3,-3 8,-1 8,3 0,5 2,11 7,12 5,1 7,-5 9,-18 2,-13 0,-19 -5,-20z"/>
    <path class="fil2" d="M2048 3133c-6,-1 -7,14 -11,15 -4,1 -9,0 -11,-3 0,-1 -1,-2 -2,-3 0,-11 -3,-23 -9,-33 0,-2 1,-3 1,-5 0,-5 7,-9 12,-5 4,5 13,9 19,5 6,-4 2,-12 -9,-27 -12,-15 -19,-19 -25,-15 -6,4 6,18 3,22 -3,4 -8,8 -11,6 -1,0 -3,-1 -5,-1 -8,-7 -18,-12 -28,-15 -1,-1 -2,-3 -3,-4 -3,-3 -1,-10 4,-10 5,0 14,-2 15,-8 1,-6 -6,-9 -22,-11 -16,-2 -23,0 -24,6 -1,6 14,7 15,11 1,4 0,9 -3,11 -1,1 -3,2 -4,3 -10,1 -21,4 -30,9 -2,-1 -4,-1 -6,-1 -5,0 -9,-7 -5,-12 5,-4 9,-13 5,-19 -4,-6 -12,-2 -27,9 -15,12 -19,19 -15,25 4,6 18,-6 22,-3 4,3 8,8 6,11 -1,2 -1,4 -1,6 -3,3 -5,6 -7,10 -3,6 -6,12 -7,18 -1,1 -3,2 -4,3 -3,3 -10,1 -10,-4 0,-5 -2,-14 -8,-15 -6,-1 -9,6 -11,22 -2,16 0,23 6,24 6,1 7,-14 11,-15 4,-1 9,0 11,3 0,1 1,2 2,4 0,11 3,21 8,31 -1,2 -1,4 -1,6 0,5 -7,9 -12,5 -4,-5 -13,-9 -19,-5 -6,4 -2,12 9,27 12,15 19,19 25,15 6,-4 -6,-18 -3,-22 3,-4 8,-8 11,-6 1,1 4,1 6,1 8,7 17,12 27,15 1,1 2,3 3,5 3,3 1,10 -4,10 -6,0 -14,2 -15,8 -1,6 6,9 22,11 16,2 23,0 24,-6 1,-6 -14,-7 -15,-11 -1,-4 0,-9 3,-11 1,-1 3,-2 4,-3 11,-1 21,-3 31,-9 2,0 3,1 5,1 5,0 9,7 5,12 -5,4 -9,13 -5,19 4,6 12,2 27,-9 15,-12 19,-19 15,-25 -4,-6 -18,6 -22,3 -4,-3 -8,-8 -6,-11 0,-1 1,-3 1,-5 8,-9 13,-19 16,-30 1,-1 2,-1 3,-2 3,-3 10,-1 10,4 0,5 2,14 8,15 6,1 9,-6 11,-22 2,-16 0,-23 -6,-24z"/>
    <path class="fil2" d="M1812 1888c-6,-1 -7,14 -11,15 -4,1 -9,0 -11,-3 0,-1 -1,-2 -2,-3 0,-11 -3,-23 -9,-33 0,-2 1,-3 1,-5 0,-5 7,-9 12,-5 4,5 13,9 19,5 6,-4 2,-12 -9,-27 -12,-15 -19,-19 -25,-15 -6,4 6,18 3,22 -3,4 -8,8 -11,6 -1,0 -3,-1 -5,-1 -8,-7 -18,-12 -28,-15 -1,-1 -2,-3 -3,-4 -3,-3 -1,-10 4,-10 5,0 14,-2 15,-8 1,-6 -6,-9 -22,-11 -16,-2 -23,0 -24,6 -1,6 14,7 15,11 1,4 0,9 -3,11 -1,1 -3,2 -4,3 -10,1 -21,4 -30,9 -2,-1 -4,-1 -6,-1 -5,0 -9,-7 -5,-12 5,-4 9,-13 5,-19 -4,-6 -12,-2 -27,9 -15,12 -19,19 -15,25 4,6 18,-6 22,-3 4,3 8,8 6,11 -1,2 -1,4 -1,6 -3,3 -5,6 -7,10 -3,6 -6,12 -7,18 -1,1 -3,2 -4,3 -3,3 -10,1 -10,-4 0,-5 -2,-14 -8,-15 -6,-1 -9,6 -11,22 -2,16 0,23 6,24 6,1 7,-14 11,-15 4,-1 9,0 11,3 0,1 1,2 2,4 0,11 3,21 8,31 -1,2 -1,4 -1,6 0,5 -7,9 -12,5 -4,-5 -13,-9 -19,-5 -6,4 -2,12 9,27 12,15 19,19 25,15 6,-4 -6,-18 -3,-22 3,-4 8,-8 11,-6 1,1 4,1 6,1 8,7 17,12 27,15 1,1 2,3 3,5 3,3 1,10 -4,10 -6,0 -14,2 -15,8 -1,6 6,9 22,11 16,2 23,0 24,-6 1,-6 -14,-7 -15,-11 -1,-4 0,-9 3,-11 1,-1 3,-2 4,-3 11,-1 21,-3 31,-9 2,0 3,1 5,1 5,0 9,7 5,12 -5,4 -9,13 -5,19 4,6 12,2 27,-9 15,-12 19,-19 15,-25 -4,-6 -18,6 -22,3 -4,-3 -8,-8 -6,-11 0,-1 1,-3 1,-5 8,-9 13,-19 16,-30 1,-1 2,-1 3,-2 3,-3 10,-1 10,4 0,5 2,14 8,15 6,1 9,-6 11,-22 2,-16 0,-23 -6,-24z"/>
    <path class="fil2" d="M740 1997c-5,-1 -6,11 -9,12 -3,1 -8,0 -9,-2 0,-1 -1,-1 -1,-2 0,-9 -3,-18 -7,-26 0,-1 1,-3 1,-4 0,-4 6,-8 9,-4 4,4 10,8 15,4 4,-3 2,-10 -7,-21 -9,-12 -15,-15 -20,-12 -4,3 5,14 3,17 -2,3 -6,6 -9,5 -1,0 -3,-1 -4,-1 -7,-6 -14,-10 -23,-12 -1,-1 -1,-2 -2,-3 -2,-3 -1,-8 3,-8 4,0 11,-2 12,-6 1,-5 -5,-7 -17,-9 -13,-2 -19,0 -19,5 -1,5 11,6 12,9 1,3 0,8 -2,9 -1,0 -2,1 -4,2 -8,1 -16,3 -24,7 -1,0 -3,-1 -5,-1 -4,0 -8,-6 -4,-9 4,-4 8,-10 4,-15 -3,-4 -10,-2 -21,7 -12,9 -15,15 -12,20 3,4 14,-5 17,-3 3,2 6,6 5,9 0,1 -1,3 -1,5 -2,3 -4,5 -6,8 -3,4 -4,9 -6,14 -1,1 -2,1 -3,2 -3,2 -8,1 -8,-3 0,-4 -2,-11 -6,-12 -5,-1 -7,5 -9,17 -2,13 0,19 5,19 5,1 6,-11 9,-12 3,-1 8,0 9,2 0,1 1,2 2,3 0,8 3,17 7,24 0,1 -1,3 -1,5 0,4 -6,8 -9,4 -4,-4 -10,-8 -15,-4 -4,3 -2,10 7,21 9,12 15,15 20,12 4,-3 -5,-14 -3,-17 2,-3 6,-6 9,-5 1,0 3,1 5,1 6,6 14,9 22,12 1,1 2,3 3,4 2,3 1,8 -3,8 -4,0 -11,2 -12,6 -1,5 5,7 17,9 13,2 19,0 19,-5 1,-5 -11,-6 -12,-9 -1,-3 0,-8 2,-9 1,0 2,-1 4,-2 8,0 17,-3 25,-7 1,0 3,1 4,1 4,0 8,6 4,9 -4,4 -8,10 -4,15 3,4 10,2 21,-7 12,-9 15,-15 12,-20 -3,-4 -14,5 -17,3 -3,-2 -6,-6 -5,-9 0,-1 1,-2 1,-4 6,-7 10,-15 12,-24 1,-1 2,-1 2,-2 3,-2 8,-1 8,3 0,4 2,11 6,12 5,1 7,-5 9,-17 2,-13 0,-19 -5,-19z"/>
   </g>
   <g>
    <g>
     <path class="fil2" d="M4129 3410c0,49 -306,89 -684,89 -377,0 -684,-40 -684,-89 0,-49 306,-89 684,-89 377,0 684,40 684,89z"/>
    </g>
    <g>
     <g>
      <g>
       <path class="fil3" d="M3703 1368c12,-7 18,-14 15,-29 -3,-15 -41,-196 -53,-200 -11,-4 -59,14 -67,28 -8,14 73,195 80,201 7,6 16,6 25,0z"/>
       <path class="fil3" d="M3752 1416c2,15 -9,28 -23,30 -15,2 -28,-9 -30,-23 -2,-15 9,-28 23,-30 15,-2 28,9 30,23z"/>
      </g>
      <g>
       <path class="fil3" d="M3827 1330c13,-5 20,-11 20,-26 0,-15 -2,-201 -13,-207 -10,-6 -60,2 -71,14 -11,12 34,205 40,213 6,8 14,9 24,5z"/>
       <path class="fil3" d="M3865 1386c-1,15 -14,26 -28,24 -15,-1 -26,-14 -24,-28 1,-15 14,-26 28,-24 15,1 26,14 24,28z"/>
      </g>
      <g>
       <path class="fil3" d="M3953 1326c14,-2 22,-6 25,-21 3,-15 42,-196 33,-204 -9,-8 -59,-11 -72,-2 -13,10 -12,207 -8,216 4,9 12,11 22,10z"/>
       <path class="fil3" d="M3978 1389c-4,14 -19,22 -33,18 -14,-4 -22,-19 -18,-33 4,-14 19,-22 33,-18 14,4 22,19 18,33z"/>
      </g>
     </g>
     <g>
      <g>
       <path class="fil4" d="M3000 3296c0,0 -54,48 -44,70 10,22 75,87 100,72 25,-16 -19,-70 -19,-70l26 -27 -64 -45z"/>
       <path class="fil4" d="M3679 3125c0,0 -66,44 -68,67 -3,23 65,91 82,86 17,-5 -12,-70 -12,-70l47 -39 -49 -44z"/>
       <g>
        <path class="fil5" d="M3600 2613c121,-6 183,-46 207,-67 -28,-22 -47,-37 -47,-37l-264 -52c0,0 -38,66 -82,148 32,5 90,11 185,6z"/>
        <path class="fil5" d="M3324 3066c-25,-2 -73,-43 -74,-70 -1,-13 1,-43 4,-73 -50,81 -103,148 -135,191 -48,65 -147,178 -147,178 0,0 27,67 106,75 0,0 266,-237 304,-287 7,-9 18,-26 31,-47 -32,16 -74,35 -89,33z"/>
        <path class="fil6" d="M3949 2823c50,17 99,2 120,-6 -9,-21 -23,-45 -44,-69 -56,-67 -159,-153 -219,-201 -25,21 -87,61 -207,67 -96,5 -154,-1 -185,-6 -32,59 -66,127 -91,186 -20,46 -44,90 -69,131 -3,30 -5,60 -4,73 2,28 49,68 74,70 15,1 57,-18 89,-33 56,-89 152,-255 152,-255l55 -25c0,0 75,-21 127,-65 0,0 135,112 202,134zm-113 -208l0 0c6,-10 71,40 105,83 35,43 46,56 33,67 -12,10 -35,-9 -59,-46 -25,-37 -85,-95 -79,-104zm-411 335l0 0c-42,56 -84,58 -104,41 -9,-8 -30,-45 -20,-54 11,-9 28,18 66,10 38,-8 108,-149 118,-147 10,2 -18,94 -60,150z"/>
        <path class="fil5" d="M4069 2816c-21,8 -70,23 -120,6 -67,-22 -202,-134 -202,-134 -52,43 -127,65 -127,65 0,0 174,97 265,126 0,0 -159,148 -235,250 0,0 31,62 79,78 0,0 287,-208 324,-248 28,-30 45,-79 18,-143z"/>
        <path class="fil7" d="M3974 2765c14,-11 2,-24 -33,-67 -35,-43 -99,-93 -105,-83 -6,10 54,67 79,104 25,37 47,56 59,46z"/>
        <path class="fil7" d="M3485 2800c-10,-2 -80,139 -118,147 -38,8 -55,-19 -66,-10 -11,9 10,46 20,54 20,18 62,16 104,-41 42,-56 70,-148 60,-150z"/>
       </g>
      </g>
      <g>
       <g>
        <path class="fil8" d="M4258 2206c0,0 22,-17 43,-6 20,11 5,37 5,37 0,0 23,4 25,27 2,23 -19,29 -19,29 0,0 24,27 0,36 -24,10 -55,4 -68,-6 -12,-10 -25,-30 -25,-30l39 -88z"/>
        <path class="fil9" d="M4166 2264l44 -19c0,0 -15,-53 22,-58 38,-5 53,44 56,69 3,25 -28,22 -34,-5 0,0 6,51 -50,62l-37 -48z"/>
       </g>
       <g>
        <path class="fil3" d="M3885 2215c4,36 27,172 334,145 0,-8 -1,-16 -3,-25 -6,-38 -33,-90 -45,-95 -12,-4 -34,25 -108,34 -73,9 -106,-37 -145,-104 -5,-8 -9,-15 -14,-21 -9,15 -22,41 -19,65z"/>
        <path class="fil10" d="M3885 2215c-3,-24 10,-50 19,-65 -38,-48 -84,-54 -84,-54l-27 41 27 172c0,0 90,116 174,132 84,17 221,-9 222,-19 1,-7 4,-33 3,-62 -306,27 -329,-109 -334,-145z"/>
       </g>
      </g>
      <g>
       <path class="fil8" d="M3770 2034c8,-41 34,-87 34,-87l-79 -32c0,0 -13,39 -30,70 12,17 35,38 75,49z"/>
       <path class="fil9" d="M3773 2073c-4,-6 -6,-14 -6,-23 0,-5 1,-11 2,-16 -40,-11 -62,-31 -75,-49 -7,14 -16,27 -24,34 -5,4 -11,9 -19,14 20,20 56,42 121,40z"/>
       <path class="fil3" d="M3773 2073c-64,1 -101,-20 -121,-40 -33,21 -86,45 -86,45 0,0 -2,23 -7,57l65 34c0,0 -29,183 5,257 26,57 76,95 98,110 29,-5 50,-13 59,-19 17,-13 55,-156 61,-231 6,-75 -28,-189 -28,-189 0,0 -33,-1 -47,-23z"/>
       <path class="fil10" d="M3630 2426c-34,-74 -5,-257 -5,-257l-65 -34c-8,62 -22,159 -41,210 -29,79 -58,115 -58,128 1,13 97,65 169,69 35,2 70,-1 98,-7 -22,-15 -72,-53 -98,-110z"/>
      </g>
      <g>
       <path class="fil11" d="M3284 2550l0 48c0,0 23,5 25,22 2,17 2,52 -12,58 -14,6 -19,0 -19,0 0,0 -7,21 -22,21 -15,-1 -17,-20 -17,-20 0,0 -10,12 -26,9 -16,-3 -14,-21 -14,-21 0,0 -16,14 -28,4 -12,-10 -2,-67 8,-78 10,-11 44,-13 44,-13l14 -50 46 20z"/>
       <g>
        <path class="fil3" d="M3566 2078c-37,17 -134,47 -233,165 -99,119 -131,264 -131,264 53,79 180,50 187,39 7,-12 18,-109 57,-161 39,-53 94,-85 159,-170 66,-85 -19,-146 -40,-137zm-230 255l0 0c-12,-10 22,-48 32,-36 14,17 -20,46 -32,36zm144 -115l0 0c-30,16 -75,77 -95,66 -18,-10 21,-64 59,-91 38,-27 94,-60 103,-43 9,17 -36,53 -66,69z"/>
        <path class="fil12" d="M3444 2193c-38,27 -77,82 -59,91 20,11 65,-50 95,-66 30,-16 76,-52 66,-69 -9,-17 -65,16 -103,43z"/>
        <path class="fil12" d="M3336 2333c12,10 46,-19 32,-36 -10,-12 -44,26 -32,36z"/>
       </g>
      </g>
      <g>
       <g>
        <path class="fil13" d="M3985 1617c0,0 16,-61 -34,-66 -50,-6 -129,87 -129,87 0,0 9,-30 -17,-34 -26,-4 -56,83 -56,83 0,0 -3,-18 -25,-20 -22,-2 -54,48 -54,48 -9,-14 -26,-12 -39,-7 -3,15 -3,32 0,54 16,104 16,104 16,104l338 -137c0,0 65,-49 90,-113 -29,-28 -90,2 -90,2z"/>
        <path class="fil14" d="M4032 1535c0,0 77,-76 -13,-100 -91,-25 -137,80 -137,80 0,0 25,-57 -40,-52 -65,5 -98,126 -98,126 0,0 1,-34 -26,-31 -27,3 -34,80 -34,80 0,0 -43,11 -53,67 13,-5 29,-7 39,7 0,0 32,-50 54,-48 22,2 25,20 25,20 0,0 29,-87 56,-83 26,4 17,34 17,34 0,0 79,-93 129,-87 50,6 34,66 34,66 0,0 61,-30 90,-2 1,-2 2,-4 2,-6 23,-66 2,-92 -46,-73zm-222 6l0 0c-8,-11 32,-49 39,-39 14,20 -30,51 -39,39zm99 -8l0 0c-12,-13 58,-75 70,-63 15,16 -58,76 -70,63z"/>
        <path class="fil15" d="M3908 1533c12,13 85,-47 70,-63 -11,-12 -81,50 -70,63z"/>
        <path class="fil15" d="M3809 1541c8,11 53,-19 39,-39 -7,-10 -47,28 -39,39z"/>
       </g>
       <g>
        <g>
         <path class="fil7" d="M3786 1897c1,-4 82,-55 124,-49 27,4 62,27 83,43 -2,24 -6,45 -13,55 -15,22 -64,79 -112,73 -21,-3 -51,-17 -79,-33 -3,-22 -8,-58 -7,-70 2,-17 2,-15 3,-19z"/>
         <path class="fil11" d="M3994 1666c0,0 7,55 7,117 0,42 -5,66 -6,91 -26,-18 -73,-46 -104,-42 -47,5 -101,48 -118,50 -12,1 -42,-52 -59,-85 57,-42 80,-120 80,-120 135,11 201,-10 201,-10z"/>
         <path class="fil11" d="M3631 1796c35,-34 70,6 70,6 0,0 0,0 0,0 9,20 22,45 30,57 15,20 34,37 34,37 0,0 -3,43 3,75 -25,-16 -45,-32 -49,-38 -9,-14 -21,-67 -21,-67 0,0 -12,14 -31,12 -20,-2 -70,-49 -35,-83z"/>
         <path class="fil6" d="M3731 1859c-9,-11 -21,-37 -30,-57 4,-2 9,-4 12,-7 17,33 47,86 59,85 17,-1 72,-45 118,-50 32,-3 78,24 104,42 0,6 -1,12 -1,18 -21,-16 -56,-38 -83,-43 -42,-7 -123,44 -124,49 -1,4 -1,2 -3,19 -1,11 4,47 7,70 -8,-5 -16,-9 -23,-14 -5,-33 -3,-75 -3,-75 0,0 -18,-18 -34,-37z"/>
        </g>
        <path class="fil13" d="M3788 1733c-3,-6 16,-17 26,-17 9,0 9,5 6,11 -4,6 -27,14 -31,6z"/>
        <g>
         <path class="fil16" d="M3821 1749c32,-5 49,45 35,68 -9,16 -31,15 -46,9 11,-4 24,-16 21,-40 -2,-18 -13,-27 -22,-31 3,-3 7,-5 12,-5z"/>
         <path class="fil17" d="M3832 1785c3,25 -10,36 -21,40 -7,-3 -12,-7 -14,-12 -6,-12 -4,-46 13,-60 10,4 20,12 22,31z"/>
        </g>
        <path class="fil13" d="M3944 1709c2,-7 23,0 30,7 7,7 3,10 -4,12 -7,2 -29,-10 -26,-19z"/>
        <g>
         <path class="fil16" d="M3951 1749c28,-6 42,43 30,66 -8,15 -27,15 -40,9 10,-5 22,-16 19,-40 -2,-18 -11,-26 -19,-30 3,-3 6,-5 10,-5z"/>
         <path class="fil17" d="M3960 1784c2,24 -9,35 -19,40 -6,-3 -10,-7 -12,-11 -5,-12 -3,-45 12,-58 8,4 17,12 19,30z"/>
        </g>
        <path class="fil8" d="M3666 1827c0,0 -15,-17 -9,-22 6,-5 28,28 22,32 -6,4 -27,3 -27,-4 0,-7 14,-6 14,-6z"/>
        <path class="fil6" d="M3901 1893c19,-1 27,14 31,9 4,-4 -12,-24 -32,-23 -20,1 -37,13 -34,21 4,8 22,-6 35,-7z"/>
        <path class="fil6" d="M3899 1944c23,2 34,-16 39,-11 5,5 -16,29 -40,27 -25,-2 -46,-17 -41,-26 5,-9 27,8 42,9z"/>
       </g>
      </g>
     </g>
    </g>
   </g>
   <g>
    <g>
     <g>
      <path class="fil18" d="M2655 1835c0,0 1,-24 -5,-44 -7,-20 13,-46 37,-35 23,11 62,17 77,-6 15,-23 -9,-50 -73,-88 -64,-38 -100,-45 -116,-22 -15,23 48,58 44,77 -4,19 -19,40 -33,40 -14,0 -43,10 -43,10l112 67z"/>
      <path class="fil18" d="M2227 2320c0,0 -1,24 5,44 7,20 -13,46 -37,35 -23,-11 -62,-17 -77,6 -15,23 9,50 73,88 64,38 100,45 116,22 15,-23 -48,-58 -44,-77 4,-19 19,-40 33,-40 14,0 43,-10 43,-10l-112 -67z"/>
      <path class="fil18" d="M2681 2289c0,0 24,1 44,-5 20,-7 46,13 35,37 -11,23 -17,62 6,77 23,15 50,-9 88,-73 38,-64 45,-100 22,-116 -23,-15 -58,48 -77,44 -19,-4 -40,-19 -40,-33 0,-14 -10,-43 -10,-43l-67 112z"/>
      <path class="fil18" d="M2204 1866c0,0 -24,-1 -44,5 -20,7 -46,-13 -35,-37 11,-23 17,-62 -6,-77 -23,-15 -50,9 -88,73 -38,64 -45,100 -22,116 23,15 58,-48 77,-44 19,4 40,19 40,33 0,14 10,43 10,43l67 -112z"/>
     </g>
     <g>
      <path class="fil18" d="M2433 1758c0,0 -18,-21 -41,-32 -22,-11 -27,-49 1,-59 28,-10 65,-37 59,-69 -6,-32 -48,-34 -133,-13 -85,21 -120,46 -113,78 6,32 87,9 100,28 12,19 18,49 6,60 -11,12 -27,44 -27,44l148 -37z"/>
      <path class="fil18" d="M2450 2396c0,0 18,21 41,32 22,11 27,49 -1,59 -28,10 -65,37 -59,69 6,32 48,34 133,13 85,-21 120,-46 113,-78 -6,-32 -87,-9 -100,-28 -12,-19 -18,-49 -6,-60 11,-12 27,-44 27,-44l-148 37z"/>
      <path class="fil18" d="M2761 2068c0,0 21,-18 32,-41 11,-22 49,-27 59,1 10,28 37,65 69,59 32,-6 34,-48 13,-133 -21,-85 -46,-120 -78,-113 -32,6 -9,87 -28,100 -19,12 -49,18 -60,6 -12,-12 -44,-27 -44,-27l37 148z"/>
      <path class="fil18" d="M2122 2086c0,0 -21,18 -32,41 -11,22 -49,27 -59,-1 -10,-28 -37,-65 -69,-59 -32,6 -34,48 -13,133 21,85 46,120 78,113 32,-6 9,-87 28,-100 19,-12 49,-18 60,-6 12,11 44,27 44,27l-37 -148z"/>
     </g>
     <g>
      <path class="fil19" d="M2269 2097c142,197 440,96 485,-151 -64,-150 -229,-236 -393,-195 -43,11 -82,29 -115,54 -39,68 -64,172 23,292z"/>
      <path class="fil20" d="M2269 2097c-87,-121 -62,-224 -23,-292 -109,79 -164,218 -130,356 45,181 229,290 410,245 181,-45 290,-229 245,-410 -4,-17 -10,-34 -17,-50 -45,247 -343,348 -485,151z"/>
     </g>
     <g>
      <path class="fil21" d="M2593 1836c67,37 139,124 89,159 -37,26 -87,-70 -139,-101 -53,-31 -97,-45 -92,-67 5,-22 75,-28 142,9z"/>
      <path class="fil21" d="M2415 1818c0,33 -84,25 -86,-1 -2,-26 86,-23 86,1z"/>
     </g>
     <g>
      <path class="fil18" d="M2333 2287c4,33 34,56 66,53 33,-4 56,-34 53,-66 -4,-33 -34,-56 -66,-53 -33,4 -56,34 -53,66z"/>
      <path class="fil18" d="M2279 2210c1,12 13,21 25,20 12,-1 21,-13 20,-25 -1,-12 -13,-21 -25,-20 -12,1 -21,13 -20,25z"/>
      <path class="fil18" d="M2157 2110c2,13 13,23 27,21 13,-2 23,-13 21,-27 -2,-13 -13,-23 -27,-21 -13,2 -23,13 -21,27z"/>
      <path class="fil20" d="M2513 2095c3,27 28,46 55,43 27,-3 46,-28 43,-55 -3,-27 -28,-46 -55,-43 -27,3 -46,28 -43,55z"/>
      <path class="fil20" d="M2465 2015c2,16 16,27 31,25 16,-2 27,-16 25,-31 -2,-16 -16,-27 -31,-25 -16,2 -27,16 -25,31z"/>
      <path class="fil20" d="M2298 1990c1,9 10,16 19,15 9,-1 16,-10 15,-19 -1,-9 -10,-16 -19,-15 -9,1 -16,10 -15,19z"/>
      <path class="fil18" d="M2630 2252c2,14 15,24 29,23 14,-2 24,-15 23,-29 -2,-14 -14,-24 -29,-23 -14,2 -24,15 -23,29z"/>
     </g>
    </g>
    <g>
     <g>
      <path class="fil18" d="M1719 2648c0,0 7,-13 9,-27 2,-14 21,-23 31,-10 11,13 31,27 47,18 15,-9 9,-31 -18,-72 -27,-40 -46,-54 -62,-45 -15,9 12,47 4,57 -8,10 -22,18 -30,14 -8,-4 -28,-6 -28,-6l47 70z"/>
      <path class="fil18" d="M1335 2812c0,0 -7,13 -9,27 -2,14 -21,23 -31,10 -11,-13 -31,-27 -47,-18 -15,9 -9,31 18,72 27,40 46,54 62,45 15,-9 -12,-47 -4,-57 8,-10 22,-18 30,-14 8,4 28,6 28,6l-47 -70z"/>
      <path class="fil18" d="M1608 2919c0,0 13,7 27,9 14,2 23,21 10,31 -13,11 -27,31 -18,47 9,15 31,9 72,-18 40,-27 54,-46 45,-62 -9,-15 -47,12 -57,4 -10,-8 -18,-22 -14,-30 4,-8 6,-28 6,-28l-70 47z"/>
      <path class="fil18" d="M1447 2541c0,0 -13,-7 -27,-9 -14,-2 -23,-21 -10,-31 13,-11 27,-31 18,-47 -9,-15 -31,-9 -72,18 -40,27 -54,46 -45,62 9,15 47,-12 57,-4 10,8 18,22 14,30 -4,8 -6,28 -6,28l70 -47z"/>
     </g>
     <g>
      <path class="fil18" d="M1610 2541c0,0 -5,-17 -15,-30 -10,-13 -2,-36 17,-34 19,2 48,-4 53,-24 5,-20 -19,-33 -74,-44 -55,-11 -83,-6 -88,14 -5,20 49,29 51,44 2,15 -3,33 -13,37 -10,4 -28,18 -28,18l97 19z"/>
      <path class="fil18" d="M1444 2918c0,0 5,17 15,30 10,13 2,36 -17,34 -19,-2 -48,4 -53,24 -5,20 19,33 74,44 55,11 83,6 88,-14 5,-20 -49,-29 -51,-44 -2,-15 3,-33 13,-37 10,-4 28,-18 28,-18l-97 -19z"/>
      <path class="fil18" d="M1716 2813c0,0 17,-5 30,-15 13,-10 36,-2 34,17 -2,19 4,48 24,53 20,5 33,-19 44,-74 11,-55 6,-83 -14,-88 -20,-5 -29,49 -44,51 -15,2 -33,-3 -37,-13 -4,-10 -18,-28 -18,-28l-19 97z"/>
      <path class="fil18" d="M1339 2646c0,0 -17,5 -30,15 -13,10 -36,2 -34,-17 2,-19 -4,-48 -24,-53 -20,-5 -33,19 -44,74 -11,55 -6,83 14,88 20,5 29,-49 44,-51 15,-2 33,3 37,13 4,10 18,28 18,28l19 -97z"/>
     </g>
     <g>
      <path class="fil19" d="M1421 2693c28,154 230,178 325,46 4,-105 -69,-201 -175,-222 -28,-6 -56,-5 -82,-1 -42,29 -85,83 -67,177z"/>
      <path class="fil20" d="M1421 2693c-17,-94 26,-148 67,-177 -85,16 -156,82 -174,172 -23,118 53,233 171,256 118,23 233,-53 256,-171 2,-11 4,-23 4,-34 -95,132 -296,108 -325,-46z"/>
     </g>
     <g>
      <path class="fil21" d="M1682 2631c29,40 47,111 8,117 -28,5 -31,-65 -53,-97 -22,-33 -44,-53 -35,-64 9,-11 51,5 81,45z"/>
      <path class="fil21" d="M1583 2571c-9,19 -56,-9 -50,-24 6,-16 56,11 50,24z"/>
     </g>
     <g>
      <path class="fil18" d="M1406 2821c-7,20 4,42 24,49 20,7 42,-4 49,-24 7,-20 -4,-42 -24,-49 -20,-7 -42,4 -49,24z"/>
      <path class="fil18" d="M1395 2762c-3,8 1,16 9,18 8,3 16,-1 18,-9 3,-8 -1,-16 -9,-18 -8,-3 -16,1 -18,9z"/>
      <path class="fil18" d="M1352 2670c-3,8 2,17 10,20 8,3 17,-2 20,-10 3,-8 -2,-17 -10,-20 -8,-3 -17,2 -20,10z"/>
      <path class="fil20" d="M1564 2759c-6,17 3,35 20,40 17,6 35,-3 40,-20 6,-17 -3,-35 -20,-40 -17,-6 -35,3 -40,20z"/>
      <path class="fil20" d="M1558 2700c-3,10 2,20 11,23 10,3 20,-2 23,-11 3,-10 -2,-20 -11,-23 -10,-3 -20,2 -23,11z"/>
      <path class="fil20" d="M1468 2639c-2,6 1,12 7,14 6,2 12,-1 14,-7 2,-6 -1,-12 -7,-14 -6,-2 -12,1 -14,7z"/>
      <path class="fil18" d="M1589 2884c-3,9 2,18 10,21 9,3 18,-2 21,-10 3,-9 -2,-18 -10,-21 -9,-3 -18,2 -21,10z"/>
     </g>
    </g>
    <g>
     <g>
      <path class="fil18" d="M1819 1364c0,0 2,-10 0,-19 -2,-9 8,-19 18,-13 10,6 26,11 34,2 8,-9 -1,-22 -27,-42 -26,-20 -41,-25 -49,-16 -8,9 17,28 15,36 -3,8 -11,16 -17,16 -6,-1 -19,2 -19,2l45 36z"/>
      <path class="fil18" d="M1605 1550c0,0 -2,10 0,19 2,9 -8,19 -18,13 -10,-6 -26,-11 -34,-2 -8,9 1,22 27,42 26,20 41,25 49,16 8,-9 -17,-28 -15,-36 3,-8 11,-16 17,-16 6,1 19,-2 19,-2l-45 -36z"/>
      <path class="fil18" d="M1804 1562c0,0 10,2 19,0 9,-2 19,8 13,18 -6,10 -11,26 -2,34 9,8 22,-1 42,-27 20,-26 25,-41 16,-49 -9,-8 -28,17 -36,15 -8,-3 -16,-11 -16,-17 1,-6 -2,-19 -2,-19l-36 45z"/>
      <path class="fil18" d="M1621 1351c0,0 -10,-2 -19,0 -9,2 -19,-8 -13,-18 6,-10 11,-26 2,-34 -9,-8 -22,1 -42,27 -20,26 -25,41 -16,49 9,8 28,-17 36,-15 8,3 16,11 16,17 -1,6 2,19 2,19l36 -45z"/>
     </g>
     <g>
      <path class="fil18" d="M1727 1318c0,0 -7,-10 -16,-16 -9,-6 -9,-23 4,-26 13,-3 30,-12 30,-27 -1,-14 -19,-18 -57,-13 -38,4 -55,13 -54,27 1,14 37,9 42,18 4,9 5,22 -1,27 -6,4 -14,18 -14,18l67 -8z"/>
      <path class="fil18" d="M1698 1596c0,0 7,10 16,16 9,6 9,23 -4,26 -13,3 -30,12 -30,27 1,14 19,18 57,13 38,-4 55,-13 54,-27 -1,-14 -37,-9 -42,-18 -4,-9 -5,-22 1,-27 6,-4 14,-18 14,-18l-67 8z"/>
      <path class="fil18" d="M1851 1471c0,0 10,-7 16,-16 6,-9 23,-9 26,4 3,13 12,30 27,30 14,-1 18,-19 13,-57 -4,-38 -13,-55 -27,-54 -14,1 -9,37 -18,42 -9,4 -22,5 -27,-1 -4,-6 -18,-14 -18,-14l8 67z"/>
      <path class="fil18" d="M1573 1442c0,0 -10,7 -16,16 -6,9 -23,9 -26,-4 -3,-13 -12,-30 -27,-30 -14,1 -18,19 -13,57 4,38 13,55 27,54 14,-1 9,-37 18,-42 9,-4 22,-5 27,1 4,6 18,14 18,14l-8 -67z"/>
     </g>
     <g>
      <path class="fil19" d="M1636 1455c50,94 186,67 219,-38 -19,-69 -86,-116 -159,-107 -19,2 -37,8 -53,17 -21,27 -38,71 -7,128z"/>
      <path class="fil20" d="M1636 1455c-31,-57 -14,-101 7,-128 -52,28 -84,85 -77,147 9,81 83,139 164,130 81,-9 139,-83 130,-164 -1,-8 -2,-15 -4,-23 -34,105 -169,131 -219,38z"/>
     </g>
     <g>
      <path class="fil21" d="M1792 1361c27,20 53,62 30,74 -17,9 -34,-35 -55,-52 -21,-16 -40,-25 -36,-34 4,-9 34,-8 61,12z"/>
      <path class="fil21" d="M1716 1343c-2,14 -38,6 -37,-5 1,-11 39,-5 37,5z"/>
     </g>
     <g>
      <path class="fil18" d="M1653 1541c0,15 11,26 26,27 15,0 26,-11 27,-26 0,-15 -11,-26 -26,-27 -15,0 -26,11 -27,26z"/>
      <path class="fil18" d="M1634 1505c0,5 4,10 10,10 5,0 10,-4 10,-10 0,-5 -4,-10 -10,-10 -5,0 -10,4 -10,10z"/>
      <path class="fil18" d="M1587 1455c0,6 5,11 10,11 6,0 11,-5 11,-10 0,-6 -5,-11 -10,-11 -6,0 -11,5 -11,10z"/>
      <path class="fil20" d="M1742 1468c0,12 9,22 21,22 12,0 22,-9 22,-21 0,-12 -9,-22 -21,-22 -12,0 -22,9 -22,21z"/>
      <path class="fil20" d="M1726 1431c0,7 5,12 12,13 7,0 12,-5 13,-12 0,-7 -5,-12 -12,-13 -7,0 -12,5 -13,12z"/>
      <path class="fil20" d="M1655 1410c0,4 3,8 7,8 4,0 8,-3 8,-7 0,-4 -3,-8 -7,-8 -4,0 -8,3 -8,7z"/>
      <path class="fil18" d="M1784 1543c0,6 5,11 11,12 6,0 11,-5 12,-11 0,-6 -5,-11 -11,-12 -6,0 -11,5 -12,11z"/>
     </g>
    </g>
    <g>
     <g>
      <path class="fil18" d="M1353 1844c0,0 2,-8 0,-15 -1,-7 7,-15 14,-10 7,5 20,9 26,1 6,-7 -1,-17 -21,-33 -20,-16 -32,-20 -38,-12 -6,7 14,22 11,28 -2,6 -8,13 -13,12 -5,-1 -15,1 -15,1l35 28z"/>
      <path class="fil18" d="M1186 1988c0,0 -2,8 0,15 1,7 -7,15 -14,10 -7,-5 -20,-9 -26,-1 -6,7 1,17 21,33 20,16 32,20 38,12 6,-7 -13,-22 -11,-28 2,-6 8,-13 13,-12 5,1 15,-1 15,-1l-35 -28z"/>
      <path class="fil18" d="M1341 1998c0,0 8,2 15,0 7,-1 15,7 10,14 -5,7 -9,20 -1,26 7,6 17,-1 33,-21 16,-20 20,-32 12,-38 -7,-6 -22,13 -28,11 -6,-2 -13,-8 -12,-13 1,-5 -1,-15 -1,-15l-28 35z"/>
      <path class="fil18" d="M1199 1834c0,0 -8,-2 -15,0 -7,1 -15,-7 -10,-14 5,-7 9,-20 1,-26 -7,-6 -17,1 -33,21 -16,20 -20,32 -12,38 7,6 22,-13 28,-11 6,2 13,8 12,13 -1,5 1,15 1,15l28 -35z"/>
     </g>
     <g>
      <path class="fil18" d="M1281 1808c0,0 -5,-8 -12,-13 -7,-5 -7,-18 3,-20 10,-2 24,-10 23,-21 -1,-11 -15,-14 -44,-10 -30,3 -43,10 -42,21 1,11 29,7 32,14 3,7 4,17 -1,21 -4,3 -11,14 -11,14l52 -6z"/>
      <path class="fil18" d="M1258 2024c0,0 5,8 12,13 7,5 7,18 -3,20 -10,2 -24,10 -23,21 1,11 15,14 44,10 30,-3 43,-10 42,-21 -1,-11 -29,-7 -32,-14 -3,-7 -4,-17 1,-21 4,-3 11,-14 11,-14l-52 6z"/>
      <path class="fil18" d="M1378 1927c0,0 8,-5 13,-12 5,-7 18,-7 20,3 2,10 10,24 21,23 11,-1 14,-15 10,-44 -3,-30 -10,-43 -21,-42 -11,1 -7,29 -14,32 -7,3 -17,4 -21,-1 -3,-4 -14,-11 -14,-11l6 52z"/>
      <path class="fil18" d="M1162 1905c0,0 -8,5 -13,12 -5,7 -18,7 -20,-3 -2,-10 -10,-24 -21,-23 -11,1 -14,15 -10,44 3,30 10,43 21,42 11,-1 7,-29 14,-32 7,-3 17,-4 21,1 3,4 14,11 14,11l-6 -52z"/>
     </g>
     <g>
      <path class="fil19" d="M1211 1915c39,73 144,52 170,-29 -15,-54 -67,-90 -124,-83 -15,2 -29,6 -41,13 -16,21 -29,55 -5,100z"/>
      <path class="fil20" d="M1211 1915c-24,-45 -11,-78 5,-100 -40,22 -65,66 -60,114 7,63 64,108 127,101 63,-7 108,-64 101,-127 -1,-6 -2,-12 -3,-18 -26,81 -131,102 -170,29z"/>
     </g>
     <g>
      <path class="fil21" d="M1331 1842c21,15 41,48 23,58 -14,7 -26,-28 -42,-40 -16,-13 -31,-19 -28,-27 3,-7 27,-6 48,9z"/>
      <path class="fil21" d="M1272 1827c-1,11 -30,5 -29,-4 0,-9 30,-4 29,4z"/>
     </g>
     <g>
      <path class="fil18" d="M1223 1982c0,11 9,21 20,21 11,0 21,-9 21,-20 0,-11 -9,-21 -20,-21 -11,0 -21,9 -21,20z"/>
      <path class="fil18" d="M1209 1954c0,4 3,8 7,8 4,0 8,-3 8,-7 0,-4 -3,-8 -8,-8 -4,0 -8,3 -8,7z"/>
      <path class="fil18" d="M1172 1915c0,5 4,8 8,8 5,0 8,-4 8,-8 0,-5 -4,-8 -8,-8 -5,0 -8,4 -8,8z"/>
      <path class="fil20" d="M1293 1925c0,9 7,17 16,17 9,0 17,-7 17,-16 0,-9 -7,-17 -16,-17 -9,0 -17,7 -17,16z"/>
      <path class="fil20" d="M1280 1896c0,5 4,10 9,10 5,0 10,-4 10,-9 0,-5 -4,-10 -9,-10 -5,0 -10,4 -10,9z"/>
      <path class="fil20" d="M1225 1880c0,3 3,6 6,6 3,0 6,-3 6,-6 0,-3 -3,-6 -6,-6 -3,0 -6,3 -6,6z"/>
      <path class="fil18" d="M1325 1984c0,5 4,9 9,9 5,0 9,-4 9,-9 0,-5 -4,-9 -9,-9 -5,0 -9,4 -9,9z"/>
     </g>
    </g>
    <g>
     <g>
      <path class="fil18" d="M881 2391c0,0 -1,-6 -3,-11 -3,-5 1,-13 8,-11 7,2 17,2 20,-5 3,-7 -5,-13 -23,-20 -18,-7 -28,-7 -31,0 -3,7 15,13 15,18 0,5 -3,11 -7,12 -4,1 -11,5 -11,5l32 12z"/>
      <path class="fil18" d="M792 2537c0,0 1,6 3,11 3,5 -1,13 -8,11 -7,-2 -17,-2 -20,5 -3,7 5,13 23,20 18,7 28,7 31,0 3,-7 -15,-13 -15,-18 0,-5 3,-11 7,-12 4,-1 11,-5 11,-5l-32 -12z"/>
      <path class="fil18" d="M908 2509c0,0 6,-1 11,-3 5,-3 13,1 11,8 -2,7 -2,17 5,20 7,3 13,-5 20,-23 7,-18 7,-28 0,-31 -7,-3 -13,15 -18,15 -5,0 -11,-3 -12,-7 -1,-4 -5,-11 -5,-11l-12 32z"/>
      <path class="fil18" d="M765 2420c0,0 -6,1 -11,3 -5,3 -13,-1 -11,-8 2,-7 2,-17 -5,-20 -7,-3 -13,5 -20,23 -7,18 -7,28 0,31 7,3 13,-15 18,-15 5,0 11,3 12,7 1,4 5,11 5,11l12 -32z"/>
     </g>
     <g>
      <path class="fil18" d="M820 2381c0,0 -6,-5 -12,-6 -6,-2 -9,-12 -2,-16 7,-4 15,-13 12,-21 -3,-8 -14,-7 -35,3 -21,9 -29,17 -26,25 3,8 23,-2 27,3 4,4 7,12 4,15 -2,4 -5,13 -5,13l37 -17z"/>
      <path class="fil18" d="M853 2547c0,0 6,5 12,6 6,2 9,12 2,16 -7,4 -15,13 -12,21 3,8 14,7 35,-3 21,-9 29,-17 26,-25 -3,-8 -23,2 -27,-3 -4,-4 -7,-12 -4,-15 2,-4 5,-13 5,-13l-37 17z"/>
      <path class="fil18" d="M919 2447c0,0 5,-6 6,-12 2,-6 12,-9 16,-2 4,7 13,15 21,12 8,-3 7,-14 -3,-35 -9,-21 -17,-29 -25,-26 -8,3 2,23 -3,27 -4,4 -12,7 -15,4 -4,-2 -13,-5 -13,-5l17 37z"/>
      <path class="fil18" d="M754 2481c0,0 -5,6 -6,12 -2,6 -12,9 -16,2 -4,-7 -13,-15 -21,-12 -8,3 -7,14 3,35 9,21 17,29 25,26 8,-3 -2,-23 3,-27 4,-4 12,-7 15,-4 4,2 13,5 13,5l-17 -37z"/>
     </g>
     <g>
      <path class="fil19" d="M792 2477c46,45 119,5 119,-62 -24,-36 -71,-51 -111,-33 -11,5 -20,11 -28,19 -7,20 -9,48 19,75z"/>
      <path class="fil20" d="M792 2477c-28,-27 -26,-56 -19,-75 -25,25 -33,64 -18,99 20,45 73,65 118,45 45,-20 65,-73 45,-118 -2,-4 -4,-8 -7,-12 0,66 -74,106 -119,62z"/>
     </g>
     <g>
      <path class="fil21" d="M865 2394c19,6 42,26 30,37 -8,8 -26,-14 -41,-20 -15,-6 -27,-7 -27,-13 0,-6 18,-11 38,-4z"/>
      <path class="fil21" d="M818 2398c2,8 -21,10 -23,4 -2,-7 21,-10 23,-4z"/>
     </g>
     <g>
      <path class="fil18" d="M818 2524c2,8 11,13 20,11 8,-2 13,-11 11,-20 -3,-8 -11,-13 -20,-11 -8,2 -13,11 -11,20z"/>
      <path class="fil18" d="M800 2506c1,3 4,5 7,4 3,-1 5,-4 4,-7 -1,-3 -4,-5 -7,-4 -3,1 -5,4 -4,7z"/>
      <path class="fil18" d="M764 2486c1,3 5,5 8,4 3,-1 5,-5 4,-8 -1,-3 -5,-5 -8,-4 -3,1 -5,5 -4,8z"/>
      <path class="fil20" d="M856 2465c2,7 9,11 16,9 7,-2 11,-9 9,-16 -2,-7 -9,-11 -16,-9 -7,2 -11,9 -9,16z"/>
      <path class="fil20" d="M840 2447c1,4 5,6 9,5 4,-1 6,-5 5,-9 -1,-4 -5,-6 -9,-5 -4,1 -6,5 -5,9z"/>
      <path class="fil20" d="M795 2448c1,2 3,4 6,3 2,-1 4,-3 3,-6 -1,-2 -3,-4 -6,-3 -2,1 -4,3 -3,6z"/>
      <path class="fil18" d="M894 2501c1,4 5,6 9,5 4,-1 6,-5 5,-9 -1,-4 -5,-6 -9,-5 -4,1 -6,5 -5,9z"/>
     </g>
    </g>
    <g>
     <g>
      <path class="fil18" d="M926 1504c0,0 -2,-5 -5,-8 -3,-3 -1,-10 4,-10 6,0 14,-2 15,-8 1,-6 -6,-9 -22,-11 -16,-2 -23,0 -24,6 -1,6 14,7 15,11 1,4 0,9 -3,11 -3,1 -8,6 -8,6l28 3z"/>
      <path class="fil18" d="M885 1635c0,0 2,5 5,8 3,3 1,10 -4,10 -5,0 -14,2 -15,8 -1,6 6,9 22,11 16,2 23,0 24,-6 1,-6 -14,-7 -15,-11 -1,-4 0,-9 3,-11 3,-1 8,-6 8,-6l-28 -3z"/>
      <path class="fil18" d="M970 1590c0,0 5,-2 8,-5 3,-3 10,-1 10,4 0,5 2,14 8,15 6,1 9,-6 11,-22 2,-16 0,-23 -6,-24 -6,-1 -7,14 -11,15 -4,1 -9,0 -11,-3 -1,-3 -6,-8 -6,-8l-3 28z"/>
      <path class="fil18" d="M841 1549c0,0 -5,2 -8,5 -3,3 -10,1 -10,-4 0,-5 -2,-14 -8,-15 -6,-1 -9,6 -11,22 -2,16 0,23 6,24 6,1 7,-14 11,-15 4,-1 9,0 11,3 1,3 6,8 6,8l3 -28z"/>
     </g>
     <g>
      <path class="fil18" d="M876 1508c0,0 -5,-2 -11,-3 -5,0 -9,-7 -5,-12 5,-4 9,-13 5,-19 -4,-6 -12,-2 -27,9 -15,12 -19,19 -15,25 4,6 18,-6 22,-3 4,3 8,8 6,11 -1,3 -2,11 -2,11l26 -20z"/>
      <path class="fil18" d="M935 1631c0,0 5,2 11,3 5,0 9,7 5,12 -5,4 -9,13 -5,19 4,6 12,2 27,-9 15,-12 19,-19 15,-25 -4,-6 -18,6 -22,3 -4,-3 -8,-8 -6,-11 1,-3 2,-11 2,-11l-26 20z"/>
      <path class="fil18" d="M967 1540c0,0 2,-5 3,-11 0,-5 7,-9 12,-5 4,5 13,9 19,5 6,-4 2,-12 -9,-27 -12,-15 -19,-19 -25,-15 -6,4 6,18 3,22 -3,4 -8,8 -11,6 -3,-1 -11,-2 -11,-2l20 26z"/>
      <path class="fil18" d="M844 1599c0,0 -2,5 -3,11 0,5 -7,9 -12,5 -4,-5 -13,-9 -19,-5 -6,4 -2,12 9,27 12,15 19,19 25,15 6,-4 -6,-18 -3,-22 3,-4 8,-8 11,-6 3,1 11,2 11,2l-20 -26z"/>
     </g>
     <g>
      <path class="fil19" d="M873 1588c45,26 94,-20 81,-72 -26,-24 -65,-26 -94,-4 -7,6 -13,13 -18,21 -2,17 3,39 30,55z"/>
      <path class="fil20" d="M873 1588c-27,-16 -32,-38 -30,-55 -14,25 -13,57 6,81 25,31 70,37 101,12 31,-25 37,-70 12,-101 -2,-3 -5,-6 -8,-8 13,52 -37,98 -81,72z"/>
     </g>
     <g>
      <path class="fil21" d="M914 1509c16,1 38,12 31,23 -5,8 -23,-6 -36,-8 -13,-1 -23,0 -24,-5 -1,-5 12,-12 29,-11z"/>
      <path class="fil21" d="M877 1521c3,6 -14,12 -17,7 -3,-5 15,-12 17,-7z"/>
     </g>
     <g>
      <path class="fil18" d="M902 1620c4,6 11,8 18,4 6,-4 8,-11 4,-18 -4,-6 -11,-8 -18,-4 -6,4 -8,11 -4,18z"/>
      <path class="fil18" d="M885 1609c1,2 4,3 7,2 2,-1 3,-4 2,-7 -1,-2 -4,-3 -7,-2 -2,1 -3,4 -2,7z"/>
      <path class="fil18" d="M853 1601c1,2 5,3 7,2 2,-1 3,-5 2,-7 -1,-2 -5,-3 -7,-2 -2,1 -3,5 -2,7z"/>
      <path class="fil20" d="M921 1567c3,5 9,7 14,4 5,-3 7,-9 4,-14 -3,-5 -9,-7 -14,-4 -5,3 -7,9 -4,14z"/>
      <path class="fil20" d="M904 1555c2,3 5,4 8,2 3,-2 4,-5 2,-8 -2,-3 -5,-4 -8,-2 -3,2 -4,5 -2,8z"/>
      <path class="fil20" d="M870 1565c1,2 3,2 5,1 2,-1 2,-3 1,-5 -1,-2 -3,-2 -5,-1 -2,1 -2,3 -1,5z"/>
      <path class="fil18" d="M957 1587c2,3 5,3 8,2 3,-2 3,-5 2,-8 -2,-3 -5,-3 -8,-2 -3,2 -3,5 -2,8z"/>
     </g>
    </g>
   </g>
  </g>
  <path class="fil17" d="M647 744l-40 0 0 159 40 0 0 -72 0 -87zm143 0l-41 0 0 84 -48 -84 -40 0 0 159 40 0 0 -85 48 85 41 0 0 -72 0 -87zm55 31l52 0 0 -31 -52 0 -22 0 -18 0 0 159 41 0 0 -66 38 0 3 -29 -41 0 0 -34zm195 -2c-5,-9 -12,-15 -21,-20 -11,-6 -24,-9 -40,-9 -16,0 -30,3 -40,9 -9,5 -16,12 -21,20 -6,8 -9,24 -9,46l0 10c0,18 2,31 5,39 5,12 14,22 25,28 11,6 24,9 40,9 16,0 30,-3 40,-9 11,-6 19,-15 25,-28 3,-7 5,-20 5,-39l0 -10c0,-22 -3,-37 -9,-46zm-86 92c-3,-3 -7,-12 -7,-28l0 -24c0,-18 3,-27 7,-30 4,-4 12,-7 24,-7 12,0 19,3 24,7 4,3 7,13 7,31l0 24c0,16 -3,25 -6,28 -3,5 -11,7 -24,8 -13,0 -21,-3 -25,-8zm269 8l-4 0c-15,0 -24,-3 -28,-8 -3,-3 -6,-10 -6,-27l0 -24c0,-18 2,-27 7,-31 6,-6 14,-7 28,-7 9,0 21,1 36,3l0 -31c-14,-3 -28,-4 -40,-4 -30,0 -51,10 -62,30 -5,9 -9,23 -9,46l0 10c0,19 2,31 6,39 10,24 32,37 65,37 9,0 17,-1 24,-2 7,-1 12,-2 17,-2l0 -32c-15,2 -26,4 -33,4zm175 -100c-5,-9 -12,-15 -21,-20 -11,-6 -24,-9 -40,-9 -16,0 -30,3 -40,9 -9,5 -16,12 -21,20 -6,8 -9,24 -9,46l0 10c0,18 2,31 5,39 5,12 14,22 25,28 11,6 24,9 40,9 16,0 30,-3 40,-9 11,-6 19,-15 25,-28 3,-7 5,-20 5,-39l0 -10c0,-22 -3,-37 -9,-46zm-86 92c-3,-3 -7,-12 -7,-28l0 -24c0,-18 3,-27 7,-30 4,-4 12,-7 24,-7 12,0 19,3 24,7 4,3 7,13 7,31l0 24c0,16 -3,25 -6,28 -3,5 -11,7 -24,8 -13,0 -21,-3 -25,-8zm254 -120l-45 0 -33 112 -33 -112 -45 0 50 159 28 0 28 0 50 -159zm48 0l-40 0 0 159 40 0 0 -72 0 -87zm137 28c-8,-15 -25,-29 -62,-29 -4,0 -19,0 -33,0 -8,0 -17,0 -27,0l0 159c5,0 11,0 18,0 11,0 26,0 43,0 34,0 57,-12 66,-36 3,-8 5,-21 5,-39l0 -10c0,-23 -3,-36 -9,-46zm-31 41l0 25c0,16 -4,24 -6,27 -4,5 -13,8 -28,8l-4 0c-3,0 -9,0 -14,-1l0 -96c6,-1 12,-1 17,-1 14,0 24,2 28,7 4,4 7,13 7,31zm-993 221c-8,-15 -25,-29 -62,-29 -4,0 -19,0 -33,0 -8,0 -17,0 -27,0l0 159c5,0 11,0 18,0 11,0 26,0 43,0 34,0 57,-12 66,-36 3,-8 5,-21 5,-39l0 -10c0,-23 -3,-36 -9,-46zm-31 41l0 25c0,16 -4,23 -6,27 -4,5 -13,8 -28,8l-4 0c-3,0 -9,0 -14,-1l0 -96c6,-1 12,-1 17,-1 14,0 24,2 28,7 4,4 7,13 7,31zm95 -38l52 0 0 -31 -93 0 0 159 93 0 0 -31 -52 0 0 -34 39 0 3 -29 -41 0 0 -34zm120 129l5 0c12,-1 25,-1 36,-7 13,-7 21,-19 22,-36 1,-9 1,-23 -9,-33 -9,-9 -24,-14 -39,-18 -14,-4 -24,-7 -28,-14 -1,-3 -1,-6 0,-8 3,-7 12,-11 28,-11 16,0 34,3 41,5l-3 -35c-10,-1 -26,-4 -41,-4l-6 0c-12,1 -25,1 -36,7 -13,7 -21,18 -22,36 -1,9 -1,23 9,33 10,10 27,15 41,19 13,4 22,7 26,13 1,3 1,6 0,8 -2,7 -11,10 -26,10 -18,0 -40,-4 -48,-6l3 36c10,2 29,4 47,4zm233 -1l-57 -159 -44 0 -58 159 45 0 7 -24 55 0 7 24 45 0zm-59 -54l-41 0 20 -68 20 68zm240 54l42 0c-7,-11 -55,-82 -55,-83l51 -75 -42 0c0,0 -11,17 -22,34 -7,10 -14,21 -22,34l0 -69 -41 0 0 159 41 0 0 -76c8,12 15,24 22,34 11,17 23,37 26,41zm207 0l-57 -159 -44 0 -58 159 45 0 7 -24 55 0 7 24 45 0zm-59 -54l-41 0 20 -68 20 68zm158 23l-52 0 0 -128 -40 0 0 159 95 0 -3 -31zm57 -128l-40 0 0 159 40 0 0 -72 0 -87zm128 20c-8,-14 -21,-21 -45,-21 -20,0 -37,0 -49,1 -7,0 -13,0 -19,0l0 159 40 0 0 -47c4,0 8,1 12,1 7,1 14,1 17,1 26,0 40,-8 48,-26 3,-5 4,-15 4,-28l0 -7c0,-16 -3,-26 -6,-33zm-30 30l0 14c0,10 -2,13 -5,16 -3,4 -9,6 -39,3l0 -54c26,-2 35,-1 40,4 2,3 4,7 4,17zm191 -50l-40 0 0 93c0,16 -3,25 -6,27 -3,5 -11,8 -24,8 -13,0 -21,-3 -25,-8 -3,-3 -7,-12 -7,-28l0 -92 -39 0 0 84c0,19 2,32 5,39 5,12 13,21 25,28 11,6 24,9 40,9 16,0 30,-3 40,-9 11,-6 19,-15 25,-28 4,-8 6,-21 6,-39l0 -84zm93 128l-4 0c-15,0 -24,-3 -28,-8 -3,-3 -6,-10 -6,-27l0 -24c0,-18 2,-27 7,-31 6,-6 14,-7 28,-7 9,0 21,1 36,3l0 -31c-14,-3 -28,-4 -40,-4 -30,0 -51,10 -62,30 -5,9 -9,23 -9,46l0 10c0,19 2,31 6,39 10,24 32,37 65,37 9,0 17,-1 24,-2 7,-1 12,-2 17,-2l0 -32c-15,2 -26,4 -33,4zm200 30l-57 -159 -44 0 -58 159 45 0 7 -24 55 0 7 24 45 0zm-59 -54l-41 0 20 -68 20 68zm195 -105l-41 0 0 84 -48 -84 -40 0 0 159 40 0 0 -85 48 85 41 0 0 -72 0 -87zm134 64l-40 0 -19 0 -3 29 24 0 0 35 -3 0 -4 0c-15,0 -24,-3 -28,-8 -4,-3 -7,-10 -7,-26l0 -25c0,-17 4,-29 8,-31 4,-5 14,-7 28,-7 8,0 24,1 40,4l-3 -31c-14,-3 -28,-4 -40,-4 -30,0 -50,10 -62,29 -6,8 -9,24 -9,46l0 10c0,19 2,32 5,39 10,24 32,36 66,36 14,0 26,-1 35,-3 5,-1 10,-2 14,-3l0 -61 0 -10 0 -19zm309 -64l-44 0 -24 100 -22 -100 -18 0 0 0 -18 0 -22 100 -24 -100 -45 0 42 159 47 0 18 -74 19 74 47 0 42 -159zm48 31l52 0 0 -31 -93 0 0 159 93 0 0 -31 -52 0 0 -34 39 0 3 -29 -41 0 0 -34zm183 0l0 -31 -38 0 -41 0 -37 0 0 31 37 0 0 128 41 0 0 -72 0 -56 38 0zm169 128l-57 -159 -44 0 -58 159 45 0 7 -24 55 0 7 24 45 0zm-59 -54l-41 0 20 -68 20 68zm195 -105l-41 0 0 84 -48 -84 -40 0 0 159 40 0 0 -85 48 85 41 0 0 -72 0 -87z"/>
 </g>
</svg>
