<?xml version="1.0" encoding="UTF-8"?>
<!DOCTYPE svg PUBLIC "-//W3C//DTD SVG 1.1//EN" "http://www.w3.org/Graphics/SVG/1.1/DTD/svg11.dtd">
<!-- Creator: CorelDRAW 2017 -->
<svg xmlns="http://www.w3.org/2000/svg" xml:space="preserve" width="50mm" height="39mm" version="1.1" style="shape-rendering:geometricPrecision; text-rendering:geometricPrecision; image-rendering:optimizeQuality; fill-rule:evenodd; clip-rule:evenodd"
viewBox="0 0 5000 3900"
 xmlns:xlink="http://www.w3.org/1999/xlink">
 <defs>
  <style type="text/css">
   <![CDATA[
    .str2 {stroke:#442F1F;stroke-width:34.58}
    .str0 {stroke:#442F1F;stroke-width:32.52}
    .str3 {stroke:#79A0CA;stroke-width:17.76;stroke-linecap:round}
    .str1 {stroke:#E9F6FB;stroke-width:37.76;stroke-linecap:round;stroke-linejoin:round}
    .fil0 {fill:none}
    .fil13 {fill:none;fill-rule:nonzero}
    .fil33 {fill:black;fill-rule:nonzero}
    .fil20 {fill:#1D2A36;fill-rule:nonzero}
    .fil12 {fill:#2D4D69;fill-rule:nonzero}
    .fil7 {fill:#2F2D2A;fill-rule:nonzero}
    .fil22 {fill:#364B62;fill-rule:nonzero}
    .fil27 {fill:#381C13;fill-rule:nonzero}
    .fil26 {fill:#3F2B23;fill-rule:nonzero}
    .fil6 {fill:#44423B;fill-rule:nonzero}
    .fil23 {fill:#4D8983;fill-rule:nonzero}
    .fil15 {fill:#4F2F21;fill-rule:nonzero}
    .fil5 {fill:#547C97;fill-rule:nonzero}
    .fil9 {fill:#5BA0D8;fill-rule:nonzero}
    .fil31 {fill:#79A0CA;fill-rule:nonzero}
    .fil10 {fill:#936052;fill-rule:nonzero}
    .fil17 {fill:#97CCED;fill-rule:nonzero}
    .fil8 {fill:#BF9C80;fill-rule:nonzero}
    .fil21 {fill:#CD9E5D;fill-rule:nonzero}
    .fil18 {fill:#CDEBF4;fill-rule:nonzero}
    .fil30 {fill:#CFEBF7;fill-rule:nonzero}
    .fil4 {fill:#D67E2D;fill-rule:nonzero}
    .fil25 {fill:#D6BA9A;fill-rule:nonzero}
    .fil1 {fill:#D6D4D3;fill-rule:nonzero}
    .fil2 {fill:#DBBDA7;fill-rule:nonzero}
    .fil19 {fill:#E9C187;fill-rule:nonzero}
    .fil16 {fill:#E9F6FB;fill-rule:nonzero}
    .fil32 {fill:#EDBF83;fill-rule:nonzero}
    .fil3 {fill:#EFC633;fill-rule:nonzero}
    .fil24 {fill:white;fill-rule:nonzero}
    .fil11 {fill:url(#id8);fill-rule:nonzero}
    .fil29 {fill:url(#id9);fill-rule:nonzero}
    .fil14 {fill:url(#id10);fill-rule:nonzero}
    .fil28 {fill:url(#id11);fill-rule:nonzero}
   ]]>
  </style>
         <mask id="id0">
  <linearGradient id="id1" gradientUnits="userSpaceOnUse" x1="4243" y1="912" x2="4212" y2="1021">
   <stop offset="0" style="stop-opacity:1; stop-color:white"/>
   <stop offset="1" style="stop-opacity:0; stop-color:white"/>
  </linearGradient>
          <rect style="fill:url(#id1)" x="4175" y="927" width="99" height="99"/>
         </mask>
         <mask id="id2">
  <linearGradient id="id3" gradientUnits="userSpaceOnUse" x1="4077" y1="934" x2="4100" y2="1013">
   <stop offset="0" style="stop-opacity:1; stop-color:white"/>
   <stop offset="1" style="stop-opacity:0; stop-color:white"/>
  </linearGradient>
          <rect style="fill:url(#id3)" x="4047" y="925" width="82" height="94"/>
         </mask>
        <mask id="id4">
  <linearGradient id="id5" gradientUnits="userSpaceOnUse" x1="3029" y1="989" x2="3046" y2="1073">
   <stop offset="0" style="stop-opacity:1; stop-color:white"/>
   <stop offset="1" style="stop-opacity:0; stop-color:white"/>
  </linearGradient>
         <rect style="fill:url(#id5)" x="2983" y="968" width="106" height="111"/>
        </mask>
        <mask id="id6">
  <linearGradient id="id7" gradientUnits="userSpaceOnUse" x1="3172" y1="968" x2="3188" y2="1048">
   <stop offset="0" style="stop-opacity:1; stop-color:white"/>
   <stop offset="1" style="stop-opacity:0; stop-color:white"/>
  </linearGradient>
         <rect style="fill:url(#id7)" x="3137" y="956" width="85" height="95"/>
        </mask>
  <linearGradient id="id8" gradientUnits="userSpaceOnUse" x1="4243" y1="912" x2="4212" y2="1021">
   <stop offset="0" style="stop-opacity:1; stop-color:#CB976C"/>
   <stop offset="1" style="stop-opacity:1; stop-color:#CB976C"/>
  </linearGradient>
  <linearGradient id="id9" gradientUnits="userSpaceOnUse" xlink:href="#id8" x1="3172" y1="968" x2="3188" y2="1048">
  </linearGradient>
  <linearGradient id="id10" gradientUnits="userSpaceOnUse" xlink:href="#id8" x1="4077" y1="934" x2="4100" y2="1013">
  </linearGradient>
  <linearGradient id="id11" gradientUnits="userSpaceOnUse" xlink:href="#id8" x1="3029" y1="989" x2="3046" y2="1073">
  </linearGradient>
 </defs>
 <g id="Layer_x0020_1">
  <metadata id="CorelCorpID_0Corel-Layer"/>
  <rect class="fil0" width="5000" height="3900"/>
  <g id="_2202377167600">
   <g>
    <path class="fil1" d="M4972 3706c0,37 -324,67 -723,67 -400,0 -723,-30 -723,-67 0,-37 324,-67 723,-67 399,0 723,30 723,67z"/>
    <g>
     <path class="fil2" d="M3543 1491c-1,-3 5,-48 2,-69 -3,-20 -15,-51 -14,-69 0,-18 -3,-46 -10,-48 -7,-2 -19,6 -17,27 2,21 4,54 1,56 -3,2 -53,-127 -63,-143 -11,-16 -30,-13 -14,30 16,43 41,101 34,103 -3,1 -61,-112 -69,-125 -8,-13 -35,-14 -16,26 19,40 59,113 55,116 -4,3 -63,-80 -75,-96 -12,-16 -34,-6 -10,28 24,34 59,85 60,92 1,7 -46,-46 -57,-58 -11,-11 -31,-4 -6,27 24,31 53,65 66,84 12,19 35,40 43,46 9,6 91,-25 90,-29z"/>
     <path class="fil2" d="M3803 1620c-80,94 -169,-2 -268,-155 -53,-5 -75,17 -82,43 -7,27 82,227 217,304 135,77 193,10 256,-109 -2,-77 -123,-85 -123,-85z"/>
     <path class="fil3" d="M4063 1318c0,0 -17,-1 -30,9 -43,34 -147,88 -262,300 0,0 9,74 162,95l84 -125c0,0 169,-165 46,-278z"/>
     <path class="fil4" d="M3939 1728c0,0 -140,-8 -175,-101l12 -20c0,0 1,77 171,104l-8 17z"/>
     <path class="fil2" d="M4506 1735c0,0 60,314 132,604l79 -21c0,0 -22,-436 -59,-622l-152 38z"/>
     <path class="fil5" d="M3944 2119c-13,358 -27,473 0,1403 0,0 52,74 161,20 0,0 66,-963 80,-1207 0,0 128,594 231,1195 0,0 84,49 156,-12 -99,-1038 -117,-1146 -144,-1371 0,0 -287,38 -484,-27z"/>
     <g>
      <g>
       <path class="fil6" d="M4691 3610c0,0 -93,-45 -110,-78 0,0 -52,0 -66,52 0,0 -71,24 -107,-18l-9 122 425 0c-12,-31 -21,-64 -133,-78z"/>
       <path class="fil7" d="M4408 3566c7,8 16,15 25,18 10,27 30,67 61,104l-94 0 9 -122z"/>
      </g>
     </g>
     <g>
      <g>
       <path class="fil6" d="M3823 3610c0,0 93,-45 110,-78 0,0 51,-19 66,33 0,0 78,15 107,1l9 122 -425 0c12,-31 21,-64 133,-78z"/>
       <path class="fil7" d="M4106 3566c-7,8 -16,15 -25,18 -10,27 -30,67 -61,104l94 0 -9 -122z"/>
      </g>
     </g>
     <path class="fil3" d="M4048 1320c0,0 -114,170 -112,819 0,0 168,81 501,25 0,0 -18,-211 29,-385 0,0 97,-364 29,-447 0,0 -142,-42 -447,-12z"/>
     <path class="fil3" d="M4495 1332c0,0 119,103 194,440 0,0 -29,68 -182,47l-47 -144c0,0 -115,-268 34,-343z"/>
     <path class="fil4" d="M4181 1308c0,0 -26,13 -3,46 22,33 113,45 166,22 38,-17 53,-47 15,-63 0,0 -86,-12 -177,-4z"/>
     <g>
      <path class="fil2" d="M4203 1289l-4 31c0,0 19,34 70,41 51,7 75,-21 75,-21l7 -65c-63,16 -124,20 -148,14z"/>
      <path class="fil8" d="M4351 1275l7 -73 -146 -19 -10 107c25,5 85,2 148,-14z"/>
     </g>
     <path class="fil4" d="M4499 1823c0,0 137,31 196,-49l-6 -23c0,0 -22,74 -193,53l3 18z"/>
     <path class="fil9" d="M3937 3468l-10 81c0,0 59,46 187,30l9 -75c0,0 -78,10 -186,-36z"/>
     <path class="fil9" d="M4392 3506l13 74c0,0 90,49 189,-33l-11 -63c0,0 -48,37 -191,22z"/>
     <g>
      <g>
       <path class="fil2" d="M4024 902c0,170 -17,227 11,276 26,47 102,111 280,66 128,-32 160,-130 160,-130 0,0 17,10 39,7 18,-2 43,-21 40,-53 -3,-45 -24,-59 -41,-63 -31,-9 -52,21 -52,21 0,0 0,-65 -7,-112 -7,-48 -15,-98 -241,-111 -56,-3 -131,-5 -161,9 -28,13 -29,44 -29,90z"/>
       <g>
        <g>
         <path class="fil10" d="M4163 1033c-8,-2 -17,-4 -25,-5 -8,0 -17,1 -23,6 -6,5 -4,14 1,20 5,6 12,11 19,16 -8,-3 -16,-7 -22,-14 -2,-2 -3,-4 -4,-5 -1,-2 -2,-4 -2,-7 -1,-5 1,-10 5,-14 8,-6 17,-7 26,-6 9,1 17,4 25,8z"/>
        </g>
       </g>
       <g>
        <path class="fil10" d="M4269 1117c2,5 1,10 0,15 -2,5 -4,10 -8,13 -7,8 -17,13 -27,15 -10,2 -21,1 -30,-2 -5,-1 -10,-3 -14,-5 -5,-2 -9,-4 -13,-7 5,1 10,3 14,4 5,1 10,2 14,3 10,1 19,2 29,0 9,-1 18,-5 25,-12 6,-6 13,-15 11,-25z"/>
       </g>
       <g>
        <path class="fil11" style="mask:url(#id0)" d="M4186 931c-5,20 -24,78 33,90 57,12 52,-59 52,-59 0,0 -59,-25 -84,-31z"/>
        <path class="fil12" d="M4199 929c65,13 98,43 56,38 -42,-6 -99,-46 -56,-38z"/>
        <path class="fil13 str0" d="M4189 1020c10,-23 35,-19 42,5"/>
       </g>
       <g>
        <path class="fil14" style="mask:url(#id2)" d="M4117 929c5,15 24,71 -20,84 -44,13 -46,-59 -46,-59 0,0 46,-19 66,-26z"/>
        <path class="fil12" d="M4106 927c-49,9 -78,40 -34,29 44,-11 59,-34 34,-29z"/>
        <path class="fil13 str0" d="M4081 1011c8,-28 38,-24 41,-2"/>
       </g>
      </g>
      <path class="fil15" d="M4575 706c-13,-3 -22,1 -30,4 9,-21 16,-43 12,-66 -18,0 -35,15 -36,33 3,-15 0,-31 -9,-43 -1,-1 -2,-3 -4,-3 -3,-1 -6,2 -8,5 -5,7 -7,36 -7,36 -9,-7 -30,-52 -91,-82 -76,-37 -182,-45 -182,-42 -2,12 0,27 7,40 -48,-44 -110,-48 -175,-43 -2,35 9,57 9,57 0,0 -64,-24 -64,-23 -18,32 -41,92 -22,122 -5,-6 -13,-10 -21,-12 -12,25 -12,54 -11,82 4,62 72,203 77,239 0,0 6,-134 46,-171 51,-47 20,53 110,14 78,-34 215,-45 238,36 10,34 23,159 35,189 22,-82 76,-93 98,-34 0,0 25,-33 34,-80 28,-132 11,-187 -24,-230 -2,-2 1,-3 1,-3 0,0 20,-17 16,-24z"/>
     </g>
     <path class="fil13 str1" d="M4043 1038c0,0 -15,-20 -22,-29"/>
     <path class="fil2" d="M4669 2228c0,6 -38,82 -48,102 -2,3 -3,7 -4,10l-17 85c-1,3 0,6 2,8 4,4 12,3 14,-2l28 -59c2,-4 8,-3 9,2l5 55 14 94c1,5 5,9 10,9l1 0c6,0 10,-5 10,-10l-1 -110c0,0 13,101 14,106 1,5 10,-1 10,-5l6 -99c0,0 -3,86 -3,89 0,5 8,1 8,1 2,-2 4,-4 4,-7l15 -88c0,0 -4,63 -4,71 -1,8 9,1 9,1 2,-2 3,-4 4,-6l14 -80c1,-3 0,-6 -1,-9l-55 -159 -43 0z"/>
     <path class="fil13 str1" d="M4319 1034c18,-13 96,-46 167,-24"/>
     <path class="fil13 str1" d="M4323 1209c0,0 30,13 65,6"/>
     <g>
      <path class="fil16" d="M4331 1025c0,0 -53,24 -111,23 -16,-12 -44,-20 -75,-20 -31,0 -58,8 -74,19 -16,-4 -33,-19 -33,-20 12,41 12,116 5,160 -3,17 4,34 17,42 89,58 188,37 251,0 14,-8 21,-26 18,-43 -12,-70 4,-161 4,-161z"/>
      <g>
       <path class="fil17" d="M4185 1074c-1,0 -2,0 -4,-1 -40,-22 -74,0 -74,0 -4,3 -9,1 -11,-4 -2,-5 -1,-10 3,-13 2,-1 42,-27 90,0 4,2 6,8 4,12 -1,3 -4,5 -7,5z"/>
      </g>
      <path class="fil18" d="M4046 1145c-1,16 -2,30 -4,42 -3,17 4,33 17,42 89,58 188,37 250,0 14,-8 21,-26 18,-43 -2,-13 -4,-27 -4,-42 -148,66 -240,22 -277,1z"/>
     </g>
    </g>
   </g>
   <g>
    <path class="fil1" d="M3337 3659c0,35 -198,64 -443,64 -245,0 -443,-29 -443,-64 0,-35 198,-64 443,-64 245,0 443,29 443,64z"/>
    <g>
     <g>
      <path class="fil19" d="M3320 2419c-1,5 -49,63 -62,79 -2,3 -4,5 -5,8l-32 70c-1,2 -1,5 0,7 3,5 9,5 13,1l36 -45c3,-3 8,-1 7,3l-7 48 -7 84c0,4 3,8 7,9l1 0c5,1 10,-2 11,-7l22 -95c0,0 -9,90 -10,94 -1,5 9,1 10,-2l25 -84c0,0 -20,74 -21,77 -1,4 7,2 7,2 2,-1 4,-3 5,-5l31 -73c0,0 -16,54 -18,60 -2,7 7,3 7,3 2,-1 4,-3 5,-5l28 -66c1,-2 1,-5 1,-8l-15 -149 -37 -8z"/>
      <path class="fil19" d="M3312 2437l33 -380c7,-26 15,-41 52,-47 56,-9 40,107 40,107l-79 332c-20,5 -45,1 -45,-12z"/>
      <path class="fil20" d="M3168 3632c-2,-3 -4,-5 -8,-7 -24,-13 -128,-70 -146,-88 -21,-21 -53,-41 -70,-24 -16,17 -32,96 -32,96 0,0 163,68 183,79 13,7 47,-5 70,-14 12,-5 16,-19 10,-30l-7 -11z"/>
      <path class="fil21" d="M2984 2167l-19 692 -41 674 88 1 95 -674 110 -602c0,0 -199,-176 -234,-91z"/>
      <path class="fil20" d="M2653 3634c3,-4 6,-8 11,-10 27,-15 126,-69 144,-87 21,-21 53,-41 70,-24 16,17 32,96 32,96 0,0 -163,68 -183,79 -11,6 -38,-2 -59,-10 -17,-6 -24,-27 -15,-43z"/>
      <path class="fil21" d="M2963 2170l-65 1363 -88 1 -81 -1273c0,0 199,-176 234,-91z"/>
      <path class="fil22" d="M2949 1511c0,0 128,-117 221,-98 138,28 316,743 316,743 0,0 -74,6 -144,-6 -28,-5 -173,-418 -166,-402 7,15 -15,132 -15,132 0,0 -247,-291 -211,-369z"/>
      <path class="fil23" d="M3188 1806c4,-138 -28,-332 -18,-392 0,0 -131,-37 -214,-29 -83,8 -142,29 -151,33 -15,7 -106,855 -97,894 11,48 507,46 467,-22 0,0 12,-437 14,-484z"/>
      <path class="fil22" d="M2714 1460c0,0 -52,927 -52,954 0,27 99,16 112,19 13,3 79,-1009 79,-1030 0,-7 -139,31 -139,58z"/>
      <path class="fil22" d="M3181 1413c0,0 -54,-18 -94,-20 -8,0 -31,578 -31,658 0,19 -11,358 -13,366 -3,8 190,-19 200,-35 11,-16 -32,-886 -62,-969z"/>
      <g>
       <path class="fil24" d="M3300 2256c0,0 0,0 0,0l0 0z"/>
      </g>
     </g>
     <path class="fil13 str1" d="M3089 1248c0,0 13,8 32,1"/>
     <g>
      <g>
       <path class="fil2" d="M3059 1288l0 86c0,0 -2,36 -76,36 -75,0 -76,-35 -76,-35l-1 -87 152 0z"/>
      </g>
      <g>
       <path class="fil25" d="M3058 1288l0 49c0,0 -2,16 -76,16 -75,0 -76,-16 -76,-16l0 -49 152 0z"/>
      </g>
      <path class="fil26" d="M3225 1077c57,-51 60,-216 13,-267 -15,-107 -67,-182 -158,-177 -149,-68 -370,6 -371,93 -79,19 -88,153 -56,302 38,177 190,256 261,245 153,-23 312,-196 312,-196z"/>
      <path class="fil2" d="M3239 919c23,180 48,237 26,293 -21,53 -93,130 -287,107 -139,-17 -186,-116 -186,-116 0,0 -17,13 -40,13 -20,0 -48,-16 -50,-50 -3,-48 17,-65 35,-72 31,-13 57,15 57,15 0,0 -9,-68 -7,-120 1,-51 3,-105 239,-150 58,-11 138,-23 171,-11 31,10 36,43 42,91z"/>
      <g>
       <g>
        <path class="fil27" d="M3110 1075c7,-6 16,-10 25,-13 9,-2 20,-3 29,3 4,3 8,9 7,15 0,3 -1,5 -2,8 -1,2 -2,4 -4,6 -6,8 -14,13 -22,17 6,-7 13,-13 18,-20 5,-7 5,-16 -1,-20 -6,-4 -15,-5 -24,-4 -9,1 -17,4 -26,7z"/>
       </g>
      </g>
      <g>
       <path class="fil28" style="mask:url(#id4)" d="M3072 971c8,20 36,80 -22,100 -58,20 -63,-55 -63,-55 0,0 58,-35 85,-44z"/>
       <path class="fil26" d="M3058 971c-67,22 -98,59 -54,47 43,-11 99,-62 54,-47z"/>
       <path class="fil13 str2" d="M3080 1065c-14,-23 -39,-15 -44,11"/>
      </g>
      <g>
       <path class="fil29" style="mask:url(#id6)" d="M3145 960c-4,17 -16,78 32,86 48,8 40,-68 40,-68 0,0 -51,-14 -73,-18z"/>
       <path class="fil26" d="M3156 957c52,3 88,32 40,26 -48,-6 -67,-27 -40,-26z"/>
       <path class="fil13 str2" d="M3193 1042c-12,-29 -43,-21 -44,3"/>
      </g>
      <path class="fil26" d="M2769 932c15,-27 66,-116 178,-164 102,-44 193,-28 224,-21l49 88c-9,35 -93,86 -173,102 61,-31 100,-62 100,-62 0,0 -134,83 -256,89 51,-10 72,-48 72,-48 0,0 -155,33 -160,124 -10,-31 24,-84 24,-84 0,0 -53,51 -38,134 -52,-60 -21,-158 -21,-158z"/>
     </g>
     <path class="fil13 str1" d="M3053 1263c0,0 -75,40 -163,33"/>
     <g>
      <path class="fil16" d="M3105 1068c-24,21 -75,63 -69,136 6,82 44,129 131,110 81,-18 103,-93 84,-148 -19,-55 -57,-89 -99,-104 -22,-9 -29,-9 -47,6z"/>
      <path class="fil30" d="M3164 1239c-68,11 -111,-7 -128,-36 0,0 0,0 0,0 6,82 43,128 131,110 81,-17 101,-88 86,-141 -7,24 -29,57 -89,67z"/>
      <g>
       <path class="fil31" d="M3151 1082c-22,-16 -35,-2 -39,5l-9 -7c2,-3 8,-11 18,-15 8,-3 21,-4 37,7l-6 10z"/>
      </g>
      <g>
       <path class="fil13 str3" d="M3090 1179c0,0 61,1 104,-14"/>
       <path class="fil13 str3" d="M3094 1208c0,0 61,1 104,-14"/>
       <path class="fil13 str3" d="M3099 1237c0,0 61,1 104,-14"/>
       <path class="fil13 str3" d="M3103 1267c0,0 61,1 104,-14"/>
      </g>
     </g>
     <path class="fil13 str1" d="M3191 1086c17,-23 44,-36 69,-63"/>
     <path class="fil13 str1" d="M3065 1117c0,0 -208,-50 -309,-28"/>
     <path class="fil32" d="M2500 1842c0,0 102,210 147,291 46,81 58,162 0,170 -36,3 -67,-37 -64,-50 3,-13 30,-6 30,-6 0,0 -37,0 -39,-56 -117,-106 -217,-368 -217,-368l144 20z"/>
     <path class="fil22" d="M2760 1428c-70,13 -353,273 -419,395 62,80 190,37 190,37l210 -158c0,0 15,-27 24,-119 7,-76 10,-120 -5,-155z"/>
    </g>
   </g>
  </g>
  <path class="fil33" d="M431 1002l-61 0 0 155c0,34 -28,37 -50,37l-5 48 10 0c27,0 43,-2 66,-14 23,-13 40,-30 40,-79l0 -58 0 -88zm250 238l-86 -238 -67 0 -87 238 67 0 11 -36 83 0 11 36 67 0zm-89 -81l-61 0 30 -102 30 102zm292 -157l-61 0 0 125 -72 -125 -61 0 0 238 61 0 0 -127 72 127 61 0 0 -108 0 -130zm200 96l-60 0 -28 0 -5 43 35 0 0 52 -5 0 -6 0c-22,0 -36,-4 -41,-12 -6,-4 -10,-16 -10,-40l0 -37c0,-26 5,-43 11,-47 7,-7 21,-10 42,-10 13,0 36,2 59,6l-5 -47c-22,-4 -41,-6 -60,-6 -45,0 -75,15 -93,44 -9,12 -13,36 -13,69l0 16c0,28 3,47 8,59 16,36 49,55 98,55 21,0 39,-2 52,-4 8,-1 15,-3 21,-4l0 -92 0 -15 0 -28zm251 141l-86 -238 -67 0 -87 238 67 0 11 -36 83 0 11 36 67 0zm-89 -81l-61 0 30 -102 30 102zm292 -157l-61 0 0 125 -72 -125 -61 0 0 238 61 0 0 -127 72 127 61 0 0 -108 0 -130zm285 192l-77 0 0 -192 -60 0 0 238 142 0 -5 -46zm236 -192l-60 0 0 139c0,24 -4,37 -9,41 -5,7 -17,11 -36,12 -19,-1 -31,-5 -37,-12 -5,-4 -10,-18 -10,-42l0 -139 -59 0 0 126c0,28 3,48 8,59 8,18 20,32 37,41 16,9 36,13 61,13 24,0 44,-5 61,-13 16,-9 29,-23 37,-41 5,-12 8,-31 8,-59l0 -126zm192 30c-12,-21 -31,-31 -67,-31 -30,0 -56,1 -74,1 -10,0 -20,0 -29,1l0 238 59 0 0 -70c6,1 12,1 18,2 10,1 20,2 25,1 39,0 60,-12 71,-38 4,-8 5,-22 5,-42l0 -11c0,-24 -4,-38 -10,-49zm-44 45l0 21c0,15 -3,19 -7,24 -5,6 -14,9 -58,4l0 -81c40,-3 53,-1 60,6 3,4 6,10 6,25zm303 163l-86 -238 -67 0 -87 238 67 0 11 -36 83 0 11 36 67 0zm-89 -81l-61 0 30 -102 30 102z"/>
  <path class="fil33" d="M374 1393l-58 0 -4 31 25 0 0 0 0 119 36 0 0 -150zm209 27c-8,-15 -24,-27 -59,-27 -4,0 -18,0 -31,0 -8,0 -16,0 -26,0l0 151c5,0 10,0 17,0 10,0 25,0 41,0 32,0 54,-11 62,-34 3,-7 5,-19 5,-37l0 -10c0,-21 -3,-34 -9,-44zm-29 39l0 23c0,15 -4,22 -6,25 -4,5 -12,7 -27,7l-4 0c-3,0 -8,0 -13,-1l0 -91c6,-1 12,-1 16,-1 14,0 22,2 27,7 4,4 7,13 7,29zm90 -36l49 0 0 -29 -88 0 0 150 88 0 0 -30 -49 0 0 -32 37 0 2 -27 -39 0 0 -32zm113 122l5 0c11,-1 24,-1 34,-7 12,-6 19,-18 21,-34 1,-8 1,-22 -9,-31 -8,-9 -23,-13 -36,-17 -13,-4 -23,-7 -26,-13 -1,-3 -1,-5 0,-8 3,-7 11,-10 26,-10 15,0 32,3 38,5l-3 -33c-9,-1 -24,-3 -39,-3l-6 0c-11,1 -23,1 -34,7 -12,6 -19,17 -21,34 -1,9 -1,22 8,31 10,10 26,15 38,18 12,3 21,6 24,12 1,3 1,5 0,8 -2,6 -10,10 -25,10 -17,0 -38,-4 -45,-6l3 34c10,2 27,4 45,4zm115 -122l49 0 0 -29 -88 0 0 150 88 0 0 -30 -49 0 0 -32 37 0 2 -27 -39 0 0 -32zm262 121l-23 -150 -57 0 -20 71 -20 -71 -59 0 -22 150 44 0 13 -106 31 106 28 0 31 -106 13 106 42 0zm111 -78c8,-6 14,-15 14,-27l0 -4c0,-32 -23,-42 -48,-43 -3,0 -18,0 -34,1 -9,0 -19,0 -30,1l0 150c2,0 62,2 68,2 22,0 49,-13 49,-42l0 -4c0,-14 -5,-25 -18,-33l0 0zm-31 -12l-29 0 0 -31 20 0c16,-1 21,6 21,16 0,12 -4,14 -12,16l0 0zm-5 61l-23 -1 -1 0 0 -32 31 0c9,1 14,8 14,17 0,10 -7,17 -21,16l0 0zm106 -92l49 0 0 -29 -88 0 0 150 88 0 0 -30 -49 0 0 -32 37 0 2 -27 -39 0 0 -32zm117 78c10,2 15,9 18,16 3,6 6,13 8,18 1,3 3,6 4,9l40 0c-2,-5 -4,-10 -6,-14 -3,-7 -6,-15 -7,-18 -2,-5 -9,-16 -20,-20 9,-4 14,-8 17,-15 3,-5 6,-13 6,-26l0 -7c0,-15 -3,-24 -6,-31 -8,-13 -19,-20 -42,-20 -19,0 -35,0 -47,1 -7,0 -13,0 -18,0l0 150 37 0 0 -44c1,0 3,0 5,0 3,0 7,0 12,1zm-16 -28l0 -51c25,-2 34,0 39,4 2,3 3,7 3,16l0 11c0,6 -1,11 -5,15 -3,3 -7,4 -10,5 -2,0 -4,1 -5,0 -2,0 -8,0 -13,0 -3,0 -6,0 -9,0zm283 41l-60 0 13 -10c23,-19 46,-39 46,-65 0,-27 -19,-47 -55,-47 -16,0 -29,4 -41,9l-4 36c11,-6 26,-12 35,-13 17,-2 28,4 27,17 -1,16 -16,25 -50,54l-20 17 0 31 105 0 3 -30zm74 -122c-47,-1 -65,30 -65,77 0,46 16,78 64,77 46,1 64,-28 64,-78 0,-44 -15,-78 -64,-76zm0 124c-18,0 -29,-15 -29,-47 0,-33 11,-47 29,-47 19,0 28,16 28,47 0,31 -9,47 -28,47zm182 -2l-60 0 13 -10c23,-19 46,-39 46,-65 0,-27 -19,-47 -55,-47 -16,0 -29,4 -41,9l-4 36c11,-6 26,-12 35,-13 17,-2 28,4 27,17 -1,16 -16,25 -50,54l-20 17 0 31 105 0 3 -30zm74 -122c-47,-1 -65,30 -65,77 0,46 16,78 64,77 46,1 64,-28 64,-78 0,-44 -15,-78 -64,-76zm0 124c-18,0 -29,-15 -29,-47 0,-33 11,-47 29,-47 19,0 28,16 28,47 0,31 -9,47 -28,47z"/>
  <path class="fil33" d="M449 2219l63 0c-10,-17 -82,-123 -82,-125l77 -113 -63 0c0,0 -17,26 -33,51 -10,15 -21,32 -33,51l0 -103 -61 0 0 238 61 0 0 -113c12,19 23,36 32,51 17,26 34,55 39,62zm142 -192l78 0 0 -46 -139 0 0 238 139 0 0 -47 -78 0 0 -51 58 0 4 -43 -62 0 0 -50zm186 124c16,3 23,14 28,25 5,10 9,20 12,29 2,5 4,10 6,14l63 0c-3,-8 -6,-16 -9,-23 -5,-12 -10,-24 -12,-29 -3,-7 -14,-25 -32,-32 14,-6 22,-13 28,-23 5,-9 10,-21 10,-41l0 -11c0,-24 -4,-38 -10,-49 -13,-21 -31,-31 -67,-31 -30,0 -56,1 -74,1 -10,0 -20,0 -29,1l0 238 59 0 0 -70c2,0 5,0 8,0 5,0 11,0 18,2zm-26 -45l0 -81c39,-3 54,-1 61,7 4,5 5,10 5,26l0 17c0,10 -1,17 -7,23 -5,5 -11,7 -16,8 -3,1 -6,1 -9,1 -4,0 -12,0 -20,-1 -5,0 -10,0 -15,-1zm265 -125l-61 0 0 155c0,34 -28,37 -50,37l-5 48 10 0c27,0 43,-2 66,-14 23,-13 40,-30 40,-79l0 -58 0 -88zm250 238l-86 -238 -67 0 -87 238 67 0 11 -36 83 0 11 36 67 0zm-89 -81l-61 0 30 -102 30 102zm385 -43c13,-10 22,-24 22,-43l0 -6c0,-50 -37,-66 -76,-68 -4,0 -29,0 -54,1 -14,0 -30,1 -48,1l0 237c3,0 98,3 108,3 36,0 77,-20 77,-67l0 -6c0,-23 -8,-39 -29,-52l0 0zm-50 -19l-46 0 0 -50 31 -1c25,-1 34,10 34,25 0,19 -7,23 -20,25l0 0zm-9 96l-36 -1 -1 0 0 -51 49 0c14,2 22,12 22,28 0,15 -11,26 -34,25l0 0zm335 46l-86 -238 -67 0 -87 238 67 0 11 -36 83 0 11 36 67 0zm-89 -81l-61 0 30 -102 30 102zm232 81l63 0c-10,-17 -82,-123 -82,-125l77 -113 -63 0c0,0 -17,26 -33,51 -10,15 -21,32 -33,51l0 -103 -61 0 0 238 61 0 0 -113c12,19 23,36 32,51 17,26 34,55 39,62zm256 -192l0 -46 -57 0 -61 0 -56 0 0 46 56 0 0 192 61 0 0 -108 0 -84 57 0zm86 -46l-61 0 0 238 61 0 0 -108 0 -130zm-1690 630l-36 -238 -90 0 -32 113 -32 -113 -93 0 -36 237 69 1 20 -168 49 168 45 0 49 -168 20 168 67 0zm247 0l-86 -238 -67 0 -87 238 67 0 11 -36 83 0 11 36 67 0zm-89 -81l-61 0 30 -102 30 102zm180 82l8 0c18,-1 37,-2 54,-11 19,-10 31,-28 34,-54 2,-13 2,-34 -14,-49 -13,-14 -36,-21 -58,-27 -20,-6 -36,-11 -41,-21 -2,-4 -2,-8 0,-13 4,-10 18,-16 42,-16 24,0 51,5 61,7l-5 -52c-15,-2 -38,-5 -62,-5l-9 0c-17,1 -37,2 -54,11 -20,10 -31,28 -34,54 -2,14 -2,34 13,50 15,15 41,23 61,28 19,5 34,10 38,20 2,4 2,8 0,12 -3,10 -16,15 -39,15 -27,0 -60,-7 -71,-9l5 53c16,3 43,7 71,7zm349 -2l-86 -238 -67 0 -87 238 67 0 11 -36 83 0 11 36 67 0zm-89 -81l-61 0 30 -102 30 102zm236 34l-77 0 0 -192 -60 0 0 238 142 0 -5 -46z"/>
  <path class="fil33" d="M435 2966l0 -32 -39 0 -42 0 -39 0 0 32 39 0 0 133 42 0 0 -75 0 -58 39 0zm115 38c-7,-16 -23,-24 -47,-24 -9,0 -17,1 -25,4 -17,7 -26,21 -26,41l0 28c0,7 1,15 4,22 8,17 24,26 50,26 10,0 19,0 27,-1 12,-2 19,-3 19,-4l0 -30 0 0c-14,3 -27,4 -40,4l-3 0c-6,0 -10,-1 -13,-2 -5,-2 -7,-7 -7,-15l0 -4 66 0 0 -1 0 -20c0,-11 -1,-20 -4,-26zm-32 21l0 2 -30 0 0 -6c0,-9 4,-14 15,-14 4,0 7,1 10,3 4,2 5,6 5,15zm133 49c-1,0 -13,-1 -19,-4 -8,-2 -8,-8 -8,-16l0 -42 0 34 0 -34 24 0 4 -30 -28 0 0 -35 -36 6 0 29 -18 0 0 30 18 0 0 22c0,11 0,23 0,24 0,43 28,41 54,41l9 0 0 -26zm110 -74c-6,-11 -20,-17 -43,-17l-36 0 -3 30 34 0c6,0 11,1 14,3 2,1 4,6 4,14l0 4 -17 0c-17,0 -27,1 -31,4 -10,5 -15,14 -15,28l0 1c0,8 2,15 6,22 6,8 15,13 26,13l3 0c11,0 22,-3 32,-9 0,2 0,4 1,5 0,1 0,2 1,2l30 0 0 -72c0,-12 -2,-21 -5,-28zm-32 58l0 13c-6,3 -12,5 -17,5 -7,0 -10,-3 -10,-10 0,-3 1,-5 2,-6 2,-2 6,-2 13,-2l12 0zm51 -73l0 25 0 143 36 -7 0 -46 0 -4c2,1 5,2 7,2 5,1 11,2 19,2 21,0 34,-6 39,-17 3,-5 4,-16 4,-34l0 -11c0,-19 -2,-28 -4,-35 -2,-5 -8,-16 -21,-20 -19,-6 -37,1 -48,7 0,-2 0,-3 -1,-5 0,-1 0,-2 -1,-2l-30 0 0 3zm36 80l0 -48c4,-2 7,-2 10,-3 2,0 3,0 4,-1 10,-2 16,2 18,9 1,2 1,4 1,7l0 27c0,7 -3,12 -10,13l-3 0 -2 0c-5,0 -11,-2 -17,-5zm298 -63l-42 0 -20 0 -3 30 24 0 0 36 -3 0 -4 0c-15,0 -25,-3 -29,-8 -4,-3 -7,-11 -7,-28l0 -26c0,-18 4,-30 8,-33 5,-5 14,-7 29,-7 9,0 25,1 41,4l-4 -33c-15,-3 -29,-4 -42,-4 -32,0 -52,10 -65,30 -6,9 -9,25 -9,48l0 11c0,19 2,33 5,41 11,25 34,38 68,38 15,0 27,-1 36,-3 5,-1 10,-2 15,-3l0 -64 0 -10 0 -20zm20 83c9,15 22,17 37,17 18,-1 30,-8 33,-9 1,2 1,4 2,5l1 2 30 0 0 -117 -37 0 0 83c-6,4 -12,5 -16,5 -2,0 -5,0 -7,0 -7,-2 -11,-6 -11,-13l0 -74 -37 0 0 68c0,19 1,28 4,35zm219 -88c-9,-15 -22,-17 -36,-16 -18,1 -30,8 -32,9 -1,-2 -2,-4 -2,-6l-1 -2 -30 0 0 118 36 0 0 -84c6,-4 11,-4 15,-5 2,0 5,0 7,0 7,2 10,6 10,13l0 75 36 0 0 -69c0,-18 -1,-28 -4,-34zm113 3c-6,-11 -20,-17 -43,-17l-36 0 -3 30 34 0c6,0 11,1 14,3 2,1 4,6 4,14l0 4 -17 0c-17,0 -27,1 -31,4 -10,5 -15,14 -15,28l0 1c0,8 2,15 6,22 6,8 15,13 26,13l3 0c11,0 22,-3 32,-9 0,2 0,4 1,5 0,1 0,2 1,2l30 0 0 -72c0,-12 -2,-21 -5,-28zm-32 58l0 13c-6,3 -12,5 -17,5 -7,0 -10,-3 -10,-10 0,-3 1,-5 2,-6 2,-2 6,-2 13,-2l12 0zm87 -129l-36 6 0 165 36 0 0 -55 0 0 33 55 39 0 -36 -61 36 -57 -39 0 -33 52 0 0 0 -106zm180 71c-6,-11 -20,-17 -43,-17l-36 0 -3 30 34 0c6,0 11,1 14,3 2,1 4,6 4,14l0 4 -17 0c-17,0 -27,1 -31,4 -10,5 -15,14 -15,28l0 1c0,8 2,15 6,22 6,8 15,13 26,13l3 0c11,0 22,-3 32,-9 0,2 0,4 1,5 0,1 0,2 1,2l30 0 0 -72c0,-12 -2,-21 -5,-28zm-32 58l0 13c-6,3 -12,5 -17,5 -7,0 -10,-3 -10,-10 0,-3 1,-5 2,-6 2,-2 6,-2 13,-2l12 0zm151 -61c-9,-15 -22,-17 -36,-16 -18,1 -30,8 -32,9 -1,-2 -2,-4 -2,-6l-1 -2 -30 0 0 118 36 0 0 -84c6,-4 11,-4 15,-5 2,0 5,0 7,0 7,2 10,6 10,13l0 75 36 0 0 -69c0,-18 -1,-28 -4,-34zm328 103l-25 -165 -63 0 -22 78 -22 -78 -64 0 -25 165 48 0 14 -117 34 117 31 0 34 -117 14 117 47 0zm106 -100c-6,-11 -20,-17 -43,-17l-36 0 -3 30 34 0c6,0 11,1 14,3 2,1 4,6 4,14l0 4 -17 0c-17,0 -27,1 -31,4 -10,5 -15,14 -15,28l0 1c0,8 2,15 6,22 6,8 15,13 26,13l3 0c11,0 22,-3 32,-9 0,2 0,4 1,5 0,1 0,2 1,2l30 0 0 -72c0,-12 -2,-21 -5,-28zm-32 58l0 13c-6,3 -12,5 -17,5 -7,0 -10,-3 -10,-10 0,-3 1,-5 2,-6 2,-2 6,-2 13,-2l12 0zm147 10c1,-8 0,-18 -8,-26 -16,-15 -57,-14 -52,-26 4,-10 44,-4 55,-1l-3 -31c-9,-2 -25,-4 -41,-3 -17,1 -46,3 -50,34 -1,8 0,18 8,26 17,17 56,14 52,26 -5,11 -51,2 -60,0l3 32c9,2 28,4 45,4 17,-1 46,-3 49,-34zm49 -140l-36 6 0 165 36 0 0 -55 0 0 33 55 39 0 -36 -61 36 -57 -39 0 -33 52 0 0 0 -106zm185 76c-7,-16 -23,-24 -47,-24 -9,0 -17,1 -25,4 -17,7 -26,21 -26,41l0 28c0,7 1,15 4,22 8,17 24,26 50,26 10,0 19,0 27,-1 12,-2 19,-3 19,-4l0 -30 0 0c-14,3 -27,4 -40,4l-3 0c-6,0 -10,-1 -13,-2 -5,-2 -7,-7 -7,-15l0 -4 66 0 0 -1 0 -20c0,-11 -1,-20 -4,-26zm-32 21l0 2 -30 0 0 -6c0,-9 4,-14 15,-14 4,0 7,1 10,3 4,2 5,6 5,15zm110 -43c-7,2 -12,3 -17,5 -4,2 -6,2 -8,3 -1,-2 -1,-4 -2,-6 0,-1 -1,-2 -1,-3l-30 0 0 118 36 0 0 -74 0 -6c10,-4 17,-6 22,-7l2 0c3,-1 11,-1 15,-1l-4 -31c-5,0 -9,1 -14,2zm158 100c0,-4 0,-10 -4,-13 -3,-3 -10,-4 -15,-4 -5,0 -11,1 -15,4 -4,3 -4,9 -4,13 0,4 0,11 4,13 3,3 11,4 15,4 4,0 12,-1 15,-4 4,-3 4,-9 4,-13zm-34 -26l30 0 4 -111 -39 0 4 111z"/>
 </g>
</svg>
