<?xml version="1.0" encoding="UTF-8"?>
<!DOCTYPE svg PUBLIC "-//W3C//DTD SVG 1.1//EN" "http://www.w3.org/Graphics/SVG/1.1/DTD/svg11.dtd">
<!-- Creator: CorelDRAW 2017 -->
<svg xmlns="http://www.w3.org/2000/svg" xml:space="preserve" width="202.136mm" height="36.0472mm" version="1.1" style="shape-rendering:geometricPrecision; text-rendering:geometricPrecision; image-rendering:optimizeQuality; fill-rule:evenodd; clip-rule:evenodd"
viewBox="0 0 2055211 366508"
 xmlns:xlink="http://www.w3.org/1999/xlink">
 <defs>
  <style type="text/css">
   <![CDATA[
    .str1 {stroke:#FEFEFE;stroke-width:17217;stroke-linecap:round;stroke-linejoin:round;stroke-miterlimit:22.9256}
    .str0 {stroke:#FEFEFE;stroke-width:4891;stroke-linecap:round;stroke-linejoin:round;stroke-miterlimit:22.9256}
    .fil0 {fill:none;fill-rule:nonzero}
    .fil1 {fill:black;fill-rule:nonzero}
    .fil2 {fill:url(#id0);fill-rule:nonzero}
   ]]>
  </style>
  <linearGradient id="id0" gradientUnits="objectBoundingBox" x1="47.5686%" y1="0%" x2="52.4314%" y2="132.32%">
   <stop offset="0" style="stop-opacity:1; stop-color:#FF6600"/>
   <stop offset="1" style="stop-opacity:1; stop-color:#A60000"/>
  </linearGradient>
 </defs>
 <g id="Layer_x0020_1">
  <metadata id="CorelCorpID_0Corel-Layer"/>
  <g>
   <path class="fil0 str0" d="M41708 325253l38719 0 0 37815 -41524 0c-5246,0 -10101,-784 -14565,-2352 -4462,-1569 -8308,-3724 -11534,-6469 -3227,-2744 -5760,-6001 -7599,-9771 -1839,-3769 -2759,-7855 -2759,-12258 0,-4403 920,-8428 2759,-12077 1839,-3649 4372,-6785 7599,-9409 3226,-2623 7071,-4643 11534,-6061 4464,-1417 9318,-2126 14565,-2126l43334 0 -12123 15741 -31211 0c-2533,0 -4884,362 -7056,1086 -2171,723 -4056,1749 -5654,3076 -1598,1327 -2850,2879 -3754,4659 -905,1779 -1357,3755 -1357,5926 0,2171 437,4146 1312,5926 874,1779 2111,3302 3709,4568 1598,1267 3483,2247 5654,2940 2172,693 4554,1040 7147,1040l22888 0 0 -8776 -31301 0 11218 -13479z"/>
  </g>
  <g>
   <polygon id="1" class="fil0 str0" points="161485,347507 149452,363068 91192,363068 91192,302546 161304,302546 149181,318287 110009,318287 110009,325524 157956,325524 147191,339275 110009,339275 110009,347507 "/>
  </g>
  <g>
   <path id="2" class="fil0 str0" d="M253760 363068l-25060 0 -13479 -16013 -28768 0 0 16013 -18726 0 0 -30940 52651 0c2895,0 5337,-603 7328,-1809 1990,-1207 2985,-2865 2985,-4976 0,-2352 -905,-4116 -2714,-5292 -1810,-1176 -4343,-1764 -7599,-1764l-52651 0 12212 -15741 38901 0c3438,0 6996,316 10675,950 3680,633 7027,1764 10041,3393 3016,1628 5504,3830 7464,6604 1960,2775 2940,6332 2940,10675 0,2353 -362,4583 -1086,6695 -724,2111 -1764,4010 -3121,5699 -1356,1689 -3016,3121 -4975,4297 -1960,1176 -4177,2006 -6650,2488 1025,784 2171,1779 3438,2985 1267,1207 2956,2865 5066,4976l11127 11761z"/>
  </g>
  <g>
   <path id="3" class="fil0 str0" d="M286056 363068l11308 -15560 15198 0c1809,0 3694,0 5654,0 1959,0 3663,60 5111,181 -845,-1086 -1825,-2457 -2940,-4116 -1115,-1659 -2186,-3212 -3212,-4660l-10856 -16012 -28406 40167 -22164 0 38809 -54731c1267,-1750 2865,-3318 4795,-4704 1930,-1388 4373,-2081 7328,-2081 2835,0 5202,649 7102,1945 1899,1297 3513,2910 4840,4841l37815 54731 -70382 0z"/>
  </g>
  <g>
   <path id="4" class="fil0 str0" d="M439486 363068l-28315 0 -18274 -15922c-3137,-2714 -5534,-4824 -7192,-6332 -1658,-1508 -3000,-2775 -4025,-3800 60,1387 120,2819 181,4297 60,1478 89,2940 89,4388l0 17369 -18817 0 0 -60522 18817 0 0 14022c0,1870 -29,3709 -89,5519 -61,1809 -151,3498 -271,5066 1206,-1086 2668,-2428 4387,-4026 1718,-1598 3965,-3543 6740,-5835l17460 -14746 27140 0 -23159 17369c-1991,1508 -3755,2835 -5292,3981 -1538,1146 -2910,2141 -4117,2986 -1206,844 -2306,1598 -3301,2261 -995,663 -1976,1296 -2940,1899 1749,1207 3860,2715 6332,4524 2473,1810 5669,4312 9590,7509l25059 19993z"/>
  </g>
  <g>
   <path id="5" class="fil0 str0" d="M471240 363068l11308 -15560 15198 0c1809,0 3694,0 5654,0 1959,0 3663,60 5111,181 -845,-1086 -1825,-2457 -2940,-4116 -1115,-1659 -2186,-3212 -3212,-4660l-10856 -16012 -28406 40167 -22164 0 38809 -54731c1267,-1750 2865,-3318 4795,-4704 1930,-1388 4373,-2081 7328,-2081 2835,0 5202,649 7102,1945 1899,1297 3513,2910 4840,4841l37815 54731 -70382 0z"/>
  </g>
  <g>
   <path id="6" class="fil0 str0" d="M609653 364063c-1206,0 -2397,-196 -3573,-589 -1176,-391 -2488,-1281 -3936,-2668l-37091 -33292 0 35554 -17007 0 0 -50209c0,-1990 286,-3709 859,-5156 572,-1448 1327,-2624 2261,-3528 935,-905 2020,-1569 3257,-1991 1236,-422 2518,-633 3845,-633 1146,0 2307,196 3482,589 1176,391 2518,1281 4026,2668l37091 33292 0 -35554 17098 0 0 50118c0,1990 -286,3709 -859,5156 -572,1448 -1327,2639 -2261,3574 -935,934 -2036,1614 -3302,2036 -1266,422 -2563,633 -3890,633z"/>
  </g>
  <g>
   <path id="7" class="fil0 str0" d="M707446 325072c1327,2352 2488,4418 3483,6197 995,1779 1870,3362 2623,4749 754,1387 1417,2654 1991,3800 572,1146 1131,2262 1674,3347 482,-1085 1010,-2186 1583,-3301 572,-1116 1236,-2382 1990,-3800 754,-1417 1629,-3000 2624,-4750 994,-1749 2156,-3800 3482,-6151l9680 -17188c1085,-1931 2457,-3483 4116,-4660 1658,-1175 3724,-1764 6197,-1764 2352,0 4478,679 6378,2036 1899,1357 3272,3453 4116,6288l15289 53194 -18636 0 -5699 -21078c-966,-3438 -1779,-6453 -2443,-9047 -663,-2594 -1236,-5126 -1718,-7599 -1026,2111 -2172,4448 -3438,7011 -1267,2563 -2925,5805 -4976,9725l-8142 15198c-784,1507 -1583,2698 -2397,3573 -814,874 -1643,1554 -2488,2036 -844,483 -1749,799 -2714,950 -965,151 -2020,227 -3166,227 -1146,0 -2201,-75 -3166,-227 -965,-150 -1870,-467 -2715,-950 -844,-482 -1674,-1161 -2487,-2036 -814,-874 -1614,-2066 -2397,-3573l-8142 -15289c-1086,-2051 -2051,-3890 -2895,-5519 -845,-1629 -1614,-3091 -2307,-4387 -693,-1297 -1297,-2488 -1810,-3574 -512,-1086 -1010,-2141 -1493,-3166 -482,2413 -1055,4930 -1718,7554 -664,2623 -1448,5654 -2353,9092l-5699 21078 -18364 0 15650 -53194c845,-2835 2232,-4930 4162,-6288 1931,-1356 4071,-2036 6424,-2036 2412,0 4447,573 6107,1719 1658,1146 3030,2714 4116,4704l9679 17098z"/>
  </g>
  <g>
   <polygon id="8" class="fil0 str0" points="849841,347507 837808,363068 779548,363068 779548,302546 849660,302546 837537,318287 798365,318287 798365,325524 846312,325524 835547,339275 798365,339275 798365,347507 "/>
  </g>
  <g>
   <polygon id="9" class="fil0 str0" points="921852,347507 909729,363068 856263,363068 856263,302546 874991,302546 874991,347507 "/>
  </g>
  <g>
   <polygon id="10" class="fil0 str0" points="947091,363068 928365,363068 928365,302546 947091,302546 "/>
  </g>
  <g>
   <path id="11" class="fil0 str0" d="M1020098 364063c-1206,0 -2397,-196 -3573,-589 -1176,-391 -2488,-1281 -3936,-2668l-37091 -33292 0 35554 -17007 0 0 -50209c0,-1990 286,-3709 859,-5156 572,-1448 1327,-2624 2261,-3528 935,-905 2020,-1569 3257,-1991 1236,-422 2518,-633 3845,-633 1146,0 2307,196 3482,589 1176,391 2518,1281 4026,2668l37091 33292 0 -35554 17098 0 0 50118c0,1990 -286,3709 -859,5156 -572,1448 -1327,2639 -2261,3574 -935,934 -2036,1614 -3302,2036 -1266,422 -2563,633 -3890,633z"/>
  </g>
  <g>
   <path id="12" class="fil0 str0" d="M1118434 332218c0,4403 -920,8489 -2759,12258 -1839,3770 -4372,7027 -7599,9771 -3226,2744 -7071,4900 -11534,6469 -4464,1568 -9318,2352 -14565,2352l-40530 0 0 -37724 18817 0 0 22164 21713 0c2593,0 4990,-347 7191,-1040 2201,-693 4086,-1674 5654,-2940 1569,-1266 2805,-2789 3709,-4568 905,-1779 1357,-3755 1357,-5926 0,-2111 -452,-4071 -1357,-5880 -904,-1810 -2171,-3362 -3800,-4660 -1628,-1296 -3528,-2321 -5699,-3076 -2172,-753 -4524,-1131 -7056,-1131l-40530 0 11942 -15741 28588 0c5307,0 10192,724 14655,2171 4462,1448 8308,3483 11534,6107 3227,2624 5745,5760 7554,9409 1809,3649 2714,7644 2714,11986z"/>
  </g>
  <g>
   <path id="13" class="fil0 str0" d="M1206548 336652c0,18274 -12575,27411 -37724,27411 -7298,0 -13571,-573 -18817,-1719 -5247,-1146 -9575,-2864 -12982,-5156 -3408,-2292 -5911,-5142 -7509,-8550 -1598,-3407 -2397,-7403 -2397,-11986l0 -34106 18636 0 0 34106c0,2232 301,4102 905,5609 603,1507 1734,2729 3392,3663 1658,934 3996,1598 7011,1991 3016,391 6935,588 11761,588 3619,0 6634,-211 9046,-633 2413,-422 4343,-1115 5790,-2080 1447,-965 2488,-2201 3120,-3709 633,-1508 951,-3318 951,-5428l0 -34106 18817 0 0 34106z"/>
  </g>
  <g>
   <path id="14" class="fil0 str0" d="M1278468 364063c-1206,0 -2397,-196 -3573,-589 -1176,-391 -2488,-1281 -3936,-2668l-37091 -33292 0 35554 -17007 0 0 -50209c0,-1990 286,-3709 859,-5156 572,-1448 1327,-2624 2261,-3528 935,-905 2020,-1569 3257,-1991 1236,-422 2518,-633 3845,-633 1146,0 2307,196 3482,589 1176,391 2518,1281 4026,2668l37091 33292 0 -35554 17098 0 0 50118c0,1990 -286,3709 -859,5156 -572,1448 -1327,2639 -2261,3574 -935,934 -2036,1614 -3302,2036 -1266,422 -2563,633 -3890,633z"/>
  </g>
  <g>
   <path id="15" class="fil0 str0" d="M1337181 325253l38719 0 0 37815 -41524 0c-5246,0 -10101,-784 -14565,-2352 -4462,-1569 -8308,-3724 -11534,-6469 -3227,-2744 -5760,-6001 -7599,-9771 -1839,-3769 -2759,-7855 -2759,-12258 0,-4403 920,-8428 2759,-12077 1839,-3649 4372,-6785 7599,-9409 3226,-2623 7071,-4643 11534,-6061 4464,-1417 9318,-2126 14565,-2126l43334 0 -12123 15741 -31211 0c-2533,0 -4884,362 -7056,1086 -2171,723 -4056,1749 -5654,3076 -1598,1327 -2850,2879 -3754,4659 -905,1779 -1357,3755 -1357,5926 0,2171 437,4146 1312,5926 874,1779 2111,3302 3709,4568 1598,1267 3483,2247 5654,2940 2172,693 4554,1040 7147,1040l22888 0 0 -8776 -31301 0 11218 -13479z"/>
  </g>
  <g>
   <polygon id="16" class="fil0 str0" points="1405663,363068 1386936,363068 1386936,302546 1405663,302546 "/>
  </g>
  <g>
   <polygon id="17" class="fil0 str0" points="1525440,363068 1506804,363068 1506804,339727 1470798,339727 1470798,363068 1451982,363068 1451982,302546 1470798,302546 1470798,323986 1506804,323986 1506804,302546 1525440,302546 "/>
  </g>
  <g>
   <path id="18" class="fil0 str0" d="M1562531 363068l11308 -15560 15198 0c1809,0 3694,0 5654,0 1959,0 3663,60 5111,181 -845,-1086 -1825,-2457 -2940,-4116 -1115,-1659 -2186,-3212 -3212,-4660l-10856 -16012 -28406 40167 -22164 0 38809 -54731c1267,-1750 2865,-3318 4795,-4704 1930,-1388 4373,-2081 7328,-2081 2835,0 5202,649 7102,1945 1899,1297 3513,2910 4840,4841l37815 54731 -70382 0z"/>
  </g>
  <g>
   <path id="19" class="fil0 str0" d="M1715961 363068l-28315 0 -18274 -15922c-3137,-2714 -5534,-4824 -7192,-6332 -1658,-1508 -3000,-2775 -4025,-3800 60,1387 120,2819 181,4297 60,1478 89,2940 89,4388l0 17369 -18817 0 0 -60522 18817 0 0 14022c0,1870 -29,3709 -89,5519 -61,1809 -151,3498 -271,5066 1206,-1086 2668,-2428 4387,-4026 1718,-1598 3965,-3543 6740,-5835l17460 -14746 27140 0 -23159 17369c-1991,1508 -3755,2835 -5292,3981 -1538,1146 -2910,2141 -4117,2986 -1206,844 -2306,1598 -3301,2261 -995,663 -1976,1296 -2940,1899 1749,1207 3860,2715 6332,4524 2473,1810 5669,4312 9590,7509l25059 19993z"/>
  </g>
  <g>
   <path id="20" class="fil0 str0" d="M1836643 325253c0,3378 -663,6438 -1990,9182 -1327,2744 -3272,5082 -5835,7011 -2563,1930 -5685,3438 -9363,4524 -3680,1085 -7871,1628 -12575,1628l-31662 0 0 15470 -18636 0 0 -30940 52108 0c2895,0 5142,-633 6739,-1899 1598,-1267 2397,-2956 2397,-5066 0,-2111 -799,-3784 -2397,-5021 -1597,-1236 -3844,-1855 -6739,-1855l-52108 0 12393 -15741 37996 0c4704,0 8896,558 12575,1674 3679,1115 6785,2669 9317,4659 2534,1991 4464,4373 5790,7147 1327,2775 1990,5850 1990,9228z"/>
  </g>
  <g>
   <polygon id="21" class="fil0 str0" points="1865139,363068 1846413,363068 1846413,302546 1865139,302546 "/>
  </g>
  <g>
   <polygon id="22" class="fil0 str0" points="1942397,347507 1930275,363068 1876809,363068 1876809,302546 1895537,302546 1895537,347507 "/>
  </g>
  <g>
   <polygon id="23" class="fil0 str0" points="1967637,363068 1948911,363068 1948911,302546 1967637,302546 "/>
  </g>
  <g>
   <polygon id="24" class="fil0 str0" points="2052766,363068 2034130,363068 2034130,339727 1998124,339727 1998124,363068 1979307,363068 1979307,302546 1998124,302546 1998124,323986 2034130,323986 2034130,302546 2052766,302546 "/>
  </g>
  <path id="25" class="fil1" d="M41708 325253l38719 0 0 37815 -41524 0c-5246,0 -10101,-784 -14565,-2352 -4462,-1569 -8308,-3724 -11534,-6469 -3227,-2744 -5760,-6001 -7599,-9771 -1839,-3769 -2759,-7855 -2759,-12258 0,-4403 920,-8428 2759,-12077 1839,-3649 4372,-6785 7599,-9409 3226,-2623 7071,-4643 11534,-6061 4464,-1417 9318,-2126 14565,-2126l43334 0 -12123 15741 -31211 0c-2533,0 -4884,362 -7056,1086 -2171,723 -4056,1749 -5654,3076 -1598,1327 -2850,2879 -3754,4659 -905,1779 -1357,3755 -1357,5926 0,2171 437,4146 1312,5926 874,1779 2111,3302 3709,4568 1598,1267 3483,2247 5654,2940 2172,693 4554,1040 7147,1040l22888 0 0 -8776 -31301 0 11218 -13479z"/>
  <polygon id="26" class="fil1" points="161485,347507 149452,363068 91192,363068 91192,302546 161304,302546 149181,318287 110009,318287 110009,325524 157956,325524 147191,339275 110009,339275 110009,347507 "/>
  <path id="27" class="fil1" d="M253760 363068l-25060 0 -13479 -16013 -28768 0 0 16013 -18726 0 0 -30940 52651 0c2895,0 5337,-603 7328,-1809 1990,-1207 2985,-2865 2985,-4976 0,-2352 -905,-4116 -2714,-5292 -1810,-1176 -4343,-1764 -7599,-1764l-52651 0 12212 -15741 38901 0c3438,0 6996,316 10675,950 3680,633 7027,1764 10041,3393 3016,1628 5504,3830 7464,6604 1960,2775 2940,6332 2940,10675 0,2353 -362,4583 -1086,6695 -724,2111 -1764,4010 -3121,5699 -1356,1689 -3016,3121 -4975,4297 -1960,1176 -4177,2006 -6650,2488 1025,784 2171,1779 3438,2985 1267,1207 2956,2865 5066,4976l11127 11761z"/>
  <path id="28" class="fil1" d="M286056 363068l11308 -15560 15198 0c1809,0 3694,0 5654,0 1959,0 3663,60 5111,181 -845,-1086 -1825,-2457 -2940,-4116 -1115,-1659 -2186,-3212 -3212,-4660l-10856 -16012 -28406 40167 -22164 0 38809 -54731c1267,-1750 2865,-3318 4795,-4704 1930,-1388 4373,-2081 7328,-2081 2835,0 5202,649 7102,1945 1899,1297 3513,2910 4840,4841l37815 54731 -70382 0z"/>
  <path id="29" class="fil1" d="M439486 363068l-28315 0 -18274 -15922c-3137,-2714 -5534,-4824 -7192,-6332 -1658,-1508 -3000,-2775 -4025,-3800 60,1387 120,2819 181,4297 60,1478 89,2940 89,4388l0 17369 -18817 0 0 -60522 18817 0 0 14022c0,1870 -29,3709 -89,5519 -61,1809 -151,3498 -271,5066 1206,-1086 2668,-2428 4387,-4026 1718,-1598 3965,-3543 6740,-5835l17460 -14746 27140 0 -23159 17369c-1991,1508 -3755,2835 -5292,3981 -1538,1146 -2910,2141 -4117,2986 -1206,844 -2306,1598 -3301,2261 -995,663 -1976,1296 -2940,1899 1749,1207 3860,2715 6332,4524 2473,1810 5669,4312 9590,7509l25059 19993z"/>
  <path id="30" class="fil1" d="M471240 363068l11308 -15560 15198 0c1809,0 3694,0 5654,0 1959,0 3663,60 5111,181 -845,-1086 -1825,-2457 -2940,-4116 -1115,-1659 -2186,-3212 -3212,-4660l-10856 -16012 -28406 40167 -22164 0 38809 -54731c1267,-1750 2865,-3318 4795,-4704 1930,-1388 4373,-2081 7328,-2081 2835,0 5202,649 7102,1945 1899,1297 3513,2910 4840,4841l37815 54731 -70382 0z"/>
  <path id="31" class="fil1" d="M609653 364063c-1206,0 -2397,-196 -3573,-589 -1176,-391 -2488,-1281 -3936,-2668l-37091 -33292 0 35554 -17007 0 0 -50209c0,-1990 286,-3709 859,-5156 572,-1448 1327,-2624 2261,-3528 935,-905 2020,-1569 3257,-1991 1236,-422 2518,-633 3845,-633 1146,0 2307,196 3482,589 1176,391 2518,1281 4026,2668l37091 33292 0 -35554 17098 0 0 50118c0,1990 -286,3709 -859,5156 -572,1448 -1327,2639 -2261,3574 -935,934 -2036,1614 -3302,2036 -1266,422 -2563,633 -3890,633z"/>
  <path id="32" class="fil1" d="M707446 325072c1327,2352 2488,4418 3483,6197 995,1779 1870,3362 2623,4749 754,1387 1417,2654 1991,3800 572,1146 1131,2262 1674,3347 482,-1085 1010,-2186 1583,-3301 572,-1116 1236,-2382 1990,-3800 754,-1417 1629,-3000 2624,-4750 994,-1749 2156,-3800 3482,-6151l9680 -17188c1085,-1931 2457,-3483 4116,-4660 1658,-1175 3724,-1764 6197,-1764 2352,0 4478,679 6378,2036 1899,1357 3272,3453 4116,6288l15289 53194 -18636 0 -5699 -21078c-966,-3438 -1779,-6453 -2443,-9047 -663,-2594 -1236,-5126 -1718,-7599 -1026,2111 -2172,4448 -3438,7011 -1267,2563 -2925,5805 -4976,9725l-8142 15198c-784,1507 -1583,2698 -2397,3573 -814,874 -1643,1554 -2488,2036 -844,483 -1749,799 -2714,950 -965,151 -2020,227 -3166,227 -1146,0 -2201,-75 -3166,-227 -965,-150 -1870,-467 -2715,-950 -844,-482 -1674,-1161 -2487,-2036 -814,-874 -1614,-2066 -2397,-3573l-8142 -15289c-1086,-2051 -2051,-3890 -2895,-5519 -845,-1629 -1614,-3091 -2307,-4387 -693,-1297 -1297,-2488 -1810,-3574 -512,-1086 -1010,-2141 -1493,-3166 -482,2413 -1055,4930 -1718,7554 -664,2623 -1448,5654 -2353,9092l-5699 21078 -18364 0 15650 -53194c845,-2835 2232,-4930 4162,-6288 1931,-1356 4071,-2036 6424,-2036 2412,0 4447,573 6107,1719 1658,1146 3030,2714 4116,4704l9679 17098z"/>
  <polygon id="33" class="fil1" points="849841,347507 837808,363068 779548,363068 779548,302546 849660,302546 837537,318287 798365,318287 798365,325524 846312,325524 835547,339275 798365,339275 798365,347507 "/>
  <polygon id="34" class="fil1" points="921852,347507 909729,363068 856263,363068 856263,302546 874991,302546 874991,347507 "/>
  <polygon id="35" class="fil1" points="947091,363068 928365,363068 928365,302546 947091,302546 "/>
  <path id="36" class="fil1" d="M1020098 364063c-1206,0 -2397,-196 -3573,-589 -1176,-391 -2488,-1281 -3936,-2668l-37091 -33292 0 35554 -17007 0 0 -50209c0,-1990 286,-3709 859,-5156 572,-1448 1327,-2624 2261,-3528 935,-905 2020,-1569 3257,-1991 1236,-422 2518,-633 3845,-633 1146,0 2307,196 3482,589 1176,391 2518,1281 4026,2668l37091 33292 0 -35554 17098 0 0 50118c0,1990 -286,3709 -859,5156 -572,1448 -1327,2639 -2261,3574 -935,934 -2036,1614 -3302,2036 -1266,422 -2563,633 -3890,633z"/>
  <path id="37" class="fil1" d="M1118434 332218c0,4403 -920,8489 -2759,12258 -1839,3770 -4372,7027 -7599,9771 -3226,2744 -7071,4900 -11534,6469 -4464,1568 -9318,2352 -14565,2352l-40530 0 0 -37724 18817 0 0 22164 21713 0c2593,0 4990,-347 7191,-1040 2201,-693 4086,-1674 5654,-2940 1569,-1266 2805,-2789 3709,-4568 905,-1779 1357,-3755 1357,-5926 0,-2111 -452,-4071 -1357,-5880 -904,-1810 -2171,-3362 -3800,-4660 -1628,-1296 -3528,-2321 -5699,-3076 -2172,-753 -4524,-1131 -7056,-1131l-40530 0 11942 -15741 28588 0c5307,0 10192,724 14655,2171 4462,1448 8308,3483 11534,6107 3227,2624 5745,5760 7554,9409 1809,3649 2714,7644 2714,11986z"/>
  <path id="38" class="fil1" d="M1206548 336652c0,18274 -12575,27411 -37724,27411 -7298,0 -13571,-573 -18817,-1719 -5247,-1146 -9575,-2864 -12982,-5156 -3408,-2292 -5911,-5142 -7509,-8550 -1598,-3407 -2397,-7403 -2397,-11986l0 -34106 18636 0 0 34106c0,2232 301,4102 905,5609 603,1507 1734,2729 3392,3663 1658,934 3996,1598 7011,1991 3016,391 6935,588 11761,588 3619,0 6634,-211 9046,-633 2413,-422 4343,-1115 5790,-2080 1447,-965 2488,-2201 3120,-3709 633,-1508 951,-3318 951,-5428l0 -34106 18817 0 0 34106z"/>
  <path id="39" class="fil1" d="M1278468 364063c-1206,0 -2397,-196 -3573,-589 -1176,-391 -2488,-1281 -3936,-2668l-37091 -33292 0 35554 -17007 0 0 -50209c0,-1990 286,-3709 859,-5156 572,-1448 1327,-2624 2261,-3528 935,-905 2020,-1569 3257,-1991 1236,-422 2518,-633 3845,-633 1146,0 2307,196 3482,589 1176,391 2518,1281 4026,2668l37091 33292 0 -35554 17098 0 0 50118c0,1990 -286,3709 -859,5156 -572,1448 -1327,2639 -2261,3574 -935,934 -2036,1614 -3302,2036 -1266,422 -2563,633 -3890,633z"/>
  <path id="40" class="fil1" d="M1337181 325253l38719 0 0 37815 -41524 0c-5246,0 -10101,-784 -14565,-2352 -4462,-1569 -8308,-3724 -11534,-6469 -3227,-2744 -5760,-6001 -7599,-9771 -1839,-3769 -2759,-7855 -2759,-12258 0,-4403 920,-8428 2759,-12077 1839,-3649 4372,-6785 7599,-9409 3226,-2623 7071,-4643 11534,-6061 4464,-1417 9318,-2126 14565,-2126l43334 0 -12123 15741 -31211 0c-2533,0 -4884,362 -7056,1086 -2171,723 -4056,1749 -5654,3076 -1598,1327 -2850,2879 -3754,4659 -905,1779 -1357,3755 -1357,5926 0,2171 437,4146 1312,5926 874,1779 2111,3302 3709,4568 1598,1267 3483,2247 5654,2940 2172,693 4554,1040 7147,1040l22888 0 0 -8776 -31301 0 11218 -13479z"/>
  <polygon id="41" class="fil1" points="1405663,363068 1386936,363068 1386936,302546 1405663,302546 "/>
  <polygon id="42" class="fil1" points="1525440,363068 1506804,363068 1506804,339727 1470798,339727 1470798,363068 1451982,363068 1451982,302546 1470798,302546 1470798,323986 1506804,323986 1506804,302546 1525440,302546 "/>
  <path id="43" class="fil1" d="M1562531 363068l11308 -15560 15198 0c1809,0 3694,0 5654,0 1959,0 3663,60 5111,181 -845,-1086 -1825,-2457 -2940,-4116 -1115,-1659 -2186,-3212 -3212,-4660l-10856 -16012 -28406 40167 -22164 0 38809 -54731c1267,-1750 2865,-3318 4795,-4704 1930,-1388 4373,-2081 7328,-2081 2835,0 5202,649 7102,1945 1899,1297 3513,2910 4840,4841l37815 54731 -70382 0z"/>
  <path id="44" class="fil1" d="M1715961 363068l-28315 0 -18274 -15922c-3137,-2714 -5534,-4824 -7192,-6332 -1658,-1508 -3000,-2775 -4025,-3800 60,1387 120,2819 181,4297 60,1478 89,2940 89,4388l0 17369 -18817 0 0 -60522 18817 0 0 14022c0,1870 -29,3709 -89,5519 -61,1809 -151,3498 -271,5066 1206,-1086 2668,-2428 4387,-4026 1718,-1598 3965,-3543 6740,-5835l17460 -14746 27140 0 -23159 17369c-1991,1508 -3755,2835 -5292,3981 -1538,1146 -2910,2141 -4117,2986 -1206,844 -2306,1598 -3301,2261 -995,663 -1976,1296 -2940,1899 1749,1207 3860,2715 6332,4524 2473,1810 5669,4312 9590,7509l25059 19993z"/>
  <path id="45" class="fil1" d="M1836643 325253c0,3378 -663,6438 -1990,9182 -1327,2744 -3272,5082 -5835,7011 -2563,1930 -5685,3438 -9363,4524 -3680,1085 -7871,1628 -12575,1628l-31662 0 0 15470 -18636 0 0 -30940 52108 0c2895,0 5142,-633 6739,-1899 1598,-1267 2397,-2956 2397,-5066 0,-2111 -799,-3784 -2397,-5021 -1597,-1236 -3844,-1855 -6739,-1855l-52108 0 12393 -15741 37996 0c4704,0 8896,558 12575,1674 3679,1115 6785,2669 9317,4659 2534,1991 4464,4373 5790,7147 1327,2775 1990,5850 1990,9228z"/>
  <polygon id="46" class="fil1" points="1865139,363068 1846413,363068 1846413,302546 1865139,302546 "/>
  <polygon id="47" class="fil1" points="1942397,347507 1930275,363068 1876809,363068 1876809,302546 1895537,302546 1895537,347507 "/>
  <polygon id="48" class="fil1" points="1967637,363068 1948911,363068 1948911,302546 1967637,302546 "/>
  <polygon id="49" class="fil1" points="2052766,363068 2034130,363068 2034130,339727 1998124,339727 1998124,363068 1979307,363068 1979307,302546 1998124,302546 1998124,323986 2034130,323986 2034130,302546 2052766,302546 "/>
  <g>
   <path class="fil0 str1" d="M453860 57461l-14426 47212 -34426 0 -8853 27869 34754 0 -14427 46884 -34426 0 -16065 52131 -37377 0 16066 -52131 -25574 0 -15737 52131 -37048 0 15737 -52131 -32131 0 14754 -46884 31803 0 8524 -27869 -31803 0 14754 -47212 31475 0 14098 -45245 37048 0 -13770 45245 25245 0 13771 -45245 37377 0 -14098 45245 34753 0zm-86228 47212l-25573 0 -8197 27869 25246 0 8524 -27869z"/>
  </g>
  <g>
   <path id="1" class="fil0 str1" d="M615824 94510l140325 0 0 137047 -150489 0c-19015,0 -36611,-2842 -52785,-8524 -16174,-5683 -30109,-13497 -41802,-23442 -11695,-9946 -20875,-21748 -27541,-35409 -6667,-13661 -10001,-28470 -10001,-44426 0,-15956 3334,-30546 10001,-43770 6666,-13224 15846,-24590 27541,-34098 11694,-9509 25628,-16831 41802,-21968 16174,-5136 33770,-7704 52785,-7704l157048 0 -43934 57048 -113114 0c-9180,0 -17705,1312 -25573,3935 -7869,2623 -14699,6338 -20491,11148 -5792,4808 -10327,10437 -13606,16885 -3279,6447 -4918,13606 -4918,21475 0,7869 1585,15027 4754,21475 3169,6448 7650,11967 13442,16558 5792,4590 12623,8142 20491,10655 7869,2513 16503,3770 25901,3770l82950 0 0 -31803 -113441 0 40656 -48852z"/>
  </g>
  <g>
   <path id="2" class="fil0 str1" d="M946639 93854c4808,8524 9015,16011 12622,22459 3607,6448 6777,12186 9509,17212 2732,5028 5137,9617 7213,13771 2076,4152 4099,8196 6066,12131 1749,-3935 3661,-7923 5737,-11967 2076,-4044 4481,-8634 7213,-13771 2732,-5136 5901,-10874 9508,-17212 3607,-6338 7815,-13770 12623,-22294l35082 -62295c3935,-6994 8907,-12622 14918,-16884 6011,-4263 13497,-6394 22459,-6394 8524,0 16229,2460 23115,7378 6884,4918 11857,12513 14918,22786l55409 192784 -67539 0 -20656 -76392c-3497,-12459 -6447,-23388 -8852,-32787 -2405,-9398 -4481,-18578 -6230,-27540 -3716,7650 -7869,16119 -12459,25408 -4590,9290 -10601,21038 -18032,35245l-29508 55081c-2842,5465 -5737,9781 -8688,12951 -2951,3169 -5956,5628 -9016,7376 -3060,1749 -6338,2897 -9836,3443 -3498,546 -7323,819 -11475,819 -4153,0 -7978,-274 -11475,-819 -3498,-546 -6777,-1694 -9836,-3443 -3060,-1749 -6066,-4207 -9016,-7376 -2951,-3170 -5847,-7486 -8688,-12951l-29508 -55409c-3935,-7431 -7431,-14098 -10492,-19999 -3060,-5902 -5847,-11203 -8361,-15902 -2513,-4699 -4699,-9016 -6557,-12950 -1858,-3935 -3661,-7760 -5410,-11475 -1749,8743 -3825,17868 -6230,27376 -2404,9509 -5245,20491 -8524,32951l-20655 76392 -66556 0 56720 -192784c3060,-10273 8087,-17868 15082,-22786 6994,-4918 14753,-7378 23278,-7378 8743,0 16119,2077 22130,6230 6011,4153 10983,9836 14918,17049l35082 61967z"/>
  </g>
  <g>
   <polygon id="3" class="fil0 str1" points="1474171,231557 1406631,231557 1406631,146967 1276142,146967 1276142,231557 1207945,231557 1207945,12216 1276142,12216 1276142,89920 1406631,89920 1406631,12216 1474171,12216 "/>
  </g>
  <g>
   <path id="4" class="fil0 str1" d="M1805314 94510c0,12241 -2405,23333 -7213,33278 -4809,9946 -11858,18415 -21147,25409 -9290,6994 -20601,12459 -33934,16393 -13334,3935 -28525,5902 -45574,5902l-114752 0 0 56064 -67540 0 0 -112130 188850 0c10491,0 18633,-2295 24425,-6884 5792,-4591 8688,-10710 8688,-18360 0,-7651 -2896,-13716 -8688,-18197 -5792,-4481 -13934,-6722 -24425,-6722l-188850 0 44918 -57048 137703 0c17049,0 32240,2021 45573,6065 13334,4044 24590,9672 33770,16885 9180,7213 16174,15847 20984,25902 4808,10055 7213,21201 7213,33442z"/>
  </g>
  <path id="5" class="fil2" d="M453860 57461l-14426 47212 -34426 0 -8853 27869 34754 0 -14427 46884 -34426 0 -16065 52131 -37377 0 16066 -52131 -25574 0 -15737 52131 -37048 0 15737 -52131 -32131 0 14754 -46884 31803 0 8524 -27869 -31803 0 14754 -47212 31475 0 14098 -45245 37048 0 -13770 45245 25245 0 13771 -45245 37377 0 -14098 45245 34753 0zm-86228 47212l-25573 0 -8197 27869 25246 0 8524 -27869z"/>
  <path id="6" class="fil2" d="M615824 94510l140325 0 0 137047 -150489 0c-19015,0 -36611,-2842 -52785,-8524 -16174,-5683 -30109,-13497 -41802,-23442 -11695,-9946 -20875,-21748 -27541,-35409 -6667,-13661 -10001,-28470 -10001,-44426 0,-15956 3334,-30546 10001,-43770 6666,-13224 15846,-24590 27541,-34098 11694,-9509 25628,-16831 41802,-21968 16174,-5136 33770,-7704 52785,-7704l157048 0 -43934 57048 -113114 0c-9180,0 -17705,1312 -25573,3935 -7869,2623 -14699,6338 -20491,11148 -5792,4808 -10327,10437 -13606,16885 -3279,6447 -4918,13606 -4918,21475 0,7869 1585,15027 4754,21475 3169,6448 7650,11967 13442,16558 5792,4590 12623,8142 20491,10655 7869,2513 16503,3770 25901,3770l82950 0 0 -31803 -113441 0 40656 -48852z"/>
  <path id="7" class="fil2" d="M946639 93854c4808,8524 9015,16011 12622,22459 3607,6448 6777,12186 9509,17212 2732,5028 5137,9617 7213,13771 2076,4152 4099,8196 6066,12131 1749,-3935 3661,-7923 5737,-11967 2076,-4044 4481,-8634 7213,-13771 2732,-5136 5901,-10874 9508,-17212 3607,-6338 7815,-13770 12623,-22294l35082 -62295c3935,-6994 8907,-12622 14918,-16884 6011,-4263 13497,-6394 22459,-6394 8524,0 16229,2460 23115,7378 6884,4918 11857,12513 14918,22786l55409 192784 -67539 0 -20656 -76392c-3497,-12459 -6447,-23388 -8852,-32787 -2405,-9398 -4481,-18578 -6230,-27540 -3716,7650 -7869,16119 -12459,25408 -4590,9290 -10601,21038 -18032,35245l-29508 55081c-2842,5465 -5737,9781 -8688,12951 -2951,3169 -5956,5628 -9016,7376 -3060,1749 -6338,2897 -9836,3443 -3498,546 -7323,819 -11475,819 -4153,0 -7978,-274 -11475,-819 -3498,-546 -6777,-1694 -9836,-3443 -3060,-1749 -6066,-4207 -9016,-7376 -2951,-3170 -5847,-7486 -8688,-12951l-29508 -55409c-3935,-7431 -7431,-14098 -10492,-19999 -3060,-5902 -5847,-11203 -8361,-15902 -2513,-4699 -4699,-9016 -6557,-12950 -1858,-3935 -3661,-7760 -5410,-11475 -1749,8743 -3825,17868 -6230,27376 -2404,9509 -5245,20491 -8524,32951l-20655 76392 -66556 0 56720 -192784c3060,-10273 8087,-17868 15082,-22786 6994,-4918 14753,-7378 23278,-7378 8743,0 16119,2077 22130,6230 6011,4153 10983,9836 14918,17049l35082 61967z"/>
  <polygon id="8" class="fil2" points="1474171,231557 1406631,231557 1406631,146967 1276142,146967 1276142,231557 1207945,231557 1207945,12216 1276142,12216 1276142,89920 1406631,89920 1406631,12216 1474171,12216 "/>
  <path id="9" class="fil2" d="M1805314 94510c0,12241 -2405,23333 -7213,33278 -4809,9946 -11858,18415 -21147,25409 -9290,6994 -20601,12459 -33934,16393 -13334,3935 -28525,5902 -45574,5902l-114752 0 0 56064 -67540 0 0 -112130 188850 0c10491,0 18633,-2295 24425,-6884 5792,-4591 8688,-10710 8688,-18360 0,-7651 -2896,-13716 -8688,-18197 -5792,-4481 -13934,-6722 -24425,-6722l-188850 0 44918 -57048 137703 0c17049,0 32240,2021 45573,6065 13334,4044 24590,9672 33770,16885 9180,7213 16174,15847 20984,25902 4808,10055 7213,21201 7213,33442z"/>
 </g>
</svg>
