<?xml version="1.0" encoding="UTF-8"?>
<!DOCTYPE svg PUBLIC "-//W3C//DTD SVG 1.1//EN" "http://www.w3.org/Graphics/SVG/1.1/DTD/svg11.dtd">
<!-- Creator: CorelDRAW 2017 -->
<svg xmlns="http://www.w3.org/2000/svg" xml:space="preserve" width="14.6955mm" height="11.1148mm" version="1.1" style="shape-rendering:geometricPrecision; text-rendering:geometricPrecision; image-rendering:optimizeQuality; fill-rule:evenodd; clip-rule:evenodd"
viewBox="0 0 24035 18178"
 xmlns:xlink="http://www.w3.org/1999/xlink">
 <defs>
  <style type="text/css">
   <![CDATA[
    .str17 {stroke:#332C2B;stroke-width:125;stroke-miterlimit:22.9256}
    .str11 {stroke:#332C2B;stroke-width:0;stroke-linecap:round;stroke-linejoin:round;stroke-miterlimit:2.61313}
    .str9 {stroke:#332C2B;stroke-width:1;stroke-linecap:round;stroke-linejoin:round;stroke-miterlimit:2.61313}
    .str10 {stroke:#332C2B;stroke-width:1;stroke-linecap:round;stroke-linejoin:round;stroke-miterlimit:2.61313}
    .str16 {stroke:#332C2B;stroke-width:2;stroke-linecap:round;stroke-linejoin:round;stroke-miterlimit:2.61313}
    .str15 {stroke:#332C2B;stroke-width:2;stroke-linecap:round;stroke-linejoin:round;stroke-miterlimit:2.61313}
    .str12 {stroke:#332C2B;stroke-width:2;stroke-linecap:round;stroke-linejoin:round;stroke-miterlimit:2.61313}
    .str5 {stroke:#332C2B;stroke-width:589;stroke-linecap:round;stroke-linejoin:round;stroke-miterlimit:10}
    .str14 {stroke:#332C2B;stroke-width:4;stroke-linecap:round;stroke-linejoin:round;stroke-miterlimit:2.61313}
    .str1 {stroke:#332C2B;stroke-width:339;stroke-linecap:round;stroke-linejoin:round;stroke-miterlimit:10}
    .str13 {stroke:#332C2B;stroke-width:5;stroke-linecap:round;stroke-linejoin:round;stroke-miterlimit:2.61313}
    .str0 {stroke:#332C2B;stroke-width:679;stroke-linecap:round;stroke-linejoin:round;stroke-miterlimit:10}
    .str3 {stroke:#332C2B;stroke-width:1099;stroke-linecap:round;stroke-linejoin:round;stroke-miterlimit:10}
    .str6 {stroke:#332C2B;stroke-width:733;stroke-linecap:round;stroke-linejoin:round;stroke-miterlimit:10}
    .str4 {stroke:#332C2B;stroke-width:275;stroke-linecap:round;stroke-linejoin:round;stroke-miterlimit:10}
    .str8 {stroke:#332C2B;stroke-width:1573;stroke-linecap:round;stroke-linejoin:round;stroke-miterlimit:10}
    .str7 {stroke:#332C2B;stroke-width:736;stroke-linecap:round;stroke-linejoin:round;stroke-miterlimit:10}
    .str2 {stroke:#332C2B;stroke-width:363;stroke-linecap:round;stroke-linejoin:round;stroke-miterlimit:10}
    .fil14 {fill:none}
    .fil1 {fill:none;fill-rule:nonzero}
    .fil12 {fill:#FEFEFE}
    .fil11 {fill:#332C2B}
    .fil19 {fill:#FBD7A3}
    .fil16 {fill:#FDD100}
    .fil15 {fill:#C49A4D}
    .fil13 {fill:#E62129}
    .fil17 {fill:#009B4C}
    .fil18 {fill:#009B4C}
    .fil0 {fill:#FEFEFE;fill-rule:nonzero}
    .fil4 {fill:#EEEEEF;fill-rule:nonzero}
    .fil6 {fill:#C9CACA;fill-rule:nonzero}
    .fil5 {fill:#A1A1A1;fill-rule:nonzero}
    .fil7 {fill:#8B8B8C;fill-rule:nonzero}
    .fil8 {fill:#5F5D5D;fill-rule:nonzero}
    .fil2 {fill:#332C2B;fill-rule:nonzero}
    .fil10 {fill:#E52C2B;fill-rule:nonzero}
    .fil3 {fill:#242222;fill-rule:nonzero}
    .fil9 {fill:#422978;fill-rule:nonzero}
   ]]>
  </style>
 </defs>
 <g id="Layer_x0020_1">
  <metadata id="CorelCorpID_0Corel-Layer"/>
  <path class="fil0" d="M11467 3698c427,1900 -1510,3954 -4326,4587 -2817,633 -5446,-394 -5873,-2295 -427,-1900 1510,-3954 4326,-4587 2816,-633 5446,394 5873,2295z"/>
  <path class="fil1 str0" d="M11467 3698c427,1900 -1510,3954 -4326,4587 -2817,633 -5446,-394 -5873,-2295 -427,-1900 1510,-3954 4326,-4587 2816,-633 5446,394 5873,2295z"/>
  <path class="fil2" d="M4354 4603l159 -30 -94 -530 -66 560zm-463 602l271 -1527 470 -88 366 1409 -403 75 -37 -211 -236 44 -24 222 -409 76z"/>
  <polygon class="fil2" points="4850,3550 5270,3472 5392,3902 5486,3431 5908,3353 5601,4294 5618,4884 5220,4958 5205,4368 "/>
  <path class="fil2" d="M6370 4251c10,53 24,91 43,113 19,22 44,30 75,24 28,-5 50,-21 67,-47 16,-26 28,-65 35,-117 10,-67 13,-147 10,-239 -3,-92 -12,-178 -27,-259 -10,-53 -24,-91 -43,-114 -18,-23 -42,-31 -70,-26 -31,6 -54,21 -72,47 -17,26 -29,64 -35,115 -9,70 -12,151 -10,245 3,93 12,179 26,258zm142 496c-135,25 -253,-4 -353,-86 -100,-83 -166,-205 -196,-367 -25,-132 -31,-264 -20,-396 11,-131 38,-245 81,-341 42,-93 97,-166 165,-221 68,-54 150,-91 246,-109 138,-26 256,2 354,83 99,81 163,204 194,370 25,133 32,264 21,395 -11,130 -38,244 -81,342 -40,92 -95,165 -163,220 -68,55 -151,91 -248,109z"/>
  <polygon class="fil2" points="3021,5909 3017,6859 2720,6914 2774,5624 3178,5549 3303,6201 3392,5509 3795,5434 3919,6691 3621,6747 3563,5810 3440,6780 3206,6824 "/>
  <polygon class="fil2" points="4026,6671 3993,5397 4606,5283 4614,5592 4347,5642 4350,5804 4592,5759 4601,6057 4359,6102 4363,6278 4630,6228 4639,6557 "/>
  <polygon class="fil2" points="5027,5536 5023,6486 4726,6541 4780,5251 5184,5176 5309,5828 5398,5136 5801,5061 5925,6318 5627,6374 5569,5436 5446,6407 5212,6451 "/>
  <polygon class="fil2" points="6045,6296 6011,5022 6357,4958 6390,6231 "/>
  <polygon class="fil2" points="6543,6203 6509,4929 6856,4865 6881,5823 7135,5776 7143,6091 "/>
  <polygon class="fil2" points="7254,6071 7220,4797 7566,4733 7599,6007 "/>
  <polygon class="fil2" points="7754,5978 7720,4704 8065,4640 8077,5101 8219,5074 8206,4614 8551,4549 8585,5823 8240,5887 8226,5389 8086,5415 8099,5914 "/>
  <path class="fil3" d="M9502 5376c22,121 4,228 -54,324 -59,95 -144,153 -254,174 -86,16 -160,1 -221,-44 -62,-45 -101,-114 -118,-205 -23,-121 -4,-229 54,-324 59,-96 143,-154 254,-175 85,-16 158,-1 221,45 62,46 102,114 119,205zm-705 -2060l642 -120 9 1659 -565 105 -85 -1645z"/>
  <polygon class="fil0" points="5506,363 6223,169 6138,2006 5769,2017 "/>
  <line class="fil1 str1" x1="6223" y1="170" x2="6138" y2= "2006" />
  <line class="fil1 str1" x1="5769" y1="2017" x2="5506" y2= "363" />
  <polygon class="fil0" points="469,3411 2420,4068 2194,4680 170,4359 "/>
  <line class="fil1 str1" x1="2194" y1="4680" x2="170" y2= "4359" />
  <line class="fil1 str1" x1="469" y1="3411" x2="2420" y2= "4068" />
  <polygon class="fil0" points="12279,2810 10613,3555 10766,4132 12896,4114 "/>
  <line class="fil1 str1" x1="12279" y1="2810" x2="10613" y2= "3555" />
  <line class="fil1 str1" x1="10766" y1="4132" x2="12896" y2= "4114" />
  <polygon class="fil0" points="4751,7656 3454,9379 4748,9552 5259,7707 "/>
  <line class="fil1 str1" x1="4748" y1="9553" x2="5259" y2= "7708" />
  <line class="fil1 str1" x1="4751" y1="7656" x2="3454" y2= "9379" />
  <path class="fil4" d="M17361 5989c0,0 -3884,-1358 -8858,419l647 1611 8211 -2030z"/>
  <path class="fil1 str2" d="M17361 5989c0,0 -3884,-1358 -8858,419l647 1611 8211 -2030z"/>
  <path class="fil5" d="M7481 13851c0,0 1462,689 3263,-57 0,0 -1008,1763 -3263,57z"/>
  <path class="fil0 str3" d="M21703 11565c0,0 -484,3454 -4803,2946l-195 -2591c0,0 2304,678 3586,83l1412 -437z"/>
  <path class="fil0" d="M21703 11565c0,0 -484,3454 -4803,2946l-195 -2591c0,0 1593,571 2820,275l2178 -629z"/>
  <path class="fil6" d="M20054 13486c0,0 -1463,687 -3263,-60 0,0 1007,1764 3263,60z"/>
  <path class="fil7" d="M8784 7103c0,0 3403,-1709 8978,-909l-554 1458 -8425 -549z"/>
  <path class="fil1 str4" d="M8784 7103c0,0 3403,-1709 8978,-909l-554 1458 -8425 -549z"/>
  <polygon class="fil7" points="22756,8519 20166,17490 19523,17884 21183,8089 "/>
  <polygon class="fil1 str5" points="22756,8519 20166,17490 19523,17884 21183,8089 "/>
  <path class="fil8" d="M23661 8540c-85,333 -892,414 -1803,183 -911,-232 -1582,-689 -1497,-1021 85,-332 892,-414 1803,-183 911,232 1582,689 1497,1021z"/>
  <path class="fil1 str6" d="M23661 8540c-85,333 -892,414 -1803,183 -911,-232 -1582,-689 -1497,-1021 85,-332 892,-414 1803,-183 911,232 1582,689 1497,1021z"/>
  <path class="fil0" d="M18033 7332c0,0 -980,4324 -733,9462 0,0 -2735,-2150 -7600,214 0,0 1151,-4466 -1070,-9572 0,0 5501,-1430 9403,-104z"/>
  <path class="fil1 str7" d="M18033 7332c0,0 -980,4324 -733,9462 0,0 -2735,-2150 -7600,214 0,0 1151,-4466 -1070,-9572 0,0 5501,-1430 9403,-104z"/>
  <path class="fil7" d="M10459 10966c-117,0 -228,56 -331,155 266,1510 294,3213 162,4473 58,29 107,42 169,42 512,0 927,-1045 927,-2335 0,-1290 -415,-2335 -927,-2335z"/>
  <path class="fil6" d="M11971 7574c0,0 -1813,203 -2332,386 0,0 305,534 595,1953 0,0 -89,-1033 -137,-1847 0,0 348,-157 1874,-493z"/>
  <polygon class="fil8" points="21708,9351 20130,16365 21377,9227 "/>
  <path class="fil2" d="M20902 11820c246,-701 839,-1132 1324,-962 486,170 680,877 434,1578 -246,701 -839,1132 -1324,962 -486,-170 -680,-877 -434,-1578z"/>
  <path class="fil2" d="M20902 11820c0,0 -8,27 -23,78 -8,25 -18,56 -24,94 -7,38 -19,80 -23,129 -14,97 -17,218 -1,352 18,133 60,283 144,416 22,32 42,67 70,95 13,15 26,29 39,44 15,13 29,26 44,38 14,13 30,24 47,34 17,10 31,22 48,29 17,7 33,15 50,22 16,8 30,6 43,10 78,22 144,24 207,5 64,-16 122,-48 179,-86 57,-43 111,-92 162,-149 50,-60 98,-123 143,-192 43,-70 85,-142 121,-219 20,-40 33,-73 47,-105 6,-12 17,-42 27,-68l15 -39 8 -20 4 -10 2 -5 1 -2c-2,6 6,-17 -5,13 56,-163 96,-330 115,-494 9,-82 10,-161 9,-240 -5,-76 -16,-149 -34,-218 -12,-31 -21,-66 -36,-95l-10 -23 -13 -20c-8,-13 -19,-32 -24,-39 -7,-10 -10,-20 -20,-33 -21,-15 -42,-29 -63,-44l-8 -5 -4 -3 -2 -1c-4,-2 28,11 14,5l-11 -6 -21 -14 -22 -14 -24 -10c-63,-32 -139,-43 -216,-44 -20,1 -39,2 -58,3 -19,3 -39,7 -58,10 -40,5 -76,20 -114,31 -149,52 -275,142 -372,236 -96,95 -169,191 -219,275 -28,41 -44,82 -63,115 -18,34 -30,64 -40,89 -20,49 -30,75 -30,75zm0 0c0,0 10,-26 29,-76 18,-50 48,-121 91,-210 43,-89 102,-195 180,-312 80,-115 182,-243 327,-359 74,-55 155,-116 256,-156 99,-43 214,-78 343,-77 16,0 32,-1 48,-1l49 5 50 6 25 3c-13,-5 21,8 18,6l2 0 5 1 9 2c25,5 50,10 75,16 33,11 72,29 109,45 40,18 65,35 98,54l46 29c15,10 29,22 43,33 27,23 59,45 83,71 26,25 50,52 76,79 94,111 166,237 221,370 52,132 87,271 103,411 33,280 -6,564 -95,827l-13 35 -8 20 -16 39c-11,26 -19,50 -38,88l-51 103c-17,35 -36,61 -54,92 -71,120 -162,230 -260,330 -100,100 -215,186 -338,258 -126,69 -262,123 -405,151 -144,28 -295,24 -434,-7 -35,-9 -69,-18 -102,-29 -33,-14 -64,-27 -95,-42l-11 -5 -6 -3 -3 -1c2,1 -31,-13 -18,-8l-15 -11 -31 -22 -31 -22 -43 -33c-27,-23 -58,-45 -78,-68 -20,-23 -40,-46 -59,-68 -19,-23 -33,-48 -49,-71 -16,-24 -30,-47 -41,-72 -12,-24 -24,-48 -36,-71 -9,-24 -18,-48 -27,-72 -19,-46 -27,-95 -40,-139 -40,-182 -40,-345 -30,-485 12,-141 32,-260 54,-356 23,-96 43,-171 61,-221 16,-50 25,-77 25,-77z"/>
  <path class="fil0" d="M21080 11707c212,-606 748,-969 1197,-812 449,158 641,776 428,1382 -212,606 -748,969 -1197,812 -449,-157 -641,-776 -428,-1382z"/>
  <path class="fil6" d="M22215 11050c-298,-104 -637,47 -867,351 197,-142 432,-197 648,-121 394,138 575,643 405,1128 -84,241 -240,431 -423,545 261,-99 501,-350 621,-692 186,-530 14,-1073 -384,-1212z"/>
  <path class="fil6" d="M16606 12981c0,0 -149,1580 15,2730 0,0 -574,-573 -2464,-647 0,0 900,-177 2072,-11 0,0 34,-1213 378,-2072z"/>
  <path class="fil0" d="M12086 10246c47,205 -81,410 -286,457 -205,47 -410,-81 -457,-287 -47,-205 81,-410 286,-457 205,-47 410,81 457,287z"/>
  <path class="fil2" d="M11030 10669c124,453 512,743 865,648 353,-95 539,-539 414,-992 -124,-453 -512,-743 -865,-648 -353,95 -539,539 -414,992z"/>
  <path class="fil0" d="M11352 10197c29,209 221,355 430,326 209,-29 355,-221 326,-430 -29,-209 -221,-355 -430,-326 -209,29 -355,221 -326,430z"/>
  <path class="fil2" d="M10623 9480c0,0 -2,-9 -5,-26 -1,-17 -8,-42 -7,-74 -1,-33 1,-73 8,-119 8,-45 20,-97 44,-152 22,-55 57,-111 101,-167 45,-55 105,-107 174,-149 70,-42 151,-73 236,-88 21,-4 43,-6 64,-8l16 -2 22 -1 25 0 25 0 35 2c23,2 49,4 70,7 85,13 164,41 236,76 35,18 70,36 102,58 33,20 62,43 90,66 56,46 104,96 145,145 41,50 74,100 102,147 27,48 49,93 66,134 17,41 27,79 37,109 9,30 13,56 17,73 3,17 4,26 4,26 0,0 -8,-5 -23,-13 -14,-9 -37,-21 -62,-38 -54,-32 -125,-79 -208,-131 -41,-26 -86,-52 -131,-79 -46,-26 -94,-52 -143,-76 -49,-24 -99,-44 -148,-62 -50,-16 -99,-30 -147,-37 -12,-3 -20,-3 -30,-5 -5,-1 -9,-2 -15,-2l-25 -1 -25 -1 -6 0 -3 0 -1 0 -1 0c4,0 -10,0 9,0l-9 0 -35 0c-46,2 -90,10 -134,22 -43,13 -86,29 -126,52 -39,23 -79,47 -113,76 -35,27 -66,57 -94,85 -27,29 -53,54 -71,77 -19,22 -36,43 -47,56 -11,13 -18,20 -18,20z"/>
  <path class="fil2" d="M16337 10669c-124,453 -512,743 -865,648 -353,-95 -539,-539 -414,-992 125,-453 512,-743 865,-648 353,95 539,539 414,992z"/>
  <path class="fil0" d="M16015 10197c-29,209 -221,355 -430,326 -209,-29 -355,-221 -326,-430 29,-209 221,-355 430,-326 209,29 355,221 326,430z"/>
  <path class="fil2" d="M16744 9480c0,0 -6,-7 -18,-20 -11,-13 -27,-34 -47,-56 -19,-23 -45,-48 -71,-77 -28,-28 -59,-58 -94,-85 -34,-29 -73,-53 -113,-76 -40,-23 -83,-39 -126,-52 -44,-12 -88,-20 -134,-22l-35 0 -9 0c19,0 5,0 9,0l-1 0 -2 0 -3 0 -6 0 -25 1 -25 1c-7,1 -10,2 -15,2 -10,2 -18,2 -30,5 -48,8 -97,22 -147,37 -49,18 -99,38 -148,62 -49,24 -97,49 -143,76 -46,26 -90,53 -132,79 -83,51 -154,99 -208,131 -25,17 -48,29 -62,38 -15,9 -24,13 -24,13 0,0 1,-9 5,-26 4,-17 8,-42 17,-73 10,-30 20,-68 37,-109 17,-41 38,-86 66,-134 28,-47 61,-97 102,-147 41,-49 88,-99 145,-145 28,-23 58,-45 90,-66 31,-22 66,-40 102,-58 72,-34 151,-62 236,-76 21,-4 47,-5 70,-7l35 -2 25 0 25 0 22 1 16 2c21,3 43,5 64,8 85,14 166,46 236,88 70,42 129,93 174,149 45,56 79,112 101,167 23,55 36,106 44,152 7,46 8,86 8,119 1,33 -5,57 -7,74 -3,17 -5,26 -5,26z"/>
  <path class="fil2" d="M21172 11682c18,486 -222,890 -536,902 -315,12 -584,-373 -602,-860 -18,-486 222,-890 536,-902 314,-12 584,373 602,860z"/>
  <path class="fil2" d="M21172 11682c0,0 -1,-18 -4,-52 -2,-34 -10,-83 -26,-143 -16,-61 -44,-132 -89,-206 -46,-73 -111,-147 -195,-198 -42,-24 -88,-43 -132,-49 -22,-4 -44,-1 -63,0 -19,6 -41,9 -41,21l-2 6c-5,2 -15,5 -22,7l-24 8 -12 4c-18,0 23,0 19,1l0 1 -1 1 -2 3 -11 18 -7 21c-8,27 -8,59 -11,89 -4,66 -5,145 -6,228 2,93 3,187 5,280 4,83 8,166 12,247 4,41 6,83 10,122 5,37 8,76 13,107 3,15 5,31 8,46 1,8 3,16 5,22l3 11c1,4 3,8 0,9 -4,5 -7,11 -9,19l47 19 6 2 3 1 1 0c5,0 -37,0 -19,0l4 3 9 7c6,6 13,10 21,13 15,9 33,11 53,15 19,-1 42,1 63,-5 44,-9 88,-32 128,-59 79,-57 139,-137 179,-213 39,-77 62,-151 73,-212 11,-62 16,-111 15,-145 0,-34 1,-52 1,-52zm0 0c0,0 0,18 1,52 1,34 1,83 0,147 -3,64 -6,141 -17,233 -13,91 -31,196 -76,316 -26,58 -53,124 -103,185 -22,33 -52,62 -84,94 -35,28 -72,58 -118,80 -22,12 -45,23 -70,31l-38 13 -19 6c17,0 -26,0 -22,1l-1 0 -3 1 -6 2 -49 15c-33,2 -68,2 -104,0 -19,-1 -32,-2 -47,-4l-43 -6c-30,-4 -57,-11 -85,-19 -58,-15 -109,-37 -160,-63 -201,-105 -347,-270 -447,-448 -48,-89 -88,-184 -112,-281 -14,-48 -23,-97 -31,-146 -5,-25 -7,-49 -9,-74l-3 -37 -1 -18 -1 -9 0 -5 0 -2 0 -19 0 -54c0,-19 -1,-31 2,-64 4,-56 9,-115 20,-162 17,-98 50,-196 90,-289 86,-186 219,-361 413,-481 96,-61 210,-102 325,-116 29,-3 58,-4 86,-5 29,1 57,4 84,7l10 1 5 1 2 0c-3,0 39,0 22,0l12 5 23 10 25 10c15,5 29,10 43,15 61,20 96,48 134,73 34,29 66,57 91,88 54,58 87,121 116,178 54,116 79,220 99,310 18,90 27,168 34,231 6,63 10,113 11,146 2,34 3,52 3,52z"/>
  <path class="fil0" d="M21112 11684c18,486 -222,890 -536,902 -314,12 -584,-373 -602,-860 -18,-486 222,-890 537,-902 314,-12 584,373 602,860z"/>
  <path class="fil0" d="M7724 11340c0,0 644,-2276 -265,-2163 -386,48 -1050,914 -538,3435 491,2414 2315,1944 2315,1944 0,0 1363,-70 1251,-2097 -111,-2028 -2764,-1118 -2764,-1118z"/>
  <path class="fil1 str8" d="M7724 11340c0,0 644,-2276 -265,-2163 -386,48 -1050,914 -538,3435 491,2414 2315,1944 2315,1944 0,0 1363,-70 1251,-2097 -111,-2028 -2764,-1118 -2764,-1118z"/>
  <path class="fil0" d="M7701 11453c0,0 667,-2389 -242,-2275 -386,48 -1181,972 -669,3493 490,2414 2446,1885 2446,1885 0,0 1363,-70 1251,-2097 -111,-2028 -2788,-1006 -2788,-1006z"/>
  <path class="fil0" d="M8493 14267c0,0 -98,-639 781,-1034l1197 -1126c0,0 495,109 201,1239 -322,1238 -2205,1580 -2179,921z"/>
  <path class="fil2" d="M10156 13155c0,0 -1604,849 -1900,41 -271,-738 1686,-1592 2146,-1151l214 -147 -345 -490c0,0 -1121,-333 -2056,506 -774,695 -450,1518 -235,1734 495,498 1641,495 2176,-493z"/>
  <path class="fil0" d="M10628 12284c164,397 -208,775 -919,1118 -634,306 -1281,239 -1444,-158 -164,-397 233,-933 885,-1198 653,-265 1314,-158 1478,239z"/>
  <path class="fil9" d="M7863 10868c140,-691 283,-1866 -393,-1782 -288,36 -834,467 -869,1685 30,104 131,229 245,258 172,44 164,-31 167,-121 3,-90 37,-226 181,-204 144,22 409,365 669,163z"/>
  <path class="fil6" d="M8429 13095c0,0 120,444 713,326 713,-141 800,-468 811,-511 0,0 -833,610 -1524,185z"/>
  <path class="fil2" d="M11850 11865c33,1002 845,1805 1848,1805 1003,0 1815,-803 1848,-1805l-3696 0z"/>
  <path class="fil10" d="M14698 12918c0,194 -448,351 -1000,351 -552,0 -1000,-157 -1000,-351 0,-194 447,-351 1000,-351 552,0 1000,157 1000,351z"/>
  <g id="_1805600885360">
   <path class="fil11" d="M12924 7686c486,-145 974,-156 1465,0 362,697 356,1382 0,2055 -543,192 -1017,136 -1465,0 -357,-634 -382,-1316 0,-2055z"/>
   <path class="fil12" d="M12944 8719c-2,253 57,505 186,759 163,44 330,74 500,79 188,5 370,-20 548,-74 123,-256 184,-510 184,-764l-1417 0z"/>
   <path class="fil13" d="M14361 8719l-1417 0c2,-255 68,-510 189,-769 349,-90 696,-95 1045,-2 122,259 183,515 183,771z"/>
   <path class="fil0" d="M13149 7869l-31 -151 48 -10 10 50 33 -59 56 -12 -42 67 81 83 -58 12 -50 -53 -9 15 10 48 -48 10zm231 -120c1,15 5,25 11,31 6,6 14,9 24,8 10,-1 18,-5 22,-13 4,-7 5,-18 4,-33 -2,-15 -5,-25 -11,-31 -5,-6 -13,-9 -24,-8 -10,1 -18,5 -22,13 -4,7 -6,18 -4,33zm-50 5c-3,-25 2,-46 15,-62 13,-16 32,-25 56,-28 25,-2 45,3 61,16 16,13 25,32 27,57 3,25 -2,45 -15,61 -13,16 -31,25 -56,28 -25,3 -45,-3 -61,-16 -16,-13 -25,-32 -28,-57zm273 55l-45 1 -3 -155 61 -1 23 77c0,1 1,3 2,7 1,4 2,9 4,15 1,-5 2,-10 2,-14 1,-4 1,-7 2,-9l21 -78 60 -1 3 155 -45 1 -1 -76c0,-5 0,-9 0,-14 0,-4 0,-9 0,-14 -1,8 -3,17 -6,26l0 1 -18 76 -35 1 -20 -74c-1,-3 -2,-7 -3,-12 -1,-4 -2,-10 -4,-18 0,7 1,12 1,17 0,5 0,9 0,11l1 75zm197 3l14 -154 50 5 -14 154 -50 -5zm119 -39l48 8c0,6 2,10 5,13 3,3 8,5 15,6 6,1 10,1 14,-1 4,-1 6,-4 6,-7 1,-6 -5,-11 -18,-17 -3,-1 -5,-2 -6,-3 -11,-5 -19,-9 -26,-12 -6,-3 -11,-7 -14,-9 -5,-5 -9,-11 -11,-17 -2,-6 -2,-13 -1,-21 2,-15 10,-26 23,-33 13,-7 29,-9 49,-5 20,3 34,10 44,20 10,10 14,23 13,39l-46 -8c0,-5 -1,-8 -4,-11 -3,-3 -7,-5 -13,-6 -5,-1 -9,0 -12,1 -3,1 -5,4 -5,7 -1,5 5,10 18,16 1,1 2,1 3,1 2,1 5,2 9,4 17,7 28,13 33,18 6,6 10,12 12,18 2,6 3,13 1,21 -3,17 -11,29 -24,36 -13,7 -31,9 -53,5 -20,-3 -36,-10 -46,-21 -10,-11 -15,-25 -14,-42zm188 82l35 -151 49 11 -35 150 -49 -11z"/>
   <path class="fil0" d="M12824 8928l2 16c1,10 3,17 6,20 3,3 7,4 13,4 6,-1 10,-3 12,-7 2,-4 2,-11 1,-21l-2 -16 -31 4zm-90 -39l153 -19 8 63c2,14 2,25 2,33 -1,9 -2,16 -5,21 -4,8 -9,14 -16,18 -7,4 -15,7 -25,8 -17,2 -31,-1 -41,-10 -10,-9 -17,-23 -19,-42l-4 -29 -47 6 -6 -49zm32 215l150 -35 28 120 -36 8 -17 -72 -20 5 14 61 -35 8 -14 -61 -23 5 17 75 -37 9 -28 -123zm67 244l-16 -42 145 -54 21 57 -65 47c-1,1 -3,2 -6,4 -3,2 -8,5 -13,9 5,-1 10,-2 14,-2 4,0 7,-1 9,-1l80 -6 21 57 -145 53 -16 -42 71 -26c4,-2 9,-3 13,-5 4,-1 8,-3 13,-5 -8,1 -17,2 -26,3l-1 0 -78 8 -12 -32 63 -44c3,-2 6,-4 10,-7 4,-2 9,-6 15,-9 -6,3 -11,5 -16,6 -4,2 -8,3 -11,4l-70 26zm85 201l140 -66 22 46 -140 66 -22 -46zm121 132l63 -141 45 20 -47 104 61 28 -17 37 -107 -48zm174 53l31 -151 50 10 -31 151 -50 -10zm138 25l19 -153 49 6 -6 52 46 6 7 -52 49 6 -19 153 -49 -6 7 -59 -46 -6 -7 59 -49 -6zm281 -28l31 0 -14 -54 -17 53zm-65 52l57 -154 50 1 52 156 -49 -1 -6 -21 -49 -1 -6 20 -49 -1zm232 1l-15 -154 47 -5 50 67c1,2 3,5 5,8 2,3 4,8 6,13 -1,-3 -1,-6 -2,-9 0,-3 -1,-7 -1,-12l-7 -73 47 -5 15 154 -47 5 -50 -67c-1,-2 -3,-5 -5,-8 -2,-4 -4,-8 -6,-13 1,3 1,5 2,8 0,3 1,7 1,12l7 72 -47 5zm312 -175l39 -30 58 76c5,7 11,11 16,12 5,1 11,-1 18,-7 7,-5 10,-10 11,-15 1,-5 -2,-11 -7,-18l-58 -76 39 -30 60 79c12,15 16,31 12,47 -4,16 -15,31 -34,45 -19,14 -37,21 -53,21 -16,-1 -30,-9 -42,-24l-60 -79zm299 -100l-17 42 -143 -57 22 -56 80 9c1,0 3,0 7,1 4,1 9,1 16,2 -4,-3 -8,-5 -12,-8 -3,-2 -6,-4 -7,-5l-64 -49 22 -56 143 57 -17 42 -70 -29c-4,-2 -8,-3 -12,-5 -4,-2 -8,-3 -13,-5 7,5 14,10 22,15l1 1 63 46 -13 32 -76 -9c-3,0 -7,-1 -12,-2 -4,-1 -10,-2 -18,-3 6,2 12,4 16,6 4,2 8,3 11,4l69 28zm-72 -246l14 -48 91 26c9,2 15,2 20,0 5,-2 8,-8 10,-16 2,-8 2,-14 0,-19 -2,-5 -8,-8 -17,-10l-91 -26 14 -48 95 27c19,5 31,15 37,30 6,15 6,34 0,56 -7,23 -17,39 -30,48 -13,9 -29,11 -48,6l-95 -27zm213 -228l-7 44 -153 -24 9 -60 79 -9c1,0 4,0 7,-1 4,0 9,-1 16,-1 -5,-2 -9,-3 -13,-5 -4,-1 -6,-3 -8,-4l-73 -34 9 -60 153 24 -7 44 -75 -12c-4,-1 -9,-1 -13,-2 -4,-1 -9,-1 -13,-2 8,3 16,6 25,10l1 0 72 31 -5 34 -76 8c-3,0 -7,1 -12,1 -4,0 -10,0 -18,1 7,1 12,2 17,2 5,1 9,1 11,2l74 12z"/>
   <path class="fil12" d="M12830 8326c35,0 63,28 63,63 0,35 -28,63 -63,63 -35,0 -63,-28 -63,-63 0,-35 28,-63 63,-63z"/>
   <path class="fil12" d="M14474 8326c35,0 63,28 63,63 0,35 -28,63 -63,63 -35,0 -63,-28 -63,-63 0,-35 28,-63 63,-63z"/>
   <path class="fil11 str9" d="M13456 9141l-56 71c-39,-23 -78,-52 -116,-88 -18,17 -39,16 -56,-13 -19,-42 -47,-78 -85,-106 21,-9 43,-8 71,-2 -4,-22 -11,-38 -25,-62 71,11 75,74 113,111 21,-17 33,-9 48,9 25,26 59,50 94,73 4,2 8,4 11,6z"/>
   <path class="fil12 str9" d="M13300 9057c-39,-35 -42,-92 -98,-106 14,23 21,45 23,65 -22,-9 -46,-14 -64,-10 40,34 56,63 73,95 9,30 37,34 41,14 -10,-15 -11,-26 -1,-33 12,-9 23,-20 27,-26zm152 90l-46 59c-42,-24 -83,-55 -122,-95 -13,-10 -14,-19 -6,-25 11,-8 21,-17 31,-30 10,-12 19,-9 29,1 31,35 70,66 114,89z"/>
   <path class="fil11 str9" d="M13848 9142l56 71c41,-23 80,-53 119,-90 17,17 39,16 56,-13 19,-42 46,-78 85,-105 -21,-9 -43,-8 -71,-2 4,-22 11,-38 25,-62 -71,11 -75,74 -113,111 -21,-17 -33,-9 -48,9 -25,26 -59,50 -94,73 -5,3 -10,5 -15,8z"/>
   <path class="fil12" d="M13853 9148l46 60c43,-25 84,-56 125,-96 13,-10 14,-19 6,-25 -11,-8 -21,-17 -31,-30 -10,-12 -19,-9 -29,1 -32,36 -72,67 -117,91zm155 -91c39,-35 42,-92 98,-106 -14,23 -21,45 -23,65 23,-9 46,-14 64,-10 -40,34 -56,63 -73,95 -9,30 -37,34 -41,15 10,-15 11,-26 1,-33 -12,-9 -23,-20 -27,-26z"/>
   <path class="fil11 str10" d="M13561 8465c-6,0 -14,-6 -21,4 -21,-8 -35,-36 -47,-48 -21,-40 -102,-48 -171,-97 -71,-51 -116,-136 -131,-242 -18,10 -28,27 -31,54 -17,11 -25,31 -28,57 -12,9 -19,30 -19,59 -16,14 -15,36 -14,58 -11,15 -11,35 -9,55 -10,12 -10,33 -6,57 -8,17 -5,33 -2,48 -4,17 -3,29 3,47 -4,14 -3,29 4,44 -4,21 4,45 15,63 -2,20 7,40 21,60 1,22 10,41 29,56 2,20 18,37 42,55 7,22 27,34 49,44 9,18 26,26 47,30 11,19 33,24 57,24 26,23 68,16 97,-1 -6,11 -8,25 -13,35l4 0c-9,10 -14,22 -24,32 3,3 9,3 13,5 -2,2 -4,5 -4,8 -33,61 -45,69 -47,80 -4,7 -13,13 -17,20 -2,3 -3,7 -7,10 -3,7 -25,6 -32,19 -17,6 -35,10 -37,24 -2,14 1,22 11,23 2,10 9,15 20,16 8,15 23,17 39,9 -9,-9 -10,-18 -6,-24 13,-9 25,-20 34,-29 8,1 17,2 29,0 11,9 23,15 34,22 7,-28 2,-41 -38,-48l64 -76c7,-5 14,-8 21,-13l2 2c8,-8 19,-11 26,-22l1 7c11,-9 27,-19 36,-30l19 11 -28 71 -103 272c21,-1 39,-8 58,-16l-10 33c18,-1 38,-8 55,-19l-8 33c21,-5 36,-11 56,-26 -1,10 -4,25 -6,35 19,-2 42,-18 64,-38 22,20 45,36 64,38 -2,-10 -5,-25 -6,-35 19,14 35,21 56,26l-8 -33c17,11 37,18 55,19l-10 -33c18,8 37,15 58,16l-103 -272 -28 -71 19 -11c10,11 26,21 36,30l1 -7c8,11 18,15 26,22l2 -2c6,6 14,9 21,13l64 76c-41,7 -45,19 -38,48l34 -22c12,2 20,0 28,-1 9,9 21,20 34,29 4,6 3,15 -6,24 15,8 31,6 39,-9 10,-1 18,-7 20,-16 9,-1 13,-9 11,-23 -2,-14 -20,-18 -37,-24 -6,-13 -29,-12 -32,-19 -5,-3 -5,-7 -7,-10 -4,-7 -13,-13 -17,-20 -2,-11 -14,-19 -47,-80 0,-4 -2,-6 -4,-8 4,-2 10,-2 13,-5 -10,-9 -15,-21 -24,-32l4 0c-5,-11 -7,-24 -13,-35 29,17 71,25 97,1 24,0 47,-5 57,-24 20,-4 38,-13 47,-30 22,-10 42,-22 49,-44 24,-18 40,-35 42,-55 19,-15 28,-34 29,-56 15,-20 23,-39 21,-60 11,-18 19,-42 15,-63 7,-15 8,-29 4,-44 6,-17 7,-30 3,-47 3,-16 7,-31 -2,-48 4,-24 4,-45 -6,-57 2,-20 2,-40 -9,-55 1,-22 2,-44 -14,-58 1,-29 -7,-50 -19,-59 -2,-27 -11,-47 -28,-57 -3,-27 -13,-44 -31,-54 -14,106 -62,194 -131,242 -66,46 -132,54 -153,94 -13,12 -26,40 -47,48 -8,-11 -16,-4 -20,-4 1,-5 -3,-10 -2,-16 2,1 6,1 9,0 -5,-7 -11,-20 -10,-26 5,1 10,-1 15,-3 -10,-7 -9,-14 -13,-20 6,0 12,-2 18,-10 -6,0 -15,-4 -18,-11 4,0 10,-1 14,-6 -6,-4 -19,-12 -21,-26 10,-2 17,-9 21,-19 -23,5 -32,-9 -37,-38 -2,-11 -6,-29 -17,-36 5,-7 15,-9 9,-28 1,-4 1,-8 0,-12 4,-8 4,-17 2,-29 -21,19 -48,26 -80,22 -27,-3 -50,-2 -68,10 -7,-2 -6,-12 -19,-14l-2 12 -14 -7 0 13 -14 -1 3 13 -14 0 8 24c-33,17 -50,40 -34,70 12,-25 39,-36 78,-32 -12,8 -31,14 -46,5 -1,4 0,7 1,10 -5,1 -9,0 -13,-2 3,25 31,34 62,23 8,-3 21,-2 22,7 1,10 -10,16 -21,14 -1,9 3,18 11,21 -7,6 -14,5 -20,2 1,15 8,20 14,25 -4,3 -14,2 -20,-1 -2,8 3,16 10,21 -3,3 -9,4 -14,3 -1,8 3,15 11,17 -6,4 -11,6 -18,5 0,6 4,10 8,15 0,4 -5,4 -4,8z"/>
   <path class="fil14 str9" d="M13372 9088c8,5 19,5 21,-7m-14 -4c8,5 20,9 23,-6m-12 -6c6,7 17,10 21,-4m-12 -6c6,7 18,9 20,-5m-12 -6c6,7 18,10 20,-5m-12 -5c6,7 18,9 20,-5m-12 -7c6,7 19,12 21,-4m-14 -7c6,7 20,11 23,-3m-14 -6c6,7 20,11 23,-3m-15 -6c6,7 20,11 22,-3"/>
   <path class="fil14 str9" d="M13934 9088c-8,5 -19,5 -21,-7m14 -4c-8,5 -20,9 -23,-6m12 -6c-6,7 -17,10 -21,-4m12 -6c-6,7 -18,9 -20,-5m12 -6c-6,7 -18,10 -20,-5m12 -5c-6,7 -18,9 -20,-5m12 -7c-6,7 -19,12 -21,-4m14 -7c-6,7 -20,11 -22,-3m14 -6c-6,7 -20,11 -23,-3m15 -6c-6,7 -20,11 -22,-3"/>
   <path class="fil14 str9" d="M13561 9056l-72 223m95 -195l-56 213m79 -177l-30 183m60 -153l-12 157"/>
   <path class="fil14 str9" d="M13745 9056l72 223m-95 -195l56 213m-80 -177l30 183m-59 -153l12 157"/>
   <path class="fil15" d="M13833 8852c8,11 16,21 23,32 27,18 68,31 97,5 29,1 46,-7 53,-24 18,-4 38,-10 47,-30 18,-9 42,-17 46,-43 18,-10 43,-29 41,-52 18,-7 37,-47 30,-58 20,-19 25,-38 24,-59 13,-18 22,-44 10,-54 10,-15 16,-34 7,-48 6,-15 11,-37 4,-51 6,-18 5,-33 -2,-49 8,-30 3,-47 -7,-53 9,-26 2,-40 -8,-54 3,-29 -2,-49 -14,-59 0,-31 -6,-49 -18,-53 -1,-31 -10,-51 -28,-62 -1,-21 -10,-38 -19,-44 -34,184 -125,249 -232,290 -57,19 -51,61 -108,94 8,6 6,15 3,24 6,4 8,8 4,15l-20 300 66 34zm-360 0c-8,11 -15,21 -23,32 -26,18 -68,31 -97,5 -29,1 -46,-7 -53,-24 -18,-4 -38,-10 -47,-30 -19,-9 -42,-17 -46,-43 -18,-10 -43,-29 -41,-52 -18,-7 -37,-47 -30,-58 -20,-19 -25,-38 -24,-59 -13,-18 -22,-44 -10,-54 -10,-15 -16,-34 -7,-48 -6,-15 -11,-37 -4,-51 -6,-18 -5,-33 2,-49 -8,-30 -3,-47 7,-53 -9,-26 -2,-40 8,-54 -3,-29 2,-49 14,-59 0,-31 6,-49 18,-53 1,-31 10,-51 28,-62 1,-21 10,-38 19,-44 27,187 135,257 252,296 57,19 51,61 108,94 -8,6 -6,15 -3,24 -6,4 -8,8 -5,15l0 295 -66 34zm98 147c-38,101 -79,208 -118,309 6,1 54,-14 57,-28 23,-83 47,-162 70,-245 -7,-12 -7,-23 -9,-35zm12 43c-29,101 -48,191 -83,282 6,1 48,-14 51,-29l48 -226c-6,-8 -12,-14 -16,-27zm18 38l-53 256c6,1 48,-19 51,-34 12,-97 16,-129 24,-190 2,2 -6,-4 -7,-14 -7,-3 -14,-12 -16,-19zm25 37l-27 228c6,1 48,-26 51,-41l2 -158c-6,-3 -16,-13 -18,-23 -2,0 -6,-1 -8,-6zm-148 -248c-1,-3 -1,-5 -3,-9 -10,8 -15,18 -19,29 11,0 22,-1 29,-11 -2,-2 -3,-5 -5,-7 -2,4 -7,7 -12,9 4,-4 4,-8 9,-12zm-10 24c-1,-3 -9,2 -10,-1 -11,8 -13,20 -15,33 11,0 23,-2 28,-14 -2,-2 5,-12 -1,-14 -2,4 -9,11 -14,13 4,-4 8,-13 12,-17zm-10 34c-1,-3 -13,2 -15,-1 -8,19 -14,15 -18,34 12,-5 30,1 35,-9 -1,-6 7,-21 0,-21 -2,4 -12,14 -17,16 4,-4 11,-15 16,-18zm34 -8c-1,-3 -13,2 -14,-1 -10,9 -14,14 -17,38 11,-5 25,-4 31,-13 -1,-6 6,-19 0,-19 -3,4 -11,13 -16,15 4,-4 9,-16 15,-20zm21 32c-4,-2 -11,3 -16,2 -5,9 -6,10 -7,30 11,-5 24,-5 30,-15 -1,-6 4,-18 -3,-17 -3,4 -9,10 -14,12 4,-4 3,-9 9,-13zm-31 5c-2,-5 -13,3 -18,2 -5,9 -6,11 -7,30 13,-4 25,-4 31,-13 -1,-6 5,-20 -2,-18 -3,4 -9,10 -14,13 4,-4 3,-9 9,-13zm3 29c-4,-2 -10,5 -14,4 -4,7 -2,14 0,24 11,-5 15,-6 21,-16 -1,-6 1,-12 -5,-10 -3,4 -4,9 -9,11 4,-4 1,-9 7,-13zm-32 -25c-4,-2 -11,2 -15,1 -4,7 -4,11 -2,21 12,-2 14,-1 19,-7 -1,-6 7,-16 -2,-13 -3,4 -5,7 -10,9 4,-4 4,-8 10,-12zm60 -35c-1,-3 -6,-3 -7,-6 -7,5 -11,9 -13,33 11,-5 25,-3 31,-13 -4,-5 -4,-5 -8,-9 -3,4 -7,7 -12,9 4,-4 3,-10 9,-14zm24 29c-2,-3 -7,-7 -9,-10 -7,9 -4,25 -5,40 9,-8 19,-13 23,-21 -4,-5 -2,-1 -6,-5 -3,4 -8,9 -11,14 4,-4 4,-12 7,-17zm-44 -60c-1,-1 -4,-6 -6,-10 -10,8 -12,20 -14,31 11,-1 20,-1 27,-8 -2,-2 -3,-5 -5,-7 -4,0 -7,3 -12,6 4,-4 4,-9 9,-12zm27 81c-6,4 -14,7 -25,10 -1,5 0,11 0,17 15,-9 24,-18 25,-27zm57 11c-1,16 0,33 9,48 11,-5 18,-15 19,-28 -4,-3 -7,-5 -11,-8 -1,6 -2,13 -3,19 -2,-7 -1,-16 -2,-23 -6,-3 -10,-6 -12,-9zm32 20c-1,16 5,24 13,35 10,-7 12,-13 14,-22 -4,-3 -6,-2 -10,-5 -1,6 -1,6 -2,12 -2,-7 -1,-7 -2,-14 -7,-3 -11,-3 -13,-7zm-19 30c0,17 7,17 12,27 10,-7 15,-13 16,-22 -4,-3 -6,-10 -10,-13 -1,6 -4,15 -5,21 -2,-7 1,-14 0,-20 -5,-1 -10,8 -14,8zm33 9c0,17 9,17 15,26 10,-7 12,-14 13,-23 -4,-3 -5,-13 -9,-15 -1,6 -3,17 -4,23 -2,-7 0,-16 -1,-23 -5,-1 -10,12 -14,11zm-19 21c0,14 11,25 17,28 10,-7 13,-14 14,-23 -6,-4 -11,-9 -13,-15 -1,6 -1,18 -2,24 -2,-7 -1,-18 -1,-25 -3,0 -10,11 -14,11zm19 30c2,14 8,18 14,21 10,-7 13,-12 14,-21 -6,-4 -9,-7 -12,-12 -1,6 0,14 -3,20 -2,-7 -2,-13 -1,-19 -3,4 -9,12 -12,12zm18 -26c2,14 9,22 15,25 10,-7 11,-17 12,-26 -6,-4 -9,-7 -12,-12 -1,6 0,14 -3,20 -2,-7 -2,-13 -1,-19 -3,4 -9,12 -12,12zm18 -22c2,14 9,19 15,22 10,-7 14,-19 15,-28 -6,-4 -9,-7 -12,-12 -1,6 -1,15 -3,21 -2,-7 -2,-13 -1,-19 -3,4 -10,17 -13,16zm18 -30c2,14 8,18 14,21 10,-7 13,-21 14,-30 3,-11 -10,1 -12,1 -1,6 -1,10 -3,16 -2,-7 -2,-8 -2,-14 -3,4 -8,4 -11,5zm31 -15c0,15 10,24 16,27 10,-7 11,-28 12,-37 -2,-9 -8,1 -12,2 -1,6 -1,10 -3,16 -2,-7 -3,-8 -3,-14 -3,4 -8,4 -11,6zm-65 18c1,12 7,23 12,27 10,-7 15,-21 16,-30 -5,2 -9,7 -13,4 -1,6 0,7 -2,13 -2,-7 -4,-7 -3,-13 -4,1 -6,-1 -9,-2zm34 50c2,14 9,17 15,20 10,-7 11,-17 13,-26 -6,-4 -8,-7 -10,-13 -1,6 -1,15 -4,21 -2,-7 -4,-11 -3,-18 -2,5 -7,16 -11,15zm17 -30c3,14 11,20 16,22 10,-7 14,-20 15,-29 -6,-4 -13,-8 -15,-13 -1,6 0,18 -2,24 -2,-7 -4,-14 -3,-21 -2,5 -8,12 -11,16zm-54 77c2,13 9,18 14,21 10,-7 14,-11 15,-20 -5,-4 -10,-12 -13,-18 -1,6 0,14 -3,20 -2,-7 -2,-13 -1,-19 -3,4 -9,16 -13,15zm19 -21c4,14 10,19 15,22 9,-9 12,-19 14,-26 -5,-4 -10,-9 -12,-15 -1,6 0,14 -3,20 -2,-7 -1,-13 -1,-19 -3,4 -10,18 -13,18zm80 -94c38,101 76,202 114,304 -6,1 -54,-14 -57,-28 -23,-83 -43,-157 -67,-240 7,-12 7,-23 9,-35zm-13 41c29,101 45,187 80,278 -6,1 -48,-14 -51,-29l-45 -223c6,-8 12,-14 16,-27zm-20 35l53 256c-6,1 -48,-19 -51,-34 -12,-97 -16,-129 -24,-190 -2,2 6,-4 7,-14 7,-3 14,-12 16,-19zm-25 37l27 228c-6,1 -48,-26 -51,-41l-2 -158c6,-3 16,-13 18,-23 2,0 6,-1 8,-6zm148 -248c1,-3 1,-5 3,-9 10,8 15,18 19,29 -11,0 -22,-1 -29,-11 2,-2 3,-5 5,-7 2,4 7,7 12,9 -4,-4 -4,-8 -9,-12zm10 24c1,-3 9,2 10,-1 11,8 13,20 15,33 -11,0 -23,-2 -28,-14 2,-2 -5,-12 1,-14 2,4 9,11 14,13 -4,-4 -8,-13 -12,-17zm10 34c1,-3 13,2 15,-1 8,19 14,15 18,34 -12,-5 -30,1 -35,-9 1,-6 -7,-21 0,-21 2,4 12,14 17,16 -4,-4 -11,-15 -16,-18zm-34 -8c1,-3 13,2 14,-1 10,9 14,14 17,38 -11,-5 -25,-4 -31,-13 1,-6 -6,-19 0,-19 3,4 11,13 16,15 -4,-4 -9,-16 -15,-20zm-21 32c4,-2 11,3 16,2 5,9 6,10 7,30 -11,-5 -24,-5 -30,-15 1,-6 -4,-18 3,-17 3,4 9,10 14,12 -4,-4 -3,-9 -9,-13zm31 5c2,-5 14,3 18,2 5,9 6,11 7,30 -13,-4 -25,-4 -31,-13 1,-6 -5,-20 2,-18 3,4 9,10 14,13 -4,-4 -3,-9 -9,-13zm-3 29c4,-2 10,5 14,4 4,7 2,14 0,24 -11,-5 -15,-6 -21,-16 1,-6 -1,-12 5,-10 3,4 4,9 9,11 -4,-4 -1,-9 -7,-13zm32 -25c4,-2 11,2 15,1 4,7 4,11 2,21 -12,-2 -14,-1 -20,-7 1,-6 -7,-16 2,-13 3,4 5,7 10,9 -4,-4 -4,-8 -10,-12zm-60 -35c1,-3 5,-3 7,-6 7,5 11,9 13,33 -11,-5 -25,-3 -31,-13 4,-5 4,-5 8,-9 3,4 7,7 12,9 -4,-4 -3,-10 -9,-14zm-24 29c2,-3 7,-7 9,-10 7,9 4,25 5,40 -9,-8 -19,-13 -23,-21 4,-5 2,-1 5,-5 3,4 8,9 11,14 -4,-4 -4,-12 -7,-17zm44 -60c1,-1 4,-6 6,-10 10,8 12,20 13,31 -11,-1 -20,-1 -27,-8 2,-2 3,-5 5,-7 4,0 7,3 12,6 -4,-4 -5,-9 -9,-12zm-27 81c6,4 14,7 25,10 1,5 0,11 0,17 -15,-9 -24,-18 -25,-27zm122 124l-68 -83c0,-8 5,-17 1,-25 4,2 9,2 14,6 0,-5 -1,-10 -2,-14 7,3 16,1 21,6 0,-4 3,-9 2,-15 13,21 27,45 40,66 6,4 7,16 13,21 9,7 7,17 16,23 11,12 27,5 37,22 14,1 28,9 32,17 3,7 3,21 -7,22 1,-10 -7,-17 -17,-20 -11,-3 -18,-9 -25,-15 3,7 7,14 26,20 7,2 12,10 13,17 1,7 -3,13 -14,14 -2,-23 -21,-26 -31,-41 2,16 32,23 25,46 -5,10 -16,10 -23,5 6,-9 6,-19 -5,-28 -12,-8 -22,-17 -29,-27 -10,-1 -25,-1 -35,-2 -9,6 -17,14 -27,19 -5,-30 20,-32 43,-34zm-510 0l68 -83c0,-8 -5,-17 -1,-25 -4,2 -9,2 -14,6 1,-5 1,-10 2,-14 -7,3 -16,1 -21,6 0,-4 -3,-9 -2,-15 -13,21 -26,45 -40,66 -6,4 -7,16 -13,21 -9,7 -7,17 -16,23 -11,12 -27,5 -37,22 -14,1 -28,9 -32,17 -3,7 -3,21 7,22 -1,-10 7,-17 17,-20 11,-3 18,-9 25,-15 -4,7 -7,14 -26,20 -7,2 -12,10 -13,17 -1,7 3,13 14,14 2,-23 21,-26 31,-41 -2,16 -32,23 -25,46 5,10 16,10 23,5 -6,-9 -6,-19 5,-28 12,-8 22,-17 29,-27 10,-1 24,-1 35,-2 10,6 18,13 28,19 5,-30 -20,-29 -43,-33zm207 -812c-18,26 -50,34 -77,26 4,16 26,20 56,11 9,-2 15,-1 21,3 6,4 4,11 15,16 7,-5 13,-10 19,-19 5,3 6,8 14,11 3,-5 8,-10 8,-16 3,7 7,10 11,13 5,-4 7,-10 8,-15 2,7 7,12 11,14 4,-3 9,-7 11,-15 4,8 9,12 16,14 5,-7 4,-19 1,-32 9,13 6,30 18,37 10,7 20,8 29,-3 -11,-1 -21,-6 -25,-18 -9,-25 -10,-63 -32,-60 1,-8 23,-11 18,-27 -6,11 -18,8 -24,16 -1,-5 6,-9 12,-12 7,-4 10,-11 8,-14 -7,6 -18,5 -24,12 1,-9 15,-11 21,-16 5,-4 9,-10 8,-20 -12,11 -31,18 -50,17 -44,1 -70,-10 -93,13 -8,-2 -8,-11 -15,-16 -2,4 -2,9 -5,13 -3,-3 -8,-5 -12,-8 0,3 0,9 0,12 -4,0 -8,-1 -12,-1 1,4 4,8 5,12 -4,0 -9,0 -13,1 5,7 4,15 8,19 2,1 5,3 7,3 3,0 8,-1 5,-6 -6,-1 -6,-3 -8,-5 2,1 9,0 14,2 4,1 8,5 5,10 -7,8 -18,-3 -28,1 -32,12 -45,34 -38,55 9,-14 22,-22 38,-25 19,-4 47,3 67,-3zm20 -52c-9,9 -22,4 -31,9 -7,4 -14,6 -18,6 2,4 6,7 12,5 15,14 26,-1 25,-7 9,-3 12,-8 12,-12zm-23 12c3,0 6,2 6,5 0,3 -3,5 -6,5 -3,0 -6,-2 -6,-5 0,-3 3,-5 6,-5zm-3 233c-5,5 -9,10 -15,14 2,13 8,20 13,24 12,-7 15,-16 17,-23 -3,-3 -6,-6 -9,-9 -3,5 -5,11 -6,17 -1,-8 -1,-16 0,-24zm-22 12c-13,-19 -10,-11 -17,-1 4,13 -6,16 9,39 12,-7 14,-13 16,-20 -3,-3 -3,-9 -6,-12 -3,5 -7,11 -7,18 -1,-8 4,-16 6,-23zm34 33l-14 0c6,-4 10,-9 15,-14 -1,5 -1,9 -1,14zm14 0l-11 0c1,-3 2,-5 4,-8 2,3 5,5 8,8zm8 -36c-5,5 -10,9 -16,13 0,13 8,21 14,25 12,-7 16,-18 17,-26 -3,-3 -7,-9 -10,-12 -3,5 -5,16 -5,22 -1,-8 -1,-16 0,-23zm-13 -29c-5,5 -9,9 -15,13 1,14 9,19 14,23 12,-7 14,-15 15,-22 -3,-3 -7,-9 -10,-12 -3,5 -3,13 -4,19 -1,-8 -2,-13 -1,-21zm-13 -24c-5,5 -8,8 -14,12 0,13 5,17 9,21 12,-7 18,-16 20,-23 -3,-3 -7,-7 -10,-10 -3,5 -5,12 -6,19 -1,-8 -1,-11 1,-19zm-30 22c-5,5 -6,8 -6,13 0,12 4,16 9,20 13,-8 17,-15 18,-21 -3,-3 -6,-6 -8,-11 -3,4 -6,7 -6,13 -3,-10 7,-17 6,-19 6,-14 -7,-18 -11,-12 -1,1 -8,7 -15,6 1,10 14,11 14,11zm77 7c-5,5 -9,9 -15,13 1,13 9,19 14,23 12,-7 14,-15 15,-22 -3,-3 -7,-9 -9,-12 -3,5 -3,13 -4,19 -1,-8 -2,-13 -1,-21zm-14 -28c-5,5 -9,9 -15,13 1,13 9,19 14,23 12,-7 14,-15 15,-22 -3,-3 -7,-9 -10,-12 -3,5 -3,13 -4,19 -1,-8 -2,-13 -1,-21zm-13 -25c-5,5 -7,9 -13,13 0,14 6,16 10,20 12,-7 15,-12 16,-19 -3,-3 -7,-9 -10,-12 -3,5 -4,9 -4,16 -1,-8 -1,-10 0,-18zm32 7c-5,5 -5,5 -11,9 0,14 6,16 11,20 12,-7 14,-12 16,-19 -3,-3 -7,-9 -10,-12 -3,5 -4,9 -4,16 -1,-8 -3,-6 -1,-14zm-12 -24c-5,5 -5,5 -11,9 1,13 6,16 11,19 12,-7 15,-12 16,-19 -3,-3 -7,-9 -9,-12 -3,5 -4,9 -4,16 -1,-8 -3,-6 -1,-14zm30 -1c-5,5 -5,5 -11,9 1,13 6,16 10,20 12,-7 14,-12 15,-19 -3,-3 -6,-9 -9,-12 -3,5 -3,9 -4,16 -1,-8 -2,-6 -1,-14zm18 -22c-4,5 -5,5 -10,9 1,14 6,16 10,20 11,-7 14,-18 15,-25 -3,-3 -8,-8 -9,-12 -3,5 -4,15 -5,22 -1,-8 -2,-6 -1,-14zm-11 -26c-4,5 -5,7 -11,11 0,13 8,17 11,21 11,-7 13,-16 14,-23 -3,-3 -6,-9 -9,-12 -3,5 -3,14 -4,20 -1,-8 -4,-9 -2,-17zm-26 -16c0,13 10,17 14,21 11,-9 11,-12 12,-19 -5,-4 -5,-11 -13,7 -1,-3 -9,-13 -13,-9zm34 2c2,13 4,12 8,17 11,-9 10,-10 11,-17 -5,-3 -7,-9 -11,1 -1,-3 -2,-4 -8,0zm19 9c-4,5 -5,7 -11,11 0,13 8,17 11,21 11,-7 13,-16 14,-23 -3,-3 -6,-9 -9,-12 -3,5 -3,14 -4,20 -1,-8 -4,-9 -2,-17zm11 31c-4,5 -4,4 -9,8 1,14 10,16 14,20 11,-7 9,-13 10,-20 -3,-3 -7,-6 -9,-9 -3,5 -2,11 -2,17 -1,-8 -4,-7 -3,-15zm-57 -3c-5,5 -5,5 -11,10 1,15 6,17 11,21 12,-8 15,-13 16,-21 -3,-3 -7,-9 -10,-13 -3,5 -4,10 -4,17 -1,-9 -3,-7 -1,-15zm-13 -25c-5,5 -4,7 -10,11 1,15 5,16 9,20 12,-8 14,-15 15,-22 -3,-3 -6,-8 -9,-11 -3,5 -3,10 -4,17 -1,-9 -2,-7 -1,-15zm-18 -13c-4,5 -2,4 -8,8 3,12 6,12 10,16 9,-7 11,-9 12,-17 -3,-3 -7,-5 -10,-8 -3,5 -1,8 -2,15 -1,-9 -5,-6 -2,-14zm-16 20c-5,-3 -9,-10 -11,-9 -1,0 -6,9 -19,14 -1,4 3,11 10,11 8,0 10,-10 9,-10 4,12 9,16 13,21 9,-9 12,-12 13,-19 -7,-5 -9,-15 -11,-8 -4,5 -2,10 -2,17 -1,-9 -4,-9 -2,-16zm-5 39c-4,5 -5,5 -10,9 0,13 6,16 9,19 11,-7 13,-12 15,-19 -3,-3 -6,-9 -9,-12 -3,5 -3,9 -4,16 -1,-8 -2,-6 -1,-14zm21 -19c-4,5 -5,5 -10,9 0,14 5,18 9,22 11,-7 15,-16 16,-23 -3,-3 -6,-9 -9,-12 -3,5 -4,12 -5,18 -1,-8 -2,-6 -1,-14zm39 69c-5,5 -9,9 -15,13 0,13 9,19 13,23 12,-7 13,-15 15,-22 -3,-3 -6,-9 -9,-12 -3,5 -3,13 -3,19 -1,-8 -2,-13 -1,-21zm16 26c-5,5 -9,9 -15,13 -1,14 9,22 13,26 12,-7 15,-17 16,-25 -3,-3 -8,-9 -11,-12 -3,5 -3,13 -3,19 -1,-8 -2,-13 -1,-21zm38 -2c-5,5 -7,8 -13,12 1,15 11,20 15,24 12,-7 12,-17 13,-25 -4,-2 -9,-7 -11,-11 -3,5 0,13 -1,19 -1,-8 -4,-11 -3,-19zm-20 -23c-5,5 -7,8 -13,12 1,15 11,20 15,24 12,-7 12,-17 13,-25 -3,-3 -8,-8 -11,-11 -3,5 -1,13 -1,19 -1,-8 -4,-11 -3,-19zm-17 -27c-5,5 -7,8 -13,12 1,15 11,20 15,24 12,-7 12,-17 14,-25 -3,-3 -8,-8 -11,-11 -3,5 -1,13 -1,19 -1,-8 -4,-11 -3,-18zm19 -23c-5,5 -7,8 -13,12 1,15 11,18 15,21 12,-7 12,-15 13,-23 -4,-3 -9,-8 -11,-11 -3,5 0,11 -1,17 -1,-8 -4,-9 -3,-16zm14 27c-3,5 -6,7 -12,11 1,15 11,17 15,21 12,-7 11,-18 12,-26 -6,-4 -7,-10 -10,-13 -3,5 0,16 0,22 -1,-8 -5,-7 -4,-15zm19 18c-4,5 -6,11 -11,15 3,16 9,17 13,21 11,-7 11,-17 12,-25 -3,-3 -8,-8 -11,-11 -3,5 0,13 -1,19 -1,-8 -4,-11 -2,-18zm-74 54c-5,5 -8,7 -14,12 1,14 9,20 16,23 11,-8 11,-15 13,-22 -3,-3 -7,-8 -9,-12 -3,5 -3,12 -4,18 -1,-8 -3,-13 -2,-21zm39 -6c-3,7 -5,13 -11,18 1,13 12,18 16,21 9,-8 14,-15 15,-21 -5,-3 -11,-9 -14,-15 -2,6 -1,16 -1,22 -3,-6 -4,-19 -5,-24zm-99 -120c-7,15 -18,15 -29,13 2,16 21,22 31,12 7,-8 5,-15 -2,-25zm-6 25c0,0 0,0 1,-1 0,0 0,0 0,0 0,0 0,0 0,1zm-16 26c-5,6 -12,7 -19,7 3,10 14,15 22,7 2,2 5,6 6,7 11,-7 14,-12 15,-19 -3,-3 -6,-9 -9,-11 0,0 0,0 0,1 -2,-2 -3,-4 -3,-11 -7,7 -16,7 -24,5 1,9 7,13 13,14zm10 1c1,2 1,3 1,5 0,0 0,0 0,0 0,-3 1,-6 1,-8 -1,0 -2,1 -2,1 0,1 0,1 0,2zm53 91c-2,6 -7,12 -11,17l23 0c-5,-5 -9,-10 -11,-17zm41 0c-2,6 -7,12 -11,17l23 0c-5,-5 -9,-10 -11,-17zm40 2l3 11 2 -10c5,7 11,11 17,15l-33 0c4,-4 9,-11 11,-16zm13 -23c-3,7 -2,8 -8,13 5,13 8,13 13,17 10,-8 11,-22 12,-28 -4,-2 -8,-5 -11,-12 -2,6 -1,18 -2,25 -3,-6 -3,-11 -4,-15zm27 19c-2,0 -3,-2 -4,-2 0,0 -1,-1 -1,-1 0,0 0,-1 0,-1l0 0c0,0 -2,-2 -2,-3l-1 -1 -1 0c-2,2 -1,7 -2,10 0,2 -3,4 -3,5 0,0 0,0 0,0 0,0 0,1 0,1 -1,0 -2,3 -2,4 0,0 -1,0 -1,0 0,0 0,0 0,0 0,0 0,0 0,1l0 0 0 0 0 0c0,0 -1,1 -1,1 0,0 0,1 0,1l0 0c0,0 -1,1 -1,1 -2,0 1,2 3,2l15 0c0,0 -1,-1 -2,-1l0 0c-1,-1 -2,-2 -2,-3 0,-3 0,-9 2,-10l1 0 1 0 0 0 1 0 0 0c1,-1 4,-2 5,-2 0,-1 0,-1 -1,-2zm3 8c3,0 6,3 6,6 0,3 -3,6 -6,6 -3,0 -6,-3 -6,-6 0,-3 3,-6 6,-6zm0 -25c3,0 6,3 6,6 0,3 -3,6 -6,6 -3,0 -6,-3 -6,-6 0,-3 3,-6 6,-6zm-3 -22c3,0 6,3 6,6 0,3 -3,6 -6,6 -3,0 -6,-3 -6,-6 0,-3 3,-6 6,-6zm-219 3c4,0 7,3 7,7 0,4 -3,7 -7,7 -4,0 -7,-3 -7,-7 0,-4 3,-7 7,-7zm-2 22c4,0 7,3 7,7 0,4 -3,7 -7,7 -4,0 -7,-3 -7,-7 0,-4 3,-7 7,-7zm-1 20c4,0 7,3 7,7 0,4 -3,7 -7,7 -4,0 -7,-3 -7,-7 0,-4 3,-7 7,-7zm180 -162c-1,4 -1,7 -3,11 2,7 7,8 11,11 7,-11 4,-16 5,-21 3,17 12,23 24,19 -8,-6 -16,-15 -18,-25 -5,-2 -9,-5 -14,-7 0,10 0,13 -2,16 -1,-1 -2,-2 -3,-3zm15 15l-6 13c0,0 1,0 1,0 4,14 24,20 30,13 -10,-6 -20,-15 -24,-25 0,0 0,0 0,0zm-6 32c4,14 21,24 27,18 -10,-6 -1,-12 -25,-28 0,4 -5,11 -2,10zm-6 9c4,14 18,33 29,35 -5,-2 -5,-10 -8,-18 -3,-7 -11,-14 -11,-20 0,0 -1,-5 -4,-7 0,4 -8,11 -6,11zm23 61c0,1 -2,3 -2,3 0,0 0,0 -1,1l0 0c-2,2 -1,7 2,9 0,0 0,0 0,1 2,1 6,6 8,4 0,0 0,0 -1,0 0,-2 -2,-4 -1,-6 0,-2 -2,-4 -2,-6 0,0 0,-1 0,-1 0,0 -1,-1 -1,-1 0,0 0,0 0,0 0,0 0,0 0,0 0,0 0,-1 0,-1 0,0 0,0 0,0 0,0 0,0 0,-1zm17 14c-2,0 -6,-1 -7,0 -2,2 0,3 0,5 2,0 10,0 10,-3 0,0 -1,-1 -1,-1 -1,0 -1,-1 -2,-1zm-184 -184c-4,0 -7,1 -11,2 -6,4 -12,7 -19,8 -8,1 -16,1 -23,0 0,8 15,9 28,6 11,-2 21,-8 25,-15z"/>
   <polygon class="fil14 str11" points="13590,8525 13639,8525 13639,8557 13590,8557 "/>
   <path class="fil11 str9" d="M13657 9027c124,-49 200,-127 200,-243l0 -260 -195 0 -195 0 0 260c0,116 67,193 190,243z"/>
   <path class="fil11 str9" d="M13456 9141l-56 71c81,48 166,69 253,69 86,0 169,-21 250,-67l-55 -71c-71,36 -135,51 -194,49 -60,2 -126,-13 -197,-50z"/>
   <path class="fil12" d="M13452 9146l-46 59c79,46 162,67 248,67 85,0 167,-20 245,-65l-46 -60c-60,32 -129,52 -199,52 -71,0 -141,-20 -202,-53z"/>
   <path class="fil11" d="M13161 8136c0,3 3,-1 4,3 4,106 74,177 142,234 4,5 3,21 8,34 -76,-37 -140,-120 -152,-179 33,81 84,132 139,166 -2,-6 -1,-17 -4,-19 -53,-34 -87,-82 -113,-128 -16,-28 -28,-63 -25,-110zm157 216c-56,-40 -101,-93 -129,-171 3,51 63,136 129,180 0,-3 0,-6 0,-9zm-183 -154c0,3 3,-1 3,3 22,105 115,185 160,210 4,5 7,20 12,33 -72,-30 -141,-93 -157,-157 39,80 83,110 142,144 -2,-6 -1,-13 -4,-15 -57,-33 -93,-78 -115,-110 -18,-25 -36,-64 -42,-108zm-18 53c0,3 3,-1 4,3 26,107 129,175 172,197 4,4 8,20 13,33 -62,-22 -145,-81 -167,-145 52,83 110,110 153,134 -2,-6 -5,-16 -8,-18 -58,-31 -97,-70 -120,-101 -17,-25 -43,-59 -48,-103zm-16 56c0,4 3,0 3,3 47,117 158,169 189,181 4,3 9,17 17,30 -54,-16 -146,-61 -174,-125 59,76 117,96 158,113 -2,-6 -3,-12 -6,-14 -52,-19 -105,-62 -124,-84 -17,-20 -52,-58 -62,-104zm-10 49c0,3 3,-1 3,3 49,118 176,159 206,170 2,4 7,13 15,25 -16,5 -152,-45 -186,-111 69,74 144,95 171,104 -2,-6 -5,-11 -8,-13 -45,-14 -110,-52 -136,-80 -18,-19 -55,-52 -65,-98zm-3 60c0,3 3,-1 3,3 59,109 193,139 211,146 4,4 5,10 18,23 -27,3 -139,-30 -192,-96 86,73 158,88 174,90 -5,-7 -5,-10 -9,-11 -60,-18 -112,-48 -131,-63 -19,-14 -61,-45 -75,-92zm-4 46c0,3 3,-1 4,3 69,112 214,132 226,137 4,3 6,11 20,24 -29,2 -149,-33 -195,-81 92,63 161,71 177,73 -5,-7 -5,-10 -9,-11 -61,-14 -115,-39 -136,-53 -19,-13 -72,-44 -86,-91zm5 54c0,3 1,-7 1,-4 79,113 229,119 236,123 4,3 9,9 23,22 -28,4 -158,-19 -206,-70 96,61 172,61 187,65 -7,-7 -6,-10 -12,-12 -38,-1 -123,-33 -141,-44 -16,-9 -70,-42 -87,-80zm0 42c0,4 1,-7 1,-4 79,113 237,107 248,112 7,3 6,7 23,18 -32,8 -172,-1 -218,-55 96,61 182,49 197,53 -7,-7 -6,-10 -12,-12 -54,2 -123,-21 -147,-33 -16,-8 -75,-40 -91,-79zm14 58c0,3 1,-7 1,-4 98,111 258,79 258,84 5,1 9,9 24,16 -30,13 -167,19 -218,-31 89,48 185,31 198,31 -7,-7 -6,-8 -12,-10 -60,10 -143,-11 -163,-22 -11,-6 -63,-28 -87,-65zm18 58c1,3 0,-7 1,-4 111,100 259,51 260,55 5,0 10,5 28,10 -28,17 -157,39 -217,0 95,35 186,5 200,1 -8,0 -9,-3 -17,-4 -68,18 -139,10 -161,-2 -10,-6 -65,-23 -94,-56zm29 59c1,3 -1,-7 0,-4 113,80 249,11 253,18 5,0 10,4 28,7 -26,19 -151,54 -216,21 98,26 186,-13 199,-18 -8,0 -9,-3 -17,-2 -66,25 -138,26 -160,17 -10,-4 -56,-8 -88,-38zm42 56c2,3 -2,-7 0,-4 30,15 59,21 86,22 86,2 152,-48 156,-44 5,-1 11,2 29,3 -23,23 -131,76 -199,53 100,11 170,-41 183,-48 -8,2 -10,-1 -17,0 -61,35 -124,45 -148,41 -13,-2 -56,-2 -90,-23zm46 44c2,3 -3,-7 -1,-4 31,10 67,4 91,2 54,-6 103,-39 133,-57 8,-3 8,1 26,-1 -18,21 -99,79 -172,74 89,-8 152,-64 160,-67 -8,3 -7,-2 -14,2 -58,39 -107,51 -129,54 -12,2 -60,10 -94,-3zm45 32c2,3 -4,-6 -1,-4 32,8 65,-1 79,-5 49,-13 96,-48 125,-68 8,-3 8,0 26,-3 -17,23 -93,86 -166,87 88,-15 146,-75 154,-79 -7,4 -7,-2 -14,3 -54,43 -104,59 -123,64 -12,4 -49,13 -81,5zm53 26c3,2 -5,-6 -2,-3 33,3 83,-19 83,-19 42,-24 80,-59 100,-79 7,-5 8,-1 26,-7 -13,25 -66,92 -138,104 85,-29 121,-89 127,-94 -7,5 -7,0 -13,5 -47,47 -90,70 -99,74 -22,10 -52,23 -85,19zm51 -503c3,10 6,20 9,31 -25,-9 -49,-27 -73,-43 21,9 43,23 62,29 1,-6 2,-11 2,-17zm-4 36c3,10 10,18 13,28 -25,-9 -53,-20 -76,-36 21,9 43,17 62,23 1,-6 1,-9 2,-15zm-7 32c6,10 13,13 15,23 -24,0 -58,-9 -82,-25 21,9 49,14 67,17 1,-6 -1,-9 0,-14zm1 33c6,10 13,13 16,23 -24,-1 -58,-6 -81,-22 21,5 48,11 66,13 1,-6 -1,-9 0,-14zm-2 31c6,10 17,10 19,22 -24,0 -55,2 -78,-14 21,5 51,9 63,6 1,-6 -4,-8 -3,-13zm4 28c8,9 19,8 22,19 -24,3 -54,10 -80,-2 22,2 51,1 63,-4 0,-6 -5,-7 -6,-12zm5 28c8,8 18,5 21,15 -21,5 -48,14 -72,5 20,0 46,-4 57,-10 -1,-5 -5,-6 -6,-11zm9 29c9,7 19,3 24,12 -22,8 -49,19 -75,14 21,-2 48,-9 59,-16 -1,-5 -6,-5 -8,-10zm13 25c10,6 19,1 25,10 -21,10 -47,24 -74,21 20,-4 47,-14 57,-21 -2,-5 -7,-4 -9,-9zm16 22c10,4 19,-2 26,6 -19,13 -42,31 -69,32 19,-8 44,-21 53,-30 -3,-5 -8,-3 -10,-8zm20 19c10,4 19,-2 26,6 -19,13 -42,31 -69,32 19,-8 44,-21 53,-30 -3,-5 -8,-3 -10,-8zm26 16c11,4 19,-3 27,4 -18,14 -40,34 -67,37 19,-9 42,-24 50,-34 -3,-4 -8,-3 -11,-7zm20 14c11,3 19,-4 27,2 -17,15 -37,37 -64,41 18,-10 41,-27 48,-37 -3,-4 -8,-2 -11,-7zm656 -566c0,3 -3,-1 -4,3 -4,106 -74,177 -142,234 -4,5 -3,21 -8,34 76,-37 140,-120 151,-179 -33,81 -84,132 -139,166 2,-6 1,-17 4,-19 53,-34 87,-82 113,-128 16,-28 28,-63 25,-110zm-156 216c56,-40 101,-93 129,-171 -3,51 -63,136 -129,180 0,-3 0,-6 1,-9zm183 -154c0,3 -3,-1 -3,3 -22,105 -115,185 -160,210 -4,5 -7,20 -12,33 72,-30 141,-93 157,-157 -39,80 -83,110 -142,144 2,-6 1,-13 4,-15 57,-33 93,-78 115,-110 18,-25 36,-64 41,-108zm18 53c0,3 -3,-1 -3,3 -26,107 -129,175 -172,197 -4,4 -8,20 -13,33 62,-22 145,-81 167,-145 -52,83 -110,110 -153,134 2,-6 5,-16 8,-18 58,-31 97,-70 120,-101 17,-25 43,-59 48,-103zm16 56c0,4 -3,0 -3,3 -47,117 -158,169 -189,181 -4,3 -9,17 -17,30 54,-16 146,-61 174,-125 -59,76 -117,96 -158,113 2,-6 3,-12 6,-14 52,-19 105,-62 124,-84 17,-20 52,-58 62,-104zm10 49c0,3 -3,-1 -4,3 -49,118 -176,159 -206,170 -2,4 -6,13 -15,25 16,5 152,-45 186,-111 -69,74 -144,95 -171,104 2,-6 5,-11 8,-13 45,-14 110,-52 136,-80 18,-19 55,-52 65,-98zm3 60c0,3 -3,-1 -4,3 -59,109 -193,139 -211,146 -4,4 -5,10 -18,23 27,3 139,-30 192,-96 -86,73 -158,88 -174,90 5,-7 5,-10 9,-11 60,-18 112,-48 131,-63 19,-14 61,-45 75,-92zm3 46c0,3 -3,-1 -3,3 -69,112 -215,132 -226,137 -4,3 -6,11 -20,24 29,2 149,-33 195,-81 -92,63 -161,71 -177,73 6,-7 5,-10 9,-11 60,-14 115,-39 136,-53 19,-13 72,-44 86,-91zm-5 54c0,3 0,-7 -1,-4 -79,113 -229,119 -236,123 -4,3 -9,9 -23,22 28,4 158,-19 206,-70 -96,61 -172,61 -187,65 7,-7 6,-10 12,-12 38,-1 123,-33 141,-44 16,-9 70,-42 87,-80zm0 42c0,4 -1,-7 -1,-4 -79,113 -238,107 -248,112 -7,3 -5,7 -23,18 32,8 172,-1 218,-55 -96,61 -182,49 -197,53 7,-7 6,-10 12,-12 54,2 123,-21 147,-33 16,-8 75,-40 91,-79zm-14 58c0,3 -1,-7 -1,-4 -98,111 -258,79 -258,84 -5,1 -9,9 -24,16 30,13 167,19 218,-31 -89,48 -185,31 -198,31 7,-7 6,-8 12,-10 60,10 143,-11 163,-22 11,-6 63,-28 87,-65zm-18 58c-1,3 0,-7 0,-4 -111,100 -259,51 -260,55 -6,0 -10,5 -28,10 28,17 156,39 217,0 -95,35 -186,5 -200,1 8,0 9,-3 17,-4 68,18 140,10 161,-2 10,-6 65,-23 94,-56zm-29 59c-1,3 1,-7 0,-4 -113,80 -249,11 -253,18 -5,0 -10,4 -29,7 26,19 151,54 216,21 -98,26 -186,-13 -199,-18 8,0 9,-3 17,-2 66,25 138,26 160,17 10,-4 56,-8 88,-38zm-42 56c-2,3 2,-7 0,-4 -30,15 -59,21 -86,22 -86,2 -152,-48 -156,-44 -5,-1 -11,2 -29,3 23,23 131,76 199,53 -100,11 -170,-41 -183,-48 8,2 10,-1 17,0 61,35 124,45 148,41 13,-2 56,-2 90,-23zm-46 44c-2,3 3,-7 1,-4 -31,10 -67,4 -91,2 -54,-6 -103,-39 -133,-57 -8,-3 -8,1 -26,-1 18,21 99,79 172,74 -89,-8 -152,-64 -160,-67 8,3 7,-2 14,2 58,39 107,51 129,54 12,2 60,10 94,-3zm-45 32c-2,3 4,-6 1,-4 -32,8 -65,-1 -79,-5 -49,-13 -96,-48 -125,-68 -8,-3 -8,0 -26,-3 17,23 93,86 166,87 -88,-15 -146,-75 -154,-79 7,4 7,-2 14,3 54,43 104,59 123,64 12,4 49,13 81,5zm-53 26c-3,2 5,-6 2,-3 -33,3 -83,-19 -83,-19 -42,-24 -80,-59 -100,-79 -7,-5 -8,-1 -26,-7 13,25 66,92 138,104 -85,-29 -121,-89 -127,-94 6,5 7,0 13,5 47,47 90,70 99,74 22,10 52,23 85,19zm-51 -503c-3,10 -6,20 -9,31 25,-9 49,-27 73,-43 -21,9 -43,23 -62,29 -1,-6 -2,-11 -2,-17zm4 36c-3,10 -10,18 -13,28 25,-9 53,-20 76,-36 -21,9 -43,17 -62,23 -1,-6 -1,-9 -2,-15zm7 32c-6,10 -13,13 -16,23 24,0 58,-9 82,-25 -21,9 -49,14 -67,17 -1,-6 1,-9 0,-14zm-1 33c-6,10 -13,13 -16,23 24,-1 58,-6 81,-22 -21,5 -48,11 -66,13 -1,-6 1,-9 0,-14zm2 31c-6,10 -17,10 -19,22 24,0 55,2 79,-14 -21,5 -51,9 -63,6 -1,-6 4,-8 3,-13zm-4 28c-8,9 -19,8 -22,19 24,3 54,10 80,-2 -22,2 -51,1 -63,-4 0,-6 5,-7 6,-12zm-5 28c-8,8 -18,5 -21,15 21,5 48,14 72,5 -20,0 -46,-4 -57,-10 1,-5 5,-6 6,-11zm-9 29c-9,7 -19,3 -24,12 22,8 49,19 75,14 -21,-2 -48,-9 -59,-16 1,-5 6,-5 8,-10zm-13 25c-10,6 -19,1 -25,10 21,10 47,24 74,21 -20,-4 -47,-14 -57,-21 2,-5 7,-4 9,-9zm-16 22c-10,4 -19,-2 -26,6 19,13 42,31 69,32 -19,-8 -44,-21 -53,-30 3,-5 8,-3 10,-8zm-20 19c-10,4 -19,-2 -26,6 19,13 42,31 69,32 -19,-8 -44,-21 -53,-30 3,-5 8,-3 10,-8zm-26 16c-11,4 -19,-3 -27,4 18,14 40,34 67,37 -19,-9 -42,-24 -50,-34 3,-4 8,-3 11,-7zm-20 14c-11,3 -19,-4 -27,2 17,15 38,37 64,41 -18,-10 -41,-27 -48,-37 4,-4 8,-2 11,-7z"/>
   <path class="fil14 str12" d="M13887 8417c-33,8 -48,24 -61,38m-5 5c-3,2 -6,6 -9,8m-6 4c-2,1 -3,2 -4,2m90 -28c-32,7 -42,16 -58,26m-8 5c-3,2 -6,6 -9,8m-6 3c-2,1 -3,2 -5,2m89 -15c-27,3 -42,8 -58,18m-9 4c-3,2 -1,1 -4,3m-8 3c-2,1 -2,1 -3,2m86 -5c-27,3 -41,5 -56,11m-11 3c-3,2 -2,0 -5,1m-8 4c-2,1 -2,0 -3,1m84 4c-27,3 -39,4 -54,8m45 23c-26,1 -36,-3 -53,-1m50 28c-23,-3 -43,-7 -56,-10m49 35c-22,-5 -39,-18 -53,-21m41 42c-22,-6 -36,-21 -50,-24m42 43c-22,-6 -33,-26 -46,-29m34 42c-22,-6 -24,-24 -37,-27m-389 -214c33,8 48,24 61,38m6 5c3,2 6,6 9,8m6 4c2,1 3,2 5,2m-90 -28c32,7 42,16 58,26m9 5c3,2 6,6 9,8m6 3c2,1 3,2 4,2m-89 -15c27,3 42,8 58,18m9 4c3,2 1,1 4,3m8 3c2,1 2,1 4,2m-86 -5c27,3 41,5 56,11m11 3c3,2 2,0 5,1m8 4c2,1 2,0 3,1m-84 4c27,3 39,4 54,8m-45 23c26,1 36,-3 53,-1m-50 28c24,-3 43,-7 57,-10m-49 35c22,-5 39,-18 53,-21m-41 42c23,-6 37,-21 50,-24m-42 43c23,-6 33,-26 46,-29m-34 42c22,-6 24,-24 37,-27"/>
   <path class="fil14 str13" d="M13603 8271c3,5 17,2 22,7 4,4 5,18 -14,26m44 -72c9,2 17,8 8,19 10,-5 18,7 7,18 10,6 3,16 -2,18 9,11 -3,18 -9,27"/>
   <path class="fil11" d="M13386 9164l15 -24c0,-1 1,-1 1,-2 0,0 0,-1 -1,-1l-1 -1 3 -4 6 4 0 0 6 4c4,2 6,5 7,8 1,3 0,6 -1,9 -2,3 -4,5 -7,5 -2,0 -3,0 -5,-1l0 0c2,2 3,3 4,5 1,2 0,5 -2,9 -2,3 -4,5 -7,6 -2,0 -6,-1 -10,-3l-7 -4 0 0 -6 -4 3 -4 1 1c0,0 1,0 1,0 0,0 1,0 1,-1zm24 -22l-7 12 0 0 1 1c2,1 3,2 5,1 1,0 3,-2 4,-4 1,-2 2,-4 2,-5 0,-1 -1,-2 -3,-4l-1 -1zm-10 16l-7 12 0 0 2 1c2,1 3,1 5,1 1,0 3,-2 4,-4 1,-2 2,-4 2,-5 0,-1 -1,-3 -3,-4l-1 -1zm13 22l14 -25c0,-1 1,-1 0,-2 0,0 0,-1 -1,-1l-1 -1 2 -4 7 3 7 4 -2 4 -1 -1c-1,0 -1,0 -1,0 0,0 -1,0 -1,1l-5 10 0 0 7 4 0 0 5 -10c0,-1 0,-1 0,-2 0,0 0,-1 -1,-1l-1 0 2 -4 7 4 7 3 -2 4 -1 0c-1,0 -1,0 -1,0 0,0 -1,0 -1,1l-14 25c0,1 0,1 0,2 0,0 0,1 1,1l1 1 -2 4 -7 -3 -7 -4 2 -4 1 0c1,0 1,0 1,0 0,0 1,0 1,-1l6 -11 0 0 -7 -4 0 0 -6 11c0,1 0,1 0,2 0,0 0,1 1,1l1 1 -2 4 -7 -3 -7 -4 2 -4 1 1c1,0 1,0 1,0 0,0 1,0 1,-1zm31 17l13 -26c0,-1 0,-1 0,-2 0,0 0,-1 -1,-1l-1 0 2 -4 7 3 7 3 -2 4 -1 -1c0,0 -1,0 -1,0 0,0 -1,1 -1,1l-13 26c0,1 0,1 0,2 0,0 0,1 1,1l1 1 -2 4 -7 -3 -7 -3 2 -4 1 0c1,0 1,0 2,0 0,0 1,0 1,-1zm24 11c0,1 0,1 0,1 0,0 0,1 1,1l1 0 -2 5 -5 -2 -5 -2 2 -4 1 0c1,0 1,0 1,0 0,0 1,-1 1,-1l11 -27c0,-1 0,-1 0,-1 0,0 -1,-1 -1,-1l-1 0 2 -5 6 2 5 2 0 0 -1 30 0 0 0 0 9 -20c0,-1 0,-1 0,-1 0,0 0,-1 -1,-1l-1 0 2 -5 5 2 5 2 -2 5 -1 0c-1,0 -1,0 -2,0 0,0 -1,0 -1,1l-14 33 -3 -1 -4 -1 1 -32 0 0 0 0 -9 21zm24 18l1 -5 1 0c1,0 1,0 1,0 0,0 1,-1 1,-1l9 -27c0,-1 0,-1 0,-2 0,0 0,-1 -1,-1l-1 0 1 -5 11 4 0 0 15 5 0 0 -2 7 -2 7 -4 -1 1 -2c1,-3 1,-5 0,-6 -1,-1 -2,-3 -4,-3l-5 -2 0 0 -4 12 0 0 2 1c1,0 1,0 2,0 0,0 1,-1 1,-2l1 -3 4 1 -3 8 -3 8 -4 -1 1 -3c0,-1 0,-2 0,-2 0,0 -1,-1 -1,-1l-2 -1 0 0 -5 14 0 0 5 2c2,1 4,1 6,0 1,-1 3,-3 4,-6l1 -2 4 1 -2 8 -3 8 0 0 -15 -5 0 0 -11 -4zm37 6l7 -28c0,-1 0,-1 0,-2 0,0 0,-1 -1,-1l-1 0 1 -5 7 2 7 2 -1 5 -1 0c-1,0 -1,0 -1,0 0,0 -1,1 -1,1l-3 14 0 0 12 -12c1,0 1,-1 1,-1 0,0 -1,0 -2,-1l-1 0 1 -5 6 1 6 2 -1 5 -2 0c0,0 -1,0 -1,0 0,0 -1,0 -1,1l-9 9 0 0 5 20c0,1 0,1 1,2 0,0 0,0 1,0l1 0 -1 5 -7 -2 -7 -2 1 -5 1 0c1,0 1,0 1,0 0,0 0,-1 0,-1l-2 -12 0 0 -5 5 0 0 -1 5c0,1 0,1 0,1 0,0 1,1 1,1l1 0 -1 5 -7 -2 -7 -2 1 -5 1 0c1,0 1,0 2,0 0,0 0,-1 1,-1zm33 8l16 -33 4 1 4 1 0 36c0,1 0,1 0,2 0,0 0,0 1,0l1 0 -1 5 -7 -1 -7 -2 1 -5 1 0c1,0 1,0 1,0 0,0 0,-1 0,-1l0 -6 0 0 -8 -2 0 0 -2 5c0,1 0,1 0,1 0,0 0,0 1,1l1 0 -1 5 -6 -1 -6 -1 1 -5 1 0c0,0 1,0 1,0 0,0 1,-1 1,-1zm16 -23l-7 15 0 0 6 1 0 0 0 -16zm36 32l3 -31 0 0c-2,0 -4,0 -5,2 -1,1 -2,4 -2,7l0 2 -4 0 1 -9 1 -8 0 0 14 1 0 0 14 1 0 0 -1 9 -1 8 -4 0 0 -2c0,-3 0,-6 -1,-7 -1,-1 -2,-2 -4,-3l0 0 -3 31c0,1 0,1 0,2 0,0 1,0 2,0l2 0 0 5 -9 -1 -9 -1 0 -5 3 0c1,0 1,0 1,0 0,0 0,-1 0,-1zm49 -2c0,4 -1,7 -3,9 -2,2 -5,3 -9,3 -4,0 -7,-1 -9,-3 -2,-2 -3,-5 -3,-9l0 -25c0,-1 0,-1 0,-2 0,0 -1,0 -1,0l-1 0 0 -5 8 0 7 0 0 5 -1 0c-1,0 -1,0 -1,0 0,0 0,1 0,1l0 26c0,2 0,4 1,5 1,1 2,1 4,1 1,0 3,0 3,-2 1,-1 1,-3 1,-5l0 -26c0,-1 0,-1 0,-1 0,0 -1,0 -1,0l-1 0 0 -5 6 0 6 0 0 5 -1 0c-1,0 -1,0 -1,0 0,0 0,1 0,1l0 25zm16 3c0,1 0,1 0,1 0,0 1,0 1,0l1 0 0 5 -6 0 -6 0 0 -5 1 0c1,0 1,0 1,0 0,0 0,-1 0,-2l-3 -29c0,-1 0,-1 0,-1 0,0 -1,0 -1,0l-1 0 0 -5 6 0 6 0 0 0 13 27 0 0 0 0 -2 -21c0,-1 0,-1 0,-1 0,0 -1,0 -1,0l-1 0 0 -5 6 -1 6 0 0 5 -1 0c-1,0 -1,0 -1,0 0,0 0,1 0,2l3 36 -4 0 -4 0 -15 -29 0 0 0 0 2 23zm40 5c-4,0 -8,0 -10,-3 -2,-3 -4,-8 -5,-15 -1,-9 -1,-15 1,-19 2,-4 5,-6 9,-7 3,0 6,1 8,3l0 0 0 0 1 -4 3 0 0 0 2 16 0 0 -4 0c-1,-4 -2,-7 -3,-9 -1,-2 -3,-3 -5,-2 -2,0 -3,2 -4,4 0,3 0,7 0,13 1,8 2,13 3,14 0,2 2,2 3,2 1,0 2,0 3,-2 1,-1 1,-3 0,-5l0 -2c0,-2 0,-3 -1,-4 0,-1 -1,-1 -2,-1l-2 0 -1 -5 8 -1 8 -1 1 5 -1 0c-1,0 -1,0 -1,1 0,0 0,1 0,2l2 14 -4 1 -2 -3 0 0c-1,3 -3,5 -7,5zm31 -6c-4,1 -8,0 -10,-2 -3,-3 -5,-8 -6,-15 -2,-9 -2,-15 -1,-19 1,-4 4,-7 8,-8 3,-1 6,0 8,2l0 0 0 0 1 -4 3 -1 0 0 4 16 0 0 -4 1c-1,-4 -2,-7 -4,-8 -1,-2 -3,-2 -5,-2 -2,0 -3,2 -3,5 0,2 0,7 2,13 2,8 3,12 4,14 1,1 2,2 3,2 1,0 2,-1 2,-2 0,-1 0,-3 0,-5l0 -2c0,-2 -1,-3 -1,-4 0,0 -1,-1 -2,0l-2 0 -1 -5 8 -2 8 -2 1 5 -1 0c-1,0 -1,0 -1,1 0,0 0,1 0,2l3 14 -4 1 -2 -3 0 0c-1,3 -3,5 -6,6zm17 -12l-2 -37 4 -1 4 -1 18 32c0,1 1,1 1,1 0,0 1,0 1,0l1 0 1 5 -7 2 -7 2 -1 -5 1 0c1,0 1,0 1,-1 0,0 0,-1 0,-1l-2 -5 0 0 -8 2 0 0 0 6c0,1 0,1 1,1 0,0 1,0 1,0l1 0 1 5 -6 2 -5 2 -1 -5 1 0c0,0 1,0 1,-1 0,0 0,-1 0,-2zm3 -28l1 16 0 0 6 -2 0 0 -7 -14zm27 26l-2 -5 1 0c1,0 1,0 1,-1 0,0 0,-1 0,-1l-9 -27c0,-1 0,-1 -1,-1 0,0 -1,0 -2,0l-1 0 -2 -5 8 -3 8 -3 2 5 -1 0c-1,0 -1,1 -2,1 0,0 0,1 0,2l10 29 0 0 3 -1c2,-1 4,-2 4,-3 0,-1 0,-3 0,-6l-1 -4 4 -1 3 8 3 8 0 0 -13 4 0 0 -11 4zm39 -23l-12 -26c0,-1 -1,-1 -1,-1 0,0 -1,0 -1,0l-1 0 -2 -4 7 -3 7 -3 2 4 -1 1c0,0 -1,1 -1,1 0,0 0,1 0,1l12 26c0,1 1,1 1,1 0,0 1,0 1,0l1 0 2 4 -7 3 -7 3 -2 -5 1 0c1,0 1,-1 1,-1 0,0 0,-1 0,-1zm19 -8l-13 -26c0,-1 -1,-1 -1,-1 0,0 -1,0 -1,0l-1 1 -2 -4 7 -3 7 -3 2 4 -1 0c-1,0 -1,1 -1,1 0,0 0,1 0,1l7 13 0 0 1 -17c0,-1 0,-1 0,-1 0,0 -1,0 -2,0l-1 1 -2 -4 6 -3 6 -3 2 4 -2 1c0,0 -1,1 -1,1 0,0 0,1 0,1l-1 13 0 0 17 12c1,1 1,1 2,1 0,0 0,0 1,0l1 0 2 4 -7 3 -6 3 -2 -4 1 -1c1,0 1,-1 1,-1 0,0 0,-1 -1,-1l-9 -8 0 0 0 7 0 0 2 4c0,1 1,1 1,1 0,0 1,0 1,0l1 0 2 4 -7 3 -7 3 -2 -4 1 -1c1,0 1,-1 1,-1 0,0 0,-1 0,-1zm30 -15l-11 -35 4 -2 4 -2 24 27c1,1 1,1 1,1 0,0 1,0 1,0l1 -1 2 4 -6 4 -7 4 -2 -4 1 -1c1,0 1,-1 1,-1 0,0 0,-1 0,-1l-4 -4 0 0 -7 4 0 0 2 6c0,1 0,1 1,1 0,0 1,0 1,0l1 -1 2 4 -5 3 -5 3 -2 -4 1 -1c0,0 1,0 1,-1 0,0 0,-1 0,-2zm-4 -28l5 15 0 0 6 -3 0 0 -10 -12z"/>
   <path class="fil13 str9" d="M13477 8751l179 0 0 -218 -179 0 0 218zm369 10l-179 0 0 250c67,-28 111,-58 135,-91 26,-35 44,-58 44,-149l0 -10z"/>
   <path class="fil12 str9" d="M13667 8533l0 218 179 0 0 -218 -179 0zm-10 482l0 -254 -179 0 0 10c0,92 18,114 44,149 25,35 64,66 136,95l0 0z"/>
   <path class="fil11" d="M13660 8894c51,-20 82,-67 82,-115l0 -107 -80 0 -80 0 0 107c0,48 27,95 78,115z"/>
   <polygon class="fil16" points="13619,8826 13661,8794 13704,8825 13687,8775 13729,8743 13677,8743 13662,8694 13646,8743 13593,8743 13636,8775 "/>
   <path class="fil17 str12" d="M13545 8817c-7,-5 -13,-13 -3,-19 3,-10 9,-12 18,-7 9,0 14,8 10,20 -6,8 -15,9 -24,7z"/>
   <path class="fil11 str9" d="M13568 8829c0,0 0,0 -1,0 0,0 -1,-2 -1,-3 0,0 -1,-3 -2,-3 0,0 0,0 0,0 0,0 0,-1 0,-1l0 0 0 -1 0 0c0,0 0,-1 1,-1 0,0 2,-1 3,-1 0,0 2,-2 2,-2 0,-1 1,-3 1,-5 0,0 0,-1 0,-1l0 0c0,0 0,-1 0,-1 0,0 0,-1 0,-1 0,0 0,0 0,0 -2,5 -5,3 -7,3 0,0 -2,-1 -2,-1 -1,0 -3,-2 -4,-2 0,0 -2,-1 -3,0 0,1 -1,2 -1,2 -1,4 -5,6 -8,5l-3 -1c0,2 4,6 6,6 2,0 6,0 8,0 3,1 4,5 5,8l0 0c0,0 0,2 0,2l0 0c0,0 0,1 0,1 0,0 0,0 0,0 4,2 3,0 4,-3z"/>
   <path class="fil17 str12" d="M13556 8844c-8,-5 -13,-12 -5,-19 2,-10 8,-12 17,-9 9,0 14,7 12,19 -5,9 -14,10 -24,9z"/>
   <path class="fil11 str9" d="M13579 8854c0,0 0,0 -1,0 0,0 -1,-2 -2,-2 0,0 -2,-3 -2,-3 0,0 0,0 0,0 0,0 0,-1 0,-1l0 0 0 -1 0 0c0,0 0,-1 0,-1 1,0 2,-1 3,-1 0,0 2,-2 2,-2 0,-1 1,-3 1,-5 0,0 0,-1 0,-1l0 0c0,0 0,-1 0,-1 0,0 0,-1 0,-1 0,0 0,0 0,0 -2,5 -5,3 -6,4 0,0 -2,-1 -2,-1 -1,0 -3,-1 -4,-2 0,0 -2,-1 -3,0 0,1 0,2 0,2 -1,4 -5,6 -7,5l-3 0c0,2 4,5 7,5 2,0 6,-1 7,-1 3,1 5,4 6,7l0 0c0,0 0,2 1,2l0 0c0,0 0,1 0,1 0,0 0,0 0,0 4,2 3,0 4,-4z"/>
   <path class="fil14 str14" d="M13629 8965c-22,-13 -51,-30 -70,-52 -25,-28 -43,-63 -50,-104"/>
   <path class="fil16 str14" d="M13615 8958c6,-11 2,-21 -10,-33 -4,15 0,26 10,33z"/>
   <path class="fil16 str14" d="M13595 8943c7,-10 5,-21 -5,-34 -6,14 -4,26 5,34z"/>
   <path class="fil16 str14" d="M13573 8927c8,-9 7,-21 -2,-34 -7,13 -6,25 2,34zm0 0c-10,7 -21,6 -34,-5 14,-6 25,-4 34,5z"/>
   <path class="fil16 str14" d="M13556 8910c9,-8 10,-19 3,-34 -9,12 -10,23 -3,34zm0 0c-11,5 -22,2 -33,-10 15,-4 25,0 33,10z"/>
   <path class="fil16 str14" d="M13538 8889c10,-6 14,-17 9,-33 -11,10 -14,21 -9,33zm0 0c-12,3 -22,-2 -30,-16 15,-1 25,4 30,16z"/>
   <path class="fil16 str14" d="M13527 8866c11,-5 15,-16 12,-32 -12,9 -16,20 -12,32zm-1 0c-12,2 -22,-4 -29,-18 15,0 24,6 29,18z"/>
   <path class="fil16 str14" d="M13515 8838c11,-4 16,-15 15,-31 -12,8 -17,19 -15,31zm0 0c-12,1 -21,-5 -27,-20 15,1 24,9 27,20z"/>
   <path class="fil16 str14" d="M13508 8811c-10,-7 -12,-18 -6,-34 10,11 12,22 6,34z"/>
   <path class="fil16 str14" d="M13615 8958c-8,9 -19,10 -34,3 12,-9 24,-10 34,-3z"/>
   <path class="fil16 str14" d="M13594 8944c-9,8 -20,7 -34,-2 13,-7 25,-7 34,2z"/>
   <path class="fil17 str12" d="M13571 8869c-8,-4 -15,-9 -8,-18 0,-10 6,-13 15,-11 9,-2 15,4 15,17 -4,9 -12,12 -22,13z"/>
   <path class="fil11 str9" d="M13597 8875c0,0 -1,0 -1,0 0,0 -2,-2 -2,-2 0,0 -2,-2 -2,-2 0,0 0,0 0,0 0,0 0,-1 0,-1l0 0 0 -1 0 0c0,0 0,-1 0,-1 1,0 2,-2 3,-2 0,0 2,-2 2,-2 0,-1 0,-3 0,-5 0,0 0,-1 0,-1l0 0c0,0 0,-1 0,-1 0,0 0,-1 0,-1 0,0 0,0 0,0 -1,5 -4,4 -5,5 0,0 -2,-1 -2,-1 -1,0 -3,-1 -5,-1 0,0 -2,0 -3,1 0,1 0,2 0,2 0,4 -3,7 -6,7l-3 0c1,2 5,4 8,4 2,0 5,-2 7,-2 3,0 5,3 7,6l0 0c0,0 1,2 1,2l0 0c0,0 0,1 0,1 0,0 0,0 0,0 4,1 3,-1 3,-4z"/>
   <path class="fil17 str12" d="M13590 8892c-8,-3 -16,-8 -9,-17 -1,-10 4,-14 14,-13 9,-3 16,3 16,15 -3,10 -11,13 -21,14z"/>
   <path class="fil11 str9" d="M13615 8896c0,0 -1,0 -1,0 0,0 -2,-2 -2,-2 0,0 -2,-2 -3,-2 0,0 0,0 0,0 0,0 0,-1 0,-1l0 0 0 -1 0 0c0,0 0,-1 0,-2 1,0 2,-2 3,-2 0,0 2,-2 2,-3 0,-1 0,-3 0,-5 0,0 0,-1 0,-1l0 0c0,0 0,-1 0,-1 0,0 0,0 0,0 0,0 0,0 0,0 -1,5 -4,4 -5,5 0,0 -2,-1 -2,0 -1,0 -3,-1 -5,-1 0,0 -2,0 -2,1 0,1 0,2 0,2 0,4 -3,7 -6,7l-3 0c1,2 6,4 8,3 2,0 5,-2 7,-3 3,0 6,3 8,6l0 0c0,0 1,1 1,2l0 0c0,0 0,1 1,1 0,0 0,0 0,0 4,0 3,-1 3,-4z"/>
   <path class="fil17 str12" d="M13608 8914c-9,-3 -17,-9 -10,-18 0,-11 5,-15 15,-14 9,-3 17,3 17,16 -3,10 -12,14 -22,15z"/>
   <path class="fil11 str9" d="M13634 8917c0,0 -1,0 -1,0 0,0 -2,-2 -2,-2 0,0 -2,-2 -3,-2 0,0 0,0 0,0 0,0 -1,-1 -1,-1l0 0 0 -1 0 0c0,0 0,-1 0,-2 0,0 2,-2 3,-2 0,0 2,-3 2,-3 0,-1 0,-3 0,-5 0,0 0,-1 -1,-1l0 0c0,0 0,-1 -1,-1 0,0 0,-1 0,-1 0,0 0,0 0,0 -1,5 -4,4 -5,6 0,0 -2,-1 -2,-1 -2,0 -4,-1 -5,-1 0,0 -3,0 -3,1 0,1 0,3 0,3 0,4 -3,7 -6,7l-3 0c1,2 6,4 8,4 2,0 6,-2 7,-3 4,0 6,3 8,6l0 0c0,0 1,2 1,2l0 0c0,0 0,1 1,1 0,0 0,0 0,0 5,1 3,-1 3,-5z"/>
   <path class="fil11" d="M13766 8570c1,0 4,-1 6,-1 0,1 12,2 13,2 0,1 2,1 2,2 1,0 2,1 2,1 1,1 2,2 0,1 1,0 2,1 2,1 2,1 7,-1 7,0l0 1c1,1 5,2 5,4l1 1 1 1c0,0 1,0 1,1 3,0 6,3 9,3l1 1 0 0 0 1c1,1 2,0 1,0 0,1 1,0 1,1 0,0 1,1 2,1l0 1c1,1 1,2 0,1 1,0 1,1 2,1 0,1 0,2 0,2l1 0c1,1 2,5 4,5l0 0 1 1c0,1 1,1 1,1 0,0 1,2 2,2 0,0 0,9 1,9l1 0 0 1c1,0 1,2 1,2l1 0 0 1c1,0 0,1 1,1 0,1 2,2 2,2 1,1 0,2 0,1 1,0 0,0 1,0 0,1 2,5 2,5l0 2 1 0c1,2 0,15 -1,17l0 0 -1 3c0,0 -1,1 -1,1 -1,0 0,0 -1,0 0,1 -1,1 -2,1l0 1c-1,0 -8,0 -10,0l0 0c0,8 -2,16 -2,24l-2 0c0,-10 2,-29 -9,-29 0,1 0,2 -2,2 0,7 -3,15 -3,22l-2 4c-1,-4 1,-22 -1,0 0,-4 2,-22 -5,-22l-1 2 -1 0c-1,1 -2,7 -2,9 0,0 -2,1 -3,1 0,-5 -2,-11 -2,-14 -1,0 -2,1 -3,1l0 1 0 0c-1,1 -1,6 -2,8 -1,-4 -3,-11 -8,-8l0 32c4,14 19,14 31,17 -14,4 -27,-3 -41,-1 -15,-2 -27,5 -41,1 14,-3 30,-8 31,-17l0 -32c-5,-3 -7,4 -8,8 -1,-2 -1,-7 -2,-8l-1 0 0 -1c0,0 -2,-1 -3,-1 0,3 -2,9 -2,14 -1,0 -2,-1 -3,-1 0,-2 -1,-8 -2,-9l-1 0 -1 -2c-7,0 -5,18 -5,22 -2,-22 0,-4 -1,0l-2 -4c0,-7 -3,-15 -3,-22 -1,0 -2,-2 -2,-2 -11,0 -9,18 -9,29l-2 0c0,-8 -2,-16 -2,-24l-1 0c-1,0 -8,0 -9,0l0 -1c-1,0 -2,0 -2,-1 -1,0 0,0 -1,0 0,-1 -1,-1 -1,-1l-1 -3 -1 0c-1,-2 -2,-15 -1,-17l1 0 0 -2c0,0 2,-4 2,-5 1,0 0,0 1,0 0,0 -1,0 0,-1 0,0 2,-2 2,-2 1,0 0,-1 1,-1l0 -1 0 0c0,-1 0,-2 1,-2l0 -1 1 0c0,0 1,-9 1,-9 1,0 2,-2 2,-2 1,0 1,-1 1,-1l0 -1 1 0c2,0 3,-4 4,-5l0 0c0,0 1,-2 1,-2 1,0 1,-1 2,-1 0,1 0,0 0,-1l1 -1c1,0 1,-1 2,-1 0,-1 1,0 1,-1 -1,0 0,1 1,0l1 -1 0 0 1 -1c3,0 6,-3 9,-3 0,-1 0,-1 1,-1l1 -1 1 -1c0,-2 4,-4 5,-4l0 -1c0,-1 5,1 7,0 1,0 2,-1 2,-1 -2,1 0,0 0,-1 1,0 2,-1 2,-1 0,-1 2,-1 2,-2 1,0 13,0 13,-2 2,0 5,1 6,1z"/>
   <path class="fil11" d="M13550 8723c11,0 23,-1 24,-12 0,-7 -6,-10 -3,-22 1,-8 8,-14 8,-23 7,1 14,0 20,-1 -6,-5 -5,-14 -11,-20 24,-14 26,-37 20,-49 -7,-14 -7,-32 -5,-47 -27,17 5,63 -23,75 -11,0 -14,-10 -30,-2 -16,-8 -19,2 -30,2 -28,-12 4,-58 -23,-75 2,15 1,33 -6,47 -6,12 -3,35 20,49 -5,6 -5,15 -11,20 6,2 13,2 20,1 0,9 7,16 8,23 2,12 -3,15 -3,22 1,11 13,12 24,12z"/>
   <path class="fil12" d="M13516 8640l0 0c0,1 1,1 1,1 0,2 -1,7 -2,9l-1 0c-1,1 -2,5 -2,6l-1 1c-1,0 -2,1 -3,1l1 0 15 1 1 1c0,3 4,13 7,13l1 0 0 1 0 2 0 0c-1,2 0,13 0,14l1 0 0 3 1 0c3,4 -6,11 -4,15l1 0c1,1 0,5 1,5l1 0 0 1c0,0 1,1 2,1 0,1 1,0 1,1 0,0 8,2 6,-1l-1 0c-1,-2 -2,-10 -1,-12l1 0c1,-1 1,-4 1,-5l1 0c1,-1 1,-8 0,-9l-1 0 0 -3c-1,0 -2,-3 -2,-4l-1 0 0 -3 -1 0c-2,-4 2,-11 0,-14l0 0 0 -1 -1 -1 -1 0 0 0 -1 -1c-1,0 -4,-3 -1,0 0,0 -3,-3 -4,-3 0,-2 1,-5 1,-6 -1,0 -1,-1 -2,-1l0 0c0,-1 -1,-2 -1,-3 -4,0 1,-9 1,-12 -2,-12 -18,-9 -25,-22 -8,-11 4,-44 -3,-51 0,19 -9,33 -9,45 0,12 5,20 23,30zm54 16c0,0 -1,0 -1,0l0 0c0,0 -1,1 -1,1l0 0c0,2 -2,9 -3,11l0 0c0,1 0,2 0,2 -1,6 -6,16 -4,22 0,0 0,2 0,3l0 0c0,1 0,2 1,2l0 0c0,0 1,1 1,2 0,0 1,0 1,1 0,0 1,0 1,0 0,0 -1,0 -1,0 0,-1 0,-8 1,-8 0,-2 1,-4 1,-7 0,0 0,-1 0,-1l0 0c-1,-1 1,-3 1,-4 0,0 2,-2 2,-2 0,0 1,-2 1,-2 0,-3 1,-7 1,-9l0 0 1 0c0,-1 1,-1 1,-1 0,0 0,0 1,0 0,0 0,-1 1,-1 0,0 0,-1 0,-1 0,-2 -1,-4 -1,-5 -1,0 -1,-1 -1,-1 0,1 0,0 0,0 -1,0 -1,0 -2,-1zm10 -25l5 8c11,-5 19,-17 20,-24 1,-19 -7,-27 -7,-48 -6,12 2,29 -1,40 -2,11 -9,18 -17,24z"/>
   <polygon class="fil12 str9" points="13761,8658 13771,8658 13771,8697 13761,8697 "/>
   <path class="fil18" d="M13758 8577c-2,0 -5,1 -7,1l-1 0 0 1 -1 1c-1,0 -4,1 -5,1l0 1c-2,1 -16,1 -16,6 0,0 -1,1 -2,1 0,4 -9,12 -12,15l-1 0c-4,6 -14,19 -11,27 0,2 2,6 2,7 1,0 4,1 6,1l-1 -1c1,1 0,0 -1,0l0 -1 0 -4c1,0 2,0 3,0 2,9 7,6 14,6 0,-1 0,-3 0,-4 2,0 6,3 6,5 4,0 11,2 16,2 0,-2 4,-5 4,-7 2,0 5,4 5,6l1 0 0 1c0,0 2,0 2,-1 9,0 6,-12 14,-14 2,0 4,1 5,1 -4,4 -4,9 -4,15 6,0 8,0 13,-3 0,-2 2,-16 6,-16 0,-1 1,0 1,-1 -1,0 0,1 1,0 -1,6 -2,14 1,18l1 0 1 2c1,0 6,2 7,2l0 -1c2,-1 3,-1 5,-3 -3,-6 2,-9 2,-13 1,0 2,-1 2,-1 1,2 1,13 1,16 1,0 2,1 2,2 2,0 5,1 7,1 0,-1 1,-1 2,-1 0,-1 1,0 1,-1 6,0 2,-19 2,-23 -1,0 -1,-1 -1,-2 1,2 0,1 -1,0 0,-1 -6,-5 -6,-5l0 -1c0,-2 -1,-4 -1,-7 -1,-1 -3,-4 -3,-5 0,0 -2,-2 -2,-2 -1,0 -2,-2 -2,-2 -3,0 -4,-3 -7,-3 0,-4 -8,-6 -8,-9 -2,0 -4,-5 -8,-4 -2,1 -6,1 -8,1 0,-1 -1,-2 -2,-2 0,-1 -1,-1 -1,-2 0,-1 -2,-1 -2,-2l-19 1z"/>
   <path class="fil19 str15" d="M13795 8791l8 0c3,0 6,3 6,7l0 4c0,4 -3,8 -6,8l-8 0c-4,0 -7,-3 -7,-8l0 -4c0,-4 3,-7 7,-7zm0 4l8 0c2,0 3,2 3,4l0 3c0,2 -1,4 -3,4l-8 0c-2,0 -3,-2 -3,-4l0 -3c0,-2 1,-4 3,-4z"/>
   <path class="fil19 str15" d="M13772 8802l7 -4c3,-2 7,0 9,4l2 3c2,4 1,8 -2,10l-7 4c-3,2 -7,0 -9,-4l-2 -3c-2,-4 -1,-8 2,-10zm2 4l7 -3c1,-1 3,0 4,2l1 2c1,2 1,4 -1,5l-7 3c-1,1 -3,0 -4,-2l-1 -2c-1,-2 -1,-4 1,-5z"/>
   <path class="fil19 str15" d="M13753 8817l6 -5c3,-2 7,-1 10,2l2 3c2,3 2,8 0,10l-6 5c-3,2 -7,1 -10,-2l-2 -3c-3,-3 -2,-8 0,-10zm3 3l6 -5c1,-1 3,0 5,1l2 2c1,2 1,4 0,5l-6 5c-1,1 -3,0 -5,-1l-2 -2c-1,-2 -1,-4 0,-5z"/>
   <path class="fil19 str16" d="M13776 8814l-10 8c-2,2 -5,-2 -3,-4l10 -8c2,-2 5,2 3,4z"/>
   <path class="fil19 str16" d="M13795 8804l-12 4c-2,1 -4,-4 -2,-5l12 -4c2,-1 4,4 2,5z"/>
   <path class="fil19 str15" d="M13736 8834l6 -6c2,-2 7,-2 10,1l3 3c3,3 3,8 0,10l-6 6c-3,2 -7,2 -10,-1l-3 -3c-3,-3 -3,-8 0,-10zm3 3l6 -5c1,-1 3,-1 5,1l2 2c2,1 2,4 1,5l-5 5c-1,1 -3,1 -5,-1l-2 -2c-1,-1 -2,-4 -1,-5z"/>
   <path class="fil19 str16" d="M13759 8828l-9 9c-2,2 -5,-2 -3,-4l9 -9c2,-2 5,2 3,4z"/>
   <path class="fil19 str15" d="M13722 8852l5 -6c2,-3 7,-3 10,0l3 3c3,3 4,7 1,10l-5 6c-2,3 -7,3 -10,0l-3 -2c-3,-3 -4,-7 -1,-10zm3 2l5 -6c1,-1 3,-1 5,0l2 2c2,1 2,4 1,5l-5 6c-1,1 -3,1 -5,0l-2 -2c-2,-1 -2,-4 -1,-5z"/>
   <path class="fil19 str16" d="M13745 8844l-8 9c-2,2 -5,-1 -4,-3l8 -9c2,-2 5,1 4,3z"/>
   <path class="fil19 str15" d="M13710 8872l5 -7c2,-3 7,-3 10,-1l3 2c3,2 4,7 2,10l-5 7c-2,3 -7,3 -10,1l-3 -2c-3,-2 -4,-7 -2,-10zm3 2l5 -6c1,-1 3,-1 5,0l2 1c2,1 2,3 1,5l-5 6c-1,1 -3,1 -5,0l-2 -2c-2,-1 -2,-3 -1,-5z"/>
   <path class="fil19 str16" d="M13732 8862l-7 10c-2,2 -6,-1 -4,-3l7 -10c1,-2 6,1 4,3z"/>
   <path class="fil19 str15" d="M13700 8896l4 -7c2,-3 6,-4 10,-2l3 2c4,2 5,6 4,9l-4 7c-2,3 -6,4 -10,2l-3 -2c-4,-2 -5,-6 -4,-9zm4 2l3 -7c1,-1 3,-2 5,-1l2 1c2,1 3,3 2,4l-3 7c-1,1 -3,2 -5,1l-2 -1c-2,-1 -3,-3 -2,-4z"/>
   <path class="fil19 str16" d="M13720 8882l-6 11c-1,2 -6,0 -4,-2l6 -11c1,-2 6,0 4,2z"/>
   <path class="fil19 str15" d="M13694 8920l2 -8c1,-3 5,-5 9,-4l4 1c4,1 7,5 6,8l-2 8c-1,3 -5,5 -9,4l-4 -1c-4,-1 -6,-5 -6,-8zm4 1l2 -7c0,-2 2,-2 5,-2l2 1c2,1 3,2 3,4l-2 7c0,2 -3,2 -5,2l-3 -1c-2,-1 -3,-2 -3,-4z"/>
   <path class="fil19 str16" d="M13711 8903l-3 12c-1,2 -6,1 -5,-1l3 -12c1,-2 6,-1 5,1z"/>
   <path class="fil19 str15" d="M13707 8951l-6 -6c-2,-3 -2,-7 1,-10l3 -3c3,-3 8,-3 10,0l6 6c3,3 2,7 -1,10l-3 3c-3,3 -8,3 -10,1zm3 -3l-5 -6c-1,-1 -1,-3 1,-5l2 -2c2,-1 4,-2 5,-1l5 5c1,1 1,3 -1,5l-2 2c-2,1 -4,2 -5,1z"/>
   <path class="fil19 str16" d="M13707 8925l4 12c1,2 -4,4 -5,2l-4 -12c-1,-2 4,-4 5,-2z"/>
   <path class="fil19 str15" d="M13740 8954l-8 1c-4,0 -7,-3 -7,-7l0 -4c0,-4 2,-8 6,-8l8 -1c4,0 7,3 7,7l0 4c0,4 -2,8 -6,8zm-1 -4l-8 0c-2,0 -3,-1 -3,-4l0 -3c0,-2 1,-4 3,-4l8 0c2,0 3,1 3,4l0 3c0,2 -1,4 -3,4z"/>
   <path class="fil19 str16" d="M13716 8943l12 -1c3,0 3,5 0,5l-12 1c-3,0 -3,-5 0,-5z"/>
   <path class="fil19 str15" d="M13767 8937l-6 6c-3,2 -7,2 -10,-1l-3 -3c-3,-3 -3,-8 0,-10l6 -5c3,-2 7,-2 10,1l3 3c3,3 3,8 0,10zm-3 -3l-6 5c-1,1 -3,1 -5,-1l-2 -2c-1,-1 -2,-4 0,-5l6 -5c1,-1 3,-1 5,1l2 2c1,2 2,4 1,5z"/>
   <path class="fil19 str16" d="M13739 8942l11 -6c2,-1 5,3 2,4l-11 6c-2,1 -5,-3 -2,-4z"/>
   <path class="fil19 str15" d="M13785 8920l-6 6c-3,2 -7,2 -10,-1l-3 -3c-3,-3 -3,-8 0,-10l6 -6c3,-2 7,-2 10,1l3 3c3,3 3,8 0,10zm-3 -3l-6 5c-1,1 -3,1 -5,-1l-2 -2c-1,-1 -2,-4 -1,-5l6 -5c1,-1 3,-1 5,1l2 2c1,2 2,4 0,5z"/>
   <path class="fil19 str16" d="M13760 8929l9 -9c2,-2 5,2 3,3l-9 9c-2,2 -5,-2 -4,-4z"/>
   <path class="fil19 str15" d="M13801 8902l-5 6c-2,3 -7,3 -10,0l-3 -2c-3,-3 -4,-7 -1,-10l5 -6c2,-3 7,-3 10,0l3 2c3,3 4,7 1,10zm-3 -2l-5 6c-1,1 -3,1 -5,0l-2 -2c-2,-1 -2,-4 -1,-5l5 -6c1,-1 3,-1 5,0l2 2c2,1 2,4 1,5z"/>
   <path class="fil19 str16" d="M13777 8910l9 -9c2,-2 5,2 3,3l-9 9c-2,2 -5,-2 -4,-3z"/>
   <path class="fil19 str15" d="M13815 8881l-4 7c-2,3 -6,4 -10,1l-3 -2c-4,-2 -5,-6 -3,-9l4 -7c2,-3 6,-4 10,-1l3 2c4,2 5,7 3,9zm-4 -2l-4 7c-1,1 -3,1 -5,0l-2 -1c-2,-1 -3,-3 -2,-5l4 -6c1,-1 3,-1 5,0l2 1c2,1 3,3 2,4z"/>
   <path class="fil19 str16" d="M13794 8893l8 -10c1,-2 5,1 4,3l-8 10c-2,2 -6,-1 -4,-3z"/>
   <path class="fil19 str15" d="M13824 8858l-3 8c-1,3 -6,5 -9,3l-4 -2c-4,-2 -6,-6 -4,-9l3 -8c1,-3 6,-5 9,-3l3 1c4,2 6,6 4,9zm-4 -1l-3 7c-1,1 -3,2 -5,1l-2 -1c-2,-1 -3,-3 -2,-4l3 -7c1,-1 3,-2 5,-1l2 1c2,1 3,3 3,4z"/>
   <path class="fil19 str16" d="M13804 8873l7 -10c1,-2 6,0 4,3l-7 10c-1,2 -6,0 -4,-3z"/>
   <path class="fil19 str15" d="M13831 8835l-2 8c-1,3 -5,6 -9,5l-4 -1c-4,-1 -7,-5 -6,-8l2 -8c1,-3 5,-6 9,-5l4 1c4,1 7,5 6,8zm-4 -1l-2 7c0,2 -2,2 -5,2l-3 -1c-2,0 -3,-2 -3,-4l2 -8c0,-1 2,-2 5,-2l3 1c2,0 3,2 3,4z"/>
   <path class="fil19 str16" d="M13813 8853l3 -12c1,-2 6,-1 5,1l-3 12c-1,3 -6,1 -5,-1z"/>
   <path class="fil19 str15" d="M13827 8808l2 8c1,4 -2,7 -6,8l-4 1c-4,1 -8,-1 -9,-5l-2 -8c-1,-3 2,-7 6,-8l4 -1c4,-1 8,1 9,5zm-4 1l2 8c0,1 -1,3 -3,4l-3 0c-2,0 -4,0 -4,-2l-2 -7c0,-2 1,-3 3,-4l3 -1c2,0 4,0 4,2z"/>
   <path class="fil19 str16" d="M13815 8810l-10 -7c-2,-1 1,-6 3,-4l10 7c2,1 0,6 -3,4z"/>
   <path class="fil19 str16" d="M13819 8832l0 -12c0,-3 5,-3 5,0l0 12c0,3 -5,3 -5,0z"/>
   <g>
    <path class="fil1 str17" d="M13754 8589c2,2 5,3 9,2"/>
   </g>
   <g>
    <path class="fil1 str17" d="M13763 8594c-2,2 -5,3 -9,2"/>
   </g>
   <g>
    <path class="fil1 str17" d="M13796 8598c-4,3 -8,2 -11,0 -2,3 -5,3 -9,1 -3,0 -6,0 -9,-2 -1,4 -4,6 -10,6"/>
   </g>
   <g>
    <path class="fil1 str17" d="M13816 8600c-4,2 -7,0 -11,-2"/>
   </g>
   <g>
    <path class="fil1 str17" d="M13717 8605c0,0 1,1 1,1 0,0 0,0 0,0 0,0 0,0 0,0l0 0c0,0 0,0 0,0l0 0c0,0 0,0 0,0l0 0c0,0 0,0 0,0l0 0c0,0 0,0 0,0l0 0c0,0 0,0 0,0l0 0c0,0 1,0 1,0 0,0 0,0 0,0 0,0 1,0 1,0 0,0 0,0 0,0l0 0c0,0 0,0 0,0l0 0c0,0 0,0 0,0"/>
   </g>
   <g>
    <path class="fil1 str17" d="M13709 8612c0,1 6,3 8,0"/>
   </g>
   <g>
    <path class="fil1 str17" d="M13722 8612c4,5 6,2 9,0 1,2 8,0 7,0"/>
   </g>
   <g>
    <path class="fil1 str17" d="M13741 8619c0,0 1,1 1,1 0,0 0,0 0,0 0,0 0,0 0,0l0 0c0,0 0,0 0,0l0 0c0,0 0,0 0,0l0 0c0,0 0,0 0,0l0 0c0,0 0,0 0,0 0,0 1,0 1,0l0 0c0,0 1,0 1,0 0,0 1,0 1,0 1,0 0,0 1,0 0,0 0,0 0,0l0 0c0,0 0,0 0,0l0 0c0,0 1,-1 1,-1"/>
   </g>
   <g>
    <path class="fil1 str17" d="M13705 8624c4,2 7,4 12,0 0,0 0,-1 0,0 0,0 0,0 0,0 1,2 11,3 11,0"/>
   </g>
   <g>
    <path class="fil1 str17" d="M13740 8626c3,2 7,3 9,1"/>
   </g>
   <g>
    <path class="fil1 str17" d="M13726 8629c5,0 9,-1 11,-4"/>
   </g>
   <g>
    <path class="fil1 str17" d="M13759 8625c3,0 5,2 8,2 1,0 5,-1 5,-1 1,2 9,2 9,0 0,-3 -2,-3 1,-1 1,0 6,1 6,-1 0,-2 -1,-2 -2,-4 0,-1 3,2 5,2 1,0 7,0 7,-2"/>
   </g>
   <g>
    <path class="fil1 str17" d="M13796 8627c3,0 6,1 8,1 0,0 3,-4 1,-4 0,0 -2,-1 -2,-1 5,0 7,2 9,-2 1,-2 -1,-3 -1,-3 0,0 1,0 1,0 1,1 5,2 5,0 0,-3 4,-2 4,-3"/>
   </g>
   <g>
    <path class="fil1 str17" d="M13814 8607c-1,2 -4,5 -6,6 -1,0 -5,0 -5,-1 0,-2 -1,-1 -3,-1 0,0 -4,0 -4,0 0,0 0,-3 0,-3 0,0 -3,2 -3,2 -3,1 -8,-3 -9,-4 0,0 0,1 0,2 0,3 -6,1 -7,1"/>
   </g>
   <g>
    <path class="fil1 str17" d="M13783 8616l-1 1c0,0 -2,0 -2,0l0 0c0,0 0,0 0,0 0,0 -1,0 -1,0 0,0 -1,0 -1,0 0,0 -1,0 -1,0 0,0 0,0 0,0l0 0c0,0 0,0 0,0l0 0c0,0 0,0 0,-1"/>
   </g>
   <g>
    <path class="fil1 str17" d="M13750 8598c-2,0 -5,-1 -5,-2"/>
   </g>
   <g>
    <path class="fil1 str17" d="M13741 8607c-5,1 -8,-1 -10,-3 3,2 6,2 9,-1"/>
   </g>
  </g>
 </g>
</svg>
