<?xml version="1.0" encoding="UTF-8"?>
<!DOCTYPE svg PUBLIC "-//W3C//DTD SVG 1.1//EN" "http://www.w3.org/Graphics/SVG/1.1/DTD/svg11.dtd">
<!-- Creator: CorelDRAW X7 -->
<svg xmlns="http://www.w3.org/2000/svg" xml:space="preserve" width="200px" height="339px" version="1.1" style="shape-rendering:geometricPrecision; text-rendering:geometricPrecision; image-rendering:optimizeQuality; fill-rule:evenodd; clip-rule:evenodd"
viewBox="0 0 71 121"
 xmlns:xlink="http://www.w3.org/1999/xlink">
 <defs>
  <style type="text/css">
   <![CDATA[
    .fil0 {fill:#FF6600;fill-rule:nonzero}
   ]]>
  </style>
 </defs>
 <g id="Layer_x0020_1">
  <metadata id="CorelCorpID_0Corel-Layer"/>
  <path class="fil0" d="M15 35l-15 -22 2 -1c2,1 3,1 4,1 1,0 4,-1 7,-3 5,-4 10,-6 14,-8 5,-1 9,-2 14,-2 8,0 14,2 20,6 7,5 10,11 10,20 0,4 -1,9 -3,13 -2,4 -6,9 -12,14 -4,4 -6,7 -7,9 -2,2 -2,5 -2,9 0,1 0,2 1,3 1,1 2,1 4,2l0 3 -28 0 0 -3c2,-1 3,-2 4,-3 1,-1 2,-4 2,-8 1,-3 2,-6 3,-8 1,-3 3,-6 7,-10 3,-4 5,-7 6,-10 1,-2 2,-4 2,-7 0,-3 -1,-6 -4,-8 -2,-3 -5,-4 -9,-4 -6,0 -12,2 -16,7 -2,2 -3,4 -3,6 0,0 0,1 1,2l-2 2zm24 58c4,0 7,1 10,4 3,3 4,6 4,10 0,4 -1,7 -4,10 -3,2 -6,4 -10,4 -4,0 -7,-2 -10,-4 -2,-3 -4,-6 -4,-10 0,-4 2,-7 4,-10 3,-3 6,-4 10,-4z"/>
 </g>
</svg>
