<?xml version="1.0" encoding="UTF-8"?>
<!DOCTYPE svg PUBLIC "-//W3C//DTD SVG 1.1//EN" "http://www.w3.org/Graphics/SVG/1.1/DTD/svg11.dtd">
<!-- Creator: CorelDRAW 2017 -->
<svg xmlns="http://www.w3.org/2000/svg" xml:space="preserve" width="440px" height="449px" version="1.1" style="shape-rendering:geometricPrecision; text-rendering:geometricPrecision; image-rendering:optimizeQuality; fill-rule:evenodd; clip-rule:evenodd"
viewBox="0 0 61.61 62.94"
 xmlns:xlink="http://www.w3.org/1999/xlink">
 <defs>
  <style type="text/css">
   <![CDATA[
    .fil0 {fill:#9CFF9C}
   ]]>
  </style>
 </defs>
 <g id="PowerClip_x0020_Contents">
  <metadata id="CorelCorpID_0Corel-Layer"/>
  <g id="_2855322895088">
   <polygon class="fil0" points="13.19,42.87 54.57,27.49 55.34,29.55 13.96,44.94 "/>
   <path class="fil0" d="M45.6 0.21l-9.31 3.46 0.77 2.07 9.31 -3.46c0.57,-0.22 1.21,0.08 1.42,0.65l11.54 31.03c0.21,0.57 -0.08,1.2 -0.65,1.42l-43.44 16.15c-0.58,0.21 -1.21,-0.08 -1.42,-0.65l-11.54 -31.03c-0.22,-0.57 0.08,-1.2 0.65,-1.42l9.31 -3.46 -0.77 -2.07 -9.31 3.46c-1.72,0.64 -2.59,2.55 -1.95,4.26l11.54 31.03c0.64,1.72 2.54,2.59 4.26,1.95l13.44 -5 2.31 6.21 -2.07 0.77c-0.57,0.21 -0.86,0.84 -0.65,1.41l1.16 3.11 -2.07 0.77 0.77 2.07 26.89 -10.01 -0.77 -2.06 -2.07 0.77 -1.15 -3.11c-0.22,-0.57 -0.85,-0.86 -1.42,-0.65l-2.07 0.77 -2.31 -6.2 13.45 -5c1.71,-0.64 2.58,-2.55 1.95,-4.26l-11.54 -31.03c-0.64,-1.72 -2.55,-2.59 -4.26,-1.95zm5.28 52.19l-18.62 6.93 -0.77 -2.07 18.62 -6.92 0.77 2.06zm-4.64 -2.98l-12.41 4.62 -2.31 -6.21 12.41 -4.62 2.31 6.21z"/>
   <path class="fil0" d="M52.76 25.8l-6.92 -18.62c-0.21,-0.57 -0.85,-0.86 -1.42,-0.65l-5.17 1.93 0.77 2.07 4.14 -1.54 6.53 17.58 2.07 -0.77z"/>
   <path class="fil0" d="M13.13 20.53l-0.77 -2.07 -5.18 1.92c-0.57,0.21 -0.86,0.85 -0.65,1.42l6.93 18.62 2.07 -0.77 -6.54 -17.58 4.14 -1.54z"/>
   <path class="fil0" d="M33.11 33.11c6.28,-2.34 9.48,-9.32 7.15,-15.61 -2.34,-6.28 -9.33,-9.48 -15.61,-7.14 -6.29,2.33 -9.49,9.32 -7.15,15.6 2.34,6.28 9.33,9.48 15.61,7.15zm-7.69 -20.69c5.14,-1.91 10.86,0.71 12.77,5.85 1.91,5.14 -0.71,10.86 -5.85,12.77 -5.14,1.91 -10.86,-0.7 -12.77,-5.84 -1.9,-5.15 0.71,-10.86 5.85,-12.78z"/>
   <path class="fil0" d="M28.73 27.67l1.04 -0.38 0.77 2.07 2.07 -0.77 -0.77 -2.07 1.03 -0.38c1.14,-0.43 1.73,-1.7 1.3,-2.84l-0.77 -2.07c-0.42,-1.14 -1.69,-1.73 -2.84,-1.3l-4.13 1.54 -0.77 -2.07 4.13 -1.54 0.39 1.04 2.07 -0.77 -0.39 -1.04c-0.42,-1.14 -1.69,-1.72 -2.83,-1.3l-1.04 0.39 -0.77 -2.07 -2.07 0.77 0.77 2.07 -1.03 0.38c-1.14,0.43 -1.73,1.7 -1.3,2.84l0.77 2.07c0.42,1.14 1.69,1.72 2.84,1.3l4.13 -1.54 0.77 2.07 -4.14 1.54 -0.38 -1.04 -2.07 0.77 0.39 1.03c0.42,1.15 1.69,1.73 2.83,1.3z"/>
  </g>
 </g>
</svg>
