<?xml version="1.0" encoding="UTF-8"?>
<!DOCTYPE svg PUBLIC "-//W3C//DTD SVG 1.1//EN" "http://www.w3.org/Graphics/SVG/1.1/DTD/svg11.dtd">
<!-- Creator: CorelDRAW 2017 -->
<svg xmlns="http://www.w3.org/2000/svg" xml:space="preserve" width="616px" height="616px" version="1.1" style="shape-rendering:geometricPrecision; text-rendering:geometricPrecision; image-rendering:optimizeQuality; fill-rule:evenodd; clip-rule:evenodd"
viewBox="0 0 51.44 51.44"
 xmlns:xlink="http://www.w3.org/1999/xlink">
 <defs>
  <style type="text/css">
   <![CDATA[
    .fil4 {fill:none}
    .fil8 {fill:#061B1B;fill-rule:nonzero}
    .fil5 {fill:#3FB500;fill-rule:nonzero}
    .fil6 {fill:#59FF00;fill-rule:nonzero}
    .fil0 {fill:url(#id1)}
    .fil7 {fill:url(#id2)}
    .fil3 {fill:url(#id3)}
    .fil2 {fill:url(#id4)}
    .fil1 {fill:url(#id5)}
   ]]>
  </style>
    <clipPath id="id0">
     <path d="M6.27 1.41l38.9 0c2.67,0 4.86,2.19 4.86,4.86l0 38.9c0,2.67 -2.19,4.86 -4.86,4.86l-38.9 0c-2.67,0 -4.86,-2.19 -4.86,-4.86l0 -38.9c0,-2.67 2.19,-4.86 4.86,-4.86z"/>
    </clipPath>
  <linearGradient id="id1" gradientUnits="userSpaceOnUse" x1="50.61" y1="19.23" x2="0.83" y2="32.21">
   <stop offset="0" style="stop-opacity:1; stop-color:#064747"/>
   <stop offset="1" style="stop-opacity:1; stop-color:#010808"/>
  </linearGradient>
  <linearGradient id="id2" gradientUnits="userSpaceOnUse" x1="5.71" y1="37.99" x2="45.38" y2="37.99">
   <stop offset="0" style="stop-opacity:1; stop-color:#59FF00"/>
   <stop offset="1" style="stop-opacity:1; stop-color:#3FB500"/>
  </linearGradient>
  <linearGradient id="id3" gradientUnits="userSpaceOnUse" x1="40.93" y1="16.2" x2="52.81" y2="-11.53">
   <stop offset="0" style="stop-opacity:1; stop-color:black"/>
   <stop offset="1" style="stop-opacity:1; stop-color:#064747"/>
  </linearGradient>
  <linearGradient id="id4" gradientUnits="userSpaceOnUse" xlink:href="#id3" x1="45.71" y1="-7.96" x2="36.81" y2="15.76">
  </linearGradient>
  <linearGradient id="id5" gradientUnits="userSpaceOnUse" x1="1.41" y1="25.72" x2="50.03" y2="25.72">
   <stop offset="0" style="stop-opacity:1; stop-color:#064747"/>
   <stop offset="1" style="stop-opacity:1; stop-color:#061414"/>
  </linearGradient>
 </defs>
 <g id="Layer_x0020_1">
  <metadata id="CorelCorpID_0Corel-Layer"/>
  <g id="_2854694468624">
   <rect class="fil0" width="51.44" height="51.44" rx="6.3" ry="6.3"/>
   <path class="fil1" d="M6.27 1.41l38.9 0c2.67,0 4.86,2.19 4.86,4.86l0 38.9c0,2.67 -2.19,4.86 -4.86,4.86l-38.9 0c-2.67,0 -4.86,-2.19 -4.86,-4.86l0 -38.9c0,-2.67 2.19,-4.86 4.86,-4.86z"/>
   <g style="clip-path:url(#id0)">
    <g>
     <circle class="fil2" cx="41.26" cy="3.9" r="12.67"/>
     <circle class="fil3" cx="46.87" cy="2.34" r="15.08"/>
    </g>
   </g>
   <path class="fil4" d="M6.27 1.41l38.9 0c2.67,0 4.86,2.19 4.86,4.86l0 38.9c0,2.67 -2.19,4.86 -4.86,4.86l-38.9 0c-2.67,0 -4.86,-2.19 -4.86,-4.86l0 -38.9c0,-2.67 2.19,-4.86 4.86,-4.86z"/>
   <g>
    <polygon class="fil5" points="22.79,13.12 18.65,13.85 18.65,32.73 22.79,32.73 22.79,26.48 22.81,26.48 26.57,32.73 31.03,32.73 26.92,25.8 31.03,19.29 26.57,19.29 22.81,25.22 22.79,25.22 "/>
    <polygon class="fil6" points="49.09,19.29 44.83,19.29 42.69,27.76 40.72,19.29 37.02,19.29 35.05,27.76 32.88,19.29 28.65,19.29 32.58,32.73 37.09,32.73 38.88,26.77 40.62,32.73 45.16,32.73 "/>
    <polygon class="fil6" points="22.79,19.29 18.65,19.29 16.39,27.76 14.42,19.29 10.72,19.29 8.75,27.76 6.58,19.29 2.35,19.29 6.28,32.73 10.79,32.73 12.58,26.77 14.32,32.73 18.86,32.73 "/>
   </g>
   <rect class="fil7" x="5.71" y="35.29" width="39.67" height="5.4" rx="7.14" ry="5.04"/>
   <path class="fil8" d="M8.17 36.98c0.02,-0.07 0.05,-0.14 0.1,-0.21 0.05,-0.07 0.11,-0.14 0.18,-0.2 0.07,-0.06 0.15,-0.12 0.23,-0.18 0.08,-0.05 0.16,-0.1 0.24,-0.14 0.08,-0.04 0.15,-0.07 0.22,-0.09 0.07,-0.02 0.13,-0.03 0.17,-0.03l0.03 0c0.02,0 0.05,0.01 0.08,0.03 0.03,0.02 0.05,0.04 0.07,0.06 0.03,0.02 0.04,0.04 0.06,0.07 0.01,0.02 0.02,0.04 0.01,0.05 -0.05,0.25 -0.1,0.5 -0.15,0.75 -0.06,0.25 -0.11,0.48 -0.16,0.69 -0.04,0.21 -0.07,0.39 -0.1,0.55 -0.02,0.15 -0.03,0.26 -0.02,0.33 0.01,0.03 0.03,0.04 0.05,0.04 0.04,0 0.08,-0.02 0.12,-0.05 0.05,-0.03 0.1,-0.09 0.15,-0.17 0.06,-0.08 0.12,-0.19 0.18,-0.33 0.07,-0.14 0.14,-0.32 0.2,-0.54 0.03,-0.12 0.06,-0.23 0.09,-0.34 0.03,-0.11 0.06,-0.21 0.08,-0.3 0.03,-0.09 0.05,-0.16 0.07,-0.22 0.01,-0.07 0.02,-0.11 0.03,-0.13 0.01,-0.04 0.03,-0.06 0.08,-0.05 0.02,0 0.05,0.01 0.08,0.03 0.03,0.02 0.05,0.04 0.07,0.06 0.03,0.02 0.04,0.05 0.06,0.07 0.01,0.02 0.02,0.04 0.01,0.05 -0.05,0.26 -0.1,0.49 -0.15,0.71 -0.05,0.21 -0.1,0.4 -0.14,0.56 -0.03,0.17 -0.06,0.3 -0.07,0.41 -0.02,0.11 -0.01,0.18 0.02,0.22 0,0.02 0.02,0.02 0.03,0.02 0.03,0 0.08,-0.04 0.14,-0.12 0.06,-0.09 0.13,-0.2 0.2,-0.33 0.08,-0.14 0.15,-0.29 0.23,-0.46 0.08,-0.18 0.15,-0.35 0.21,-0.53 0.06,-0.18 0.11,-0.36 0.16,-0.53 0.04,-0.18 0.06,-0.33 0.06,-0.47 0,-0.04 -0.01,-0.08 -0.03,-0.11 -0.02,-0.04 -0.05,-0.06 -0.09,-0.07 -0.01,0 -0.02,-0.01 -0.02,-0.02 0,-0.01 0,-0.02 0.01,-0.03 0.01,-0.01 0.02,-0.02 0.05,-0.03 0.01,0 0.03,-0.01 0.06,-0.01 0.03,-0.01 0.07,-0.01 0.12,-0.01 0.03,0 0.06,0.01 0.09,0.02 0.03,0.02 0.05,0.04 0.08,0.06 0.02,0.02 0.04,0.05 0.06,0.09 0.02,0.03 0.02,0.07 0.02,0.11 0,0.08 -0.01,0.18 -0.03,0.3 -0.02,0.12 -0.06,0.26 -0.1,0.41 -0.04,0.15 -0.09,0.3 -0.15,0.47 -0.06,0.16 -0.13,0.32 -0.2,0.48 -0.07,0.16 -0.15,0.31 -0.23,0.46 -0.09,0.14 -0.17,0.27 -0.26,0.38 -0.09,0.11 -0.18,0.2 -0.27,0.26 -0.09,0.07 -0.19,0.1 -0.28,0.1 0,0 -0.02,-0.01 -0.04,-0.02 -0.03,-0.01 -0.05,-0.02 -0.08,-0.05 -0.03,-0.03 -0.05,-0.07 -0.08,-0.12 -0.02,-0.05 -0.03,-0.12 -0.04,-0.2 0,-0.1 0,-0.2 0.01,-0.32 -0.04,0.1 -0.09,0.19 -0.14,0.28 -0.05,0.08 -0.11,0.16 -0.16,0.22 -0.06,0.07 -0.13,0.12 -0.19,0.15 -0.07,0.04 -0.14,0.06 -0.21,0.06l0 0c-0.01,0 -0.02,-0.01 -0.04,-0.02 -0.03,-0.01 -0.06,-0.02 -0.08,-0.05 -0.03,-0.03 -0.06,-0.07 -0.08,-0.12 -0.03,-0.05 -0.04,-0.12 -0.05,-0.2 0,-0.09 0.01,-0.19 0.02,-0.32 0.02,-0.13 0.04,-0.26 0.06,-0.4 0.03,-0.15 0.06,-0.29 0.09,-0.45 0.04,-0.15 0.07,-0.3 0.11,-0.44 0.03,-0.15 0.06,-0.28 0.1,-0.41 0.03,-0.12 0.05,-0.23 0.08,-0.32 -0.09,0.03 -0.18,0.07 -0.28,0.14 -0.09,0.07 -0.17,0.14 -0.24,0.23 -0.08,0.08 -0.13,0.17 -0.17,0.27 -0.04,0.1 -0.05,0.18 -0.02,0.27 0.01,0.06 0,0.09 -0.04,0.09 -0.02,0 -0.05,-0.01 -0.09,-0.04 -0.03,-0.02 -0.07,-0.05 -0.1,-0.09 -0.03,-0.04 -0.06,-0.09 -0.08,-0.13 -0.02,-0.05 -0.02,-0.1 -0.01,-0.15z"/>
   <path id="1" class="fil8" d="M11.35 37.57c0.06,-0.14 0.14,-0.25 0.22,-0.33 0.09,-0.08 0.17,-0.12 0.26,-0.12 0.11,0 0.19,0.04 0.25,0.12 0.05,0.05 0.09,0.13 0.11,0.24 0.01,-0.03 0.02,-0.06 0.03,-0.09 0.01,-0.03 0.01,-0.05 0.02,-0.07 0,-0.02 0.01,-0.03 0.03,-0.04 0.01,-0.01 0.03,-0.01 0.05,-0.01 0.03,0.01 0.06,0.02 0.09,0.03 0.04,0.01 0.07,0.02 0.1,0.04 0.03,0.01 0.06,0.03 0.08,0.05 0.02,0.02 0.03,0.04 0.03,0.06 0,0.02 0,0.06 -0.02,0.11 -0.01,0.06 -0.02,0.13 -0.04,0.21 -0.02,0.09 -0.04,0.19 -0.06,0.3 -0.02,0.11 -0.04,0.21 -0.06,0.31 -0.01,0.1 -0.02,0.18 -0.03,0.25 0,0.08 0,0.12 0.02,0.14 0.01,0.01 0.02,0.01 0.02,0.01 0.03,0 0.06,-0.01 0.09,-0.04 0.04,-0.03 0.07,-0.07 0.11,-0.12 0.03,-0.05 0.06,-0.1 0.1,-0.16 0.04,-0.05 0.07,-0.11 0.1,-0.16 0.02,-0.06 0.05,-0.11 0.07,-0.15 0.02,-0.05 0.04,-0.08 0.05,-0.1 0,-0.02 0.02,-0.03 0.04,-0.03 0.02,-0.01 0.04,-0.01 0.05,0 0.02,0.01 0.02,0.02 0.02,0.03 0,0.01 0,0.01 0,0.01 -0.02,0.07 -0.06,0.16 -0.11,0.28 -0.05,0.12 -0.11,0.24 -0.18,0.36 -0.06,0.12 -0.14,0.23 -0.22,0.31 -0.08,0.09 -0.17,0.14 -0.25,0.14 -0.17,0 -0.26,-0.15 -0.28,-0.44 -0.11,0.29 -0.25,0.43 -0.42,0.43 -0.1,0 -0.17,-0.02 -0.23,-0.06 -0.06,-0.05 -0.11,-0.1 -0.15,-0.17 -0.03,-0.06 -0.05,-0.14 -0.06,-0.22 -0.02,-0.08 -0.02,-0.16 -0.02,-0.24 0,-0.15 0.01,-0.3 0.05,-0.45 0.03,-0.16 0.08,-0.3 0.14,-0.43zm0.36 1.22c0.05,0 0.1,-0.03 0.14,-0.07 0.04,-0.05 0.07,-0.1 0.1,-0.16 0.03,-0.06 0.05,-0.13 0.07,-0.19 0.02,-0.07 0.03,-0.12 0.04,-0.16 0,-0.06 0.01,-0.12 0.02,-0.18 0.01,-0.07 0.02,-0.13 0.03,-0.2 0,-0.16 0,-0.28 -0.02,-0.37 -0.02,-0.08 -0.05,-0.13 -0.09,-0.13 -0.05,0 -0.11,0.04 -0.16,0.11 -0.05,0.06 -0.1,0.16 -0.15,0.29 -0.04,0.11 -0.07,0.23 -0.1,0.36 -0.02,0.13 -0.04,0.24 -0.04,0.35 0,0.02 0.01,0.06 0.01,0.1 0,0.03 0.01,0.07 0.02,0.11 0.01,0.04 0.03,0.07 0.05,0.1 0.02,0.02 0.04,0.04 0.08,0.04z"/>
   <path id="2" class="fil8" d="M13.28 36.92c0.06,0 0.09,0.02 0.1,0.07 0.01,0.05 0.01,0.1 0,0.16 -0.01,0.07 -0.03,0.15 -0.07,0.23 0.03,0 0.06,0 0.1,-0.01 0.04,-0.01 0.08,-0.03 0.12,-0.04 0.05,-0.02 0.09,-0.03 0.13,-0.04 0.05,-0.01 0.08,-0.02 0.12,-0.02l0.02 0c0.01,0 0.03,0.01 0.06,0.02 0.02,0.02 0.04,0.04 0.06,0.07 0.02,0.02 0.04,0.05 0.06,0.09 0.01,0.03 0.02,0.07 0.02,0.11 0,0.02 -0.01,0.07 -0.02,0.13 -0.02,0.07 -0.04,0.15 -0.06,0.24 -0.02,0.09 -0.04,0.19 -0.06,0.29 -0.03,0.1 -0.04,0.19 -0.06,0.27 -0.01,0.09 -0.02,0.16 -0.01,0.21 0,0.06 0.01,0.08 0.04,0.08 0.02,0 0.05,-0.01 0.09,-0.05 0.04,-0.04 0.08,-0.09 0.13,-0.15 0.05,-0.06 0.1,-0.14 0.16,-0.23 0.06,-0.09 0.11,-0.19 0.17,-0.3 0.01,-0.03 0.03,-0.05 0.05,-0.05 0.01,0 0.02,0.01 0.02,0.02 0.01,0.01 0.01,0.02 0,0.03 0,0.01 -0.01,0.04 -0.03,0.1 -0.02,0.06 -0.04,0.12 -0.08,0.21 -0.03,0.08 -0.07,0.16 -0.11,0.26 -0.05,0.09 -0.1,0.17 -0.15,0.25 -0.06,0.08 -0.12,0.14 -0.18,0.2 -0.07,0.05 -0.14,0.07 -0.21,0.07 -0.07,0 -0.13,-0.02 -0.17,-0.08 -0.03,-0.05 -0.06,-0.12 -0.07,-0.21 -0.01,-0.09 -0.01,-0.19 0,-0.3 0.01,-0.12 0.02,-0.23 0.04,-0.35 0.03,-0.12 0.05,-0.23 0.08,-0.34 0.03,-0.12 0.05,-0.22 0.08,-0.31 -0.01,-0.03 -0.03,-0.05 -0.08,-0.05 -0.03,0 -0.08,0.01 -0.13,0.02 -0.05,0.01 -0.1,0.02 -0.17,0.03 -0.01,0.05 -0.04,0.13 -0.08,0.24 -0.04,0.11 -0.09,0.24 -0.16,0.41 0,0 -0.01,0 -0.01,0.01 -0.01,0 -0.01,0 -0.02,0 -0.02,0.01 -0.05,0 -0.06,-0.02 -0.02,-0.02 -0.02,-0.04 -0.01,-0.07 0.01,-0.03 0.03,-0.06 0.04,-0.11 0.02,-0.04 0.03,-0.09 0.05,-0.14 0.02,-0.05 0.03,-0.1 0.05,-0.16 0.01,-0.05 0.02,-0.1 0.03,-0.14l-0.02 0c-0.04,0 -0.08,-0.02 -0.1,-0.05 -0.03,-0.03 -0.04,-0.07 -0.05,-0.12 -0.01,-0.05 0,-0.1 0.01,-0.15 0.01,-0.06 0.03,-0.11 0.06,-0.16 0.03,-0.05 0.07,-0.09 0.11,-0.12 0.05,-0.03 0.11,-0.05 0.17,-0.05z"/>
   <path id="3" class="fil8" d="M13.81 36.69c0.01,-0.05 0.03,-0.08 0.06,-0.09 0.02,0 0.02,0 0.03,0 0,0.01 0.01,0.01 0.01,0.02 0.03,0.03 0.08,0.04 0.13,0.05 0.06,0 0.1,0 0.14,0 0.07,0 0.13,0 0.21,0 0.07,-0.01 0.15,-0.02 0.23,-0.03 0.02,-0.07 0.03,-0.14 0.04,-0.19 0.02,-0.06 0.03,-0.1 0.04,-0.12 0.01,-0.04 0.04,-0.06 0.08,-0.05 0.03,0.01 0.06,0.01 0.1,0.03 0.03,0.01 0.06,0.02 0.1,0.03 0.03,0.02 0.05,0.04 0.07,0.06 0.02,0.01 0.03,0.04 0.03,0.06 0,0.01 0,0.02 0,0.04 0,0.02 -0.01,0.05 -0.01,0.08 0.17,-0.04 0.36,-0.06 0.56,-0.09 0.19,-0.02 0.38,-0.03 0.56,-0.03 0.05,0 0.1,0 0.15,0.01 0.06,0 0.11,0.01 0.16,0.03 0.05,0.01 0.09,0.04 0.14,0.07 0.04,0.03 0.07,0.07 0.09,0.12 0.03,0.04 0.04,0.08 0.04,0.12 0,0.03 -0.01,0.07 -0.01,0.09 -0.01,0.05 -0.02,0.08 -0.04,0.11 -0.02,0.03 -0.04,0.04 -0.06,0.04 0,0 0,0 0,0 -0.01,-0.01 -0.01,-0.01 -0.01,-0.02 0.01,-0.01 0.01,-0.01 0,-0.01 -0.06,-0.06 -0.14,-0.11 -0.27,-0.13 -0.12,-0.02 -0.26,-0.04 -0.42,-0.04 -0.12,0 -0.25,0.01 -0.38,0.02 -0.13,0.01 -0.27,0.02 -0.4,0.03 -0.03,0 -0.06,0.01 -0.09,0.01 -0.03,0 -0.06,0 -0.09,0.01 -0.01,0.01 -0.01,0.02 -0.01,0.02 0,0.01 0,0.02 0,0.03 -0.03,0.11 -0.05,0.23 -0.07,0.35 -0.03,0.13 -0.05,0.25 -0.08,0.38 -0.03,0.13 -0.05,0.26 -0.07,0.38 -0.02,0.12 -0.04,0.23 -0.05,0.33 -0.02,0.1 -0.03,0.18 -0.03,0.25 0,0.06 0,0.1 0.01,0.12 0.01,0 0.01,0 0.02,0 0.02,0 0.05,-0.01 0.09,-0.04 0.03,-0.03 0.06,-0.07 0.1,-0.12 0.03,-0.05 0.06,-0.1 0.1,-0.16 0.04,-0.05 0.07,-0.11 0.1,-0.16 0.02,-0.06 0.05,-0.11 0.07,-0.15 0.02,-0.05 0.04,-0.08 0.05,-0.1 0.01,-0.02 0.02,-0.03 0.04,-0.03 0.02,-0.01 0.04,-0.01 0.06,0 0.01,0.01 0.02,0.02 0.01,0.03l0 0.01c-0.02,0.07 -0.06,0.16 -0.11,0.28 -0.05,0.12 -0.11,0.24 -0.17,0.36 -0.07,0.12 -0.14,0.23 -0.23,0.31 -0.08,0.09 -0.16,0.14 -0.25,0.14 -0.05,0 -0.1,-0.03 -0.14,-0.08 -0.04,-0.05 -0.06,-0.13 -0.08,-0.24 -0.01,-0.1 -0.02,-0.22 -0.02,-0.35 0.01,-0.13 0.01,-0.27 0.03,-0.41 0.02,-0.15 0.04,-0.29 0.05,-0.42 0.02,-0.12 0.04,-0.25 0.07,-0.37 0.02,-0.12 0.04,-0.23 0.07,-0.34 -0.14,0.01 -0.27,0.01 -0.38,0 -0.11,-0.01 -0.2,-0.03 -0.28,-0.07 -0.03,-0.01 -0.06,-0.04 -0.07,-0.07 -0.02,-0.04 -0.02,-0.08 -0.02,-0.11z"/>
   <path id="4" class="fil8" d="M15.38 37.57c0.07,-0.14 0.14,-0.25 0.23,-0.33 0.08,-0.08 0.17,-0.12 0.26,-0.12 0.1,0 0.18,0.04 0.24,0.12 0.05,0.05 0.09,0.13 0.12,0.24 0,-0.03 0.01,-0.06 0.02,-0.09 0.01,-0.03 0.02,-0.05 0.02,-0.07 0.01,-0.02 0.02,-0.03 0.03,-0.04 0.02,-0.01 0.03,-0.01 0.05,-0.01 0.03,0.01 0.06,0.02 0.1,0.03 0.03,0.01 0.07,0.02 0.1,0.04 0.03,0.01 0.05,0.03 0.07,0.05 0.03,0.02 0.04,0.04 0.04,0.06 0,0.02 -0.01,0.06 -0.02,0.11 -0.01,0.06 -0.03,0.13 -0.05,0.21 -0.01,0.09 -0.03,0.19 -0.06,0.3 -0.02,0.11 -0.04,0.21 -0.05,0.31 -0.02,0.1 -0.03,0.18 -0.03,0.25 -0.01,0.08 0,0.12 0.01,0.14 0.01,0.01 0.02,0.01 0.03,0.01 0.03,0 0.06,-0.01 0.09,-0.04 0.03,-0.03 0.06,-0.07 0.1,-0.12 0.03,-0.05 0.07,-0.1 0.1,-0.16 0.04,-0.05 0.07,-0.11 0.1,-0.16 0.03,-0.06 0.05,-0.11 0.08,-0.15 0.02,-0.05 0.03,-0.08 0.04,-0.1 0.01,-0.02 0.02,-0.03 0.04,-0.03 0.02,-0.01 0.04,-0.01 0.05,0 0.02,0.01 0.03,0.02 0.02,0.03 0,0.01 0,0.01 0,0.01 -0.02,0.07 -0.06,0.16 -0.11,0.28 -0.05,0.12 -0.11,0.24 -0.17,0.36 -0.07,0.12 -0.15,0.23 -0.23,0.31 -0.08,0.09 -0.16,0.14 -0.25,0.14 -0.16,0 -0.26,-0.15 -0.28,-0.44 -0.1,0.29 -0.24,0.43 -0.42,0.43 -0.09,0 -0.17,-0.02 -0.23,-0.06 -0.06,-0.05 -0.11,-0.1 -0.14,-0.17 -0.04,-0.06 -0.06,-0.14 -0.07,-0.22 -0.01,-0.08 -0.02,-0.16 -0.02,-0.24 0,-0.15 0.02,-0.3 0.05,-0.45 0.04,-0.16 0.08,-0.3 0.14,-0.43zm0.36 1.22c0.06,0 0.1,-0.03 0.14,-0.07 0.04,-0.05 0.08,-0.1 0.1,-0.16 0.03,-0.06 0.05,-0.13 0.07,-0.19 0.02,-0.07 0.03,-0.12 0.04,-0.16 0.01,-0.06 0.01,-0.12 0.02,-0.18 0.01,-0.07 0.02,-0.13 0.04,-0.2 0,-0.16 -0.01,-0.28 -0.03,-0.37 -0.02,-0.08 -0.05,-0.13 -0.09,-0.13 -0.05,0 -0.1,0.04 -0.16,0.11 -0.05,0.06 -0.1,0.16 -0.15,0.29 -0.04,0.11 -0.07,0.23 -0.1,0.36 -0.02,0.13 -0.03,0.24 -0.03,0.35 0,0.02 0,0.06 0,0.1 0,0.03 0.01,0.07 0.02,0.11 0.01,0.04 0.03,0.07 0.05,0.1 0.02,0.02 0.05,0.04 0.08,0.04z"/>
   <path id="5" class="fil8" d="M17.89 36.92c0.01,-0.06 0.04,-0.12 0.08,-0.18 0.04,-0.06 0.1,-0.12 0.16,-0.18 0.06,-0.06 0.13,-0.12 0.2,-0.17 0.08,-0.05 0.15,-0.1 0.23,-0.14 0.07,-0.04 0.14,-0.07 0.21,-0.09 0.06,-0.02 0.12,-0.03 0.17,-0.03l0.02 0c0.02,0 0.05,0.01 0.08,0.03 0.02,0.02 0.05,0.04 0.07,0.06 0.02,0.02 0.04,0.04 0.05,0.07 0.01,0.02 0.02,0.04 0.01,0.05 0,0.02 -0.01,0.06 -0.02,0.12 -0.01,0.06 -0.03,0.15 -0.05,0.24 -0.01,0.1 -0.04,0.22 -0.06,0.34 -0.03,0.13 -0.05,0.26 -0.08,0.4 -0.02,0.14 -0.05,0.28 -0.07,0.42 -0.03,0.14 -0.05,0.28 -0.08,0.41 0.05,-0.09 0.1,-0.21 0.16,-0.34 0.06,-0.14 0.12,-0.28 0.2,-0.42 0.07,-0.15 0.15,-0.29 0.24,-0.43 0.09,-0.14 0.18,-0.27 0.27,-0.38 0.1,-0.12 0.19,-0.21 0.29,-0.28 0.1,-0.07 0.2,-0.1 0.29,-0.1 0.05,0 0.1,0.01 0.15,0.03 0.04,0.02 0.07,0.05 0.1,0.1 0.03,0.04 0.05,0.09 0.06,0.14 0.01,0.05 0.02,0.09 0.02,0.12 -0.01,0.03 -0.02,0.03 -0.04,0.01 -0.06,-0.04 -0.12,-0.07 -0.19,-0.07 -0.06,0 -0.13,0.03 -0.2,0.07 -0.07,0.05 -0.14,0.11 -0.22,0.18 -0.07,0.08 -0.14,0.16 -0.2,0.26 -0.07,0.09 -0.14,0.18 -0.2,0.28 -0.06,0.1 -0.11,0.19 -0.16,0.27 -0.05,0.09 -0.09,0.17 -0.12,0.23 0.01,0.09 0.04,0.19 0.07,0.32 0.03,0.13 0.08,0.26 0.13,0.39 0.05,0.13 0.12,0.25 0.2,0.36 0.07,0.11 0.16,0.19 0.27,0.24 0.02,0.01 0.04,0.02 0.05,0.03 0.02,0 0.04,0.01 0.05,0.01 0.03,0 0.06,-0.01 0.09,-0.03 0.01,0 0.03,0 0.03,0.01 0.01,0 0.01,0.02 0.01,0.03 -0.01,0.02 -0.03,0.05 -0.05,0.09 -0.02,0.03 -0.04,0.07 -0.07,0.1 -0.02,0.03 -0.06,0.06 -0.09,0.09 -0.03,0.02 -0.07,0.03 -0.12,0.03 -0.03,0 -0.06,-0.01 -0.09,-0.02 -0.04,-0.01 -0.08,-0.04 -0.12,-0.07 -0.08,-0.07 -0.16,-0.16 -0.22,-0.27 -0.07,-0.11 -0.12,-0.22 -0.16,-0.34 -0.05,-0.11 -0.08,-0.23 -0.11,-0.34 -0.02,-0.11 -0.04,-0.2 -0.06,-0.29 -0.04,0.08 -0.07,0.15 -0.11,0.23 -0.04,0.07 -0.07,0.14 -0.1,0.2 -0.03,0.06 -0.06,0.11 -0.08,0.16 -0.02,0.05 -0.04,0.09 -0.06,0.11l0 0.03c0,0.04 0,0.06 -0.01,0.07 -0.01,0.01 -0.03,0.01 -0.05,0.01 -0.01,0 -0.04,0 -0.07,0 -0.04,-0.01 -0.07,-0.02 -0.1,-0.03 -0.04,-0.02 -0.06,-0.03 -0.09,-0.05 -0.02,-0.02 -0.02,-0.05 -0.02,-0.08 0.01,-0.03 0.03,-0.1 0.05,-0.21 0.02,-0.12 0.04,-0.25 0.07,-0.4 0.03,-0.16 0.05,-0.32 0.08,-0.51 0.03,-0.18 0.07,-0.36 0.1,-0.53 0.03,-0.18 0.06,-0.35 0.09,-0.5 0.02,-0.16 0.05,-0.29 0.06,-0.39 -0.09,0.02 -0.18,0.06 -0.27,0.13 -0.1,0.06 -0.18,0.14 -0.26,0.23 -0.07,0.09 -0.13,0.18 -0.17,0.28 -0.04,0.1 -0.05,0.18 -0.02,0.27 0.01,0.06 0.01,0.09 -0.02,0.09 -0.02,0 -0.04,-0.01 -0.07,-0.04 -0.03,-0.02 -0.05,-0.06 -0.08,-0.1 -0.02,-0.04 -0.04,-0.09 -0.05,-0.15 -0.01,-0.06 -0.01,-0.12 0,-0.18z"/>
   <path id="6" class="fil8" d="M20.09 37.57c0.07,-0.14 0.14,-0.25 0.23,-0.33 0.08,-0.08 0.16,-0.12 0.26,-0.12 0.1,0 0.18,0.04 0.24,0.12 0.05,0.05 0.09,0.13 0.12,0.24 0,-0.03 0.01,-0.06 0.02,-0.09 0.01,-0.03 0.01,-0.05 0.02,-0.07 0.01,-0.02 0.02,-0.03 0.03,-0.04 0.02,-0.01 0.03,-0.01 0.05,-0.01 0.03,0.01 0.06,0.02 0.1,0.03 0.03,0.01 0.06,0.02 0.09,0.04 0.03,0.01 0.06,0.03 0.08,0.05 0.02,0.02 0.04,0.04 0.04,0.06 0,0.02 -0.01,0.06 -0.02,0.11 -0.02,0.06 -0.03,0.13 -0.05,0.21 -0.02,0.09 -0.04,0.19 -0.06,0.3 -0.02,0.11 -0.04,0.21 -0.05,0.31 -0.02,0.1 -0.03,0.18 -0.04,0.25 0,0.08 0.01,0.12 0.02,0.14 0.01,0.01 0.02,0.01 0.03,0.01 0.02,0 0.05,-0.01 0.09,-0.04 0.03,-0.03 0.06,-0.07 0.1,-0.12 0.03,-0.05 0.07,-0.1 0.1,-0.16 0.04,-0.05 0.07,-0.11 0.1,-0.16 0.03,-0.06 0.05,-0.11 0.07,-0.15 0.03,-0.05 0.04,-0.08 0.05,-0.1 0.01,-0.02 0.02,-0.03 0.04,-0.03 0.02,-0.01 0.04,-0.01 0.05,0 0.02,0.01 0.03,0.02 0.02,0.03 0,0.01 0,0.01 0,0.01 -0.02,0.07 -0.06,0.16 -0.11,0.28 -0.05,0.12 -0.11,0.24 -0.17,0.36 -0.07,0.12 -0.15,0.23 -0.23,0.31 -0.08,0.09 -0.16,0.14 -0.25,0.14 -0.17,0 -0.26,-0.15 -0.28,-0.44 -0.1,0.29 -0.24,0.43 -0.42,0.43 -0.09,0 -0.17,-0.02 -0.23,-0.06 -0.06,-0.05 -0.11,-0.1 -0.14,-0.17 -0.04,-0.06 -0.06,-0.14 -0.07,-0.22 -0.01,-0.08 -0.02,-0.16 -0.02,-0.24 0,-0.15 0.02,-0.3 0.05,-0.45 0.03,-0.16 0.08,-0.3 0.14,-0.43zm0.36 1.22c0.06,0 0.1,-0.03 0.14,-0.07 0.04,-0.05 0.08,-0.1 0.1,-0.16 0.03,-0.06 0.05,-0.13 0.07,-0.19 0.02,-0.07 0.03,-0.12 0.04,-0.16 0.01,-0.06 0.01,-0.12 0.02,-0.18 0.01,-0.07 0.02,-0.13 0.04,-0.2 0,-0.16 -0.01,-0.28 -0.03,-0.37 -0.02,-0.08 -0.05,-0.13 -0.09,-0.13 -0.05,0 -0.11,0.04 -0.16,0.11 -0.05,0.06 -0.1,0.16 -0.15,0.29 -0.04,0.11 -0.07,0.23 -0.1,0.36 -0.02,0.13 -0.03,0.24 -0.03,0.35 0,0.02 0,0.06 0,0.1 0,0.03 0.01,0.07 0.02,0.11 0.01,0.04 0.03,0.07 0.05,0.1 0.02,0.02 0.05,0.04 0.08,0.04z"/>
   <path id="7" class="fil8" d="M21.75 37.72c0.03,-0.14 0.05,-0.29 0.08,-0.43 0.03,-0.13 0.05,-0.26 0.08,-0.37 0.02,-0.11 0.05,-0.21 0.07,-0.29 0.02,-0.08 0.03,-0.13 0.04,-0.16 0.01,-0.02 0.02,-0.03 0.03,-0.04 0.02,-0.01 0.03,-0.02 0.05,-0.01 0.03,0.01 0.06,0.02 0.1,0.03 0.03,0.01 0.06,0.02 0.09,0.03 0.03,0.02 0.06,0.04 0.08,0.05 0.02,0.02 0.04,0.05 0.04,0.07 0,0.02 -0.01,0.07 -0.03,0.16 -0.02,0.08 -0.04,0.19 -0.07,0.33 -0.02,0.1 -0.04,0.2 -0.07,0.32 -0.02,0.12 -0.05,0.24 -0.07,0.36 -0.02,0.12 -0.05,0.24 -0.07,0.35 -0.02,0.11 -0.03,0.22 -0.04,0.31 -0.02,0.09 -0.02,0.17 -0.03,0.23 0,0.06 0.01,0.1 0.02,0.11 0,0.01 0,0.01 0.01,0.01 0.02,0 0.05,-0.01 0.09,-0.05 0.04,-0.04 0.08,-0.08 0.13,-0.15 0.05,-0.07 0.1,-0.15 0.15,-0.24 0.05,-0.09 0.1,-0.19 0.14,-0.29 0.01,-0.02 0.03,-0.03 0.05,-0.03 0.02,-0.01 0.04,-0.01 0.05,0 0.02,0.01 0.02,0.02 0.02,0.03 0,0.01 0,0.01 -0.01,0.01 -0.01,0.04 -0.03,0.1 -0.06,0.17 -0.03,0.07 -0.06,0.15 -0.1,0.23 -0.03,0.08 -0.08,0.16 -0.12,0.24 -0.05,0.08 -0.09,0.16 -0.15,0.22 -0.05,0.07 -0.1,0.12 -0.16,0.16 -0.05,0.05 -0.11,0.07 -0.16,0.07 -0.06,0 -0.11,-0.03 -0.15,-0.08 -0.04,-0.05 -0.06,-0.13 -0.08,-0.23 -0.01,-0.1 -0.02,-0.21 -0.02,-0.34 0,-0.12 0.01,-0.25 0.03,-0.39 0.01,-0.13 0.03,-0.26 0.04,-0.39z"/>
   <path id="8" class="fil8" d="M22.56 38.16c0.01,-0.08 0.02,-0.17 0.04,-0.25 0.01,-0.09 0.03,-0.17 0.05,-0.24 0.01,-0.08 0.03,-0.15 0.05,-0.21 0.01,-0.06 0.02,-0.1 0.03,-0.14 0.01,-0.02 0.02,-0.03 0.03,-0.04 0.02,-0.01 0.03,-0.01 0.05,-0.01 0.03,0.01 0.06,0.02 0.1,0.03 0.03,0.01 0.07,0.02 0.1,0.04 0.03,0.01 0.05,0.03 0.08,0.05 0.02,0.02 0.03,0.04 0.03,0.06 0,0.02 -0.01,0.06 -0.02,0.11 -0.01,0.06 -0.03,0.13 -0.04,0.21 -0.02,0.09 -0.04,0.19 -0.06,0.3 -0.03,0.11 -0.05,0.21 -0.06,0.31 -0.02,0.1 -0.03,0.18 -0.03,0.25 -0.01,0.08 0,0.12 0.02,0.14 0.01,0.01 0.01,0.01 0.02,0.01 0.02,0 0.05,-0.02 0.09,-0.05 0.04,-0.04 0.09,-0.09 0.14,-0.15 0.04,-0.07 0.1,-0.15 0.15,-0.24 0.06,-0.09 0.11,-0.18 0.16,-0.29 0.02,-0.03 0.03,-0.05 0.04,-0.05 0.02,0 0.02,0 0.03,0 0.02,0.01 0.03,0.03 0.02,0.05l-0.01 0.02c-0.03,0.08 -0.06,0.18 -0.11,0.31 -0.05,0.12 -0.1,0.24 -0.17,0.35 -0.07,0.11 -0.14,0.21 -0.22,0.29 -0.08,0.09 -0.17,0.13 -0.26,0.13 -0.06,0 -0.1,-0.02 -0.14,-0.05 -0.03,-0.03 -0.06,-0.07 -0.08,-0.12 -0.02,-0.05 -0.04,-0.1 -0.04,-0.15 -0.01,-0.06 -0.01,-0.11 -0.02,-0.15 -0.01,-0.14 0,-0.32 0.03,-0.52zm0.36 -1.54c0.02,-0.06 0.05,-0.1 0.08,-0.1 0.03,-0.01 0.07,-0.01 0.12,0 0.06,0.01 0.1,0.04 0.14,0.09 0.04,0.04 0.06,0.09 0.07,0.14 0,0.01 -0.01,0.01 -0.01,0.01 -0.01,0 -0.02,0.01 -0.03,0.02 -0.01,0.01 -0.02,0.03 -0.03,0.05 -0.02,0.02 -0.03,0.07 -0.04,0.12 0,0 -0.01,0.01 -0.01,0.03 0,0.02 -0.01,0.04 -0.02,0.07 -0.02,0.02 -0.03,0.04 -0.06,0.05 -0.02,0.02 -0.05,0.02 -0.09,0.01 -0.02,-0.01 -0.05,-0.02 -0.08,-0.03 -0.03,-0.02 -0.05,-0.05 -0.07,-0.08 -0.02,-0.04 -0.03,-0.09 -0.02,-0.15 0,-0.06 0.01,-0.13 0.05,-0.23z"/>
   <path id="9" class="fil8" d="M23.16 40.16c0,-0.04 0.01,-0.1 0.02,-0.17 0,-0.08 0.01,-0.16 0.03,-0.25 0.01,-0.09 0.02,-0.18 0.04,-0.28 0.02,-0.1 0.03,-0.2 0.05,-0.3 0.01,-0.1 0.03,-0.19 0.05,-0.27 0.01,-0.09 0.02,-0.16 0.03,-0.22 0.03,-0.15 0.06,-0.3 0.09,-0.45 0.03,-0.15 0.05,-0.28 0.08,-0.4 0.02,-0.13 0.04,-0.23 0.06,-0.32 0.02,-0.09 0.04,-0.14 0.04,-0.17 0.01,-0.02 0.02,-0.03 0.04,-0.04 0.01,-0.01 0.03,-0.01 0.04,-0.01 0.03,0.01 0.07,0.02 0.1,0.03 0.04,0.01 0.07,0.02 0.1,0.04 0.03,0.01 0.05,0.03 0.08,0.05 0.02,0.01 0.03,0.04 0.03,0.06 0,0.01 0,0.01 0,0.03 0,0.01 -0.01,0.03 -0.01,0.05 0.13,-0.28 0.28,-0.42 0.45,-0.42 0.1,0 0.18,0.03 0.24,0.07 0.06,0.04 0.11,0.09 0.14,0.16 0.03,0.07 0.05,0.14 0.06,0.23 0.01,0.08 0.02,0.16 0.02,0.24 0,0.14 -0.02,0.29 -0.05,0.45 -0.03,0.15 -0.08,0.3 -0.14,0.43 -0.07,0.14 -0.14,0.25 -0.23,0.33 -0.08,0.08 -0.16,0.11 -0.25,0.11 -0.07,0 -0.12,-0.01 -0.18,-0.04 -0.05,-0.03 -0.09,-0.07 -0.13,-0.11 -0.03,-0.05 -0.06,-0.1 -0.09,-0.16 -0.02,-0.05 -0.04,-0.11 -0.06,-0.16 -0.03,0.16 -0.06,0.33 -0.09,0.51 -0.03,0.17 -0.06,0.34 -0.09,0.49 -0.03,0.15 -0.05,0.29 -0.07,0.42 -0.01,0.12 -0.02,0.21 -0.02,0.27 0,0.04 0,0.06 -0.01,0.07 -0.01,0.01 -0.03,0.02 -0.05,0.02 -0.08,0 -0.15,-0.03 -0.22,-0.08 -0.06,-0.05 -0.1,-0.12 -0.1,-0.21zm0.7 -1.75c0,0.02 0.01,0.06 0.02,0.12 0.02,0.06 0.04,0.12 0.06,0.18 0.02,0.06 0.04,0.11 0.07,0.15 0.03,0.05 0.06,0.07 0.09,0.07 0.05,0 0.11,-0.03 0.16,-0.1 0.05,-0.07 0.1,-0.16 0.15,-0.29 0.04,-0.11 0.08,-0.23 0.1,-0.36 0.02,-0.13 0.03,-0.25 0.03,-0.36 0,-0.02 0,-0.05 0,-0.09 0,-0.04 -0.01,-0.08 -0.02,-0.12 -0.01,-0.03 -0.03,-0.06 -0.05,-0.09 -0.02,-0.03 -0.05,-0.04 -0.08,-0.04 -0.06,0 -0.11,0.03 -0.16,0.08 -0.05,0.05 -0.1,0.12 -0.14,0.2 -0.05,0.07 -0.08,0.15 -0.11,0.23 -0.04,0.08 -0.06,0.14 -0.08,0.2 0,0.03 -0.01,0.07 -0.02,0.11 0,0.03 -0.01,0.07 -0.02,0.11z"/>
   <path id="10" class="fil8" d="M25.07 38.16c0.01,-0.08 0.02,-0.17 0.04,-0.25 0.01,-0.09 0.03,-0.17 0.04,-0.24 0.02,-0.08 0.03,-0.15 0.05,-0.21 0.01,-0.06 0.03,-0.11 0.04,-0.14 0.02,-0.04 0.04,-0.06 0.09,-0.05 0.03,0.01 0.06,0.02 0.09,0.03 0.04,0.01 0.07,0.02 0.1,0.04 0.03,0.01 0.06,0.03 0.08,0.05 0.02,0.02 0.03,0.04 0.03,0.06 0,0.02 -0.01,0.06 -0.02,0.11 -0.01,0.06 -0.03,0.13 -0.04,0.21 -0.02,0.09 -0.04,0.19 -0.06,0.3 -0.02,0.1 -0.04,0.2 -0.05,0.3 -0.02,0.1 -0.03,0.18 -0.03,0.26 0,0.07 0,0.12 0.01,0.14 0.01,0.01 0.01,0.01 0.02,0.01 0.02,0 0.05,-0.02 0.1,-0.07 0.04,-0.06 0.08,-0.12 0.13,-0.2 0.05,-0.07 0.09,-0.15 0.13,-0.23 0.04,-0.08 0.07,-0.15 0.09,-0.21 0.02,-0.17 0.05,-0.33 0.08,-0.46 0.03,-0.14 0.05,-0.24 0.08,-0.29 0.01,-0.04 0.04,-0.06 0.08,-0.05 0.03,0.01 0.06,0.02 0.1,0.03 0.03,0.01 0.06,0.02 0.09,0.04 0.03,0.01 0.06,0.03 0.08,0.05 0.02,0.02 0.04,0.04 0.04,0.06 0,0.02 -0.01,0.06 -0.02,0.11 -0.01,0.06 -0.03,0.13 -0.05,0.21 -0.02,0.09 -0.04,0.19 -0.06,0.3 -0.03,0.11 -0.05,0.21 -0.06,0.31 -0.02,0.1 -0.03,0.18 -0.03,0.25 0,0.08 0,0.12 0.02,0.14 0.01,0.01 0.02,0.01 0.02,0.01 0.03,0 0.06,-0.02 0.09,-0.05 0.04,-0.04 0.09,-0.09 0.13,-0.15 0.05,-0.07 0.11,-0.15 0.16,-0.24 0.05,-0.09 0.11,-0.18 0.17,-0.29 0.01,-0.03 0.03,-0.05 0.04,-0.05 0.01,0 0.02,0 0.02,0 0.02,0.01 0.03,0.03 0.02,0.05l0 0.01c0,0 0,0.01 0,0.01 -0.04,0.08 -0.09,0.18 -0.14,0.3 -0.04,0.12 -0.1,0.24 -0.16,0.35 -0.06,0.12 -0.13,0.22 -0.21,0.3 -0.07,0.09 -0.16,0.13 -0.25,0.13 -0.07,0 -0.12,-0.02 -0.16,-0.07 -0.05,-0.05 -0.08,-0.12 -0.1,-0.22 -0.02,-0.1 -0.03,-0.22 -0.02,-0.37 -0.02,0.05 -0.05,0.12 -0.08,0.19 -0.04,0.07 -0.08,0.15 -0.12,0.22 -0.05,0.07 -0.1,0.12 -0.16,0.17 -0.06,0.05 -0.12,0.08 -0.18,0.08 -0.06,0 -0.11,-0.02 -0.14,-0.05 -0.04,-0.03 -0.07,-0.07 -0.09,-0.12 -0.02,-0.05 -0.03,-0.1 -0.04,-0.15 -0.01,-0.06 -0.01,-0.11 -0.02,-0.15 0,-0.07 0,-0.15 0,-0.23 0.01,-0.09 0.02,-0.18 0.03,-0.29z"/>
   <path id="11" class="fil8" d="M26.79 38.46c0,-0.15 0.01,-0.3 0.05,-0.45 0.03,-0.16 0.08,-0.3 0.14,-0.43 0.07,-0.15 0.14,-0.26 0.22,-0.33 0.09,-0.08 0.17,-0.12 0.26,-0.12 0.13,0 0.23,0.04 0.29,0.13 0.04,0.05 0.06,0.11 0.07,0.17 0.01,0.06 0.02,0.12 0.02,0.18 -0.01,0.05 -0.01,0.1 -0.02,0.14 -0.01,0.04 -0.01,0.06 -0.01,0.06 0,0 -0.01,0 -0.02,0.01 -0.01,0 -0.03,0.01 -0.04,0.01 -0.02,0.01 -0.03,0.01 -0.05,0.01 -0.01,0 -0.02,0 -0.03,-0.01 -0.01,0 -0.01,-0.01 -0.01,-0.02 0,-0.01 0,-0.03 0.01,-0.05 0,-0.02 0,-0.04 0.01,-0.07 0.01,-0.05 0.02,-0.11 0.03,-0.18 0.01,-0.07 0,-0.11 -0.03,-0.14 -0.01,-0.02 -0.02,-0.03 -0.05,-0.03 -0.05,0 -0.11,0.04 -0.16,0.1 -0.05,0.07 -0.1,0.17 -0.15,0.29 -0.04,0.12 -0.07,0.24 -0.1,0.37 -0.02,0.12 -0.04,0.24 -0.04,0.35 0,0.02 0.01,0.05 0.01,0.09 0,0.04 0.01,0.08 0.02,0.12 0.01,0.04 0.03,0.07 0.05,0.09 0.02,0.03 0.04,0.05 0.08,0.05 0.05,0 0.1,-0.02 0.15,-0.06 0.05,-0.05 0.12,-0.13 0.19,-0.25 0.08,-0.12 0.16,-0.26 0.24,-0.44 0.01,-0.02 0.02,-0.03 0.04,-0.03 0.02,-0.01 0.04,-0.01 0.05,0 0.02,0.01 0.03,0.02 0.02,0.03 0,0.01 0,0.01 0,0.01 -0.02,0.07 -0.06,0.16 -0.11,0.28 -0.05,0.12 -0.11,0.24 -0.18,0.36 -0.06,0.12 -0.14,0.23 -0.22,0.31 -0.08,0.09 -0.17,0.14 -0.25,0.14l-0.01 0c-0.11,0 -0.18,-0.02 -0.21,-0.06 -0.06,-0.03 -0.1,-0.06 -0.13,-0.11 -0.04,-0.05 -0.06,-0.1 -0.08,-0.16 -0.02,-0.06 -0.04,-0.12 -0.04,-0.18 -0.01,-0.06 -0.01,-0.12 -0.01,-0.18z"/>
   <path id="12" class="fil8" d="M28.06 37.57c0.07,-0.14 0.14,-0.25 0.23,-0.33 0.08,-0.08 0.17,-0.12 0.26,-0.12 0.1,0 0.18,0.04 0.24,0.12 0.06,0.05 0.09,0.13 0.12,0.24 0.01,-0.03 0.01,-0.06 0.02,-0.09 0.01,-0.03 0.02,-0.05 0.02,-0.07 0.01,-0.02 0.02,-0.03 0.03,-0.04 0.02,-0.01 0.03,-0.01 0.05,-0.01 0.03,0.01 0.06,0.02 0.1,0.03 0.03,0.01 0.07,0.02 0.1,0.04 0.03,0.01 0.05,0.03 0.08,0.05 0.02,0.02 0.03,0.04 0.03,0.06 0,0.02 -0.01,0.06 -0.02,0.11 -0.01,0.06 -0.03,0.13 -0.04,0.21 -0.02,0.09 -0.04,0.19 -0.06,0.3 -0.03,0.11 -0.05,0.21 -0.06,0.31 -0.02,0.1 -0.03,0.18 -0.03,0.25 -0.01,0.08 0,0.12 0.02,0.14 0.01,0.01 0.01,0.01 0.02,0.01 0.03,0 0.06,-0.01 0.09,-0.04 0.03,-0.03 0.07,-0.07 0.1,-0.12 0.03,-0.05 0.07,-0.1 0.11,-0.16 0.03,-0.05 0.06,-0.11 0.09,-0.16 0.03,-0.06 0.06,-0.11 0.08,-0.15 0.02,-0.05 0.03,-0.08 0.04,-0.1 0.01,-0.02 0.02,-0.03 0.05,-0.03 0.02,-0.01 0.03,-0.01 0.05,0 0.01,0.01 0.02,0.02 0.02,0.03 -0.01,0.01 -0.01,0.01 -0.01,0.01 -0.02,0.07 -0.06,0.16 -0.11,0.28 -0.05,0.12 -0.1,0.24 -0.17,0.36 -0.07,0.12 -0.14,0.23 -0.22,0.31 -0.09,0.09 -0.17,0.14 -0.26,0.14 -0.16,0 -0.26,-0.15 -0.28,-0.44 -0.1,0.29 -0.24,0.43 -0.41,0.43 -0.1,0 -0.18,-0.02 -0.24,-0.06 -0.06,-0.05 -0.11,-0.1 -0.14,-0.17 -0.03,-0.06 -0.06,-0.14 -0.07,-0.22 -0.01,-0.08 -0.02,-0.16 -0.02,-0.24 0,-0.15 0.02,-0.3 0.05,-0.45 0.04,-0.16 0.08,-0.3 0.14,-0.43zm0.37 1.22c0.05,0 0.1,-0.03 0.14,-0.07 0.04,-0.05 0.07,-0.1 0.1,-0.16 0.02,-0.06 0.05,-0.13 0.06,-0.19 0.02,-0.07 0.03,-0.12 0.04,-0.16 0.01,-0.06 0.02,-0.12 0.03,-0.18 0.01,-0.07 0.02,-0.13 0.03,-0.2 0,-0.16 -0.01,-0.28 -0.03,-0.37 -0.02,-0.08 -0.05,-0.13 -0.08,-0.13 -0.06,0 -0.11,0.04 -0.17,0.11 -0.05,0.06 -0.1,0.16 -0.15,0.29 -0.04,0.11 -0.07,0.23 -0.09,0.36 -0.03,0.13 -0.04,0.24 -0.04,0.35 0,0.02 0,0.06 0,0.1 0.01,0.03 0.01,0.07 0.02,0.11 0.01,0.04 0.03,0.07 0.05,0.1 0.02,0.02 0.05,0.04 0.09,0.04z"/>
   <path id="13" class="fil8" d="M29.67 38.16c0.01,-0.1 0.03,-0.2 0.05,-0.29 0.01,-0.09 0.03,-0.18 0.05,-0.25 0.02,-0.08 0.03,-0.15 0.05,-0.2 0.01,-0.06 0.03,-0.1 0.04,-0.13 0.01,-0.03 0.04,-0.05 0.08,-0.04 0.02,0 0.04,0.01 0.07,0.02 0.03,0.01 0.05,0.02 0.08,0.03 0.03,0.02 0.05,0.04 0.07,0.06 0.02,0.02 0.03,0.04 0.03,0.07 0,0.02 -0.01,0.06 -0.02,0.13 -0.01,0.06 -0.03,0.14 -0.04,0.24 -0.02,0.09 -0.03,0.18 -0.05,0.28 -0.01,0.09 -0.03,0.19 -0.04,0.27 -0.01,0.07 -0.02,0.14 -0.02,0.2 0,0.06 -0.01,0.11 -0.01,0.14 0.02,-0.08 0.05,-0.19 0.09,-0.31 0.05,-0.13 0.1,-0.26 0.17,-0.39 0.06,-0.13 0.12,-0.26 0.19,-0.38 0.07,-0.12 0.13,-0.22 0.18,-0.29 0.11,-0.15 0.19,-0.22 0.26,-0.22l0.01 0c0,0 0.01,0 0.01,0 0,0 0,0 0,0 0.03,0.01 0.07,0.01 0.1,0.02 0.04,0.02 0.07,0.03 0.1,0.04 0.03,0.02 0.06,0.04 0.08,0.05 0.02,0.02 0.03,0.05 0.03,0.07 0,0.02 -0.01,0.06 -0.02,0.12 -0.01,0.06 -0.03,0.14 -0.05,0.22 -0.02,0.11 -0.04,0.23 -0.07,0.35 -0.02,0.13 -0.04,0.25 -0.06,0.36 -0.02,0.11 -0.03,0.21 -0.03,0.29 -0.01,0.08 0,0.13 0.02,0.15 0,0.01 0.01,0.01 0.01,0.01 0.03,0 0.06,-0.02 0.1,-0.05 0.04,-0.04 0.08,-0.09 0.13,-0.15 0.05,-0.07 0.1,-0.15 0.16,-0.24 0.06,-0.09 0.11,-0.18 0.16,-0.29 0.02,-0.03 0.03,-0.05 0.04,-0.05 0.01,0 0.02,0 0.03,0 0.02,0.01 0.02,0.03 0.01,0.05l0 0.01c0,0 0,0.01 0,0.01 -0.03,0.08 -0.06,0.18 -0.11,0.31 -0.05,0.12 -0.11,0.24 -0.17,0.35 -0.07,0.11 -0.14,0.21 -0.22,0.29 -0.08,0.09 -0.17,0.13 -0.26,0.13 -0.07,0 -0.12,-0.03 -0.16,-0.08 -0.04,-0.05 -0.07,-0.12 -0.08,-0.21 -0.02,-0.08 -0.03,-0.17 -0.03,-0.27 0,-0.1 0,-0.21 0.01,-0.32 0.01,-0.11 0.02,-0.22 0.04,-0.32 0.01,-0.1 0.03,-0.2 0.05,-0.28 0.01,-0.09 0.03,-0.16 0.04,-0.21 -0.04,0.04 -0.07,0.1 -0.11,0.17 -0.04,0.06 -0.09,0.14 -0.13,0.22 -0.04,0.08 -0.08,0.16 -0.12,0.25 -0.04,0.09 -0.07,0.18 -0.11,0.27 -0.03,0.1 -0.06,0.19 -0.08,0.27 -0.02,0.07 -0.04,0.14 -0.05,0.2 -0.03,0.1 -0.06,0.18 -0.08,0.23 -0.02,0.05 -0.05,0.07 -0.09,0.07 -0.1,0 -0.19,-0.04 -0.25,-0.12 -0.11,-0.15 -0.13,-0.43 -0.08,-0.86z"/>
   <path id="14" class="fil8" d="M31.74 37.57c0.07,-0.14 0.14,-0.25 0.23,-0.33 0.08,-0.08 0.16,-0.12 0.25,-0.12 0.11,0 0.19,0.04 0.25,0.12 0.05,0.05 0.09,0.13 0.12,0.24 0,-0.03 0.01,-0.06 0.02,-0.09 0.01,-0.03 0.02,-0.05 0.02,-0.07 0.01,-0.02 0.02,-0.03 0.03,-0.04 0.02,-0.01 0.03,-0.01 0.05,-0.01 0.02,0.01 0.05,0.01 0.08,0.02 0.03,0.01 0.06,0.02 0.09,0.03 0.03,0.01 0.05,0.02 0.08,0.04 0.02,0.01 0.04,0.03 0.05,0.04 0.01,0.02 0.01,0.04 0.01,0.05 -0.05,0.18 -0.08,0.36 -0.11,0.55 -0.03,0.19 -0.06,0.38 -0.08,0.58l-0.04 0.27c0.08,-0.07 0.17,-0.18 0.27,-0.32 0.1,-0.14 0.19,-0.3 0.28,-0.48 0.02,-0.04 0.05,-0.06 0.08,-0.05 0.02,0.01 0.03,0.03 0.02,0.05 -0.02,0.05 -0.04,0.12 -0.08,0.23 -0.04,0.1 -0.09,0.21 -0.15,0.33 -0.07,0.11 -0.14,0.23 -0.22,0.34 -0.08,0.11 -0.16,0.19 -0.26,0.25 -0.03,0.22 -0.07,0.4 -0.11,0.54 -0.03,0.14 -0.08,0.26 -0.12,0.37 -0.12,0.24 -0.28,0.36 -0.47,0.36l-0.01 0c-0.09,0 -0.17,-0.03 -0.22,-0.08 -0.06,-0.06 -0.09,-0.15 -0.11,-0.26 -0.01,-0.09 -0.01,-0.19 0.02,-0.3 0.02,-0.12 0.06,-0.22 0.11,-0.32 0.07,-0.11 0.14,-0.21 0.24,-0.28 0.09,-0.08 0.19,-0.13 0.3,-0.16 0,-0.04 0.01,-0.08 0.01,-0.12 0,-0.04 0.01,-0.09 0.01,-0.13 -0.09,0.21 -0.22,0.32 -0.36,0.32 -0.1,0 -0.18,-0.02 -0.24,-0.06 -0.06,-0.04 -0.11,-0.1 -0.14,-0.16 -0.04,-0.07 -0.06,-0.15 -0.07,-0.23 -0.01,-0.08 -0.02,-0.16 -0.02,-0.24 0,-0.15 0.02,-0.3 0.05,-0.45 0.03,-0.16 0.08,-0.3 0.14,-0.43zm0.36 1.22c0.05,0 0.1,-0.03 0.14,-0.07 0.04,-0.05 0.07,-0.1 0.1,-0.16 0.03,-0.06 0.05,-0.13 0.07,-0.19 0.02,-0.07 0.03,-0.12 0.04,-0.16 0,-0.01 0,-0.02 0,-0.02 0.01,-0.06 0.02,-0.11 0.03,-0.17 0.01,-0.07 0.02,-0.13 0.03,-0.19 0,-0.16 -0.01,-0.28 -0.03,-0.37 -0.02,-0.08 -0.05,-0.13 -0.09,-0.13 -0.05,0 -0.11,0.04 -0.16,0.11 -0.05,0.06 -0.1,0.16 -0.15,0.29 -0.04,0.11 -0.07,0.23 -0.1,0.36 -0.02,0.13 -0.03,0.24 -0.03,0.35 0,0.02 0,0.06 0,0.1 0,0.03 0.01,0.07 0.02,0.11 0.01,0.04 0.03,0.07 0.05,0.1 0.02,0.02 0.05,0.04 0.08,0.04zm-0.13 1.28l0 0.03 0.01 0c0.05,0 0.09,-0.03 0.13,-0.09 0.04,-0.06 0.07,-0.13 0.1,-0.22 0.03,-0.08 0.05,-0.16 0.06,-0.24 0.02,-0.08 0.03,-0.14 0.04,-0.17 -0.11,0.05 -0.19,0.14 -0.25,0.26 -0.06,0.12 -0.09,0.26 -0.09,0.43z"/>
   <path id="15" class="fil8" d="M34.19 36.98c0.02,-0.07 0.05,-0.14 0.1,-0.21 0.05,-0.07 0.11,-0.14 0.18,-0.2 0.07,-0.06 0.15,-0.12 0.23,-0.18 0.08,-0.05 0.16,-0.1 0.24,-0.14 0.08,-0.04 0.15,-0.07 0.22,-0.09 0.07,-0.02 0.13,-0.03 0.17,-0.03l0.03 0c0.02,0 0.05,0.01 0.08,0.03 0.03,0.02 0.05,0.04 0.07,0.06 0.03,0.02 0.04,0.04 0.06,0.07 0.01,0.02 0.02,0.04 0.01,0.05 -0.05,0.25 -0.1,0.5 -0.15,0.75 -0.06,0.25 -0.11,0.48 -0.16,0.69 -0.04,0.21 -0.08,0.39 -0.1,0.55 -0.02,0.15 -0.03,0.26 -0.02,0.33 0.01,0.03 0.03,0.04 0.05,0.04 0.03,0 0.07,-0.02 0.12,-0.05 0.05,-0.03 0.1,-0.09 0.15,-0.17 0.06,-0.08 0.12,-0.19 0.18,-0.33 0.07,-0.14 0.13,-0.32 0.2,-0.54 0.03,-0.12 0.06,-0.23 0.09,-0.34 0.03,-0.11 0.06,-0.21 0.08,-0.3 0.03,-0.09 0.05,-0.16 0.06,-0.22 0.02,-0.07 0.03,-0.11 0.04,-0.13 0.01,-0.04 0.03,-0.06 0.08,-0.05 0.02,0 0.05,0.01 0.08,0.03 0.03,0.02 0.05,0.04 0.07,0.06 0.02,0.02 0.04,0.05 0.06,0.07 0.01,0.02 0.02,0.04 0.01,0.05 -0.05,0.26 -0.1,0.49 -0.15,0.71 -0.05,0.21 -0.1,0.4 -0.14,0.56 -0.03,0.17 -0.06,0.3 -0.07,0.41 -0.02,0.11 -0.01,0.18 0.01,0.22 0.01,0.02 0.02,0.02 0.04,0.02 0.03,0 0.08,-0.04 0.14,-0.12 0.06,-0.09 0.13,-0.2 0.2,-0.33 0.07,-0.14 0.15,-0.29 0.23,-0.46 0.08,-0.18 0.15,-0.35 0.21,-0.53 0.06,-0.18 0.11,-0.36 0.15,-0.53 0.05,-0.18 0.07,-0.33 0.07,-0.47 0,-0.04 -0.01,-0.08 -0.03,-0.11 -0.02,-0.04 -0.05,-0.06 -0.09,-0.07 -0.01,0 -0.02,-0.01 -0.02,-0.02 -0.01,-0.01 0,-0.02 0.01,-0.03 0.01,-0.01 0.02,-0.02 0.04,-0.03 0.02,0 0.04,-0.01 0.07,-0.01 0.03,-0.01 0.07,-0.01 0.12,-0.01 0.03,0 0.05,0.01 0.08,0.02 0.03,0.02 0.06,0.04 0.09,0.06 0.02,0.02 0.04,0.05 0.06,0.09 0.01,0.03 0.02,0.07 0.02,0.11 0,0.08 -0.01,0.18 -0.03,0.3 -0.03,0.12 -0.06,0.26 -0.1,0.41 -0.04,0.15 -0.09,0.3 -0.15,0.47 -0.06,0.16 -0.13,0.32 -0.2,0.48 -0.08,0.16 -0.15,0.31 -0.23,0.46 -0.09,0.14 -0.17,0.27 -0.26,0.38 -0.09,0.11 -0.18,0.2 -0.27,0.26 -0.1,0.07 -0.19,0.1 -0.28,0.1 0,0 -0.02,-0.01 -0.04,-0.02 -0.03,-0.01 -0.05,-0.02 -0.08,-0.05 -0.03,-0.03 -0.05,-0.07 -0.08,-0.12 -0.02,-0.05 -0.04,-0.12 -0.04,-0.2 0,-0.1 0,-0.2 0.01,-0.32 -0.04,0.1 -0.09,0.19 -0.14,0.28 -0.05,0.08 -0.11,0.16 -0.17,0.22 -0.05,0.07 -0.12,0.12 -0.18,0.15 -0.07,0.04 -0.14,0.06 -0.21,0.06l0 0c-0.01,0 -0.02,-0.01 -0.05,-0.02 -0.02,-0.01 -0.05,-0.02 -0.08,-0.05 -0.02,-0.03 -0.05,-0.07 -0.08,-0.12 -0.02,-0.05 -0.03,-0.12 -0.04,-0.2 0,-0.09 0.01,-0.19 0.02,-0.32 0.02,-0.13 0.04,-0.26 0.06,-0.4 0.03,-0.15 0.06,-0.29 0.09,-0.45 0.03,-0.15 0.07,-0.3 0.1,-0.44 0.04,-0.15 0.07,-0.28 0.1,-0.41 0.04,-0.12 0.06,-0.23 0.09,-0.32 -0.09,0.03 -0.18,0.07 -0.28,0.14 -0.09,0.07 -0.17,0.14 -0.25,0.23 -0.07,0.08 -0.12,0.17 -0.16,0.27 -0.04,0.1 -0.05,0.18 -0.02,0.27 0.01,0.06 0,0.09 -0.04,0.09 -0.02,0 -0.05,-0.01 -0.09,-0.04 -0.04,-0.02 -0.07,-0.05 -0.1,-0.09 -0.03,-0.04 -0.06,-0.09 -0.08,-0.13 -0.02,-0.05 -0.02,-0.1 -0.01,-0.15z"/>
   <path id="16" class="fil8" d="M37.18 38.46c0,-0.09 0.01,-0.2 0.03,-0.31 0.01,-0.11 0.04,-0.22 0.07,-0.33 0.04,-0.11 0.08,-0.21 0.14,-0.31 0.05,-0.1 0.11,-0.18 0.18,-0.25 0.09,-0.08 0.18,-0.13 0.28,-0.13 0.1,0 0.18,0.03 0.25,0.08 0.07,0.05 0.1,0.12 0.11,0.23 0.01,0.08 0,0.17 -0.04,0.28 -0.03,0.1 -0.08,0.2 -0.15,0.29 -0.07,0.1 -0.14,0.18 -0.22,0.24 -0.08,0.06 -0.17,0.1 -0.25,0.11 -0.01,0.2 0.01,0.33 0.08,0.4 0.02,0.02 0.04,0.04 0.08,0.04 0.05,0 0.1,-0.02 0.14,-0.06 0.06,-0.05 0.12,-0.13 0.2,-0.25 0.07,-0.12 0.15,-0.26 0.23,-0.44 0.01,-0.02 0.02,-0.03 0.05,-0.03 0.02,-0.01 0.03,-0.01 0.05,0 0.01,0.01 0.02,0.02 0.01,0.03 0,0.01 0,0.01 0,0.01 -0.01,0.04 -0.03,0.1 -0.06,0.17 -0.03,0.07 -0.06,0.15 -0.1,0.23 -0.04,0.08 -0.08,0.16 -0.12,0.24 -0.05,0.08 -0.1,0.16 -0.15,0.22 -0.05,0.07 -0.1,0.12 -0.16,0.16 -0.05,0.05 -0.11,0.07 -0.17,0.07l0 0c-0.12,0 -0.19,-0.02 -0.22,-0.06 -0.05,-0.03 -0.1,-0.06 -0.13,-0.11 -0.04,-0.05 -0.06,-0.1 -0.08,-0.16 -0.02,-0.06 -0.03,-0.12 -0.04,-0.18 -0.01,-0.06 -0.01,-0.12 -0.01,-0.18zm0.42 -0.26c0.05,-0.02 0.1,-0.05 0.16,-0.12 0.06,-0.06 0.11,-0.14 0.17,-0.24 0.04,-0.09 0.08,-0.17 0.1,-0.25 0.03,-0.09 0.04,-0.15 0.03,-0.2 0,-0.03 -0.02,-0.05 -0.04,-0.05 -0.05,0 -0.09,0.03 -0.14,0.08 -0.04,0.05 -0.08,0.11 -0.12,0.19 -0.03,0.08 -0.07,0.18 -0.09,0.28 -0.03,0.1 -0.06,0.2 -0.07,0.31z"/>
   <path id="17" class="fil8" d="M37.75 36.69c0.01,-0.05 0.03,-0.08 0.06,-0.09 0.01,0 0.02,0 0.03,0 0,0.01 0.01,0.01 0.01,0.02 0.03,0.03 0.07,0.04 0.13,0.05 0.06,0 0.1,0 0.14,0 0.06,0 0.13,0 0.2,0 0.08,-0.01 0.16,-0.02 0.24,-0.03 0.02,-0.07 0.03,-0.14 0.04,-0.19 0.02,-0.06 0.03,-0.1 0.04,-0.12 0.01,-0.04 0.04,-0.06 0.08,-0.05 0.03,0.01 0.06,0.01 0.1,0.03 0.03,0.01 0.06,0.02 0.09,0.03 0.04,0.02 0.06,0.04 0.08,0.06 0.02,0.01 0.03,0.04 0.03,0.06 0,0.01 0,0.02 0,0.04 0,0.02 -0.01,0.05 -0.01,0.08 0.17,-0.04 0.36,-0.06 0.56,-0.09 0.19,-0.02 0.38,-0.03 0.56,-0.03 0.05,0 0.1,0 0.15,0.01 0.06,0 0.11,0.01 0.16,0.03 0.05,0.01 0.09,0.04 0.13,0.07 0.05,0.03 0.08,0.07 0.1,0.12 0.02,0.04 0.04,0.08 0.04,0.12 0,0.03 -0.01,0.07 -0.01,0.09 -0.01,0.05 -0.02,0.08 -0.04,0.11 -0.02,0.03 -0.04,0.04 -0.06,0.04 0,0 0,0 0,0 -0.01,-0.01 -0.01,-0.01 -0.01,-0.02 0.01,-0.01 0.01,-0.01 0,-0.01 -0.06,-0.06 -0.15,-0.11 -0.27,-0.13 -0.12,-0.02 -0.26,-0.04 -0.42,-0.04 -0.12,0 -0.25,0.01 -0.38,0.02 -0.13,0.01 -0.27,0.02 -0.4,0.03 -0.03,0 -0.06,0.01 -0.09,0.01 -0.03,0 -0.06,0 -0.09,0.01 -0.01,0.01 -0.01,0.02 -0.01,0.02 0,0.01 0,0.02 -0.01,0.03 -0.02,0.11 -0.04,0.23 -0.07,0.35 -0.02,0.13 -0.04,0.25 -0.07,0.38 -0.03,0.13 -0.05,0.26 -0.07,0.38 -0.02,0.12 -0.04,0.23 -0.06,0.33 -0.01,0.1 -0.02,0.18 -0.02,0.25 0,0.06 0,0.1 0.01,0.12 0,0 0.01,0 0.01,0 0.03,0 0.06,-0.01 0.09,-0.04 0.04,-0.03 0.07,-0.07 0.1,-0.12 0.04,-0.05 0.07,-0.1 0.11,-0.16 0.03,-0.05 0.07,-0.11 0.1,-0.16 0.02,-0.06 0.05,-0.11 0.07,-0.15 0.02,-0.05 0.04,-0.08 0.05,-0.1 0,-0.02 0.02,-0.03 0.04,-0.03 0.02,-0.01 0.04,-0.01 0.05,0 0.02,0.01 0.03,0.02 0.02,0.03l0 0.01c-0.02,0.07 -0.06,0.16 -0.11,0.28 -0.05,0.12 -0.11,0.24 -0.17,0.36 -0.07,0.12 -0.15,0.23 -0.23,0.31 -0.08,0.09 -0.16,0.14 -0.25,0.14 -0.05,0 -0.1,-0.03 -0.14,-0.08 -0.04,-0.05 -0.07,-0.13 -0.08,-0.24 -0.02,-0.1 -0.02,-0.22 -0.02,-0.35 0,-0.13 0.01,-0.27 0.03,-0.41 0.02,-0.15 0.03,-0.29 0.05,-0.42 0.02,-0.12 0.04,-0.25 0.07,-0.37 0.02,-0.12 0.04,-0.23 0.06,-0.34 -0.13,0.01 -0.26,0.01 -0.37,0 -0.11,-0.01 -0.2,-0.03 -0.28,-0.07 -0.03,-0.01 -0.06,-0.04 -0.07,-0.07 -0.02,-0.04 -0.02,-0.08 -0.02,-0.11z"/>
   <path id="18" class="fil8" d="M39.32 37.57c0.07,-0.14 0.14,-0.25 0.22,-0.33 0.09,-0.08 0.17,-0.12 0.26,-0.12 0.11,0 0.19,0.04 0.25,0.12 0.05,0.05 0.09,0.13 0.12,0.24 0,-0.03 0.01,-0.06 0.02,-0.09 0.01,-0.03 0.01,-0.05 0.02,-0.07 0.01,-0.02 0.02,-0.03 0.03,-0.04 0.02,-0.01 0.03,-0.01 0.05,-0.01 0.03,0.01 0.06,0.02 0.1,0.03 0.03,0.01 0.06,0.02 0.09,0.04 0.03,0.01 0.06,0.03 0.08,0.05 0.02,0.02 0.04,0.04 0.04,0.06 0,0.02 -0.01,0.06 -0.02,0.11 -0.02,0.06 -0.03,0.13 -0.05,0.21 -0.02,0.09 -0.04,0.19 -0.06,0.3 -0.02,0.11 -0.04,0.21 -0.05,0.31 -0.02,0.1 -0.03,0.18 -0.04,0.25 0,0.08 0.01,0.12 0.02,0.14 0.01,0.01 0.02,0.01 0.03,0.01 0.02,0 0.05,-0.01 0.09,-0.04 0.03,-0.03 0.06,-0.07 0.1,-0.12 0.03,-0.05 0.07,-0.1 0.1,-0.16 0.04,-0.05 0.07,-0.11 0.1,-0.16 0.03,-0.06 0.05,-0.11 0.07,-0.15 0.03,-0.05 0.04,-0.08 0.05,-0.1 0.01,-0.02 0.02,-0.03 0.04,-0.03 0.02,-0.01 0.04,-0.01 0.05,0 0.02,0.01 0.03,0.02 0.02,0.03 0,0.01 0,0.01 0,0.01 -0.02,0.07 -0.06,0.16 -0.11,0.28 -0.05,0.12 -0.11,0.24 -0.17,0.36 -0.07,0.12 -0.15,0.23 -0.23,0.31 -0.08,0.09 -0.16,0.14 -0.25,0.14 -0.17,0 -0.26,-0.15 -0.28,-0.44 -0.1,0.29 -0.24,0.43 -0.42,0.43 -0.09,0 -0.17,-0.02 -0.23,-0.06 -0.06,-0.05 -0.11,-0.1 -0.14,-0.17 -0.04,-0.06 -0.06,-0.14 -0.07,-0.22 -0.01,-0.08 -0.02,-0.16 -0.02,-0.24 0,-0.15 0.02,-0.3 0.05,-0.45 0.03,-0.16 0.08,-0.3 0.14,-0.43zm0.36 1.22c0.06,0 0.1,-0.03 0.14,-0.07 0.04,-0.05 0.08,-0.1 0.1,-0.16 0.03,-0.06 0.05,-0.13 0.07,-0.19 0.02,-0.07 0.03,-0.12 0.04,-0.16 0.01,-0.06 0.01,-0.12 0.02,-0.18 0.01,-0.07 0.02,-0.13 0.04,-0.2 0,-0.16 -0.01,-0.28 -0.03,-0.37 -0.02,-0.08 -0.05,-0.13 -0.09,-0.13 -0.05,0 -0.11,0.04 -0.16,0.11 -0.05,0.06 -0.1,0.16 -0.15,0.29 -0.04,0.11 -0.07,0.23 -0.1,0.36 -0.02,0.13 -0.03,0.24 -0.03,0.35 0,0.02 0,0.06 0,0.1 0,0.03 0.01,0.07 0.02,0.11 0.01,0.04 0.03,0.07 0.05,0.1 0.02,0.02 0.05,0.04 0.08,0.04z"/>
   <path id="19" class="fil8" d="M40.93 38.16c0.01,-0.1 0.03,-0.2 0.04,-0.29 0.02,-0.09 0.04,-0.18 0.06,-0.25 0.01,-0.08 0.03,-0.15 0.05,-0.2 0.01,-0.06 0.02,-0.1 0.04,-0.13 0.01,-0.03 0.04,-0.05 0.08,-0.04 0.02,0 0.04,0.01 0.07,0.02 0.02,0.01 0.05,0.02 0.08,0.03 0.02,0.02 0.05,0.04 0.06,0.06 0.02,0.02 0.03,0.04 0.03,0.07 0,0.02 0,0.06 -0.02,0.13 -0.01,0.06 -0.02,0.14 -0.03,0.24 -0.02,0.09 -0.03,0.18 -0.05,0.28 -0.02,0.09 -0.03,0.19 -0.04,0.27 -0.02,0.07 -0.02,0.14 -0.03,0.2 0,0.06 0,0.11 0,0.14 0.01,-0.08 0.04,-0.19 0.09,-0.31 0.05,-0.13 0.1,-0.26 0.16,-0.39 0.06,-0.13 0.13,-0.26 0.2,-0.38 0.07,-0.12 0.13,-0.22 0.18,-0.29 0.1,-0.15 0.19,-0.22 0.26,-0.22l0.01 0c0,0 0,0 0,0 0.01,0 0.01,0 0.01,0 0.03,0.01 0.06,0.01 0.1,0.02 0.03,0.02 0.07,0.03 0.1,0.04 0.03,0.02 0.05,0.04 0.07,0.05 0.03,0.02 0.04,0.05 0.04,0.07 0,0.02 -0.01,0.06 -0.02,0.12 -0.01,0.06 -0.03,0.14 -0.05,0.22 -0.02,0.11 -0.04,0.23 -0.07,0.35 -0.02,0.13 -0.04,0.25 -0.06,0.36 -0.02,0.11 -0.03,0.21 -0.03,0.29 -0.01,0.08 0,0.13 0.01,0.15 0.01,0.01 0.02,0.01 0.02,0.01 0.03,0 0.06,-0.02 0.1,-0.05 0.04,-0.04 0.08,-0.09 0.13,-0.15 0.05,-0.07 0.1,-0.15 0.16,-0.24 0.05,-0.09 0.11,-0.18 0.16,-0.29 0.01,-0.03 0.03,-0.05 0.04,-0.05 0.01,0 0.02,0 0.02,0 0.02,0.01 0.03,0.03 0.02,0.05l0 0.01c0,0 0,0.01 0,0.01 -0.03,0.08 -0.07,0.18 -0.12,0.31 -0.04,0.12 -0.1,0.24 -0.17,0.35 -0.06,0.11 -0.13,0.21 -0.21,0.29 -0.09,0.09 -0.17,0.13 -0.26,0.13 -0.07,0 -0.12,-0.03 -0.16,-0.08 -0.04,-0.05 -0.07,-0.12 -0.09,-0.21 -0.01,-0.08 -0.02,-0.17 -0.02,-0.27 0,-0.1 0,-0.21 0.01,-0.32 0.01,-0.11 0.02,-0.22 0.04,-0.32 0.01,-0.1 0.03,-0.2 0.04,-0.28 0.02,-0.09 0.03,-0.16 0.04,-0.21 -0.03,0.04 -0.07,0.1 -0.11,0.17 -0.04,0.06 -0.08,0.14 -0.12,0.22 -0.04,0.08 -0.08,0.16 -0.12,0.25 -0.04,0.09 -0.08,0.18 -0.11,0.27 -0.03,0.1 -0.06,0.19 -0.08,0.27 -0.02,0.07 -0.04,0.14 -0.06,0.2 -0.03,0.1 -0.05,0.18 -0.07,0.23 -0.02,0.05 -0.05,0.07 -0.09,0.07 -0.11,0 -0.19,-0.04 -0.25,-0.12 -0.11,-0.15 -0.14,-0.43 -0.08,-0.86z"/>
  </g>
 </g>
</svg>
