<?xml version="1.0" encoding="UTF-8"?>
<!DOCTYPE svg PUBLIC "-//W3C//DTD SVG 1.1//EN" "http://www.w3.org/Graphics/SVG/1.1/DTD/svg11.dtd">
<!-- Creator: CorelDRAW 2017 -->
<svg xmlns="http://www.w3.org/2000/svg" xml:space="preserve" width="738px" height="738px" version="1.1" style="shape-rendering:geometricPrecision; text-rendering:geometricPrecision; image-rendering:optimizeQuality; fill-rule:evenodd; clip-rule:evenodd"
viewBox="0 0 62.29 62.29"
 xmlns:xlink="http://www.w3.org/1999/xlink">
 <defs>
  <style type="text/css">
   <![CDATA[
    .fil0 {fill:none}
    .fil7 {fill:#EE7B27}
    .fil6 {fill:#EE7B26}
    .fil9 {fill:#E4692E}
    .fil3 {fill:#E46924}
    .fil4 {fill:#C7602A}
    .fil11 {fill:black;fill-rule:nonzero}
    .fil10 {fill:#FF6600;fill-rule:nonzero}
    .fil5 {fill:url(#id0)}
    .fil1 {fill:url(#id1)}
    .fil8 {fill:url(#id2)}
    .fil2 {fill:url(#id3)}
   ]]>
  </style>
  <linearGradient id="id0" gradientUnits="userSpaceOnUse" x1="30.6" y1="24.63" x2="34.19" y2="38.02">
   <stop offset="0" style="stop-opacity:1; stop-color:#C7602A"/>
   <stop offset="0.301961" style="stop-opacity:1; stop-color:#E4692E"/>
   <stop offset="0.521569" style="stop-opacity:1; stop-color:#E4692E"/>
   <stop offset="0.701961" style="stop-opacity:1; stop-color:#E4692E"/>
   <stop offset="1" style="stop-opacity:1; stop-color:#C7602A"/>
  </linearGradient>
  <linearGradient id="id1" gradientUnits="userSpaceOnUse" x1="12.88" y1="28.93" x2="14.09" y2="32.26">
   <stop offset="0" style="stop-opacity:1; stop-color:#E4692E"/>
   <stop offset="1" style="stop-opacity:1; stop-color:#C7602A"/>
  </linearGradient>
  <linearGradient id="id2" gradientUnits="userSpaceOnUse" x1="50.19" y1="10.65" x2="56.73" y2="6.88">
   <stop offset="0" style="stop-opacity:1; stop-color:#EE7B27"/>
   <stop offset="1" style="stop-opacity:1; stop-color:#CF6531"/>
  </linearGradient>
  <linearGradient id="id3" gradientUnits="userSpaceOnUse" x1="14.49" y1="32.55" x2="15.7" y2="35.88">
   <stop offset="0" style="stop-opacity:1; stop-color:#E46524"/>
   <stop offset="1" style="stop-opacity:1; stop-color:#C7602A"/>
  </linearGradient>
 </defs>
 <g id="Layer_x0020_1">
  <metadata id="CorelCorpID_0Corel-Layer"/>
  <g id="_2127759923632">
   <rect class="fil0" width="62.29" height="62.29"/>
   <path class="fil1" d="M14.65 25.19c-1.76,-3.62 -8,-2.06 -6.53,2.63l4.53 10.17 6.41 -2.9 -4.41 -9.9z"/>
   <path class="fil2" d="M16.27 28.82c-1.77,-3.62 -8,-2.06 -6.53,2.62l3.24 7.28 6.54 -2.6 -3.25 -7.3z"/>
   <path class="fil3" d="M45.66 7.46l1.97 0.43c-1.02,2.5 -1.95,4.92 -2.91,7.21l-2.03 -2.35c1.18,-1.15 2.99,-3.77 2.97,-5.29z"/>
   <path class="fil4" d="M45.66 7.46c0,1.52 -1.71,4.08 -2.97,5.29 -0.1,-1.53 1.86,-5.27 2.97,-5.29z"/>
   <polygon class="fil5" points="33.36,22.54 26.68,24.75 31.37,40.11 38.12,38.13 "/>
   <path class="fil6" d="M32.91 21.06l1.53 5.03c-2.49,-2.37 -4.89,-0.8 -6.85,4.09l-5.11 13.33c-1.02,2.75 -5.8,3.52 -7.37,0l-4.27 -9.59c1.87,2.25 6.74,2.36 8.07,-0.76l4.65 -12.1c1.58,-4.27 7.96,-4.53 9.35,0z"/>
   <path class="fil7" d="M59.29 11.65c-1.11,-3.06 -4.38,-2.98 -5.45,-0.34l-12.92 31.97c-0.63,1.93 -6.34,5.07 -8.55,0.08l-2.72 -8.88c3.19,4.99 6.29,2.88 7.9,-1.62l10.08 -24.97c3.85,-4.45 11.64,-0.76 11.66,3.76z"/>
   <path class="fil8" d="M59.29 11.65c-1.11,-3.06 -4.38,-2.98 -5.45,-0.34l-0.94 2.34 -4.63 -5.07 -0.64 -0.69c3.85,-4.45 11.64,-0.76 11.66,3.76z"/>
   <circle class="fil9" cx="6.61" cy="17.65" r="3.6"/>
   <path class="fil10" d="M24.3 53.14l-0.97 -2.97 -0.99 2.97c-0.08,0.23 -0.14,0.39 -0.18,0.49 -0.05,0.1 -0.13,0.19 -0.24,0.26 -0.11,0.08 -0.26,0.12 -0.45,0.12 -0.15,0 -0.27,-0.02 -0.37,-0.07 -0.1,-0.05 -0.17,-0.11 -0.23,-0.2 -0.06,-0.08 -0.11,-0.18 -0.15,-0.3 -0.04,-0.11 -0.07,-0.22 -0.11,-0.32l-1 -3.34c-0.06,-0.19 -0.09,-0.34 -0.09,-0.44 0,-0.13 0.06,-0.24 0.17,-0.33 0.1,-0.08 0.24,-0.13 0.4,-0.13 0.23,0 0.37,0.06 0.45,0.18 0.08,0.12 0.14,0.29 0.2,0.51l0.79 2.9 0.89 -2.71c0.06,-0.21 0.12,-0.37 0.17,-0.48 0.05,-0.11 0.14,-0.2 0.26,-0.28 0.12,-0.08 0.28,-0.12 0.48,-0.12 0.2,0 0.36,0.04 0.48,0.13 0.11,0.08 0.19,0.17 0.23,0.27 0.05,0.09 0.11,0.25 0.18,0.48l0.89 2.71 0.79 -2.9c0.04,-0.15 0.08,-0.27 0.11,-0.36 0.03,-0.08 0.09,-0.16 0.18,-0.23 0.08,-0.06 0.2,-0.1 0.36,-0.1 0.16,0 0.29,0.05 0.41,0.13 0.11,0.09 0.16,0.2 0.16,0.33 0,0.09 -0.03,0.24 -0.09,0.44l-1 3.34c-0.07,0.23 -0.13,0.39 -0.17,0.5 -0.05,0.1 -0.12,0.19 -0.23,0.27 -0.11,0.08 -0.26,0.12 -0.46,0.12 -0.19,0 -0.34,-0.04 -0.45,-0.12 -0.11,-0.07 -0.19,-0.16 -0.23,-0.25 -0.05,-0.1 -0.11,-0.26 -0.19,-0.5z"/>
   <path id="1" class="fil10" d="M29.92 49.49l0 1.74 2.4 -2.06c0.11,-0.1 0.21,-0.17 0.29,-0.22 0.08,-0.04 0.19,-0.07 0.32,-0.07 0.18,0 0.32,0.05 0.43,0.13 0.11,0.08 0.16,0.19 0.16,0.31 0,0.15 -0.09,0.29 -0.27,0.44l-1.49 1.15 1.71 2.02c0.12,0.14 0.21,0.26 0.27,0.37 0.06,0.1 0.09,0.2 0.09,0.3 0,0.11 -0.05,0.21 -0.16,0.29 -0.1,0.08 -0.24,0.12 -0.42,0.12 -0.17,0 -0.31,-0.03 -0.42,-0.09 -0.11,-0.06 -0.2,-0.14 -0.27,-0.24 -0.07,-0.1 -0.14,-0.19 -0.2,-0.27l-1.44 -1.82 -1 0.78 0 1.03c0,0.21 -0.06,0.36 -0.17,0.46 -0.12,0.1 -0.27,0.15 -0.45,0.15 -0.1,0 -0.2,-0.02 -0.3,-0.07 -0.09,-0.04 -0.17,-0.1 -0.22,-0.18 -0.04,-0.06 -0.06,-0.14 -0.07,-0.22 -0.01,-0.08 -0.01,-0.2 -0.01,-0.36l0 -3.69c0,-0.2 0.05,-0.35 0.16,-0.45 0.11,-0.11 0.26,-0.16 0.44,-0.16 0.19,0 0.34,0.05 0.45,0.15 0.11,0.1 0.17,0.26 0.17,0.46z"/>
   <path id="2" class="fil10" d="M39.95 53.14l-0.97 -2.97 -0.99 2.97c-0.08,0.23 -0.14,0.39 -0.18,0.49 -0.05,0.1 -0.13,0.19 -0.24,0.26 -0.11,0.08 -0.26,0.12 -0.45,0.12 -0.15,0 -0.27,-0.02 -0.37,-0.07 -0.1,-0.05 -0.18,-0.11 -0.24,-0.2 -0.06,-0.08 -0.11,-0.18 -0.14,-0.3 -0.04,-0.11 -0.08,-0.22 -0.11,-0.32l-1 -3.34c-0.06,-0.19 -0.09,-0.34 -0.09,-0.44 0,-0.13 0.05,-0.24 0.16,-0.33 0.11,-0.08 0.25,-0.13 0.41,-0.13 0.22,0 0.37,0.06 0.45,0.18 0.08,0.12 0.14,0.29 0.2,0.51l0.79 2.9 0.88 -2.71c0.07,-0.21 0.13,-0.37 0.18,-0.48 0.05,-0.11 0.14,-0.2 0.26,-0.28 0.11,-0.08 0.27,-0.12 0.48,-0.12 0.2,0 0.36,0.04 0.48,0.13 0.11,0.08 0.19,0.17 0.23,0.27 0.04,0.09 0.1,0.25 0.18,0.48l0.89 2.71 0.79 -2.9c0.04,-0.15 0.07,-0.27 0.11,-0.36 0.03,-0.08 0.09,-0.16 0.17,-0.23 0.09,-0.06 0.21,-0.1 0.37,-0.1 0.16,0 0.29,0.05 0.4,0.13 0.11,0.09 0.17,0.2 0.17,0.33 0,0.09 -0.03,0.24 -0.09,0.44l-1 3.34c-0.07,0.23 -0.13,0.39 -0.17,0.5 -0.05,0.1 -0.13,0.19 -0.23,0.27 -0.11,0.08 -0.26,0.12 -0.46,0.12 -0.19,0 -0.34,-0.04 -0.45,-0.12 -0.11,-0.07 -0.19,-0.16 -0.23,-0.25 -0.05,-0.1 -0.11,-0.26 -0.19,-0.5z"/>
   <polygon class="fil11" points="15.34,57.69 14.86,55.68 15.28,55.68 15.58,57.06 15.95,55.68 16.43,55.68 16.78,57.08 17.09,55.68 17.5,55.68 17.01,57.69 16.58,57.69 16.18,56.19 15.78,57.69 "/>
   <path id="1" class="fil11" d="M17.89 56.68l-0.35 -0.06c0.04,-0.14 0.11,-0.25 0.2,-0.32 0.1,-0.06 0.24,-0.1 0.43,-0.1 0.17,0 0.3,0.02 0.39,0.06 0.08,0.04 0.14,0.1 0.17,0.16 0.04,0.06 0.05,0.18 0.05,0.34l0 0.45c0,0.13 0.01,0.22 0.02,0.29 0.01,0.06 0.03,0.12 0.07,0.19l-0.39 0c-0.01,-0.03 -0.02,-0.06 -0.03,-0.11 -0.01,-0.03 -0.01,-0.04 -0.02,-0.05 -0.06,0.07 -0.13,0.12 -0.21,0.15 -0.07,0.03 -0.15,0.05 -0.24,0.05 -0.15,0 -0.26,-0.04 -0.35,-0.13 -0.09,-0.08 -0.13,-0.18 -0.13,-0.3 0,-0.09 0.02,-0.16 0.06,-0.22 0.04,-0.07 0.09,-0.12 0.17,-0.15 0.07,-0.04 0.17,-0.07 0.3,-0.09 0.18,-0.04 0.31,-0.07 0.38,-0.1l0 -0.03c0,-0.08 -0.02,-0.13 -0.06,-0.17 -0.04,-0.03 -0.11,-0.04 -0.21,-0.04 -0.07,0 -0.12,0.01 -0.16,0.04 -0.04,0.03 -0.07,0.07 -0.09,0.14zm0.52 0.31c-0.05,0.02 -0.13,0.04 -0.24,0.06 -0.11,0.03 -0.18,0.05 -0.21,0.07 -0.05,0.04 -0.07,0.08 -0.07,0.14 0,0.05 0.02,0.1 0.06,0.14 0.04,0.03 0.09,0.05 0.15,0.05 0.07,0 0.14,-0.02 0.2,-0.06 0.05,-0.04 0.08,-0.08 0.09,-0.13 0.01,-0.03 0.02,-0.1 0.02,-0.19l0 -0.08z"/>
   <path id="2" class="fil11" d="M19.53 57.69l-0.38 0 0 -1.46 0.35 0 0 0.21c0.07,-0.1 0.12,-0.16 0.17,-0.19 0.05,-0.03 0.1,-0.05 0.17,-0.05 0.08,0 0.17,0.03 0.25,0.07l-0.12 0.34c-0.06,-0.04 -0.12,-0.06 -0.18,-0.06 -0.05,0 -0.1,0.01 -0.14,0.04 -0.03,0.03 -0.06,0.09 -0.09,0.16 -0.02,0.08 -0.03,0.24 -0.03,0.49l0 0.45z"/>
   <path id="3" class="fil11" d="M20.92 56.23l0 0.31 -0.26 0 0 0.59c0,0.12 0,0.19 0.01,0.21 0,0.02 0.01,0.03 0.03,0.05 0.02,0.01 0.04,0.02 0.07,0.02 0.03,0 0.08,-0.02 0.15,-0.04l0.03 0.3c-0.09,0.04 -0.19,0.06 -0.3,0.06 -0.07,0 -0.13,-0.01 -0.19,-0.04 -0.05,-0.02 -0.09,-0.05 -0.12,-0.09 -0.03,-0.04 -0.04,-0.09 -0.05,-0.15 -0.01,-0.05 -0.02,-0.14 -0.02,-0.27l0 -0.64 -0.17 0 0 -0.31 0.17 0 0 -0.29 0.39 -0.22 0 0.51 0.26 0z"/>
   <path id="4" class="fil11" d="M21.48 56.68l-0.35 -0.06c0.04,-0.14 0.11,-0.25 0.2,-0.32 0.1,-0.06 0.24,-0.1 0.43,-0.1 0.17,0 0.3,0.02 0.38,0.06 0.09,0.04 0.15,0.1 0.18,0.16 0.04,0.06 0.05,0.18 0.05,0.34l0 0.45c0,0.13 0,0.22 0.02,0.29 0.01,0.06 0.03,0.12 0.07,0.19l-0.39 0c-0.01,-0.03 -0.02,-0.06 -0.03,-0.11 -0.01,-0.03 -0.01,-0.04 -0.02,-0.05 -0.06,0.07 -0.13,0.12 -0.21,0.15 -0.07,0.03 -0.15,0.05 -0.24,0.05 -0.15,0 -0.26,-0.04 -0.35,-0.13 -0.09,-0.08 -0.13,-0.18 -0.13,-0.3 0,-0.09 0.02,-0.16 0.06,-0.22 0.04,-0.07 0.09,-0.12 0.16,-0.15 0.08,-0.04 0.18,-0.07 0.31,-0.09 0.18,-0.04 0.31,-0.07 0.37,-0.1l0 -0.03c0,-0.08 -0.01,-0.13 -0.05,-0.17 -0.04,-0.03 -0.11,-0.04 -0.21,-0.04 -0.07,0 -0.12,0.01 -0.16,0.04 -0.04,0.03 -0.07,0.07 -0.09,0.14zm0.51 0.31c-0.04,0.02 -0.12,0.04 -0.23,0.06 -0.11,0.03 -0.18,0.05 -0.21,0.07 -0.05,0.04 -0.07,0.08 -0.07,0.14 0,0.05 0.02,0.1 0.06,0.14 0.04,0.03 0.09,0.05 0.15,0.05 0.07,0 0.13,-0.02 0.2,-0.06 0.04,-0.04 0.08,-0.08 0.09,-0.13 0.01,-0.03 0.01,-0.1 0.01,-0.19l0 -0.08z"/>
   <polygon id="5" class="fil11" points="23.54,57.69 23.54,55.68 23.95,55.68 23.95,56.57 24.77,55.68 25.31,55.68 24.56,56.46 25.35,57.69 24.83,57.69 24.28,56.75 23.95,57.08 23.95,57.69 "/>
   <path id="6" class="fil11" d="M25.85 56.68l-0.35 -0.06c0.04,-0.14 0.11,-0.25 0.2,-0.32 0.1,-0.06 0.24,-0.1 0.43,-0.1 0.17,0 0.3,0.02 0.38,0.06 0.09,0.04 0.15,0.1 0.18,0.16 0.04,0.06 0.05,0.18 0.05,0.34l0 0.45c0,0.13 0,0.22 0.02,0.29 0.01,0.06 0.03,0.12 0.06,0.19l-0.38 0c-0.01,-0.03 -0.02,-0.06 -0.03,-0.11 -0.01,-0.03 -0.02,-0.04 -0.02,-0.05 -0.06,0.07 -0.13,0.12 -0.21,0.15 -0.07,0.03 -0.15,0.05 -0.24,0.05 -0.15,0 -0.26,-0.04 -0.35,-0.13 -0.09,-0.08 -0.13,-0.18 -0.13,-0.3 0,-0.09 0.02,-0.16 0.06,-0.22 0.04,-0.07 0.09,-0.12 0.16,-0.15 0.07,-0.04 0.18,-0.07 0.31,-0.09 0.18,-0.04 0.3,-0.07 0.37,-0.1l0 -0.03c0,-0.08 -0.01,-0.13 -0.05,-0.17 -0.04,-0.03 -0.11,-0.04 -0.21,-0.04 -0.07,0 -0.12,0.01 -0.16,0.04 -0.04,0.03 -0.07,0.07 -0.09,0.14zm0.51 0.31c-0.05,0.02 -0.12,0.04 -0.23,0.06 -0.11,0.03 -0.18,0.05 -0.21,0.07 -0.05,0.04 -0.08,0.08 -0.08,0.14 0,0.05 0.02,0.1 0.06,0.14 0.05,0.03 0.1,0.05 0.16,0.05 0.07,0 0.13,-0.02 0.2,-0.06 0.04,-0.04 0.07,-0.08 0.09,-0.13 0.01,-0.03 0.01,-0.1 0.01,-0.19l0 -0.08z"/>
   <polygon id="7" class="fil11" points="27.12,57.69 27.12,55.68 27.51,55.68 27.51,57.69 "/>
   <path id="8" class="fil11" d="M27.9 56.04l0 -0.36 0.39 0 0 0.36 -0.39 0zm0 1.65l0 -1.46 0.39 0 0 1.46 -0.39 0z"/>
   <path id="9" class="fil11" d="M28.67 56.23l0.36 0 0 0.22c0.05,-0.08 0.11,-0.14 0.19,-0.18 0.08,-0.05 0.17,-0.07 0.26,-0.07 0.17,0 0.32,0.07 0.44,0.2 0.11,0.13 0.17,0.32 0.17,0.56 0,0.24 -0.06,0.43 -0.18,0.56 -0.11,0.14 -0.26,0.21 -0.43,0.21 -0.08,0 -0.15,-0.02 -0.22,-0.05 -0.06,-0.03 -0.13,-0.09 -0.2,-0.17l0 0.73 -0.39 0 0 -2.01zm0.38 0.71c0,0.16 0.03,0.28 0.1,0.36 0.06,0.08 0.14,0.12 0.23,0.12 0.09,0 0.17,-0.04 0.23,-0.11 0.06,-0.07 0.09,-0.19 0.09,-0.35 0,-0.16 -0.03,-0.27 -0.1,-0.34 -0.06,-0.08 -0.13,-0.11 -0.22,-0.11 -0.1,0 -0.17,0.03 -0.24,0.1 -0.06,0.08 -0.09,0.19 -0.09,0.33z"/>
   <path id="10" class="fil11" d="M31.36 57.69l0 -0.22c-0.05,0.08 -0.12,0.14 -0.21,0.19 -0.09,0.04 -0.18,0.07 -0.27,0.07 -0.1,0 -0.19,-0.02 -0.27,-0.07 -0.07,-0.04 -0.13,-0.1 -0.17,-0.18 -0.03,-0.08 -0.05,-0.19 -0.05,-0.32l0 -0.93 0.39 0 0 0.67c0,0.21 0,0.33 0.02,0.38 0.01,0.05 0.04,0.08 0.08,0.11 0.03,0.03 0.08,0.04 0.14,0.04 0.07,0 0.12,-0.02 0.18,-0.05 0.05,-0.04 0.08,-0.08 0.1,-0.14 0.02,-0.05 0.03,-0.18 0.03,-0.39l0 -0.62 0.39 0 0 1.46 -0.36 0z"/>
   <path id="11" class="fil11" d="M33.38 56.67l-0.38 0.06c-0.01,-0.07 -0.04,-0.13 -0.08,-0.17 -0.05,-0.04 -0.11,-0.05 -0.18,-0.05 -0.1,0 -0.17,0.03 -0.23,0.1 -0.06,0.06 -0.09,0.17 -0.09,0.33 0,0.17 0.03,0.29 0.09,0.37 0.06,0.07 0.14,0.1 0.23,0.1 0.08,0 0.14,-0.02 0.18,-0.06 0.05,-0.04 0.08,-0.11 0.1,-0.22l0.38 0.07c-0.04,0.17 -0.11,0.3 -0.22,0.39 -0.12,0.09 -0.26,0.14 -0.45,0.14 -0.22,0 -0.39,-0.07 -0.51,-0.2 -0.13,-0.14 -0.19,-0.33 -0.19,-0.56 0,-0.25 0.06,-0.43 0.19,-0.57 0.13,-0.13 0.3,-0.2 0.51,-0.2 0.18,0 0.32,0.04 0.43,0.12 0.1,0.07 0.18,0.19 0.22,0.35z"/>
   <path id="12" class="fil11" d="M33.96 56.68l-0.35 -0.06c0.04,-0.14 0.11,-0.25 0.21,-0.32 0.09,-0.06 0.23,-0.1 0.42,-0.1 0.18,0 0.3,0.02 0.39,0.06 0.08,0.04 0.14,0.1 0.17,0.16 0.04,0.06 0.06,0.18 0.06,0.34l-0.01 0.45c0,0.13 0.01,0.22 0.02,0.29 0.01,0.06 0.03,0.12 0.07,0.19l-0.38 0c-0.01,-0.03 -0.03,-0.06 -0.04,-0.11 -0.01,-0.03 -0.01,-0.04 -0.01,-0.05 -0.07,0.07 -0.14,0.12 -0.22,0.15 -0.07,0.03 -0.15,0.05 -0.23,0.05 -0.15,0 -0.27,-0.04 -0.36,-0.13 -0.08,-0.08 -0.13,-0.18 -0.13,-0.3 0,-0.09 0.02,-0.16 0.06,-0.22 0.04,-0.07 0.1,-0.12 0.17,-0.15 0.07,-0.04 0.17,-0.07 0.3,-0.09 0.18,-0.04 0.31,-0.07 0.38,-0.1l0 -0.03c0,-0.08 -0.02,-0.13 -0.06,-0.17 -0.03,-0.03 -0.1,-0.04 -0.21,-0.04 -0.06,0 -0.12,0.01 -0.16,0.04 -0.03,0.03 -0.07,0.07 -0.09,0.14zm0.52 0.31c-0.05,0.02 -0.13,0.04 -0.24,0.06 -0.1,0.03 -0.17,0.05 -0.21,0.07 -0.05,0.04 -0.07,0.08 -0.07,0.14 0,0.05 0.02,0.1 0.06,0.14 0.04,0.03 0.09,0.05 0.15,0.05 0.07,0 0.14,-0.02 0.2,-0.06 0.05,-0.04 0.08,-0.08 0.09,-0.13 0.01,-0.03 0.02,-0.1 0.02,-0.19l0 -0.08z"/>
   <path id="13" class="fil11" d="M36.56 57.69l-0.38 0 0 -0.74c0,-0.16 -0.01,-0.26 -0.03,-0.31 -0.02,-0.04 -0.04,-0.08 -0.08,-0.1 -0.04,-0.03 -0.08,-0.04 -0.13,-0.04 -0.07,0 -0.13,0.02 -0.19,0.05 -0.05,0.04 -0.09,0.09 -0.11,0.15 -0.02,0.06 -0.02,0.17 -0.02,0.33l0 0.66 -0.39 0 0 -1.46 0.36 0 0 0.22c0.12,-0.17 0.29,-0.25 0.48,-0.25 0.08,0 0.16,0.02 0.23,0.05 0.07,0.03 0.13,0.07 0.16,0.12 0.04,0.04 0.07,0.1 0.08,0.16 0.01,0.06 0.02,0.14 0.02,0.26l0 0.9z"/>
   <path id="14" class="fil11" d="M36.91 57.78l0.45 0.06c0,0.05 0.02,0.08 0.05,0.1 0.03,0.03 0.09,0.05 0.17,0.05 0.1,0 0.17,-0.02 0.23,-0.05 0.03,-0.02 0.06,-0.05 0.07,-0.1 0.01,-0.03 0.02,-0.09 0.02,-0.17l0 -0.22c-0.11,0.16 -0.26,0.24 -0.44,0.24 -0.19,0 -0.35,-0.08 -0.46,-0.25 -0.09,-0.13 -0.14,-0.29 -0.14,-0.49 0,-0.24 0.06,-0.43 0.18,-0.55 0.12,-0.13 0.26,-0.2 0.44,-0.2 0.18,0 0.33,0.08 0.45,0.24l0 -0.21 0.35 0 0 1.31c0,0.17 -0.01,0.3 -0.04,0.38 -0.03,0.09 -0.07,0.16 -0.12,0.2 -0.05,0.05 -0.12,0.09 -0.2,0.12 -0.09,0.03 -0.2,0.04 -0.33,0.04 -0.24,0 -0.42,-0.04 -0.52,-0.13 -0.11,-0.08 -0.16,-0.19 -0.16,-0.32 0,-0.01 0,-0.03 0,-0.05zm0.35 -0.85c0,0.16 0.03,0.27 0.09,0.34 0.06,0.07 0.13,0.11 0.22,0.11 0.09,0 0.17,-0.04 0.24,-0.11 0.06,-0.08 0.1,-0.18 0.1,-0.33 0,-0.15 -0.04,-0.26 -0.1,-0.33 -0.06,-0.08 -0.14,-0.11 -0.23,-0.11 -0.09,0 -0.17,0.03 -0.23,0.1 -0.06,0.08 -0.09,0.19 -0.09,0.33z"/>
   <polygon id="15" class="fil11" points="39.73,57.69 39.25,55.68 39.67,55.68 39.97,57.06 40.34,55.68 40.82,55.68 41.17,57.08 41.48,55.68 41.89,55.68 41.4,57.69 40.97,57.69 40.57,56.19 40.17,57.69 "/>
   <path id="16" class="fil11" d="M42.89 57.23l0.38 0.06c-0.05,0.15 -0.12,0.25 -0.23,0.33 -0.11,0.07 -0.24,0.11 -0.4,0.11 -0.25,0 -0.44,-0.09 -0.56,-0.25 -0.1,-0.13 -0.15,-0.3 -0.15,-0.5 0,-0.25 0.07,-0.44 0.19,-0.57 0.13,-0.14 0.29,-0.21 0.48,-0.21 0.22,0 0.39,0.07 0.51,0.22 0.13,0.14 0.19,0.36 0.18,0.66l-0.96 0c0,0.11 0.03,0.2 0.09,0.26 0.06,0.07 0.14,0.1 0.22,0.1 0.06,0 0.11,-0.02 0.15,-0.05 0.05,-0.03 0.08,-0.09 0.1,-0.16zm0.02 -0.39c0,-0.11 -0.03,-0.2 -0.09,-0.26 -0.05,-0.05 -0.12,-0.08 -0.2,-0.08 -0.08,0 -0.15,0.03 -0.2,0.09 -0.06,0.06 -0.08,0.14 -0.08,0.25l0.57 0z"/>
   <path id="17" class="fil11" d="M44.27 56.23l0 0.31 -0.26 0 0 0.59c0,0.12 0,0.19 0.01,0.21 0,0.02 0.01,0.03 0.03,0.05 0.02,0.01 0.04,0.02 0.07,0.02 0.03,0 0.08,-0.02 0.15,-0.04l0.03 0.3c-0.09,0.04 -0.19,0.06 -0.3,0.06 -0.07,0 -0.13,-0.01 -0.19,-0.04 -0.05,-0.02 -0.09,-0.05 -0.12,-0.09 -0.03,-0.04 -0.04,-0.09 -0.05,-0.15 -0.01,-0.05 -0.02,-0.14 -0.02,-0.27l0 -0.64 -0.17 0 0 -0.31 0.17 0 0 -0.29 0.39 -0.22 0 0.51 0.26 0z"/>
   <path id="18" class="fil11" d="M44.83 56.68l-0.35 -0.06c0.04,-0.14 0.11,-0.25 0.2,-0.32 0.1,-0.06 0.24,-0.1 0.43,-0.1 0.17,0 0.3,0.02 0.39,0.06 0.08,0.04 0.14,0.1 0.17,0.16 0.04,0.06 0.05,0.18 0.05,0.34l0 0.45c0,0.13 0,0.22 0.02,0.29 0.01,0.06 0.03,0.12 0.07,0.19l-0.39 0c-0.01,-0.03 -0.02,-0.06 -0.03,-0.11 -0.01,-0.03 -0.01,-0.04 -0.02,-0.05 -0.06,0.07 -0.13,0.12 -0.21,0.15 -0.07,0.03 -0.15,0.05 -0.24,0.05 -0.15,0 -0.26,-0.04 -0.35,-0.13 -0.09,-0.08 -0.13,-0.18 -0.13,-0.3 0,-0.09 0.02,-0.16 0.06,-0.22 0.04,-0.07 0.09,-0.12 0.17,-0.15 0.07,-0.04 0.17,-0.07 0.3,-0.09 0.18,-0.04 0.31,-0.07 0.38,-0.1l0 -0.03c0,-0.08 -0.02,-0.13 -0.06,-0.17 -0.04,-0.03 -0.11,-0.04 -0.21,-0.04 -0.07,0 -0.12,0.01 -0.16,0.04 -0.04,0.03 -0.07,0.07 -0.09,0.14zm0.52 0.31c-0.05,0.02 -0.13,0.04 -0.24,0.06 -0.11,0.03 -0.18,0.05 -0.21,0.07 -0.05,0.04 -0.07,0.08 -0.07,0.14 0,0.05 0.02,0.1 0.06,0.14 0.04,0.03 0.09,0.05 0.15,0.05 0.07,0 0.14,-0.02 0.2,-0.06 0.04,-0.04 0.08,-0.08 0.09,-0.13 0.01,-0.03 0.02,-0.1 0.02,-0.19l0 -0.08z"/>
   <path id="19" class="fil11" d="M47.43 57.69l-0.39 0 0 -0.74c0,-0.16 0,-0.26 -0.02,-0.31 -0.02,-0.04 -0.04,-0.08 -0.08,-0.1 -0.04,-0.03 -0.08,-0.04 -0.14,-0.04 -0.06,0 -0.12,0.02 -0.18,0.05 -0.05,0.04 -0.09,0.09 -0.11,0.15 -0.02,0.06 -0.03,0.17 -0.03,0.33l0 0.66 -0.38 0 0 -1.46 0.35 0 0 0.22c0.13,-0.17 0.29,-0.25 0.49,-0.25 0.08,0 0.16,0.02 0.23,0.05 0.07,0.03 0.13,0.07 0.16,0.12 0.04,0.04 0.06,0.1 0.08,0.16 0.01,0.06 0.02,0.14 0.02,0.26l0 0.9z"/>
  </g>
 </g>
</svg>
