<svg xmlns="http://www.w3.org/2000/svg" width="88.348" height="88.355" viewBox="0 0 88.348 88.355"><g transform="translate(-0.018)"><g transform="translate(0.018)"><g transform="translate(0)"><path d="M86.09,27.805a7.775,7.775,0,0,0-10.983,0L67.319,35.6V15.087A7.714,7.714,0,0,0,65.045,9.6L57.724,2.274A7.714,7.714,0,0,0,52.233,0H7.784A7.774,7.774,0,0,0,.018,7.766V80.589a7.774,7.774,0,0,0,7.766,7.766h51.77a7.774,7.774,0,0,0,7.766-7.766V57.574L86.09,38.788A7.761,7.761,0,0,0,86.09,27.805ZM51.789,5.177a2.825,2.825,0,0,1,2.274.758l7.321,7.322a2.825,2.825,0,0,1,.758,2.274H51.789ZM62.142,80.589a2.591,2.591,0,0,1-2.589,2.589H7.784A2.591,2.591,0,0,1,5.2,80.589V7.766A2.591,2.591,0,0,1,7.784,5.177H46.611V18.12A2.589,2.589,0,0,0,49.2,20.708H62.142V40.782l-7.637,7.644-3.659,3.659a2.589,2.589,0,0,0-.625,1.012L46.56,64.078a2.589,2.589,0,0,0,3.274,3.274l10.982-3.661a2.586,2.586,0,0,0,1.012-.625l.314-.314ZM56.337,53.915,60,57.576l-1.4,1.4L53.109,60.8l1.83-5.491Zm7.321,0L60,50.253,72.44,37.8,76.1,41.46ZM82.429,35.128,79.76,37.8,76.1,34.138l2.669-2.672a2.588,2.588,0,1,1,3.66,3.662Z" transform="translate(-0.018)" fill="#219536"/></g></g><g transform="translate(9.044 26.092)"><path d="M93.865,150H62.274a2.256,2.256,0,1,0,0,4.513H93.865a2.256,2.256,0,0,0,0-4.513Z" transform="translate(-60.018 -150)" fill="#219536"/></g><g transform="translate(9.044 36.529)"><path d="M84.839,210H62.274a2.256,2.256,0,0,0,0,4.513H84.839a2.256,2.256,0,1,0,0-4.513Z" transform="translate(-60.018 -210)" fill="#219536"/></g><g transform="translate(9.044 46.965)"><path d="M84.839,270H62.274a2.256,2.256,0,1,0,0,4.513H84.839a2.256,2.256,0,1,0,0-4.513Z" transform="translate(-60.018 -270)" fill="#219536"/></g><g transform="translate(9.044 57.402)"><path d="M84.839,330H62.274a2.256,2.256,0,1,0,0,4.513H84.839a2.256,2.256,0,1,0,0-4.513Z" transform="translate(-60.018 -330)" fill="#219536"/></g><g transform="translate(32.3 74.816)"><path d="M195.814,422H182.275a2.256,2.256,0,1,0,0,4.513h13.539a2.256,2.256,0,0,0,0-4.513Z" transform="translate(-180.018 -422)" fill="#219536"/></g></g></svg>