<svg xmlns="http://www.w3.org/2000/svg" width="179.308" height="268.762" viewBox="0 0 179.308 268.762"><g transform="translate(0 0)"><path d="M1610.764,3045s-20.343,2.788-33.984,9.252c-13.641,6.435-6.139,14.768-6.139,14.768h40.123V3045Z" transform="translate(-1522.022 -2954.707)" fill="#f9dbc1" fill-rule="evenodd"/><path d="M2059.241,3104.03c-4.122.86-9.074,2.046-13.967,3.588a3.658,3.658,0,0,1,1.631,2.105c.593,2.936-5.071,5.16-5.6,9.223-.356,2.61-.8,4.033.623,7.3h23.16c-2.461-5.9-4.063-10.29-4.152-13.582a33.327,33.327,0,0,0-1.661-8.659Z" transform="translate(-1980.375 -3011.957)" fill="#e8b69c" fill-rule="evenodd"/><path d="M2991,3045s20.343,2.788,33.984,9.252c13.641,6.435,6.138,14.768,6.138,14.768H2991V3045Z" transform="translate(-2902.258 -2954.707)" fill="#f9dbc1" fill-rule="evenodd"/><path d="M3176.723,3114c4.122.89,8.956,2.105,13.7,3.618a3.22,3.22,0,0,0-1.246,1.839c-.919,4.6,9.341,4.834,4.686,16.518H3171c2.461-5.9,4.063-10.29,4.152-13.582A33.725,33.725,0,0,1,3176.723,3114Z" transform="translate(-3076.92 -3021.661)" fill="#e8b69c" fill-rule="evenodd"/><path d="M2408.628,2496l-.445,9.282v21.885c0,1.394,1.453,3.41,4,5.16-2.224,2.165-6.405,16.7-10.646,19.661h-15.9c-4.24-3-8.392-17.5-10.646-19.661,2.55-1.75,4-3.766,4-5.16v-21.885l-.445-9.282s7.384,1.186,15.035,2.876C2401.215,2497.186,2408.628,2496,2408.628,2496Z" transform="translate(-2304.525 -2421.988)" fill="#eb6b5d" fill-rule="evenodd"/><path d="M1139.886,3486l-36.386,15.865h0a254.71,254.71,0,0,0-5.1,50.769l.8,12.336c.237,3.351.474,6.583.741,9.7l.148,6.287s-2.58,49.4-1.987,51.51c.623,2.135,5.575,7.177,5.575,7.177q-.311,2-.623,4.27c8.926,3.351,25.5,7.68,51.421,7.473,25.948.208,42.5-4.122,51.421-7.473-.237-1.483-.445-2.936-.623-4.27,0,0,4.952-5.071,5.575-7.177.623-2.135-1.987-51.51-1.987-51.51l.148-6.287c.237-3.114.474-6.346.741-9.7l.8-12.336a254.71,254.71,0,0,0-5.1-50.769h0l-36.386-14.056C1169.066,3504.92,1139.886,3507.322,1139.886,3486Z" transform="translate(-1065.408 -3382.629)" fill="#000518" fill-rule="evenodd"/><path d="M1527.04,3486,1497,3499.078c13.374,14.146,26.245,26.63,26.245,26.63l4.893,4.359s-1.127-21.292-1.364-23.783c-.148-1.512,2.758-5.456,5.071-8.363-2.876-2.491-4.834-6.406-4.834-11.921Zm-4.774,164.643h0c-1.068-2.817.593-5.338,5.931-6.672,19.9-4.893,23.516-12.692,23.516-19.424v-41.813c0-7.414-3.232-10.32-8.541-10.32H1519s-22.182-22.241,3.559-22.241c25.711,0,29.655.652,29.655-3.707s.237-28.38.979-30.693c.712-2.343,3.885-7.888,3.143-8.689-.356-.385-5.457-3.381-10.616-6.346,5.723-1.483,10.557-6.02,10.557-12.959l36.386,14.056h0a254.7,254.7,0,0,1,5.1,50.769l-.8,12.336c-.237,3.351-.475,6.583-.741,9.7l-.148,6.287s2.58,49.4,1.987,51.51c-.623,2.135-5.575,7.177-5.575,7.177q.311,2,.623,4.27c-8.926,3.351-25.5,7.681-51.421,7.473-7.147.059-13.612-.237-19.365-.741Z" transform="translate(-1452.562 -3382.629)" fill="#01010e" fill-rule="evenodd"/><path d="M2242.185,3486l-8.185,3.559a22.88,22.88,0,0,0,5.872,13.107c8.778,9.43,24.673,9.223,33.688.237a20.931,20.931,0,0,0,5.961-11.921l-8.155-3.143c0,17.111-29.18,19.513-29.18-1.809Z" transform="translate(-2167.707 -3382.629)" fill="#fff" fill-rule="evenodd"/><path d="M2242.185,3486l-8.185,3.559a22.88,22.88,0,0,0,5.872,13.107,21.67,21.67,0,0,0,2.432,2.224,39.041,39.041,0,0,1,4.715-6.969C2244.142,3495.43,2242.185,3491.516,2242.185,3486Zm27.52,19.958h0a22.545,22.545,0,0,0,3.855-3.084,20.932,20.932,0,0,0,5.961-11.921l-8.155-3.144c0,6.939-4.834,11.476-10.557,12.959C2264.278,3502.755,2267.718,3504.742,2269.7,3505.958Z" transform="translate(-2167.707 -3382.629)" fill="#e2edf2" fill-rule="evenodd"/><path d="M3434.593,3868.416c18.386-1.038,30.752-4.418,38.018-7.147-.237-1.483-.445-2.936-.623-4.27,0,0,4.952-5.071,5.575-7.177.623-2.135-1.987-51.51-1.987-51.51l.148-6.287c.237-3.114.475-6.346.741-9.7l.8-12.336a254.706,254.706,0,0,0-5.1-50.769h0l-21-9.223c-5.071,8.719-15.094,27.816-15.658,43.237l-1.512,2.7V3868.3l.623.148Z" transform="translate(-3332.121 -3599.987)" fill="#fff" fill-rule="evenodd"/><path d="M3701.127,3868.734c13.849-1.453,23.575-4.181,29.684-6.494-.237-1.483-.445-2.936-.623-4.27,0,0,4.952-5.071,5.575-7.177.623-2.135-1.987-51.51-1.987-51.51l.148-6.287.03-.415c-5.516-14.946.237-26.1-2.728-34.1,3.5-.979-1.957-4.448,3.529-6.287a237.929,237.929,0,0,0-4.389-31.968h0l-21-9.223c-1.6,2.728-3.677,6.494-5.782,10.854,5.99,5.368,12.307,15.51,12.633,34.459v1.423h0c.178,18.327,1.423,61.089.059,75.827-1.72,18.564-6.939,30.841-15.51,33.273-1.068.3-.83.979.385,1.927Z" transform="translate(-3590.321 -3600.957)" fill="#fbe9dd" fill-rule="evenodd"/><path d="M3682.925,8677.557a117.572,117.572,0,0,0,27.787-6.286c-.237-1.483-.445-2.937-.623-4.271a131.586,131.586,0,0,1-26.422,4.893c-6.643.475-4.6,3.084-.712,5.635Z" transform="translate(-3570.193 -8409.988)" fill="#01010e" fill-rule="evenodd"/><path d="M3460.847,3501.794s-25.266,24.88-25.74,45.313c0,0-.03,2.105-1.246,2.194v-10.26c0-3.588-.385-17.882,6.2-27.342s6.02-16.962,1.394-18.445l4.626-2.254,14.768,10.765Z" transform="translate(-3331.982 -3387.481)" fill="#f9dbc1" fill-rule="evenodd"/><path d="M3438.11,3531.924a39.5,39.5,0,0,0-4,15.183s-.03,2.105-1.246,2.194v-10.26c0-3.588-.385-17.882,6.2-27.342s6.02-16.962,1.394-18.445l4.626-2.254,3.618,2.639c1.068,3,.474,7.621-4.982,15.776-5.13,7.68-7.473,16.221-5.635,22.478Z" transform="translate(-3331.012 -3387.481)" fill="#e8b69c" fill-rule="evenodd"/><path d="M1118.827,3868.416c-18.386-1.038-30.752-4.418-38.017-7.147.237-1.483.445-2.936.623-4.27,0,0-4.952-5.071-5.575-7.177-.623-2.135,1.987-51.51,1.987-51.51l-.148-6.287c-.237-3.114-.474-6.346-.741-9.7l-.8-12.336a254.706,254.706,0,0,1,5.1-50.769h0l21-9.223c5.071,8.719,15.094,27.816,15.658,43.237l1.512,2.7V3868.3l-.623.148Z" transform="translate(-1043.815 -3599.987)" fill="#fff" fill-rule="evenodd"/><path d="M1110.494,4945.958c-13.849-1.453-23.576-4.182-29.684-6.495.237-1.482.445-2.936.623-4.27,0,0-4.952-5.071-5.575-7.177-.623-2.135,1.987-51.51,1.987-51.51l-.148-6.287-.03-.415a309.908,309.908,0,0,0,13.167-48.219s.326-1.513,1.127,1.067,1.661,69.541,3.381,88.134c1.72,18.563,6.939,30.841,15.509,33.272,1.068.3.83.979-.385,1.928Z" transform="translate(-1043.815 -4678.182)" fill="#fbe9dd" fill-rule="evenodd"/><path d="M1638,3501.794s25.266,24.88,25.74,45.313c0,0,.03,2.105,1.245,2.194v-10.26c0-3.588.385-17.882-6.2-27.342s-6.02-16.962-1.394-18.445l-4.626-2.254L1638,3501.765Z" transform="translate(-1589.381 -3387.481)" fill="#f9dbc1" fill-rule="evenodd"/><path d="M2049.234,3532.525a37.925,37.925,0,0,1,3.292,13.582s.03,2.105,1.245,2.194v-10.26c0-3.588.385-17.882-6.2-27.342s-6.02-16.962-1.394-18.445l-4.626-2.254-1.6,1.156c-3.618,5.694,1.038,12.485,4.211,17.259,5.575,8.363,7.859,17.7,5.041,24.05Z" transform="translate(-1978.136 -3386.51)" fill="#e8b69c" fill-rule="evenodd"/><path d="M1272.786,8677.557a117.569,117.569,0,0,1-27.786-6.286c.237-1.483.445-2.937.623-4.271a131.04,131.04,0,0,0,26.422,4.893c6.643.475,4.6,3.084.712,5.635Z" transform="translate(-1208.035 -8409.988)" fill="#01010e" fill-rule="evenodd"/><path d="M4322.357,3990.164s7.414,28.765,19.928,48.723c3.885,6.2,9.193,11.061,14.026,10.053,36.417-7.5-10.765-96.912-28.943-103.94,0,0-15.865,1.424-5.042,45.164Z" transform="translate(-4190.438 -3828.018)" fill="#fbe9dd" fill-rule="evenodd"/><path d="M4491,4983.542c.593,1.987,1.364,4.537,2.343,7.443a265.28,265.28,0,0,1,29.536-20.521c-1.1-2.195-2.253-4.359-3.44-6.465A281.68,281.68,0,0,0,4491,4983.542Zm4.745,14.442h0a278.356,278.356,0,0,1,30.307-20.937q1.556,3.336,2.936,6.762a263.422,263.422,0,0,0-30.485,21.321c-.979-2.461-1.9-4.863-2.729-7.146Z" transform="translate(-4357.776 -4816.799)" fill="#75523d" fill-rule="evenodd"/><g transform="translate(52.59 57.821)"><path d="M1780.086,1950c-.208.03-.445.03-.652.059h0a8.794,8.794,0,1,0,7.206,2.254c.059,2.61-.563,5.783-3.885,5.872l.415-5.041A3,3,0,0,0,1780.086,1950Z" transform="translate(-1771.898 -1950)" fill="#e8675b" fill-rule="evenodd"/><path d="M3837.18,2087.482a4.808,4.808,0,0,1,.623.148h0a8.776,8.776,0,1,1-7.443,1.275c-.385,2.58-.178,5.812,3.084,6.346l.237-5.071a3.034,3.034,0,0,1,3.469-2.728Z" transform="translate(-3765.709 -2083.36)" fill="#e8675b" fill-rule="evenodd"/></g><path d="M2104.686,540.939a30.169,30.169,0,0,0-31.968,28.053l-1.779,27.312a30.089,30.089,0,0,0,60.051,3.914l1.779-27.312a30.169,30.169,0,0,0-28.053-31.968Z" transform="translate(-2009.42 -524.842)" fill="#f4ac85" fill-rule="evenodd"/><path d="M2152.353,540.939a30.169,30.169,0,0,0-31.968,28.053l-.385,6.02,4.952,2.343.208,1.483a11,11,0,0,1,7.414-3.559c4.715-.267,24.317-1.1,29-.89,4.715.208,6.524,1.423,8.185,5.486,1.69,4.063,2.965,6.05,2.7,9.4s.326,5.545,1.483,6.761c0,0-.5,35.5-32.828,31.315a28.47,28.47,0,0,0,5.545.89,30.169,30.169,0,0,0,31.968-28.053l1.779-27.312a30.169,30.169,0,0,0-28.053-31.968Z" transform="translate(-2057.087 -524.842)" fill="#ef8770" fill-rule="evenodd"/><g transform="translate(70.165 55.391)"><g transform="translate(12.96 23.624)"><path d="M2801.615,2665.913a7.781,7.781,0,1,0,15.48,1.6h0a1.357,1.357,0,0,0-1.186-1.483l-12.781-1.334a1.357,1.357,0,0,0-1.483,1.186h0Z" transform="translate(-2801.573 -2664.688)" fill="#fff" fill-rule="evenodd"/><path d="M2879,2856.824a7.788,7.788,0,0,0,8.9,1.483,4.819,4.819,0,0,0-4.122-3.321A4.921,4.921,0,0,0,2879,2856.824Z" transform="translate(-2876.704 -2849.282)" fill="#fff" fill-rule="evenodd"/><path d="M2893.624,2671.246l-12.01-1.246c-.326,1.3.148,2.728,1.008,3.114,1.038.475,9.757,1.156,10.468.534a4.9,4.9,0,0,0,.563-2.373Z" transform="translate(-2879.139 -2669.843)" fill="#fff" fill-rule="evenodd"/></g><g transform="translate(0 16.917)"><path d="M3511.829,2534.558a3.958,3.958,0,1,0,3.618,4.27A3.955,3.955,0,0,0,3511.829,2534.558Z" transform="translate(-3473.649 -2531.698)" fill="#e8675b" fill-rule="evenodd"/><path d="M2368.829,2438.559a3.957,3.957,0,1,0,3.618,4.27A3.954,3.954,0,0,0,2368.829,2438.559Z" transform="translate(-2364.545 -2438.545)" fill="#e8675b" fill-rule="evenodd"/></g><path d="M2434.543,1870.88a1.063,1.063,0,1,1-.83-1.957,10,10,0,0,1,9.371.652,1.065,1.065,0,0,1-1.216,1.75A7.9,7.9,0,0,0,2434.543,1870.88Z" transform="translate(-2431.031 -1868.064)" fill="#01010e" fill-rule="evenodd"/><path d="M3484.978,1939.48a7.75,7.75,0,0,0-7.325-.5,1.09,1.09,0,0,1-1.453-.474,1.048,1.048,0,0,1,.474-1.423,10.01,10.01,0,0,1,9.371.563,1.063,1.063,0,1,1-1.068,1.839Z" transform="translate(-3443.121 -1934.144)" fill="#01010e" fill-rule="evenodd"/><g transform="translate(3.567 6.636)"><path d="M3560.8,2160.834h0a2.613,2.613,0,0,1,2.432,2.758l-.208,3.381a2.612,2.612,0,0,1-2.758,2.432h0a2.612,2.612,0,0,1-2.432-2.758l.208-3.381A2.613,2.613,0,0,1,3560.8,2160.834Z" transform="translate(-3526.01 -2158.783)" fill="#01010e" fill-rule="evenodd"/><path d="M2487.8,2091.835h0a2.612,2.612,0,0,0-2.758,2.432l-.208,3.381a2.612,2.612,0,0,0,2.432,2.758h0a2.612,2.612,0,0,0,2.758-2.432l.208-3.381A2.612,2.612,0,0,0,2487.8,2091.835Z" transform="translate(-2484.83 -2091.83)" fill="#01010e" fill-rule="evenodd"/></g></g><path d="M2061.055,526.776c-3.232-.208-9.578.919-9.994,7.384s-1.987,11.506-6.109,11.239c0,0-.148,2.224-.326,5.071-.178,2.817-.652,5.664-3.321,5.516.385-6.079-1.3-8.6-1.3-8.6s.534-8.155.979-15.272c.474-7.117,3.084-16.577,12.87-22.508a36.3,36.3,0,0,1,41.042,2.669c8.926,7.176,10.29,16.874,9.845,23.991-.475,7.117-1.008,15.272-1.008,15.272s-2.017,2.283-2.4,8.363c-2.669-.178-2.758-3.054-2.58-5.9.178-2.817.326-5.071.326-5.071-4.122-.267-5.011-5.456-4.6-11.921s-5.723-8.392-8.956-8.6l-24.495-1.6Z" transform="translate(-1979.46 -489.535)" fill="#0f162f" fill-rule="evenodd"/><path d="M3682.608,865c3.47,3.826,7.592,8.481,7.977,9.756.5,1.631-.563,5.19-1.245,7.354-2.283,7.117-5.694,16.636-5.694,16.636-4.122-.267-5.011-5.456-4.6-11.921.3-4.774-3-7.087-6.05-8.036l.326-13.078,9.252-.712Z" transform="translate(-3564.033 -839.354)" fill="#000518" fill-rule="evenodd"/><path d="M2078.3,759.03c-3.944,3.351-8.6,7.443-9.193,8.63-.712,1.542-.119,5.219.267,7.443,1.334,7.354,3.5,17.229,3.5,17.229,4.122.267,5.664-4.774,6.109-11.239.326-4.774,3.885-6.643,7.028-7.206L2087.4,760.9l-9.074-1.9Z" transform="translate(-2007.381 -736.498)" fill="#000518" fill-rule="evenodd"/><path d="M4890.961,6083.056s6.85-1.72,7.977-1.127,7.977,10.824,9.282,14.116,2.165,17.763.267,21.055-8.066,7.977-13.167,7.266c-5.1-.682-13.937-2.7-15.509-4.062-1.572-1.394-2.847-7.443-1.928-12.485.89-5.012,13.107-24.792,13.107-24.792Z" transform="translate(-4732.886 -5901.456)" fill="#fff" fill-rule="evenodd"/><path d="M4429.16,5214.52l-5.16,5.635s15.688,48.07,17.259,50.887,8.926,5.931,13.167,2.432,7.028-12.277,7.058-16.992-7.977-15.361-15.687-32.383-16.637-9.549-16.637-9.549Z" transform="translate(-4292.763 -5058.334)" fill="#f4ac85" fill-rule="evenodd"/><path d="M4429.16,5214.52l-5.16,5.635s15.688,48.07,17.259,50.887,8.926,5.931,13.167,2.432c2.461-2.016,4.418-5.812,5.634-9.549-4.27,7.71-13.285,6.969-15.45,5.279s-8.629-30.871-8.155-32.472,5.4-6.287,7.5-6.287,7.384,4.923,7.384,4.923h0c-1.779-3.381-3.677-7.147-5.545-11.269-7.71-17.022-16.637-9.549-16.637-9.549Z" transform="translate(-4292.763 -5058.334)" fill="#ef8770" fill-rule="evenodd"/><path d="M3974.372,4413.031l-2.372,1.275a18.64,18.64,0,0,0,.741,3.144c.563,1.868.682,3.914,1.157,8.125s.445,6.554,4.359,10.735c3.915,4.211,12.277,9.7,13.938,10.053s5.427.208,9.46-3.41c4-3.618,10.735-10.083,14.145-13.256a36.756,36.756,0,0,0,4.863-5.278l-5.13-4.418s-1.927,1.186-2.788.771c-.89-.415.771-2.58.771-2.58l-.5-10.854s-.474.237-.623-.178,2.788-4.211,3.025-5.16l-41.012,11.031Z" transform="translate(-3854.167 -4271.465)" fill="#ef8770" fill-rule="evenodd"/><path d="M4962.309,3843.646s2.876-2.046,3.914-1.9c1.038.178,4.567,2.432,4.537,4.152s-1.127,8.1-5.041,9.667S4962.309,3843.646,4962.309,3843.646Z" transform="translate(-4815.087 -3727.821)" fill="#f4ac85" fill-rule="evenodd"/><path d="M3989.323,3955.907a.484.484,0,0,0-.415.5l1.038,9.46a.484.484,0,0,0,.5.415h0a.484.484,0,0,0,.415-.5l-1.038-9.46A.484.484,0,0,0,3989.323,3955.907Z" transform="translate(-3870.57 -3838.599)" fill="#5d6277" fill-rule="evenodd"/><path d="M4031.323,4340.907a.484.484,0,0,0-.415.5l.415,3.766a.462.462,0,1,0,.919-.089l-.415-3.766A.484.484,0,0,0,4031.323,4340.907Z" transform="translate(-3911.324 -4212.182)" fill="#5d6277" fill-rule="evenodd"/><path d="M4052.323,4524.907a.484.484,0,0,0-.415.5l.415,3.766a.462.462,0,0,0,.919-.089l-.415-3.766A.484.484,0,0,0,4052.323,4524.907Z" transform="translate(-3931.702 -4390.725)" fill="#5d6277" fill-rule="evenodd"/><path d="M3994.9,3607.038l25.414-2.788a4.171,4.171,0,0,1,4.567,3.648l5.931,54.149a4.171,4.171,0,0,1-3.648,4.567l-25.414,2.788a4.171,4.171,0,0,1-4.567-3.647l-5.931-54.15A4.171,4.171,0,0,1,3994.9,3607.038Z" transform="translate(-3872.824 -3497.35)" fill="#01010e" fill-rule="evenodd"/><path d="M4057.193,3764.527l26.778-2.936a1.8,1.8,0,0,1,1.987,1.6l5.1,46.647a1.8,1.8,0,0,1-1.6,1.987l-26.778,2.936a1.8,1.8,0,0,1-1.987-1.6l-5.1-46.647A1.8,1.8,0,0,1,4057.193,3764.527Z" transform="translate(-3935.268 -3650.036)" fill="#c6e2f0" fill-rule="evenodd"/><path d="M4531.9,5568.052l11.18-1.216a1.238,1.238,0,0,1,.267,2.461l-11.18,1.216a1.209,1.209,0,0,1-1.334-1.1,1.254,1.254,0,0,1,1.1-1.364Z" transform="translate(-4396.427 -5401.754)" fill="#0f162f" fill-rule="evenodd"/><path d="M4414.423,3712.512l6.85-.741a.747.747,0,1,1,.178,1.483l-6.851.741a.747.747,0,0,1-.178-1.483Z" transform="translate(-4282.831 -3601.698)" fill="#0f162f" fill-rule="evenodd"/><path d="M3974.123,4654.083s4.745-.148,5.812.237,1.839,2.105,1.631,5.575-2.966,3.736-5.4,3.647c-2.432-.06-4.745-3.055-4.952-4.626S3972.166,4654.053,3974.123,4654.083Z" transform="translate(-3853.383 -4516.046)" fill="#f4ac85" fill-rule="evenodd"/><path d="M5099.626,4206.191s-3.262,2.165-3.885,3.38a4.383,4.383,0,0,0,.445,4.152,4.458,4.458,0,0,0,3.8,2.046,8.9,8.9,0,0,0,4.8-2.906c.623-.979,1.423-2.046.415-3.647S5101.346,4205,5099.626,4206.191Z" transform="translate(-4944.25 -4081.173)" fill="#f4ac85" fill-rule="evenodd"/><path d="M5085.986,4569.288s6.524-6.2,7.5-6.791a2.7,2.7,0,0,1,3.469.8c.742,1.186,1.958,2.758.979,5.012-1.008,2.224-5.961,7.117-7.058,7.71a4.3,4.3,0,0,1-4.389-.711c-.89-1.038-2.224-4.271-.475-6.02Z" transform="translate(-4934.317 -4426.891)" fill="#f4ac85" fill-rule="evenodd"/><path d="M5194.029,4971.258s7.71-5.4,8.452-5.842a2.682,2.682,0,0,1,3.321,1.038c.919,1.364,1.3,3.292.237,4.448-1.1,1.186-7.71,5.664-8.9,5.9s-2.432-.831-2.936-2.017-.919-2.788-.148-3.529Z" transform="translate(-5039.572 -4817.948)" fill="#f4ac85" fill-rule="evenodd"/><path d="M42.726,4066.965c-5.19,24.525-13.493,30.812-18.742,50.739-.8,3.055,12.6,47.329,12.6,47.329l-21.114.979-3.707-.652S.29,4128.677-.866,4122.063A41.845,41.845,0,0,1,.587,4101.6h0c.089-.267.178-.534.267-.83,4.952-13.79,10.023-30.693,15.124-48.1,3.529-12.07,9.045-26.482,19.9-31.671,0,0,15.895.86,6.791,45.965Z" transform="translate(1.504 -3901.764)" fill="#fff" fill-rule="evenodd"/><path d="M548.634,4842.271c-5.19,24.524-13.493,30.811-18.742,50.739-.712,2.728,9.9,38.343,12.188,45.905l-4.478-.5s-14.175-42.614-15.628-43.8c-1.453-1.216-2.906-.89-1.6-2.165,1.275-1.275,29.24-68.028,29.862-70.46.385-1.542.89-1.927,1.186-1.987a130.774,130.774,0,0,1-2.788,22.3Z" transform="translate(-504.404 -4677.07)" fill="#fbe9dd" fill-rule="evenodd"/><path d="M1876.219,13.65c1.661-3.559,6.346-11.565,15.094-13.107,11.3-1.987,12.959,5.13,12.959,5.13s4.626-4.241,8.007-2.728c3.351,1.512,4.033,6.613,4.033,6.613s5.249-1.868,7.206.741c1.275,1.72,1.839,5.694,2.076,8.185,6.821-11.387,17.17,13.582,3.173,19.394-4.863,21.114-15.658,11.773-11,5.545-17.941-2.194-31.938,11.536-46.825,2.432C1853.919,35.447,1859.612,4.22,1876.219,13.65Z" transform="translate(-1805.418 -0.193)" fill="#01010e" fill-rule="evenodd"/><path d="M1931.845,401.27a7.816,7.816,0,0,1,2.313,2.7c-8.956,13.256-29.922,24.05-49.761,21.618a30.53,30.53,0,0,1-23.4-15.065c.237-7.058,3.529-13.078,9.074-13.523,4.181,9.074,11.921,17.7,26.333,18.416,19.958.979,30.455-7.71,35.438-14.116Z" transform="translate(-1805.768 -385.233)" fill="#0f162f" fill-rule="evenodd"/><path d="M3000.851,2476.534s-.178,2.817-.949,3.232-2.965.148-2.194-1.334a5.293,5.293,0,0,1,2.432-2.432C3000.555,2475.882,3000.94,2476.119,3000.851,2476.534Z" transform="translate(-2908.61 -2402.552)" fill="#f7caaf" fill-rule="evenodd"/><path d="M4128.024,717.088a.619.619,0,0,1-.356-1.186c.03,0,9.964-2.906,8.6-15.3a.612.612,0,0,1,1.216-.148c1.483,13.4-9.43,16.577-9.459,16.607Z" transform="translate(-4004.794 -679.165)" fill="#01010e" fill-rule="evenodd"/><path d="M1802.194,776.278a.619.619,0,0,1-.356,1.186c-.03,0-15.124-4.419-13.078-23.012a.612.612,0,1,1,1.216.148c-1.927,17.585,12.188,21.707,12.218,21.707Z" transform="translate(-1735.485 -731.564)" fill="#01010e" fill-rule="evenodd"/><path d="M1615.127,5464h19.661a1.126,1.126,0,0,1,1.127,1.127v1.275a1.126,1.126,0,0,1-1.127,1.127h-19.661A1.126,1.126,0,0,1,1614,5466.4v-1.275A1.126,1.126,0,0,1,1615.127,5464Z" transform="translate(-1566.093 -5301.972)" fill="#daa389" fill-rule="evenodd"/><path d="M368.371,5209.732a242.1,242.1,0,0,0-22.982-17.407c.712-2.432,1.453-4.864,2.165-7.325a257.1,257.1,0,0,1,22.6,16.666c-.415,2.046-1.068,4.952-1.75,8.036Zm-3.5,15.658h0s.8-3.559,1.809-8.1a245.768,245.768,0,0,0-23.457-17.763q-1.112,3.692-2.224,7.295A227.112,227.112,0,0,1,364.872,5225.39Z" transform="translate(-330.843 -5031.246)" fill="#8e7260" fill-rule="evenodd"/><path d="M943.786,5678.409c-1.334-1.157-2.7-2.284-4.033-3.411,1.008-2.372,1.987-4.715,2.936-7,.949.771,1.928,1.542,2.877,2.343-.415,2.046-1.068,4.953-1.75,8.037Zm-3.5,15.658h0c-2.076-1.868-4.181-3.677-6.287-5.427.979-2.284,1.957-4.626,2.965-6.969,1.72,1.394,3.44,2.847,5.16,4.3-1.008,4.507-1.809,8.1-1.809,8.1Z" transform="translate(-906.258 -5499.922)" fill="#75523d" fill-rule="evenodd"/><g transform="translate(122.95 124.396)"><path d="M4793,4204.727c.593-1.75,1.779-1.928,3.292-1.334,2.224,1.364,3.647,1.394,3.825-.445a27.2,27.2,0,0,0-1.067-7.948l1.661,4.686c.712,2.076,1.779,6.05.5,7-.653.475-2.076-.03-3.8-1.008-2.521-1.394-3.677-1.423-4.419-.979h.03Z" transform="translate(-4773.771 -4195)" fill="#f08619" fill-rule="evenodd"/><path d="M4417.06,4449.351c3.5,3.114,5.842,4.063,7,2.965,1.068-1.038,1.394-3.351,2.313-4.923a2.667,2.667,0,0,1,1.838-1.394,1.089,1.089,0,0,0-.652.593,1.623,1.623,0,0,1,1.512-.563,1.566,1.566,0,0,0-1.038.741,1.751,1.751,0,0,1,1.809-.5,1.817,1.817,0,0,0-1.364.712,2.353,2.353,0,0,1,2.936-.03,2.3,2.3,0,0,0-3.292,1.334c-.682.445-1.72,2.669-2.847,5.813-.415,1.157-.86,1.275-1.542,1.1-1.3-.326-3.885-2.758-6.731-5.812h0Z" transform="translate(-4408.921 -4438.557)" fill="#332c2b" fill-rule="evenodd"/><path d="M4151.951,4519.879a1.052,1.052,0,0,1-.475-.326c0,.148-.03.208-.119.208.089-.089.059-.237-.059-.385,0,.208-.06.3-.208.3a.414.414,0,0,0-.029-.563c.059.326-.06.534-.326.563a.574.574,0,0,0,.119-.771.435.435,0,0,0-.386-.148c.3.326.237.593-.119.831-.385.208-.652.148-.8-.119-.059-.119,0-.3.3-.445a.242.242,0,0,1,.355.148c0,.089-.029.118-.119.148-.029,0-.029,0-.029-.03.029-.089,0-.148-.089-.148a.225.225,0,0,0-.208.119c-.208.267.208.267.326.237.237-.119.356-.267.356-.416a.3.3,0,0,0-.385-.237,3.067,3.067,0,0,0-.356.148.747.747,0,0,0-.326.949.856.856,0,0,0,.652.385.458.458,0,0,1-.534-.059c.119.385.771.385,1.838.089l-.415.267c-1.127.356-1.631.089-1.69-.593l-3.2.83-.148.089c-.119.178-.059.415.089.682a.659.659,0,0,1-.237-.711l-.06.03a.645.645,0,0,0,.06.682.65.65,0,0,1-.208-.711l-.653.178c-.444.326-.415.623.119.919l2.788-.623a.71.71,0,0,1-.326-.416.772.772,0,0,0,.712.326c-.237-.178-.326-.355-.3-.474a.8.8,0,0,0,.771.385.78.78,0,0,1-.445-.563.942.942,0,0,0,.89.445.674.674,0,0,1-.445-.5,1.079,1.079,0,0,0,.979.385,3.505,3.505,0,0,0,1.246-.445l.415-.267c.475-.06,1.1-.445,1.542-.06.089.06,1.038.89,1.067.949l-.415-.475-.475-.475c-.415-.534-.89-.326-1.1-.356v-.029Z" transform="translate(-4144.554 -4509.145)" fill="#332c2b" fill-rule="evenodd"/></g></g></svg>