<svg xmlns="http://www.w3.org/2000/svg" width="157.132" height="101.381" viewBox="0 0 157.132 101.381"><g transform="translate(0)"><g transform="translate(0.705 88.019)"><path d="M22.267,2273l1.172,4.688c0,.235.117.469.117.7s.117.469.117.82a2.288,2.288,0,0,0,.117-.82,5.07,5.07,0,0,1,.117-.586l1.055-4.688h2.461l-2.578,9.689H22.618l-1.055-4.219a4.789,4.789,0,0,0-.234-.821c0-.234-.117-.351-.117-.469a.43.43,0,0,1-.117.352,5.317,5.317,0,0,1-.234.938l-1.055,4.219H17.578L15,2273.117h2.461l1.055,4.688c0,.235.117.469.117.7s.117.469.117.7c0-.234.117-.352.117-.586a2.982,2.982,0,0,1,.234-.821l1.172-4.688h1.992Zm35.747,9.689V2273h2.461v4.454L63.288,2273H66.1l-3.282,4.805,3.633,5.04H63.4l-2.93-4.337v4.337H58.013v-.156ZM139.235,2273l1.172,4.688c0,.235.117.469.117.7s.117.469.117.82a2.288,2.288,0,0,0,.117-.82,5.071,5.071,0,0,1,.117-.586l1.055-4.688h2.461l-2.578,9.689h-2.227l-1.055-4.219a4.791,4.791,0,0,0-.234-.821c0-.234-.117-.351-.117-.469a.43.43,0,0,1-.117.352,5.315,5.315,0,0,1-.234.938l-1.055,4.219h-2.227l-2.578-9.689h2.461l1.055,4.688c0,.235.117.469.117.7s.117.469.117.7c0-.234.117-.352.117-.586a2.982,2.982,0,0,1,.234-.821l1.172-4.688h1.992Z" transform="translate(-15 -2272.219)" fill="#ed7020"/><path d="M335.04,2260.11a2.363,2.363,0,0,0-.352-1.289,1.421,1.421,0,0,0-2.11,0,2.105,2.105,0,0,0-.352,1.289,2.363,2.363,0,0,0,.352,1.29,1.422,1.422,0,0,0,2.11,0A2.106,2.106,0,0,0,335.04,2260.11Zm1.875-3.4v6.681h-1.992v-1.055a2.768,2.768,0,0,1-.938,1.055,2.363,2.363,0,0,1-1.289.352,2.5,2.5,0,0,1-1.992-.937,4.459,4.459,0,0,1-.7-2.579,3.6,3.6,0,0,1,.82-2.579,2.286,2.286,0,0,1,2.11-.937,1.98,1.98,0,0,1,1.172.352,2.553,2.553,0,0,1,.82,1.055v-1.055h1.992Zm1.641,6.681v-6.681h2.11v1.641a2.727,2.727,0,0,1,.82-1.289,2.458,2.458,0,0,1,1.289-.469h.469l-.234,2.11c-.117,0-.234-.118-.352-.118h-.352a1.293,1.293,0,0,0-1.172.586,2.609,2.609,0,0,0-.469,1.523v2.813h-2.11Zm5.86,0v-5.04h-.938v-1.641h.938v-1.992h2.11v1.992h.938v1.641h-.938v5.04Zm8.751-3.4a2.361,2.361,0,0,0-.352-1.289,1.421,1.421,0,0,0-2.11,0,2.1,2.1,0,0,0-.352,1.289,2.361,2.361,0,0,0,.352,1.289,1.421,1.421,0,0,0,2.11,0A2.1,2.1,0,0,0,353.167,2259.993Zm1.875-3.4v6.681H353.05v-1.055a2.767,2.767,0,0,1-.938,1.055,2.363,2.363,0,0,1-1.289.352,2.5,2.5,0,0,1-1.992-.938,4.457,4.457,0,0,1-.7-2.579,3.6,3.6,0,0,1,.82-2.578,2.285,2.285,0,0,1,2.11-.938,1.979,1.979,0,0,1,1.172.352,2.55,2.55,0,0,1,.82,1.054v-1.054h1.992Zm19.182,3.4a2.361,2.361,0,0,0-.352-1.289,1.421,1.421,0,0,0-2.11,0,2.1,2.1,0,0,0-.352,1.289,2.361,2.361,0,0,0,.352,1.289,1.421,1.421,0,0,0,2.11,0A2.1,2.1,0,0,0,374.225,2259.993Zm1.875-3.4v6.681h-1.992v-1.055a2.767,2.767,0,0,1-.938,1.055,2.363,2.363,0,0,1-1.289.352,2.5,2.5,0,0,1-1.992-.938,4.457,4.457,0,0,1-.7-2.579,3.6,3.6,0,0,1,.82-2.578,2.285,2.285,0,0,1,2.11-.938,1.979,1.979,0,0,1,1.172.352,2.549,2.549,0,0,1,.82,1.054v-1.054H376.1Zm1.641,6.681V2253h2.227v10.275Zm3.75-8.751a1.332,1.332,0,0,1,.352-.938,1.133,1.133,0,0,1,1.641,0,1.426,1.426,0,0,1,0,1.875,1.133,1.133,0,0,1-1.641,0A1.331,1.331,0,0,1,381.491,2254.524Zm.117,8.751v-6.681h2.227v6.681Zm5.743-3.281a2.36,2.36,0,0,0,.352,1.289,1.421,1.421,0,0,0,2.11,0,2.1,2.1,0,0,0,.352-1.289,2.361,2.361,0,0,0-.352-1.289,1.421,1.421,0,0,0-2.11,0A2.1,2.1,0,0,0,387.351,2259.993Zm-1.875,6.329v-9.689h1.992v1.172a2.768,2.768,0,0,1,.938-1.055,1.984,1.984,0,0,1,1.172-.351,2.934,2.934,0,0,1,2.11.938,4.5,4.5,0,0,1,.82,2.578,3.6,3.6,0,0,1-.82,2.579,2.2,2.2,0,0,1-1.992.938,2.361,2.361,0,0,1-1.289-.352,2.551,2.551,0,0,1-.82-1.055v3.985h-2.11v.313Zm14.494-9.689v3.4a6.227,6.227,0,0,1-.117,1.641,2.55,2.55,0,0,1-.586.938,2.384,2.384,0,0,1-1.055.7,5.046,5.046,0,0,1-1.406.234,4.379,4.379,0,0,1-1.406-.234,2.769,2.769,0,0,1-1.055-.7,2.549,2.549,0,0,1-.586-.937,6.227,6.227,0,0,1-.117-1.641v-3.4h2.11v3.633a2.523,2.523,0,0,0,.234,1.172,1.133,1.133,0,0,0,1.641,0,2.941,2.941,0,0,0,.234-1.172v-3.633Zm5.977,2.227c-.234-.235-.469-.352-.586-.469a1.058,1.058,0,0,0-.586-.117,1.142,1.142,0,0,0-1.055.469,2.105,2.105,0,0,0-.352,1.289,2.361,2.361,0,0,0,.352,1.289,1.142,1.142,0,0,0,1.055.469.878.878,0,0,0,.586-.117,2.05,2.05,0,0,0,.586-.469v2.11a5.769,5.769,0,0,1-.82.352,2,2,0,0,1-.82.117,3.273,3.273,0,0,1-2.344-.937,4.014,4.014,0,0,1,0-5.157,2.95,2.95,0,0,1,2.344-1.055,1.741,1.741,0,0,1,.82.117c.234.118.469.118.7.352v1.992Zm5.977,1.172a2.363,2.363,0,0,0-.352-1.289,1.422,1.422,0,0,0-2.11,0,2.105,2.105,0,0,0-.352,1.289,2.361,2.361,0,0,0,.352,1.289,1.421,1.421,0,0,0,2.11,0A2.1,2.1,0,0,0,411.925,2260.032Zm1.875-3.4v6.681h-1.992v-1.055a2.77,2.77,0,0,1-.938,1.055,2.365,2.365,0,0,1-1.289.352,2.5,2.5,0,0,1-1.992-.938,4.458,4.458,0,0,1-.7-2.578,3.6,3.6,0,0,1,.82-2.579,2.286,2.286,0,0,1,2.11-.937,1.979,1.979,0,0,1,1.172.352,2.551,2.551,0,0,1,.82,1.055v-1.055H413.8Zm1.641,6.681v-6.681h1.992v1.406a2.1,2.1,0,0,1,1.055-1.172,2.5,2.5,0,0,1,1.406-.352,3.429,3.429,0,0,1,1.055.234,1.2,1.2,0,0,1,.7.586,5.718,5.718,0,0,1,.352.82,4.829,4.829,0,0,1,.117,1.407v3.867h-2.227V2259.8a2.522,2.522,0,0,0-.234-1.172.912.912,0,0,0-.82-.351.927.927,0,0,0-.938.586,3.293,3.293,0,0,0-.352,1.758v2.813h-2.11Zm12.853-3.4a1.75,1.75,0,0,0-.352-1.172,1.422,1.422,0,0,0-2.11,0,1.98,1.98,0,0,0-.352,1.172,1.75,1.75,0,0,0,.352,1.172,1.421,1.421,0,0,0,2.11,0A1.98,1.98,0,0,0,428.294,2259.915Zm1.875-3.281v6.681a2.609,2.609,0,0,1-.82,2.227,3.983,3.983,0,0,1-2.578.7,3.883,3.883,0,0,1-2.227-.586,1.774,1.774,0,0,1-.82-1.641h2.227c0,.235.117.352.352.469a1.666,1.666,0,0,0,.7.234c.469,0,.82-.117.938-.352.234-.234.234-.821.234-1.524v-.586a2.171,2.171,0,0,1-.82.938,2.363,2.363,0,0,1-1.289.352,2.5,2.5,0,0,1-1.992-.938,4.21,4.21,0,0,1-.7-2.578,3.6,3.6,0,0,1,.82-2.578,2.575,2.575,0,0,1,2.11-.937,1.979,1.979,0,0,1,1.172.352,3.159,3.159,0,0,1,.82.938v-1.055h1.992Zm21.37,2.461a1.332,1.332,0,0,0-.352-.938,1.134,1.134,0,0,0-1.641,0,2.358,2.358,0,0,0-.469.938Zm2.11,1.289h-4.688a1.751,1.751,0,0,0,.352,1.172,1.486,1.486,0,0,0,1.055.469,1.692,1.692,0,0,0,.82-.234,1.17,1.17,0,0,0,.469-.586l1.641.7a2.565,2.565,0,0,1-1.055,1.172,3.992,3.992,0,0,1-1.875.469,3.648,3.648,0,0,1-2.578-.938,3.356,3.356,0,0,1-.938-2.578,3.86,3.86,0,0,1,.938-2.578,3.372,3.372,0,0,1,2.461-1.055,3.026,3.026,0,0,1,2.461,1.055,4.385,4.385,0,0,1,.938,2.93v0Zm1.524,2.93v-5.04h-.938v-1.641h.938v-1.992h2.11v1.992h.938v1.641h-.938v5.04Zm8.751-3.4a2.363,2.363,0,0,0-.352-1.289,1.421,1.421,0,0,0-2.11,0,2.1,2.1,0,0,0-.352,1.289,2.361,2.361,0,0,0,.352,1.289,1.421,1.421,0,0,0,2.11,0A2.1,2.1,0,0,0,463.924,2259.915Zm1.875-3.4v6.68h-1.993v-1.055a2.768,2.768,0,0,1-.938,1.055,2.363,2.363,0,0,1-1.289.352,2.5,2.5,0,0,1-1.992-.938,4.456,4.456,0,0,1-.7-2.578,3.6,3.6,0,0,1,.82-2.578,2.284,2.284,0,0,1,2.11-.937,1.978,1.978,0,0,1,1.172.352,2.552,2.552,0,0,1,.82,1.054v-1.054H465.8Zm1.641,6.68v-6.68h1.992v1.406a2.1,2.1,0,0,1,1.055-1.172,2.5,2.5,0,0,1,1.406-.351,3.43,3.43,0,0,1,1.055.234,1.2,1.2,0,0,1,.7.586,5.736,5.736,0,0,1,.352.821,4.833,4.833,0,0,1,.117,1.406v3.868h-2.227v-3.634a2.523,2.523,0,0,0-.234-1.172.914.914,0,0,0-.82-.352.928.928,0,0,0-.938.586,3.293,3.293,0,0,0-.352,1.758v2.813h-2.11Z" transform="translate(-317.694 -2253)" fill="#332c2b"/></g><path d="M2502.117,426.168c7.813-6.563,13.908-3.868,19.182,3.164,6.563,12.736,13.088,17.073,19.182,8.868,8.165-12.384,13.908-26.644,17.776-40.2l-5.743,26.644c-2.579,11.8-8.986,33.442-17.776,34.106-4.337.352-9.572-6.095-14.846-15.549-7.7-13.791-13.2-17.19-17.893-17.19l.117.117Z" transform="translate(-2404.134 -382.451)" fill="#f08619" fill-rule="evenodd"/><path d="M1095.039,433.039c7.462,24.534,15.666,35.747,24.183,33.872,7.931-1.758,16.135-11.681,24.886-16.369,4.1-2.11,8.165-2.93,12.619-1.289a6.194,6.194,0,0,0-4.805.938,8.86,8.86,0,0,1,8.634,1.641,8.732,8.732,0,0,0-6.876.469c4.805-.938,7.814.352,9.923,2.93-3.633-1.406-6.563-1.758-8.4-.586,6.563-.352,10.157,1.641,13.908,8.282-5.626-7.345-12.033-7.931-19.182-3.164-4.571.117-15.783,7.579-29.926,19.065-5.274,4.219-7.579,3.516-10.275.7-5.157-5.274-10.275-24.066-14.728-46.53h0Z" transform="translate(-1052.102 -416.084)" fill="#332c2b" fill-rule="evenodd"/><path d="M36.606,14.494a6.086,6.086,0,0,1-1.289-2.93c-.352.7-.7.938-1.172.7.7-.234.938-.938.82-1.992-.586.938-1.172,1.289-1.875.82a2.38,2.38,0,0,0,1.524-2.7q-1.055,2.637-3.164,1.758a3.1,3.1,0,0,0,2.7-3.282A2.911,2.911,0,0,0,32.738,5c.469,2.461-.586,3.516-2.93,3.633-2.461-.117-3.516-1.172-3.4-2.813.117-.7.938-1.406,2.7-1.289.7.117,1.641.82,1.289,1.758a.738.738,0,0,1-.938.352c-.117-.117-.117-.117,0-.234.352-.352.352-.7,0-.938a1.66,1.66,0,0,0-1.289-.117c-1.758.586.117,1.875.82,1.992,1.524.117,2.461-.234,2.813-.938A1.655,1.655,0,0,0,30.745,4.18a10.062,10.062,0,0,0-1.992-.352,4.024,4.024,0,0,0-4.219,3.516c-.117,1.289.586,2.461,1.992,3.633-.938,0-1.758-.586-2.344-1.875-.586,2.11,2.578,3.985,8.4,5.743h-2.7c-6.329-1.641-7.814-4.219-6.212-7.579L6.25,1.992H5.312C4.258,2.461,3.906,3.75,3.789,5.509a3.783,3.783,0,0,1,.938-3.985H4.258C3.2,1.992,2.617,3.282,2.5,4.923A3.457,3.457,0,0,1,3.554,1.055L-.079,0c-3.047.234-3.75,1.641-2.11,4.688L12.657,9.845a3.362,3.362,0,0,1-.352-2.93c.352,1.758,1.055,3.164,2.461,3.633-.586-1.524-.586-2.578-.117-3.047a4.139,4.139,0,0,0,2.578,3.985c-.938-1.641-.938-2.93-.469-3.868.352,2.461,1.289,4.1,2.93,4.688-.938-1.406-1.172-2.578-.7-3.633A5.48,5.48,0,0,0,22.5,13.244a19.371,19.371,0,0,0,7.11,1.524h2.7c2.461,1.055,6.446,1.055,7.345,4.1.234.469,2.227,7.11,2.227,7.462l-.586-3.4-.82-3.516c-.469-3.75-3.282-4.1-4.1-4.805l.117-.117Z" transform="translate(3.05)" fill="#332c2b" fill-rule="evenodd"/></g></svg>