<svg xmlns="http://www.w3.org/2000/svg" width="92" height="70.078" viewBox="0 0 92 70.078"><g transform="translate(0 -61)"><g transform="translate(0 61)"><path d="M83.914,61H8.086A8.1,8.1,0,0,0,0,69.086v53.906a8.1,8.1,0,0,0,8.086,8.086H83.914A8.1,8.1,0,0,0,92,122.992V69.086A8.1,8.1,0,0,0,83.914,61Zm2.7,61.992a2.7,2.7,0,0,1-2.7,2.7H8.086a2.7,2.7,0,0,1-2.7-2.7V69.086a2.7,2.7,0,0,1,2.7-2.7H83.914a2.7,2.7,0,0,1,2.7,2.7Z" transform="translate(0 -61)" fill="#219536"/></g><g transform="translate(10.781 93.344)"><path d="M76.172,241A16.19,16.19,0,0,0,60,257.172v2.7a8.1,8.1,0,0,0,8.086,8.086H84.258a8.1,8.1,0,0,0,8.086-8.086v-2.7A16.19,16.19,0,0,0,76.172,241Zm10.781,18.867a2.7,2.7,0,0,1-2.7,2.7H68.086a2.7,2.7,0,0,1-2.7-2.7v-2.7a10.781,10.781,0,0,1,21.562,0Z" transform="translate(-60 -241)" fill="#219536"/></g><g transform="translate(16.172 71.781)"><path d="M100.781,121a10.781,10.781,0,1,0,10.781,10.781A10.793,10.793,0,0,0,100.781,121Zm0,16.172a5.391,5.391,0,1,1,5.391-5.391A5.4,5.4,0,0,1,100.781,137.172Z" transform="translate(-90 -121)" fill="#219536"/></g><g transform="translate(48.875 109.516)"><path d="M301.648,331H274.7a2.7,2.7,0,1,0,0,5.391h26.953a2.7,2.7,0,1,0,0-5.391Z" transform="translate(-272 -331)" fill="#219536"/></g><g transform="translate(48.875 98.734)"><path d="M301.648,271H274.7a2.7,2.7,0,1,0,0,5.391h26.953a2.7,2.7,0,1,0,0-5.391Z" transform="translate(-272 -271)" fill="#219536"/></g><g transform="translate(48.875 87.953)"><path d="M301.648,211H274.7a2.7,2.7,0,1,0,0,5.391h26.953a2.7,2.7,0,1,0,0-5.391Z" transform="translate(-272 -211)" fill="#219536"/></g><g transform="translate(54.266 77.172)"><path d="M320.867,151H304.7a2.7,2.7,0,0,0,0,5.391h16.172a2.7,2.7,0,0,0,0-5.391Z" transform="translate(-302 -151)" fill="#219536"/></g></g></svg>