<svg xmlns="http://www.w3.org/2000/svg" width="82.672" height="82.655" viewBox="0 0 82.672 82.655"><g transform="translate(0.001 -0.052)"><g transform="translate(2.473 0.052)"><g transform="translate(0 0)"><path d="M92.522.121l-.068.016L17.1,20.689a2.424,2.424,0,0,0-.9,4.206L39.649,44.216,35.331,57.171a2.424,2.424,0,0,0,3.064,3.064l12.954-4.318L70.671,79.369a2.423,2.423,0,0,0,4.206-.9L95.428,3.111c.006-.024.011-.048.017-.072A2.421,2.421,0,0,0,92.522.121ZM22.887,24.131,82.594,7.847,42.487,40.278ZM50.723,51.019l-9.264,3.088,3.088-9.264L76.817,18.748ZM71.434,72.678l-16.147-19.6L87.718,12.971Z" transform="translate(-15.315 -0.052)" fill="#219536"/></g></g><g transform="translate(-0.001 74.468)"><path d="M7.557,461.633a2.422,2.422,0,0,0-3.425,0L.708,465.061a2.422,2.422,0,0,0,0,3.425,2.5,2.5,0,0,0,3.425,0l3.424-3.427A2.422,2.422,0,0,0,7.557,461.633Z" transform="translate(0.001 -460.924)" fill="#219536"/></g><g transform="translate(10.335 64.188)"><path d="M71.5,397.965a2.422,2.422,0,0,0-3.425,0l-3.424,3.427a2.6,2.6,0,0,0,0,3.425,2.7,2.7,0,0,0,3.425,0L71.5,401.39A2.422,2.422,0,0,0,71.5,397.965Z" transform="translate(-64.009 -397.256)" fill="#219536"/></g></g></svg>