<svg xmlns="http://www.w3.org/2000/svg" width="72.765" height="91.62" viewBox="0 0 72.765 91.62"><g transform="translate(-52.683)"><g transform="translate(52.683)"><g transform="translate(0)"><path d="M119.42,54.683q-.056-.019-.113-.035l-10.03-2.86L102.159,45V43.171a18.763,18.763,0,0,0,5.553-13.288V18.789a18.771,18.771,0,1,0-37.542,0V29.884a18.763,18.763,0,0,0,5.553,13.288V45l-7.074,6.782-9.841,2.874-.1.03a8.861,8.861,0,0,0-5.785,10.431l4.745,24.335A2.685,2.685,0,0,0,60.3,91.62c.075,0,.15,0,.225-.011s.135.011.2.011h56.837a2.684,2.684,0,0,0,2.629-2.144l5-24.347A8.861,8.861,0,0,0,119.42,54.683Zm-15.15-.265L96.594,65.933l-4.185-4.185L100,50.305ZM88.959,5.368A13.409,13.409,0,0,1,99.691,10.74a13.477,13.477,0,0,1-10.732,5.365H75.808A13.444,13.444,0,0,1,88.959,5.368ZM75.5,29.884v-8.41H88.959A18.853,18.853,0,0,0,102.108,16.1a13.435,13.435,0,0,1,.272,2.693V29.884a13.439,13.439,0,0,1-26.878,0Zm2.413,20.421,7.593,11.443-4.185,4.185L73.647,54.418Zm8.359,35.946H62.517c-.02-.1-4.339-22.263-4.365-22.364a3.468,3.468,0,0,1,2.216-4.1l8.712-2.544,9.593,14.39a2.684,2.684,0,0,0,4.131.409l3.47-3.47V86.251ZM82.521,47.536a18.8,18.8,0,0,0,12.876,0l-6.438,9.7ZM119.954,64l-4.574,22.254H91.607V68.574l3.506,3.47a2.685,2.685,0,0,0,4.131-.409l9.593-14.39,8.933,2.547A3.468,3.468,0,0,1,119.954,64Z" transform="translate(-52.683)" fill="#219536"/></g></g><g transform="translate(102.379 75.515)"><path d="M338.452,422h-5.368a2.684,2.684,0,0,0,0,5.368h5.368a2.684,2.684,0,1,0,0-5.368Z" transform="translate(-330.399 -421.998)" fill="#219536"/></g></g></svg>