<svg id="Layer_x0020_1" xmlns="http://www.w3.org/2000/svg" width="45" height="45" viewBox="0 0 45 45">
  <path id="Path_197" data-name="Path 197" d="M22.5,0A22.5,22.5,0,1,0,45,22.5,22.524,22.524,0,0,0,22.5,0ZM35.278,30.278,23.056,36.389c-.185,0-.37.093-.556.093a4.01,4.01,0,0,1-.463-.093L9.815,30.278a1.14,1.14,0,1,1,1.019-2.037L22.5,33.981l11.667-5.741a1.16,1.16,0,1,1,1.111,2.037Zm0-4.444L23.056,31.944c-.185,0-.37.093-.556.093a4.01,4.01,0,0,1-.463-.093L9.815,25.833A1.14,1.14,0,1,1,10.833,23.8L22.5,29.537,34.167,23.8a1.089,1.089,0,0,1,1.574.463,1.16,1.16,0,0,1-.463,1.574Zm0-4.444L23.056,27.5c-.185,0-.37.093-.556.093a4.01,4.01,0,0,1-.463-.093L9.815,21.389a1.191,1.191,0,0,1-.556-1.574,1.11,1.11,0,0,1,1.574-.463L22.5,25.093l11.667-5.741a1.089,1.089,0,0,1,1.574.463,1.16,1.16,0,0,1-.463,1.574Zm0-4.63L23.056,22.778a1.174,1.174,0,0,1-.556.093.694.694,0,0,1-.463-.093L9.815,16.759a1.256,1.256,0,0,1-.648-1.019,1.285,1.285,0,0,1,.648-1.111L22.037,8.611a1,1,0,0,1,1.019,0L35.278,14.63a1.285,1.285,0,0,1,.648,1.111,1.256,1.256,0,0,1-.648,1.019Z" fill="#219536" fill-rule="evenodd"/>
</svg>
