<?xml version="1.0" encoding="UTF-8"?>
<!DOCTYPE svg PUBLIC "-//W3C//DTD SVG 1.1//EN" "http://www.w3.org/Graphics/SVG/1.1/DTD/svg11.dtd">
<!-- Creator: CorelDRAW 2017 -->
<svg xmlns="http://www.w3.org/2000/svg" xml:space="preserve" width="292px" height="358px" version="1.1" style="shape-rendering:geometricPrecision; text-rendering:geometricPrecision; image-rendering:optimizeQuality; fill-rule:evenodd; clip-rule:evenodd"
viewBox="0 0 12.95 15.9"
 xmlns:xlink="http://www.w3.org/1999/xlink">
 <defs>
  <style type="text/css">
   <![CDATA[
    .fil0 {fill:#9CFF9C}
   ]]>
  </style>
 </defs>
 <g id="PowerClip_x0020_Contents">
  <metadata id="CorelCorpID_0Corel-Layer"/>
  <g id="_2855412059808">
   <path class="fil0" d="M4.46 0.3c-3.37,1.08 -5.23,4.71 -4.15,8.1 0.42,1.31 1.15,2.53 2.18,3.6 0.82,0.86 1.83,1.63 3,2.29 1.98,1.13 3.72,1.55 3.79,1.57l0.15 0.04 0.1 -0.12c0.05,-0.06 1.22,-1.41 2.19,-3.47 0.57,-1.22 0.94,-2.43 1.12,-3.6 0.22,-1.47 0.11,-2.89 -0.31,-4.21 -1.08,-3.39 -4.7,-5.27 -8.07,-4.2zm3.01 13.81c-0.39,0.12 -0.8,-0.09 -0.92,-0.48 -0.13,-0.38 0.09,-0.8 0.47,-0.92 0.39,-0.12 0.8,0.09 0.93,0.48l0 0c0.12,0.38 -0.09,0.8 -0.48,0.92zm1.56 0.66c-0.29,0.09 -0.6,-0.07 -0.69,-0.36 -0.1,-0.29 0.06,-0.6 0.35,-0.69 0.29,-0.09 0.6,0.07 0.69,0.36 0.1,0.29 -0.06,0.59 -0.35,0.69l0 0zm-0.98 -3.2c-2.84,0.91 -5.87,-0.66 -6.78,-3.5 -0.9,-2.83 0.67,-5.87 3.51,-6.77 2.83,-0.91 5.87,0.67 6.77,3.5 0.9,2.83 -0.67,5.87 -3.5,6.77z"/>
   <path class="fil0" d="M3.73 4.41c0.21,-0.22 0.43,-0.36 0.68,-0.44 0.28,-0.08 0.58,-0.08 0.86,0 0.24,0.07 0.5,-0.01 0.65,-0.21 0.17,-0.22 0.41,-0.38 0.68,-0.47 0.23,-0.07 0.5,-0.09 0.82,-0.06 0.06,0.01 0.23,0.01 0.4,0.01 -0.19,-0.31 -0.45,-0.56 -0.75,-0.75 -1.13,-0.67 -2.59,-0.31 -3.26,0.81 -0.05,0.09 -0.1,0.18 -0.14,0.27 -0.14,0.32 -0.2,0.67 -0.19,1.02l0.25 -0.18z"/>
   <path class="fil0" d="M6.84 7.65c-0.87,0.27 -1.8,-0.03 -2.32,-0.76l-0.01 -0.02 -0.83 -1.5c-0.06,-0.12 -0.03,-0.26 0.07,-0.33l0.32 -0.25c0.16,-0.16 0.32,-0.27 0.49,-0.33 0.19,-0.05 0.38,-0.05 0.57,0.01 0.44,0.12 0.91,-0.03 1.19,-0.39 0.25,-0.31 0.6,-0.39 1.05,-0.34 0.1,0.01 0.31,0.01 0.47,0.01 0.14,0 0.25,0.1 0.26,0.23l0.19 1.69 0 0.02c0,0.89 -0.58,1.68 -1.45,1.96z"/>
   <path class="fil0" d="M10.79 8.33c-0.18,-0.57 -0.74,-0.94 -1.34,-0.89l-1.28 0.12c-0.14,0.01 -0.24,0.13 -0.23,0.27 0,0.02 0.01,0.04 0.01,0.05l0 0c0.21,0.65 -0.06,1.32 -0.6,1.49 -0.27,0.09 -0.55,0.04 -0.81,-0.13l0 0c-0.26,-0.17 -0.46,-0.43 -0.55,-0.73l0 0c-0.04,-0.13 -0.18,-0.21 -0.31,-0.17 -0.02,0.01 -0.04,0.02 -0.05,0.03l-1.12 0.64c-0.52,0.31 -0.76,0.93 -0.57,1.5l0.05 0.16c2.33,1.34 5.31,0.53 6.65,-1.8 0.07,-0.12 0.14,-0.25 0.2,-0.39l-0.05 -0.15z"/>
  </g>
 </g>
</svg>
