<?xml version="1.0" encoding="UTF-8"?>
<!DOCTYPE svg PUBLIC "-//W3C//DTD SVG 1.1//EN" "http://www.w3.org/Graphics/SVG/1.1/DTD/svg11.dtd">
<!-- Creator: CorelDRAW 2017 -->
<svg xmlns="http://www.w3.org/2000/svg" xml:space="preserve" width="180px" height="180px" version="1.1" style="shape-rendering:geometricPrecision; text-rendering:geometricPrecision; image-rendering:optimizeQuality; fill-rule:evenodd; clip-rule:evenodd"
viewBox="0 0 4.86 4.86"
 xmlns:xlink="http://www.w3.org/1999/xlink">
 <defs>
  <style type="text/css">
   <![CDATA[
    .fil0 {fill:#663333}
   ]]>
  </style>
 </defs>
 <g id="Layer_x0020_1">
  <metadata id="CorelCorpID_0Corel-Layer"/>
  <g id="_2855370489280">
   <circle class="fil0" cx="2.44" cy="1.79" r="0.39"/>
   <path class="fil0" d="M2.43 0c-1.34,0 -2.43,1.09 -2.43,2.43 0,1.35 1.09,2.43 2.43,2.43 1.35,0 2.43,-1.08 2.43,-2.43 0,-1.34 -1.08,-2.43 -2.43,-2.43zm0 1.11c0,0 0,0 0,0 0,0 0.01,0 0.01,0 0.41,0.01 0.74,0.35 0.74,0.76 0,0.5 -0.53,1.01 -0.75,1.19 -0.01,-0.01 -0.03,-0.03 -0.04,-0.04 0,0 0,0 -0.01,0 -0.23,-0.21 -0.7,-0.68 -0.7,-1.15 0,-0.41 0.34,-0.75 0.75,-0.76zm0.01 2.66c-0.45,0 -0.9,-0.13 -0.9,-0.38 0,-0.17 0.22,-0.29 0.51,-0.34 0.06,0.06 0.11,0.11 0.16,0.15 -0.32,0.03 -0.5,0.13 -0.5,0.19 0,0.07 0.28,0.21 0.73,0.21 0.46,0 0.74,-0.14 0.74,-0.21 0,-0.06 -0.19,-0.16 -0.52,-0.19 0.05,-0.05 0.1,-0.1 0.16,-0.15 0.29,0.05 0.53,0.17 0.53,0.34 0,0.25 -0.46,0.38 -0.91,0.38z"/>
  </g>
 </g>
</svg>
