<?xml version="1.0" encoding="UTF-8"?>
<!DOCTYPE svg PUBLIC "-//W3C//DTD SVG 1.1//EN" "http://www.w3.org/Graphics/SVG/1.1/DTD/svg11.dtd">
<!-- Creator: CorelDRAW 2017 -->
<svg xmlns="http://www.w3.org/2000/svg" xml:space="preserve" width="180px" height="180px" version="1.1" style="shape-rendering:geometricPrecision; text-rendering:geometricPrecision; image-rendering:optimizeQuality; fill-rule:evenodd; clip-rule:evenodd"
viewBox="0 0 4.86 4.86"
 xmlns:xlink="http://www.w3.org/1999/xlink">
 <defs>
  <style type="text/css">
   <![CDATA[
    .fil0 {fill:#663333}
   ]]>
  </style>
 </defs>
 <g id="Layer_x0020_1">
  <metadata id="CorelCorpID_0Corel-Layer"/>
  <path class="fil0" d="M2.43 0c-1.34,0 -2.43,1.09 -2.43,2.43 0,1.35 1.09,2.43 2.43,2.43 1.35,0 2.43,-1.08 2.43,-2.43 0,-1.34 -1.08,-2.43 -2.43,-2.43zm1.38 3.27l-1.32 0.66c-0.02,0 -0.04,0.01 -0.06,0.01 -0.02,0 -0.04,-0.01 -0.05,-0.01l-1.32 -0.66c-0.06,-0.03 -0.09,-0.1 -0.06,-0.17 0.03,-0.06 0.11,-0.08 0.17,-0.05l1.26 0.62 1.26 -0.62c0.07,-0.03 0.14,-0.01 0.17,0.05 0.03,0.07 0.01,0.14 -0.05,0.17zm0 -0.48l-1.32 0.66c-0.02,0 -0.04,0.01 -0.06,0.01 -0.02,0 -0.04,-0.01 -0.05,-0.01l-1.32 -0.66c-0.06,-0.03 -0.09,-0.1 -0.06,-0.17 0.03,-0.06 0.11,-0.08 0.17,-0.05l1.26 0.62 1.26 -0.62c0.07,-0.04 0.14,-0.01 0.17,0.05 0.03,0.07 0.01,0.14 -0.05,0.17zm0 -0.48l-1.32 0.66c-0.02,0 -0.04,0.01 -0.06,0.01 -0.02,0 -0.04,-0.01 -0.05,-0.01l-1.32 -0.66c-0.06,-0.03 -0.09,-0.1 -0.06,-0.17 0.03,-0.06 0.11,-0.09 0.17,-0.05l1.26 0.62 1.26 -0.62c0.07,-0.04 0.14,-0.01 0.17,0.05 0.03,0.07 0.01,0.14 -0.05,0.17zm0 -0.5l-1.32 0.65c-0.02,0.01 -0.04,0.01 -0.06,0.01 -0.02,0 -0.04,0 -0.05,-0.01l-1.32 -0.65c-0.04,-0.02 -0.07,-0.07 -0.07,-0.11 0,-0.05 0.03,-0.1 0.07,-0.12l1.32 -0.65c0.03,-0.02 0.07,-0.02 0.11,0l1.32 0.65c0.04,0.02 0.07,0.07 0.07,0.12 0,0.04 -0.03,0.09 -0.07,0.11z"/>
 </g>
</svg>
