<?xml version="1.0" encoding="UTF-8"?>
<!DOCTYPE svg PUBLIC "-//W3C//DTD SVG 1.1//EN" "http://www.w3.org/Graphics/SVG/1.1/DTD/svg11.dtd">
<!-- Creator: CorelDRAW 2017 -->
<svg xmlns="http://www.w3.org/2000/svg" xml:space="preserve" width="180px" height="180px" version="1.1" style="shape-rendering:geometricPrecision; text-rendering:geometricPrecision; image-rendering:optimizeQuality; fill-rule:evenodd; clip-rule:evenodd"
viewBox="0 0 4.86 4.86"
 xmlns:xlink="http://www.w3.org/1999/xlink">
 <defs>
  <style type="text/css">
   <![CDATA[
    .fil0 {fill:#663333}
   ]]>
  </style>
 </defs>
 <g id="Layer_x0020_1">
  <metadata id="CorelCorpID_0Corel-Layer"/>
  <g id="_2855429481776">
   <path class="fil0" d="M3.32 2.67c0.02,0.11 -0.27,0.07 -0.35,0.17 -0.07,0.1 -0.25,0.04 -0.29,0.02 -0.04,-0.02 -0.2,0.04 -0.18,-0.07 0.01,-0.11 0.11,-0.11 0.21,-0.16 0.1,-0.04 0.25,-0.19 0.18,-0.21 -0.35,-0.09 -0.46,-0.42 -0.46,-0.42 -0.02,0 -0.02,-0.23 -0.11,-0.23 -0.09,-0.01 -0.13,0.02 -0.26,0 -0.14,-0.03 -0.11,-0.11 -0.13,-0.29 -0.02,-0.18 0.06,-0.12 0.1,-0.18 0,-0.01 0.01,-0.01 0.01,-0.02 -0.48,0.17 -0.82,0.62 -0.82,1.15 0,0 0,0 0,0.01 0.09,0 0.25,0.02 0.26,0.08 0.01,0.08 0,0.19 0.07,0.22 0.07,0.03 0.09,-0.12 0.16,-0.08 0.06,0.04 0.23,0.08 0.23,0.15 0,0.08 -0.03,0.19 0,0.22 0.03,0.02 0.16,0.16 0.16,0.18 0,0.03 0.04,0.13 0.03,0.17 -0.01,0.04 -0.07,0.14 -0.12,0.19 0.13,0.05 0.27,0.08 0.42,0.08 0.67,0 1.22,-0.55 1.22,-1.22 0,-0.2 -0.05,-0.38 -0.14,-0.55 0.01,0.12 0.01,0.24 0.03,0.27 0.12,0.17 -0.28,0.28 -0.22,0.52z"/>
   <path class="fil0" d="M2.43 0c-1.34,0 -2.43,1.09 -2.43,2.43 0,1.35 1.09,2.43 2.43,2.43 1.35,0 2.43,-1.08 2.43,-2.43 0,-1.34 -1.08,-2.43 -2.43,-2.43zm0 3.9c-0.81,0 -1.46,-0.66 -1.46,-1.47 0,-0.81 0.65,-1.46 1.46,-1.46 0.81,0 1.47,0.65 1.47,1.46 0,0.81 -0.66,1.47 -1.47,1.47z"/>
  </g>
 </g>
</svg>
