<?xml version="1.0" encoding="UTF-8"?>
<!DOCTYPE svg PUBLIC "-//W3C//DTD SVG 1.1//EN" "http://www.w3.org/Graphics/SVG/1.1/DTD/svg11.dtd">
<!-- Creator: CorelDRAW 2017 -->
<svg xmlns="http://www.w3.org/2000/svg" xml:space="preserve" width="180px" height="180px" version="1.1" style="shape-rendering:geometricPrecision; text-rendering:geometricPrecision; image-rendering:optimizeQuality; fill-rule:evenodd; clip-rule:evenodd"
viewBox="0 0 4.86 4.86"
 xmlns:xlink="http://www.w3.org/1999/xlink">
 <defs>
  <style type="text/css">
   <![CDATA[
    .fil0 {fill:#663333}
   ]]>
  </style>
 </defs>
 <g id="Layer_x0020_1">
  <metadata id="CorelCorpID_0Corel-Layer"/>
  <path class="fil0" d="M2.43 0c-1.34,0 -2.43,1.09 -2.43,2.43 0,1.35 1.09,2.43 2.43,2.43 1.35,0 2.43,-1.08 2.43,-2.43 0,-1.34 -1.08,-2.43 -2.43,-2.43zm-1.77 3.35c0,-0.76 0.67,-0.76 0.82,-0.96l0.01 -0.09c-0.21,-0.11 -0.35,-0.36 -0.35,-0.66 0,-0.39 0.25,-0.71 0.57,-0.71 0.24,0 0.45,0.2 0.53,0.48 -0.31,0.1 -0.54,0.44 -0.54,0.84 0,0.28 0.11,0.54 0.29,0.7 -0.03,0.02 -0.07,0.03 -0.09,0.04 -0.15,0.07 -0.35,0.17 -0.5,0.36l-0.74 0zm1.78 0.61l0 0 -0.02 0 -1.03 0c0,-0.76 0.66,-0.76 0.81,-0.96l0.02 -0.09c-0.21,-0.11 -0.36,-0.36 -0.36,-0.66 0,-0.39 0.26,-0.71 0.57,-0.71 0.32,0 0.57,0.32 0.57,0.71 0,0.3 -0.14,0.55 -0.35,0.66l0.02 0.1c0.16,0.19 0.81,0.2 0.81,0.95l-1.04 0zm1.02 -0.61l0 0 0 0c-0.14,-0.19 -0.35,-0.29 -0.49,-0.36 -0.03,-0.01 -0.06,-0.02 -0.09,-0.04 0.18,-0.16 0.29,-0.42 0.29,-0.7 0,-0.4 -0.23,-0.74 -0.55,-0.84 0.08,-0.28 0.29,-0.48 0.54,-0.48 0.31,0 0.57,0.32 0.57,0.71 0,0.3 -0.15,0.55 -0.35,0.66l0.02 0.1c0.16,0.19 0.8,0.2 0.8,0.95l-0.74 0z"/>
 </g>
</svg>
