<?xml version="1.0" encoding="UTF-8"?>
<!DOCTYPE svg PUBLIC "-//W3C//DTD SVG 1.1//EN" "http://www.w3.org/Graphics/SVG/1.1/DTD/svg11.dtd">
<!-- Creator: CorelDRAW 2017 -->
<svg xmlns="http://www.w3.org/2000/svg" xml:space="preserve" width="180px" height="180px" version="1.1" style="shape-rendering:geometricPrecision; text-rendering:geometricPrecision; image-rendering:optimizeQuality; fill-rule:evenodd; clip-rule:evenodd"
viewBox="0 0 4.86 4.86"
 xmlns:xlink="http://www.w3.org/1999/xlink">
 <defs>
  <style type="text/css">
   <![CDATA[
    .fil0 {fill:#663333}
   ]]>
  </style>
 </defs>
 <g id="Layer_x0020_1">
  <metadata id="CorelCorpID_0Corel-Layer"/>
  <g id="_2855412008640">
   <rect class="fil0" x="1.42" y="2.93" width="1.51" height="0.17"/>
   <rect class="fil0" x="1.42" y="2.55" width="1.51" height="0.17"/>
   <rect class="fil0" x="1.42" y="2.18" width="1.51" height="0.17"/>
   <rect class="fil0" x="1.42" y="3.32" width="1.51" height="0.17"/>
   <path class="fil0" d="M2.43 0c-1.34,0 -2.43,1.09 -2.43,2.43 0,1.35 1.09,2.43 2.43,2.43 1.35,0 2.43,-1.08 2.43,-2.43 0,-1.34 -1.08,-2.43 -2.43,-2.43zm0.84 3.44l0 0.29c0,0.17 -0.13,0.3 -0.3,0.3l-1.58 0c-0.17,0 -0.3,-0.13 -0.3,-0.3l0 -2.18c0,-0.16 0.13,-0.29 0.3,-0.29l1.58 0c0.17,0 0.3,0.13 0.3,0.29 0,0 0,0.3 0,0.3l0 1.59zm0.38 -0.38l0 0.29c0,0.14 -0.09,0.25 -0.21,0.29l0 -0.2 0 -1.59 0 -0.3c0,-0.25 -0.21,-0.46 -0.47,-0.46l-1.49 0c0.04,-0.12 0.15,-0.21 0.28,-0.21l1.59 0c0.17,0 0.3,0.13 0.3,0.29l0 0.3 0 0 0 1.59z"/>
   <rect class="fil0" x="1.42" y="1.81" width="1.51" height="0.17"/>
  </g>
 </g>
</svg>
