<?xml version="1.0" encoding="UTF-8"?>
<!DOCTYPE svg PUBLIC "-//W3C//DTD SVG 1.1//EN" "http://www.w3.org/Graphics/SVG/1.1/DTD/svg11.dtd">
<!-- Creator: CorelDRAW 2017 -->
<svg xmlns="http://www.w3.org/2000/svg" xml:space="preserve" width="180px" height="180px" version="1.1" style="shape-rendering:geometricPrecision; text-rendering:geometricPrecision; image-rendering:optimizeQuality; fill-rule:evenodd; clip-rule:evenodd"
viewBox="0 0 4.86 4.86"
 xmlns:xlink="http://www.w3.org/1999/xlink">
 <defs>
  <style type="text/css">
   <![CDATA[
    .fil0 {fill:#663333}
   ]]>
  </style>
 </defs>
 <g id="Layer_x0020_1">
  <metadata id="CorelCorpID_0Corel-Layer"/>
  <g id="_2855370465984">
   <path class="fil0" d="M2.43 1.22c-0.67,0 -1.21,0.54 -1.21,1.21 0,0.67 0.54,1.21 1.21,1.21 0.67,0 1.21,-0.54 1.21,-1.21 0,-0.67 -0.54,-1.21 -1.21,-1.21zm-0.67 1.88l0.35 -0.82 0.47 0.47 -0.82 0.35zm1 -0.53l-0.47 -0.47 0.81 -0.34 -0.34 0.81z"/>
   <path class="fil0" d="M2.43 0c-1.34,0 -2.43,1.09 -2.43,2.43 0,1.35 1.09,2.43 2.43,2.43 1.35,0 2.43,-1.08 2.43,-2.43 0,-1.34 -1.08,-2.43 -2.43,-2.43zm0 3.89c-0.8,0 -1.46,-0.66 -1.46,-1.46 0,-0.81 0.66,-1.47 1.46,-1.47 0.81,0 1.47,0.66 1.47,1.47 0,0.8 -0.66,1.46 -1.47,1.46z"/>
  </g>
 </g>
</svg>
