<?xml version="1.0" encoding="UTF-8"?>
<!DOCTYPE svg PUBLIC "-//W3C//DTD SVG 1.1//EN" "http://www.w3.org/Graphics/SVG/1.1/DTD/svg11.dtd">
<!-- Creator: CorelDRAW 2017 -->
<svg xmlns="http://www.w3.org/2000/svg" xml:space="preserve" width="409px" height="409px" version="1.1" style="shape-rendering:geometricPrecision; text-rendering:geometricPrecision; image-rendering:optimizeQuality; fill-rule:evenodd; clip-rule:evenodd"
viewBox="0 0 51.42 51.42"
 xmlns:xlink="http://www.w3.org/1999/xlink">
 <defs>
  <style type="text/css">
   <![CDATA[
    .str0 {stroke:#9CFF9C;stroke-width:1.19;stroke-miterlimit:22.9256}
    .fil0 {fill:none;fill-rule:nonzero}
   ]]>
  </style>
 </defs>
 <g id="PowerClip_x0020_Contents">
  <metadata id="CorelCorpID_0Corel-Layer"/>
  <g id="_2855335419952">
   <path class="fil0 str0" d="M49.53 17.74c4.4,13.15 -2.7,27.39 -15.85,31.79 -13.15,4.4 -27.39,-2.7 -31.79,-15.85 -4.4,-13.15 2.7,-27.39 15.85,-31.79 13.15,-4.4 27.39,2.7 31.79,15.85zm0 0z"/>
   <polygon class="fil0 str0" points="8.96,14.62 15.14,12.55 16.17,15.63 27.26,11.92 26.23,8.84 32.41,6.77 42.74,37.65 19.29,45.49 "/>
   <path class="fil0 str0" d="M32.07 19.68c1.4,4.17 -0.85,8.67 -5.01,10.06 -4.16,1.39 -8.67,-0.85 -10.06,-5.01 -1.39,-4.16 0.85,-8.67 5.02,-10.06 4.16,-1.39 8.66,0.85 10.05,5.01zm0 0z"/>
   <path class="fil0 str0" d="M27.18 18.99c0.62,1.85 -0.38,3.84 -2.23,4.46 -1.84,0.62 -3.84,-0.38 -4.46,-2.22 -0.62,-1.85 0.38,-3.85 2.23,-4.47 1.84,-0.62 3.84,0.38 4.46,2.23zm0 0z"/>
   <path class="fil0 str0" d="M27.06 29.74c2.23,-0.75 3.91,-2.39 4.78,-4.39 -1.65,-1.91 -4.35,-2.75 -6.89,-1.9 -2.54,0.85 -4.19,3.14 -4.35,5.66 1.9,1.08 4.23,1.38 6.46,0.63zm0 0z"/>
   <path class="fil0 str0" d="M23.72 8.72c-0.67,-1.75 -2.6,-2.68 -4.39,-2.08 -1.79,0.6 -2.78,2.5 -2.25,4.3l-2.23 0.75 1.32 3.94 11.09 -3.71 -1.32 -3.95 -2.22 0.75z"/>
   <path class="fil0 str0" d="M18.29 34.66l7.01 -2.35 0.63 1.88 -7.01 2.35 -0.63 -1.88zm0 0z"/>
   <path class="fil0 str0" d="M25.89 32.11l9.68 -3.24 0.63 1.89 -9.68 3.23 -0.63 -1.88zm0 0z"/>
   <path class="fil0 str0" d="M27.63 31.53l7.94 -2.66 0.63 1.89 -7.94 2.65 -0.63 -1.88zm0 0z"/>
   <path class="fil0 str0" d="M19.31 37.73l7.02 -2.35 0.63 1.88 -7.02 2.35 -0.63 -1.88zm0 0z"/>
   <path class="fil0 str0" d="M26.92 35.18l6.54 -2.19 0.63 1.89 -6.54 2.19 -0.63 -1.89zm0 0z"/>
   <path class="fil0 str0" d="M28.66 34.6l4.8 -1.61 0.63 1.89 -4.8 1.6 -0.63 -1.88zm0 0z"/>
   <path class="fil0 str0" d="M20.34 40.8l7.01 -2.35 0.63 1.88 -7.01 2.35 -0.63 -1.88zm0 0z"/>
   <path class="fil0 str0" d="M27.95 38.25l11.13 -3.72 0.63 1.88 -11.13 3.73 -0.63 -1.89zm0 0z"/>
   <path class="fil0 str0" d="M29.69 37.67l9.39 -3.14 0.63 1.88 -9.39 3.14 -0.63 -1.88zm0 0z"/>
  </g>
 </g>
</svg>
