<?xml version="1.0" encoding="UTF-8"?>
<!DOCTYPE svg PUBLIC "-//W3C//DTD SVG 1.1//EN" "http://www.w3.org/Graphics/SVG/1.1/DTD/svg11.dtd">
<!-- Creator: CorelDRAW 2017 -->
<svg xmlns="http://www.w3.org/2000/svg" xml:space="preserve" width="804px" height="766px" version="1.1" style="shape-rendering:geometricPrecision; text-rendering:geometricPrecision; image-rendering:optimizeQuality; fill-rule:evenodd; clip-rule:evenodd"
viewBox="0 0 147.3 140.32"
 xmlns:xlink="http://www.w3.org/1999/xlink">
 <defs>
  <style type="text/css">
   <![CDATA[
    .fil23 {fill:none;fill-rule:nonzero}
    .fil15 {fill:#3D469A;fill-rule:nonzero}
    .fil24 {fill:#4B64BA;fill-rule:nonzero}
    .fil13 {fill:#599AF2;fill-rule:nonzero}
    .fil19 {fill:#6060B5;fill-rule:nonzero}
    .fil14 {fill:#EBF0F6;fill-rule:nonzero}
    .fil6 {fill:#EF919C;fill-rule:nonzero}
    .fil26 {fill:#F28293;fill-rule:nonzero}
    .fil10 {fill:#F6A8B3;fill-rule:nonzero}
    .fil11 {fill:white;fill-rule:nonzero}
    .fil27 {fill:white;fill-rule:nonzero;fill-opacity:0.121569}
    .fil9 {fill:#3D469A;fill-rule:nonzero;fill-opacity:0.141176}
    .fil21 {fill:white;fill-rule:nonzero;fill-opacity:0.211765}
    .fil20 {fill:#3D469A;fill-rule:nonzero;fill-opacity:0.278431}
    .fil1 {fill:#E1E2FD;fill-rule:nonzero;fill-opacity:0.309804}
    .fil18 {fill:#3D469A;fill-rule:nonzero;fill-opacity:0.388235}
    .fil17 {fill:#6D6BD4;fill-rule:nonzero;fill-opacity:0.388235}
    .fil12 {fill:#F6A8B3;fill-rule:nonzero;fill-opacity:0.388235}
    .fil0 {fill:#E1E2FD;fill-rule:nonzero;fill-opacity:0.411765}
    .fil25 {fill:#3D469A;fill-rule:nonzero;fill-opacity:0.431373}
    .fil3 {fill:#E1E2FD;fill-rule:nonzero;fill-opacity:0.470588}
    .fil2 {fill:#EBF0F6;fill-rule:nonzero;fill-opacity:0.470588}
    .fil5 {fill:#3D469A;fill-rule:nonzero;fill-opacity:0.580392}
    .fil7 {fill:white;fill-rule:nonzero;fill-opacity:0.658824}
    .fil16 {fill:#6D6BD4;fill-rule:nonzero;fill-opacity:0.741176}
    .fil22 {fill:white;fill-rule:nonzero;fill-opacity:0.760784}
    .fil4 {fill:#E1E2FD;fill-rule:nonzero;fill-opacity:0.811765}
    .fil8 {fill:white;fill-rule:nonzero;fill-opacity:0.811765}
   ]]>
  </style>
 </defs>
 <g id="PowerClip_x0020_Contents">
  <metadata id="CorelCorpID_0Corel-Layer"/>
  <g id="_2133119065040">
   <g>
    <g>
     <g>
      <g>
       <path class="fil0" d="M147.23 88.5c0.14,-2.37 0.08,-4.74 -0.19,-7.09 -1.25,-11.05 -6.92,-21.47 -15.26,-28.82 -2.98,-2.62 -6.37,-4.97 -8.3,-8.43 -3.26,-5.83 -3.02,-12.53 -7.07,-18.29 -4.05,-5.76 -9.96,-10.25 -16.62,-12.56 -19.86,-6.88 -47.66,4.32 -45.16,28.25 0.01,0.08 0.02,0.21 0.03,0.37 0.34,4.97 -3.57,9.15 -8.53,9.26 -18.32,0.44 -34.1,14.57 -37.47,32.46 -2.17,11.51 1.38,24.12 9.8,32.27 6.28,6.07 14.72,9.41 23.15,11.71 16.92,4.59 34.71,5.56 52.15,3.8 16.33,-1.65 33.55,-6.34 44.1,-18.9 5.64,-6.7 8.86,-15.29 9.37,-24.03z"/>
      </g>
     </g>
    </g>
    <g>
     <path class="fil1" d="M67.57 7.33c0,2.36 -1.91,4.26 -4.27,4.26 -2.35,0 -4.26,-1.9 -4.26,-4.26 0,-2.35 1.91,-4.26 4.26,-4.26 2.36,0 4.27,1.91 4.27,4.26z"/>
    </g>
    <g>
     <path class="fil1" d="M123.11 4.73c0,1.22 -0.99,2.2 -2.2,2.2 -1.21,0 -2.2,-0.98 -2.2,-2.2 0,-1.21 0.99,-2.2 2.2,-2.2 1.21,0 2.2,0.99 2.2,2.2z"/>
    </g>
    <g>
     <path class="fil1" d="M46.21 16.87c0,1.63 -1.32,2.95 -2.95,2.95 -1.63,0 -2.95,-1.32 -2.95,-2.95 0,-1.62 1.32,-2.94 2.95,-2.94 1.63,0 2.95,1.32 2.95,2.94z"/>
    </g>
    <g>
     <path class="fil1" d="M15.98 123.77c0,3.71 -3,6.72 -6.71,6.72 -3.7,0 -6.71,-3.01 -6.71,-6.72 0,-3.7 3.01,-6.71 6.71,-6.71 3.71,0 6.71,3.01 6.71,6.71z"/>
    </g>
   </g>
  </g>
  <g id="_2133119000048">
   <g>
    <g>
     <path class="fil2" d="M145.4 19.06c1.92,-3.73 0.45,-8.3 -3.28,-10.21 -3.73,-1.92 -10.89,-1.78 -12.8,1.95 -1.91,3.73 3.82,6.93 6.16,10.4 3.26,4.85 8.01,1.58 9.92,-2.14z"/>
    </g>
    <g>
     <path class="fil3" d="M129.11 133.6c2.69,1.74 6.29,0.96 8.03,-1.73 1.74,-2.7 2.18,-8.17 -0.52,-9.91 -2.69,-1.74 -5.57,2.39 -8.39,3.91 -3.95,2.12 -1.82,5.99 0.88,7.73z"/>
    </g>
    <g>
     <path class="fil3" d="M19.05 1.96c-2.96,-2.76 -7.6,-2.58 -10.35,0.38 -2.76,2.97 -4.5,9.66 -1.53,12.42 2.96,2.75 7.44,-1.74 11.28,-3.01 5.36,-1.77 3.57,-7.04 0.6,-9.79z"/>
    </g>
   </g>
   <g>
    <g>
     <path class="fil3" d="M2.71 33.97c-2.65,5.74 -3.37,12.36 -2.1,18.55 1.49,7.27 6.02,12.86 4.45,20.62 -0.96,4.72 -1.2,9.1 -1.69,13.78 -0.99,9.6 5.24,18.06 12.98,22.63 6.28,3.71 13.64,5.1 20.86,5 6.5,-0.09 12.99,-1.29 19.29,-2.9 6.07,-1.56 12.01,-3.61 18.37,-2.96 5.29,0.54 10.06,2.83 14.98,4.53 11.77,4.07 26.02,4.65 36.78,-1.55 6.9,-3.98 11.74,-10.44 13.88,-17.39 1.71,-5.55 1.93,-10.74 0.65,-16.41 -1.32,-5.82 -3.55,-11.69 -2.86,-17.75 0.48,-4.23 2.42,-8.31 2.06,-12.54 -0.23,-2.82 -1.47,-5.46 -2.99,-7.85 -5.53,-8.7 -14.8,-14.53 -24.61,-17.74 -9.23,-3.03 -18.74,-5.22 -28.35,-4.49 -19.86,1.51 -23.91,-1.65 -44.21,-5.99 -13.11,-2.8 -27.77,7.19 -35.43,18.76 -0.79,1.18 -1.47,2.42 -2.06,3.7z"/>
    </g>
    <g>
     <g>
      <path class="fil4" d="M16.37 42.92c-0.41,4.58 1.14,9.31 -0.15,13.85 -1.55,5.43 -6.03,9.5 -7.85,14.84 -2.7,7.88 -2.57,16.71 0.71,24.4 1.57,3.7 3.88,7.14 7.03,9.52 4.85,3.67 11.22,4.47 17.2,4.01 8.9,-0.69 18.3,-4.55 27.25,-3.5 4.94,0.58 6.45,5.93 9,9.46 2.89,3.99 6.82,7.12 11.16,9.2 8,3.85 17.61,4.21 25.79,0.73 8.73,-3.72 16.34,-12.8 15.84,-23.07 -0.23,-4.76 -2.14,-9.48 -1.26,-14.14 1.11,-5.86 5.52,-11.2 8.72,-15.98 3.54,-5.27 5.67,-11.55 6.09,-17.97 0.01,-0.07 0.01,-0.14 0.02,-0.22 0.65,-11.06 -6.33,-21.15 -16.86,-24.62 0,0 -22.4,-7.36 -22.4,-7.37 -22.73,-7.47 -45.45,-7.22 -66.35,3.75 -4.52,2.37 -11.89,9.45 -13.4,14.33 -0.29,0.92 -0.46,1.84 -0.54,2.78z"/>
     </g>
    </g>
   </g>
  </g>
  <g id="_2133119006800">
   <path class="fil5" d="M144.97 115.15c0,0.8 -0.65,1.44 -1.45,1.44 -0.79,0 -1.44,-0.64 -1.44,-1.44 0,-0.8 0.65,-1.44 1.44,-1.44 0.8,0 1.45,0.64 1.45,1.44z"/>
  </g>
  <g id="_2133119006992">
   <path class="fil5" d="M78.3 2.67c0,0.8 -0.65,1.45 -1.44,1.45 -0.8,0 -1.45,-0.65 -1.45,-1.45 0,-0.79 0.65,-1.44 1.45,-1.44 0.79,0 1.44,0.65 1.44,1.44z"/>
  </g>
  <g id="_2133119005456">
   <path class="fil5" d="M26.16 128.46c0,0.8 -0.64,1.44 -1.44,1.44 -0.8,0 -1.44,-0.64 -1.44,-1.44 0,-0.8 0.64,-1.45 1.44,-1.45 0.8,0 1.44,0.65 1.44,1.45z"/>
  </g>
  <path class="fil6" d="M116.93 134.53c0,0.62 -0.5,1.12 -1.12,1.12 -0.62,0 -1.12,-0.5 -1.12,-1.12 0,-0.62 0.5,-1.13 1.12,-1.13 0.62,0 1.12,0.51 1.12,1.13z"/>
  <g id="_2133119008208">
   <path class="fil5" d="M18.83 27.25c0,0.27 -0.21,0.48 -0.48,0.48 -0.27,0 -0.48,-0.21 -0.48,-0.48 0,-0.26 0.21,-0.48 0.48,-0.48 0.27,0 0.48,0.22 0.48,0.48z"/>
  </g>
  <path class="fil6" d="M120.82 12.9c-0.2,0.94 -1.12,1.53 -2.06,1.33 -0.93,-0.2 -1.53,-1.12 -1.33,-2.05 0.2,-0.94 1.12,-1.54 2.06,-1.34 0.93,0.2 1.53,1.13 1.33,2.06z"/>
  <path class="fil6" d="M28.21 4.94c-0.08,0.36 -0.44,0.6 -0.81,0.52 -0.37,-0.08 -0.6,-0.44 -0.52,-0.81 0.07,-0.36 0.44,-0.6 0.8,-0.52 0.37,0.08 0.6,0.44 0.53,0.81z"/>
  <g id="_2133119007504">
   <path class="fil5" d="M136.53 2.08c-0.07,0.31 -0.38,0.51 -0.69,0.45 -0.31,-0.07 -0.51,-0.38 -0.44,-0.69 0.06,-0.31 0.37,-0.51 0.68,-0.44 0.31,0.06 0.51,0.37 0.45,0.68z"/>
  </g>
  <g id="_2133119008400">
   <path class="fil5" d="M14.32 139.86c-0.07,0.32 -0.37,0.52 -0.68,0.45 -0.32,-0.07 -0.52,-0.38 -0.45,-0.69 0.07,-0.31 0.37,-0.51 0.69,-0.44 0.31,0.07 0.51,0.37 0.44,0.68z"/>
  </g>
  <g id="_2133119009616">
   <g>
    <g>
     <g>
      <g>
       <path class="fil7" d="M55.89 53.63l-2.55 -0.19c-0.19,-1.93 -0.8,-3.74 -1.74,-5.34l1.94 -1.67c0.98,-0.84 1.09,-2.32 0.25,-3.31 -0.84,-0.98 -2.33,-1.09 -3.31,-0.25l-1.94 1.67c-1.44,-1.18 -3.14,-2.06 -5.01,-2.54l0.19 -2.55c0.1,-1.3 -0.87,-2.42 -2.16,-2.52 -1.29,-0.1 -2.42,0.87 -2.52,2.16l-0.19 2.55c-1.92,0.2 -3.74,0.81 -5.34,1.75l-1.67 -1.94c-0.84,-0.99 -2.32,-1.1 -3.31,-0.26 -0.98,0.85 -1.09,2.33 -0.25,3.31l1.67 1.95c-1.18,1.44 -2.05,3.14 -2.54,5.01l-2.55 -0.2c-1.29,-0.1 -2.42,0.87 -2.52,2.16 -0.1,1.3 0.87,2.42 2.16,2.52l2.55 0.2c0.2,1.92 0.81,3.73 1.75,5.33l-1.94 1.67c-0.98,0.84 -1.1,2.33 -0.25,3.31 0.84,0.98 2.32,1.1 3.31,0.25l1.94 -1.66c1.44,1.17 3.14,2.05 5.01,2.53l-0.2 2.56c-0.1,1.29 0.87,2.42 2.17,2.51 1.29,0.1 2.42,-0.86 2.51,-2.16l0.2 -2.55c1.92,-0.19 3.73,-0.81 5.34,-1.75l1.66 1.95c0.85,0.98 2.33,1.09 3.31,0.25 0.99,-0.85 1.1,-2.33 0.26,-3.31l-1.67 -1.94c1.17,-1.45 2.05,-3.14 2.54,-5.01l2.55 0.19c1.29,0.1 2.42,-0.87 2.52,-2.16 0.1,-1.29 -0.87,-2.42 -2.17,-2.52zm-16.42 10.69l0 0c-5.27,-0.4 -9.21,-5 -8.81,-10.26 0.4,-5.27 5,-9.21 10.27,-8.81 5.26,0.4 9.21,5 8.8,10.26 -0.4,5.27 -4.99,9.21 -10.26,8.81z"/>
      </g>
     </g>
     <g>
      <g>
       <path class="fil7" d="M110.43 125.6c-0.31,0 -0.62,-0.07 -0.9,-0.22 -0.47,-0.24 -0.81,-0.65 -0.97,-1.15l-0.46 -1.44c-1.18,0.12 -2.36,0.01 -3.5,-0.31l-0.7 1.35c-0.5,0.96 -1.68,1.33 -2.64,0.84 -0.46,-0.24 -0.81,-0.65 -0.96,-1.15 -0.16,-0.5 -0.12,-1.03 0.12,-1.49l0.7 -1.35c-0.92,-0.75 -1.68,-1.66 -2.26,-2.69l-1.45 0.46c-1.03,0.32 -2.13,-0.25 -2.46,-1.28 -0.15,-0.5 -0.11,-1.03 0.13,-1.49 0.24,-0.46 0.65,-0.81 1.15,-0.96l1.45 -0.46c-0.12,-1.19 -0.02,-2.37 0.3,-3.51l-1.35 -0.7c-0.46,-0.24 -0.8,-0.65 -0.96,-1.15 -0.16,-0.49 -0.11,-1.02 0.13,-1.49 0.24,-0.46 0.64,-0.8 1.14,-0.96 0.5,-0.16 1.03,-0.11 1.49,0.13l1.35 0.7c0.75,-0.93 1.66,-1.69 2.7,-2.27l-0.46 -1.45c-0.33,-1.03 0.24,-2.13 1.27,-2.45 0.5,-0.16 1.03,-0.12 1.49,0.13 0.47,0.24 0.81,0.64 0.97,1.14l0.46 1.45c1.18,-0.12 2.36,-0.02 3.5,0.3l0.7 -1.35c0.5,-0.95 1.68,-1.33 2.64,-0.83 0.96,0.5 1.33,1.68 0.84,2.64l-0.7 1.34c0.92,0.76 1.68,1.66 2.26,2.7l1.45 -0.46c0.5,-0.16 1.03,-0.11 1.49,0.13 0.47,0.24 0.81,0.65 0.97,1.14 0.32,1.03 -0.25,2.13 -1.28,2.46l-1.45 0.46c0.12,1.18 0.02,2.36 -0.3,3.51l1.35 0.7c0.96,0.49 1.33,1.68 0.83,2.63 -0.24,0.47 -0.64,0.81 -1.14,0.97 -0.5,0.15 -1.03,0.11 -1.49,-0.13l-1.35 -0.7c-0.75,0.92 -1.66,1.68 -2.7,2.26l0.46 1.45c0.16,0.5 0.11,1.03 -0.13,1.49 -0.24,0.47 -0.64,0.81 -1.14,0.97 -0.2,0.06 -0.4,0.09 -0.59,0.09zm-1.87 -3.52l0 0 0.61 1.96c0.11,0.33 0.34,0.61 0.65,0.77 0.31,0.16 0.67,0.19 1,0.09 0.34,-0.11 0.61,-0.34 0.77,-0.65 0.17,-0.31 0.2,-0.67 0.09,-1l-0.62 -1.96 0.24 -0.12c1.13,-0.6 2.11,-1.42 2.89,-2.43l0.16 -0.22 1.82 0.95c0.31,0.16 0.67,0.19 1,0.09 0.34,-0.11 0.61,-0.34 0.77,-0.65 0.34,-0.65 0.09,-1.44 -0.56,-1.78l-1.82 -0.94 0.08 -0.26c0.38,-1.22 0.49,-2.49 0.33,-3.76l-0.04 -0.26 1.96 -0.62c0.69,-0.22 1.07,-0.96 0.85,-1.65 -0.1,-0.34 -0.33,-0.61 -0.64,-0.77 -0.31,-0.16 -0.67,-0.19 -1.01,-0.09l-1.95 0.62 -0.13 -0.24c-0.59,-1.13 -1.41,-2.1 -2.43,-2.89l-0.21 -0.16 0.95 -1.82c0.33,-0.64 0.08,-1.44 -0.57,-1.77 -0.64,-0.34 -1.43,-0.08 -1.77,0.56l-0.94 1.82 -0.26 -0.08c-1.22,-0.38 -2.49,-0.49 -3.76,-0.32l-0.27 0.03 -0.61 -1.96c-0.11,-0.33 -0.34,-0.6 -0.65,-0.77 -0.31,-0.16 -0.67,-0.19 -1,-0.08 -0.7,0.22 -1.08,0.96 -0.86,1.65l0.62 1.95 -0.24 0.13c-1.13,0.6 -2.11,1.41 -2.89,2.43l-0.16 0.21 -1.82 -0.94c-0.31,-0.17 -0.67,-0.2 -1,-0.09 -0.34,0.11 -0.61,0.34 -0.77,0.65 -0.17,0.31 -0.2,0.67 -0.09,1 0.1,0.33 0.33,0.61 0.65,0.77l1.82 0.95 -0.08 0.25c-0.38,1.22 -0.49,2.49 -0.33,3.76l0.04 0.27 -1.96 0.62c-0.33,0.1 -0.61,0.33 -0.77,0.64 -0.16,0.32 -0.19,0.67 -0.08,1.01 0.21,0.69 0.96,1.07 1.65,0.85l1.95 -0.62 0.13 0.24c0.59,1.14 1.41,2.11 2.43,2.89l0.21 0.16 -0.95 1.82c-0.16,0.32 -0.19,0.67 -0.08,1.01 0.1,0.33 0.33,0.61 0.65,0.77 0.64,0.33 1.43,0.08 1.77,-0.56l0.94 -1.82 0.26 0.07c1.22,0.38 2.49,0.49 3.76,0.33l0.27 -0.04zm-1.41 -1.79l0 0c-1.11,0 -2.2,-0.26 -3.21,-0.78 -1.66,-0.86 -2.88,-2.32 -3.44,-4.09 -0.57,-1.78 -0.4,-3.67 0.46,-5.33 0.86,-1.65 2.31,-2.88 4.09,-3.44 1.78,-0.56 3.67,-0.4 5.32,0.46 1.66,0.86 2.88,2.31 3.44,4.09 0.57,1.78 0.4,3.67 -0.46,5.32 -0.86,1.66 -2.31,2.88 -4.09,3.44 -0.69,0.22 -1.4,0.33 -2.11,0.33zm0.01 -13.33l0 0c-0.64,0 -1.29,0.1 -1.92,0.3 -1.61,0.51 -2.93,1.62 -3.71,3.13 -0.78,1.5 -0.93,3.22 -0.42,4.83 0.51,1.62 1.62,2.94 3.12,3.72 1.51,0.78 3.23,0.92 4.84,0.41 1.61,-0.51 2.93,-1.62 3.71,-3.12 0.78,-1.5 0.93,-3.22 0.42,-4.84 -0.51,-1.61 -1.62,-2.93 -3.12,-3.71 -0.92,-0.48 -1.92,-0.72 -2.92,-0.72z"/>
      </g>
     </g>
     <g>
      <g>
       <path class="fil7" d="M127.27 113.63c-0.12,0 -0.24,-0.01 -0.37,-0.03 -1.37,-0.2 -2.33,-1.48 -2.13,-2.85l0.31 -2.11c-1.55,-0.56 -2.96,-1.39 -4.18,-2.49l-1.71 1.27c-0.54,0.41 -1.2,0.57 -1.87,0.48 -0.67,-0.1 -1.25,-0.45 -1.66,-0.99 -0.83,-1.11 -0.6,-2.69 0.52,-3.52l1.7 -1.28c-0.7,-1.49 -1.1,-3.07 -1.19,-4.72l-2.11 -0.3c-1.38,-0.2 -2.33,-1.48 -2.13,-2.86 0.09,-0.66 0.44,-1.25 0.98,-1.65 0.54,-0.41 1.21,-0.57 1.87,-0.48l2.11 0.31c0.55,-1.55 1.39,-2.96 2.49,-4.18l-1.27 -1.71c-0.41,-0.54 -0.57,-1.2 -0.48,-1.87 0.1,-0.67 0.45,-1.25 0.99,-1.66 0.54,-0.4 1.2,-0.57 1.87,-0.47 0.66,0.1 1.25,0.45 1.65,0.99l1.28 1.7c1.49,-0.7 3.07,-1.1 4.72,-1.19l0.3 -2.11c0.2,-1.38 1.49,-2.33 2.86,-2.13 0.66,0.09 1.25,0.44 1.65,0.98 0.4,0.54 0.57,1.21 0.48,1.87l-0.31 2.11c1.55,0.55 2.96,1.39 4.18,2.49l1.71 -1.27c1.11,-0.83 2.69,-0.61 3.53,0.51 0.83,1.11 0.6,2.69 -0.52,3.52l-1.7 1.28c0.7,1.49 1.1,3.07 1.19,4.72l2.11 0.3c1.38,0.2 2.33,1.48 2.13,2.86 -0.2,1.37 -1.48,2.33 -2.85,2.13l-2.11 -0.31c-0.56,1.55 -1.39,2.96 -2.49,4.18l1.27 1.71c0.83,1.11 0.6,2.69 -0.51,3.53 -0.54,0.4 -1.2,0.57 -1.87,0.47 -0.66,-0.1 -1.25,-0.45 -1.65,-0.99l-1.28 -1.7c-1.49,0.7 -3.07,1.1 -4.72,1.19l-0.3 2.11c-0.18,1.25 -1.26,2.16 -2.49,2.16zm-6.33 -8.31l0 0 0.2 0.18c1.27,1.19 2.75,2.07 4.4,2.62l0.25 0.08 -0.38 2.64c-0.15,1.02 0.56,1.98 1.58,2.13 1.03,0.15 1.98,-0.57 2.13,-1.59l0.39 -2.64 0.26 -0.01c1.74,-0.06 3.41,-0.48 4.97,-1.26l0.24 -0.12 1.59 2.14c0.3,0.4 0.74,0.66 1.23,0.73 0.5,0.08 1,-0.05 1.4,-0.35 0.83,-0.62 1,-1.8 0.38,-2.63l-1.59 -2.13 0.18 -0.2c1.19,-1.27 2.07,-2.75 2.62,-4.4l0.08 -0.25 2.64 0.38c1.02,0.15 1.98,-0.56 2.13,-1.59 0.15,-1.02 -0.57,-1.97 -1.59,-2.12l-2.64 -0.39 -0.01 -0.26c-0.06,-1.74 -0.48,-3.41 -1.26,-4.97l-0.12 -0.24 2.14 -1.59c0.83,-0.62 1,-1.8 0.38,-2.63 -0.3,-0.4 -0.74,-0.66 -1.23,-0.73 -0.5,-0.08 -0.99,0.05 -1.4,0.35l0 0 -2.13 1.59 -0.2 -0.18c-1.27,-1.19 -2.75,-2.07 -4.4,-2.62l-0.25 -0.08 0.38 -2.64c0.07,-0.5 -0.05,-0.99 -0.35,-1.39 -0.3,-0.4 -0.74,-0.67 -1.24,-0.74 -1.02,-0.15 -1.97,0.57 -2.12,1.59l-0.39 2.64 -0.26 0.01c-1.74,0.05 -3.41,0.48 -4.97,1.26l-0.24 0.11 -1.59 -2.13c-0.3,-0.4 -0.74,-0.66 -1.24,-0.74 -0.49,-0.07 -0.99,0.06 -1.39,0.36 -0.4,0.3 -0.66,0.74 -0.73,1.23 -0.08,0.5 0.05,0.99 0.35,1.4l1.59 2.13 -0.18 0.2c-1.19,1.27 -2.07,2.75 -2.62,4.4l-0.08 0.25 -2.64 -0.38c-0.5,-0.07 -0.99,0.05 -1.39,0.35 -0.4,0.3 -0.67,0.74 -0.74,1.23 -0.15,1.03 0.57,1.98 1.59,2.13l2.64 0.39 0.01 0.26c0.05,1.74 0.48,3.41 1.26,4.97l0.11 0.24 -2.13 1.59c-0.4,0.3 -0.66,0.74 -0.74,1.24 -0.07,0.49 0.06,0.99 0.36,1.39 0.3,0.4 0.74,0.66 1.23,0.73 0.5,0.07 0.99,-0.05 1.4,-0.35l2.13 -1.59zm8.43 0.64l0 0c-2.83,0 -5.62,-1.29 -7.44,-3.72 -3.06,-4.1 -2.22,-9.92 1.88,-12.98 1.99,-1.48 4.43,-2.11 6.88,-1.75 2.45,0.36 4.62,1.65 6.1,3.63 1.48,1.99 2.1,4.43 1.75,6.88 -0.36,2.45 -1.65,4.62 -3.63,6.1 -1.66,1.24 -3.61,1.84 -5.54,1.84zm-0.03 -17.91l0 0c-1.85,0 -3.64,0.6 -5.14,1.72 -3.82,2.85 -4.61,8.27 -1.76,12.08 2.85,3.82 8.27,4.61 12.08,1.76 1.85,-1.38 3.05,-3.4 3.38,-5.68 0.33,-2.28 -0.24,-4.56 -1.62,-6.4 -1.38,-1.85 -3.4,-3.05 -5.68,-3.38 -0.42,-0.07 -0.84,-0.1 -1.26,-0.1zm5.38 15.82l0 0 0 0 0 0z"/>
      </g>
     </g>
    </g>
   </g>
   <g>
    <g>
     <path class="fil8" d="M85.8 114.92l-6.59 0c-0.18,0 -0.32,-0.14 -0.32,-0.32 0,-0.18 0.14,-0.32 0.32,-0.32l6.59 0c0.18,0 0.32,0.14 0.32,0.32 0,0.18 -0.14,0.32 -0.32,0.32z"/>
     <path class="fil8" d="M85.8 121.77l-6.59 0c-0.18,0 -0.32,-0.15 -0.32,-0.32 0,-0.18 0.14,-0.32 0.32,-0.32l6.59 0c0.18,0 0.32,0.14 0.32,0.32 0,0.17 -0.14,0.32 -0.32,0.32z"/>
     <g>
      <g>
       <g>
        <path class="fil8" d="M90.77 128.68l-40.68 0c-0.48,0 -0.87,-0.39 -0.87,-0.87l0 -21.11c0,-0.48 0.39,-0.87 0.87,-0.87l40.68 0c0.48,0 0.87,0.39 0.87,0.87l0 21.11c0,0.48 -0.39,0.87 -0.87,0.87zm-40.68 -22.21l0 0c-0.13,0 -0.23,0.1 -0.23,0.23l0 21.11c0,0.13 0.1,0.23 0.23,0.23l40.68 0c0.13,0 0.23,-0.1 0.23,-0.23l0 -21.11c0,-0.13 -0.1,-0.23 -0.23,-0.23l-40.68 0z"/>
        <path class="fil8" d="M90.77 128.68l-40.68 0c-0.48,0 -0.87,-0.39 -0.87,-0.87l0 -21.11c0,-0.48 0.39,-0.87 0.87,-0.87l40.68 0c0.48,0 0.87,0.39 0.87,0.87l0 21.11c0,0.48 -0.39,0.87 -0.87,0.87zm-40.68 -22.21l0 0c-0.13,0 -0.23,0.1 -0.23,0.23l0 21.11c0,0.13 0.1,0.23 0.23,0.23l40.68 0c0.13,0 0.23,-0.1 0.23,-0.23l0 -21.11c0,-0.13 -0.1,-0.23 -0.23,-0.23l-40.68 0z"/>
       </g>
      </g>
      <path class="fil8" d="M85.8 111.6l-31.39 0c-0.18,0 -0.32,-0.15 -0.32,-0.32 0,-0.18 0.14,-0.33 0.32,-0.33l31.39 0c0.18,0 0.32,0.15 0.32,0.33 0,0.17 -0.14,0.32 -0.32,0.32z"/>
      <path class="fil8" d="M85.8 118.24l-31.39 0c-0.18,0 -0.32,-0.14 -0.32,-0.32 0,-0.17 0.14,-0.32 0.32,-0.32l31.39 0c0.18,0 0.32,0.15 0.32,0.32 0,0.18 -0.14,0.32 -0.32,0.32z"/>
      <path class="fil8" d="M71.33 114.92l-16.92 0c-0.18,0 -0.32,-0.14 -0.32,-0.32 0,-0.18 0.14,-0.32 0.32,-0.32l16.92 0c0.18,0 0.32,0.14 0.32,0.32 0,0.18 -0.14,0.32 -0.32,0.32z"/>
      <path class="fil8" d="M71.33 121.77l-16.92 0c-0.18,0 -0.32,-0.15 -0.32,-0.32 0,-0.18 0.14,-0.32 0.32,-0.32l16.92 0c0.18,0 0.32,0.14 0.32,0.32 0,0.17 -0.14,0.32 -0.32,0.32z"/>
      <path class="fil8" d="M65.82 124.94l-11.41 0c-0.18,0 -0.32,-0.14 -0.32,-0.32 0,-0.18 0.14,-0.32 0.32,-0.32l11.41 0c0.18,0 0.32,0.14 0.32,0.32 0,0.18 -0.14,0.32 -0.32,0.32z"/>
     </g>
    </g>
    <g>
     <path class="fil8" d="M22.77 94.39l-7.41 0c-0.17,0 -0.32,-0.15 -0.32,-0.32 0,-0.18 0.15,-0.32 0.32,-0.32l7.41 0c0.18,0 0.32,0.14 0.32,0.32 0,0.17 -0.14,0.32 -0.32,0.32z"/>
     <path class="fil8" d="M22.77 86.69l-7.41 0c-0.17,0 -0.32,-0.14 -0.32,-0.32 0,-0.18 0.15,-0.32 0.32,-0.32l7.41 0c0.18,0 0.32,0.14 0.32,0.32 0,0.18 -0.14,0.32 -0.32,0.32z"/>
     <g>
      <g>
       <g>
        <path class="fil8" d="M55.57 103.89l-45.86 0c-0.48,0 -0.87,-0.39 -0.87,-0.87l0 -23.88c0,-0.47 0.39,-0.86 0.87,-0.86l45.86 0c0.48,0 0.87,0.39 0.87,0.86l0 23.88c0,0.48 -0.39,0.87 -0.87,0.87zm-45.86 -24.97l0 0c-0.13,0 -0.23,0.1 -0.23,0.22l0 23.88c0,0.12 0.1,0.22 0.23,0.22l45.86 0c0.13,0 0.23,-0.1 0.23,-0.22l0 -23.88c0,-0.12 -0.1,-0.22 -0.23,-0.22l-45.86 0z"/>
        <path class="fil8" d="M55.57 103.89l-45.86 0c-0.48,0 -0.87,-0.39 -0.87,-0.87l0 -23.88c0,-0.47 0.39,-0.86 0.87,-0.86l45.86 0c0.48,0 0.87,0.39 0.87,0.86l0 23.88c0,0.48 -0.39,0.87 -0.87,0.87zm-45.86 -24.97l0 0c-0.13,0 -0.23,0.1 -0.23,0.22l0 23.88c0,0.12 0.1,0.22 0.23,0.22l45.86 0c0.13,0 0.23,-0.1 0.23,-0.22l0 -23.88c0,-0.12 -0.1,-0.22 -0.23,-0.22l-45.86 0z"/>
       </g>
      </g>
      <path class="fil8" d="M50.65 98.12l-35.29 0c-0.17,0 -0.32,-0.14 -0.32,-0.32 0,-0.18 0.15,-0.32 0.32,-0.32l35.29 0c0.17,0 0.32,0.14 0.32,0.32 0,0.18 -0.15,0.32 -0.32,0.32z"/>
      <path class="fil8" d="M50.65 90.65l-35.29 0c-0.17,0 -0.32,-0.14 -0.32,-0.32 0,-0.18 0.15,-0.32 0.32,-0.32l35.29 0c0.17,0 0.32,0.14 0.32,0.32 0,0.18 -0.15,0.32 -0.32,0.32z"/>
      <path class="fil8" d="M50.65 94.39l-19.03 0c-0.17,0 -0.32,-0.15 -0.32,-0.32 0,-0.18 0.15,-0.32 0.32,-0.32l19.03 0c0.17,0 0.32,0.14 0.32,0.32 0,0.17 -0.15,0.32 -0.32,0.32z"/>
      <path class="fil8" d="M50.65 86.69l-19.03 0c-0.17,0 -0.32,-0.14 -0.32,-0.32 0,-0.18 0.15,-0.32 0.32,-0.32l19.03 0c0.17,0 0.32,0.14 0.32,0.32 0,0.18 -0.15,0.32 -0.32,0.32z"/>
      <path class="fil8" d="M50.65 83.12l-12.83 0c-0.18,0 -0.32,-0.14 -0.32,-0.32 0,-0.17 0.14,-0.32 0.32,-0.32l12.83 0c0.17,0 0.32,0.15 0.32,0.32 0,0.18 -0.15,0.32 -0.32,0.32z"/>
     </g>
    </g>
   </g>
  </g>
  <g id="_2133119018416">
   <g>
    <path class="fil9" d="M108.99 116.84l-35.09 -20.8c-0.28,-0.17 -0.37,-0.53 -0.2,-0.81l28.32 -47.78c0.17,-0.28 0.53,-0.38 0.82,-0.21l35.09 20.8c0.28,0.17 0.37,0.54 0.21,0.82l-28.33 47.78c-0.17,0.28 -0.53,0.37 -0.82,0.2z"/>
    <path class="fil10" d="M108.08 114.93l-35.09 -20.8c-0.28,-0.17 -0.37,-0.54 -0.21,-0.82l28.33 -47.78c0.17,-0.28 0.53,-0.37 0.82,-0.21l35.09 20.81c0.28,0.17 0.37,0.53 0.2,0.81l-28.32 47.78c-0.17,0.28 -0.53,0.38 -0.82,0.21z"/>
   </g>
   <g>
    <path class="fil9" d="M118.16 114.35l-40.12 -7.4c-0.32,-0.06 -0.53,-0.37 -0.47,-0.69l10.07 -54.63c0.06,-0.32 0.37,-0.53 0.69,-0.47l40.12 7.39c0.32,0.06 0.53,0.37 0.47,0.69l-10.07 54.63c-0.05,0.32 -0.36,0.53 -0.69,0.48z"/>
    <polygon class="fil11" points="117.89,112.92 76.6,105.31 86.89,49.51 128.17,57.12 "/>
    <path class="fil12" d="M117.31 112.81l-40.12 -7.4c-0.33,-0.06 -0.54,-0.37 -0.48,-0.69l10.07 -54.62c0.06,-0.33 0.37,-0.54 0.69,-0.48l40.12 7.4c0.32,0.06 0.54,0.36 0.48,0.69l-10.07 54.62c-0.06,0.32 -0.37,0.54 -0.69,0.48z"/>
    <path class="fil11" d="M121.93 63.7c-0.02,0 -0.04,-0.01 -0.06,-0.01l-10.05 -1.85c-0.17,-0.03 -0.28,-0.2 -0.25,-0.37 0.03,-0.18 0.19,-0.29 0.37,-0.26l10.04 1.85c0.18,0.03 0.29,0.2 0.26,0.37 -0.03,0.16 -0.16,0.27 -0.31,0.27z"/>
    <path class="fil11" d="M121.33 66.9c-0.01,0 -0.03,0 -0.05,0l-10.05 -1.85c-0.17,-0.03 -0.29,-0.2 -0.25,-0.38 0.03,-0.17 0.19,-0.29 0.37,-0.25l10.04 1.85c0.18,0.03 0.29,0.2 0.26,0.37 -0.03,0.16 -0.16,0.26 -0.32,0.26z"/>
    <path class="fil11" d="M120.69 70.39c-0.02,0 -0.04,0 -0.06,0l-10.04 -1.86c-0.17,-0.03 -0.29,-0.2 -0.26,-0.37 0.04,-0.17 0.2,-0.29 0.38,-0.26l10.04 1.85c0.17,0.04 0.29,0.2 0.26,0.38 -0.03,0.15 -0.17,0.26 -0.32,0.26z"/>
    <g>
     <path class="fil9" d="M105.15 73.36l-17.2 -3.18c-0.35,-0.06 -0.58,-0.4 -0.52,-0.74l3.41 -18.51c0.07,-0.35 0.4,-0.58 0.75,-0.51l17.21 3.17c0.35,0.06 0.58,0.4 0.51,0.75l-3.41 18.5c-0.06,0.35 -0.4,0.58 -0.75,0.52z"/>
     <path class="fil13" d="M104.52 72.28l-16.4 -3.02c-0.35,-0.07 -0.58,-0.4 -0.52,-0.75l3.23 -17.52c0.07,-0.35 0.4,-0.58 0.75,-0.52l16.4 3.03c0.35,0.06 0.58,0.4 0.52,0.75l-3.23 17.52c-0.06,0.35 -0.4,0.58 -0.75,0.51z"/>
     <g>
      <path class="fil14" d="M108.2 55.9l-17.67 -3.26 0.31 -1.67c0.06,-0.34 0.38,-0.56 0.72,-0.5l16.47 3.04c0.32,0.06 0.54,0.37 0.48,0.7l-0.31 1.69z"/>
     </g>
     <path class="fil15" d="M95.47 61.36c-0.12,0 -0.25,-0.01 -0.38,-0.04l-0.24 -0.04c-1.3,-0.24 -2.16,-1.49 -1.92,-2.79l0.61 -3.35c0.05,-0.26 0.31,-0.44 0.56,-0.39 0.27,0.05 0.44,0.3 0.39,0.56l-0.62 3.35c-0.14,0.78 0.38,1.53 1.15,1.67l0.25 0.05c0.6,0.11 1.18,-0.29 1.3,-0.9l1.56 -8.47c0.11,-0.63 -0.3,-1.23 -0.92,-1.34l-0.42 -0.08c-0.67,-0.12 -1.3,0.32 -1.43,0.98l-0.03 0.21c-0.05,0.26 -0.31,0.43 -0.56,0.39 -0.27,-0.05 -0.44,-0.3 -0.39,-0.56l0.04 -0.21c0.22,-1.19 1.36,-1.97 2.54,-1.75l0.42 0.07c1.14,0.21 1.9,1.32 1.69,2.46l-1.56 8.48c-0.18,1 -1.06,1.7 -2.04,1.7z"/>
     <path class="fil11" d="M97.14 54.24c-0.01,0 -0.02,0 -0.03,0l-6.41 -1.18c-0.09,-0.02 -0.14,-0.1 -0.13,-0.19 0.02,-0.09 0.1,-0.15 0.19,-0.13l6.41 1.18c0.09,0.02 0.14,0.1 0.13,0.19 -0.02,0.08 -0.08,0.13 -0.16,0.13z"/>
    </g>
    <g>
     <path class="fil11" d="M116.74 87.38c-0.02,0 -0.04,0 -0.06,0l-30.68 -5.66c-0.18,-0.03 -0.29,-0.2 -0.26,-0.37 0.03,-0.18 0.2,-0.29 0.37,-0.26l30.69 5.66c0.17,0.03 0.29,0.19 0.26,0.37 -0.03,0.15 -0.17,0.26 -0.32,0.26z"/>
     <path class="fil11" d="M114.55 99.28c-0.02,0 -0.04,0 -0.06,0l-30.69 -5.66c-0.17,-0.03 -0.29,-0.2 -0.25,-0.37 0.03,-0.18 0.19,-0.29 0.37,-0.26l30.69 5.66c0.17,0.03 0.29,0.2 0.25,0.37 -0.02,0.16 -0.16,0.26 -0.31,0.26z"/>
     <path class="fil11" d="M99.47 90.35c-0.02,0 -0.04,0 -0.06,-0.01l-14.51 -2.67c-0.17,-0.03 -0.29,-0.2 -0.26,-0.37 0.04,-0.18 0.2,-0.29 0.38,-0.26l14.5 2.67c0.18,0.04 0.29,0.2 0.26,0.38 -0.03,0.15 -0.16,0.26 -0.31,0.26z"/>
     <path class="fil11" d="M101.46 79.51c-0.01,0 -0.03,-0.01 -0.05,-0.01l-14.51 -2.67c-0.17,-0.03 -0.29,-0.2 -0.26,-0.38 0.03,-0.17 0.2,-0.28 0.38,-0.25l14.5 2.67c0.18,0.03 0.29,0.2 0.26,0.37 -0.03,0.16 -0.16,0.27 -0.32,0.27z"/>
     <path class="fil11" d="M115.65 93.29c-0.01,0 -0.03,-0.01 -0.05,-0.01l-13.83 -2.55c-0.17,-0.03 -0.28,-0.2 -0.25,-0.37 0.03,-0.17 0.19,-0.29 0.37,-0.26l13.82 2.55c0.18,0.03 0.29,0.2 0.26,0.37 -0.03,0.16 -0.16,0.27 -0.32,0.27z"/>
    </g>
   </g>
   <g>
    <path class="fil13" d="M112.41 30.25l-17.06 0c-0.59,0 -1.07,-0.48 -1.07,-1.07l0 -5.7c0,-0.59 0.48,-1.07 1.07,-1.07l17.06 0c0.59,0 1.06,0.48 1.06,1.07l0 5.7c0,0.59 -0.47,1.07 -1.06,1.07z"/>
    <path class="fil10" d="M125.25 38.8l-23.85 0c-0.59,0 -1.07,-0.48 -1.07,-1.07l0 -8.48c0,-0.59 0.48,-1.07 1.07,-1.07l23.85 0c0.59,0 1.07,0.48 1.07,1.07l0 8.48c0,0.59 -0.48,1.07 -1.07,1.07z"/>
    <g>
     <g>
      <g>
       <g>
        <path class="fil11" d="M106.68 36.55l26.42 0c0.8,0 1.45,0.66 1.45,1.45l0 8.1c0,0.8 -0.65,1.45 -1.45,1.45l-26.42 0c-0.8,0 -1.45,-0.65 -1.45,-1.45l0 -8.1c0,-0.79 0.65,-1.45 1.45,-1.45z"/>
       </g>
       <path class="fil16" d="M106.68 36.55l26.42 0c0.8,0 1.45,0.66 1.45,1.45l0 8.1c0,0.8 -0.65,1.45 -1.45,1.45l-26.42 0c-0.8,0 -1.45,-0.65 -1.45,-1.45l0 -8.1c0,-0.79 0.65,-1.45 1.45,-1.45z"/>
      </g>
      <g>
       <g>
        <path class="fil11" d="M125.24 43.34c-0.7,0 -1.27,-0.57 -1.27,-1.27 0,-0.71 0.57,-1.28 1.27,-1.28 0.7,0 1.28,0.57 1.28,1.28 0,0.7 -0.58,1.27 -1.28,1.27zm0 -2.23l0 0c-0.52,0 -0.95,0.43 -0.95,0.96 0,0.52 0.43,0.95 0.95,0.95 0.53,0 0.95,-0.43 0.95,-0.95 0,-0.53 -0.42,-0.96 -0.95,-0.96z"/>
        <path class="fil11" d="M119.99 43.34c-0.71,0 -1.28,-0.57 -1.28,-1.27 0,-0.71 0.57,-1.28 1.28,-1.28 0.7,0 1.27,0.57 1.27,1.28 0,0.7 -0.57,1.27 -1.27,1.27zm0 -2.23l0 0c-0.53,0 -0.96,0.43 -0.96,0.96 0,0.52 0.43,0.95 0.96,0.95 0.52,0 0.95,-0.43 0.95,-0.95 0,-0.53 -0.43,-0.96 -0.95,-0.96z"/>
        <path class="fil11" d="M115.09 43.34c-0.7,0 -1.28,-0.57 -1.28,-1.27 0,-0.71 0.58,-1.28 1.28,-1.28 0.7,0 1.27,0.57 1.27,1.28 0,0.7 -0.57,1.27 -1.27,1.27zm0 -2.23l0 0c-0.53,0 -0.95,0.43 -0.95,0.96 0,0.52 0.42,0.95 0.95,0.95 0.52,0 0.95,-0.43 0.95,-0.95 0,-0.53 -0.43,-0.96 -0.95,-0.96z"/>
       </g>
      </g>
     </g>
    </g>
   </g>
  </g>
  <g id="_2133119029552">
   <g>
    <path class="fil11" d="M42.41 23.18l40.94 0c0.82,0 1.49,0.67 1.49,1.49l0 60.29c0,2.85 -2.3,5.15 -5.15,5.15l-28.42 0c-6.06,0 -10.98,-4.91 -10.98,-10.97l0 -53.84c0,-1.17 0.95,-2.12 2.12,-2.12z"/>
   </g>
   <path class="fil17" d="M40.82 23.18l43.22 0c0.44,0 0.8,0.36 0.8,0.8l0 61.22c0,2.71 -2.2,4.91 -4.91,4.91l-29.64 0c-5.52,0 -10,-4.47 -10,-10l0 -56.41c0,-0.29 0.24,-0.52 0.53,-0.52z"/>
   <path class="fil18" d="M44.61 23.18l39.6 0c0.35,0 0.63,0.28 0.63,0.63l0 61.56c0,2.62 -2.12,4.74 -4.74,4.74l-26.02 0c-5.43,0 -9.83,-4.4 -9.83,-9.83l0 -56.75c0,-0.19 0.16,-0.35 0.36,-0.35z"/>
   <g>
    <path class="fil19" d="M50.47 90.1l0 0.01 35.78 0c4.12,0 7.46,-3.34 7.46,-7.45l0 -2.84 -36.19 0 0 2.84c0,3.98 -3.12,7.23 -7.05,7.44z"/>
   </g>
   <g>
    <path class="fil20" d="M55.21 90.1l0 0.01 31.86 0c3.66,0 6.64,-3.34 6.64,-7.45l0 -2.84 -32.22 0 0 2.84c0,3.98 -2.78,7.23 -6.28,7.44z"/>
   </g>
   <g>
    <path class="fil11" d="M78.08 72.11l-25.73 0c-0.17,0 -0.32,-0.14 -0.32,-0.32 0,-0.18 0.15,-0.32 0.32,-0.32l25.73 0c0.18,0 0.32,0.14 0.32,0.32 0,0.18 -0.14,0.32 -0.32,0.32z"/>
    <path class="fil11" d="M78.62 61.28l-26.75 0c-0.17,0 -0.32,-0.15 -0.32,-0.32 0,-0.18 0.15,-0.32 0.32,-0.32l26.75 0c0.18,0 0.32,0.14 0.32,0.32 0,0.17 -0.14,0.32 -0.32,0.32z"/>
    <path class="fil11" d="M65.22 66.69l-13.67 0c-0.18,0 -0.32,-0.15 -0.32,-0.32 0,-0.18 0.14,-0.32 0.32,-0.32l13.67 0c0.17,0 0.32,0.14 0.32,0.32 0,0.17 -0.15,0.32 -0.32,0.32z"/>
    <path class="fil11" d="M64.18 66.69l-11.59 0c-0.18,0 -0.32,-0.15 -0.32,-0.32 0,-0.18 0.14,-0.32 0.32,-0.32l11.59 0c0.18,0 0.32,0.14 0.32,0.32 0,0.17 -0.14,0.32 -0.32,0.32z"/>
    <path class="fil11" d="M69.67 49.7l-17.61 0c-0.18,0 -0.32,-0.15 -0.32,-0.33 0,-0.17 0.14,-0.32 0.32,-0.32l17.61 0c0.17,0 0.32,0.15 0.32,0.32 0,0.18 -0.15,0.33 -0.32,0.33z"/>
    <path class="fil11" d="M77.83 49.7l-5.36 0c-0.18,0 -0.33,-0.15 -0.33,-0.33 0,-0.17 0.15,-0.32 0.33,-0.32l5.36 0c0.18,0 0.32,0.15 0.32,0.32 0,0.18 -0.14,0.33 -0.32,0.33z"/>
    <path class="fil11" d="M78.62 55.11l-19.07 0c-0.17,0 -0.32,-0.15 -0.32,-0.32 0,-0.18 0.15,-0.32 0.32,-0.32l19.07 0c0.18,0 0.32,0.14 0.32,0.32 0,0.17 -0.14,0.32 -0.32,0.32z"/>
    <path class="fil11" d="M57.67 55.11l-5.8 0c-0.17,0 -0.32,-0.15 -0.32,-0.32 0,-0.18 0.15,-0.32 0.32,-0.32l5.8 0c0.18,0 0.32,0.14 0.32,0.32 0,0.17 -0.14,0.32 -0.32,0.32z"/>
    <path class="fil11" d="M78.08 45.11l-25.73 0c-0.17,0 -0.32,-0.14 -0.32,-0.32 0,-0.17 0.15,-0.32 0.32,-0.32l25.73 0c0.18,0 0.32,0.15 0.32,0.32 0,0.18 -0.14,0.32 -0.32,0.32z"/>
    <path class="fil11" d="M78.08 34.28l-25.73 0c-0.17,0 -0.32,-0.14 -0.32,-0.32 0,-0.18 0.15,-0.32 0.32,-0.32l25.73 0c0.18,0 0.32,0.14 0.32,0.32 0,0.18 -0.14,0.32 -0.32,0.32z"/>
    <path class="fil11" d="M61.8 39.69l-9.74 0c-0.18,0 -0.32,-0.14 -0.32,-0.32 0,-0.18 0.14,-0.32 0.32,-0.32l9.74 0c0.17,0 0.32,0.14 0.32,0.32 0,0.18 -0.15,0.32 -0.32,0.32z"/>
    <path class="fil11" d="M77.88 39.69l-11.59 0c-0.18,0 -0.32,-0.14 -0.32,-0.32 0,-0.18 0.14,-0.32 0.32,-0.32l11.59 0c0.18,0 0.33,0.14 0.33,0.32 0,0.18 -0.15,0.32 -0.33,0.32z"/>
   </g>
  </g>
  <g id="_2133119034672">
   <g>
    <g>
     <path class="fil21" d="M98.13 42.52c-11.21,0 -20.3,9.09 -20.3,20.3 0,11.21 9.09,20.29 20.3,20.29 11.21,0 20.29,-9.08 20.29,-20.29 0,-11.21 -9.08,-20.3 -20.29,-20.3z"/>
    </g>
   </g>
   <g>
    <path class="fil22" d="M82.22 64.27c-0.71,0 -1.28,-0.57 -1.28,-1.28 0,-10.24 8.33,-18.57 18.57,-18.57 0.71,0 1.28,0.58 1.28,1.28 0,0.71 -0.57,1.29 -1.28,1.29 -8.83,0 -16.01,7.18 -16.01,16 0,0.71 -0.57,1.28 -1.28,1.28z"/>
   </g>
   <path class="fil5" d="M98.13 83.75c-11.55,0 -20.94,-9.39 -20.94,-20.93 0,-11.55 9.39,-20.94 20.94,-20.94 11.54,0 20.94,9.39 20.94,20.94 0,11.54 -9.4,20.93 -20.94,20.93zm0 -40.59l0 0c-10.84,0 -19.66,8.82 -19.66,19.66 0,10.83 8.82,19.65 19.66,19.65 10.84,0 19.65,-8.82 19.65,-19.65 0,-10.84 -8.81,-19.66 -19.65,-19.66z"/>
   <g>
    <g>
     <g>
      <path class="fil23" d="M98.13 42.52c-11.21,0 -20.3,9.09 -20.3,20.3 0,11.21 9.09,20.29 20.3,20.29 11.21,0 20.29,-9.08 20.29,-20.29 0,-11.21 -9.08,-20.3 -20.29,-20.3z"/>
     </g>
     <g>
      <path class="fil15" d="M116.78 77.36c0.03,-0.03 0.07,-0.06 0.1,-0.08 3.09,-4 4.93,-9.02 4.93,-14.46 0,-13.09 -10.6,-23.69 -23.68,-23.69 -13.09,0 -23.69,10.6 -23.69,23.69 0,13.08 10.6,23.68 23.69,23.68 5.42,0 10.42,-1.83 14.41,-4.9l2.74 -2.74 1.5 -1.5zm-18.65 5.75l0 0c-11.21,0 -20.3,-9.08 -20.3,-20.29 0,-11.21 9.09,-20.3 20.3,-20.3 11.21,0 20.29,9.09 20.29,20.3 0,11.21 -9.08,20.29 -20.29,20.29z"/>
      <path class="fil15" d="M98.13 86.82c-13.24,0 -24.01,-10.77 -24.01,-24 0,-13.24 10.77,-24.01 24.01,-24.01 13.23,0 24,10.77 24,24.01 0,5.35 -1.73,10.42 -5,14.66l-0.06 0.06c-0.03,0.02 -0.05,0.03 -0.06,0.04l-4.28 4.28c-4.22,3.25 -9.27,4.96 -14.6,4.96zm0 -47.37l0 0c-12.89,0 -23.37,10.48 -23.37,23.37 0,12.88 10.48,23.36 23.37,23.36 5.18,0 10.09,-1.67 14.2,-4.82l4.23 -4.23c0.03,-0.03 0.06,-0.05 0.09,-0.08 3.17,-4.11 4.84,-9.04 4.84,-14.23 0,-12.89 -10.48,-23.37 -23.36,-23.37zm0 43.98l0 0c-11.37,0 -20.62,-9.25 -20.62,-20.61 0,-11.37 9.25,-20.62 20.62,-20.62 11.37,0 20.62,9.25 20.62,20.62 0,11.36 -9.25,20.61 -20.62,20.61zm0 -40.59l0 0c-11.02,0 -19.98,8.96 -19.98,19.98 0,11.01 8.96,19.97 19.98,19.97 11.01,0 19.97,-8.96 19.97,-19.97 0,-11.02 -8.96,-19.98 -19.97,-19.98z"/>
     </g>
     <g>
      <path class="fil24" d="M116.2 81.06l-0.92 -0.92c-0.35,-0.35 -0.35,-0.92 0,-1.28l-2.74 2.74 -0.05 0.05c-0.35,0.35 -0.35,0.92 0,1.28l1.12 1.11c0.37,-0.61 1.44,-1.82 2.59,-2.98z"/>
     </g>
     <g>
      <path class="fil24" d="M115.28 78.86c-0.35,0.36 -0.35,0.93 0,1.28l0.92 0.92c1.11,-1.12 2.28,-2.19 2.93,-2.63l-1.07 -1.07c-0.32,-0.33 -0.83,-0.35 -1.18,-0.08 -0.03,0.02 -0.07,0.05 -0.1,0.08l-1.5 1.5z"/>
     </g>
     <path class="fil25" d="M115.28 78.86c-0.35,0.36 -0.35,0.93 0,1.28l0.92 0.92c1.11,-1.12 2.28,-2.19 2.93,-2.63l-1.07 -1.07c-0.32,-0.33 -0.83,-0.35 -1.18,-0.08 -0.03,0.02 -0.07,0.05 -0.1,0.08l-1.5 1.5z"/>
     <path class="fil13" d="M136.32 95.09l-16.68 -16.86c-0.06,-0.06 -0.25,0.02 -0.51,0.2 -0.65,0.44 -1.82,1.51 -2.93,2.63 -1.15,1.16 -2.22,2.37 -2.59,2.98 -0.12,0.2 -0.17,0.34 -0.11,0.4l16.68 16.86c1.69,1.71 4.44,1.71 6.14,0 1.69,-1.72 1.69,-4.5 0,-6.21z"/>
    </g>
    <g>
     <g>
      <path class="fil9" d="M136.32 95.09l-16.68 -16.86c-0.23,-0.23 -2.13,1.47 -3.76,3.16 -1.39,1.43 18.74,21.62 20.44,19.91 1.69,-1.72 1.69,-4.5 0,-6.21z"/>
     </g>
    </g>
   </g>
  </g>
  <g id="_2133119037936">
   <path class="fil26" d="M75.5 86.14l-27.29 0c-1.91,0 -3.46,-1.55 -3.46,-3.46l0 -2.27c0,-1.91 -1.55,-3.47 -3.47,-3.47l-12.6 0c-1.92,0 -3.47,1.56 -3.47,3.47l0 8.96 0 10.3 0 16.77c0,1.78 1.44,3.23 3.23,3.23l47.06 0c1.79,0 3.24,-1.45 3.24,-3.23l0 -27.07c0,-1.78 -1.45,-3.23 -3.24,-3.23z"/>
   <path class="fil26" d="M72.5 86.14l-27.29 0c-1.91,0 -3.46,-1.55 -3.46,-3.46l0 -2.27c0,-1.91 -1.56,-3.47 -3.47,-3.47l-12.61 0c-1.92,0 -3.47,1.56 -3.47,3.47l0 8.96 0 10.3 0 16.77c0,1.78 1.45,3.23 3.23,3.23l47.07 0c1.78,0 3.23,-1.45 3.23,-3.23l0 -27.07c0,-1.78 -1.45,-3.23 -3.23,-3.23z"/>
   <g>
    <path class="fil27" d="M72.5 86.14l-27.29 0c-1.91,0 -3.46,-1.55 -3.46,-3.46l0 -2.27c0,-1.91 -1.56,-3.47 -3.47,-3.47l-12.61 0c-1.92,0 -3.47,1.56 -3.47,3.47l0 8.96 0 10.3 0 16.77c0,1.78 1.45,3.23 3.23,3.23l47.07 0c1.78,0 3.23,-1.45 3.23,-3.23l0 -27.07c0,-1.78 -1.45,-3.23 -3.23,-3.23z"/>
   </g>
   <g>
    <path class="fil27" d="M65.57 86.14l-23.53 0c-1.65,0 -2.98,-1.55 -2.98,-3.46l0 -2.27c0,-1.91 -1.34,-3.47 -3,-3.47l-10.87 0c-1.65,0 -2.99,1.56 -2.99,3.47l0 8.96 0 10.3 0 16.77c0,1.78 1.25,3.23 2.79,3.23l40.58 0c1.54,0 2.79,-1.45 2.79,-3.23l0 -27.07c0,-1.78 -1.25,-3.23 -2.79,-3.23z"/>
   </g>
   <path class="fil11" d="M24.72 89.74c-0.18,0 -0.32,-0.14 -0.32,-0.32l0 -7.87c0,-1.22 0.99,-2.21 2.21,-2.21l9.29 0c0.18,0 0.32,0.14 0.32,0.32 0,0.18 -0.14,0.32 -0.32,0.32l-9.29 0c-0.86,0 -1.57,0.71 -1.57,1.57l0 7.87c0,0.18 -0.14,0.32 -0.32,0.32z"/>
  </g>
 </g>
</svg>
