<?xml version="1.0" encoding="UTF-8"?>
<!DOCTYPE svg PUBLIC "-//W3C//DTD SVG 1.1//EN" "http://www.w3.org/Graphics/SVG/1.1/DTD/svg11.dtd">
<!-- Creator: CorelDRAW 2017 -->
<svg xmlns="http://www.w3.org/2000/svg" xml:space="preserve" width="471px" height="259px" version="1.1" style="shape-rendering:geometricPrecision; text-rendering:geometricPrecision; image-rendering:optimizeQuality; fill-rule:evenodd; clip-rule:evenodd"
viewBox="0 0 51.28 28.15"
 xmlns:xlink="http://www.w3.org/1999/xlink">
 <defs>
  <style type="text/css">
   <![CDATA[
    .fil0 {fill:black}
    .fil1 {fill:#1961AA}
    .fil3 {fill:black;fill-rule:nonzero}
    .fil2 {fill:#1961AA;fill-rule:nonzero}
   ]]>
  </style>
 </defs>
 <g id="Layer_x0020_1">
  <metadata id="CorelCorpID_0Corel-Layer"/>
  <g id="_2855335391376">
   <path class="fil0" d="M44.09 13.3l-3.42 0 0 -9.52 3.96 0c3.24,0 3.75,9.52 -0.54,9.52zm-7.37 3.78l8.45 0c3.87,0 6.11,-4.1 6.11,-7.37 0,-2.89 0.01,-4.74 -1.72,-7.27 -0.86,-1.27 -2.53,-2.44 -4.57,-2.44l-8.27 0 0 17.08 0 0z"/>
   <path class="fil1" d="M0.05 0.54c0,4.02 -0.84,3.24 4.49,3.24 1.74,0 3.48,0 5.22,0 2.99,4.47 -4.21,2.24 -6.69,3.02 -3.61,1.13 -3.02,5.84 -3.02,9.74 0,0.9 1.53,0.54 3.95,0.54 0,-4.6 -0.73,-6.65 2.51,-6.66 1.36,-0.01 2.95,0.19 4.23,-0.09 5.34,-1.15 4.8,-10.33 -0.98,-10.33l-9.17 0c-0.42,0 -0.54,0.13 -0.54,0.54l0 0z"/>
   <path class="fil1" d="M15.87 3.78l8.98 0c1.32,0 1.26,0.93 1.26,1.79 0,3.09 -10.24,-2.1 -10.24,5.57l0 5.94 3.77 0c0,-6.71 -0.58,-6.67 4.68,-6.65 2.16,0 3.66,-0.08 4.95,-2.06 1.93,-2.95 0.73,-8.37 -3.88,-8.37l-9.52 0 0 3.78 0 0z"/>
   <polygon class="fil0" points="31.51,17.08 35.28,17.08 35.28,0 31.51,0 "/>
   <path class="fil2" d="M1.65 21.87l-0.79 0 0 1.2c0,0.17 -0.04,0.3 -0.12,0.39 -0.08,0.09 -0.18,0.14 -0.31,0.14 -0.13,0 -0.23,-0.05 -0.31,-0.13 -0.08,-0.09 -0.12,-0.22 -0.12,-0.39l0 -3.28c0,-0.19 0.04,-0.33 0.13,-0.41 0.09,-0.08 0.23,-0.12 0.42,-0.12l1.1 0c0.33,0 0.58,0.02 0.76,0.07 0.17,0.05 0.32,0.13 0.45,0.24 0.13,0.12 0.22,0.25 0.29,0.42 0.06,0.16 0.1,0.34 0.1,0.55 0,0.43 -0.14,0.76 -0.4,0.98 -0.27,0.22 -0.67,0.34 -1.2,0.34l0 0zm-0.21 -1.95l-0.58 0 0 1.3 0.58 0c0.21,0 0.38,-0.02 0.51,-0.07 0.14,-0.04 0.24,-0.11 0.32,-0.21 0.07,-0.09 0.1,-0.22 0.1,-0.38 0,-0.18 -0.05,-0.34 -0.16,-0.45 -0.13,-0.13 -0.38,-0.19 -0.77,-0.19l0 0zm4.46 2.26l-1.55 0c0,0.18 0.03,0.34 0.11,0.48 0.06,0.14 0.16,0.24 0.28,0.31 0.11,0.07 0.24,0.1 0.38,0.1 0.1,0 0.18,-0.01 0.26,-0.03 0.08,-0.02 0.16,-0.06 0.23,-0.1 0.08,-0.05 0.14,-0.1 0.2,-0.16 0.07,-0.05 0.15,-0.12 0.25,-0.22 0.04,-0.03 0.09,-0.05 0.17,-0.05 0.08,0 0.15,0.02 0.2,0.07 0.05,0.04 0.07,0.1 0.07,0.18 0,0.08 -0.02,0.16 -0.08,0.26 -0.06,0.09 -0.14,0.18 -0.26,0.27 -0.11,0.09 -0.25,0.16 -0.42,0.22 -0.17,0.06 -0.37,0.09 -0.59,0.09 -0.51,0 -0.91,-0.15 -1.19,-0.44 -0.28,-0.29 -0.42,-0.68 -0.42,-1.18 0,-0.23 0.03,-0.45 0.1,-0.65 0.07,-0.2 0.17,-0.37 0.31,-0.52 0.13,-0.14 0.29,-0.25 0.49,-0.33 0.19,-0.07 0.41,-0.11 0.65,-0.11 0.31,0 0.58,0.06 0.8,0.19 0.22,0.13 0.38,0.3 0.5,0.51 0.1,0.21 0.16,0.42 0.16,0.64 0,0.19 -0.06,0.32 -0.17,0.38 -0.12,0.06 -0.28,0.09 -0.48,0.09l0 0zm-1.55 -0.45l1.43 0c-0.02,-0.27 -0.09,-0.47 -0.22,-0.61 -0.12,-0.13 -0.29,-0.2 -0.5,-0.2 -0.2,0 -0.36,0.07 -0.48,0.2 -0.13,0.14 -0.21,0.34 -0.23,0.61l0 0zm3.67 -0.88l0 2.69c0,0.19 -0.01,0.34 -0.02,0.46 -0.02,0.13 -0.03,0.21 -0.06,0.27 -0.13,0.34 -0.41,0.5 -0.83,0.5 -0.24,0 -0.43,-0.03 -0.55,-0.09 -0.12,-0.07 -0.19,-0.17 -0.19,-0.29 0,-0.1 0.03,-0.17 0.09,-0.23 0.05,-0.06 0.13,-0.09 0.22,-0.09 0.01,0 0.03,0 0.06,0 0.02,0.01 0.06,0.01 0.11,0.01 0.05,0.01 0.09,0.01 0.11,0.01 0.1,0 0.18,-0.04 0.21,-0.12 0.04,-0.09 0.06,-0.24 0.06,-0.45l0 -2.67c0,-0.16 0.03,-0.28 0.1,-0.36 0.08,-0.08 0.17,-0.12 0.29,-0.12 0.12,0 0.21,0.04 0.29,0.12 0.07,0.08 0.11,0.2 0.11,0.36zm-0.4 -0.85c-0.11,0 -0.2,-0.03 -0.28,-0.1 -0.08,-0.06 -0.12,-0.16 -0.12,-0.28 0,-0.11 0.04,-0.21 0.13,-0.28 0.08,-0.07 0.17,-0.11 0.27,-0.11 0.11,0 0.2,0.03 0.28,0.1 0.08,0.07 0.12,0.16 0.12,0.29 0,0.12 -0.04,0.21 -0.12,0.28 -0.08,0.07 -0.17,0.1 -0.28,0.1l0 0zm3.21 3.15c-0.19,0.15 -0.37,0.26 -0.55,0.34 -0.18,0.07 -0.38,0.11 -0.6,0.11 -0.21,0 -0.39,-0.04 -0.54,-0.12 -0.15,-0.08 -0.27,-0.19 -0.36,-0.33 -0.08,-0.14 -0.12,-0.29 -0.12,-0.45 0,-0.21 0.07,-0.4 0.2,-0.55 0.14,-0.16 0.33,-0.26 0.57,-0.31 0.05,-0.01 0.18,-0.04 0.38,-0.08 0.19,-0.04 0.37,-0.08 0.51,-0.11 0.14,-0.03 0.29,-0.07 0.46,-0.12 -0.01,-0.21 -0.05,-0.37 -0.13,-0.46 -0.07,-0.1 -0.22,-0.15 -0.46,-0.15 -0.2,0 -0.35,0.03 -0.45,0.08 -0.1,0.06 -0.19,0.15 -0.26,0.26 -0.08,0.11 -0.13,0.18 -0.16,0.22 -0.03,0.04 -0.09,0.05 -0.19,0.05 -0.09,0 -0.17,-0.03 -0.23,-0.08 -0.07,-0.06 -0.1,-0.13 -0.1,-0.22 0,-0.14 0.05,-0.28 0.15,-0.41 0.1,-0.13 0.25,-0.24 0.46,-0.32 0.21,-0.09 0.47,-0.13 0.78,-0.13 0.35,0 0.62,0.04 0.82,0.12 0.2,0.08 0.34,0.21 0.43,0.39 0.08,0.18 0.12,0.42 0.12,0.71 0,0.19 0,0.34 0,0.47 0,0.13 0,0.28 -0.01,0.44 0,0.15 0.03,0.3 0.08,0.46 0.05,0.16 0.07,0.27 0.07,0.31 0,0.09 -0.04,0.16 -0.11,0.23 -0.08,0.06 -0.17,0.1 -0.26,0.1 -0.08,0 -0.16,-0.04 -0.24,-0.12 -0.08,-0.07 -0.17,-0.18 -0.26,-0.33l0 0zm-0.05 -1.15c-0.11,0.05 -0.28,0.09 -0.51,0.14 -0.22,0.05 -0.37,0.08 -0.46,0.1 -0.08,0.03 -0.16,0.07 -0.24,0.13 -0.08,0.07 -0.11,0.16 -0.11,0.28 0,0.12 0.04,0.22 0.13,0.3 0.09,0.09 0.21,0.13 0.36,0.13 0.16,0 0.3,-0.04 0.43,-0.1 0.13,-0.07 0.23,-0.16 0.29,-0.27 0.07,-0.12 0.11,-0.32 0.11,-0.59l0 -0.12 0 0zm2.24 -2.35l0 1.21c0.14,-0.15 0.3,-0.27 0.45,-0.36 0.16,-0.08 0.35,-0.12 0.58,-0.12 0.26,0 0.49,0.06 0.69,0.19 0.2,0.12 0.35,0.3 0.46,0.54 0.11,0.24 0.16,0.52 0.16,0.84 0,0.24 -0.02,0.46 -0.09,0.66 -0.06,0.2 -0.15,0.38 -0.26,0.53 -0.12,0.14 -0.26,0.26 -0.42,0.34 -0.17,0.08 -0.35,0.12 -0.55,0.12 -0.12,0 -0.24,-0.02 -0.35,-0.05 -0.1,-0.03 -0.19,-0.06 -0.27,-0.11 -0.07,-0.05 -0.14,-0.1 -0.19,-0.15 -0.06,-0.05 -0.13,-0.12 -0.21,-0.22l0 0.07c0,0.15 -0.04,0.27 -0.11,0.34 -0.07,0.08 -0.16,0.12 -0.27,0.12 -0.12,0 -0.2,-0.04 -0.27,-0.12 -0.07,-0.07 -0.1,-0.19 -0.1,-0.34l0 -3.46c0,-0.16 0.03,-0.28 0.09,-0.36 0.07,-0.08 0.16,-0.12 0.28,-0.12 0.12,0 0.21,0.04 0.28,0.11 0.06,0.08 0.1,0.19 0.1,0.34l0 0zm0.03 2.35c0,0.32 0.08,0.56 0.22,0.73 0.14,0.17 0.33,0.25 0.57,0.25 0.2,0 0.37,-0.08 0.51,-0.26 0.15,-0.17 0.22,-0.42 0.22,-0.74 0,-0.21 -0.03,-0.39 -0.09,-0.54 -0.06,-0.15 -0.15,-0.27 -0.26,-0.35 -0.11,-0.08 -0.24,-0.12 -0.38,-0.12 -0.15,0 -0.29,0.04 -0.4,0.12 -0.12,0.08 -0.22,0.2 -0.28,0.36 -0.07,0.15 -0.11,0.34 -0.11,0.55l0 0zm4.96 1.15c-0.2,0.15 -0.38,0.26 -0.56,0.34 -0.18,0.07 -0.38,0.11 -0.6,0.11 -0.21,0 -0.39,-0.04 -0.54,-0.12 -0.15,-0.08 -0.27,-0.19 -0.36,-0.33 -0.08,-0.14 -0.12,-0.29 -0.12,-0.45 0,-0.21 0.07,-0.4 0.21,-0.55 0.13,-0.16 0.32,-0.26 0.56,-0.31 0.05,-0.01 0.18,-0.04 0.38,-0.08 0.2,-0.04 0.37,-0.08 0.51,-0.11 0.14,-0.03 0.3,-0.07 0.46,-0.12 -0.01,-0.21 -0.05,-0.37 -0.12,-0.46 -0.08,-0.1 -0.23,-0.15 -0.47,-0.15 -0.2,0 -0.35,0.03 -0.45,0.08 -0.1,0.06 -0.19,0.15 -0.26,0.26 -0.07,0.11 -0.13,0.18 -0.16,0.22 -0.03,0.04 -0.09,0.05 -0.19,0.05 -0.09,0 -0.17,-0.03 -0.23,-0.08 -0.07,-0.06 -0.1,-0.13 -0.1,-0.22 0,-0.14 0.05,-0.28 0.15,-0.41 0.1,-0.13 0.25,-0.24 0.46,-0.32 0.21,-0.09 0.47,-0.13 0.78,-0.13 0.35,0 0.63,0.04 0.83,0.12 0.19,0.08 0.34,0.21 0.42,0.39 0.08,0.18 0.12,0.42 0.12,0.71 0,0.19 0,0.34 0,0.47 0,0.13 0,0.28 -0.01,0.44 0,0.15 0.03,0.3 0.08,0.46 0.05,0.16 0.07,0.27 0.07,0.31 0,0.09 -0.03,0.16 -0.11,0.23 -0.08,0.06 -0.16,0.1 -0.26,0.1 -0.08,0 -0.16,-0.04 -0.24,-0.12 -0.08,-0.07 -0.17,-0.18 -0.25,-0.33l0 0zm-0.06 -1.15c-0.11,0.05 -0.28,0.09 -0.5,0.14 -0.22,0.05 -0.38,0.08 -0.46,0.1 -0.09,0.03 -0.17,0.07 -0.25,0.13 -0.07,0.07 -0.11,0.16 -0.11,0.28 0,0.12 0.04,0.22 0.13,0.3 0.09,0.09 0.21,0.13 0.36,0.13 0.16,0 0.3,-0.04 0.43,-0.1 0.14,-0.07 0.23,-0.16 0.3,-0.27 0.07,-0.12 0.1,-0.32 0.1,-0.59l0 -0.12 0 0zm1.48 -1.55l0.09 0 0 -0.48c0,-0.13 0,-0.23 0.01,-0.3 0,-0.08 0.02,-0.14 0.05,-0.19 0.04,-0.05 0.08,-0.1 0.14,-0.13 0.06,-0.04 0.12,-0.05 0.19,-0.05 0.1,0 0.19,0.04 0.27,0.11 0.06,0.05 0.09,0.11 0.11,0.19 0.01,0.07 0.02,0.17 0.02,0.3l0 0.55 0.29 0c0.11,0 0.2,0.02 0.26,0.07 0.06,0.06 0.09,0.13 0.09,0.21 0,0.11 -0.05,0.18 -0.13,0.22 -0.09,0.04 -0.21,0.07 -0.36,0.07l-0.15 0 0 1.45c0,0.13 0,0.22 0.01,0.29 0.01,0.07 0.03,0.12 0.07,0.16 0.04,0.04 0.1,0.06 0.19,0.06 0.04,0 0.11,0 0.19,-0.02 0.07,-0.02 0.14,-0.03 0.18,-0.03 0.06,0 0.12,0.03 0.17,0.08 0.06,0.05 0.08,0.12 0.08,0.19 0,0.13 -0.07,0.23 -0.21,0.29 -0.14,0.07 -0.34,0.11 -0.6,0.11 -0.25,0 -0.43,-0.04 -0.56,-0.13 -0.13,-0.08 -0.21,-0.2 -0.25,-0.34 -0.04,-0.15 -0.06,-0.35 -0.06,-0.59l0 -1.52 -0.11 0c-0.11,0 -0.2,-0.03 -0.26,-0.09 -0.06,-0.05 -0.09,-0.12 -0.09,-0.2 0,-0.08 0.03,-0.15 0.1,-0.21 0.06,-0.05 0.15,-0.07 0.27,-0.07l0 0zm5.25 1.42l-0.79 0 0 1.2c0,0.17 -0.04,0.3 -0.12,0.39 -0.08,0.09 -0.18,0.14 -0.3,0.14 -0.13,0 -0.24,-0.05 -0.32,-0.13 -0.08,-0.09 -0.12,-0.22 -0.12,-0.39l0 -3.28c0,-0.19 0.05,-0.33 0.13,-0.41 0.09,-0.08 0.23,-0.12 0.42,-0.12l1.1 0c0.33,0 0.58,0.02 0.76,0.07 0.17,0.05 0.32,0.13 0.45,0.24 0.13,0.12 0.23,0.25 0.29,0.42 0.07,0.16 0.1,0.34 0.1,0.55 0,0.43 -0.13,0.76 -0.4,0.98 -0.27,0.22 -0.67,0.34 -1.2,0.34l0 0zm-0.21 -1.95l-0.58 0 0 1.3 0.58 0c0.21,0 0.38,-0.02 0.52,-0.07 0.13,-0.04 0.24,-0.11 0.31,-0.21 0.07,-0.09 0.1,-0.22 0.1,-0.38 0,-0.18 -0.05,-0.34 -0.16,-0.45 -0.12,-0.13 -0.38,-0.19 -0.77,-0.19l0 0zm4.46 2.26l-1.55 0c0,0.18 0.04,0.34 0.11,0.48 0.07,0.14 0.16,0.24 0.28,0.31 0.12,0.07 0.25,0.1 0.39,0.1 0.09,0 0.18,-0.01 0.26,-0.03 0.08,-0.02 0.15,-0.06 0.22,-0.1 0.08,-0.05 0.15,-0.1 0.21,-0.16 0.06,-0.05 0.14,-0.12 0.24,-0.22 0.04,-0.03 0.1,-0.05 0.17,-0.05 0.08,0 0.15,0.02 0.2,0.07 0.05,0.04 0.08,0.1 0.08,0.18 0,0.08 -0.03,0.16 -0.09,0.26 -0.05,0.09 -0.14,0.18 -0.25,0.27 -0.12,0.09 -0.26,0.16 -0.43,0.22 -0.17,0.06 -0.37,0.09 -0.59,0.09 -0.51,0 -0.91,-0.15 -1.19,-0.44 -0.28,-0.29 -0.42,-0.68 -0.42,-1.18 0,-0.23 0.03,-0.45 0.1,-0.65 0.07,-0.2 0.17,-0.37 0.31,-0.52 0.13,-0.14 0.3,-0.25 0.49,-0.33 0.2,-0.07 0.41,-0.11 0.65,-0.11 0.31,0 0.58,0.06 0.8,0.19 0.22,0.13 0.39,0.3 0.5,0.51 0.11,0.21 0.16,0.42 0.16,0.64 0,0.19 -0.05,0.32 -0.17,0.38 -0.11,0.06 -0.27,0.09 -0.48,0.09zm-1.55 -0.45l1.44 0c-0.02,-0.27 -0.1,-0.47 -0.22,-0.61 -0.13,-0.13 -0.3,-0.2 -0.5,-0.2 -0.2,0 -0.36,0.07 -0.49,0.2 -0.13,0.14 -0.21,0.34 -0.23,0.61zm3.59 -0.92l0 0.1c0.14,-0.19 0.29,-0.32 0.46,-0.41 0.16,-0.08 0.35,-0.13 0.57,-0.13 0.21,0 0.39,0.05 0.56,0.14 0.16,0.09 0.29,0.22 0.37,0.39 0.05,0.09 0.08,0.2 0.1,0.31 0.01,0.11 0.02,0.25 0.02,0.43l0 1.47c0,0.16 -0.04,0.28 -0.11,0.37 -0.07,0.08 -0.16,0.12 -0.28,0.12 -0.12,0 -0.21,-0.04 -0.29,-0.13 -0.07,-0.08 -0.11,-0.2 -0.11,-0.36l0 -1.32c0,-0.26 -0.04,-0.46 -0.11,-0.6 -0.07,-0.13 -0.22,-0.2 -0.43,-0.2 -0.14,0 -0.27,0.04 -0.39,0.12 -0.11,0.09 -0.2,0.2 -0.25,0.35 -0.04,0.12 -0.06,0.34 -0.06,0.66l0 0.99c0,0.17 -0.04,0.29 -0.11,0.37 -0.08,0.08 -0.17,0.12 -0.29,0.12 -0.12,0 -0.21,-0.04 -0.28,-0.13 -0.08,-0.08 -0.11,-0.2 -0.11,-0.36l0 -2.29c0,-0.15 0.03,-0.26 0.1,-0.33 0.06,-0.08 0.15,-0.12 0.26,-0.12 0.07,0 0.14,0.02 0.19,0.05 0.06,0.04 0.1,0.09 0.14,0.15 0.03,0.07 0.05,0.15 0.05,0.24l0 0zm5.79 0.15l0 2.3c0,0.26 -0.03,0.49 -0.09,0.68 -0.05,0.19 -0.14,0.35 -0.27,0.47 -0.12,0.12 -0.28,0.21 -0.48,0.27 -0.2,0.06 -0.45,0.09 -0.75,0.09 -0.27,0 -0.52,-0.03 -0.73,-0.11 -0.22,-0.08 -0.38,-0.18 -0.5,-0.3 -0.12,-0.12 -0.17,-0.24 -0.17,-0.37 0,-0.1 0.03,-0.17 0.09,-0.24 0.07,-0.06 0.15,-0.09 0.24,-0.09 0.12,0 0.22,0.05 0.31,0.16 0.04,0.05 0.09,0.1 0.13,0.15 0.05,0.06 0.1,0.1 0.15,0.14 0.06,0.04 0.12,0.07 0.2,0.08 0.08,0.02 0.17,0.03 0.27,0.03 0.2,0 0.36,-0.03 0.47,-0.08 0.12,-0.06 0.2,-0.14 0.24,-0.24 0.05,-0.11 0.07,-0.22 0.08,-0.33 0.01,-0.12 0.02,-0.31 0.02,-0.57 -0.12,0.17 -0.26,0.3 -0.42,0.39 -0.16,0.09 -0.35,0.14 -0.57,0.14 -0.27,0 -0.5,-0.07 -0.7,-0.21 -0.2,-0.13 -0.35,-0.32 -0.46,-0.57 -0.1,-0.24 -0.15,-0.52 -0.15,-0.84 0,-0.24 0.03,-0.46 0.09,-0.65 0.07,-0.19 0.16,-0.35 0.28,-0.48 0.12,-0.13 0.26,-0.23 0.41,-0.3 0.16,-0.07 0.33,-0.1 0.52,-0.1 0.22,0 0.42,0.04 0.58,0.13 0.17,0.09 0.32,0.22 0.46,0.41l0 -0.11c0,-0.14 0.04,-0.25 0.1,-0.32 0.07,-0.08 0.16,-0.12 0.27,-0.12 0.15,0 0.25,0.05 0.3,0.15 0.05,0.1 0.08,0.25 0.08,0.44l0 0zm-2.3 1c0,0.32 0.07,0.57 0.21,0.73 0.14,0.16 0.32,0.25 0.55,0.25 0.13,0 0.25,-0.04 0.37,-0.11 0.12,-0.07 0.21,-0.18 0.28,-0.32 0.08,-0.14 0.11,-0.31 0.11,-0.52 0,-0.32 -0.07,-0.57 -0.21,-0.75 -0.14,-0.18 -0.33,-0.27 -0.56,-0.27 -0.23,0 -0.41,0.08 -0.54,0.26 -0.14,0.17 -0.21,0.41 -0.21,0.73l0 0zm5.16 0.22l-1.55 0c0,0.18 0.04,0.34 0.11,0.48 0.07,0.14 0.17,0.24 0.28,0.31 0.12,0.07 0.25,0.1 0.39,0.1 0.1,0 0.18,-0.01 0.26,-0.03 0.08,-0.02 0.15,-0.06 0.23,-0.1 0.07,-0.05 0.14,-0.1 0.2,-0.16 0.06,-0.05 0.14,-0.12 0.24,-0.22 0.04,-0.03 0.1,-0.05 0.18,-0.05 0.08,0 0.14,0.02 0.19,0.07 0.05,0.04 0.08,0.1 0.08,0.18 0,0.08 -0.03,0.16 -0.08,0.26 -0.06,0.09 -0.15,0.18 -0.26,0.27 -0.11,0.09 -0.25,0.16 -0.43,0.22 -0.17,0.06 -0.36,0.09 -0.59,0.09 -0.51,0 -0.9,-0.15 -1.18,-0.44 -0.29,-0.29 -0.43,-0.68 -0.43,-1.18 0,-0.23 0.04,-0.45 0.11,-0.65 0.07,-0.2 0.17,-0.37 0.3,-0.52 0.13,-0.14 0.3,-0.25 0.5,-0.33 0.19,-0.07 0.41,-0.11 0.65,-0.11 0.31,0 0.57,0.06 0.79,0.19 0.22,0.13 0.39,0.3 0.5,0.51 0.11,0.21 0.17,0.42 0.17,0.64 0,0.19 -0.06,0.32 -0.18,0.38 -0.11,0.06 -0.27,0.09 -0.48,0.09l0 0zm-1.55 -0.45l1.44 0c-0.02,-0.27 -0.09,-0.47 -0.22,-0.61 -0.13,-0.13 -0.29,-0.2 -0.5,-0.2 -0.2,0 -0.36,0.07 -0.49,0.2 -0.12,0.14 -0.2,0.34 -0.23,0.61l0 0zm2.87 1.38l0 -3.43c0,-0.16 0.04,-0.28 0.11,-0.36 0.07,-0.08 0.17,-0.12 0.29,-0.12 0.12,0 0.21,0.04 0.29,0.12 0.07,0.08 0.11,0.2 0.11,0.36l0 3.43c0,0.17 -0.04,0.29 -0.12,0.37 -0.07,0.08 -0.17,0.12 -0.28,0.12 -0.12,0 -0.21,-0.04 -0.29,-0.13 -0.07,-0.08 -0.11,-0.2 -0.11,-0.36zm4.58 -1.12c0,0.23 -0.03,0.45 -0.11,0.65 -0.07,0.2 -0.18,0.37 -0.32,0.51 -0.14,0.15 -0.3,0.26 -0.5,0.33 -0.19,0.08 -0.41,0.12 -0.65,0.12 -0.24,0 -0.46,-0.04 -0.65,-0.12 -0.19,-0.08 -0.36,-0.19 -0.5,-0.33 -0.14,-0.15 -0.24,-0.32 -0.31,-0.51 -0.08,-0.2 -0.11,-0.42 -0.11,-0.66 0,-0.23 0.03,-0.45 0.11,-0.65 0.07,-0.2 0.18,-0.37 0.31,-0.52 0.14,-0.14 0.31,-0.25 0.5,-0.32 0.2,-0.08 0.41,-0.12 0.65,-0.12 0.24,0 0.46,0.04 0.65,0.12 0.2,0.08 0.37,0.19 0.51,0.33 0.14,0.14 0.24,0.32 0.32,0.51 0.07,0.2 0.1,0.42 0.1,0.66l0 0zm-0.79 0c0,-0.33 -0.07,-0.58 -0.22,-0.76 -0.14,-0.18 -0.33,-0.27 -0.57,-0.27 -0.15,0 -0.29,0.04 -0.41,0.12 -0.12,0.08 -0.21,0.2 -0.27,0.36 -0.07,0.15 -0.1,0.34 -0.1,0.55 0,0.2 0.03,0.38 0.1,0.54 0.06,0.15 0.15,0.27 0.27,0.35 0.11,0.09 0.25,0.13 0.41,0.13 0.24,0 0.43,-0.09 0.57,-0.27 0.15,-0.18 0.22,-0.43 0.22,-0.75l0 0zm1.42 1.12l0 -3.43c0,-0.16 0.03,-0.28 0.1,-0.36 0.07,-0.08 0.17,-0.12 0.29,-0.12 0.12,0 0.22,0.04 0.29,0.12 0.07,0.08 0.11,0.2 0.11,0.36l0 3.43c0,0.17 -0.04,0.29 -0.11,0.37 -0.08,0.08 -0.17,0.12 -0.29,0.12 -0.12,0 -0.21,-0.04 -0.28,-0.13 -0.07,-0.08 -0.11,-0.2 -0.11,-0.36l0 0zm3.61 0.04c-0.19,0.15 -0.37,0.26 -0.55,0.34 -0.18,0.07 -0.38,0.11 -0.61,0.11 -0.2,0 -0.38,-0.04 -0.53,-0.12 -0.16,-0.08 -0.27,-0.19 -0.36,-0.33 -0.08,-0.14 -0.12,-0.29 -0.12,-0.45 0,-0.21 0.07,-0.4 0.2,-0.55 0.14,-0.16 0.33,-0.26 0.57,-0.31 0.05,-0.01 0.18,-0.04 0.38,-0.08 0.19,-0.04 0.37,-0.08 0.51,-0.11 0.14,-0.03 0.29,-0.07 0.46,-0.12 -0.01,-0.21 -0.05,-0.37 -0.13,-0.46 -0.07,-0.1 -0.22,-0.15 -0.46,-0.15 -0.2,0 -0.35,0.03 -0.45,0.08 -0.11,0.06 -0.19,0.15 -0.27,0.26 -0.07,0.11 -0.12,0.18 -0.15,0.22 -0.03,0.04 -0.09,0.05 -0.19,0.05 -0.09,0 -0.17,-0.03 -0.23,-0.08 -0.07,-0.06 -0.1,-0.13 -0.1,-0.22 0,-0.14 0.05,-0.28 0.15,-0.41 0.1,-0.13 0.25,-0.24 0.46,-0.32 0.21,-0.09 0.47,-0.13 0.78,-0.13 0.35,0 0.62,0.04 0.82,0.12 0.2,0.08 0.34,0.21 0.42,0.39 0.09,0.18 0.13,0.42 0.13,0.71 0,0.19 0,0.34 0,0.47 0,0.13 -0.01,0.28 -0.01,0.44 0,0.15 0.03,0.3 0.08,0.46 0.05,0.16 0.07,0.27 0.07,0.31 0,0.09 -0.04,0.16 -0.11,0.23 -0.08,0.06 -0.17,0.1 -0.26,0.1 -0.09,0 -0.17,-0.04 -0.24,-0.12 -0.08,-0.07 -0.17,-0.18 -0.26,-0.33l0 0zm-0.05 -1.15c-0.12,0.05 -0.28,0.09 -0.51,0.14 -0.22,0.05 -0.37,0.08 -0.46,0.1 -0.08,0.03 -0.16,0.07 -0.24,0.13 -0.08,0.07 -0.12,0.16 -0.12,0.28 0,0.12 0.05,0.22 0.14,0.3 0.09,0.09 0.21,0.13 0.36,0.13 0.15,0 0.3,-0.04 0.43,-0.1 0.13,-0.07 0.23,-0.16 0.29,-0.27 0.07,-0.12 0.11,-0.32 0.11,-0.59l0 -0.12 0 0z"/>
   <g id="_2113680371392">
    <path class="fil3" d="M0 27.81l0 -2.18c0,-0.12 0.03,-0.2 0.08,-0.26 0.05,-0.06 0.12,-0.08 0.2,-0.08 0.08,0 0.15,0.02 0.2,0.08 0.05,0.06 0.08,0.14 0.08,0.26l0 2.18c0,0.11 -0.03,0.2 -0.08,0.25 -0.05,0.06 -0.12,0.09 -0.2,0.09 -0.08,0 -0.15,-0.03 -0.2,-0.09 -0.05,-0.06 -0.08,-0.14 -0.08,-0.25zm1.62 -1.47l0 0.06c0.09,-0.12 0.19,-0.21 0.3,-0.26 0.1,-0.06 0.23,-0.09 0.37,-0.09 0.13,0 0.25,0.03 0.36,0.09 0.11,0.06 0.19,0.14 0.24,0.25 0.04,0.06 0.06,0.13 0.07,0.21 0.01,0.07 0.01,0.16 0.01,0.27l0 0.96c0,0.11 -0.02,0.18 -0.07,0.24 -0.05,0.05 -0.11,0.08 -0.18,0.08 -0.08,0 -0.14,-0.03 -0.19,-0.08 -0.05,-0.06 -0.07,-0.14 -0.07,-0.24l0 -0.86c0,-0.17 -0.02,-0.29 -0.07,-0.38 -0.05,-0.1 -0.14,-0.14 -0.28,-0.14 -0.1,0 -0.18,0.03 -0.26,0.08 -0.07,0.06 -0.13,0.13 -0.16,0.23 -0.03,0.07 -0.04,0.22 -0.04,0.43l0 0.64c0,0.11 -0.02,0.19 -0.07,0.24 -0.05,0.05 -0.11,0.08 -0.19,0.08 -0.07,0 -0.13,-0.03 -0.18,-0.08 -0.05,-0.06 -0.07,-0.14 -0.07,-0.24l0 -1.49c0,-0.09 0.02,-0.17 0.06,-0.22 0.04,-0.04 0.1,-0.07 0.18,-0.07 0.04,0 0.08,0.01 0.12,0.03 0.04,0.03 0.06,0.06 0.09,0.1 0.02,0.04 0.03,0.1 0.03,0.16l0 0zm1.83 -0.24l0.12 0 0 -0.16c0,-0.16 0.02,-0.29 0.06,-0.38 0.04,-0.1 0.11,-0.16 0.21,-0.21 0.09,-0.04 0.23,-0.06 0.4,-0.06 0.3,0 0.45,0.07 0.45,0.22 0,0.04 -0.02,0.09 -0.05,0.12 -0.03,0.03 -0.07,0.05 -0.11,0.05 -0.02,0 -0.06,0 -0.1,-0.01 -0.05,-0.01 -0.09,-0.01 -0.13,-0.01 -0.09,0 -0.15,0.02 -0.18,0.08 -0.02,0.05 -0.04,0.13 -0.04,0.23l0 0.13 0.13 0c0.19,0 0.29,0.06 0.29,0.17 0,0.09 -0.02,0.14 -0.07,0.16 -0.06,0.03 -0.13,0.04 -0.22,0.04l-0.13 0 0 1.36c0,0.11 -0.02,0.18 -0.07,0.24 -0.05,0.05 -0.11,0.08 -0.19,0.08 -0.07,0 -0.13,-0.03 -0.18,-0.08 -0.05,-0.06 -0.07,-0.13 -0.07,-0.24l0 -1.36 -0.14 0c-0.08,0 -0.14,-0.02 -0.18,-0.05 -0.04,-0.04 -0.06,-0.08 -0.06,-0.14 0,-0.12 0.08,-0.18 0.26,-0.18zm3.2 1c0,0.15 -0.02,0.29 -0.07,0.42 -0.05,0.13 -0.12,0.25 -0.21,0.34 -0.09,0.09 -0.2,0.16 -0.32,0.21 -0.13,0.05 -0.27,0.08 -0.43,0.08 -0.15,0 -0.29,-0.03 -0.42,-0.08 -0.12,-0.05 -0.23,-0.12 -0.32,-0.21 -0.09,-0.1 -0.16,-0.21 -0.21,-0.34 -0.05,-0.13 -0.07,-0.27 -0.07,-0.42 0,-0.16 0.02,-0.3 0.07,-0.43 0.05,-0.13 0.12,-0.24 0.21,-0.33 0.09,-0.09 0.2,-0.16 0.32,-0.21 0.13,-0.05 0.27,-0.08 0.42,-0.08 0.16,0 0.3,0.03 0.43,0.08 0.12,0.05 0.23,0.12 0.32,0.21 0.1,0.1 0.16,0.21 0.21,0.34 0.05,0.12 0.07,0.27 0.07,0.42l0 0zm-0.52 0c0,-0.21 -0.04,-0.37 -0.13,-0.49 -0.1,-0.12 -0.22,-0.18 -0.38,-0.18 -0.1,0 -0.19,0.03 -0.26,0.08 -0.08,0.05 -0.14,0.13 -0.18,0.23 -0.04,0.11 -0.06,0.22 -0.06,0.36 0,0.14 0.02,0.25 0.06,0.35 0.04,0.1 0.1,0.18 0.17,0.23 0.08,0.06 0.17,0.08 0.27,0.08 0.16,0 0.28,-0.05 0.38,-0.17 0.09,-0.12 0.13,-0.28 0.13,-0.49l0 0zm1.44 0.3l0 0.43c0,0.11 -0.03,0.19 -0.07,0.24 -0.05,0.05 -0.12,0.08 -0.19,0.08 -0.08,0 -0.14,-0.03 -0.18,-0.08 -0.05,-0.06 -0.08,-0.13 -0.08,-0.24l0 -1.43c0,-0.23 0.09,-0.35 0.25,-0.35 0.09,0 0.15,0.03 0.19,0.08 0.04,0.06 0.06,0.14 0.06,0.24 0.06,-0.1 0.13,-0.18 0.19,-0.24 0.07,-0.05 0.15,-0.08 0.26,-0.08 0.11,0 0.21,0.03 0.32,0.08 0.1,0.06 0.15,0.13 0.15,0.22 0,0.06 -0.02,0.11 -0.07,0.15 -0.04,0.05 -0.09,0.07 -0.14,0.07 -0.02,0 -0.06,-0.02 -0.13,-0.04 -0.08,-0.02 -0.14,-0.03 -0.2,-0.03 -0.07,0 -0.13,0.02 -0.18,0.06 -0.05,0.04 -0.09,0.09 -0.11,0.17 -0.03,0.08 -0.05,0.17 -0.06,0.28 -0.01,0.11 -0.01,0.24 -0.01,0.39l0 0zm2.89 -0.26l0 0.68c0,0.11 -0.02,0.19 -0.07,0.25 -0.05,0.05 -0.11,0.08 -0.19,0.08 -0.08,0 -0.15,-0.03 -0.19,-0.08 -0.05,-0.06 -0.08,-0.14 -0.08,-0.25l0 -0.82c0,-0.13 0,-0.23 -0.01,-0.3 -0.01,-0.07 -0.03,-0.13 -0.07,-0.18 -0.04,-0.04 -0.1,-0.07 -0.19,-0.07 -0.17,0 -0.28,0.06 -0.33,0.18 -0.05,0.11 -0.08,0.28 -0.08,0.5l0 0.69c0,0.11 -0.02,0.19 -0.07,0.25 -0.05,0.05 -0.12,0.08 -0.19,0.08 -0.08,0 -0.15,-0.03 -0.19,-0.08 -0.05,-0.06 -0.08,-0.14 -0.08,-0.25l0 -1.47c0,-0.1 0.02,-0.17 0.07,-0.22 0.04,-0.05 0.1,-0.08 0.17,-0.08 0.07,0 0.13,0.03 0.18,0.07 0.05,0.05 0.07,0.11 0.07,0.2l0 0.05c0.09,-0.11 0.19,-0.19 0.29,-0.24 0.1,-0.05 0.21,-0.07 0.34,-0.07 0.13,0 0.24,0.02 0.33,0.07 0.1,0.05 0.17,0.13 0.23,0.24 0.09,-0.11 0.18,-0.19 0.28,-0.24 0.1,-0.05 0.21,-0.07 0.33,-0.07 0.14,0 0.26,0.02 0.37,0.08 0.1,0.05 0.17,0.13 0.22,0.24 0.05,0.09 0.07,0.24 0.07,0.44l0 1c0,0.11 -0.02,0.19 -0.07,0.25 -0.05,0.05 -0.12,0.08 -0.2,0.08 -0.07,0 -0.14,-0.03 -0.19,-0.08 -0.05,-0.06 -0.07,-0.14 -0.07,-0.25l0 -0.86c0,-0.12 -0.01,-0.2 -0.02,-0.27 -0.01,-0.07 -0.03,-0.12 -0.07,-0.17 -0.05,-0.04 -0.11,-0.07 -0.19,-0.07 -0.07,0 -0.14,0.02 -0.2,0.06 -0.06,0.04 -0.11,0.1 -0.14,0.17 -0.04,0.08 -0.06,0.24 -0.06,0.46l0 0zm3.01 0.72c-0.12,0.09 -0.24,0.17 -0.36,0.22 -0.11,0.04 -0.24,0.07 -0.39,0.07 -0.13,0 -0.25,-0.03 -0.35,-0.08 -0.1,-0.05 -0.17,-0.12 -0.23,-0.21 -0.05,-0.09 -0.08,-0.19 -0.08,-0.29 0,-0.15 0.04,-0.27 0.13,-0.36 0.09,-0.1 0.22,-0.17 0.37,-0.2 0.04,-0.01 0.12,-0.03 0.25,-0.06 0.13,-0.02 0.24,-0.05 0.33,-0.07 0.09,-0.02 0.19,-0.05 0.3,-0.08 -0.01,-0.13 -0.03,-0.23 -0.08,-0.3 -0.05,-0.06 -0.15,-0.09 -0.3,-0.09 -0.13,0 -0.23,0.02 -0.3,0.05 -0.07,0.04 -0.12,0.09 -0.17,0.17 -0.05,0.07 -0.08,0.12 -0.1,0.14 -0.02,0.02 -0.06,0.04 -0.12,0.04 -0.06,0 -0.11,-0.02 -0.15,-0.06 -0.05,-0.04 -0.07,-0.08 -0.07,-0.14 0,-0.09 0.03,-0.18 0.1,-0.27 0.06,-0.08 0.16,-0.15 0.3,-0.21 0.13,-0.05 0.3,-0.08 0.51,-0.08 0.22,0 0.4,0.03 0.53,0.08 0.13,0.05 0.22,0.14 0.28,0.25 0.05,0.12 0.08,0.27 0.08,0.46 0,0.12 0,0.23 -0.01,0.31 0,0.09 0,0.18 0,0.28 0,0.1 0.02,0.2 0.05,0.3 0.03,0.11 0.05,0.18 0.05,0.21 0,0.05 -0.03,0.1 -0.08,0.14 -0.05,0.05 -0.1,0.07 -0.17,0.07 -0.05,0 -0.1,-0.03 -0.15,-0.08 -0.05,-0.05 -0.11,-0.12 -0.17,-0.21l0 0zm-0.03 -0.75c-0.08,0.03 -0.19,0.06 -0.33,0.09 -0.14,0.03 -0.24,0.05 -0.3,0.07 -0.05,0.01 -0.11,0.04 -0.16,0.08 -0.05,0.04 -0.07,0.1 -0.07,0.18 0,0.08 0.03,0.14 0.09,0.2 0.05,0.05 0.13,0.08 0.23,0.08 0.1,0 0.19,-0.02 0.28,-0.07 0.09,-0.04 0.15,-0.1 0.19,-0.17 0.05,-0.08 0.07,-0.21 0.07,-0.39l0 -0.07zm2.69 0.36c0,0.15 -0.04,0.27 -0.11,0.37 -0.07,0.1 -0.17,0.18 -0.3,0.23 -0.14,0.05 -0.3,0.08 -0.5,0.08 -0.18,0 -0.34,-0.03 -0.47,-0.09 -0.13,-0.05 -0.23,-0.13 -0.29,-0.21 -0.07,-0.08 -0.1,-0.17 -0.1,-0.26 0,-0.05 0.02,-0.1 0.06,-0.14 0.04,-0.04 0.09,-0.06 0.15,-0.06 0.06,0 0.1,0.01 0.13,0.04 0.03,0.03 0.06,0.06 0.08,0.11 0.06,0.09 0.12,0.16 0.19,0.21 0.07,0.04 0.18,0.06 0.3,0.06 0.11,0 0.19,-0.02 0.25,-0.06 0.07,-0.05 0.1,-0.1 0.1,-0.16 0,-0.09 -0.03,-0.16 -0.1,-0.2 -0.07,-0.04 -0.18,-0.08 -0.34,-0.12 -0.17,-0.04 -0.32,-0.09 -0.43,-0.14 -0.11,-0.05 -0.2,-0.11 -0.27,-0.19 -0.06,-0.08 -0.1,-0.18 -0.1,-0.29 0,-0.11 0.03,-0.2 0.1,-0.3 0.06,-0.09 0.15,-0.16 0.27,-0.22 0.12,-0.05 0.26,-0.08 0.43,-0.08 0.14,0 0.26,0.01 0.36,0.04 0.11,0.03 0.2,0.07 0.27,0.11 0.07,0.05 0.12,0.1 0.16,0.16 0.04,0.06 0.06,0.11 0.06,0.17 0,0.06 -0.02,0.1 -0.06,0.14 -0.04,0.04 -0.1,0.06 -0.17,0.06 -0.05,0 -0.1,-0.02 -0.14,-0.05 -0.03,-0.03 -0.08,-0.07 -0.12,-0.13 -0.04,-0.05 -0.09,-0.09 -0.14,-0.12 -0.05,-0.03 -0.13,-0.05 -0.22,-0.05 -0.09,0 -0.17,0.02 -0.23,0.06 -0.06,0.04 -0.09,0.09 -0.09,0.15 0,0.05 0.02,0.1 0.07,0.13 0.04,0.04 0.1,0.06 0.18,0.09 0.08,0.02 0.18,0.05 0.32,0.08 0.16,0.04 0.29,0.09 0.39,0.14 0.1,0.05 0.18,0.12 0.23,0.19 0.05,0.08 0.08,0.16 0.08,0.25l0 0zm0.95 -1.13l0 1.49c0,0.11 -0.03,0.18 -0.08,0.24 -0.04,0.05 -0.11,0.08 -0.18,0.08 -0.08,0 -0.14,-0.03 -0.18,-0.08 -0.05,-0.06 -0.08,-0.14 -0.08,-0.24l0 -1.47c0,-0.1 0.03,-0.18 0.08,-0.23 0.04,-0.05 0.1,-0.08 0.18,-0.08 0.07,0 0.14,0.03 0.18,0.08 0.05,0.05 0.08,0.12 0.08,0.21zm-0.26 -0.53c-0.07,0 -0.13,-0.02 -0.18,-0.06 -0.05,-0.05 -0.08,-0.11 -0.08,-0.19 0,-0.07 0.03,-0.13 0.08,-0.18 0.05,-0.05 0.11,-0.07 0.18,-0.07 0.07,0 0.13,0.02 0.18,0.06 0.05,0.05 0.08,0.11 0.08,0.19 0,0.08 -0.03,0.14 -0.08,0.19 -0.05,0.04 -0.11,0.06 -0.18,0.06l0 0zm3.17 2.04l0 -0.05c-0.07,0.08 -0.14,0.15 -0.21,0.19 -0.06,0.06 -0.14,0.09 -0.22,0.12 -0.07,0.02 -0.16,0.04 -0.25,0.04 -0.13,0 -0.24,-0.03 -0.34,-0.08 -0.11,-0.05 -0.2,-0.13 -0.28,-0.23 -0.07,-0.09 -0.13,-0.21 -0.17,-0.34 -0.04,-0.13 -0.06,-0.27 -0.06,-0.42 0,-0.32 0.08,-0.57 0.23,-0.75 0.16,-0.18 0.37,-0.27 0.62,-0.27 0.15,0 0.28,0.02 0.38,0.07 0.1,0.05 0.2,0.13 0.3,0.24l0 -0.76c0,-0.11 0.02,-0.19 0.06,-0.24 0.04,-0.06 0.1,-0.08 0.18,-0.08 0.08,0 0.14,0.02 0.18,0.07 0.05,0.05 0.07,0.12 0.07,0.22l0 2.27c0,0.1 -0.03,0.17 -0.07,0.22 -0.05,0.05 -0.11,0.08 -0.18,0.08 -0.07,0 -0.13,-0.03 -0.17,-0.08 -0.05,-0.05 -0.07,-0.12 -0.07,-0.22l0 0zm-1.01 -0.75c0,0.14 0.02,0.25 0.06,0.35 0.04,0.1 0.1,0.17 0.18,0.22 0.08,0.05 0.16,0.08 0.25,0.08 0.09,0 0.17,-0.02 0.25,-0.07 0.07,-0.05 0.13,-0.12 0.17,-0.22 0.05,-0.1 0.07,-0.22 0.07,-0.36 0,-0.14 -0.02,-0.26 -0.07,-0.36 -0.04,-0.1 -0.1,-0.17 -0.18,-0.22 -0.07,-0.06 -0.16,-0.08 -0.25,-0.08 -0.09,0 -0.18,0.02 -0.25,0.08 -0.07,0.05 -0.13,0.13 -0.17,0.23 -0.04,0.1 -0.06,0.21 -0.06,0.35l0 0zm3.32 0.76c-0.13,0.09 -0.25,0.17 -0.37,0.22 -0.11,0.04 -0.24,0.07 -0.39,0.07 -0.13,0 -0.25,-0.03 -0.35,-0.08 -0.1,-0.05 -0.17,-0.12 -0.23,-0.21 -0.05,-0.09 -0.08,-0.19 -0.08,-0.29 0,-0.15 0.05,-0.27 0.14,-0.36 0.09,-0.1 0.21,-0.17 0.37,-0.2 0.03,-0.01 0.11,-0.03 0.24,-0.06 0.13,-0.02 0.24,-0.05 0.33,-0.07 0.09,-0.02 0.19,-0.05 0.3,-0.08 0,-0.13 -0.03,-0.23 -0.08,-0.3 -0.05,-0.06 -0.15,-0.09 -0.3,-0.09 -0.13,0 -0.23,0.02 -0.3,0.05 -0.06,0.04 -0.12,0.09 -0.17,0.17 -0.04,0.07 -0.08,0.12 -0.1,0.14 -0.02,0.02 -0.06,0.04 -0.12,0.04 -0.06,0 -0.11,-0.02 -0.15,-0.06 -0.04,-0.04 -0.07,-0.08 -0.07,-0.14 0,-0.09 0.04,-0.18 0.1,-0.27 0.07,-0.08 0.17,-0.15 0.3,-0.21 0.14,-0.05 0.31,-0.08 0.51,-0.08 0.23,0 0.4,0.03 0.53,0.08 0.13,0.05 0.22,0.14 0.28,0.25 0.05,0.12 0.08,0.27 0.08,0.46 0,0.12 0,0.23 0,0.31 0,0.09 0,0.18 -0.01,0.28 0,0.1 0.02,0.2 0.05,0.3 0.04,0.11 0.05,0.18 0.05,0.21 0,0.05 -0.02,0.1 -0.07,0.14 -0.05,0.05 -0.11,0.07 -0.17,0.07 -0.06,0 -0.11,-0.03 -0.16,-0.08 -0.05,-0.05 -0.11,-0.12 -0.16,-0.21l0 0zm-0.04 -0.75c-0.07,0.03 -0.18,0.06 -0.33,0.09 -0.14,0.03 -0.24,0.05 -0.3,0.07 -0.05,0.01 -0.1,0.04 -0.15,0.08 -0.05,0.04 -0.08,0.1 -0.08,0.18 0,0.08 0.03,0.14 0.09,0.2 0.06,0.05 0.13,0.08 0.23,0.08 0.1,0 0.2,-0.02 0.28,-0.07 0.09,-0.04 0.15,-0.1 0.19,-0.17 0.05,-0.08 0.07,-0.21 0.07,-0.39l0 -0.07zm1.5 -0.77l0 0.06c0.09,-0.12 0.19,-0.21 0.3,-0.26 0.1,-0.06 0.23,-0.09 0.37,-0.09 0.13,0 0.25,0.03 0.36,0.09 0.11,0.06 0.19,0.14 0.24,0.25 0.03,0.06 0.06,0.13 0.07,0.21 0.01,0.07 0.01,0.16 0.01,0.27l0 0.96c0,0.11 -0.02,0.18 -0.07,0.24 -0.05,0.05 -0.11,0.08 -0.18,0.08 -0.08,0 -0.14,-0.03 -0.19,-0.08 -0.05,-0.06 -0.07,-0.14 -0.07,-0.24l0 -0.86c0,-0.17 -0.03,-0.29 -0.07,-0.38 -0.05,-0.1 -0.14,-0.14 -0.29,-0.14 -0.09,0 -0.17,0.03 -0.25,0.08 -0.07,0.06 -0.13,0.13 -0.16,0.23 -0.03,0.07 -0.04,0.22 -0.04,0.43l0 0.64c0,0.11 -0.03,0.19 -0.07,0.24 -0.05,0.05 -0.11,0.08 -0.19,0.08 -0.07,0 -0.14,-0.03 -0.18,-0.08 -0.05,-0.06 -0.07,-0.14 -0.07,-0.24l0 -1.49c0,-0.09 0.02,-0.17 0.06,-0.22 0.04,-0.04 0.1,-0.07 0.17,-0.07 0.05,0 0.09,0.01 0.13,0.03 0.03,0.03 0.06,0.06 0.08,0.1 0.03,0.04 0.04,0.1 0.04,0.16l0 0zm3.21 -1.01l0.73 0c0.19,0 0.36,0.02 0.49,0.06 0.14,0.03 0.26,0.1 0.37,0.19 0.29,0.25 0.44,0.63 0.44,1.13 0,0.17 -0.02,0.32 -0.05,0.45 -0.03,0.14 -0.07,0.26 -0.13,0.38 -0.06,0.11 -0.14,0.2 -0.23,0.29 -0.08,0.07 -0.16,0.12 -0.25,0.16 -0.08,0.04 -0.18,0.07 -0.28,0.09 -0.1,0.01 -0.22,0.02 -0.34,0.02l-0.73 0c-0.11,0 -0.18,-0.02 -0.23,-0.05 -0.06,-0.03 -0.09,-0.07 -0.11,-0.13 -0.01,-0.05 -0.02,-0.13 -0.02,-0.21l0 -2.03c0,-0.12 0.03,-0.21 0.08,-0.27 0.06,-0.05 0.14,-0.08 0.26,-0.08l0 0zm0.22 0.45l0 1.88 0.43 0c0.09,0 0.16,-0.01 0.22,-0.01 0.05,-0.01 0.1,-0.02 0.16,-0.04 0.06,-0.02 0.11,-0.05 0.15,-0.08 0.18,-0.16 0.28,-0.44 0.28,-0.82 0,-0.28 -0.04,-0.48 -0.13,-0.62 -0.08,-0.13 -0.18,-0.22 -0.3,-0.26 -0.12,-0.03 -0.27,-0.05 -0.44,-0.05l-0.37 0 0 0zm4.19 1.32c0,0.15 -0.02,0.29 -0.07,0.42 -0.05,0.13 -0.12,0.25 -0.21,0.34 -0.09,0.09 -0.2,0.16 -0.32,0.21 -0.13,0.05 -0.27,0.08 -0.43,0.08 -0.15,0 -0.29,-0.03 -0.42,-0.08 -0.12,-0.05 -0.23,-0.12 -0.32,-0.21 -0.09,-0.1 -0.16,-0.21 -0.21,-0.34 -0.05,-0.13 -0.07,-0.27 -0.07,-0.42 0,-0.16 0.02,-0.3 0.07,-0.43 0.05,-0.13 0.12,-0.24 0.21,-0.33 0.09,-0.09 0.2,-0.16 0.32,-0.21 0.13,-0.05 0.27,-0.08 0.42,-0.08 0.16,0 0.3,0.03 0.43,0.08 0.12,0.05 0.23,0.12 0.32,0.21 0.1,0.1 0.16,0.21 0.21,0.34 0.05,0.12 0.07,0.27 0.07,0.42zm-0.52 0c0,-0.21 -0.04,-0.37 -0.13,-0.49 -0.1,-0.12 -0.22,-0.18 -0.38,-0.18 -0.1,0 -0.19,0.03 -0.26,0.08 -0.08,0.05 -0.14,0.13 -0.18,0.23 -0.04,0.11 -0.06,0.22 -0.06,0.36 0,0.14 0.02,0.25 0.06,0.35 0.04,0.1 0.1,0.18 0.17,0.23 0.08,0.06 0.17,0.08 0.27,0.08 0.16,0 0.28,-0.05 0.38,-0.17 0.09,-0.12 0.13,-0.28 0.13,-0.49l0 0zm2.21 0.81l-0.45 -0.74 -0.28 0.26 0 0.41c0,0.1 -0.03,0.17 -0.08,0.23 -0.05,0.05 -0.11,0.08 -0.18,0.08 -0.08,0 -0.14,-0.03 -0.19,-0.08 -0.04,-0.06 -0.07,-0.13 -0.07,-0.24l0 -2.19c0,-0.12 0.02,-0.2 0.07,-0.26 0.04,-0.06 0.11,-0.09 0.19,-0.09 0.08,0 0.14,0.02 0.19,0.08 0.04,0.05 0.07,0.13 0.07,0.24l0 1.25 0.58 -0.61c0.07,-0.08 0.12,-0.13 0.16,-0.16 0.04,-0.03 0.08,-0.04 0.14,-0.04 0.06,0 0.12,0.02 0.16,0.06 0.04,0.04 0.06,0.1 0.06,0.16 0,0.07 -0.07,0.17 -0.21,0.3l-0.27 0.25 0.53 0.83c0.04,0.06 0.07,0.11 0.08,0.14 0.02,0.03 0.03,0.06 0.03,0.09 0,0.08 -0.02,0.15 -0.07,0.2 -0.04,0.04 -0.1,0.07 -0.17,0.07 -0.07,0 -0.12,-0.02 -0.15,-0.05 -0.03,-0.04 -0.08,-0.1 -0.14,-0.19l0 0zm2.18 -0.05l0 -0.07c-0.07,0.08 -0.13,0.14 -0.2,0.2 -0.07,0.05 -0.14,0.09 -0.22,0.11 -0.08,0.03 -0.17,0.04 -0.28,0.04 -0.12,0 -0.23,-0.02 -0.33,-0.07 -0.1,-0.06 -0.18,-0.13 -0.23,-0.22 -0.07,-0.11 -0.1,-0.26 -0.1,-0.47l0 -1.02c0,-0.1 0.03,-0.18 0.07,-0.23 0.05,-0.05 0.11,-0.08 0.19,-0.08 0.07,0 0.14,0.03 0.19,0.08 0.04,0.05 0.07,0.13 0.07,0.23l0 0.82c0,0.12 0.01,0.22 0.03,0.31 0.02,0.08 0.05,0.14 0.11,0.19 0.05,0.04 0.12,0.06 0.21,0.06 0.09,0 0.17,-0.02 0.24,-0.07 0.08,-0.05 0.14,-0.12 0.17,-0.2 0.03,-0.08 0.05,-0.24 0.05,-0.48l0 -0.63c0,-0.1 0.02,-0.18 0.07,-0.23 0.04,-0.05 0.11,-0.08 0.18,-0.08 0.08,0 0.14,0.03 0.19,0.08 0.05,0.05 0.07,0.13 0.07,0.23l0 1.49c0,0.1 -0.02,0.17 -0.07,0.22 -0.04,0.05 -0.1,0.08 -0.17,0.08 -0.07,0 -0.13,-0.03 -0.18,-0.08 -0.04,-0.05 -0.06,-0.12 -0.06,-0.21l0 0zm2.71 -0.72l0 0.68c0,0.11 -0.03,0.19 -0.08,0.25 -0.05,0.05 -0.11,0.08 -0.19,0.08 -0.08,0 -0.14,-0.03 -0.19,-0.08 -0.05,-0.06 -0.07,-0.14 -0.07,-0.25l0 -0.82c0,-0.13 -0.01,-0.23 -0.02,-0.3 -0.01,-0.07 -0.03,-0.13 -0.07,-0.18 -0.04,-0.04 -0.1,-0.07 -0.18,-0.07 -0.17,0 -0.28,0.06 -0.34,0.18 -0.05,0.11 -0.08,0.28 -0.08,0.5l0 0.69c0,0.11 -0.02,0.19 -0.07,0.25 -0.05,0.05 -0.11,0.08 -0.19,0.08 -0.08,0 -0.14,-0.03 -0.19,-0.08 -0.05,-0.06 -0.08,-0.14 -0.08,-0.25l0 -1.47c0,-0.1 0.02,-0.17 0.07,-0.22 0.04,-0.05 0.1,-0.08 0.18,-0.08 0.07,0 0.12,0.03 0.17,0.07 0.05,0.05 0.07,0.11 0.07,0.2l0 0.05c0.09,-0.11 0.19,-0.19 0.29,-0.24 0.1,-0.05 0.21,-0.07 0.34,-0.07 0.13,0 0.24,0.02 0.33,0.07 0.1,0.05 0.17,0.13 0.23,0.24 0.09,-0.11 0.18,-0.19 0.28,-0.24 0.1,-0.05 0.21,-0.07 0.33,-0.07 0.14,0 0.26,0.02 0.37,0.08 0.1,0.05 0.18,0.13 0.23,0.24 0.04,0.09 0.06,0.24 0.06,0.44l0 1c0,0.11 -0.02,0.19 -0.07,0.25 -0.05,0.05 -0.12,0.08 -0.2,0.08 -0.07,0 -0.14,-0.03 -0.19,-0.08 -0.05,-0.06 -0.07,-0.14 -0.07,-0.25l0 -0.86c0,-0.12 -0.01,-0.2 -0.02,-0.27 -0.01,-0.07 -0.03,-0.12 -0.07,-0.17 -0.04,-0.04 -0.11,-0.07 -0.19,-0.07 -0.07,0 -0.13,0.02 -0.2,0.06 -0.06,0.04 -0.1,0.1 -0.14,0.17 -0.04,0.08 -0.05,0.24 -0.05,0.46l0 0zm3.14 0.09l-1.01 0c0,0.11 0.03,0.22 0.07,0.31 0.05,0.09 0.11,0.15 0.19,0.2 0.07,0.04 0.16,0.07 0.25,0.07 0.06,0 0.12,-0.01 0.17,-0.03 0.05,-0.01 0.1,-0.03 0.15,-0.06 0.04,-0.03 0.09,-0.07 0.13,-0.1 0.04,-0.04 0.09,-0.09 0.15,-0.15 0.03,-0.02 0.07,-0.03 0.12,-0.03 0.05,0 0.09,0.01 0.13,0.04 0.03,0.03 0.05,0.07 0.05,0.13 0,0.04 -0.02,0.1 -0.06,0.16 -0.04,0.06 -0.09,0.12 -0.16,0.18 -0.08,0.06 -0.17,0.1 -0.28,0.14 -0.11,0.04 -0.24,0.06 -0.39,0.06 -0.33,0 -0.58,-0.1 -0.77,-0.29 -0.18,-0.19 -0.27,-0.44 -0.27,-0.76 0,-0.16 0.02,-0.3 0.06,-0.43 0.05,-0.13 0.12,-0.24 0.2,-0.33 0.09,-0.1 0.2,-0.17 0.32,-0.22 0.13,-0.05 0.27,-0.07 0.43,-0.07 0.2,0 0.37,0.04 0.51,0.13 0.15,0.08 0.26,0.19 0.33,0.33 0.07,0.13 0.11,0.27 0.11,0.41 0,0.13 -0.04,0.21 -0.12,0.25 -0.07,0.04 -0.17,0.06 -0.31,0.06l0 0zm-1.01 -0.3l0.94 0c-0.02,-0.17 -0.06,-0.3 -0.15,-0.39 -0.08,-0.09 -0.19,-0.13 -0.32,-0.13 -0.13,0 -0.24,0.04 -0.32,0.13 -0.08,0.09 -0.13,0.22 -0.15,0.39z"/>
    <path class="fil3" d="M42.43 26.34l0 0.06c0.09,-0.12 0.19,-0.21 0.29,-0.26 0.11,-0.06 0.24,-0.09 0.38,-0.09 0.13,0 0.25,0.03 0.36,0.09 0.11,0.06 0.19,0.14 0.24,0.25 0.03,0.06 0.06,0.13 0.07,0.21 0.01,0.07 0.01,0.16 0.01,0.27l0 0.96c0,0.11 -0.02,0.18 -0.07,0.24 -0.05,0.05 -0.11,0.08 -0.18,0.08 -0.08,0 -0.14,-0.03 -0.19,-0.08 -0.05,-0.06 -0.07,-0.14 -0.07,-0.24l0 -0.86c0,-0.17 -0.03,-0.29 -0.07,-0.38 -0.05,-0.1 -0.15,-0.14 -0.29,-0.14 -0.09,0 -0.17,0.03 -0.25,0.08 -0.07,0.06 -0.13,0.13 -0.16,0.23 -0.03,0.07 -0.04,0.22 -0.04,0.43l0 0.64c0,0.11 -0.03,0.19 -0.07,0.24 -0.05,0.05 -0.11,0.08 -0.19,0.08 -0.07,0 -0.14,-0.03 -0.18,-0.08 -0.05,-0.06 -0.08,-0.14 -0.08,-0.24l0 -1.49c0,-0.09 0.03,-0.17 0.07,-0.22 0.04,-0.04 0.1,-0.07 0.17,-0.07 0.05,0 0.09,0.01 0.13,0.03 0.03,0.03 0.06,0.06 0.08,0.1 0.03,0.04 0.04,0.1 0.04,0.16l0 0zm1.89 -0.24l0.06 0 0 -0.31c0,-0.08 0,-0.15 0.01,-0.2 0,-0.04 0.01,-0.09 0.03,-0.12 0.02,-0.03 0.05,-0.06 0.09,-0.09 0.04,-0.02 0.08,-0.03 0.13,-0.03 0.06,0 0.12,0.03 0.17,0.08 0.04,0.03 0.06,0.07 0.07,0.12 0.01,0.04 0.01,0.11 0.01,0.2l0 0.35 0.19 0c0.08,0 0.13,0.02 0.17,0.05 0.04,0.03 0.06,0.08 0.06,0.13 0,0.07 -0.03,0.12 -0.08,0.15 -0.06,0.03 -0.14,0.04 -0.24,0.04l-0.1 0 0 0.95c0,0.08 0.01,0.14 0.01,0.18 0.01,0.05 0.02,0.08 0.05,0.11 0.02,0.02 0.06,0.04 0.12,0.04 0.03,0 0.07,-0.01 0.12,-0.02 0.05,-0.01 0.09,-0.01 0.12,-0.01 0.04,0 0.08,0.01 0.11,0.05 0.04,0.03 0.05,0.07 0.05,0.12 0,0.08 -0.04,0.15 -0.13,0.19 -0.09,0.05 -0.22,0.07 -0.39,0.07 -0.16,0 -0.29,-0.03 -0.37,-0.08 -0.08,-0.06 -0.13,-0.13 -0.16,-0.23 -0.03,-0.09 -0.04,-0.22 -0.04,-0.38l0 -0.99 -0.07 0c-0.07,0 -0.13,-0.02 -0.17,-0.05 -0.04,-0.04 -0.06,-0.08 -0.06,-0.14 0,-0.05 0.02,-0.1 0.06,-0.13 0.05,-0.03 0.11,-0.05 0.18,-0.05zm2.65 1.76c-0.13,0.09 -0.25,0.17 -0.37,0.22 -0.11,0.04 -0.24,0.07 -0.39,0.07 -0.13,0 -0.25,-0.03 -0.35,-0.08 -0.1,-0.05 -0.17,-0.12 -0.23,-0.21 -0.05,-0.09 -0.08,-0.19 -0.08,-0.29 0,-0.15 0.05,-0.27 0.14,-0.36 0.09,-0.1 0.21,-0.17 0.36,-0.2 0.04,-0.01 0.12,-0.03 0.25,-0.06 0.13,-0.02 0.24,-0.05 0.33,-0.07 0.09,-0.02 0.19,-0.05 0.3,-0.08 0,-0.13 -0.03,-0.23 -0.08,-0.3 -0.05,-0.06 -0.15,-0.09 -0.3,-0.09 -0.13,0 -0.23,0.02 -0.3,0.05 -0.06,0.04 -0.12,0.09 -0.17,0.17 -0.04,0.07 -0.08,0.12 -0.1,0.14 -0.02,0.02 -0.06,0.04 -0.12,0.04 -0.06,0 -0.11,-0.02 -0.15,-0.06 -0.04,-0.04 -0.07,-0.08 -0.07,-0.14 0,-0.09 0.04,-0.18 0.1,-0.27 0.06,-0.08 0.17,-0.15 0.3,-0.21 0.14,-0.05 0.31,-0.08 0.51,-0.08 0.23,0 0.4,0.03 0.53,0.08 0.13,0.05 0.22,0.14 0.28,0.25 0.05,0.12 0.08,0.27 0.08,0.46 0,0.12 0,0.23 0,0.31 0,0.09 0,0.18 -0.01,0.28 0,0.1 0.02,0.2 0.05,0.3 0.03,0.11 0.05,0.18 0.05,0.21 0,0.05 -0.02,0.1 -0.07,0.14 -0.05,0.05 -0.11,0.07 -0.17,0.07 -0.06,0 -0.11,-0.03 -0.16,-0.08 -0.05,-0.05 -0.11,-0.12 -0.16,-0.21l0 0zm-0.04 -0.75c-0.07,0.03 -0.18,0.06 -0.33,0.09 -0.14,0.03 -0.24,0.05 -0.3,0.07 -0.05,0.01 -0.11,0.04 -0.15,0.08 -0.05,0.04 -0.08,0.1 -0.08,0.18 0,0.08 0.03,0.14 0.09,0.2 0.06,0.05 0.13,0.08 0.23,0.08 0.1,0 0.2,-0.02 0.28,-0.07 0.09,-0.04 0.15,-0.1 0.19,-0.17 0.05,-0.08 0.07,-0.21 0.07,-0.39l0 -0.07zm2.69 0.36c0,0.15 -0.04,0.27 -0.11,0.37 -0.06,0.1 -0.17,0.18 -0.3,0.23 -0.14,0.05 -0.3,0.08 -0.5,0.08 -0.18,0 -0.34,-0.03 -0.47,-0.09 -0.13,-0.05 -0.23,-0.13 -0.29,-0.21 -0.07,-0.08 -0.1,-0.17 -0.1,-0.26 0,-0.05 0.02,-0.1 0.06,-0.14 0.04,-0.04 0.09,-0.06 0.16,-0.06 0.05,0 0.09,0.01 0.12,0.04 0.03,0.03 0.06,0.06 0.08,0.11 0.06,0.09 0.12,0.16 0.19,0.21 0.08,0.04 0.18,0.06 0.3,0.06 0.11,0 0.19,-0.02 0.26,-0.06 0.06,-0.05 0.1,-0.1 0.1,-0.16 0,-0.09 -0.04,-0.16 -0.11,-0.2 -0.06,-0.04 -0.18,-0.08 -0.33,-0.12 -0.18,-0.04 -0.33,-0.09 -0.44,-0.14 -0.11,-0.05 -0.2,-0.11 -0.26,-0.19 -0.07,-0.08 -0.1,-0.18 -0.1,-0.29 0,-0.11 0.03,-0.2 0.09,-0.3 0.06,-0.09 0.15,-0.16 0.27,-0.22 0.12,-0.05 0.27,-0.08 0.44,-0.08 0.13,0 0.25,0.01 0.35,0.04 0.11,0.03 0.2,0.07 0.27,0.11 0.07,0.05 0.13,0.1 0.16,0.16 0.04,0.06 0.06,0.11 0.06,0.17 0,0.06 -0.02,0.1 -0.06,0.14 -0.04,0.04 -0.1,0.06 -0.17,0.06 -0.05,0 -0.1,-0.02 -0.13,-0.05 -0.04,-0.03 -0.08,-0.07 -0.13,-0.13 -0.04,-0.05 -0.09,-0.09 -0.14,-0.12 -0.05,-0.03 -0.12,-0.05 -0.21,-0.05 -0.1,0 -0.17,0.02 -0.24,0.06 -0.06,0.04 -0.09,0.09 -0.09,0.15 0,0.05 0.02,0.1 0.07,0.13 0.04,0.04 0.1,0.06 0.18,0.09 0.08,0.02 0.18,0.05 0.32,0.08 0.16,0.04 0.29,0.09 0.39,0.14 0.1,0.05 0.18,0.12 0.23,0.19 0.05,0.08 0.08,0.16 0.08,0.25l0 0zm0.95 -1.13l0 1.49c0,0.11 -0.02,0.18 -0.07,0.24 -0.05,0.05 -0.11,0.08 -0.19,0.08 -0.08,0 -0.14,-0.03 -0.18,-0.08 -0.05,-0.06 -0.07,-0.14 -0.07,-0.24l0 -1.47c0,-0.1 0.02,-0.18 0.07,-0.23 0.04,-0.05 0.1,-0.08 0.18,-0.08 0.08,0 0.14,0.03 0.19,0.08 0.05,0.05 0.07,0.12 0.07,0.21zm-0.25 -0.53c-0.08,0 -0.14,-0.02 -0.19,-0.06 -0.05,-0.05 -0.07,-0.11 -0.07,-0.19 0,-0.07 0.02,-0.13 0.07,-0.18 0.06,-0.05 0.12,-0.07 0.19,-0.07 0.06,0 0.12,0.02 0.17,0.06 0.05,0.05 0.08,0.11 0.08,0.19 0,0.08 -0.03,0.14 -0.08,0.19 -0.05,0.04 -0.1,0.06 -0.17,0.06l0 0z"/>
   </g>
  </g>
 </g>
</svg>
