<?xml version="1.0" encoding="UTF-8"?>
<!DOCTYPE svg PUBLIC "-//W3C//DTD SVG 1.1//EN" "http://www.w3.org/Graphics/SVG/1.1/DTD/svg11.dtd">
<!-- Creator: CorelDRAW 2017 -->
<svg xmlns="http://www.w3.org/2000/svg" xml:space="preserve" width="140px" height="140px" version="1.1" style="shape-rendering:geometricPrecision; text-rendering:geometricPrecision; image-rendering:optimizeQuality; fill-rule:evenodd; clip-rule:evenodd"
viewBox="0 0 21.38 21.38"
 xmlns:xlink="http://www.w3.org/1999/xlink">
 <defs>
  <style type="text/css">
   <![CDATA[
    .fil0 {fill:#663333}
   ]]>
  </style>
 </defs>
 <g id="Layer_x0020_1">
  <metadata id="CorelCorpID_0Corel-Layer"/>
  <g id="_1570160871008">
   <path class="fil0" d="M5.72 14.51l9.92 0 0 -8.11 -9.92 0 0 8.11zm4.97 -7c0.86,0 1.56,0.7 1.56,1.57 0,0.86 -0.7,1.56 -1.56,1.56 -0.86,0 -1.56,-0.7 -1.56,-1.56 0,-0.87 0.7,-1.57 1.56,-1.57zm-0.89 3.35c0.26,0.14 0.57,0.22 0.89,0.23 0.32,-0.01 0.62,-0.09 0.89,-0.23 0.55,0.49 1.39,1.04 1.39,2.58l-2.27 0 -0.03 0 -2.26 0c0,-1.54 0.84,-2.09 1.39,-2.58z"/>
   <path class="fil0" d="M10.69 0c-5.9,0 -10.69,4.79 -10.69,10.69 0,5.9 4.79,10.69 10.69,10.69 5.9,0 10.69,-4.79 10.69,-10.69 0,-5.9 -4.79,-10.69 -10.69,-10.69zm6.16 15.65c0,0.28 -0.23,0.51 -0.51,0.51l-11.3 0c-0.28,0 -0.51,-0.23 -0.51,-0.51l0 -9.92c0,-0.29 0.23,-0.52 0.51,-0.52l11.3 0c0.28,0 0.51,0.23 0.51,0.52l0 9.92 0 0 0 0z"/>
  </g>
 </g>
</svg>
