<?xml version="1.0" encoding="UTF-8"?>
<!DOCTYPE svg PUBLIC "-//W3C//DTD SVG 1.1//EN" "http://www.w3.org/Graphics/SVG/1.1/DTD/svg11.dtd">
<!-- Creator: CorelDRAW 2017 -->
<svg xmlns="http://www.w3.org/2000/svg" xml:space="preserve" width="180px" height="180px" version="1.1" style="shape-rendering:geometricPrecision; text-rendering:geometricPrecision; image-rendering:optimizeQuality; fill-rule:evenodd; clip-rule:evenodd"
viewBox="0 0 9.36 9.36"
 xmlns:xlink="http://www.w3.org/1999/xlink">
 <defs>
  <style type="text/css">
   <![CDATA[
    .fil0 {fill:#4AB8F7}
   ]]>
  </style>
 </defs>
 <g id="Layer_x0020_1">
  <metadata id="CorelCorpID_0Corel-Layer"/>
  <g id="_2855335420816">
   <path class="fil0" d="M2.51 6.36l4.34 0 0 -3.56 -4.34 0 0 3.56zm2.17 -3.07c0.38,0 0.69,0.31 0.69,0.69 0,0.37 -0.31,0.68 -0.69,0.68 -0.38,0 -0.68,-0.31 -0.68,-0.68 0,-0.38 0.3,-0.69 0.68,-0.69zm-0.39 1.47c0.12,0.06 0.25,0.1 0.39,0.1 0.14,0 0.28,-0.04 0.39,-0.1 0.24,0.21 0.61,0.45 0.61,1.13l-0.99 0 -0.01 0 -1 0c0,-0.68 0.37,-0.92 0.61,-1.13z"/>
   <path class="fil0" d="M4.68 0c-2.58,0 -4.68,2.1 -4.68,4.68 0,2.59 2.1,4.68 4.68,4.68 2.59,0 4.68,-2.09 4.68,-4.68 0,-2.58 -2.09,-4.68 -4.68,-4.68zm2.7 6.86c0,0.12 -0.1,0.22 -0.22,0.22l-4.95 0c-0.13,0 -0.23,-0.1 -0.23,-0.22l0 -4.35c0,-0.13 0.1,-0.23 0.23,-0.23l4.95 0c0.12,0 0.22,0.1 0.22,0.23l0 4.35 0 0 0 0z"/>
  </g>
 </g>
</svg>
