<?xml version="1.0" encoding="UTF-8"?>
<!DOCTYPE svg PUBLIC "-//W3C//DTD SVG 1.1//EN" "http://www.w3.org/Graphics/SVG/1.1/DTD/svg11.dtd">
<!-- Creator: CorelDRAW 2017 -->
<svg xmlns="http://www.w3.org/2000/svg" xml:space="preserve" width="180px" height="180px" version="1.1" style="shape-rendering:geometricPrecision; text-rendering:geometricPrecision; image-rendering:optimizeQuality; fill-rule:evenodd; clip-rule:evenodd"
viewBox="0 0 9.36 9.36"
 xmlns:xlink="http://www.w3.org/1999/xlink">
 <defs>
  <style type="text/css">
   <![CDATA[
    .fil0 {fill:#E48E66}
   ]]>
  </style>
 </defs>
 <g id="Layer_x0020_1">
  <metadata id="CorelCorpID_0Corel-Layer"/>
  <path class="fil0" d="M4.68 0c-2.58,0 -4.68,2.1 -4.68,4.68 0,2.59 2.1,4.68 4.68,4.68 2.59,0 4.68,-2.09 4.68,-4.68 0,-2.58 -2.09,-4.68 -4.68,-4.68zm2.65 6.3l-2.54 1.26c-0.03,0.01 -0.07,0.02 -0.11,0.02 -0.03,0 -0.07,-0.01 -0.11,-0.02l-2.53 -1.26c-0.12,-0.06 -0.17,-0.21 -0.11,-0.33 0.06,-0.12 0.2,-0.17 0.32,-0.11l2.43 1.21 2.43 -1.21c0.12,-0.06 0.27,-0.01 0.33,0.11 0.06,0.12 0.01,0.27 -0.11,0.33zm0 -0.93l-2.54 1.26c-0.03,0.02 -0.07,0.03 -0.11,0.03 -0.03,0 -0.07,-0.01 -0.11,-0.03l-2.53 -1.26c-0.12,-0.06 -0.17,-0.2 -0.11,-0.32 0.06,-0.12 0.2,-0.17 0.32,-0.11l2.43 1.2 2.43 -1.2c0.12,-0.06 0.27,-0.01 0.33,0.11 0.06,0.12 0.01,0.26 -0.11,0.32zm0 -0.92l-2.54 1.26c-0.03,0.01 -0.07,0.02 -0.11,0.02 -0.03,0 -0.07,-0.01 -0.11,-0.02l-2.53 -1.26c-0.12,-0.06 -0.17,-0.21 -0.11,-0.33 0.06,-0.12 0.2,-0.16 0.32,-0.1l2.43 1.2 2.43 -1.2c0.12,-0.06 0.27,-0.02 0.33,0.1 0.06,0.12 0.01,0.27 -0.11,0.33zm0 -0.97l-2.54 1.26c-0.03,0.02 -0.07,0.02 -0.11,0.02 -0.03,0 -0.07,0 -0.11,-0.02l-2.53 -1.26c-0.09,-0.04 -0.14,-0.12 -0.14,-0.22 0,-0.09 0.05,-0.17 0.14,-0.21l2.53 -1.26c0.07,-0.04 0.15,-0.04 0.22,0l2.54 1.26c0.08,0.04 0.13,0.12 0.13,0.21 0,0.1 -0.05,0.18 -0.13,0.22z"/>
 </g>
</svg>
