<?xml version="1.0" encoding="UTF-8"?>
<!DOCTYPE svg PUBLIC "-//W3C//DTD SVG 1.1//EN" "http://www.w3.org/Graphics/SVG/1.1/DTD/svg11.dtd">
<!-- Creator: CorelDRAW 2017 -->
<svg xmlns="http://www.w3.org/2000/svg" xml:space="preserve" width="140px" height="140px" version="1.1" style="shape-rendering:geometricPrecision; text-rendering:geometricPrecision; image-rendering:optimizeQuality; fill-rule:evenodd; clip-rule:evenodd"
viewBox="0 0 21.38 21.38"
 xmlns:xlink="http://www.w3.org/1999/xlink">
 <defs>
  <style type="text/css">
   <![CDATA[
    .fil0 {fill:#663333}
   ]]>
  </style>
 </defs>
 <g id="Layer_x0020_1">
  <metadata id="CorelCorpID_0Corel-Layer"/>
  <path class="fil0" d="M10.69 0c-5.9,0 -10.69,4.79 -10.69,10.69 0,5.9 4.79,10.69 10.69,10.69 5.9,0 10.69,-4.79 10.69,-10.69 0,-5.9 -4.79,-10.69 -10.69,-10.69zm6.04 14.38l-5.8 2.87c-0.07,0.04 -0.16,0.06 -0.24,0.06 -0.09,0 -0.17,-0.02 -0.25,-0.06l-5.79 -2.87c-0.27,-0.14 -0.39,-0.47 -0.25,-0.74 0.13,-0.28 0.47,-0.39 0.74,-0.25l5.55 2.74 5.55 -2.74c0.27,-0.14 0.6,-0.03 0.74,0.25 0.13,0.27 0.02,0.6 -0.25,0.74zm0 -2.11l-5.8 2.87c-0.07,0.04 -0.16,0.06 -0.24,0.06 -0.09,0 -0.17,-0.02 -0.25,-0.06l-5.79 -2.87c-0.27,-0.14 -0.39,-0.47 -0.25,-0.74 0.13,-0.28 0.47,-0.39 0.74,-0.25l5.55 2.75 5.55 -2.75c0.27,-0.14 0.6,-0.03 0.74,0.25 0.13,0.27 0.02,0.6 -0.25,0.74zm0 -2.11l-5.8 2.87c-0.07,0.04 -0.16,0.06 -0.24,0.06 -0.09,0 -0.17,-0.02 -0.25,-0.06l-5.79 -2.87c-0.27,-0.14 -0.39,-0.47 -0.25,-0.74 0.13,-0.28 0.47,-0.39 0.74,-0.25l5.55 2.75 5.55 -2.75c0.27,-0.14 0.6,-0.03 0.74,0.25 0.13,0.27 0.02,0.6 -0.25,0.74zm0 -2.21l-5.8 2.87c-0.07,0.04 -0.16,0.05 -0.24,0.05 -0.09,0 -0.17,-0.01 -0.25,-0.05l-5.79 -2.87c-0.19,-0.1 -0.31,-0.29 -0.31,-0.5 0,-0.21 0.12,-0.4 0.31,-0.5l5.79 -2.87c0.16,-0.08 0.34,-0.08 0.5,0l5.79 2.87c0.19,0.1 0.31,0.29 0.31,0.5 0,0.21 -0.12,0.4 -0.31,0.5z"/>
 </g>
</svg>
