<?xml version="1.0" encoding="UTF-8"?>
<!DOCTYPE svg PUBLIC "-//W3C//DTD SVG 1.1//EN" "http://www.w3.org/Graphics/SVG/1.1/DTD/svg11.dtd">
<!-- Creator: CorelDRAW 2017 -->
<svg xmlns="http://www.w3.org/2000/svg" xml:space="preserve" width="180px" height="180px" version="1.1" style="shape-rendering:geometricPrecision; text-rendering:geometricPrecision; image-rendering:optimizeQuality; fill-rule:evenodd; clip-rule:evenodd"
viewBox="0 0 9.36 9.36"
 xmlns:xlink="http://www.w3.org/1999/xlink">
 <defs>
  <style type="text/css">
   <![CDATA[
    .fil0 {fill:#E48E66}
   ]]>
  </style>
 </defs>
 <g id="Layer_x0020_1">
  <metadata id="CorelCorpID_0Corel-Layer"/>
  <path class="fil0" d="M4.68 0c-2.58,0 -4.68,2.1 -4.68,4.68 0,2.59 2.1,4.68 4.68,4.68 2.59,0 4.68,-2.09 4.68,-4.68 0,-2.58 -2.09,-4.68 -4.68,-4.68zm-2.68 3.31l4.08 0 0 0.49 -4.08 0 0 -0.49zm0 2.24l4.08 0 0 0.48 -4.08 0 0 -0.48zm5.37 1.6l-5.37 0 0 -0.49 5.37 0 0 0.49zm0 -2.24l-5.37 0 0 -0.48 5.37 0 0 0.48zm0 -2.23l-5.37 0 0 -0.49 5.37 0 0 0.49z"/>
 </g>
</svg>
