<?xml version="1.0" encoding="UTF-8"?>
<!DOCTYPE svg PUBLIC "-//W3C//DTD SVG 1.1//EN" "http://www.w3.org/Graphics/SVG/1.1/DTD/svg11.dtd">
<!-- Creator: CorelDRAW 2017 -->
<svg xmlns="http://www.w3.org/2000/svg" xml:space="preserve" width="140px" height="140px" version="1.1" style="shape-rendering:geometricPrecision; text-rendering:geometricPrecision; image-rendering:optimizeQuality; fill-rule:evenodd; clip-rule:evenodd"
viewBox="0 0 21.95 21.95"
 xmlns:xlink="http://www.w3.org/1999/xlink">
 <defs>
  <style type="text/css">
   <![CDATA[
    .fil0 {fill:#663333}
   ]]>
  </style>
 </defs>
 <g id="Layer_x0020_1">
  <metadata id="CorelCorpID_0Corel-Layer"/>
  <path class="fil0" d="M10.97 0c-6.06,0 -10.97,4.91 -10.97,10.97 0,6.06 4.91,10.98 10.97,10.98 6.06,0 10.98,-4.92 10.98,-10.98 0,-6.06 -4.92,-10.97 -10.98,-10.97zm-6.29 7.76l9.57 0 0 1.14 -9.57 0 0 -1.14zm0 5.24l9.57 0 0 1.14 -9.57 0 0 -1.14zm12.59 3.76l-12.59 0 0 -1.14 12.59 0 0 1.14zm0 -5.24l-12.59 0 0 -1.14 12.59 0 0 1.14zm0 -5.24l-12.59 0 0 -1.14 12.59 0 0 1.14z"/>
 </g>
</svg>
