<?xml version="1.0" encoding="UTF-8"?>
<!DOCTYPE svg PUBLIC "-//W3C//DTD SVG 1.1//EN" "http://www.w3.org/Graphics/SVG/1.1/DTD/svg11.dtd">
<!-- Creator: CorelDRAW 2017 -->
<svg xmlns="http://www.w3.org/2000/svg" xml:space="preserve" width="180px" height="180px" version="1.1" style="shape-rendering:geometricPrecision; text-rendering:geometricPrecision; image-rendering:optimizeQuality; fill-rule:evenodd; clip-rule:evenodd"
viewBox="0 0 9.36 9.36"
 xmlns:xlink="http://www.w3.org/1999/xlink">
 <defs>
  <style type="text/css">
   <![CDATA[
    .fil0 {fill:#E48E66}
   ]]>
  </style>
 </defs>
 <g id="Layer_x0020_1">
  <metadata id="CorelCorpID_0Corel-Layer"/>
  <path class="fil0" d="M4.68 0c-2.58,0 -4.68,2.1 -4.68,4.68 0,2.59 2.1,4.68 4.68,4.68 2.59,0 4.68,-2.09 4.68,-4.68 0,-2.58 -2.09,-4.68 -4.68,-4.68zm-1.86 6.38c-0.18,0 -0.32,-0.14 -0.32,-0.32 0,-0.18 0.14,-0.32 0.32,-0.32 0.18,0 0.32,0.14 0.32,0.32 0,0.18 -0.14,0.32 -0.32,0.32zm0 -1.37c-0.18,0 -0.32,-0.15 -0.32,-0.33 0,-0.18 0.14,-0.32 0.32,-0.32 0.18,0 0.32,0.14 0.32,0.32 0,0.18 -0.14,0.33 -0.32,0.33zm0 -1.38c-0.18,0 -0.32,-0.15 -0.32,-0.32 0,-0.18 0.14,-0.33 0.32,-0.33 0.18,0 0.32,0.15 0.32,0.33 0,0.17 -0.14,0.32 -0.32,0.32zm4.05 2.73l-3.03 0c-0.18,0 -0.33,-0.14 -0.33,-0.32 0,-0.18 0.15,-0.33 0.33,-0.33l3.03 0c0.18,0 0.32,0.15 0.32,0.33 0,0.18 -0.14,0.32 -0.32,0.32zm0 -1.36l-3.03 0c-0.18,0 -0.33,-0.15 -0.33,-0.33 0,-0.18 0.15,-0.32 0.33,-0.32l3.03 0c0.18,0 0.32,0.14 0.32,0.32 0,0.18 -0.14,0.33 -0.32,0.33zm0 -1.37l-3.03 0c-0.18,0 -0.33,-0.15 -0.33,-0.32 0,-0.18 0.15,-0.33 0.33,-0.33l3.03 0c0.18,0 0.32,0.15 0.32,0.33 0,0.17 -0.14,0.32 -0.32,0.32z"/>
 </g>
</svg>
