<?xml version="1.0" encoding="UTF-8"?>
<!DOCTYPE svg PUBLIC "-//W3C//DTD SVG 1.1//EN" "http://www.w3.org/Graphics/SVG/1.1/DTD/svg11.dtd">
<!-- Creator: CorelDRAW 2017 -->
<svg xmlns="http://www.w3.org/2000/svg" xml:space="preserve" width="140px" height="140px" version="1.1" style="shape-rendering:geometricPrecision; text-rendering:geometricPrecision; image-rendering:optimizeQuality; fill-rule:evenodd; clip-rule:evenodd"
viewBox="0 0 24.96 24.96"
 xmlns:xlink="http://www.w3.org/1999/xlink">
 <defs>
  <style type="text/css">
   <![CDATA[
    .fil0 {fill:#663333}
   ]]>
  </style>
 </defs>
 <g id="Layer_x0020_1">
  <metadata id="CorelCorpID_0Corel-Layer"/>
  <g id="_1570125746704">
   <rect class="fil0" x="7.3" y="15.01" width="7.77" height="0.86"/>
   <rect class="fil0" x="7.3" y="13.1" width="7.77" height="0.86"/>
   <rect class="fil0" x="7.3" y="11.18" width="7.77" height="0.86"/>
   <rect class="fil0" x="7.3" y="17.04" width="7.77" height="0.86"/>
   <path class="fil0" d="M12.48 0c-6.89,0 -12.48,5.59 -12.48,12.48 0,6.89 5.59,12.48 12.48,12.48 6.89,0 12.48,-5.59 12.48,-12.48 0,-6.89 -5.59,-12.48 -12.48,-12.48zm4.3 17.63l0 1.52c0,0.84 -0.68,1.52 -1.52,1.52l-8.15 0c-0.84,0 -1.52,-0.68 -1.52,-1.52l0 -11.18c0,-0.84 0.68,-1.52 1.52,-1.52l8.15 0c0.84,0 1.52,0.68 1.52,1.52 0,0 0,1.51 0,1.51l0 8.15zm1.94 -1.94l0 1.52c0,0.68 -0.46,1.26 -1.08,1.45l0 -1.03 0 -8.15 0 -1.51c0,-1.32 -1.07,-2.38 -2.38,-2.38l-7.66 0c0.19,-0.63 0.77,-1.08 1.45,-1.08l8.15 0c0.84,0 1.52,0.68 1.52,1.51l0 1.52 0 0 0 8.15z"/>
   <rect class="fil0" x="7.3" y="9.27" width="7.77" height="0.86"/>
  </g>
 </g>
</svg>
