<?xml version="1.0" encoding="UTF-8"?>
<!DOCTYPE svg PUBLIC "-//W3C//DTD SVG 1.1//EN" "http://www.w3.org/Graphics/SVG/1.1/DTD/svg11.dtd">
<!-- Creator: CorelDRAW 2017 -->
<svg xmlns="http://www.w3.org/2000/svg" xml:space="preserve" width="180px" height="180px" version="1.1" style="shape-rendering:geometricPrecision; text-rendering:geometricPrecision; image-rendering:optimizeQuality; fill-rule:evenodd; clip-rule:evenodd"
viewBox="0 0 9.36 9.36"
 xmlns:xlink="http://www.w3.org/1999/xlink">
 <defs>
  <style type="text/css">
   <![CDATA[
    .fil0 {fill:#6666CC}
   ]]>
  </style>
 </defs>
 <g id="Layer_x0020_1">
  <metadata id="CorelCorpID_0Corel-Layer"/>
  <g id="_2855335398672">
   <rect class="fil0" x="2.74" y="5.63" width="2.91" height="0.32"/>
   <rect class="fil0" x="2.74" y="4.91" width="2.91" height="0.32"/>
   <rect class="fil0" x="2.74" y="4.2" width="2.91" height="0.32"/>
   <rect class="fil0" x="2.74" y="6.39" width="2.91" height="0.32"/>
   <path class="fil0" d="M4.68 0c-2.58,0 -4.68,2.1 -4.68,4.68 0,2.59 2.1,4.68 4.68,4.68 2.59,0 4.68,-2.09 4.68,-4.68 0,-2.58 -2.09,-4.68 -4.68,-4.68zm1.61 6.62l0 0.56c0,0.32 -0.25,0.57 -0.56,0.57l-3.06 0c-0.32,0 -0.57,-0.25 -0.57,-0.57l0 -4.19c0,-0.32 0.25,-0.57 0.57,-0.57l3.06 0c0.31,0 0.56,0.25 0.56,0.57 0,0 0,0.57 0,0.57l0 3.06zm0.73 -0.73l0 0.57c0,0.25 -0.17,0.47 -0.4,0.54l0 -0.38 0 -3.06 0 -0.57c0,-0.49 -0.4,-0.89 -0.89,-0.89l-2.88 0c0.07,-0.24 0.29,-0.41 0.55,-0.41l3.05 0c0.32,0 0.57,0.26 0.57,0.57l0 0.57 0 0 0 3.06z"/>
   <rect class="fil0" x="2.74" y="3.48" width="2.91" height="0.32"/>
  </g>
 </g>
</svg>
