<?xml version="1.0" encoding="UTF-8"?>
<!DOCTYPE svg PUBLIC "-//W3C//DTD SVG 1.1//EN" "http://www.w3.org/Graphics/SVG/1.1/DTD/svg11.dtd">
<!-- Creator: CorelDRAW 2017 -->
<svg xmlns="http://www.w3.org/2000/svg" xml:space="preserve" width="700px" height="542px" version="1.1" style="shape-rendering:geometricPrecision; text-rendering:geometricPrecision; image-rendering:optimizeQuality; fill-rule:evenodd; clip-rule:evenodd"
viewBox="0 0 60.79 47.09"
 xmlns:xlink="http://www.w3.org/1999/xlink">
 <defs>
  <style type="text/css">
   <![CDATA[
    .fil4 {fill:#3B70CC}
    .fil1 {fill:#3F79DB}
    .fil3 {fill:#424B95}
    .fil9 {fill:#4F5BB5}
    .fil8 {fill:#5D93E9}
    .fil7 {fill:#6EA0FD}
    .fil5 {fill:#AABDEB}
    .fil6 {fill:#B6CDFD}
    .fil2 {fill:#F2B897}
    .fil0 {fill:#FDCDAE}
   ]]>
  </style>
 </defs>
 <g id="PowerClip_x0020_Contents">
  <metadata id="CorelCorpID_0Corel-Layer"/>
  <g id="_2133119009168">
   <g>
    <g>
     <path class="fil0" d="M60.13 4.87c-0.74,-0.36 -1.79,0.38 -2.36,1.66 -0.41,0.09 -0.7,0.71 -0.65,1.46 0.05,0.62 0.31,1.14 0.65,1.35 0.08,0.1 0.19,0.19 0.31,0.25 0.74,0.37 1.8,-0.39 2.37,-1.69 0.56,-1.3 0.42,-2.66 -0.32,-3.03z"/>
    </g>
    <g>
     <path class="fil0" d="M15.16 14.23c0.74,-0.36 1.79,0.38 2.36,1.66 0.42,0.09 0.7,0.71 0.65,1.46 -0.04,0.62 -0.31,1.14 -0.64,1.35 -0.09,0.1 -0.2,0.19 -0.32,0.25 -0.74,0.37 -1.8,-0.39 -2.36,-1.69 -0.57,-1.3 -0.43,-2.66 0.31,-3.03z"/>
    </g>
    <g>
     <path class="fil1" d="M38.09 18.11l5.32 0.76c6.76,0.96 11.53,-3.29 13.76,-10.21 0.63,0.59 1.38,0.84 2.25,0.73 -1.07,8.78 -6.12,13.83 -14.96,15.72 -0.22,6.87 -0.59,14.31 -0.43,21.06 -4.91,1.09 -9.89,1.22 -14.94,0.37 0.58,-6.86 0.44,-12.88 -0.2,-19.53 -2.28,2.29 -6.47,5.03 -7.94,4.76 -2.61,-0.47 -4.01,-7.02 -4.83,-12.94 0.97,-0.08 1.64,-0.59 2.05,-1.48 1.01,3.3 2.19,6.05 3.48,9.15 4.72,-3.1 6.49,-5.9 11.85,-8.64l4.59 0.25z"/>
    </g>
    <g>
     <path class="fil0" d="M38.16 15.48l-4.66 0 0 2.38c-1.29,1.26 -0.61,2.24 1.24,2.14 1.57,-0.08 3.42,-0.63 3.42,-2.49l0 -2.03z"/>
    </g>
    <g>
     <path class="fil2" d="M38.16 15.48l-4.66 0 0 1.19 3.94 2.47c0.44,-0.38 0.72,-0.91 0.72,-1.63l0 -2.03z"/>
    </g>
    <g>
     <path class="fil3" d="M31.65 6.38l6.51 9.1 -0.06 1.01c1.81,-2.52 3.68,-3.03 4.49,-5.72 1.07,-3.55 0.17,-6.59 -2.98,-7.72 -0.93,-0.34 -2.03,0.33 -2.91,-0.15 -2.27,-1.22 -3.26,-0.74 -3.46,0.11 -0.33,1.41 -2.68,-0.61 -3.38,0.73 -0.68,1.33 0.14,2.4 1.79,2.64z"/>
    </g>
    <g>
     <path class="fil0" d="M36.08 6.97c-1.55,0.21 -3.03,0.02 -4.43,-0.59 -2.29,3.85 -2.37,9.26 1.69,10.29 2.25,0.58 5.28,-0.28 5.64,-3.01 1.6,-0.16 2.31,-2.76 1.45,-3.44 -0.9,-0.71 -1.52,0.62 -1.66,1.39l-0.39 -0.11 0.21 -2.07c-1.14,-0.52 -1.97,-1.35 -2.51,-2.46z"/>
    </g>
    <g>
     <path class="fil2" d="M36.08 6.97c-1.55,0.21 -3.03,0.02 -4.43,-0.59 1.13,1.14 2.52,1.89 4.28,2.06 1.9,3.17 0.96,6.94 -3.26,8.01 0.21,0.09 0.43,0.16 0.67,0.22 2.25,0.58 5.28,-0.28 5.64,-3.01 1.6,-0.16 2.31,-2.76 1.45,-3.44 -0.9,-0.71 -1.52,0.62 -1.66,1.39l-0.39 -0.11 0.21 -2.07c-1.14,-0.52 -1.97,-1.35 -2.51,-2.46z"/>
    </g>
   </g>
   <g>
    <g>
     <path class="fil4" d="M17.54 14.75l-1.74 -0.4 -0.64 2.83c-0.06,0.22 0.08,0.45 0.31,0.5l0.92 0.21c0.22,0.05 0.45,-0.09 0.5,-0.31l0.65 -2.83z"/>
    </g>
    <g>
     <path class="fil5" d="M19.25 8.89c-3.95,-0.62 -7.29,-1.69 -9.18,-4.16l-3.88 8.79 2.61 3.17c3.7,-2.32 6.38,-2.17 9.79,-1.85 1.63,0.16 3.09,-0.94 3.27,-2.56 0.07,-0.57 -0.04,-1.13 -0.27,-1.62l0 0c-0.01,-0.02 -0.02,-0.04 -0.03,-0.06l0 -0.01c-0.06,-0.11 -0.12,-0.22 -0.19,-0.32l0 -0.01c-0.01,-0.01 -0.02,-0.03 -0.03,-0.04l-0.01 -0.01c-0.01,-0.02 -0.02,-0.03 -0.03,-0.05l-0.01 -0.01c-0.01,-0.01 -0.02,-0.03 -0.03,-0.04l0 0c-0.01,-0.02 -0.03,-0.04 -0.04,-0.05l0 -0.01c-0.05,-0.06 -0.11,-0.13 -0.16,-0.18l-0.01 -0.01 -0.03 -0.04 -0.02 -0.01 -0.02 -0.03 -0.02 -0.02 -0.03 -0.03 -0.02 -0.02 -0.03 -0.03 -0.02 -0.02c-0.01,0 -0.02,-0.01 -0.03,-0.02l-0.02 -0.02c-0.01,-0.01 -0.02,-0.02 -0.03,-0.03 -0.02,-0.01 -0.04,-0.02 -0.05,-0.04l-0.03 -0.02 -0.03 -0.02 -0.03 -0.02 -0.02 -0.02 -0.03 -0.03 -0.02 -0.01 -0.04 -0.03 -0.02 -0.01 -0.03 -0.02 -0.04 -0.03 -0.02 -0.01c-0.01,-0.01 -0.02,-0.02 -0.04,-0.02l-0.02 -0.02c-0.01,-0.01 -0.02,-0.01 -0.04,-0.02l-0.02 -0.01 0 0 -0.01 -0.01c-0.02,-0.01 -0.03,-0.02 -0.05,-0.03l-0.02 -0.01 -0.04 -0.02 -0.02 -0.01 -0.04 -0.02 -0.03 -0.01 -0.03 -0.02 -0.03 -0.01c-0.01,-0.01 -0.03,-0.01 -0.04,-0.02l-0.03 -0.01c-0.01,-0.01 -0.02,-0.01 -0.04,-0.02l-0.02 -0.01c-0.02,0 -0.03,-0.01 -0.05,-0.01l-0.02 -0.01 0 0c-0.02,-0.01 -0.04,-0.02 -0.06,-0.02l0 -0.01 -0.03 0c-0.01,-0.01 -0.03,-0.01 -0.04,-0.02l-0.03 -0.01c-0.01,0 -0.02,0 -0.04,-0.01l-0.03 -0.01 -0.04 -0.01 -0.03 0 -0.04 -0.02 -0.02 0c-0.02,-0.01 -0.04,-0.01 -0.05,-0.01l-0.02 -0.01c-0.02,0 -0.04,0 -0.05,-0.01l-0.03 0c-0.02,-0.01 -0.04,-0.01 -0.07,-0.01z"/>
    </g>
    <g>
     <path class="fil6" d="M19.25 8.89c-3.95,-0.62 -7.29,-1.69 -9.18,-4.16 1.03,3.06 1.35,6.13 0.87,9.19 2.51,-0.52 5.01,-0.52 7.52,-0.21l1.84 -4.45 -0.01 -0.01c-0.02,-0.01 -0.03,-0.02 -0.05,-0.03l-0.02 -0.01 -0.04 -0.02 -0.02 -0.01 -0.04 -0.02 -0.03 -0.01 -0.03 -0.02 -0.03 -0.01c-0.01,-0.01 -0.03,-0.01 -0.04,-0.02l-0.03 -0.01c-0.01,-0.01 -0.02,-0.01 -0.04,-0.02l-0.02 -0.01c-0.02,0 -0.03,-0.01 -0.05,-0.01l-0.02 -0.01 0 0c-0.02,-0.01 -0.04,-0.02 -0.06,-0.02l0 -0.01 -0.03 0c-0.01,-0.01 -0.03,-0.01 -0.04,-0.02l-0.03 -0.01c-0.01,0 -0.02,0 -0.04,-0.01l-0.03 -0.01 -0.04 -0.01 -0.03 0 -0.04 -0.02 -0.02 0c-0.02,-0.01 -0.04,-0.01 -0.05,-0.01l-0.02 -0.01c-0.02,0 -0.04,0 -0.05,-0.01l-0.03 0c-0.02,-0.01 -0.04,-0.01 -0.07,-0.01z"/>
    </g>
    <g>
     <path class="fil1" d="M19.25 8.89c-0.21,-0.04 -0.43,-0.07 -0.64,-0.11 0.17,1.05 0.19,2.3 0.05,3.63 -0.1,0.85 -0.26,1.66 -0.46,2.4 0.13,0.01 0.26,0.02 0.39,0.03 1.63,0.16 3.09,-0.94 3.27,-2.56 0.18,-1.63 -0.99,-3.14 -2.61,-3.39z"/>
    </g>
    <g>
     <path class="fil6" d="M6.4 0.02c-2.84,-0.32 -5.64,4.04 -6.27,9.72 -0.63,5.69 1.15,10.55 3.98,10.87 2.83,0.31 5.64,-4.04 6.27,-9.73 0.63,-5.69 -1.15,-10.55 -3.98,-10.86z"/>
    </g>
    <g>
     <path class="fil5" d="M6.33 0.65c-2.48,-0.27 -4.98,3.83 -5.57,9.16 -0.59,5.34 0.94,9.89 3.42,10.16 2.48,0.28 4.97,-3.82 5.56,-9.16 0.6,-5.33 -0.93,-9.88 -3.41,-10.16z"/>
    </g>
    <g>
     <path class="fil7" d="M6.25 1.34c-2.25,-0.25 -4.52,3.57 -5.07,8.52 -0.55,4.95 0.83,9.17 3.08,9.42 2.25,0.25 4.51,-3.56 5.06,-8.52 0.55,-4.95 -0.82,-9.17 -3.07,-9.42z"/>
    </g>
    <g>
     <path class="fil8" d="M7.01 17.61c1.12,-1.53 2,-4 2.31,-6.85 0.19,-1.69 0.16,-3.29 -0.06,-4.68 -1.29,-0.03 -2.61,2.55 -2.97,5.87 -0.27,2.43 0.04,4.58 0.72,5.66z"/>
    </g>
    <g>
     <path class="fil9" d="M6.54 9.75l2.9 -0.72c-0.01,0.56 -0.05,1.14 -0.12,1.73 -0.08,0.8 -0.22,1.57 -0.39,2.3l-2.66 -0.98 0.27 -2.33z"/>
    </g>
    <g>
     <path class="fil3" d="M9.25 11.37l-2.84 -0.45 -0.14 1.16 2.66 0.98c0.13,-0.54 0.23,-1.1 0.32,-1.69z"/>
    </g>
    <g>
     <path class="fil5" d="M6.54 9.75c-0.33,-0.04 -0.65,0.45 -0.72,1.1 -0.07,0.65 0.14,1.2 0.46,1.24 0.33,0.03 0.66,-0.46 0.73,-1.11 0.07,-0.64 -0.14,-1.2 -0.47,-1.23z"/>
    </g>
    <g>
     <path class="fil3" d="M18.31 8.73c0.17,1.05 0.2,2.31 0.05,3.64 -0.1,0.86 -0.26,1.68 -0.47,2.41 0.11,0.01 0.21,0.02 0.31,0.03 0.2,-0.74 0.36,-1.55 0.46,-2.4 0.14,-1.33 0.12,-2.58 -0.05,-3.63 -0.1,-0.02 -0.2,-0.03 -0.3,-0.05z"/>
    </g>
   </g>
  </g>
 </g>
</svg>
