<?xml version="1.0" encoding="UTF-8"?>
<!DOCTYPE svg PUBLIC "-//W3C//DTD SVG 1.1//EN" "http://www.w3.org/Graphics/SVG/1.1/DTD/svg11.dtd">
<!-- Creator: CorelDRAW 2017 -->
<svg xmlns="http://www.w3.org/2000/svg" xml:space="preserve" width="382px" height="402px" version="1.1" style="shape-rendering:geometricPrecision; text-rendering:geometricPrecision; image-rendering:optimizeQuality; fill-rule:evenodd; clip-rule:evenodd"
viewBox="0 0 10745.46 11300.06"
 xmlns:xlink="http://www.w3.org/1999/xlink">
 <defs>
  <style type="text/css">
   <![CDATA[
    .str0 {stroke:#9CFF9C;stroke-width:332.17;stroke-miterlimit:22.9256}
    .fil1 {fill:none}
    .fil0 {fill:#35E357}
   ]]>
  </style>
 </defs>
 <g id="PowerClip_x0020_Contents">
  <metadata id="CorelCorpID_0Corel-Layer"/>
  <g id="_2855157933216">
   <path class="fil0 str0" d="M5055.45 7790.31l1189.82 3285.17c-261.12,39.92 -521.91,59.19 -780.84,58.36 -150.01,-0.3 -299.32,-7.31 -447.64,-20.83 -50.49,-4.62 -101.08,-10.06 -151.6,-16.41 -129.52,-15.68 -258.07,-36.44 -385.46,-62.02 -637.84,-127.32 -1245.42,-375.29 -1789.19,-727.85 -326.46,-211.7 -629.7,-461.13 -902.61,-745.1l-188.25 -519.72c-218.37,-602.97 7.31,-1258.68 509.56,-1608.66 18.4,-12.88 36.94,-25.41 56.27,-37.2 50.69,-32.15 104.4,-60.99 160.44,-86.6 34.18,-15.44 69.09,-29.89 104.97,-42.91l848.93 -307.46c94.8,-34.32 190.9,-57.77 287.1,-70.59 5.41,-0.9 10.96,-1.56 16.44,-2.23 16.21,-2.06 32.66,-3.85 48.77,-5.21 0.53,0.07 0.89,-0.07 1.29,-0.07 161.07,-13.92 320.72,0.9 472.82,41.26 424.35,112.51 788.38,424.05 949.18,868.07l0 0zm0 0z"/>
   <path class="fil0 str0" d="M5055.45 7790.31l1189.82 3285.17c-261.12,39.92 -521.91,59.19 -780.84,58.36 -150.01,-0.3 -299.32,-7.31 -447.64,-20.83 -50.49,-4.62 -101.08,-10.06 -151.6,-16.41 -129.52,-15.68 -258.07,-36.44 -385.46,-62.02 -637.84,-127.32 -1245.42,-375.29 -1789.19,-727.85l-531.48 -1467.42c-218.37,-602.92 7.31,-1258.64 509.56,-1608.61 18.47,-12.93 37,-25.45 56.24,-37.24 50.75,-32.16 104.5,-60.99 160.47,-86.6 34.15,-15.45 69.09,-29.89 105.03,-42.92l289.49 -104.86c94.8,-34.32 190.9,-57.77 287.1,-70.59 5.41,-0.9 10.96,-1.56 16.44,-2.23 16.21,-2.06 32.66,-3.85 48.77,-5.21 0.53,0.07 0.89,-0.07 1.29,-0.07 161.07,-13.92 320.72,0.9 472.82,41.26 424.35,112.51 788.38,424.05 949.18,868.07l0 0zm0 0z"/>
   <path class="fil0 str0" d="M3631.36 6865.07l2.26 15.88 266.87 1954.74c25.71,187.85 -81.89,369.75 -260,434.42 -1.13,0.4 -2.12,0.76 -3.15,1.13 -1.2,0.43 -2.29,0.83 -3.46,1.26 -178.31,64.41 -377.35,-6.44 -477.9,-167.15l-1046.68 -1672.19 -8.5 -13.76 1530.56 -554.33zm0 0z"/>
   <g>
    <path class="fil0" d="M3048.69 7646.41l-468.7 538.62 -479.16 -765.63 286.84 -346.79 661.02 573.8zm0 0l0 0 0 0z"/>
    <path id="1" class="fil1 str0" d="M3048.69 7646.41l-468.7 538.62 -479.16 -765.63 286.84 -346.79m661.02 573.8l0 0 0 0z"/>
   </g>
   <g>
    <path class="fil0" d="M3048.69 7646.41l704.91 113.57 -122.24 -894.91 -442.39 -82.64 -140.28 863.98zm0 0l0 0 0 0z"/>
    <path id="1" class="fil1 str0" d="M3048.69 7646.41l704.91 113.57 -122.24 -894.91 -442.39 -82.64m-140.28 863.98l0 0 0 0z"/>
   </g>
   <g>
    <path class="fil0" d="M989.68 7433.19l-711.92 -1965.64c-72.34,-199.74 -109.91,-407.51 -111.61,-617.55 -7.47,-789.14 486.41,-1500.26 1229.08,-1769.22 92.01,-33.32 186.38,-59.46 280.72,-77.7 431.06,-83.97 880.86,-11.32 1266.18,204.79 389.38,218.47 687.67,570.21 839.9,990.51l711.92 1965.64 -3504.27 1269.17zm0 0l0 0 0 0z"/>
    <path id="1" class="fil1 str0" d="M989.68 7433.19l-711.92 -1965.64c-72.34,-199.74 -109.91,-407.51 -111.61,-617.55 -7.47,-789.14 486.41,-1500.26 1229.08,-1769.22 92.01,-33.32 186.38,-59.46 280.72,-77.7 431.06,-83.97 880.86,-11.32 1266.18,204.79 389.38,218.47 687.67,570.21 839.9,990.51l711.92 1965.64m-3504.27 1269.17l0 0 0 0z"/>
   </g>
   <path class="fil0 str0" d="M1026.28 5283.26c251.79,695.27 950.32,1352.18 1314.88,1660.47l-1351.55 489.49 -711.91 -1965.67c-72.32,-199.64 -109.82,-407.45 -111.61,-617.55 -7.51,-784.56 480.79,-1492.05 1216.42,-1764.44 -533.81,208.51 -700.69,1246.59 -356.23,2197.7l0 0zm0 0z"/>
   <path class="fil0 str0" d="M3138.74 6442.28l206.72 570.74c75.67,208.91 1.89,435.42 -166.62,562.77 -38.57,29.23 -82.22,53.28 -130.08,70.59 -256.81,93.04 -540.28,-39.7 -633.29,-296.53l-206.71 -570.75 929.98 -336.82zm0 0z"/>
   <path class="fil0 str0" d="M3332.34 6976.85l13.12 36.17c75.67,208.91 1.89,435.42 -166.62,562.77 -190.27,9.4 -372.9,-92.88 -462.62,-266.4 31.72,-9.34 63.34,-19.7 94.67,-31.06 87.99,-31.86 171.73,-70.09 250.69,-114.27 97.49,-54.14 187.94,-117.06 270.76,-187.21zm0 0z"/>
   <path class="fil0 str0" d="M1059.4 6137.41c77.96,215.28 -14.61,450.76 -208.6,558.45 -21.13,11.83 -43.62,22.12 -67.27,30.69 -238.83,86.5 -502.51,-36.97 -589.04,-275.9 -86.5,-238.83 36.97,-502.51 275.8,-589.01 23.62,-8.57 47.5,-15.05 71.29,-19.53 217.97,-41.49 439.83,80.02 517.82,295.3l0 0zm0 0z"/>
   <path class="fil0 str0" d="M1059.4 6137.41c77.96,215.28 -14.61,450.76 -208.6,558.45 -86.6,-122.44 -158.48,-258.33 -212,-406.11 -53.51,-147.72 -85.33,-298.13 -97.22,-447.64 217.97,-41.49 439.86,80.02 517.82,295.3zm0 0z"/>
   <path class="fil0 str0" d="M781.51 6238.06c30.95,85.4 -13.19,179.67 -98.59,210.6 -85.37,30.89 -179.61,-13.22 -210.54,-98.66 -30.92,-85.33 13.23,-179.57 98.56,-210.5 85.4,-30.92 179.67,13.22 210.57,98.56zm0 0z"/>
   <path class="fil0 str0" d="M3245.37 4721.09l538.39 1486.51c-150.31,302.54 -389.91,561.14 -698.56,732.68 -2.43,1.36 -5.05,2.82 -7.44,4.18 -76.77,42.49 -157.98,79.22 -243.35,110.12 -888.54,321.81 -1869.78,-137.66 -2191.59,-1026.19l-221.89 -612.69c-28.43,-78.46 -50.79,-157.65 -67.26,-237.04 482.51,136.69 1021.53,-89.32 1251.56,-546.49 76.17,-151.34 109.48,-310.75 104.93,-465.38 112.94,232.75 308.89,428.14 572.17,542.54 313.34,135.86 660.33,130.44 963.04,11.76l0 0zm0 0z"/>
   <g>
    <path class="fil0" d="M3066.7 4996.83c-53.48,-147.66 -216.48,-223.92 -364.07,-170.48 -147.55,53.45 -223.92,216.42 -170.44,364.03l534.51 -193.55zm0 0l0 0 0 0z"/>
    <path id="1" class="fil1 str0" d="M3066.7 4996.83c-53.48,-147.66 -216.48,-223.92 -364.07,-170.48 -147.55,53.45 -223.92,216.42 -170.44,364.03m534.51 -193.55l0 0 0 0z"/>
   </g>
   <g>
    <path class="fil0" d="M1873.13 5429.08c-53.48,-147.61 -216.48,-223.88 -364.06,-170.43 -147.56,53.44 -223.82,216.37 -170.38,363.99l534.44 -193.56zm0 0l0 0 0 0z"/>
    <path id="1" class="fil1 str0" d="M1873.13 5429.08c-53.48,-147.61 -216.48,-223.88 -364.06,-170.43 -147.56,53.44 -223.82,216.37 -170.38,363.99m534.44 -193.56l0 0 0 0z"/>
   </g>
   <path class="fil0 str0" d="M1829.61 5573.51c36.54,100.82 -15.61,212.16 -116.42,248.67 -100.82,36.54 -212.1,-15.65 -248.64,-116.46 -36.5,-100.82 15.58,-212.06 116.4,-248.6 100.85,-36.51 212.16,15.58 248.66,116.39zm0 0z"/>
   <path class="fil0 str0" d="M3023.11 5141.25c36.54,100.82 -15.54,212.13 -116.36,248.67 -100.81,36.51 -212.09,-15.65 -248.63,-116.49 -36.5,-100.82 15.58,-212.06 116.43,-248.57 100.81,-36.54 212.06,15.58 248.56,116.39zm0 0z"/>
   <path class="fil0 str0" d="M2592.85 5816.93l-365.06 132.21c-43.51,15.77 -91.51,-6.78 -107.26,-50.23 -15.71,-43.41 6.71,-91.48 50.23,-107.23l365.06 -132.23c43.44,-15.72 91.44,6.81 107.19,50.25 15.74,43.45 -6.71,91.48 -50.16,107.23zm0 0z"/>
   <path class="fil0 str0" d="M2590.72 6381.23c-134.73,48.79 -281.68,63.81 -429,40.72 -41.52,-6.48 -69.89,-45.41 -63.41,-86.93 6.51,-41.52 45.47,-69.92 87,-63.44 242.75,38 484.47,-49.56 646.61,-234.19 27.7,-31.62 75.83,-34.71 107.45,-6.97 31.53,27.73 34.68,75.83 6.91,107.39 -98.35,112.08 -220.83,194.62 -355.56,243.42l0 0zm0 0z"/>
   <path class="fil0 str0" d="M1780.75 5554.78c15.65,43.21 -6.74,90.91 -49.89,106.53 -43.22,15.68 -90.88,-6.68 -106.56,-49.9 -15.65,-43.21 6.67,-90.88 49.89,-106.52 43.15,-15.65 90.92,6.64 106.56,49.89zm0 0z"/>
   <path class="fil0 str0" d="M2983.19 5119.27c15.68,43.21 -6.65,90.88 -49.8,106.52 -43.21,15.65 -90.91,-6.67 -106.56,-49.89 -15.64,-43.22 6.68,-90.92 49.9,-106.56 43.15,-15.61 90.81,6.71 106.46,49.93zm0 0z"/>
   <path class="fil0 str0" d="M3499.98 5471.47c40.06,110.65 -17.17,232.89 -127.92,272.98 -110.64,40.09 -232.88,-17.14 -272.94,-127.82 -40.13,-110.71 17.1,-232.95 127.78,-273.05 110.72,-40.09 232.96,17.14 273.08,127.89zm0 0z"/>
   <path class="fil0 str0" d="M1710.5 6119.57c40.06,110.65 -17.11,232.86 -127.82,272.98 -110.65,40.06 -232.89,-17.17 -272.98,-127.82 -40.1,-110.74 17.14,-232.98 127.78,-273.04 110.75,-40.13 232.92,17.14 273.02,127.88zm0 0z"/>
   <path class="fil0 str0" d="M10358.98 5824.67l218.04 602c-97.7,1210.14 -625.85,2351.89 -1483.19,3209.96 -155.33,155.29 -321.55,301.38 -498.1,436.81 -198.34,152.93 -409.84,291.85 -633.65,415.75 -0.87,0.56 -1.96,1.23 -2.99,1.59l-1215.69 -3356.61c-259.1,-715.44 79.32,-1501.96 759.98,-1812.41 35.77,-16.51 72.34,-31.26 109.81,-44.85l888.04 -321.61c105,-38.03 211.39,-63.51 317.75,-76.5 656.28,-80.98 1305.32,297.96 1540,945.87zm0 0z"/>
   <path class="fil0 str0" d="M10358.98 5824.67l218.04 602c-97.7,1210.14 -625.85,2351.89 -1483.19,3209.96 -155.33,155.29 -321.55,301.38 -498.1,436.81l-1155.9 -3191.53c-272.68,-752.9 116.89,-1584.5 870.03,-1857.28l191.53 -69.39c753.37,-272.85 1584.9,116.49 1857.59,869.43l0 0zm0 0z"/>
   <path class="fil0 str0" d="M6178 4095.47c81.58,225.28 -15.31,471.62 -218.2,584.3 -22.16,12.32 -45.68,23.08 -70.39,32.05 -249.93,90.52 -525.8,-38.66 -616.32,-288.59 -90.51,-249.93 38.67,-525.8 288.6,-616.32 24.71,-8.97 49.66,-15.74 74.57,-20.46 228.04,-43.32 460.16,83.84 541.74,309.02zm0 0z"/>
   <g>
    <path class="fil0" d="M8601.61 5475.32l-153.43 719.76 -578.75 -454.58 732.18 -265.18zm0 0l0 0 0 0z"/>
    <path id="1" class="fil1 str0" d="M8601.61 5475.32l-153.43 719.76 -578.75 -454.58m732.18 -265.18l0 0 0 0z"/>
   </g>
   <path class="fil0 str0" d="M9541.4 7675.34l-267.4 799.91 -717.7 -443.12 -163.39 -1989.82 1148.49 1633.03zm0 0z"/>
   <path class="fil0 str0" d="M6178 4095.47c81.58,225.28 -15.31,471.62 -218.2,584.3 -90.62,-128.12 -165.79,-270.33 -221.79,-424.92 -55.94,-154.56 -89.29,-311.88 -101.75,-468.4 228.04,-43.32 460.16,83.84 541.74,309.02zm0 0z"/>
   <path class="fil0 str0" d="M5887.28 4200.77c32.32,89.32 -13.85,187.98 -103.17,220.3 -89.29,32.35 -187.88,-13.85 -220.23,-103.17 -32.32,-89.29 13.82,-187.85 103.11,-220.2 89.32,-32.32 187.94,13.78 220.29,103.07zm0 0z"/>
   <g>
    <path class="fil0" d="M8259.37 5674.23l-490.32 563.53 -501.38 -801.07 300.05 -362.83 691.65 600.37zm0 0l0 0 0 0z"/>
    <path id="1" class="fil1 str0" d="M8259.37 5674.23l-490.32 563.53 -501.38 -801.07 300.05 -362.83m691.65 600.37l0 0 0 0z"/>
   </g>
   <g>
    <path class="fil0" d="M8259.37 5674.23l737.53 118.85 -127.89 -936.37 -462.88 -86.49 -146.76 904.01zm0 0l0 0 0 0z"/>
    <path id="1" class="fil1 str0" d="M8259.37 5674.23l737.53 118.85 -127.89 -936.37 -462.88 -86.49m-146.76 904.01l0 0 0 0z"/>
   </g>
   <path class="fil0 str0" d="M8847.19 3128.78c81.61,225.25 313.77,352.44 541.74,309.02 24.95,-4.72 49.86,-11.49 74.61,-20.46 249.92,-90.52 379.07,-366.39 288.55,-616.32 -90.51,-249.92 -366.38,-379.11 -616.31,-288.59 -24.71,8.97 -48.23,19.73 -70.39,32.06 -202.86,112.74 -299.75,359.08 -218.2,584.29zm0 0z"/>
   <path class="fil0 str0" d="M8847.19 3128.78c81.61,225.25 313.77,352.44 541.74,309.02 -12.36,-156.45 -45.74,-313.77 -101.75,-468.4 -55.97,-154.53 -131.04,-296.73 -221.79,-424.91 -202.86,112.74 -299.75,359.08 -218.2,584.29zm0 0z"/>
   <path class="fil0 str0" d="M9461.38 2906.32c32.35,89.29 -13.86,187.95 -103.14,220.3 -89.33,32.35 -187.98,-13.85 -220.3,-103.14 -32.36,-89.32 13.85,-187.88 103.17,-220.23 89.29,-32.35 187.91,13.78 220.27,103.07zm0 0z"/>
   <path class="fil0 str0" d="M9108.94 2761.96c303.41,837.68 -56.87,1754.31 -811.43,2173.51 -82.62,46.28 -170.24,86.2 -262.32,119.55 -929.79,336.76 -1956.31,-143.9 -2293.07,-1073.68 -159.31,-439.9 -245.7,-1155.64 -78.06,-1555.57 186.65,-445.38 661.86,-560.12 1151.75,-737.53 92.08,-33.38 184.92,-58.69 278.06,-76.07 848.01,-161.2 1711.66,312.05 2015.1,1149.79l-0.03 0zm0 0z"/>
   <path class="fil0 str0" d="M8353.58 4414.49l216.24 597.08c79.19,218.57 1.99,455.55 -174.36,588.82 -40.32,30.52 -85.96,55.7 -136.09,73.84 -268.66,97.29 -565.29,-41.62 -662.59,-310.25l-216.27 -597.09 973.07 -352.4zm0 0z"/>
   <path class="fil0 str0" d="M8556.14 4973.71l13.68 37.86c79.19,218.57 1.99,455.55 -174.36,588.82 -199.04,9.83 -390.1,-97.2 -484.01,-278.76 33.22,-9.77 66.27,-20.6 99.12,-32.49 92.02,-33.32 179.61,-73.35 262.32,-119.58 101.98,-56.67 196.55,-122.38 283.25,-195.85l0 0zm0 0z"/>
   <path class="fil0 str0" d="M9108.94 2761.96c303.41,837.68 -56.87,1754.31 -811.43,2173.51 -847.95,161.17 -1711.63,-312.14 -2015.01,-1149.82 -186.84,-515.86 -122.04,-1061.59 131.61,-1502.82 158.15,-275.24 389.87,-509.65 679.76,-670.76 790.54,-150.27 1595,251.03 1945.98,985 25.54,53.28 48.63,108.32 69.12,164.89l-0.03 0zm0 0z"/>
   <path class="fil0 str0" d="M7725.87 4200.74c-141.04,51.09 -294.71,66.8 -448.77,42.68 -43.55,-6.74 -73.24,-47.5 -66.4,-90.98 6.74,-43.45 47.53,-73.18 91.01,-66.34 253.92,39.67 506.84,-51.95 676.54,-245.04 28.94,-33.05 79.29,-36.34 112.31,-7.31 33.09,29.03 36.37,79.39 7.34,112.41 -102.91,117.19 -231.12,203.56 -372.03,254.58zm0 0z"/>
   <path class="fil0 str0" d="M7031.59 3403.52c38.17,105.47 -16.34,221.89 -121.87,260.13 -105.44,38.16 -221.9,-16.35 -260.06,-121.78 -38.24,-105.53 16.31,-221.99 121.74,-260.16 105.53,-38.23 221.96,16.31 260.19,121.81zm0 0z"/>
   <path class="fil0 str0" d="M8130.49 3005.54c38.2,105.43 -16.34,221.89 -121.78,260.06 -105.53,38.23 -221.96,-16.31 -260.16,-121.74 -38.2,-105.53 16.31,-221.96 121.85,-260.19 105.43,-38.17 221.89,16.34 260.09,121.87zm0 0z"/>
   <path class="fil0 str0" d="M6980.4 3383.89c16.35,45.21 -6.97,95.13 -52.18,111.51 -45.18,16.38 -95.1,-7.04 -111.45,-52.25 -16.37,-45.14 6.98,-95.07 52.15,-111.45 45.21,-16.37 95.14,7.05 111.48,52.19zm0 0z"/>
   <path class="fil0 str0" d="M8088.7 2982.49c16.38,45.21 -6.98,95.13 -52.15,111.51 -45.21,16.38 -95.1,-7.04 -111.48,-52.25 -16.34,-45.14 6.98,-95.07 52.19,-111.44 45.21,-16.38 95.1,7.04 111.44,52.18zm0 0z"/>
   <path class="fil0 str0" d="M7755.16 3685.3l-381.93 138.32c-45.51,16.48 -95.76,-7.04 -112.24,-52.55 -16.48,-45.47 7.07,-95.7 52.58,-112.17l381.94 -138.32c45.47,-16.48 95.73,6.97 112.2,52.48 16.41,45.51 -7.07,95.77 -52.55,112.24zm0 0z"/>
   <path class="fil0 str0" d="M9089.21 6234.01l733.84 -265.77 81.35 224.61 -733.84 265.77 -81.35 -224.61zm0 0z"/>
   <path class="fil0 str0" d="M6543.19 1243.03c523.15,-148.28 1081.8,115.36 1295.52,624.55l40.12 95.6 293.35 -106.26 538.48 993.43 339.78 -257.04 -424.22 -1010.9c-224.45,-534.93 -829.6,-798.65 -1374.07,-599.14l-708.96 259.76zm0 0z"/>
   <path class="fil0 str0" d="M8096.41 220.83c553.13,259 791.6,917.43 532.6,1470.57 -259.02,553.17 -917.43,791.63 -1470.6,532.6l938 -2003.17zm0 0z"/>
   <g>
    <path class="fil0" d="M7158.45 2224l-1276.21 462.22 222.49 1107.94 -425.59 20.16 -321.57 -1048.14c-170.11,-554.47 125.76,-1144.67 671.79,-1340.12l1845.69 -660.6 402.56 350.35 -1119.16 1108.19zm0 0l0 0 0 0z"/>
    <path id="1" class="fil1 str0" d="M7158.45 2224l-1276.21 462.22 222.49 1107.94 -425.59 20.16 -321.57 -1048.14c-170.11,-554.47 125.76,-1144.67 671.79,-1340.12l1845.69 -660.6 402.56 350.35m-1119.16 1108.19l0 0 0 0z"/>
   </g>
   <path class="fil0 str0" d="M6740.21 1171.68c-496.8,221.09 -757.06,781.34 -595.16,1309.29l30.43 99.12 -293.28 106.23 222.46 1107.87 -425.58 20.16 -321.48 -1048.11c-170.17,-554.59 125.76,-1144.67 671.72,-1340.08l710.89 -254.48zm0 0z"/>
   <path class="fil0 str0" d="M8963.25 9276.06l130.58 360.57c-513.88,514.07 -1145.87,926.3 -1874.66,1190.28 -728.79,263.95 -1478.44,352.07 -2202.38,286.1l-130.51 -360.37c-257.7,-711.55 8.57,-1484.95 601.2,-1898.05 21.66,-15.14 43.65,-29.83 66.24,-44.01 60.02,-37.77 123.4,-71.75 189.37,-101.88 40.36,-18.43 81.55,-35.34 123.96,-50.69l1001.41 -362.7c112.04,-40.59 225.28,-68.23 338.75,-83.57 6.51,-1.07 13.12,-1.86 19.5,-2.59 19.17,-2.3 38.33,-4.35 57.5,-5.98 0.73,-0.1 0.86,-0.14 1.53,-0.14 189.97,-16.4 378.54,1.03 557.68,48.7 500.72,132.64 930.09,500.42 1119.83,1024.33l0 0zm0 0z"/>
   <path class="fil0 str0" d="M7283.15 8184.23l2.59 18.8 335.69 2458.69c-24.61,11.33 -49.36,22.52 -74.27,33.52 -35.11,15.38 -70.42,30.59 -106.17,45.34 -72.91,30.39 -146.82,59.16 -221.82,86.33 -76.97,27.87 -153.93,53.75 -231.23,77.5 -34.91,10.89 -70.02,21.39 -105.3,31.25 -26.3,7.54 -52.48,15.02 -78.79,22.16l-1316.37 -2103.26 -10.07 -16.34 1805.74 -653.99zm0 0z"/>
   <g>
    <path class="fil0" d="M6981.6 8882.03l-173.06 811.54 -652.53 -512.55 825.59 -298.99zm0 0l0 0 0 0z"/>
    <path id="1" class="fil1 str0" d="M6981.6 8882.03l-173.06 811.54 -652.53 -512.55m825.59 -298.99l0 0 0 0z"/>
   </g>
   <path class="fil0 str0" d="M7547.16 10695.24c-35.11,15.38 -70.42,30.59 -106.17,45.34 -72.91,30.39 -146.82,59.16 -221.82,86.33 -76.97,27.87 -153.93,53.75 -231.23,77.5 -34.91,10.89 -70.02,21.39 -105.3,31.25l-136.35 -1414.46 800.87 1174.04zm0 0z"/>
   <g>
    <path class="fil0" d="M6595.71 9106.18l-552.97 635.48 -565.36 -903.28 338.39 -409.13 779.94 676.93zm0 0l0 0 0 0z"/>
    <path id="1" class="fil1 str0" d="M6595.71 9106.18l-552.97 635.48 -565.36 -903.28 338.39 -409.13m779.94 676.93l0 0 0 0z"/>
   </g>
   <g>
    <path class="fil0" d="M6595.71 9106.18l831.6 134 -144.16 -1055.78 -521.92 -97.59 -165.52 1019.37zm0 0l0 0 0 0z"/>
    <path id="1" class="fil1 str0" d="M6595.71 9106.18l831.6 134 -144.16 -1055.78 -521.92 -97.59m-165.52 1019.37l0 0 0 0z"/>
   </g>
   <path class="fil0 str0" d="M7788.08 9496.75l219.6 -79.55 -45.6 1071.99c-167.12,92.74 -340.95,176.78 -521.09,251.39l-156.78 -2537.41 -1.03 -18.97 529.65 -16.84 -24.75 1329.39zm0 0z"/>
   <path class="fil0 str0" d="M6987.94 10904.41c-186.41,57.99 -374.03,104.43 -561.87,140.01l-720.75 -793.37 219.6 -79.52 -870.43 -1005.16 417.78 -326.29 11.32 15.24 1504.35 2049.09zm0 0z"/>
   <path class="fil0 str0" d="M6701.94 7685.64l243.82 673.22c89.28,246.57 2.22,513.74 -196.62,664.01 -45.51,34.52 -96.99,62.88 -153.49,83.35 -302.98,109.71 -637.45,-46.94 -747.2,-349.92l-243.81 -673.25 1097.3 -397.41zm0 0z"/>
   <path class="fil0 str0" d="M6930.31 8316.24l15.48 42.72c89.25,246.47 2.19,513.64 -196.61,664.01 -224.52,11 -440,-109.58 -545.87,-314.37 37.51,-10.99 74.74,-23.25 111.71,-36.64 103.84,-37.6 202.63,-82.67 295.84,-134.76 115.03,-63.91 221.63,-138.15 319.45,-220.96l0 0zm0 0z"/>
   <path class="fil0 str0" d="M4248.64 7325.93c91.98,253.98 -17.31,531.78 -246.11,658.9 -25.01,13.85 -51.49,26.01 -79.29,36.11 -281.85,102.07 -593,-43.55 -695.07,-325.4 -102.08,-281.85 43.54,-593 325.46,-695.07 27.8,-10.1 55.94,-17.71 84.07,-22.99 257.11,-48.9 518.96,94.5 610.94,348.45zm0 0z"/>
   <path class="fil0 str0" d="M4248.64 7325.93c91.98,253.98 -17.31,531.78 -246.11,658.9 -102.21,-144.53 -186.95,-304.9 -250.06,-479.19 -63.15,-174.33 -100.75,-351.71 -114.77,-528.16 257.11,-48.9 518.96,94.5 610.94,348.45zm0 0z"/>
   <path class="fil0 str0" d="M3920.78 7444.68c36.47,100.68 -15.61,211.93 -116.29,248.4 -100.75,36.47 -211.93,-15.64 -248.4,-116.33 -36.47,-100.74 15.58,-211.89 116.33,-248.36 100.64,-36.48 211.89,15.54 248.36,116.29zm0 0z"/>
   <path class="fil0 str0" d="M7258.53 6235.83c91.98,253.95 353.83,397.35 610.97,348.45 28.03,-5.31 56.2,-12.95 84.04,-23.05 281.82,-102.08 427.54,-413.16 325.46,-695.01 -102.07,-281.81 -413.15,-427.54 -695.07,-325.46 -27.8,10.1 -54.34,22.29 -79.29,36.21 -228.77,127.09 -338.09,404.88 -246.11,658.86zm0 0z"/>
   <path class="fil0 str0" d="M7258.53 6235.83c91.98,253.95 353.83,397.35 610.97,348.45 -14.02,-176.45 -51.65,-353.89 -114.77,-528.15 -63.14,-174.36 -147.85,-334.67 -250.09,-479.16 -228.77,127.09 -338.09,404.88 -246.11,658.86zm0 0z"/>
   <path class="fil0 str0" d="M7291.91 5099.37l261.82 722.84c342.14,944.7 -64.17,1978.23 -915.1,2450.95 -2.82,1.59 -5.85,3.25 -8.67,4.88 -90.55,50.22 -186.42,93.47 -287.1,129.95 -1048.37,379.7 -2205.97,-162.4 -2585.61,-1210.68l-261.85 -722.94c-79.92,-220.7 -119.12,-446.48 -120.94,-668.77 -7.94,-832.79 504.14,-1617.39 1331.55,-1917.07l0.16 -0.04c100.52,-36.4 202.1,-64.4 303.88,-84.07 959.35,-187.01 1938.6,347.12 2281.86,1294.95l0 0zm0 0z"/>
   <path class="fil0 str0" d="M7951.08 5985.01c36.47,100.68 -15.54,211.89 -116.29,248.37 -100.69,36.47 -211.93,-15.62 -248.4,-116.3 -36.48,-100.75 15.64,-211.92 116.32,-248.36 100.75,-36.51 211.9,15.54 248.37,116.29zm0 0z"/>
   <path class="fil0 str0" d="M5211.08 6545.59c43.08,118.95 -18.44,250.29 -137.29,293.34 -118.95,43.08 -250.29,-18.44 -293.38,-137.35 -43.05,-118.89 18.44,-250.23 137.39,-293.31 118.89,-43.05 250.23,18.43 293.28,137.32zm0 0z"/>
   <path class="fil0 str0" d="M6450.35 6096.75c43.09,118.95 -18.4,250.3 -137.35,293.38 -118.95,43.05 -250.29,-18.44 -293.38,-137.39 -43.05,-118.85 18.44,-250.19 137.39,-293.27 118.95,-43.09 250.29,18.4 293.34,137.28zm0 0z"/>
   <path class="fil0 str0" d="M5153.45 6523.56c18.43,50.93 -7.91,107.2 -58.9,125.66 -50.92,18.44 -107.19,-7.9 -125.66,-58.82 -18.47,-50.99 7.87,-107.3 58.83,-125.73 50.99,-18.47 107.26,7.87 125.73,58.89zm0 0z"/>
   <path class="fil0 str0" d="M6403.22 6070.91c18.47,50.92 -7.91,107.19 -58.83,125.63 -50.99,18.47 -107.26,-7.87 -125.7,-58.8 -18.5,-50.99 7.88,-107.26 58.87,-125.72 50.92,-18.47 107.19,7.9 125.66,58.89zm0 0z"/>
   <path class="fil0 str0" d="M5996.57 6778.97l-430.73 155.99c-51.29,18.57 -107.99,-7.94 -126.56,-59.26 -18.6,-51.35 7.97,-107.96 59.26,-126.52l430.73 -155.99c51.29,-18.6 107.92,7.87 126.53,59.22 18.5,51.32 -8.01,107.99 -59.23,126.56zm0 0z"/>
   <path class="fil0 str0" d="M5994.05 7444.65c-158.95,57.56 -332.38,75.3 -506.11,48.1 -48.99,-7.68 -82.57,-53.62 -74.83,-102.58 7.67,-48.99 53.64,-82.48 102.6,-74.9 286.44,44.84 571.58,-58.43 762.84,-276.31 32.75,-37.23 89.52,-40.95 126.79,-8.13 37.31,32.62 40.93,89.42 8.21,126.69 -116.06,132.17 -260.56,229.56 -419.5,287.13l0 0zm0 0z"/>
   <path class="fil0 str0" d="M7054.34 4443.36l268.17 740.48 -353.3 127.95 -210.04 -579.91 -2721.96 449.8 -575.96 95.14 417.98 1154.1 -353.3 127.95 -268.2 -740.54c-305.73,-844.13 130.64,-1776.11 974.63,-2081.81l740.25 -268.06c20.13,-7.31 40.36,-14.22 60.82,-20.46 827.28,-264.08 1722.46,171.33 2020.91,995.39l0 -0.03zm0 0z"/>
   <path class="fil0 str0" d="M7054.34 4443.36l268.17 740.48 -353.3 127.95 -210.04 -579.91 -2721.96 449.8c-103.94,-725.83 296.43,-1449.27 996.22,-1733.68 827.28,-264.08 1722.46,171.33 2020.91,995.39l0 -0.03zm0 0z"/>
  </g>
 </g>
</svg>
