<?xml version="1.0" encoding="UTF-8"?>
<!DOCTYPE svg PUBLIC "-//W3C//DTD SVG 1.1//EN" "http://www.w3.org/Graphics/SVG/1.1/DTD/svg11.dtd">
<!-- Creator: CorelDRAW 2017 -->
<svg xmlns="http://www.w3.org/2000/svg" xml:space="preserve" width="168px" height="168px" version="1.1" style="shape-rendering:geometricPrecision; text-rendering:geometricPrecision; image-rendering:optimizeQuality; fill-rule:evenodd; clip-rule:evenodd"
viewBox="0 0 67.8 67.8"
 xmlns:xlink="http://www.w3.org/1999/xlink">
 <defs>
  <style type="text/css">
   <![CDATA[
    .fil6 {fill:#3B2519}
    .fil1 {fill:#52362B}
    .fil2 {fill:#8A9AA4}
    .fil5 {fill:#F36D25}
    .fil3 {fill:#F79522}
    .fil7 {fill:#F79863}
    .fil4 {fill:#FCBC84}
    .fil0 {fill:#FCCC9A}
    .fil8 {fill:white}
   ]]>
  </style>
 </defs>
 <g id="Layer_x0020_1">
  <metadata id="CorelCorpID_0Corel-Layer"/>
  <g id="_2855287749664">
   <path class="fil0" d="M28.43 43.79c1.52,0.02 2.84,0.96 5.47,0.96 2.08,0 3.86,-0.95 5.17,-0.93 -0.74,2.26 -9.62,2.45 -10.64,-0.03zm8.56 -5.01c0.41,3.26 -6.78,3.31 -6.48,-0.02 3.79,1.08 2.39,1.62 6.48,0.02zm5.58 -9.22c2.83,-1.64 4.32,3.41 1.83,4.29 -2.86,1.01 -4.16,-2.94 -1.83,-4.29zm-19.23 0.06c2.58,-1.61 4.27,2.95 1.92,4.14 -2.49,1.28 -4.61,-2.46 -1.92,-4.14zm16.69 -3.44c-0.67,-4.25 6.88,-4 6.8,-0.28 -1.58,0.27 -2.05,-0.5 -3.66,-0.49 -1.26,0.02 -2.06,0.65 -3.14,0.77zm-19.33 -0.26c-0.05,-2.04 1.57,-2.82 3.66,-2.8 1.91,0.02 3.56,0.92 3.1,3.02 -1.12,-0.06 -1.9,-0.76 -3.35,-0.73 -1.52,0.03 -1.84,0.74 -3.41,0.51zm-5.6 9.33c-0.31,1.11 0.19,2.04 0.37,3.27 1.86,4.18 2.3,7.98 8.18,11.46 1.73,1.02 3.27,1.13 4.93,1.93l0.09 3.52c2.52,2.51 8.1,2.42 10.14,0.07l0.03 -1.6c-1.92,0.13 -7.66,-0.07 -9.26,-1.83 1.71,0.05 3.08,0.26 4.82,0.23 1.53,-0.03 3.04,-0.34 4.55,-0.38 1.4,-0.73 3.04,-0.9 4.59,-1.76 1.81,-1 2.49,-1.62 3.73,-2.89 2.08,-2.13 3.82,-5.05 4.68,-8.76l0.8 -3.83c-0.75,-0.38 -0.44,0.18 -0.78,-1.1l-0.56 -4.2c-0.26,-1.75 -0.69,-3.69 -1.51,-4.86 -0.49,-0.71 -0.92,-0.99 -1.76,-1.42 -2.94,-1.48 -3.56,-3.4 -4.97,-4.44 -3.03,0.68 -5.43,1.73 -9.05,2.16 -6.43,0.77 -14.82,-2.09 -17.76,4.56 -1.45,3.29 0.35,6.63 -1.26,9.87z"/>
   <path class="fil1" d="M21.99 2.12c-0.8,0.61 -1.98,1.05 -2.87,1.64 -2.89,1.93 -4.97,3.78 -6.26,7.51 -1.68,4.83 -1.36,11.47 -0.6,16.67 0.08,1.31 0.38,2.94 0.65,4.17 0.38,1.65 0.51,2.92 2.19,3.14 1.61,-3.24 -0.19,-6.58 1.26,-9.87 2.94,-6.65 11.33,-3.79 17.76,-4.56 3.62,-0.43 6.02,-1.48 9.05,-2.16 1.41,1.04 2.03,2.96 4.97,4.44 0.84,0.43 1.27,0.71 1.76,1.42 0.82,1.17 1.25,3.11 1.51,4.86l0.56 4.2c0.34,1.28 0.03,0.72 0.78,1.1 1.42,-0.86 2.23,-4.53 2.84,-6.55 1.12,-5.78 2.05,-13.12 -1.14,-17.95 -1.84,-2.78 -2.79,-2.56 -5.58,-5.01 -3.28,-2.88 -4.73,-2.83 -6.52,-4.11 -0.06,-0.04 -0.15,-0.14 -0.17,-0.09 -0.03,0.06 -0.14,-0.07 -0.18,-0.08 -0.12,-0.05 -0.46,-0.18 -0.57,-0.21 -0.28,-0.09 -1.02,-0.26 -1.28,-0.3 -1.18,-0.22 -3.02,-0.36 -5.1,-0.38l-1.28 0c-4.5,0.05 -9.7,0.64 -11.78,2.12z"/>
   <path class="fil2" d="M55.59 28.13c3.9,1.54 4.01,11.19 -3.64,10.38 -0.86,3.71 -2.6,6.63 -4.68,8.76 -1.24,1.27 -1.92,1.89 -3.73,2.89 -1.55,0.86 -3.19,1.03 -4.59,1.76l-0.15 3.52 2.61 0.47c5.61,1.81 8.05,2.72 12.35,5.6 8.61,-5.9 13.33,-15.26 14.04,-24.96l0 -5.11c-0.76,-10.42 -6.16,-20.6 -16.37,-26.72 -1.61,-0.97 -2.36,-1.34 -4.2,-2.16 -1.08,-0.49 -3.56,-1.47 -4.88,-1.5 1.79,1.28 3.24,1.23 6.52,4.11 2.79,2.45 3.74,2.23 5.58,5.01 3.19,4.83 2.26,12.17 1.14,17.95z"/>
   <path class="fil2" d="M14.05 61.44c1.81,-2.21 8.76,-4.51 12.31,-5.61l2.31 -0.4 -0.09 -3.52c-1.66,-0.8 -3.2,-0.91 -4.93,-1.93 -5.88,-3.48 -6.32,-7.28 -8.18,-11.46 -7.41,0.82 -7.72,-8.88 -3.21,-10.58 -0.76,-5.2 -1.08,-11.84 0.6,-16.67 1.29,-3.73 3.37,-5.58 6.26,-7.51 0.89,-0.59 2.07,-1.03 2.87,-1.64 -3.7,0.3 -11.81,6.93 -14.08,9.76 -4.61,5.72 -7.23,12.1 -7.91,18.58l0 6.85c0.54,5.13 2.28,10.21 5.21,14.95 0.79,1.28 1.66,2.33 2.58,3.51 1.28,1.63 4.48,4.75 6.26,5.67z"/>
   <path class="fil3" d="M14.05 61.44c0.5,0.71 2.81,2.04 3.78,2.57 2.77,1.49 6.57,2.88 9.82,3.42 1.03,0.16 2.06,0.29 3.09,0.37l5.87 0c4.6,-0.36 9.13,-1.59 13.18,-3.7 0.91,-0.48 3.4,-1.94 3.97,-2.59 -4.3,-2.88 -6.74,-3.79 -12.35,-5.6 -3.44,4.65 -11.67,4.72 -15.05,-0.08 -3.55,1.1 -10.5,3.4 -12.31,5.61z"/>
   <path class="fil4" d="M52.75 34.68l-0.8 3.83c7.65,0.81 7.54,-8.84 3.64,-10.38 -0.61,2.02 -1.42,5.69 -2.84,6.55z"/>
   <path class="fil4" d="M15.47 38.52c-0.18,-1.23 -0.68,-2.16 -0.37,-3.27 -1.68,-0.22 -1.81,-1.49 -2.19,-3.14 -0.27,-1.23 -0.57,-2.86 -0.65,-4.17 -4.51,1.7 -4.2,11.4 3.21,10.58z"/>
   <path class="fil5" d="M26.36 55.83c3.38,4.8 11.61,4.73 15.05,0.08l-2.61 -0.47 0.01 0.06c-2.04,2.35 -7.62,2.44 -10.14,-0.07l-2.31 0.4z"/>
   <path class="fil6" d="M43.04 31.12c-1.12,0.27 -0.97,0.15 -1,-1.03 1.27,0.02 1.33,-0.19 1,1.03zm-0.47 -1.56c-2.33,1.35 -1.03,5.3 1.83,4.29 2.49,-0.88 1,-5.93 -1.83,-4.29z"/>
   <path class="fil1" d="M20.7 25.92c1.57,0.23 1.89,-0.48 3.41,-0.51 1.45,-0.03 2.23,0.67 3.35,0.73 0.46,-2.1 -1.19,-3 -3.1,-3.02 -2.09,-0.02 -3.71,0.76 -3.66,2.8z"/>
   <path class="fil1" d="M40.03 26.18c1.08,-0.12 1.88,-0.75 3.14,-0.77 1.61,-0.01 2.08,0.76 3.66,0.49 0.08,-3.72 -7.47,-3.97 -6.8,0.28z"/>
   <path class="fil6" d="M23.55 30.12c0,0 0.75,-0.17 0.26,0.81 -0.33,0.68 -0.52,0.28 -0.9,0.19 -0.25,-0.77 -0.5,-1.26 0.64,-1zm-0.21 -0.5c-2.69,1.68 -0.57,5.42 1.92,4.14 2.35,-1.19 0.66,-5.75 -1.92,-4.14z"/>
   <path class="fil4" d="M38.81 55.5l-0.01 -0.06 0.15 -3.52c-1.51,0.04 -3.02,0.35 -4.55,0.38 -1.74,0.03 -3.11,-0.18 -4.82,-0.23 1.6,1.76 7.34,1.96 9.26,1.83l-0.03 1.6z"/>
   <path class="fil4" d="M36.99 38.78c-4.09,1.6 -2.69,1.06 -6.48,-0.02 -0.3,3.33 6.89,3.28 6.48,0.02z"/>
   <path class="fil7" d="M28.43 43.79c1.02,2.48 9.9,2.29 10.64,0.03 -1.31,-0.02 -3.09,0.93 -5.17,0.93 -2.63,0 -3.95,-0.94 -5.47,-0.96z"/>
   <path class="fil8" d="M23.81 30.93c0.49,-0.98 -0.26,-0.81 -0.26,-0.81 -1.14,-0.26 -0.89,0.23 -0.64,1 0.38,0.09 0.57,0.49 0.9,-0.19z"/>
   <path class="fil8" d="M43.04 31.12c0.33,-1.22 0.27,-1.01 -1,-1.03 0.03,1.18 -0.12,1.3 1,1.03z"/>
  </g>
 </g>
</svg>
