<?xml version="1.0" encoding="UTF-8"?>
<!DOCTYPE svg PUBLIC "-//W3C//DTD SVG 1.1//EN" "http://www.w3.org/Graphics/SVG/1.1/DTD/svg11.dtd">
<!-- Creator: CorelDRAW 2017 -->
<svg xmlns="http://www.w3.org/2000/svg" xml:space="preserve" width="168px" height="168px" version="1.1" style="shape-rendering:geometricPrecision; text-rendering:geometricPrecision; image-rendering:optimizeQuality; fill-rule:evenodd; clip-rule:evenodd"
viewBox="0 0 67.8 67.8"
 xmlns:xlink="http://www.w3.org/1999/xlink">
 <defs>
  <style type="text/css">
   <![CDATA[
    .fil9 {fill:#3B2519}
    .fil6 {fill:#583718}
    .fil8 {fill:#754B27}
    .fil1 {fill:#87481E}
    .fil2 {fill:#91969A}
    .fil7 {fill:#C1825B}
    .fil3 {fill:#D48D64}
    .fil10 {fill:#F79863}
    .fil5 {fill:#FCBC84}
    .fil4 {fill:#FDC996}
    .fil0 {fill:#FDCC99}
    .fil11 {fill:white}
   ]]>
  </style>
 </defs>
 <g id="Layer_x0020_1">
  <metadata id="CorelCorpID_0Corel-Layer"/>
  <g id="_2855290784448">
   <path class="fil0" d="M39.29 43.69c-1.32,2.54 -9.55,2.49 -10.78,0 1.92,0.28 3.05,1.03 5.39,1.03 2.33,0 3.47,-0.75 5.39,-1.03zm-2.03 -4.94c-0.11,1.84 -1.42,2.35 -3.36,2.35 -1.94,0 -3.25,-0.51 -3.36,-2.35 1.25,0.12 1.62,0.92 3.36,0.92 1.74,0 2.12,-0.8 3.36,-0.92zm5.75 -9.36c2.58,-1.41 4.12,3.3 1.55,4.33 -2.52,1 -4.5,-2.72 -1.55,-4.33zm-19.39 -0.04c2.78,-1.22 4.03,3.34 1.59,4.35 -2.74,1.12 -4.47,-3.08 -1.59,-4.35zm16.55 -3.58c-0.43,-3.52 5.11,-3.58 6.57,-1.5 1.72,2.47 -1.43,1.2 -2.36,1.04 -1.68,-0.3 -3.19,0.77 -4.21,0.46zm-12.54 0c-1.07,0.32 -2.61,-0.81 -4.42,-0.42 -0.96,0.21 -3.79,1.28 -2.15,-1.08 1.46,-2.09 7,-2.01 6.57,1.5zm-12.54 9.24c-0.29,1.09 0.11,2.35 0.43,3.43 0.67,2.45 1.79,5.33 3.21,6.84 1.62,0.68 3.73,2.57 6.81,3.6 5.47,1.85 4.53,-0.95 8.36,-0.95 4.12,0 3.3,4 11.78,-0.65 1.07,-0.59 2.31,-1.57 3.39,-2 1.42,-1.51 2.54,-4.39 3.21,-6.84l0.57 -3.45c-0.11,-2.56 -0.53,-6.37 -0.73,-9.31 -0.5,-7.5 -0.68,-11.6 -9.48,-10.05 -8.35,1.46 -9.38,1.33 -17.65,-0.08 -11.95,-2.04 -7.7,8.72 -9.9,19.46z"/>
   <path class="fil1" d="M17.44 4.24c-0.98,1.3 -1.86,2.04 -2.78,4.07 -0.76,1.68 -1.27,3.58 -1.58,5.58 -0.72,4.61 -0.67,8.97 -0.63,13.72 0.14,1.46 0.23,2.78 0.54,4.15 0.13,0.59 0.36,1.3 0.57,1.81 0.42,1.02 0.46,1.13 1.53,1.44 2.2,-10.74 -2.05,-21.5 9.9,-19.46 8.27,1.41 9.3,1.54 17.65,0.08 8.8,-1.55 8.98,2.55 9.48,10.05 0.2,2.94 0.62,6.75 0.73,9.31 1.41,-0.09 1.74,-1.37 2.12,-2.8 0.38,-1.41 0.56,-2.96 0.6,-4.45 0.37,-5.14 0.07,-13.82 -1.85,-18.68 -0.93,-2.35 -1.52,-2.64 -2.56,-4.29 -2.23,-2.65 -11.48,-4.77 -16.44,-4.77l-0.06 0c-5.65,0.01 -13.15,1.06 -17.22,4.24z"/>
   <path class="fil2" d="M14.14 61.44c0.77,-0.97 5.27,-3.27 6.89,-3.72 0.27,-0.85 -0.01,-0.46 1.05,-0.95 0.76,-0.35 1.06,-0.46 1.84,-0.52 0.5,0.35 1.94,-0.19 2.49,-0.34l2.4 -0.56 0.11 -3.13c-2.33,-0.45 -4.49,-1.35 -6.12,-2.45 -1.44,-0.97 -3.42,-2.87 -4.07,-4.49 -1.42,-1.51 -2.54,-4.39 -3.21,-6.84 -3.52,0.26 -5.46,-1.1 -6.12,-4.14 -0.72,-3.28 1,-5.87 3.05,-6.69 -0.04,-4.75 -0.09,-9.11 0.63,-13.72 0.31,-2 0.82,-3.9 1.58,-5.58 0.92,-2.03 1.8,-2.77 2.78,-4.07 -3.37,0.97 -9.35,7.13 -11.56,10.38 -1.56,2.27 -2.77,4.54 -3.8,7.32 -1.15,3.1 -1.83,6.17 -2.08,9.18l0 5.44c0.6,7.21 3.59,13.94 8.17,19.63 1.27,1.57 4.19,4.31 5.97,5.25z"/>
   <path class="fil2" d="M55.57 27.74c2.04,0.93 3.69,3.8 2.72,6.98 -0.83,2.73 -2.54,3.97 -6.01,3.72 -0.67,2.45 -1.79,5.33 -3.21,6.84 -0.65,1.62 -2.63,3.52 -4.06,4.49 -1.66,1.12 -3.75,1.95 -6.1,2.46l0.08 3.12 2.82 0.69c0.87,0.21 1.57,0.57 2.07,0.21 0.79,0.06 0.91,0.13 1.66,0.44 0.99,0.43 0.98,0.25 1.23,1.03 1.62,0.45 6.12,2.75 6.89,3.72 5.96,-3.16 11.67,-12.53 13.28,-19.39 0.46,-1.95 0.74,-3.95 0.86,-5.98l0 -4.16c-0.26,-4.49 -1.36,-8.95 -3.35,-12.93 -2.05,-4.07 -3.68,-6.26 -6.91,-9.51 -1.18,-1.18 -4.79,-4.3 -6.38,-4.7 1.04,1.65 1.63,1.94 2.56,4.29 1.92,4.86 2.22,13.54 1.85,18.68z"/>
   <path class="fil3" d="M23.92 56.25c-0.01,1.73 -0.01,3.46 -0.01,5.19l-0.34 4.91c2.28,0.8 5.12,1.29 8.06,1.45l4.54 0c2.94,-0.16 5.78,-0.65 8.06,-1.45 -0.7,-1.09 -0.34,-8.8 -0.35,-10.1 -0.5,0.36 -1.2,0 -2.07,-0.21l-0.92 0.73c-4.66,4.08 -11.64,3.39 -14.48,-0.86 -0.55,0.15 -1.99,0.69 -2.49,0.34z"/>
   <path class="fil1" d="M28.92 52.22c2.37,0.68 7.69,0.71 9.99,0.01 2.35,-0.51 4.44,-1.34 6.1,-2.46 1.43,-0.97 3.41,-2.87 4.06,-4.49 -1.08,0.43 -2.32,1.41 -3.39,2 -8.48,4.65 -7.66,0.65 -11.78,0.65 -3.83,0 -2.89,2.8 -8.36,0.95 -3.08,-1.03 -5.19,-2.92 -6.81,-3.6 0.65,1.62 2.63,3.52 4.07,4.49 1.63,1.1 3.79,2 6.12,2.45z"/>
   <path class="fil4" d="M28.81 55.35c1.39,2.67 8.79,2.62 10.18,0l-0.08 -3.12c-2.3,0.7 -7.62,0.67 -9.99,-0.01l-0.11 3.13z"/>
   <path class="fil5" d="M15.52 38.44c-0.32,-1.08 -0.72,-2.34 -0.43,-3.43 -1.07,-0.31 -1.11,-0.42 -1.53,-1.44 -0.21,-0.51 -0.44,-1.22 -0.57,-1.81 -0.31,-1.37 -0.4,-2.69 -0.54,-4.15 -2.05,0.82 -3.77,3.41 -3.05,6.69 0.66,3.04 2.6,4.4 6.12,4.14z"/>
   <path class="fil5" d="M52.85 34.99l-0.57 3.45c3.47,0.25 5.18,-0.99 6.01,-3.72 0.97,-3.18 -0.68,-6.05 -2.72,-6.98 -0.04,1.49 -0.22,3.04 -0.6,4.45 -0.38,1.43 -0.71,2.71 -2.12,2.8z"/>
   <path class="fil6" d="M44.23 66.35c1.2,-0.36 2.82,-0.86 3.55,-1.46 0.46,-1.7 -0.73,-5.23 -1.01,-7.17 -0.25,-0.78 -0.24,-0.6 -1.23,-1.03 -0.75,-0.31 -0.87,-0.38 -1.66,-0.44 0.01,1.3 -0.35,9.01 0.35,10.1z"/>
   <path class="fil6" d="M21.03 57.72c-0.28,1.94 -1.47,5.47 -1.01,7.17 0.73,0.6 2.35,1.1 3.55,1.46l0.34 -4.91c0,-1.73 0,-3.46 0.01,-5.19 -0.78,0.06 -1.08,0.17 -1.84,0.52 -1.06,0.49 -0.78,0.1 -1.05,0.95z"/>
   <path class="fil7" d="M26.41 55.91c2.84,4.25 9.82,4.94 14.48,0.86l0.92 -0.73 -2.82 -0.69c-1.39,2.62 -8.79,2.67 -10.18,0l-2.4 0.56z"/>
   <path class="fil8" d="M47.78 64.89c1.32,-0.47 4.31,-1.96 5.41,-2.96l0.47 -0.49c-0.77,-0.97 -5.27,-3.27 -6.89,-3.72 0.28,1.94 1.47,5.47 1.01,7.17z"/>
   <path class="fil8" d="M14.14 61.44c0.04,0.05 0.1,0.06 0.11,0.13 0.08,0.36 2.16,1.55 2.45,1.71 1.29,0.74 1.81,1.07 3.32,1.61 -0.46,-1.7 0.73,-5.23 1.01,-7.17 -1.62,0.45 -6.12,2.75 -6.89,3.72z"/>
   <path class="fil9" d="M24.02 30.23l-0.07 0.71 -1.14 -0.02 0.1 -0.86c0.86,-0.28 0.43,-0.39 1.11,0.17zm-0.4 -0.88c-2.88,1.27 -1.15,5.47 1.59,4.35 2.44,-1.01 1.19,-5.57 -1.59,-4.35z"/>
   <path class="fil1" d="M27.63 25.77c0.43,-3.51 -5.11,-3.59 -6.57,-1.5 -1.64,2.36 1.19,1.29 2.15,1.08 1.81,-0.39 3.35,0.74 4.42,0.42z"/>
   <path class="fil1" d="M40.17 25.77c1.02,0.31 2.53,-0.76 4.21,-0.46 0.93,0.16 4.08,1.43 2.36,-1.04 -1.46,-2.08 -7,-2.02 -6.57,1.5z"/>
   <path class="fil9" d="M43.11 30.98c-0.79,0.43 -0.79,-0.18 -0.83,-0.21 -0.27,-1.15 0.22,-0.98 1.02,-0.71 0.1,0.43 0.46,0.56 -0.19,0.92zm-0.1 -1.59c-2.95,1.61 -0.97,5.33 1.55,4.33 2.57,-1.03 1.03,-5.74 -1.55,-4.33z"/>
   <path class="fil5" d="M33.9 41.1c1.94,0 3.25,-0.51 3.36,-2.35 -1.24,0.12 -1.62,0.92 -3.36,0.92 -1.74,0 -2.11,-0.8 -3.36,-0.92 0.11,1.84 1.42,2.35 3.36,2.35z"/>
   <path class="fil10" d="M39.29 43.69c-1.92,0.28 -3.06,1.03 -5.39,1.03 -2.34,0 -3.47,-0.75 -5.39,-1.03 1.23,2.49 9.46,2.54 10.78,0z"/>
   <path class="fil11" d="M42.28 30.77c0.04,0.03 0.04,0.64 0.83,0.21 0.65,-0.36 0.29,-0.49 0.19,-0.92 -0.8,-0.27 -1.29,-0.44 -1.02,0.71z"/>
   <path class="fil11" d="M22.91 30.06l-0.1 0.86 1.14 0.02 0.07 -0.71c-0.68,-0.56 -0.25,-0.45 -1.11,-0.17z"/>
  </g>
 </g>
</svg>
