<?xml version="1.0" encoding="UTF-8"?>
<!DOCTYPE svg PUBLIC "-//W3C//DTD SVG 1.1//EN" "http://www.w3.org/Graphics/SVG/1.1/DTD/svg11.dtd">
<!-- Creator: CorelDRAW 2017 -->
<svg xmlns="http://www.w3.org/2000/svg" xml:space="preserve" width="168px" height="168px" version="1.1" style="shape-rendering:geometricPrecision; text-rendering:geometricPrecision; image-rendering:optimizeQuality; fill-rule:evenodd; clip-rule:evenodd"
viewBox="0 0 66.65 66.65"
 xmlns:xlink="http://www.w3.org/1999/xlink">
 <defs>
  <style type="text/css">
   <![CDATA[
    .fil5 {fill:#234672}
    .fil8 {fill:#3B2519}
    .fil7 {fill:#3D5A7D}
    .fil1 {fill:#535454}
    .fil6 {fill:#8AAD9F}
    .fil2 {fill:#A0948E}
    .fil3 {fill:#C3DDD4}
    .fil9 {fill:#F79863}
    .fil4 {fill:#FCBC84}
    .fil0 {fill:#FDCB99}
    .fil10 {fill:white}
   ]]>
  </style>
 </defs>
 <g id="Layer_x0020_1">
  <metadata id="CorelCorpID_0Corel-Layer"/>
  <g id="_2855287742848">
   <path class="fil0" d="M38.62 42.95c-1.31,2.49 -9.37,2.44 -10.59,0 1.89,0.28 3,1.02 5.3,1.02 2.29,0 3.41,-0.74 5.29,-1.02zm-2 -4.85c-0.11,1.79 -1.4,2.3 -3.29,2.3 -1.89,0 -3.19,-0.51 -3.3,-2.3 1.21,0.12 1.57,0.9 3.3,0.9 1.72,0 2.08,-0.78 3.29,-0.9zm5.66 -9.21c2.54,-1.39 4.05,3.25 1.53,4.26 -2.48,0.98 -4.43,-2.67 -1.53,-4.26zm-19.06 -0.03c2.73,-1.21 3.96,3.28 1.56,4.26 -2.69,1.11 -4.39,-3.02 -1.56,-4.26zm16.28 -3.29c-0.3,-4.03 5.1,-3.6 6.44,-1.7 1.6,2.28 -1.16,1.24 -2.09,1.04 -2.12,-0.45 -2.62,0.26 -4.35,0.66zm-12.35 0c-1.72,-0.4 -2.24,-1.11 -4.34,-0.66 -0.94,0.2 -3.7,1.24 -2.1,-1.04 1.35,-1.9 6.74,-2.32 6.44,1.7zm-12.49 8.83l0.64 3.38c0.53,2.33 1.78,5.02 2.96,6.63 1.83,0.78 3.32,2.41 6.85,3.65 5.22,1.84 4.57,-0.94 8.22,-0.94 3.86,0 3.51,3.98 11.76,-0.73 1.11,-0.63 2.17,-1.52 3.31,-1.98 1.17,-1.61 2.42,-4.3 2.96,-6.63l0.7 -3.39c-0.85,-3 -0.74,-7.79 -1.05,-11.21 -0.35,-3.85 -1.02,-6.45 -2.58,-9.63 -4.21,-8.57 -7.37,2.89 -15.09,2.81 -7.28,-0.07 -10.73,-11.51 -15.01,-2.45 -4.04,8.54 -1.74,18.19 -3.67,20.49z"/>
   <path class="fil1" d="M13.85 60.4c0.74,-0.98 5.25,-3.3 6.9,-3.69 0.17,-0.68 0.05,-0.46 0.97,-0.88 0.47,-0.22 0.98,-0.35 1.45,-0.56 0.47,0.25 0.09,-0.14 0.3,0.49l2.04 -0.54c0.77,-0.53 1.78,-0.55 2.82,-0.91l0.03 -2.93c-4.63,-1.22 -8.52,-3.53 -10.1,-6.97 -1.18,-1.61 -2.43,-4.3 -2.96,-6.63 -3.51,0.2 -5.21,-0.92 -6,-3.86 -0.37,-1.4 -0.2,-3.01 0.35,-4.22 0.66,-1.46 1.06,-1.56 2.2,-2.44 0.59,-0.67 0.39,-0.02 0.4,-1.47 0.04,-5.5 -0.23,-12.41 2.11,-17.42 0.99,-2.12 1.76,-2.76 2.8,-4.21 -3.3,0.92 -9.21,7.03 -11.38,10.21 -3.47,5.08 -5.35,10.65 -5.78,16.27l0 4.96c0.34,4.48 1.57,8.91 3.64,13.09 2.06,4.14 6.37,9.43 10.21,11.71z"/>
   <path class="fil1" d="M54.7 27.28c1.97,1.06 3.57,3.66 2.6,6.84 -0.87,2.81 -2.46,3.86 -5.94,3.66 -0.54,2.33 -1.79,5.02 -2.96,6.63 -1.37,2.97 -5.64,6.16 -9.94,6.85l-0.09 3.29c1.03,0.03 1.98,0.14 2.78,0.67l2.03 0.54c0.04,-0.97 -0.05,-0.3 0.3,-0.49 0.47,0.21 0.98,0.34 1.46,0.56 0.91,0.42 0.79,0.2 0.96,0.88 1.65,0.39 6.16,2.71 6.9,3.69 3.68,-2.18 8.01,-7.35 10.04,-11.36 2.03,-4.01 3.41,-8.72 3.81,-13.5l0 -5.63c-0.22,-2.61 -0.79,-5.18 -1.74,-7.6 -0.57,-1.45 -0.88,-2.31 -1.55,-3.65 -0.67,-1.33 -1.2,-2.32 -1.96,-3.51 -2,-3.13 -8.02,-9.71 -11.12,-10.46 0.43,0.7 0.89,1.09 1.4,1.95 3.4,5.64 2.9,14.32 3.02,20.64z"/>
   <path class="fil2" d="M17.16 4.16c-1.04,1.45 -1.81,2.09 -2.8,4.21 -2.34,5.01 -2.07,11.92 -2.11,17.42 -0.01,1.45 0.19,0.8 -0.4,1.47 1.51,1.49 -0.06,5.94 2.81,7.14 1.93,-2.3 -0.37,-11.95 3.67,-20.49 4.28,-9.06 7.73,2.38 15.01,2.45 7.72,0.08 10.88,-11.38 15.09,-2.81 1.56,3.18 2.23,5.78 2.58,9.63 0.31,3.42 0.2,8.21 1.05,11.21 2.28,-0.36 2.31,-4.8 2.64,-7.11 -0.12,-6.32 0.38,-15 -3.02,-20.64 -0.51,-0.86 -0.97,-1.25 -1.4,-1.95 -2.06,-2.57 -11.29,-4.69 -16.14,-4.69l-0.11 0c-4.15,0.01 -6.14,0.16 -9.35,0.98 -2.35,0.61 -5.95,1.9 -7.52,3.18z"/>
   <path class="fil3" d="M23.47 55.76l0.01 9.59c3.53,0.9 5.3,1.3 9.85,1.3 4.55,0 6.31,-0.4 9.85,-1.3l0 -9.59 -2.03 -0.54c-0.77,0.3 -0.96,0.69 -1.66,1.19 -7.62,5.4 -12.8,-1.03 -13.98,-1.19l-2.04 0.54z"/>
   <path class="fil2" d="M28.36 51.38l2.04 0.31c2.61,0.16 5.32,0.18 7.79,-0.33l-0.02 1.66 0.05 1.63 0.15 -0.1 0.09 -3.29c4.3,-0.69 8.57,-3.88 9.94,-6.85 -1.14,0.46 -2.2,1.35 -3.31,1.98 -8.25,4.71 -7.9,0.73 -11.76,0.73 -3.65,0 -3,2.78 -8.22,0.94 -3.53,-1.24 -5.02,-2.87 -6.85,-3.65 1.58,3.44 5.47,5.75 10.1,6.97z"/>
   <path class="fil4" d="M15.3 37.78l-0.64 -3.38c-2.87,-1.2 -1.3,-5.65 -2.81,-7.14 -1.14,0.88 -1.54,0.98 -2.2,2.44 -0.55,1.21 -0.72,2.82 -0.35,4.22 0.79,2.94 2.49,4.06 6,3.86z"/>
   <path class="fil4" d="M52.06 34.39l-0.7 3.39c3.48,0.2 5.07,-0.85 5.94,-3.66 0.97,-3.18 -0.63,-5.78 -2.6,-6.84 -0.33,2.31 -0.36,6.75 -2.64,7.11z"/>
   <path class="fil0" d="M28.33 54.31c0.36,0.86 0.9,1.13 2,1.54 0.93,0.36 1.94,0.53 3,0.53 1.91,0 4.33,-0.81 4.89,-1.73l-0.05 -1.63c-1.88,0.08 -5.27,0.02 -7.05,-0.85 -0.73,-0.35 -0.35,-0.15 -0.72,-0.48l-2.04 -0.31 -0.03 2.93z"/>
   <path class="fil5" d="M43.18 55.76l0 9.59c1.19,-0.52 2.87,-0.71 3.75,-1.56 0.46,-1.46 -0.61,-5.38 -1.03,-7.08 -0.17,-0.68 -0.05,-0.46 -0.96,-0.88 -0.48,-0.22 -0.99,-0.35 -1.46,-0.56 -0.35,0.19 -0.26,-0.48 -0.3,0.49z"/>
   <path class="fil5" d="M20.75 56.71c-0.41,1.7 -1.48,5.62 -1.03,7.08 0.89,0.85 2.56,1.04 3.76,1.56l-0.01 -9.59c-0.21,-0.63 0.17,-0.24 -0.3,-0.49 -0.47,0.21 -0.98,0.34 -1.45,0.56 -0.92,0.42 -0.8,0.2 -0.97,0.88z"/>
   <path class="fil6" d="M25.51 55.22c1.18,0.16 6.36,6.59 13.98,1.19 0.7,-0.5 0.89,-0.89 1.66,-1.19 -0.8,-0.53 -1.75,-0.64 -2.78,-0.67l-0.15 0.1c-0.56,0.92 -2.98,1.73 -4.89,1.73 -1.06,0 -2.07,-0.17 -3,-0.53 -1.1,-0.41 -1.64,-0.68 -2,-1.54 -1.04,0.36 -2.05,0.38 -2.82,0.91z"/>
   <path class="fil7" d="M13.85 60.4l0.25 0.25c1.29,1.17 4.07,2.62 5.62,3.14 -0.45,-1.46 0.62,-5.38 1.03,-7.08 -1.65,0.39 -6.16,2.71 -6.9,3.69z"/>
   <path class="fil7" d="M46.93 63.79c1.64,-0.55 4.41,-2 5.75,-3.27 0.02,-0.02 0.08,-0.07 0.12,-0.12 -0.74,-0.98 -5.25,-3.3 -6.9,-3.69 0.42,1.7 1.49,5.62 1.03,7.08z"/>
   <path class="fil8" d="M23.61 29.72l-0.07 0.7 -1.11 -0.02 0.09 -0.85c0.85,-0.27 0.42,-0.38 1.09,0.17zm-0.39 -0.86c-2.83,1.24 -1.13,5.37 1.56,4.26 2.4,-0.98 1.17,-5.47 -1.56,-4.26z"/>
   <path class="fil8" d="M42.57 29.55c0.02,0.07 0.38,0.38 -0.04,0.79 -0.72,0.69 -0.96,-0.08 -0.97,-0.09 -0.19,-1.12 0.12,-0.99 1.01,-0.7zm-0.29 -0.66c-2.9,1.59 -0.95,5.24 1.53,4.26 2.52,-1.01 1.01,-5.65 -1.53,-4.26z"/>
   <path class="fil2" d="M39.5 25.57c1.73,-0.4 2.23,-1.11 4.35,-0.66 0.93,0.2 3.69,1.24 2.09,-1.04 -1.34,-1.9 -6.74,-2.33 -6.44,1.7z"/>
   <path class="fil2" d="M27.15 25.57c0.3,-4.02 -5.09,-3.6 -6.44,-1.7 -1.6,2.28 1.16,1.24 2.1,1.04 2.1,-0.45 2.62,0.26 4.34,0.66z"/>
   <path class="fil4" d="M33.33 40.4c1.89,0 3.18,-0.51 3.29,-2.3 -1.21,0.12 -1.57,0.9 -3.29,0.9 -1.73,0 -2.09,-0.78 -3.3,-0.9 0.11,1.79 1.41,2.3 3.3,2.3z"/>
   <path class="fil9" d="M38.62 42.95c-1.88,0.28 -3,1.02 -5.29,1.02 -2.3,0 -3.41,-0.74 -5.3,-1.02 1.22,2.44 9.28,2.49 10.59,0z"/>
   <path class="fil4" d="M30.4 51.69c0.37,0.33 -0.01,0.13 0.72,0.48 1.78,0.87 5.17,0.93 7.05,0.85l0.02 -1.66c-2.47,0.51 -5.18,0.49 -7.79,0.33z"/>
   <path class="fil10" d="M42.53 30.34c0.42,-0.41 0.06,-0.72 0.04,-0.79 -0.89,-0.29 -1.2,-0.42 -1.01,0.7 0.01,0.01 0.25,0.78 0.97,0.09z"/>
   <path class="fil10" d="M22.52 29.55l-0.09 0.85 1.11 0.02 0.07 -0.7c-0.67,-0.55 -0.24,-0.44 -1.09,-0.17z"/>
  </g>
 </g>
</svg>
