<?xml version="1.0" encoding="UTF-8"?>
<!DOCTYPE svg PUBLIC "-//W3C//DTD SVG 1.1//EN" "http://www.w3.org/Graphics/SVG/1.1/DTD/svg11.dtd">
<!-- Creator: CorelDRAW 2017 -->
<svg xmlns="http://www.w3.org/2000/svg" xml:space="preserve" width="150px" height="150px" version="1.1" style="shape-rendering:geometricPrecision; text-rendering:geometricPrecision; image-rendering:optimizeQuality; fill-rule:evenodd; clip-rule:evenodd"
viewBox="0 0 66.53 66.53"
 xmlns:xlink="http://www.w3.org/1999/xlink">
 <defs>
  <style type="text/css">
   <![CDATA[
    .fil2 {fill:#C2B03E}
    .fil1 {fill:#DCCB4A}
    .fil0 {fill:white}
   ]]>
  </style>
 </defs>
 <g id="PowerClip_x0020_Contents">
  <metadata id="CorelCorpID_0Corel-Layer"/>
  <g id="_2435153281216">
   <path class="fil0" d="M33.27 9.62c2.62,0.18 1.83,1.34 3.2,2.25 0.34,0.23 2.42,0.92 1.64,3.62 -0.34,1.19 -0.93,1.43 -1.99,1.8l0 5.9 5.46 0c0.16,-0.04 2.58,-3.44 4.97,-1.13 1.32,1.28 -0.49,-0.01 1.91,1.73 1.31,0.95 1.99,3.28 -0.35,4.83 -1.56,1.03 -0.44,1.3 -1.71,2.18 -2.95,2.03 -4.68,-1.72 -4.82,-1.88l-5.39 0 -0.07 20.03c1.03,0.32 1.59,0.59 1.95,1.61 1.02,2.96 -1.22,2.9 -2.32,4.93 -0.52,0.96 -1.01,1.32 -2.46,1.42 -2.55,-0.06 -2.39,-1.33 -2.89,-2.07 -0.69,-1.03 -4.74,-2.42 -0.14,-6.12 0.31,-0.25 0.14,-17.84 0.14,-19.75l-5.45 0c-0.67,0.83 -0.5,1.4 -1.52,2 -2.85,1.69 -4.27,-1.58 -4.47,-1.84 -0.03,-0.04 -0.08,-0.1 -0.12,-0.14 -0.67,-0.75 -4.3,-2.75 -0.02,-5.73 0.83,-0.58 0.41,-0.48 1,-1.1 2.41,-2.55 5.09,0.97 5.13,0.98l5.59 0 -0.13 -5.78c-1.93,-0.67 -3.05,-2.8 -1.56,-4.63 0.92,-1.14 0.89,-0.19 1.89,-1.75 0.65,-1.03 0.9,-1.32 2.53,-1.36zm-2.13 -9.62l4.44 0c4.27,0.28 8.48,1.36 12.33,3.29 3.66,1.84 6.2,3.65 8.94,6.39 5.72,5.72 9.1,13.39 9.68,21.3l0 4.93c-0.3,4.11 -1.38,8.19 -3.29,12 -5.4,10.77 -16.08,17.66 -27.48,18.62l-5.47 0c-3.95,-0.33 -7.9,-1.4 -11.66,-3.29 -7.08,-3.54 -11.88,-8.46 -15.42,-15.51 -3.08,-6.1 -3.21,-10.1 -3.21,-16.8 0,-4.13 1.85,-9.44 3.29,-12.3 2.59,-5.16 5.9,-9.16 10.59,-12.54 5.02,-3.63 11.09,-5.69 17.26,-6.09z"/>
   <path class="fil1" d="M33.29 56.91l-0.02 -47.29c-1.63,0.04 -1.88,0.33 -2.53,1.36 -1,1.56 -0.97,0.61 -1.89,1.75 -1.49,1.83 -0.37,3.96 1.56,4.63l0.13 5.78 -5.59 0c-0.04,-0.01 -2.72,-3.53 -5.13,-0.98 -0.59,0.62 -0.17,0.52 -1,1.1 -4.28,2.98 -0.65,4.98 0.02,5.73 0.04,0.04 0.09,0.1 0.12,0.14 0.2,0.26 1.62,3.53 4.47,1.84 1.02,-0.6 0.85,-1.17 1.52,-2l5.45 0c0,1.91 0.17,19.5 -0.14,19.75 -4.6,3.7 -0.55,5.09 0.14,6.12 0.5,0.74 0.34,2.01 2.89,2.07z"/>
   <path class="fil2" d="M33.29 56.91c1.45,-0.1 1.94,-0.46 2.46,-1.42 1.1,-2.03 3.34,-1.97 2.32,-4.93 -0.36,-1.02 -0.92,-1.29 -1.95,-1.61l0.07 -20.03 5.39 0c0.14,0.16 1.87,3.91 4.82,1.88 1.27,-0.88 0.15,-1.15 1.71,-2.18 2.34,-1.55 1.66,-3.88 0.35,-4.83 -2.4,-1.74 -0.59,-0.45 -1.91,-1.73 -2.39,-2.31 -4.81,1.09 -4.97,1.13l-5.46 0 0 -5.9c1.06,-0.37 1.65,-0.61 1.99,-1.8 0.78,-2.7 -1.3,-3.39 -1.64,-3.62 -1.37,-0.91 -0.58,-2.07 -3.2,-2.25l0.02 47.29z"/>
  </g>
 </g>
</svg>
