<?xml version="1.0" encoding="UTF-8"?>
<!DOCTYPE svg PUBLIC "-//W3C//DTD SVG 1.1//EN" "http://www.w3.org/Graphics/SVG/1.1/DTD/svg11.dtd">
<!-- Creator: CorelDRAW 2017 -->
<svg xmlns="http://www.w3.org/2000/svg" xml:space="preserve" width="150px" height="150px" version="1.1" style="shape-rendering:geometricPrecision; text-rendering:geometricPrecision; image-rendering:optimizeQuality; fill-rule:evenodd; clip-rule:evenodd"
viewBox="0 0 66.53 66.53"
 xmlns:xlink="http://www.w3.org/1999/xlink">
 <defs>
  <style type="text/css">
   <![CDATA[
    .fil11 {fill:#9F8A7A}
    .fil1 {fill:#A38D7C}
    .fil8 {fill:#A99483}
    .fil3 {fill:#D29355}
    .fil12 {fill:#D2B99D}
    .fil5 {fill:#D49656}
    .fil10 {fill:#D5BC9F}
    .fil9 {fill:#D7BD9F}
    .fil6 {fill:#D8BFA1}
    .fil7 {fill:#DBC1A2}
    .fil4 {fill:#FABE72}
    .fil2 {fill:#FDC173}
    .fil0 {fill:#FEFEFE}
   ]]>
  </style>
 </defs>
 <g id="PowerClip_x0020_Contents">
  <metadata id="CorelCorpID_0Corel-Layer"/>
  <g id="_2435056467088">
   <path class="fil0" d="M28.6 14.9c-0.02,-2.15 -0.02,-2.66 1.16,-3.85 1.15,-1.17 1.21,-1.58 3.5,-1.59 2.49,-0.01 2.49,0.34 3.51,1.59 1.11,1.34 1.35,1.3 1.21,3.74l1.03 0.48c0.02,1.42 -0.3,1.98 -0.23,3.71 0.11,2.33 -0.4,1.54 -1.17,2.82 1.59,0.31 4.86,1.26 6.27,1.89 1.29,0.56 1.25,1.05 1.44,2.68 0.15,1.19 0.3,2.54 0.39,3.63 -0.14,3.68 1.31,7.53 0.53,11.05 3.43,0.59 4.6,1.15 5.76,4.11 -0.04,1.75 -0.87,2.43 -2.03,3.07 1.04,-0.01 1.69,-0.13 2.71,0.24l0.05 1.57 -0.04 1.42c-0.25,0.68 0.28,0.23 -0.66,0.68l-0.11 1.69c0,1 0.16,2.27 -0.21,3.09 -0.88,0.27 -35.54,0.32 -36.57,0.04 -0.31,-0.37 -0.13,0 -0.32,-0.6 -0.24,-0.79 -0.08,-1.61 0.08,-2.36 -0.48,-0.76 -0.05,-0.19 -0.24,-0.99 -0.39,-1.63 -0.58,-0.35 -0.73,-2.8l0.12 -1.92 2.3 -0.06c-1.88,-0.57 -2.63,-0.9 -2.45,-3.23 0.77,-1.99 1.4,-2.33 3.82,-2.71l1.63 -0.13 0.78 -0.37c1.03,-0.41 0.77,-0.28 1.07,-1.65 0.26,-1.14 0.46,-1 0.25,-2.05 -0.45,-2.21 -0.09,-2.15 -0.11,-4.19 0.1,-1.22 0.9,-7.64 1.31,-8.65 0.63,-1.56 4.96,-2.66 6.43,-3.52 -0.9,-1.3 -1.31,-0.46 -1.21,-2.74 0.06,-1.62 -0.27,-2.39 -0.24,-3.59l0.97 -0.5zm2.54 -14.9l4.44 0c4.27,0.28 8.48,1.36 12.33,3.29 3.66,1.84 6.2,3.65 8.94,6.39 5.72,5.72 9.1,13.39 9.68,21.3l0 4.93c-0.3,4.11 -1.38,8.19 -3.29,12 -5.4,10.77 -16.08,17.66 -27.48,18.62l-5.47 0c-3.95,-0.33 -7.9,-1.4 -11.66,-3.29 -7.08,-3.54 -11.88,-8.46 -15.42,-15.51 -3.08,-6.1 -3.21,-10.1 -3.21,-16.8 0,-4.13 1.85,-9.44 3.29,-12.3 2.59,-5.16 5.9,-9.16 10.59,-12.54 5.02,-3.63 11.09,-5.69 17.26,-6.09z"/>
   <path class="fil1" d="M28.47 43.54c1.08,0.27 3.23,4.28 7.44,1.73 0.53,-0.32 0.62,-0.32 1.03,-0.78l0.91 -1.06c0.05,-0.04 0.12,-0.11 0.19,-0.15 -0.57,2.56 -1.9,3.35 -4.78,3.26 -2.39,-0.07 -4.78,-0.5 -4.79,-3zm11.43 -1.22c2.13,-0.6 5.2,-1.56 4.8,1.83 -0.15,1.26 -1.08,2.01 -2.54,1.52 -1.27,-0.42 -0.6,0.16 -0.44,-1.3 0.1,-0.95 0.32,-0.56 -0.14,-1.49 -2.26,-1 -0.47,2.56 -2.87,3.11 0.23,-0.75 0.54,-1.05 0.78,-1.84 0.24,-0.77 0.19,-1.24 0.41,-1.83zm-11.52 -8c0.55,1.22 0.92,2.48 1.75,3.12 2.18,1.71 5.71,1.37 7.25,-0.58 0.7,-0.88 0.97,-1.82 1.41,-2.81l0.21 -0.4c-0.27,6.17 -2.5,5.58 -3.65,5.96 -0.44,-0.23 -0.16,-0.13 -0.47,-0.37 -2.11,-1.64 -2.69,0.32 -4.56,-0.93 -1.04,-0.69 -2.11,-2.01 -1.94,-3.99zm1.61 -1.02c0.42,1.84 1.88,3.26 4.29,2.8 2.02,-0.39 2.79,-2.12 3.05,-4.04 0.18,5.2 -4.25,5.83 -6.29,3.95 -0.53,-0.48 -0.53,-0.45 -0.81,-1.29 -0.17,-0.51 -0.22,-0.86 -0.24,-1.42zm1.28 -1.8c1.26,-1.45 2.94,-0.94 4.52,-0.31l-0.18 1.36c-1.4,0.59 -2.32,0.65 -4.03,0.25l-0.31 -1.3zm2.56 -5.57c-1.34,-0.59 -1.27,0.38 -1.3,1.62 -0.02,1.37 -0.01,1.7 -1.36,1.99l-0.44 -7.88c2.09,1.47 2.98,1.13 5.19,0.07l-0.07 7.75c-0.78,-0.16 -1.21,-0.43 -1.7,-0.73 -0.03,-1.16 0.17,-2 -0.32,-2.82zm-4.75 -4.2l0.44 9.87c-0.1,-1.16 -0.44,-6.24 -0.93,-6.88 -2.51,-0.1 -0.57,6.31 -0.26,9.43 -0.78,-0.52 -0.41,-0.61 -1.42,-0.23 -0.58,1.42 0.17,2.06 0.25,3.33 -0.56,-1.02 -0.65,-0.04 -0.62,-2.15 0.02,-1.02 0.03,-2.08 -0.19,-2.95l-1.31 -0.01 -0.19 2.72c-0.31,-1.47 0,-3.23 -0.71,-4.1l-0.73 -0.02c-0.8,1.08 -0.22,2.9 -0.24,4.59 -1.3,-0.82 -1.09,-2.11 -1.83,-1.43 0.02,2.04 -0.34,1.98 0.11,4.19 0.21,1.05 0.01,0.91 -0.25,2.05 -0.3,1.37 -0.04,1.24 -1.07,1.65 0.42,1.02 1.62,1 3.23,0.96 2.07,-0.06 1.48,-0.1 3.34,0.49 0.19,0.86 0.68,2.48 0.74,3l-3.95 -0.19 -0.76 -2.73 -1.14 0.13c-0.36,0.98 -0.08,1.4 0.06,2.57 -2.76,-0.19 -2.8,0.08 -2.93,-1.03 -0.14,-1.21 0.9,-1.98 0.63,-2.83l-1.63 0.13c-0.19,0.61 -0.38,1.11 -0.48,1.72 -0.05,0.32 -0.07,0.67 -0.11,0.94l-0.25 0.88c-0.98,0.27 -2.36,-0.51 -2.98,-0.83 -0.18,2.33 0.57,2.66 2.45,3.23l33.62 0c1.16,-0.64 1.99,-1.32 2.03,-3.07 -1.85,0.46 -1.33,0.87 -3.39,0.31l-0.14 -2.69c-2.9,-0.45 -0.27,2.37 -2.34,2.64 0.25,-2.44 0.37,-2.01 -0.49,-4.2l0.6 -0.17c0.78,-3.52 -0.67,-7.37 -0.53,-11.05l-0.91 4.84c-0.05,-1.21 0.2,-2.82 -0.05,-3.61l-0.23 -0.4c-0.01,-0.12 -0.08,-0.14 -0.13,-0.19 -1.78,-0.73 -0.87,3.02 -1.58,4.66 -0.45,-1.67 0.18,-4.08 -0.33,-5.76l-1.21 0.08c-0.77,3.1 0.94,6.57 -1.22,7.55 0.12,-0.7 1.46,-6.75 -0.96,-4.22 -0.13,-2.41 0.9,-10.2 -1.02,-8.76l-0.46 -2.39c0.77,-1.28 1.28,-0.49 1.17,-2.82 -0.07,-1.73 0.25,-2.29 0.23,-3.71l-1.03 -0.48c-0.37,0.59 -0.24,0.38 -0.38,0.9l-0.24 1.01c-0.03,0.07 -0.07,0.17 -0.09,0.23 -0.03,0.06 -0.09,0.28 -0.11,0.24 -0.02,-0.04 -0.07,0.16 -0.11,0.24 -0.4,2.13 -1.89,3.84 -4.65,3.19 -1.02,-0.24 -2.02,-0.99 -2.42,-1.75 -0.53,-1.01 -0.38,-2.06 -0.74,-3.21l-0.64 -0.74 -0.97 0.5c-0.03,1.2 0.3,1.97 0.24,3.59 -0.1,2.28 0.31,1.44 1.21,2.74z"/>
   <path class="fil2" d="M29.17 55.57c-0.25,-1.99 2.41,-1.88 2.18,-0.05 -0.79,0.42 -1.35,0.39 -2.18,0.05zm5.14 -1.34c1.31,0 1.8,0.16 1.59,1.48l-3 0.02c-0.19,-1.23 -0.02,-1.5 1.41,-1.5zm17.61 -0.4c-1.72,0.45 -15.99,0.32 -18.65,0.21 -5.99,-0.23 -12.32,0.01 -18.37,-0.04 -0.16,0.75 -0.32,1.57 -0.08,2.36 0.19,0.6 0.01,0.23 0.32,0.6 1.03,0.28 35.69,0.23 36.57,-0.04 0.37,-0.82 0.21,-2.09 0.21,-3.09z"/>
   <path class="fil3" d="M13.93 50.21c6.44,0 12.89,0 19.34,0 3.7,0 16.82,0.48 19.46,-0.17l-0.05 -1.57c-1.02,-0.37 -1.67,-0.25 -2.71,-0.24l-33.62 0 -2.3 0.06 -0.12 1.92z"/>
   <path class="fil4" d="M14.9 54l0.1 -1.88 37.03 0.02c0.94,-0.45 0.41,0 0.66,-0.68l0.04 -1.42c-2.64,0.65 -15.76,0.17 -19.46,0.17 -6.45,0 -12.9,0 -19.34,0 0.15,2.45 0.34,1.17 0.73,2.8 0.19,0.8 -0.24,0.23 0.24,0.99z"/>
   <path class="fil5" d="M14.9 54c6.05,0.05 12.38,-0.19 18.37,0.04 2.66,0.11 16.93,0.24 18.65,-0.21l0.11 -1.69 -37.03 -0.02 -0.1 1.88z"/>
   <path class="fil6" d="M41.34 28.53c-0.32,-0.73 -0.64,-3.55 0.87,-2.68 0.47,0.28 0.49,1.08 0.44,1.71 -0.09,1.1 -0.23,1.09 -1.31,0.97zm4.37 1.47c-0.09,-1.09 -0.24,-2.44 -0.39,-3.63 -0.19,-1.63 -0.15,-2.12 -1.44,-2.68 -1.41,-0.63 -4.68,-1.58 -6.27,-1.89l0.46 2.39c1.92,-1.44 0.89,6.35 1.02,8.76 2.42,-2.53 1.08,3.52 0.96,4.22 2.16,-0.98 0.45,-4.45 1.22,-7.55l1.21 -0.08c0.51,1.68 -0.12,4.09 0.33,5.76 0.71,-1.64 -0.2,-5.39 1.58,-4.66 0.05,0.05 0.12,0.07 0.13,0.19l0.23 0.4c0.25,0.79 0,2.4 0.05,3.61l0.91 -4.84z"/>
   <path class="fil6" d="M24.96 27.55c0,-1.54 1.54,-2 1.54,0.26l0 1.82c0,2.26 -1.54,1.79 -1.54,0.26l0 -2.34zm-3.62 6.35c0.74,-0.68 0.53,0.61 1.83,1.43 0.02,-1.69 -0.56,-3.51 0.24,-4.59l0.73 0.02c0.71,0.87 0.4,2.63 0.71,4.1l0.19 -2.72 1.31 0.01c0.22,0.87 0.21,1.93 0.19,2.95 -0.03,2.11 0.06,1.13 0.62,2.15 -0.08,-1.27 -0.83,-1.91 -0.25,-3.33 1.01,-0.38 0.64,-0.29 1.42,0.23 -0.31,-3.12 -2.25,-9.53 0.26,-9.43 0.49,0.64 0.83,5.72 0.93,6.88l-0.44 -9.87c-1.47,0.86 -5.8,1.96 -6.43,3.52 -0.41,1.01 -1.21,7.43 -1.31,8.65z"/>
   <path class="fil7" d="M28.6 14.9l0.64 0.74c-0.38,-2.15 0.01,-0.9 0.4,-1.34 1.56,-1.64 1.81,-0.98 4.41,-1.04 3.74,-0.09 2.24,1.2 3.55,2.43 0.14,-0.52 0.01,-0.31 0.38,-0.9 0.14,-2.44 -0.1,-2.4 -1.21,-3.74 -1.02,-1.25 -1.02,-1.6 -3.51,-1.59 -2.29,0.01 -2.35,0.42 -3.5,1.59 -1.18,1.19 -1.18,1.7 -1.16,3.85z"/>
   <path class="fil6" d="M33.87 17.73c-0.09,0.06 0.2,0.34 -0.6,0.31 -0.85,-0.02 -0.47,-0.22 -0.61,-0.31 -0.82,-2.34 2.03,-2.34 1.21,0zm-4.63 -2.09c0.36,1.15 0.21,2.2 0.74,3.21 0.4,0.76 1.4,1.51 2.42,1.75 2.76,0.65 4.25,-1.06 4.65,-3.19 0.05,-1.52 0.01,-1.46 -0.61,-2.36 -0.82,0.24 -0.35,0.25 -0.99,1.04 -2.44,-0.05 -1.17,-0.74 -2.18,-1.25 -1.09,0.59 0.15,1.21 -2.24,1.27l-0.41 -1.15c-0.25,0.14 -0.61,0.37 -0.66,0.39 -0.7,0.24 0.25,0.32 -0.41,-0.02l0.09 -1.03c-0.39,0.44 -0.78,-0.81 -0.4,1.34z"/>
   <path class="fil7" d="M31.17 29.54c1.35,-0.29 1.34,-0.62 1.36,-1.99 0.03,-1.24 -0.04,-2.21 1.3,-1.62 0.49,0.82 0.29,1.66 0.32,2.82 0.49,0.3 0.92,0.57 1.7,0.73l0.07 -7.75c-2.21,1.06 -3.1,1.4 -5.19,-0.07l0.44 7.88z"/>
   <path class="fil6" d="M20.13 41.79l-0.78 0.37c0.27,0.85 -0.77,1.62 -0.63,2.83 0.13,1.11 0.17,0.84 2.93,1.03 -0.14,-1.17 -0.42,-1.59 -0.06,-2.57l1.14 -0.13 0.76 2.73 3.95 0.19c-0.06,-0.52 -0.55,-2.14 -0.74,-3 -1.86,-0.59 -1.27,-0.55 -3.34,-0.49 -1.61,0.04 -2.81,0.06 -3.23,-0.96z"/>
   <path class="fil8" d="M29.64 14.3l-0.09 1.03c0.66,0.34 -0.29,0.26 0.41,0.02 0.05,-0.02 0.41,-0.25 0.66,-0.39l0.41 1.15c2.39,-0.06 1.15,-0.68 2.24,-1.27 1.01,0.51 -0.26,1.2 2.18,1.25 0.64,-0.79 0.17,-0.8 0.99,-1.04 0.62,0.9 0.66,0.84 0.61,2.36 0.04,-0.08 0.09,-0.28 0.11,-0.24 0.02,0.04 0.08,-0.18 0.11,-0.24 0.02,-0.06 0.06,-0.16 0.09,-0.23l0.24 -1.01c-1.31,-1.23 0.19,-2.52 -3.55,-2.43 -2.6,0.06 -2.85,-0.6 -4.41,1.04z"/>
   <path class="fil7" d="M52 45.16c-1.16,-2.96 -2.33,-3.52 -5.76,-4.11l-0.6 0.17c0.86,2.19 0.74,1.76 0.49,4.2 2.07,-0.27 -0.56,-3.09 2.34,-2.64l0.14 2.69c2.06,0.56 1.54,0.15 3.39,-0.31z"/>
   <path class="fil6" d="M39.9 42.32c-0.22,0.59 -0.17,1.06 -0.41,1.83 -0.24,0.79 -0.55,1.09 -0.78,1.84 2.4,-0.55 0.61,-4.11 2.87,-3.11 0.46,0.93 0.24,0.54 0.14,1.49 -0.16,1.46 -0.83,0.88 0.44,1.3 1.46,0.49 2.39,-0.26 2.54,-1.52 0.4,-3.39 -2.67,-2.43 -4.8,-1.83z"/>
   <path class="fil9" d="M28.38 34.32c-0.17,1.98 0.9,3.3 1.94,3.99 1.87,1.25 2.45,-0.71 4.56,0.93 0.31,0.24 0.03,0.14 0.47,0.37 1.15,-0.38 3.38,0.21 3.65,-5.96l-0.21 0.4c-0.44,0.99 -0.71,1.93 -1.41,2.81 -1.54,1.95 -5.07,2.29 -7.25,0.58 -0.83,-0.64 -1.2,-1.9 -1.75,-3.12z"/>
   <path class="fil6" d="M31.27 31.5l0.31 1.3c1.71,0.4 2.63,0.34 4.03,-0.25l0.18 -1.36c-1.58,-0.63 -3.26,-1.14 -4.52,0.31z"/>
   <path class="fil7" d="M13.9 45c0.62,0.32 2,1.1 2.98,0.83l0.25 -0.88c0.04,-0.27 0.06,-0.62 0.11,-0.94 0.1,-0.61 0.29,-1.11 0.48,-1.72 -2.42,0.38 -3.05,0.72 -3.82,2.71z"/>
   <path class="fil10" d="M28.47 43.54c0.01,2.5 2.4,2.93 4.79,3 2.88,0.09 4.21,-0.7 4.78,-3.26 -0.07,0.04 -0.14,0.11 -0.19,0.15l-0.91 1.06c-0.41,0.46 -0.5,0.46 -1.03,0.78 -4.21,2.55 -6.36,-1.46 -7.44,-1.73z"/>
   <path class="fil11" d="M24.96 27.55l0 2.34c0,1.53 1.54,2 1.54,-0.26l0 -1.82c0,-2.26 -1.54,-1.8 -1.54,-0.26z"/>
   <path class="fil12" d="M29.99 33.3c0.02,0.56 0.07,0.91 0.24,1.42 0.28,0.84 0.28,0.81 0.81,1.29 2.04,1.88 6.47,1.25 6.29,-3.95 -0.26,1.92 -1.03,3.65 -3.05,4.04 -2.41,0.46 -3.87,-0.96 -4.29,-2.8z"/>
   <path class="fil5" d="M32.9 55.73l3 -0.02c0.21,-1.32 -0.28,-1.48 -1.59,-1.48 -1.43,0 -1.6,0.27 -1.41,1.5z"/>
   <path class="fil11" d="M41.34 28.53c1.08,0.12 1.22,0.13 1.31,-0.97 0.05,-0.63 0.03,-1.43 -0.44,-1.71 -1.51,-0.87 -1.19,1.95 -0.87,2.68z"/>
   <path class="fil3" d="M29.17 55.57c0.83,0.34 1.39,0.37 2.18,-0.05 0.23,-1.83 -2.43,-1.94 -2.18,0.05z"/>
   <path class="fil11" d="M32.66 17.73c0.14,0.09 -0.24,0.29 0.61,0.31 0.8,0.03 0.51,-0.25 0.6,-0.31 0.82,-2.34 -2.03,-2.34 -1.21,0z"/>
  </g>
 </g>
</svg>
