<?xml version="1.0" encoding="UTF-8"?>
<!DOCTYPE svg PUBLIC "-//W3C//DTD SVG 1.1//EN" "http://www.w3.org/Graphics/SVG/1.1/DTD/svg11.dtd">
<!-- Creator: CorelDRAW 2017 -->
<svg xmlns="http://www.w3.org/2000/svg" xml:space="preserve" width="150px" height="150px" version="1.1" style="shape-rendering:geometricPrecision; text-rendering:geometricPrecision; image-rendering:optimizeQuality; fill-rule:evenodd; clip-rule:evenodd"
viewBox="0 0 66.53 66.53"
 xmlns:xlink="http://www.w3.org/1999/xlink">
 <defs>
  <style type="text/css">
   <![CDATA[
    .fil1 {fill:#243C87}
    .fil0 {fill:white}
   ]]>
  </style>
 </defs>
 <g id="PowerClip_x0020_Contents">
  <metadata id="CorelCorpID_0Corel-Layer"/>
  <g id="_2435078432480">
   <path class="fil0" d="M28.74 35.47c3.41,0.68 7.23,-1.46 8.75,-3.18 1.96,-2.2 3.01,-5.3 4.84,-7.37 3.41,-3.88 11.05,-3.13 13.71,6.62 1.81,6.69 0.71,15.72 -3.56,19.12 -2.04,1.62 -6.31,3.24 -9.39,1.37 -1.9,-1.15 -4.27,-5.12 -3.45,-8.48 1.7,-0.38 1.01,2.23 4.3,2.73 6.44,0.96 10.51,-8.21 7.59,-13.6 -0.77,-1.41 -2.49,-3.36 -4.88,-2.43 -1.24,0.48 -2.66,2.92 -3.55,4.01 -1.64,2 -5.72,4.9 -9.34,5.75 1.74,9.64 0.32,17.37 -10.64,16.9 -10.54,-0.46 -14.08,-13.85 -13.16,-15.22 0.88,0.34 1.23,1.35 1.82,2.15 1.59,2.16 4.27,4.24 6.96,5.52 4.44,2.13 9.86,2.05 10.02,-3.89 0.07,-2.67 -1.45,-4.06 -3.32,-4.91 -2.96,-1.35 -4.07,0.04 -4.33,-3.91 -0.31,-4.69 -0.28,-3.39 3.21,-5.05 5.65,-2.68 4.27,-8.5 -2.13,-7.09 -1.64,0.37 -5.05,2.26 -6.19,1.87 -0.25,-0.08 -3.98,-2.7 -0.42,-4.82 1.63,-0.97 3.96,-2.01 6.08,-2.5 9.7,-2.23 15.44,8.54 8.85,14.05 -0.95,0.8 -1.97,0.94 -1.77,2.36zm2.4 -35.47l4.44 0c4.27,0.28 8.48,1.36 12.33,3.29 3.66,1.84 6.2,3.65 8.94,6.39 5.72,5.72 9.1,13.39 9.68,21.3l0 4.93c-0.3,4.11 -1.38,8.19 -3.29,12 -5.4,10.77 -16.08,17.66 -27.48,18.62l-5.47 0c-3.95,-0.33 -7.9,-1.4 -11.66,-3.29 -7.08,-3.54 -11.88,-8.46 -15.42,-15.51 -3.08,-6.1 -3.21,-10.1 -3.21,-16.8 0,-4.13 1.85,-9.44 3.29,-12.3 2.59,-5.16 5.9,-9.16 10.59,-12.54 5.02,-3.63 11.09,-5.69 17.26,-6.09zm19.79 18.3c-0.74,0.73 -3.02,2.1 -4.37,2.79 -8.91,4.56 -14.92,-2.82 -14.3,-4.37 0.65,-1.62 2.26,0.53 5.19,0.95 2.37,0.34 4.25,-0.23 6.07,-1.17 0.8,-0.41 1.59,-0.92 2.24,-1.41 0.54,-0.41 1.36,-1.41 2.22,-1.22 0.67,0.16 1.36,1.38 1.77,1.88 0.62,0.75 1.22,1.17 1.18,2.55zm-12.21 -1.69c-0.98,-0.26 -3.33,-2.33 -3.35,-3.38 -0.01,-0.88 0.83,-1.29 1.39,-1.94 0.53,-0.62 0.92,-1.09 1.4,-1.65 1.59,-0.03 1.63,0.41 2.36,1.3 0.49,0.6 1.27,1.28 1.53,2.05 0.07,0.85 -2.49,3.37 -3.33,3.62z"/>
   <path class="fil1" d="M28.74 35.47c-0.2,-1.42 0.82,-1.56 1.77,-2.36 6.59,-5.51 0.85,-16.28 -8.85,-14.05 -2.12,0.49 -4.45,1.53 -6.08,2.5 -3.56,2.12 0.17,4.74 0.42,4.82 1.14,0.39 4.55,-1.5 6.19,-1.87 6.4,-1.41 7.78,4.41 2.13,7.09 -3.49,1.66 -3.52,0.36 -3.21,5.05 0.26,3.95 1.37,2.56 4.33,3.91 1.87,0.85 3.39,2.24 3.32,4.91 -0.16,5.94 -5.58,6.02 -10.02,3.89 -2.69,-1.28 -5.37,-3.36 -6.96,-5.52 -0.59,-0.8 -0.94,-1.81 -1.82,-2.15 -0.92,1.37 2.62,14.76 13.16,15.22 10.96,0.47 12.38,-7.26 10.64,-16.9 3.62,-0.85 7.7,-3.75 9.34,-5.75 0.89,-1.09 2.31,-3.53 3.55,-4.01 2.39,-0.93 4.11,1.02 4.88,2.43 2.92,5.39 -1.15,14.56 -7.59,13.6 -3.29,-0.5 -2.6,-3.11 -4.3,-2.73 -0.82,3.36 1.55,7.33 3.45,8.48 3.08,1.87 7.35,0.25 9.39,-1.37 4.27,-3.4 5.37,-12.43 3.56,-19.12 -2.66,-9.75 -10.3,-10.5 -13.71,-6.62 -1.83,2.07 -2.88,5.17 -4.84,7.37 -1.52,1.72 -5.34,3.86 -8.75,3.18z"/>
   <path class="fil1" d="M50.93 18.3c0.04,-1.38 -0.56,-1.8 -1.18,-2.55 -0.41,-0.5 -1.1,-1.72 -1.77,-1.88 -0.86,-0.19 -1.68,0.81 -2.22,1.22 -0.65,0.49 -1.44,1 -2.24,1.41 -1.82,0.94 -3.7,1.51 -6.07,1.17 -2.93,-0.42 -4.54,-2.57 -5.19,-0.95 -0.62,1.55 5.39,8.93 14.3,4.37 1.35,-0.69 3.63,-2.06 4.37,-2.79z"/>
   <path class="fil1" d="M38.72 16.61c0.84,-0.25 3.4,-2.77 3.33,-3.62 -0.26,-0.77 -1.04,-1.45 -1.53,-2.05 -0.73,-0.89 -0.77,-1.33 -2.36,-1.3 -0.48,0.56 -0.87,1.03 -1.4,1.65 -0.56,0.65 -1.4,1.06 -1.39,1.94 0.02,1.05 2.37,3.12 3.35,3.38z"/>
  </g>
 </g>
</svg>
