<?xml version="1.0" encoding="UTF-8"?>
<!DOCTYPE svg PUBLIC "-//W3C//DTD SVG 1.1//EN" "http://www.w3.org/Graphics/SVG/1.1/DTD/svg11.dtd">
<!-- Creator: CorelDRAW 2017 -->
<svg xmlns="http://www.w3.org/2000/svg" xml:space="preserve" width="150px" height="150px" version="1.1" style="shape-rendering:geometricPrecision; text-rendering:geometricPrecision; image-rendering:optimizeQuality; fill-rule:evenodd; clip-rule:evenodd"
viewBox="0 0 66.53 66.53"
 xmlns:xlink="http://www.w3.org/1999/xlink">
 <defs>
  <style type="text/css">
   <![CDATA[
    .fil7 {fill:#75501F}
    .fil2 {fill:#9F6D4B}
    .fil9 {fill:#E4DCD4}
    .fil3 {fill:#F2E238}
    .fil1 {fill:#F2EFEA}
    .fil5 {fill:#F3F0EA}
    .fil4 {fill:#F8CB0C}
    .fil10 {fill:#F9AA1A}
    .fil8 {fill:#F9CC0F}
    .fil6 {fill:#FDF4BC}
    .fil0 {fill:#FEFEFE}
   ]]>
  </style>
 </defs>
 <g id="PowerClip_x0020_Contents">
  <metadata id="CorelCorpID_0Corel-Layer"/>
  <g id="_2435078463456">
   <path class="fil0" d="M45.6 33.9c1.05,-0.38 2.74,0.23 2.73,1.7 -1.28,0.98 -3.12,-0.41 -2.73,-1.7zm-14.46 -33.9l4.44 0c4.27,0.28 8.48,1.36 12.33,3.29 3.66,1.84 6.2,3.65 8.94,6.39 5.72,5.72 9.1,13.39 9.68,21.3l0 4.93c-0.3,4.11 -1.38,8.19 -3.29,12 -5.4,10.77 -16.08,17.66 -27.48,18.62l-5.47 0c-3.95,-0.33 -7.9,-1.4 -11.67,-3.29 -7.07,-3.54 -11.87,-8.46 -15.42,-15.51 -3.07,-6.1 -3.2,-10.1 -3.2,-16.8 0,-4.13 1.85,-9.44 3.29,-12.3 2.59,-5.16 5.9,-9.16 10.59,-12.54 5.02,-3.63 11.09,-5.69 17.26,-6.09zm-12.94 35.6c0,-0.95 0.28,-1.1 0.89,-1.44 0.69,-0.38 1.02,-0.56 1.84,-0.26 0.33,1.35 -1.47,2.66 -2.73,1.7zm24.86 -1.74c-0.2,0.44 -0.25,0.57 -0.48,0.98l0.23 0.29c1.51,0.75 3.04,1.85 4.56,2.74 0.78,0.47 1.51,0.95 2.25,1.39 1.19,0.71 1.58,0.58 1.3,2.11 0.84,0.34 1.56,0.85 2.34,1.43 0.61,4.06 -2.67,1.91 -3.97,1.39 -0.77,0.1 -0.47,0.47 -1.26,0.58 -0.65,0.09 -3.97,-1.87 -4.31,-2.21l-1.32 -0.53c-0.17,3.1 2.33,13.67 1.44,14.54 -0.77,0.76 -14.38,0.31 -16.03,0.31 -0.87,0 -1.74,0 -2.6,0.01 -3.33,0.03 -2.99,-0.04 -2.46,-3.77 0.34,-2.45 1.47,-9.51 1.39,-11.09l-1.33 0.53 -4.15 2.22c-0.67,0.01 0,0.09 -0.61,-0.2l-0.81 -0.39c-1.32,0.53 -4.57,2.67 -3.97,-1.41l2.34 -1.41c-0.26,-1.45 -0.01,-1.33 1.13,-2.01 0.78,-0.47 1.53,-0.96 2.26,-1.39 1.32,-0.78 3.51,-2.01 4.66,-2.93l0.2 -0.28 -0.48 -0.97c-1.36,-0.14 -4.44,-7.56 -1.41,-13.38 6.58,-12.67 25.65,-6.43 23.87,7.29 -0.24,1.9 -1.38,5.64 -2.78,6.16zm7.44 -6.23c-1.36,0.21 -1.6,0.36 -2.94,-0.05l-0.06 -1.07c0.65,-0.41 3.37,-1.19 3,1.12zm-33.09 -1.51c1.17,0 0.85,-0.1 1.55,0.39l0.06 1.07c-1.3,0.36 -1.68,0.22 -2.99,0.08 -0.19,-1.22 -0.05,-1.54 1.38,-1.54zm30.75 -8.01c0.42,0.96 0.31,1.06 -0.64,1.61 -0.46,0.27 -1.32,0.81 -1.83,0.33 -1.04,-0.99 1.34,-2.43 2.47,-1.94zm-27.32 1.94c-0.51,0.48 -1.37,-0.06 -1.83,-0.33 -0.95,-0.55 -1.06,-0.65 -0.64,-1.61 1.13,-0.49 3.51,0.95 2.47,1.94zm21.35 -8.15c0.3,1.2 -0.77,3.31 -1.78,2.79 -0.85,-0.44 -0.27,-2.88 1.78,-2.79zm-16.15 0.79c2.03,3.31 -2.52,2.07 -1.7,-0.52 0.29,-0.18 0.16,-0.52 1.03,-0.2 0.3,0.11 0.52,0.48 0.67,0.72zm6.38 -1.51c0,-2.17 1.69,-2.21 1.69,0 0,2.3 -1.69,2.3 -1.69,0z"/>
   <path class="fil1" d="M32.4 39.45c0,-1.22 -0.16,-1.36 0.4,-2.24l0.94 0.03c0.54,0.85 0.39,1 0.39,2.22l2.25 0.32 0.04 1.25c-2.95,0.35 -3.42,0.37 -6.33,-0.1l0.1 -1.23 2.21 -0.25zm-8.26 2.58c0.08,1.58 -1.05,8.64 -1.39,11.09 -0.53,3.73 -0.87,3.8 2.46,3.77 0.86,-0.01 1.73,-0.01 2.6,-0.01 1.65,0 15.26,0.45 16.03,-0.31 0.89,-0.87 -1.61,-11.44 -1.44,-14.54l-0.64 -3.94c-0.19,-1.35 -0.4,-2.67 -0.58,-4.01l-4.02 -0.04 -7.79 0 -4.01 0.04 -1.22 7.95z"/>
   <path class="fil2" d="M25.36 34.08l4.01 -0.04c0,-0.95 -0.15,-2.19 0.22,-2.77 -0.35,-0.96 -0.25,-2.62 -0.2,-3.93 -0.09,-2.7 1.25,-1.92 3.88,-1.92 2.62,0 3.96,-0.78 3.87,1.92 0.05,1.31 0.15,2.97 -0.2,3.93 0.38,0.58 0.22,1.82 0.22,2.77l4.02 0.04c0.27,-1.74 0.27,-10.42 -0.15,-11.95 -1.1,-4.02 -4.26,-4.72 -7.76,-4.72 -4.11,0 -6.67,1.1 -7.71,4.51 -0.5,1.63 -0.5,10.29 -0.2,12.16z"/>
   <path class="fil3" d="M23.38 33.79l0.48 0.97 1.5 -0.68c-0.3,-1.87 -0.3,-10.53 0.2,-12.16 1.04,-3.41 3.6,-4.51 7.71,-4.51 3.5,0 6.66,0.7 7.76,4.72 0.42,1.53 0.42,10.21 0.15,11.95l1.4 0.76c0.23,-0.41 0.28,-0.54 0.48,-0.98 -4.02,0.99 3.87,-4.19 0.32,-12 -5.79,-12.76 -24.03,-5.56 -20.8,7.01 0.29,1.12 0.67,2.04 1.24,2.93 0.52,0.81 1.7,2.62 -0.44,1.99z"/>
   <path class="fil4" d="M23.38 33.79c2.14,0.63 0.96,-1.18 0.44,-1.99 -0.57,-0.89 -0.95,-1.81 -1.24,-2.93 -3.23,-12.57 15.01,-19.77 20.8,-7.01 3.55,7.81 -4.34,12.99 -0.32,12 1.4,-0.52 2.54,-4.26 2.78,-6.16 1.78,-13.72 -17.29,-19.96 -23.87,-7.29 -3.03,5.82 0.05,13.24 1.41,13.38z"/>
   <path class="fil5" d="M15.61 41.37c0.52,0.58 1.75,2.03 1.63,2.82l0.81 0.39c0.61,0.29 -0.06,0.21 0.61,0.2l4.15 -2.22 0.85 -7.52c-1.15,0.92 -3.34,2.15 -4.66,2.93 -0.73,0.43 -1.48,0.92 -2.26,1.39 -1.14,0.68 -1.39,0.56 -1.13,2.01z"/>
   <path class="fil5" d="M43.72 42.56c0.34,0.34 3.66,2.3 4.31,2.21 0.79,-0.11 0.49,-0.48 1.26,-0.58 -0.12,-0.79 1.11,-2.24 1.63,-2.82 0.28,-1.53 -0.11,-1.4 -1.3,-2.11 -0.74,-0.44 -1.47,-0.92 -2.25,-1.39 -1.52,-0.89 -3.05,-1.99 -4.56,-2.74 0.34,1.14 1.13,6.68 0.91,7.43z"/>
   <path class="fil6" d="M29.39 27.34c-0.05,1.31 -0.15,2.97 0.2,3.93 3.75,1.71 3.6,1.71 7.35,0 0.35,-0.96 0.25,-2.62 0.2,-3.93 -1.21,-0.66 -6.54,-0.68 -7.75,0z"/>
   <path class="fil7" d="M29.37 34.04l7.79 0c0,-0.95 0.16,-2.19 -0.22,-2.77 -3.75,1.71 -3.6,1.71 -7.35,0 -0.37,0.58 -0.22,1.82 -0.22,2.77z"/>
   <path class="fil7" d="M32.4 39.45l-2.21 0.25 -0.1 1.23c2.91,0.47 3.38,0.45 6.33,0.1l-0.04 -1.25 -2.25 -0.32c0,-1.22 0.15,-1.37 -0.39,-2.22l-0.94 -0.03c-0.56,0.88 -0.4,1.02 -0.4,2.24z"/>
   <path class="fil8" d="M29.39 27.34c1.21,-0.68 6.54,-0.66 7.75,0 0.09,-2.7 -1.25,-1.92 -3.87,-1.92 -2.63,0 -3.97,-0.78 -3.88,1.92z"/>
   <path class="fil9" d="M42.4 42.03l1.32 0.53c0.22,-0.75 -0.57,-6.29 -0.91,-7.43l-0.23 -0.29 -1.4 -0.76c0.18,1.34 0.39,2.66 0.58,4.01l0.64 3.94z"/>
   <polygon class="fil9" points="23.86,34.76 23.66,35.04 22.81,42.56 24.14,42.03 25.36,34.08 "/>
   <path class="fil6" d="M49.29 44.19c1.3,0.52 4.58,2.67 3.97,-1.39 -0.78,-0.58 -1.5,-1.09 -2.34,-1.43 -0.52,0.58 -1.75,2.03 -1.63,2.82z"/>
   <path class="fil6" d="M17.24 44.19c0.12,-0.79 -1.11,-2.24 -1.63,-2.82l-2.34 1.41c-0.6,4.08 2.65,1.94 3.97,1.41z"/>
   <path class="fil10" d="M24.34 12.17c-0.82,2.59 3.73,3.83 1.7,0.52 -0.15,-0.24 -0.37,-0.61 -0.67,-0.72 -0.87,-0.32 -0.74,0.02 -1.03,0.2z"/>
   <path class="fil10" d="M18.96 26.51c-0.7,-0.49 -0.38,-0.39 -1.55,-0.39 -1.43,0 -1.57,0.32 -1.38,1.54 1.31,0.14 1.69,0.28 2.99,-0.08l-0.06 -1.07z"/>
   <path class="fil10" d="M50.5 27.63c0.37,-2.31 -2.35,-1.53 -3,-1.12l0.06 1.07c1.34,0.41 1.58,0.26 2.94,0.05z"/>
   <path class="fil10" d="M48.16 18.11c-1.13,-0.49 -3.51,0.95 -2.47,1.94 0.51,0.48 1.37,-0.06 1.83,-0.33 0.95,-0.55 1.06,-0.65 0.64,-1.61z"/>
   <path class="fil10" d="M18.37 18.11c-0.42,0.96 -0.31,1.06 0.64,1.61 0.46,0.27 1.32,0.81 1.83,0.33 1.04,-0.99 -1.34,-2.43 -2.47,-1.94z"/>
   <path class="fil10" d="M32.42 11.18c0,2.3 1.69,2.3 1.69,0 0,-2.21 -1.69,-2.17 -1.69,0z"/>
   <path class="fil10" d="M42.19 11.9c-2.05,-0.09 -2.63,2.35 -1.78,2.79 1.01,0.52 2.08,-1.59 1.78,-2.79z"/>
   <path class="fil10" d="M18.2 35.6c1.26,0.96 3.06,-0.35 2.73,-1.7 -0.82,-0.3 -1.15,-0.12 -1.84,0.26 -0.61,0.34 -0.89,0.49 -0.89,1.44z"/>
   <path class="fil10" d="M48.33 35.6c0.01,-1.47 -1.68,-2.08 -2.73,-1.7 -0.39,1.29 1.45,2.68 2.73,1.7z"/>
  </g>
 </g>
</svg>
