<?xml version="1.0" encoding="UTF-8"?>
<!DOCTYPE svg PUBLIC "-//W3C//DTD SVG 1.1//EN" "http://www.w3.org/Graphics/SVG/1.1/DTD/svg11.dtd">
<!-- Creator: CorelDRAW 2017 -->
<svg xmlns="http://www.w3.org/2000/svg" xml:space="preserve" width="150px" height="150px" version="1.1" style="shape-rendering:geometricPrecision; text-rendering:geometricPrecision; image-rendering:optimizeQuality; fill-rule:evenodd; clip-rule:evenodd"
viewBox="0 0 66.53 66.53"
 xmlns:xlink="http://www.w3.org/1999/xlink">
 <defs>
  <style type="text/css">
   <![CDATA[
    .fil1 {fill:#20A286}
    .fil0 {fill:white}
   ]]>
  </style>
 </defs>
 <g id="PowerClip_x0020_Contents">
  <metadata id="CorelCorpID_0Corel-Layer"/>
  <g id="_2435078435136">
   <path class="fil0" d="M36.37 31.13c5.72,-1.55 4.55,1.39 7.31,-4.09 0.26,-0.49 0.43,-0.83 0.69,-1.36 0.05,-0.09 0.35,-0.66 0.37,-0.69 0.42,-0.62 0.14,-0.28 0.55,-0.66l3.02 5.92c1.81,0.51 5.05,0.17 6.49,1.22 -1.35,1.2 -3.28,3.42 -4.76,4.37l1 6.88c-0.21,-0.21 -5.33,-2.9 -5.85,-2.93 -0.83,-0.04 -4.82,2.42 -6.06,2.87 0.2,-1.35 0.42,-2.58 0.66,-3.92 0.7,-3.95 0.61,-2.16 -4.22,-7.29l0.8 -0.32zm-5.23 -31.13l4.44 0c4.27,0.28 8.48,1.36 12.33,3.29 3.66,1.84 6.2,3.65 8.94,6.39 5.72,5.72 9.1,13.39 9.68,21.3l0 4.93c-0.3,4.11 -1.38,8.19 -3.29,12 -5.4,10.77 -16.08,17.66 -27.48,18.62l-5.47 0c-3.95,-0.33 -7.9,-1.4 -11.67,-3.29 -7.07,-3.54 -11.87,-8.46 -15.42,-15.51 -3.07,-6.1 -3.2,-10.1 -3.2,-16.8 0,-4.13 1.85,-9.44 3.29,-12.3 2.59,-5.16 5.9,-9.16 10.59,-12.54 5.02,-3.63 11.09,-5.69 17.26,-6.09zm9.12 55.91c-2.82,1.59 -9.22,1.3 -12.47,0.52 -3.78,-0.91 -6.82,-2.6 -9.29,-4.5 -15.21,-11.68 -10.49,-37.29 9.49,-41.88 3.2,-0.74 9.49,-1 12.27,0.57 -5.37,2.27 -8.52,4.28 -11.42,8.09 -6.76,8.88 -6.79,20.22 0,29.11 2.97,3.88 5.97,5.78 11.42,8.09z"/>
   <path class="fil1" d="M40.26 55.91c-5.45,-2.31 -8.45,-4.21 -11.42,-8.09 -6.79,-8.89 -6.76,-20.23 0,-29.11 2.9,-3.81 6.05,-5.82 11.42,-8.09 -2.78,-1.57 -9.07,-1.31 -12.27,-0.57 -19.98,4.59 -24.7,30.2 -9.49,41.88 2.47,1.9 5.51,3.59 9.29,4.5 3.25,0.78 9.65,1.07 12.47,-0.52z"/>
   <path class="fil1" d="M35.57 31.45c4.83,5.13 4.92,3.34 4.22,7.29 -0.24,1.34 -0.46,2.57 -0.66,3.92 1.24,-0.45 5.23,-2.91 6.06,-2.87 0.52,0.03 5.64,2.72 5.85,2.93l-1 -6.88c1.48,-0.95 3.41,-3.17 4.76,-4.37 -1.44,-1.05 -4.68,-0.71 -6.49,-1.22l-3.02 -5.92c-0.41,0.38 -0.13,0.04 -0.55,0.66 -0.02,0.03 -0.32,0.6 -0.37,0.69 -0.26,0.53 -0.43,0.87 -0.69,1.36 -2.76,5.48 -1.59,2.54 -7.31,4.09l-0.8 0.32z"/>
  </g>
 </g>
</svg>
