<?xml version="1.0" encoding="UTF-8"?>
<!DOCTYPE svg PUBLIC "-//W3C//DTD SVG 1.1//EN" "http://www.w3.org/Graphics/SVG/1.1/DTD/svg11.dtd">
<!-- Creator: CorelDRAW 2017 -->
<svg xmlns="http://www.w3.org/2000/svg" xml:space="preserve" width="192px" height="128px" version="1.1" style="shape-rendering:geometricPrecision; text-rendering:geometricPrecision; image-rendering:optimizeQuality; fill-rule:evenodd; clip-rule:evenodd"
viewBox="0 0 341.37 227.55"
 xmlns:xlink="http://www.w3.org/1999/xlink">
 <defs>
  <style type="text/css">
   <![CDATA[
    .str0 {stroke:black;stroke-width:6.07;stroke-linecap:round;stroke-linejoin:round;stroke-miterlimit:22.9256}
    .str1 {stroke:white;stroke-width:6.07;stroke-linecap:round;stroke-linejoin:round;stroke-miterlimit:22.9256}
    .fil2 {fill:none;fill-rule:nonzero}
    .fil6 {fill:#007E85}
    .fil5 {fill:#008F96}
    .fil4 {fill:#009EA6}
    .fil0 {fill:#00B0B9}
    .fil13 {fill:#031E1F}
    .fil12 {fill:#04292B}
    .fil11 {fill:#093133}
    .fil10 {fill:#0B3D40}
    .fil7 {fill:#0D666B}
    .fil1 {fill:#0F6D72}
    .fil9 {fill:#104A4D}
    .fil8 {fill:#155659}
    .fil14 {fill:black;fill-rule:nonzero}
    .fil3 {fill:black;fill-rule:nonzero}
    .fil15 {fill:#00CCFF;fill-rule:nonzero}
   ]]>
  </style>
   <clipPath id="id0" style="clip-rule:nonzero">
    <path d="M119.92 172.04c9.09,0 20.08,-11.56 29.01,-32.56 4.04,-9.67 7.14,-20.02 9.19,-30.81 1.25,-6.56 1.89,-12.74 1.89,-18.66 0,-16.78 -4.8,-28.54 -14.38,-35l-0.38 0c-1.67,-1.03 -3.17,-1.51 -4.48,-1.51 -3.4,0 -5.45,3.3 -6.12,9.86 0.38,0.84 0.96,1.32 1.79,1.61 5.64,1.02 9.96,5.05 10.99,11.81 0.73,3.11 1.12,6.56 1.12,10.41 0,4.03 -0.58,9.57 -1.8,16.71 -1.21,7.14 -3.45,15.4 -6.75,24.69 -3.27,9.29 -6.66,16.87 -10.31,22.8 -3.11,4.96 -5.83,7.4 -8.17,7.4 -0.38,0 -0.74,-0.1 -1.12,-0.16 -2.15,-0.39 -3.84,-5.45 -5.06,-15.21 -0.58,-4.23 -0.86,-9.67 -0.86,-16.33 0,-8.55 0.48,-19.06 1.41,-31.55l0 -0.54c0,-1.15 -0.55,-2.18 -1.77,-3.2 -1.05,-0.19 -1.98,-0.29 -2.91,-0.29 -3.75,0 -7.24,1.7 -10.41,5.06 -3.2,3.39 -6.02,8.07 -8.55,14.09 -2.53,6.02 -4.67,11.91 -6.46,17.64 -0.29,-4.03 -1.89,-15.59 -4.71,-34.52 -3.65,-24.59 -9,-41.88 -15.85,-51.81 -4.23,-5.92 -8.52,-8.8 -13.13,-8.8 -2.34,0 -4.87,0.83 -7.4,2.53 -4.03,2.72 -8.16,9.54 -12.39,20.52 -0.29,1.03 -0.48,1.89 -0.48,2.73 0,2.43 3.4,6.11 10.06,10.88l0.44 0.1c0.68,0 1.22,-0.39 1.51,-1.12 3.3,-14.83 6.56,-22.26 9.86,-22.26 4.13,0 8.36,11.27 12.2,32.66 1.95,10.7 3.65,21.97 5.06,33.88 1.51,11.91 2.63,22.7 3.46,32.47 0.86,9.77 1.41,16.81 1.6,21.04 0.48,1.41 1.22,2.34 2.43,2.98 1.8,0.38 3.3,0.57 4.71,0.57 4.87,0 7.69,-2.43 8.36,-7.33l0.16 -0.35c2.08,-14.64 4.9,-27.22 8.36,-37.82l0.67 -2.27c0.25,15.98 1.85,27.79 4.86,35.57 3.56,9.38 8.36,14.09 14.35,14.09zm79.38 -2.3c0.64,0 1.31,-0.1 2.05,-0.2 1.6,-0.09 2.91,-0.19 3.74,-0.19 0.87,0 1.32,0 1.8,-1.21 0.48,-0.48 0.64,-1.03 0.64,-1.7 0,-0.39 -0.07,-0.74 -0.16,-1.12 -1.41,-2.05 -2.37,-3.36 -2.92,-3.84 -2.17,-3.27 -4.7,-6.66 -7.52,-10.22 -3.36,-4.23 -6.56,-8.61 -9.54,-13.22 3.46,-5.16 7.01,-10.22 10.79,-14.99 2.34,-2.91 4.39,-5.73 6.27,-8.36 0.39,-0.64 1.32,-1.76 2.44,-3.26l0.48 -0.58 0.09 -0.93c0,-1.41 -0.96,-3.1 -2.17,-3.1l-0.39 0c-1.31,0 -2.53,-0.1 -3.65,-0.26l-1.76 -0.1c-0.96,0 -1.79,0.1 -2.46,0.26 -1.32,0.29 -2.98,1.99 -4.97,5.06 -1.21,1.79 -2.82,3.78 -4.86,5.92 -2.92,3.46 -5.83,7.02 -8.55,10.79l-2.05 2.69c0,-0.64 0,-1.21 0.09,-1.76 0.84,-9.67 1.32,-20.17 1.32,-31.51 0,-9.44 -0.58,-17.42 -1.8,-23.69 -0.35,-1.6 -0.83,-2.27 -2.4,-2.27l-0.48 0c-0.83,0.09 -1.57,0.19 -2.4,0.19 -0.83,0 -1.57,-0.1 -2.43,-0.19l-0.36 0c-2.05,0 -3.07,0.96 -3.07,2.91 0.48,6.47 0.64,13.13 0.64,20.08 0,8.42 -0.26,20.04 -0.93,34.87 -0.29,7.59 -0.54,14.79 -0.64,21.45l-0.29 13.23c0,2.97 0.39,4.48 1.03,4.48 1.95,0.48 3.55,0.77 4.93,0.77 2.14,0 3.62,-0.68 4.39,-1.89 1.02,-1.86 1.56,-5.8 1.56,-11.72l0 -1.96c0.74,-1.5 1.57,-2.91 2.5,-4.32l0.96 -1.6c2.53,3.56 5.25,6.95 8.17,10.12 2.24,2.63 3.94,4.8 5.15,6.56 1.76,2.73 3.08,4.13 4.04,4.42 1.02,0.29 1.85,0.39 2.72,0.39zm53.89 0.19c2.72,-0.48 4.68,-2.08 5.89,-4.8 1.22,-2.73 2.08,-5.61 2.63,-8.62l0.57 -2.24c1.03,-4.99 2.05,-9.96 2.92,-14.92 1.41,-9.54 3.55,-18.93 6.66,-28.02l0.35 -1.02c0.29,-0.58 0.38,-1.06 0.38,-1.51 0,-0.38 0.29,-0.96 -2.33,-1.7 -1.03,-0.38 -1.99,-0.57 -2.92,-0.57 -2.72,0 -4.86,1.6 -6.46,4.8 -0.1,0.1 -0.1,0.26 -0.1,0.45 -2.15,7.04 -4.23,16.33 -6.37,27.67l-1.22 5.82c-0.67,3.08 -1.31,4.87 -1.89,5.32 -0.64,-0.26 -1.7,-3.27 -3.01,-9 -0.45,-2.14 -0.93,-4.29 -1.5,-6.28l-0.74 -4.03c0,-1.86 -0.93,-2.79 -2.72,-2.79 -1.6,0 -3.46,0.93 -5.45,2.79l-1.31 6.47c-0.64,3.1 -1.41,6.31 -2.34,9.38l-0.28 0.67c-0.58,1.67 -1.03,2.63 -1.41,2.79 -0.64,-0.45 -1.51,-3.46 -2.53,-9 -2.24,-11.33 -4.23,-19.85 -5.83,-25.78 -0.64,-2.72 -1.12,-4.22 -1.22,-4.48 -1.6,-3.2 -3.74,-4.8 -6.47,-4.8 -0.83,0 -1.79,0.19 -2.81,0.57 -1.6,0.48 -2.34,1.03 -2.34,1.7 0,0.35 0.19,1.22 0.67,2.53 3.08,9.09 5.25,18.48 6.66,27.92 0.83,5.06 1.86,10.03 2.88,15.02l0.58 2.24c0.54,3.01 1.41,5.89 2.63,8.62 1.21,2.72 3.26,4.32 5.98,4.8 4.33,0 8.07,-7.05 11.18,-21.01 1.5,6.09 3.2,11.24 5.06,15.66 1.6,3.56 3.68,5.35 6.21,5.35z"/>
   </clipPath>
   <clipPath id="id1" style="clip-rule:nonzero">
    <path d="M123.56 170.36c9.09,0 20.07,-11.56 29.01,-32.56 4.03,-9.67 7.14,-20.02 9.19,-30.81 1.24,-6.56 1.88,-12.74 1.88,-18.66 0,-16.78 -4.8,-28.54 -14.37,-35l-0.39 0c-1.66,-1.03 -3.17,-1.51 -4.48,-1.51 -3.39,0 -5.44,3.3 -6.12,9.86 0.39,0.84 0.97,1.32 1.8,1.61 5.63,1.02 9.96,5.05 10.98,11.81 0.74,3.11 1.12,6.56 1.12,10.41 0,4.03 -0.57,9.57 -1.79,16.71 -1.22,7.14 -3.46,15.4 -6.76,24.69 -3.26,9.29 -6.66,16.87 -10.31,22.8 -3.1,4.96 -5.83,7.4 -8.16,7.4 -0.39,0 -0.74,-0.1 -1.12,-0.16 -2.15,-0.39 -3.85,-5.45 -5.06,-15.21 -0.58,-4.23 -0.87,-9.67 -0.87,-16.33 0,-8.55 0.48,-19.06 1.41,-31.55l0 -0.54c0,-1.15 -0.54,-2.18 -1.76,-3.2 -1.06,-0.19 -1.99,-0.29 -2.91,-0.29 -3.75,0 -7.24,1.7 -10.41,5.06 -3.2,3.39 -6.02,8.07 -8.55,14.09 -2.53,6.02 -4.68,11.91 -6.47,17.64 -0.29,-4.03 -1.89,-15.59 -4.71,-34.52 -3.65,-24.59 -8.99,-41.88 -15.85,-51.81 -4.22,-5.92 -8.51,-8.8 -13.12,-8.8 -2.34,0 -4.87,0.83 -7.4,2.53 -4.04,2.72 -8.17,9.54 -12.39,20.52 -0.29,1.03 -0.48,1.89 -0.48,2.73 0,2.43 3.39,6.11 10.05,10.88l0.45 0.1c0.67,0 1.22,-0.39 1.5,-1.12 3.3,-14.83 6.57,-22.26 9.87,-22.26 4.13,0 8.35,11.27 12.2,32.66 1.95,10.7 3.65,21.97 5.06,33.88 1.5,11.91 2.62,22.7 3.45,32.47 0.87,9.77 1.41,16.81 1.6,21.04 0.49,1.41 1.22,2.34 2.44,2.98 1.79,0.38 3.3,0.57 4.71,0.57 4.86,0 7.68,-2.43 8.35,-7.33l0.16 -0.35c2.08,-14.64 4.9,-27.22 8.36,-37.82l0.67 -2.27c0.26,15.98 1.86,27.79 4.87,35.57 3.55,9.39 8.36,14.09 14.35,14.09zm79.37 -2.3c0.64,0 1.32,-0.1 2.05,-0.2 1.6,-0.09 2.92,-0.19 3.75,-0.19 0.86,0 1.31,0 1.79,-1.21 0.48,-0.48 0.64,-1.03 0.64,-1.7 0,-0.39 -0.06,-0.74 -0.16,-1.12 -1.41,-2.05 -2.37,-3.36 -2.91,-3.84 -2.18,-3.27 -4.71,-6.66 -7.53,-10.22 -3.36,-4.23 -6.56,-8.61 -9.54,-13.22 3.46,-5.16 7.02,-10.22 10.79,-14.99 2.34,-2.91 4.39,-5.73 6.28,-8.36 0.38,-0.64 1.31,-1.76 2.43,-3.26l0.48 -0.58 0.1 -0.93c0,-1.41 -0.96,-3.1 -2.18,-3.1l-0.38 0c-1.32,0 -2.53,-0.1 -3.65,-0.26l-1.76 -0.1c-0.96,0 -1.8,0.1 -2.47,0.26 -1.31,0.29 -2.98,1.99 -4.96,5.06 -1.22,1.79 -2.82,3.78 -4.87,5.92 -2.91,3.46 -5.83,7.02 -8.55,10.79l-2.05 2.69c0,-0.64 0,-1.21 0.1,-1.76 0.83,-9.67 1.31,-20.17 1.31,-31.51 0,-9.44 -0.58,-17.41 -1.79,-23.69 -0.35,-1.6 -0.84,-2.27 -2.4,-2.27l-0.48 0c-0.84,0.09 -1.57,0.19 -2.41,0.19 -0.83,0 -1.56,-0.1 -2.43,-0.19l-0.35 0c-2.05,0 -3.08,0.96 -3.08,2.91 0.48,6.47 0.64,13.13 0.64,20.08 0,8.42 -0.25,20.04 -0.92,34.87 -0.29,7.59 -0.55,14.79 -0.64,21.45l-0.29 13.23c0,2.97 0.38,4.48 1.02,4.48 1.96,0.48 3.56,0.77 4.93,0.77 2.15,0 3.62,-0.68 4.39,-1.89 1.02,-1.86 1.57,-5.8 1.57,-11.72l0 -1.96c0.74,-1.5 1.57,-2.91 2.5,-4.32l0.96 -1.6c2.53,3.56 5.25,6.95 8.16,10.12 2.24,2.63 3.94,4.8 5.16,6.56 1.76,2.73 3.07,4.13 4.03,4.42 1.03,0.29 1.86,0.39 2.72,0.39zm53.9 0.19c2.72,-0.48 4.67,-2.08 5.89,-4.8 1.21,-2.73 2.08,-5.61 2.62,-8.62l0.58 -2.24c1.02,-4.99 2.05,-9.96 2.91,-14.92 1.41,-9.54 3.56,-18.93 6.66,-28.02l0.36 -1.02c0.28,-0.58 0.38,-1.06 0.38,-1.51 0,-0.38 0.29,-0.96 -2.34,-1.7 -1.02,-0.38 -1.98,-0.57 -2.91,-0.57 -2.72,0 -4.87,1.6 -6.47,4.8 -0.1,0.1 -0.1,0.26 -0.1,0.45 -2.14,7.04 -4.22,16.33 -6.37,27.67l-1.21 5.82c-0.68,3.08 -1.32,4.87 -1.89,5.32 -0.64,-0.26 -1.7,-3.27 -3.01,-9 -0.45,-2.14 -0.93,-4.29 -1.51,-6.28l-0.74 -4.03c0,-1.86 -0.92,-2.79 -2.72,-2.79 -1.6,0 -3.46,0.93 -5.44,2.79l-1.31 6.47c-0.64,3.1 -1.41,6.31 -2.34,9.38l-0.29 0.67c-0.58,1.67 -1.02,2.63 -1.41,2.79 -0.64,-0.45 -1.5,-3.46 -2.53,-9 -2.24,-11.33 -4.22,-19.85 -5.83,-25.78 -0.64,-2.72 -1.12,-4.22 -1.21,-4.48 -1.6,-3.2 -3.75,-4.8 -6.47,-4.8 -0.83,0 -1.79,0.19 -2.82,0.57 -1.6,0.48 -2.34,1.03 -2.34,1.7 0,0.35 0.2,1.22 0.68,2.53 3.07,9.09 5.25,18.48 6.66,27.92 0.83,5.06 1.85,10.03 2.88,15.02l0.58 2.24c0.54,3.01 1.4,5.89 2.62,8.62 1.22,2.72 3.27,4.32 5.99,4.8 4.32,0 8.07,-7.05 11.17,-21.01 1.51,6.09 3.21,11.24 5.06,15.66 1.6,3.56 3.69,5.35 6.22,5.35z"/>
   </clipPath>
 </defs>
 <g id="Layer_x0020_1">
  <metadata id="CorelCorpID_0Corel-Layer"/>
  <g id="_2070721221392">
   <polygon class="fil0" points="78.7,19.95 42.91,77.73 14.52,77.73 50.31,19.95 "/>
   <polygon class="fil1" points="100.41,30.73 64.62,88.51 36.23,88.51 72.02,30.73 "/>
   <polygon class="fil1" points="100.99,75.63 65.2,133.41 36.82,133.41 72.6,75.63 "/>
   <polygon class="fil1" points="136.78,17.84 100.99,75.63 72.6,75.63 108.39,17.84 "/>
   <polygon class="fil1" points="121.52,88.32 85.73,146.11 57.34,146.11 93.13,88.32 "/>
   <polygon class="fil1" points="157.3,30.54 121.52,88.32 93.13,88.32 128.92,30.54 "/>
   <polygon class="fil1" points="168.82,57.79 133.03,115.57 104.64,115.57 140.43,57.79 "/>
   <polygon class="fil1" points="204.6,0 168.82,57.79 140.43,57.79 176.21,0 "/>
   <polygon class="fil1" points="85.73,146.11 49.94,203.89 21.55,203.89 57.34,146.11 "/>
   <polygon class="fil1" points="133.03,115.57 97.24,173.36 68.85,173.36 104.64,115.57 "/>
   <g>
    <polygon class="fil1" points="188.46,71.9 152.68,129.69 124.29,129.69 160.07,71.9 "/>
    <polygon class="fil1" points="224.25,14.11 188.46,71.9 160.07,71.9 195.86,14.11 "/>
    <polygon class="fil1" points="152.68,129.69 116.89,187.47 88.5,187.47 124.29,129.69 "/>
   </g>
   <g>
    <polygon class="fil1" points="205.05,90.95 169.27,148.74 140.88,148.74 176.66,90.95 "/>
    <polygon class="fil1" points="240.84,33.17 205.05,90.95 176.66,90.95 212.45,33.17 "/>
    <polygon class="fil1" points="169.27,148.74 133.48,206.52 105.09,206.52 140.88,148.74 "/>
   </g>
   <g>
    <polygon class="fil1" points="221.64,110 185.86,167.79 157.47,167.79 193.25,110 "/>
    <polygon class="fil1" points="257.43,52.22 221.64,110 193.25,110 229.04,52.22 "/>
    <polygon class="fil1" points="185.86,167.79 150.07,225.57 121.68,225.57 157.47,167.79 "/>
   </g>
   <g>
    <polygon class="fil1" points="262.94,89.15 227.16,146.94 198.77,146.94 234.56,89.15 "/>
    <polygon class="fil1" points="298.73,31.36 262.94,89.15 234.56,89.15 270.34,31.36 "/>
    <polygon class="fil1" points="227.16,146.94 191.37,204.72 162.98,204.72 198.77,146.94 "/>
   </g>
   <g>
    <polygon class="fil1" points="284.26,100.57 248.48,158.35 220.09,158.35 255.87,100.57 "/>
    <polygon class="fil1" points="320.05,42.78 284.26,100.57 255.87,100.57 291.66,42.78 "/>
    <polygon class="fil1" points="248.48,158.35 212.69,216.14 184.3,216.14 220.09,158.35 "/>
   </g>
   <g>
    <polygon class="fil1" points="305.58,111.98 269.79,169.77 241.41,169.77 277.19,111.98 "/>
    <polygon class="fil1" points="341.37,54.19 305.58,111.98 277.19,111.98 312.98,54.19 "/>
    <polygon class="fil1" points="269.79,169.77 234.01,227.55 205.62,227.55 241.41,169.77 "/>
   </g>
  </g>
  <g>
   <path class="fil2 str0" d="M119.92 172.04c9.09,0 20.08,-11.56 29.01,-32.56 4.04,-9.67 7.14,-20.02 9.19,-30.81 1.25,-6.56 1.89,-12.74 1.89,-18.66 0,-16.78 -4.8,-28.54 -14.38,-35l-0.38 0c-1.67,-1.03 -3.17,-1.51 -4.48,-1.51 -3.4,0 -5.45,3.3 -6.12,9.86 0.38,0.84 0.96,1.32 1.79,1.61 5.64,1.02 9.96,5.05 10.99,11.81 0.73,3.11 1.12,6.56 1.12,10.41 0,4.03 -0.58,9.57 -1.8,16.71 -1.21,7.14 -3.45,15.4 -6.75,24.69 -3.27,9.29 -6.66,16.87 -10.31,22.8 -3.11,4.96 -5.83,7.4 -8.17,7.4 -0.38,0 -0.74,-0.1 -1.12,-0.16 -2.15,-0.39 -3.84,-5.45 -5.06,-15.21 -0.58,-4.23 -0.86,-9.67 -0.86,-16.33 0,-8.55 0.48,-19.06 1.41,-31.55l0 -0.54c0,-1.15 -0.55,-2.18 -1.77,-3.2 -1.05,-0.19 -1.98,-0.29 -2.91,-0.29 -3.75,0 -7.24,1.7 -10.41,5.06 -3.2,3.39 -6.02,8.07 -8.55,14.09 -2.53,6.02 -4.67,11.91 -6.46,17.64 -0.29,-4.03 -1.89,-15.59 -4.71,-34.52 -3.65,-24.59 -9,-41.88 -15.85,-51.81 -4.23,-5.92 -8.52,-8.8 -13.13,-8.8 -2.34,0 -4.87,0.83 -7.4,2.53 -4.03,2.72 -8.16,9.54 -12.39,20.52 -0.29,1.03 -0.48,1.89 -0.48,2.73 0,2.43 3.4,6.11 10.06,10.88l0.44 0.1c0.68,0 1.22,-0.39 1.51,-1.12 3.3,-14.83 6.56,-22.26 9.86,-22.26 4.13,0 8.36,11.27 12.2,32.66 1.95,10.7 3.65,21.97 5.06,33.88 1.51,11.91 2.63,22.7 3.46,32.47 0.86,9.77 1.41,16.81 1.6,21.04 0.48,1.41 1.22,2.34 2.43,2.98 1.8,0.38 3.3,0.57 4.71,0.57 4.87,0 7.69,-2.43 8.36,-7.33l0.16 -0.35c2.08,-14.64 4.9,-27.22 8.36,-37.82l0.67 -2.27c0.25,15.98 1.85,27.79 4.86,35.57 3.56,9.38 8.36,14.09 14.35,14.09zm79.38 -2.3c0.64,0 1.31,-0.1 2.05,-0.2 1.6,-0.09 2.91,-0.19 3.74,-0.19 0.87,0 1.32,0 1.8,-1.21 0.48,-0.48 0.64,-1.03 0.64,-1.7 0,-0.39 -0.07,-0.74 -0.16,-1.12 -1.41,-2.05 -2.37,-3.36 -2.92,-3.84 -2.17,-3.27 -4.7,-6.66 -7.52,-10.22 -3.36,-4.23 -6.56,-8.61 -9.54,-13.22 3.46,-5.16 7.01,-10.22 10.79,-14.99 2.34,-2.91 4.39,-5.73 6.27,-8.36 0.39,-0.64 1.32,-1.76 2.44,-3.26l0.48 -0.58 0.09 -0.93c0,-1.41 -0.96,-3.1 -2.17,-3.1l-0.39 0c-1.31,0 -2.53,-0.1 -3.65,-0.26l-1.76 -0.1c-0.96,0 -1.79,0.1 -2.46,0.26 -1.32,0.29 -2.98,1.99 -4.97,5.06 -1.21,1.79 -2.82,3.78 -4.86,5.92 -2.92,3.46 -5.83,7.02 -8.55,10.79l-2.05 2.69c0,-0.64 0,-1.21 0.09,-1.76 0.84,-9.67 1.32,-20.17 1.32,-31.51 0,-9.44 -0.58,-17.42 -1.8,-23.69 -0.35,-1.6 -0.83,-2.27 -2.4,-2.27l-0.48 0c-0.83,0.09 -1.57,0.19 -2.4,0.19 -0.83,0 -1.57,-0.1 -2.43,-0.19l-0.36 0c-2.05,0 -3.07,0.96 -3.07,2.91 0.48,6.47 0.64,13.13 0.64,20.08 0,8.42 -0.26,20.04 -0.93,34.87 -0.29,7.59 -0.54,14.79 -0.64,21.45l-0.29 13.23c0,2.97 0.39,4.48 1.03,4.48 1.95,0.48 3.55,0.77 4.93,0.77 2.14,0 3.62,-0.68 4.39,-1.89 1.02,-1.86 1.56,-5.8 1.56,-11.72l0 -1.96c0.74,-1.5 1.57,-2.91 2.5,-4.32l0.96 -1.6c2.53,3.56 5.25,6.95 8.17,10.12 2.24,2.63 3.94,4.8 5.15,6.56 1.76,2.73 3.08,4.13 4.04,4.42 1.02,0.29 1.85,0.39 2.72,0.39zm53.89 0.19c2.72,-0.48 4.68,-2.08 5.89,-4.8 1.22,-2.73 2.08,-5.61 2.63,-8.62l0.57 -2.24c1.03,-4.99 2.05,-9.96 2.92,-14.92 1.41,-9.54 3.55,-18.93 6.66,-28.02l0.35 -1.02c0.29,-0.58 0.38,-1.06 0.38,-1.51 0,-0.38 0.29,-0.96 -2.33,-1.7 -1.03,-0.38 -1.99,-0.57 -2.92,-0.57 -2.72,0 -4.86,1.6 -6.46,4.8 -0.1,0.1 -0.1,0.26 -0.1,0.45 -2.15,7.04 -4.23,16.33 -6.37,27.67l-1.22 5.82c-0.67,3.08 -1.31,4.87 -1.89,5.32 -0.64,-0.26 -1.7,-3.27 -3.01,-9 -0.45,-2.14 -0.93,-4.29 -1.5,-6.28l-0.74 -4.03c0,-1.86 -0.93,-2.79 -2.72,-2.79 -1.6,0 -3.46,0.93 -5.45,2.79l-1.31 6.47c-0.64,3.1 -1.41,6.31 -2.34,9.38l-0.28 0.67c-0.58,1.67 -1.03,2.63 -1.41,2.79 -0.64,-0.45 -1.51,-3.46 -2.53,-9 -2.24,-11.33 -4.23,-19.85 -5.83,-25.78 -0.64,-2.72 -1.12,-4.22 -1.22,-4.48 -1.6,-3.2 -3.74,-4.8 -6.47,-4.8 -0.83,0 -1.79,0.19 -2.81,0.57 -1.6,0.48 -2.34,1.03 -2.34,1.7 0,0.35 0.19,1.22 0.67,2.53 3.08,9.09 5.25,18.48 6.66,27.92 0.83,5.06 1.86,10.03 2.88,15.02l0.58 2.24c0.54,3.01 1.41,5.89 2.63,8.62 1.21,2.72 3.26,4.32 5.98,4.8 4.33,0 8.07,-7.05 11.18,-21.01 1.5,6.09 3.2,11.24 5.06,15.66 1.6,3.56 3.68,5.35 6.21,5.35z"/>
  </g>
  <path id="1" class="fil3" d="M119.92 172.04c9.09,0 20.08,-11.56 29.01,-32.56 4.04,-9.67 7.14,-20.02 9.19,-30.81 1.25,-6.56 1.89,-12.74 1.89,-18.66 0,-16.78 -4.8,-28.54 -14.38,-35l-0.38 0c-1.67,-1.03 -3.17,-1.51 -4.48,-1.51 -3.4,0 -5.45,3.3 -6.12,9.86 0.38,0.84 0.96,1.32 1.79,1.61 5.64,1.02 9.96,5.05 10.99,11.81 0.73,3.11 1.12,6.56 1.12,10.41 0,4.03 -0.58,9.57 -1.8,16.71 -1.21,7.14 -3.45,15.4 -6.75,24.69 -3.27,9.29 -6.66,16.87 -10.31,22.8 -3.11,4.96 -5.83,7.4 -8.17,7.4 -0.38,0 -0.74,-0.1 -1.12,-0.16 -2.15,-0.39 -3.84,-5.45 -5.06,-15.21 -0.58,-4.23 -0.86,-9.67 -0.86,-16.33 0,-8.55 0.48,-19.06 1.41,-31.55l0 -0.54c0,-1.15 -0.55,-2.18 -1.77,-3.2 -1.05,-0.19 -1.98,-0.29 -2.91,-0.29 -3.75,0 -7.24,1.7 -10.41,5.06 -3.2,3.39 -6.02,8.07 -8.55,14.09 -2.53,6.02 -4.67,11.91 -6.46,17.64 -0.29,-4.03 -1.89,-15.59 -4.71,-34.52 -3.65,-24.59 -9,-41.88 -15.85,-51.81 -4.23,-5.92 -8.52,-8.8 -13.13,-8.8 -2.34,0 -4.87,0.83 -7.4,2.53 -4.03,2.72 -8.16,9.54 -12.39,20.52 -0.29,1.03 -0.48,1.89 -0.48,2.73 0,2.43 3.4,6.11 10.06,10.88l0.44 0.1c0.68,0 1.22,-0.39 1.51,-1.12 3.3,-14.83 6.56,-22.26 9.86,-22.26 4.13,0 8.36,11.27 12.2,32.66 1.95,10.7 3.65,21.97 5.06,33.88 1.51,11.91 2.63,22.7 3.46,32.47 0.86,9.77 1.41,16.81 1.6,21.04 0.48,1.41 1.22,2.34 2.43,2.98 1.8,0.38 3.3,0.57 4.71,0.57 4.87,0 7.69,-2.43 8.36,-7.33l0.16 -0.35c2.08,-14.64 4.9,-27.22 8.36,-37.82l0.67 -2.27c0.25,15.98 1.85,27.79 4.86,35.57 3.56,9.38 8.36,14.09 14.35,14.09zm79.38 -2.3c0.64,0 1.31,-0.1 2.05,-0.2 1.6,-0.09 2.91,-0.19 3.74,-0.19 0.87,0 1.32,0 1.8,-1.21 0.48,-0.48 0.64,-1.03 0.64,-1.7 0,-0.39 -0.07,-0.74 -0.16,-1.12 -1.41,-2.05 -2.37,-3.36 -2.92,-3.84 -2.17,-3.27 -4.7,-6.66 -7.52,-10.22 -3.36,-4.23 -6.56,-8.61 -9.54,-13.22 3.46,-5.16 7.01,-10.22 10.79,-14.99 2.34,-2.91 4.39,-5.73 6.27,-8.36 0.39,-0.64 1.32,-1.76 2.44,-3.26l0.48 -0.58 0.09 -0.93c0,-1.41 -0.96,-3.1 -2.17,-3.1l-0.39 0c-1.31,0 -2.53,-0.1 -3.65,-0.26l-1.76 -0.1c-0.96,0 -1.79,0.1 -2.46,0.26 -1.32,0.29 -2.98,1.99 -4.97,5.06 -1.21,1.79 -2.82,3.78 -4.86,5.92 -2.92,3.46 -5.83,7.02 -8.55,10.79l-2.05 2.69c0,-0.64 0,-1.21 0.09,-1.76 0.84,-9.67 1.32,-20.17 1.32,-31.51 0,-9.44 -0.58,-17.42 -1.8,-23.69 -0.35,-1.6 -0.83,-2.27 -2.4,-2.27l-0.48 0c-0.83,0.09 -1.57,0.19 -2.4,0.19 -0.83,0 -1.57,-0.1 -2.43,-0.19l-0.36 0c-2.05,0 -3.07,0.96 -3.07,2.91 0.48,6.47 0.64,13.13 0.64,20.08 0,8.42 -0.26,20.04 -0.93,34.87 -0.29,7.59 -0.54,14.79 -0.64,21.45l-0.29 13.23c0,2.97 0.39,4.48 1.03,4.48 1.95,0.48 3.55,0.77 4.93,0.77 2.14,0 3.62,-0.68 4.39,-1.89 1.02,-1.86 1.56,-5.8 1.56,-11.72l0 -1.96c0.74,-1.5 1.57,-2.91 2.5,-4.32l0.96 -1.6c2.53,3.56 5.25,6.95 8.17,10.12 2.24,2.63 3.94,4.8 5.15,6.56 1.76,2.73 3.08,4.13 4.04,4.42 1.02,0.29 1.85,0.39 2.72,0.39zm53.89 0.19c2.72,-0.48 4.68,-2.08 5.89,-4.8 1.22,-2.73 2.08,-5.61 2.63,-8.62l0.57 -2.24c1.03,-4.99 2.05,-9.96 2.92,-14.92 1.41,-9.54 3.55,-18.93 6.66,-28.02l0.35 -1.02c0.29,-0.58 0.38,-1.06 0.38,-1.51 0,-0.38 0.29,-0.96 -2.33,-1.7 -1.03,-0.38 -1.99,-0.57 -2.92,-0.57 -2.72,0 -4.86,1.6 -6.46,4.8 -0.1,0.1 -0.1,0.26 -0.1,0.45 -2.15,7.04 -4.23,16.33 -6.37,27.67l-1.22 5.82c-0.67,3.08 -1.31,4.87 -1.89,5.32 -0.64,-0.26 -1.7,-3.27 -3.01,-9 -0.45,-2.14 -0.93,-4.29 -1.5,-6.28l-0.74 -4.03c0,-1.86 -0.93,-2.79 -2.72,-2.79 -1.6,0 -3.46,0.93 -5.45,2.79l-1.31 6.47c-0.64,3.1 -1.41,6.31 -2.34,9.38l-0.28 0.67c-0.58,1.67 -1.03,2.63 -1.41,2.79 -0.64,-0.45 -1.51,-3.46 -2.53,-9 -2.24,-11.33 -4.23,-19.85 -5.83,-25.78 -0.64,-2.72 -1.12,-4.22 -1.22,-4.48 -1.6,-3.2 -3.74,-4.8 -6.47,-4.8 -0.83,0 -1.79,0.19 -2.81,0.57 -1.6,0.48 -2.34,1.03 -2.34,1.7 0,0.35 0.19,1.22 0.67,2.53 3.08,9.09 5.25,18.48 6.66,27.92 0.83,5.06 1.86,10.03 2.88,15.02l0.58 2.24c0.54,3.01 1.41,5.89 2.63,8.62 1.21,2.72 3.26,4.32 5.98,4.8 4.33,0 8.07,-7.05 11.18,-21.01 1.5,6.09 3.2,11.24 5.06,15.66 1.6,3.56 3.68,5.35 6.21,5.35z"/>
  <g style="clip-path:url(#id0)">
   <g>
    <polygon id="2" class="fil0" points="78.7,19.95 42.91,77.73 14.52,77.73 50.31,19.95 "/>
    <polygon class="fil4" points="100.41,30.73 64.62,88.51 36.23,88.51 72.02,30.73 "/>
    <polygon class="fil5" points="100.99,75.63 65.2,133.41 36.82,133.41 72.6,75.63 "/>
    <polygon class="fil5" points="136.78,17.84 100.99,75.63 72.6,75.63 108.39,17.84 "/>
    <polygon class="fil6" points="121.52,88.32 85.73,146.11 57.34,146.11 93.13,88.32 "/>
    <polygon class="fil6" points="157.3,30.54 121.52,88.32 93.13,88.32 128.92,30.54 "/>
    <polygon class="fil7" points="168.82,57.79 133.03,115.57 104.64,115.57 140.43,57.79 "/>
    <polygon class="fil7" points="204.6,0 168.82,57.79 140.43,57.79 176.21,0 "/>
    <polygon class="fil6" points="85.73,146.11 49.94,203.89 21.55,203.89 57.34,146.11 "/>
    <polygon class="fil7" points="133.03,115.57 97.24,173.36 68.85,173.36 104.64,115.57 "/>
    <g id="_2106451935296">
     <polygon class="fil8" points="188.46,71.9 152.68,129.69 124.29,129.69 160.07,71.9 "/>
     <polygon class="fil8" points="224.25,14.11 188.46,71.9 160.07,71.9 195.86,14.11 "/>
     <polygon class="fil8" points="152.68,129.69 116.89,187.47 88.5,187.47 124.29,129.69 "/>
    </g>
    <g id="_2106451916640">
     <polygon class="fil9" points="205.05,90.95 169.27,148.74 140.88,148.74 176.66,90.95 "/>
     <polygon class="fil9" points="240.84,33.17 205.05,90.95 176.66,90.95 212.45,33.17 "/>
     <polygon class="fil9" points="169.27,148.74 133.48,206.52 105.09,206.52 140.88,148.74 "/>
    </g>
    <g id="_2106451981760">
     <polygon class="fil10" points="221.64,110 185.86,167.79 157.47,167.79 193.25,110 "/>
     <polygon class="fil10" points="257.43,52.22 221.64,110 193.25,110 229.04,52.22 "/>
     <polygon class="fil10" points="185.86,167.79 150.07,225.57 121.68,225.57 157.47,167.79 "/>
    </g>
    <g id="_2070721219504">
     <polygon class="fil11" points="262.94,89.15 227.16,146.94 198.77,146.94 234.56,89.15 "/>
     <polygon class="fil11" points="298.73,31.36 262.94,89.15 234.56,89.15 270.34,31.36 "/>
     <polygon class="fil11" points="227.16,146.94 191.37,204.72 162.98,204.72 198.77,146.94 "/>
    </g>
    <g id="_2070721218576">
     <polygon class="fil12" points="284.26,100.57 248.48,158.35 220.09,158.35 255.87,100.57 "/>
     <polygon class="fil12" points="320.05,42.78 284.26,100.57 255.87,100.57 291.66,42.78 "/>
     <polygon class="fil12" points="248.48,158.35 212.69,216.14 184.3,216.14 220.09,158.35 "/>
    </g>
    <g id="_2070721206736">
     <polygon class="fil13" points="305.58,111.98 269.79,169.77 241.41,169.77 277.19,111.98 "/>
     <polygon class="fil13" points="341.37,54.19 305.58,111.98 277.19,111.98 312.98,54.19 "/>
     <polygon class="fil13" points="269.79,169.77 234.01,227.55 205.62,227.55 241.41,169.77 "/>
    </g>
   </g>
  </g>
  <g>
   <path class="fil2 str1" d="M123.56 170.36c9.09,0 20.07,-11.56 29.01,-32.56 4.03,-9.67 7.14,-20.02 9.19,-30.81 1.24,-6.56 1.88,-12.74 1.88,-18.66 0,-16.78 -4.8,-28.54 -14.37,-35l-0.39 0c-1.66,-1.03 -3.17,-1.51 -4.48,-1.51 -3.39,0 -5.44,3.3 -6.12,9.86 0.39,0.84 0.97,1.32 1.8,1.61 5.63,1.02 9.96,5.05 10.98,11.81 0.74,3.11 1.12,6.56 1.12,10.41 0,4.03 -0.57,9.57 -1.79,16.71 -1.22,7.14 -3.46,15.4 -6.76,24.69 -3.26,9.29 -6.66,16.87 -10.31,22.8 -3.1,4.96 -5.83,7.4 -8.16,7.4 -0.39,0 -0.74,-0.1 -1.12,-0.16 -2.15,-0.39 -3.85,-5.45 -5.06,-15.21 -0.58,-4.23 -0.87,-9.67 -0.87,-16.33 0,-8.55 0.48,-19.06 1.41,-31.55l0 -0.54c0,-1.15 -0.54,-2.18 -1.76,-3.2 -1.06,-0.19 -1.99,-0.29 -2.91,-0.29 -3.75,0 -7.24,1.7 -10.41,5.06 -3.2,3.39 -6.02,8.07 -8.55,14.09 -2.53,6.02 -4.68,11.91 -6.47,17.64 -0.29,-4.03 -1.89,-15.59 -4.71,-34.52 -3.65,-24.59 -8.99,-41.88 -15.85,-51.81 -4.22,-5.92 -8.51,-8.8 -13.12,-8.8 -2.34,0 -4.87,0.83 -7.4,2.53 -4.04,2.72 -8.17,9.54 -12.39,20.52 -0.29,1.03 -0.48,1.89 -0.48,2.73 0,2.43 3.39,6.11 10.05,10.88l0.45 0.1c0.67,0 1.22,-0.39 1.5,-1.12 3.3,-14.83 6.57,-22.26 9.87,-22.26 4.13,0 8.35,11.27 12.2,32.66 1.95,10.7 3.65,21.97 5.06,33.88 1.5,11.91 2.62,22.7 3.45,32.47 0.87,9.77 1.41,16.81 1.6,21.04 0.49,1.41 1.22,2.34 2.44,2.98 1.79,0.38 3.3,0.57 4.71,0.57 4.86,0 7.68,-2.43 8.35,-7.33l0.16 -0.35c2.08,-14.64 4.9,-27.22 8.36,-37.82l0.67 -2.27c0.26,15.98 1.86,27.79 4.87,35.57 3.55,9.39 8.36,14.09 14.35,14.09zm79.37 -2.3c0.64,0 1.32,-0.1 2.05,-0.2 1.6,-0.09 2.92,-0.19 3.75,-0.19 0.86,0 1.31,0 1.79,-1.21 0.48,-0.48 0.64,-1.03 0.64,-1.7 0,-0.39 -0.06,-0.74 -0.16,-1.12 -1.41,-2.05 -2.37,-3.36 -2.91,-3.84 -2.18,-3.27 -4.71,-6.66 -7.53,-10.22 -3.36,-4.23 -6.56,-8.61 -9.54,-13.22 3.46,-5.16 7.02,-10.22 10.79,-14.99 2.34,-2.91 4.39,-5.73 6.28,-8.36 0.38,-0.64 1.31,-1.76 2.43,-3.26l0.48 -0.58 0.1 -0.93c0,-1.41 -0.96,-3.1 -2.18,-3.1l-0.38 0c-1.32,0 -2.53,-0.1 -3.65,-0.26l-1.76 -0.1c-0.96,0 -1.8,0.1 -2.47,0.26 -1.31,0.29 -2.98,1.99 -4.96,5.06 -1.22,1.79 -2.82,3.78 -4.87,5.92 -2.91,3.46 -5.83,7.02 -8.55,10.79l-2.05 2.69c0,-0.64 0,-1.21 0.1,-1.76 0.83,-9.67 1.31,-20.17 1.31,-31.51 0,-9.44 -0.58,-17.41 -1.79,-23.69 -0.35,-1.6 -0.84,-2.27 -2.4,-2.27l-0.48 0c-0.84,0.09 -1.57,0.19 -2.41,0.19 -0.83,0 -1.56,-0.1 -2.43,-0.19l-0.35 0c-2.05,0 -3.08,0.96 -3.08,2.91 0.48,6.47 0.64,13.13 0.64,20.08 0,8.42 -0.25,20.04 -0.92,34.87 -0.29,7.59 -0.55,14.79 -0.64,21.45l-0.29 13.23c0,2.97 0.38,4.48 1.02,4.48 1.96,0.48 3.56,0.77 4.93,0.77 2.15,0 3.62,-0.68 4.39,-1.89 1.02,-1.86 1.57,-5.8 1.57,-11.72l0 -1.96c0.74,-1.5 1.57,-2.91 2.5,-4.32l0.96 -1.6c2.53,3.56 5.25,6.95 8.16,10.12 2.24,2.63 3.94,4.8 5.16,6.56 1.76,2.73 3.07,4.13 4.03,4.42 1.03,0.29 1.86,0.39 2.72,0.39zm53.9 0.19c2.72,-0.48 4.67,-2.08 5.89,-4.8 1.21,-2.73 2.08,-5.61 2.62,-8.62l0.58 -2.24c1.02,-4.99 2.05,-9.96 2.91,-14.92 1.41,-9.54 3.56,-18.93 6.66,-28.02l0.36 -1.02c0.28,-0.58 0.38,-1.06 0.38,-1.51 0,-0.38 0.29,-0.96 -2.34,-1.7 -1.02,-0.38 -1.98,-0.57 -2.91,-0.57 -2.72,0 -4.87,1.6 -6.47,4.8 -0.1,0.1 -0.1,0.26 -0.1,0.45 -2.14,7.04 -4.22,16.33 -6.37,27.67l-1.21 5.82c-0.68,3.08 -1.32,4.87 -1.89,5.32 -0.64,-0.26 -1.7,-3.27 -3.01,-9 -0.45,-2.14 -0.93,-4.29 -1.51,-6.28l-0.74 -4.03c0,-1.86 -0.92,-2.79 -2.72,-2.79 -1.6,0 -3.46,0.93 -5.44,2.79l-1.31 6.47c-0.64,3.1 -1.41,6.31 -2.34,9.38l-0.29 0.67c-0.58,1.67 -1.02,2.63 -1.41,2.79 -0.64,-0.45 -1.5,-3.46 -2.53,-9 -2.24,-11.33 -4.22,-19.85 -5.83,-25.78 -0.64,-2.72 -1.12,-4.22 -1.21,-4.48 -1.6,-3.2 -3.75,-4.8 -6.47,-4.8 -0.83,0 -1.79,0.19 -2.82,0.57 -1.6,0.48 -2.34,1.03 -2.34,1.7 0,0.35 0.2,1.22 0.68,2.53 3.07,9.09 5.25,18.48 6.66,27.92 0.83,5.06 1.85,10.03 2.88,15.02l0.58 2.24c0.54,3.01 1.4,5.89 2.62,8.62 1.22,2.72 3.27,4.32 5.99,4.8 4.32,0 8.07,-7.05 11.17,-21.01 1.51,6.09 3.21,11.24 5.06,15.66 1.6,3.56 3.69,5.35 6.22,5.35z"/>
  </g>
  <path id="1" class="fil14" d="M123.56 170.36c9.09,0 20.07,-11.56 29.01,-32.56 4.03,-9.67 7.14,-20.02 9.19,-30.81 1.24,-6.56 1.88,-12.74 1.88,-18.66 0,-16.78 -4.8,-28.54 -14.37,-35l-0.39 0c-1.66,-1.03 -3.17,-1.51 -4.48,-1.51 -3.39,0 -5.44,3.3 -6.12,9.86 0.39,0.84 0.97,1.32 1.8,1.61 5.63,1.02 9.96,5.05 10.98,11.81 0.74,3.11 1.12,6.56 1.12,10.41 0,4.03 -0.57,9.57 -1.79,16.71 -1.22,7.14 -3.46,15.4 -6.76,24.69 -3.26,9.29 -6.66,16.87 -10.31,22.8 -3.1,4.96 -5.83,7.4 -8.16,7.4 -0.39,0 -0.74,-0.1 -1.12,-0.16 -2.15,-0.39 -3.85,-5.45 -5.06,-15.21 -0.58,-4.23 -0.87,-9.67 -0.87,-16.33 0,-8.55 0.48,-19.06 1.41,-31.55l0 -0.54c0,-1.15 -0.54,-2.18 -1.76,-3.2 -1.06,-0.19 -1.99,-0.29 -2.91,-0.29 -3.75,0 -7.24,1.7 -10.41,5.06 -3.2,3.39 -6.02,8.07 -8.55,14.09 -2.53,6.02 -4.68,11.91 -6.47,17.64 -0.29,-4.03 -1.89,-15.59 -4.71,-34.52 -3.65,-24.59 -8.99,-41.88 -15.85,-51.81 -4.22,-5.92 -8.51,-8.8 -13.12,-8.8 -2.34,0 -4.87,0.83 -7.4,2.53 -4.04,2.72 -8.17,9.54 -12.39,20.52 -0.29,1.03 -0.48,1.89 -0.48,2.73 0,2.43 3.39,6.11 10.05,10.88l0.45 0.1c0.67,0 1.22,-0.39 1.5,-1.12 3.3,-14.83 6.57,-22.26 9.87,-22.26 4.13,0 8.35,11.27 12.2,32.66 1.95,10.7 3.65,21.97 5.06,33.88 1.5,11.91 2.62,22.7 3.45,32.47 0.87,9.77 1.41,16.81 1.6,21.04 0.49,1.41 1.22,2.34 2.44,2.98 1.79,0.38 3.3,0.57 4.71,0.57 4.86,0 7.68,-2.43 8.35,-7.33l0.16 -0.35c2.08,-14.64 4.9,-27.22 8.36,-37.82l0.67 -2.27c0.26,15.98 1.86,27.79 4.87,35.57 3.55,9.39 8.36,14.09 14.35,14.09zm79.37 -2.3c0.64,0 1.32,-0.1 2.05,-0.2 1.6,-0.09 2.92,-0.19 3.75,-0.19 0.86,0 1.31,0 1.79,-1.21 0.48,-0.48 0.64,-1.03 0.64,-1.7 0,-0.39 -0.06,-0.74 -0.16,-1.12 -1.41,-2.05 -2.37,-3.36 -2.91,-3.84 -2.18,-3.27 -4.71,-6.66 -7.53,-10.22 -3.36,-4.23 -6.56,-8.61 -9.54,-13.22 3.46,-5.16 7.02,-10.22 10.79,-14.99 2.34,-2.91 4.39,-5.73 6.28,-8.36 0.38,-0.64 1.31,-1.76 2.43,-3.26l0.48 -0.58 0.1 -0.93c0,-1.41 -0.96,-3.1 -2.18,-3.1l-0.38 0c-1.32,0 -2.53,-0.1 -3.65,-0.26l-1.76 -0.1c-0.96,0 -1.8,0.1 -2.47,0.26 -1.31,0.29 -2.98,1.99 -4.96,5.06 -1.22,1.79 -2.82,3.78 -4.87,5.92 -2.91,3.46 -5.83,7.02 -8.55,10.79l-2.05 2.69c0,-0.64 0,-1.21 0.1,-1.76 0.83,-9.67 1.31,-20.17 1.31,-31.51 0,-9.44 -0.58,-17.41 -1.79,-23.69 -0.35,-1.6 -0.84,-2.27 -2.4,-2.27l-0.48 0c-0.84,0.09 -1.57,0.19 -2.41,0.19 -0.83,0 -1.56,-0.1 -2.43,-0.19l-0.35 0c-2.05,0 -3.08,0.96 -3.08,2.91 0.48,6.47 0.64,13.13 0.64,20.08 0,8.42 -0.25,20.04 -0.92,34.87 -0.29,7.59 -0.55,14.79 -0.64,21.45l-0.29 13.23c0,2.97 0.38,4.48 1.02,4.48 1.96,0.48 3.56,0.77 4.93,0.77 2.15,0 3.62,-0.68 4.39,-1.89 1.02,-1.86 1.57,-5.8 1.57,-11.72l0 -1.96c0.74,-1.5 1.57,-2.91 2.5,-4.32l0.96 -1.6c2.53,3.56 5.25,6.95 8.16,10.12 2.24,2.63 3.94,4.8 5.16,6.56 1.76,2.73 3.07,4.13 4.03,4.42 1.03,0.29 1.86,0.39 2.72,0.39zm53.9 0.19c2.72,-0.48 4.67,-2.08 5.89,-4.8 1.21,-2.73 2.08,-5.61 2.62,-8.62l0.58 -2.24c1.02,-4.99 2.05,-9.96 2.91,-14.92 1.41,-9.54 3.56,-18.93 6.66,-28.02l0.36 -1.02c0.28,-0.58 0.38,-1.06 0.38,-1.51 0,-0.38 0.29,-0.96 -2.34,-1.7 -1.02,-0.38 -1.98,-0.57 -2.91,-0.57 -2.72,0 -4.87,1.6 -6.47,4.8 -0.1,0.1 -0.1,0.26 -0.1,0.45 -2.14,7.04 -4.22,16.33 -6.37,27.67l-1.21 5.82c-0.68,3.08 -1.32,4.87 -1.89,5.32 -0.64,-0.26 -1.7,-3.27 -3.01,-9 -0.45,-2.14 -0.93,-4.29 -1.51,-6.28l-0.74 -4.03c0,-1.86 -0.92,-2.79 -2.72,-2.79 -1.6,0 -3.46,0.93 -5.44,2.79l-1.31 6.47c-0.64,3.1 -1.41,6.31 -2.34,9.38l-0.29 0.67c-0.58,1.67 -1.02,2.63 -1.41,2.79 -0.64,-0.45 -1.5,-3.46 -2.53,-9 -2.24,-11.33 -4.22,-19.85 -5.83,-25.78 -0.64,-2.72 -1.12,-4.22 -1.21,-4.48 -1.6,-3.2 -3.75,-4.8 -6.47,-4.8 -0.83,0 -1.79,0.19 -2.82,0.57 -1.6,0.48 -2.34,1.03 -2.34,1.7 0,0.35 0.2,1.22 0.68,2.53 3.07,9.09 5.25,18.48 6.66,27.92 0.83,5.06 1.85,10.03 2.88,15.02l0.58 2.24c0.54,3.01 1.4,5.89 2.62,8.62 1.22,2.72 3.27,4.32 5.99,4.8 4.32,0 8.07,-7.05 11.17,-21.01 1.51,6.09 3.21,11.24 5.06,15.66 1.6,3.56 3.69,5.35 6.22,5.35z"/>
  <g style="clip-path:url(#id1)">
   <g>
    <polygon id="2" class="fil0" points="82.33,18.27 46.54,76.05 18.16,76.05 53.94,18.27 "/>
    <polygon class="fil4" points="104.04,29.05 68.26,86.83 39.87,86.83 75.66,29.05 "/>
    <polygon class="fil5" points="104.63,73.95 68.84,131.73 40.45,131.73 76.24,73.95 "/>
    <polygon class="fil5" points="140.41,16.16 104.63,73.95 76.24,73.95 112.02,16.16 "/>
    <polygon class="fil6" points="125.15,86.64 89.36,144.43 60.98,144.43 96.76,86.64 "/>
    <polygon class="fil6" points="160.94,28.86 125.15,86.64 96.76,86.64 132.55,28.86 "/>
    <polygon class="fil7" points="172.45,56.11 136.66,113.89 108.28,113.89 144.06,56.11 "/>
    <polygon class="fil7" points="208.24,-1.68 172.45,56.11 144.06,56.11 179.85,-1.68 "/>
    <polygon class="fil6" points="89.36,144.43 53.58,202.21 25.19,202.21 60.98,144.43 "/>
    <polygon class="fil7" points="136.66,113.89 100.88,171.68 72.49,171.68 108.28,113.89 "/>
    <g>
     <polygon class="fil8" points="192.1,70.22 156.31,128.01 127.92,128.01 163.71,70.22 "/>
     <polygon class="fil8" points="227.88,12.43 192.1,70.22 163.71,70.22 199.5,12.43 "/>
     <polygon class="fil8" points="156.31,128.01 120.52,185.79 92.14,185.79 127.92,128.01 "/>
    </g>
    <g>
     <polygon class="fil9" points="208.69,89.27 172.9,147.06 144.51,147.06 180.3,89.27 "/>
     <polygon class="fil9" points="244.47,31.49 208.69,89.27 180.3,89.27 216.09,31.49 "/>
     <polygon class="fil9" points="172.9,147.06 137.11,204.84 108.73,204.84 144.51,147.06 "/>
    </g>
    <g>
     <polygon class="fil10" points="225.28,108.32 189.49,166.11 161.1,166.11 196.89,108.32 "/>
     <polygon class="fil10" points="261.06,50.54 225.28,108.32 196.89,108.32 232.68,50.54 "/>
     <polygon class="fil10" points="189.49,166.11 153.7,223.89 125.32,223.89 161.1,166.11 "/>
    </g>
    <g>
     <polygon class="fil11" points="266.58,87.47 230.79,145.26 202.4,145.26 238.19,87.47 "/>
     <polygon class="fil11" points="302.37,29.68 266.58,87.47 238.19,87.47 273.98,29.68 "/>
     <polygon class="fil11" points="230.79,145.26 195.01,203.04 166.62,203.04 202.4,145.26 "/>
    </g>
    <g>
     <polygon class="fil12" points="287.9,98.89 252.11,156.67 223.72,156.67 259.51,98.89 "/>
     <polygon class="fil12" points="323.68,41.1 287.9,98.89 259.51,98.89 295.3,41.1 "/>
     <polygon class="fil12" points="252.11,156.67 216.32,214.46 187.94,214.46 223.72,156.67 "/>
    </g>
    <g>
     <polygon class="fil13" points="309.21,110.3 273.43,168.09 245.04,168.09 280.83,110.3 "/>
     <polygon class="fil13" points="345,52.51 309.21,110.3 280.83,110.3 316.61,52.51 "/>
     <polygon class="fil13" points="273.43,168.09 237.64,225.87 209.25,225.87 245.04,168.09 "/>
    </g>
   </g>
  </g>
  <g>
   <g>
    <path class="fil2 str0" d="M4.72 185.41c0.41,-0.06 0.79,-0.09 1.14,-0.09 0.35,0 0.67,0.08 0.95,0.24 0.28,0.16 0.53,0.44 0.75,0.83 0.22,0.4 0.39,0.94 0.52,1.64 0.15,0.63 0.28,1.41 0.39,2.33 0.11,0.93 0.21,1.88 0.3,2.86 0.08,0.98 0.17,1.9 0.24,2.78 0.08,0.87 0.15,1.54 0.21,2.02 0.16,-0.5 0.29,-0.93 0.41,-1.29 0.12,-0.36 0.26,-0.7 0.41,-1.01 0.15,-0.32 0.32,-0.65 0.49,-1 0.18,-0.35 0.39,-0.75 0.65,-1.21 0.5,-0.74 1.02,-1.12 1.54,-1.14 0.52,-0.02 1.04,0.2 1.55,0.65 0.51,0.46 1,1.09 1.45,1.88 0.46,0.8 0.86,1.63 1.21,2.5 0.07,-0.72 0.1,-1.37 0.1,-1.94 0,-0.58 0.01,-1.17 0.02,-1.77 0.01,-0.6 0.04,-1.24 0.09,-1.94 0.06,-0.7 0.17,-1.52 0.35,-2.48 0.11,-0.96 0.31,-1.74 0.62,-2.35 0.3,-0.61 0.65,-1.07 1.04,-1.38 0.39,-0.3 0.81,-0.45 1.24,-0.45 0.44,0 0.85,0.12 1.23,0.37 0.38,0.25 0.7,0.62 0.96,1.1 0.26,0.48 0.42,1.05 0.46,1.73 -0.09,1.57 -0.17,3.01 -0.25,4.34 -0.07,1.33 -0.16,2.55 -0.26,3.68 -0.09,1.12 -0.2,2.14 -0.32,3.07 -0.12,0.92 -0.28,1.76 -0.48,2.53 -0.15,0.76 -0.32,1.42 -0.5,1.99 -0.19,0.56 -0.42,1.05 -0.71,1.45 -0.28,0.4 -0.63,0.74 -1.06,1.01 -0.42,0.28 -0.94,0.51 -1.55,0.71 -0.83,0.02 -1.51,-0.16 -2.06,-0.54 -0.54,-0.38 -0.99,-0.87 -1.33,-1.47 -0.35,-0.6 -0.63,-1.27 -0.84,-1.99 -0.2,-0.73 -0.39,-1.44 -0.57,-2.11 -0.28,0.65 -0.59,1.41 -0.93,2.29 -0.34,0.87 -0.75,1.64 -1.24,2.33 -0.49,0.69 -1.07,1.18 -1.73,1.49 -0.67,0.3 -1.47,0.24 -2.4,-0.2 -0.31,-0.13 -0.63,-0.53 -0.97,-1.21 -0.33,-0.67 -0.65,-1.51 -0.96,-2.51 -0.3,-1 -0.58,-2.13 -0.83,-3.38 -0.25,-1.25 -0.46,-2.52 -0.64,-3.81 -0.17,-1.28 -0.29,-2.54 -0.34,-3.77 -0.06,-1.23 -0.04,-2.33 0.05,-3.31 0.08,-0.98 0.25,-1.78 0.5,-2.4 0.25,-0.63 0.62,-0.98 1.1,-1.07zm32.43 19.83c0.13,0.63 0.01,1.11 -0.36,1.45 -0.37,0.34 -0.88,0.52 -1.54,0.54 -0.56,0 -1.04,-0.09 -1.43,-0.28 -0.4,-0.18 -0.81,-0.42 -1.24,-0.7 -0.48,0.04 -1,0.12 -1.54,0.23 -0.54,0.11 -1.09,0.19 -1.65,0.24 -0.55,0.06 -1.1,0.06 -1.65,0.02 -0.54,-0.04 -1.05,-0.2 -1.53,-0.46 -0.61,-0.32 -1.1,-0.85 -1.46,-1.58 -0.36,-0.73 -0.56,-1.5 -0.62,-2.3 -0.05,-0.81 0.06,-1.58 0.35,-2.32 0.28,-0.74 0.75,-1.3 1.4,-1.67 0.33,-0.17 0.63,-0.32 0.9,-0.44 0.27,-0.12 0.56,-0.21 0.88,-0.28 0.32,-0.06 0.67,-0.12 1.06,-0.16 0.39,-0.04 0.87,-0.08 1.44,-0.1 0.52,-0.54 0.45,-0.93 -0.21,-1.16 -0.67,-0.23 -1.87,-0.12 -3.61,0.31 -0.63,-0.11 -1.06,-0.39 -1.28,-0.85 -0.21,-0.45 -0.27,-0.94 -0.16,-1.47 0.11,-0.52 0.36,-1.01 0.75,-1.48 0.39,-0.47 0.87,-0.77 1.44,-0.9 1.87,-0.33 3.53,-0.33 4.96,0 1.44,0.33 2.58,0.93 3.42,1.8 0.83,0.87 1.33,1.98 1.5,3.33 0.16,1.35 -0.09,2.87 -0.77,4.57 -0.2,0.37 -0.26,0.71 -0.2,1.01 0.07,0.31 0.18,0.6 0.35,0.88 0.16,0.29 0.32,0.57 0.49,0.85 0.16,0.29 0.26,0.59 0.31,0.92zm-7.48 -2.35c0.26,0.08 0.52,0.04 0.77,-0.13 0.25,-0.18 0.43,-0.4 0.53,-0.66 0.11,-0.26 0.12,-0.52 0.02,-0.77 -0.1,-0.25 -0.35,-0.4 -0.77,-0.47 -0.45,-0.09 -0.82,-0.04 -1.09,0.13 -0.27,0.18 -0.44,0.39 -0.49,0.64 -0.05,0.25 0.01,0.5 0.18,0.77 0.17,0.26 0.46,0.42 0.85,0.49zm14.01 -1.41c0,0.52 -0.01,1.11 -0.03,1.77 -0.03,0.65 -0.12,1.26 -0.28,1.84 -0.16,0.58 -0.42,1.07 -0.77,1.47 -0.35,0.4 -0.85,0.6 -1.5,0.6 -0.57,0 -1.01,-0.13 -1.34,-0.39 -0.33,-0.26 -0.57,-0.6 -0.72,-1.01 -0.15,-0.41 -0.24,-0.88 -0.28,-1.39 -0.03,-0.51 -0.05,-1.02 -0.05,-1.52 0,-1.41 0.02,-2.73 0.05,-3.95 0.04,-1.22 0.05,-2.53 0.05,-3.95 0,-0.98 0.25,-1.78 0.74,-2.4 0.49,-0.62 1.23,-0.93 2.23,-0.93 0.59,0 1.11,0.18 1.56,0.54 0.44,0.36 0.64,0.84 0.6,1.45 0.41,-0.46 0.81,-0.85 1.18,-1.19 0.37,-0.34 0.88,-0.51 1.53,-0.51 0.46,0 0.92,0.1 1.37,0.28 0.46,0.19 0.87,0.44 1.23,0.77 0.36,0.32 0.65,0.7 0.88,1.12 0.23,0.43 0.34,0.88 0.34,1.36 0,0.22 -0.04,0.46 -0.11,0.73 -0.08,0.28 -0.19,0.54 -0.35,0.79 -0.15,0.25 -0.32,0.48 -0.52,0.68 -0.19,0.21 -0.42,0.35 -0.68,0.41 -0.4,0.13 -0.8,0.12 -1.21,-0.05 -0.42,-0.16 -0.81,-0.33 -1.19,-0.52 -0.39,-0.18 -0.74,-0.33 -1.07,-0.44 -0.32,-0.11 -0.61,-0.05 -0.86,0.16 -0.25,0.22 -0.45,0.66 -0.59,1.31 -0.14,0.65 -0.21,1.64 -0.21,2.97zm16.33 4.83c-0.46,0.4 -0.95,0.65 -1.49,0.76 -0.53,0.11 -1.07,0.11 -1.61,0 -0.55,-0.11 -1.07,-0.32 -1.56,-0.62 -0.49,-0.31 -0.9,-0.68 -1.25,-1.11 -0.57,-0.66 -0.97,-1.36 -1.19,-2.11 -0.23,-0.75 -0.37,-1.53 -0.41,-2.34 -0.05,-0.8 -0.05,-1.61 0,-2.43 0.04,-0.82 0.06,-1.62 0.06,-2.4 -0.48,0 -0.86,-0.23 -1.14,-0.69 -0.28,-0.45 -0.44,-0.94 -0.46,-1.46 -0.02,-0.53 0.12,-1 0.43,-1.41 0.3,-0.41 0.8,-0.6 1.5,-0.55 -0.02,-0.53 -0.04,-1 -0.05,-1.41 -0.01,-0.41 -0.01,-0.8 0,-1.16 0.01,-0.36 0.04,-0.71 0.08,-1.04 0.04,-0.34 0.11,-0.69 0.2,-1.06 0,-0.46 0.13,-0.86 0.41,-1.21 0.27,-0.35 0.61,-0.61 1.01,-0.77 0.4,-0.16 0.82,-0.22 1.26,-0.18 0.43,0.04 0.8,0.23 1.11,0.56 0.24,0.52 0.4,1.02 0.5,1.5 0.1,0.48 0.15,0.96 0.16,1.45 0.02,0.49 0.01,0.99 -0.01,1.49 -0.02,0.5 -0.03,1.01 -0.03,1.53 0.28,0.05 0.57,0.07 0.86,0.07 0.3,0 0.58,0.02 0.87,0.06 0.28,0.05 0.54,0.14 0.78,0.28 0.24,0.14 0.44,0.36 0.59,0.67 0.19,0.26 0.3,0.58 0.33,0.95 0.02,0.37 -0.04,0.72 -0.17,1.06 -0.13,0.34 -0.32,0.63 -0.57,0.88 -0.25,0.25 -0.53,0.41 -0.83,0.47 -0.22,0.05 -0.41,0.07 -0.57,0.07 -0.17,0 -0.33,-0.01 -0.48,-0.02 -0.15,-0.01 -0.31,-0.01 -0.47,-0.01 -0.16,0 -0.35,0.01 -0.57,0.03 -0.05,0.91 -0.06,1.76 -0.05,2.55 0.01,0.78 0.11,1.62 0.31,2.51 0.15,0.52 0.39,0.87 0.7,1.05 0.32,0.17 0.7,0.37 1.16,0.58 0.31,0.16 0.56,0.37 0.75,0.66 0.2,0.28 0.33,0.59 0.39,0.93 0.07,0.33 0.06,0.67 -0.03,1.01 -0.09,0.34 -0.26,0.63 -0.52,0.86zm14.73 -1.07c0.13,0.63 0.01,1.11 -0.36,1.45 -0.37,0.34 -0.88,0.52 -1.54,0.54 -0.56,0 -1.04,-0.09 -1.43,-0.28 -0.4,-0.18 -0.81,-0.42 -1.25,-0.7 -0.47,0.04 -0.99,0.12 -1.53,0.23 -0.54,0.11 -1.09,0.19 -1.65,0.24 -0.55,0.06 -1.1,0.06 -1.65,0.02 -0.54,-0.04 -1.05,-0.2 -1.53,-0.46 -0.61,-0.32 -1.1,-0.85 -1.46,-1.58 -0.36,-0.73 -0.56,-1.5 -0.62,-2.3 -0.05,-0.81 0.06,-1.58 0.35,-2.32 0.28,-0.74 0.75,-1.3 1.4,-1.67 0.33,-0.17 0.63,-0.32 0.9,-0.44 0.27,-0.12 0.56,-0.21 0.88,-0.28 0.32,-0.06 0.67,-0.12 1.06,-0.16 0.39,-0.04 0.87,-0.08 1.44,-0.1 0.52,-0.54 0.45,-0.93 -0.21,-1.16 -0.67,-0.23 -1.87,-0.12 -3.61,0.31 -0.63,-0.11 -1.06,-0.39 -1.28,-0.85 -0.21,-0.45 -0.27,-0.94 -0.16,-1.47 0.11,-0.52 0.36,-1.01 0.75,-1.48 0.39,-0.47 0.87,-0.77 1.44,-0.9 1.87,-0.33 3.53,-0.33 4.96,0 1.44,0.33 2.58,0.93 3.42,1.8 0.83,0.87 1.33,1.98 1.5,3.33 0.16,1.35 -0.1,2.87 -0.77,4.57 -0.2,0.37 -0.26,0.71 -0.2,1.01 0.07,0.31 0.18,0.6 0.35,0.88 0.16,0.29 0.32,0.57 0.49,0.85 0.16,0.29 0.26,0.59 0.31,0.92zm-7.48 -2.35c0.26,0.08 0.52,0.04 0.77,-0.13 0.25,-0.18 0.43,-0.4 0.53,-0.66 0.11,-0.26 0.12,-0.52 0.02,-0.77 -0.1,-0.25 -0.35,-0.4 -0.77,-0.47 -0.45,-0.09 -0.82,-0.04 -1.09,0.13 -0.27,0.18 -0.44,0.39 -0.49,0.64 -0.06,0.25 0,0.5 0.18,0.77 0.17,0.26 0.46,0.42 0.85,0.49zm20.34 3.65c-0.24,-0.13 -0.43,-0.63 -0.57,-1.5 -0.14,-0.87 -0.24,-1.94 -0.31,-3.2 -0.06,-1.26 -0.1,-2.63 -0.1,-4.1 0,-1.47 0.02,-2.86 0.04,-4.18 0.02,-1.32 0.05,-2.47 0.08,-3.48 0.03,-1 0.06,-1.66 0.08,-1.99 0.04,-0.59 0.18,-1.05 0.41,-1.4 0.23,-0.35 0.5,-0.61 0.83,-0.77 0.33,-0.16 0.67,-0.27 1.03,-0.31 0.36,-0.04 0.69,-0.07 1,-0.07 0.71,0 1.23,0.18 1.53,0.54 0.31,0.36 0.51,0.84 0.61,1.42 0.09,0.59 0.13,1.25 0.11,1.98 -0.02,0.73 0,1.45 0.07,2.17 0.34,-0.43 0.7,-0.99 1.07,-1.66 0.37,-0.68 0.77,-1.34 1.19,-1.98 0.43,-0.64 0.89,-1.2 1.39,-1.67 0.5,-0.46 1.06,-0.7 1.67,-0.7 0.24,0 0.5,0.07 0.78,0.2 0.28,0.13 0.55,0.3 0.8,0.52 0.25,0.22 0.46,0.46 0.64,0.72 0.17,0.26 0.27,0.52 0.29,0.78 0.05,0.85 -0.11,1.7 -0.47,2.55 -0.36,0.85 -0.78,1.66 -1.27,2.43 -0.49,0.78 -0.98,1.47 -1.47,2.09 -0.49,0.62 -0.84,1.11 -1.03,1.46 0.3,0.43 0.68,0.97 1.14,1.6 0.46,0.63 0.9,1.3 1.34,2.02 0.43,0.72 0.82,1.45 1.14,2.19 0.33,0.74 0.51,1.43 0.56,2.06 0.02,0.39 -0.07,0.75 -0.26,1.09 -0.2,0.34 -0.45,0.63 -0.75,0.88 -0.31,0.25 -0.63,0.45 -0.97,0.59 -0.34,0.14 -0.64,0.21 -0.9,0.21 -0.65,0 -1.19,-0.2 -1.61,-0.6 -0.43,-0.4 -0.8,-0.89 -1.13,-1.47 -0.33,-0.58 -0.64,-1.19 -0.93,-1.85 -0.29,-0.65 -0.64,-1.23 -1.03,-1.73 -0.04,0.27 -0.06,0.42 -0.05,0.46 0.01,0.04 0.03,0.2 0.05,0.46 0.07,1.11 -0.05,2.01 -0.34,2.71 -0.3,0.7 -0.69,1.21 -1.19,1.53 -0.5,0.33 -1.07,0.49 -1.69,0.48 -0.62,-0.01 -1.21,-0.17 -1.78,-0.48zm26.42 -1.3c0.14,0.63 0.02,1.11 -0.35,1.45 -0.37,0.34 -0.89,0.52 -1.54,0.54 -0.57,0 -1.04,-0.09 -1.44,-0.28 -0.39,-0.18 -0.8,-0.42 -1.24,-0.7 -0.48,0.04 -0.99,0.12 -1.53,0.23 -0.55,0.11 -1.1,0.19 -1.65,0.24 -0.56,0.06 -1.11,0.06 -1.65,0.02 -0.55,-0.04 -1.06,-0.2 -1.54,-0.46 -0.61,-0.32 -1.09,-0.85 -1.45,-1.58 -0.36,-0.73 -0.57,-1.5 -0.62,-2.3 -0.05,-0.81 0.06,-1.58 0.34,-2.32 0.29,-0.74 0.75,-1.3 1.41,-1.67 0.32,-0.17 0.62,-0.32 0.9,-0.44 0.27,-0.12 0.56,-0.21 0.88,-0.28 0.31,-0.06 0.67,-0.12 1.06,-0.16 0.39,-0.04 0.87,-0.08 1.44,-0.1 0.52,-0.54 0.45,-0.93 -0.22,-1.16 -0.66,-0.23 -1.86,-0.12 -3.61,0.31 -0.63,-0.11 -1.05,-0.39 -1.27,-0.85 -0.22,-0.45 -0.27,-0.94 -0.16,-1.47 0.11,-0.52 0.36,-1.01 0.75,-1.48 0.39,-0.47 0.87,-0.77 1.44,-0.9 1.87,-0.33 3.52,-0.33 4.96,0 1.44,0.33 2.57,0.93 3.41,1.8 0.84,0.87 1.34,1.98 1.5,3.33 0.17,1.35 -0.09,2.87 -0.76,4.57 -0.2,0.37 -0.26,0.71 -0.2,1.01 0.07,0.31 0.18,0.6 0.34,0.88 0.17,0.29 0.33,0.57 0.49,0.85 0.17,0.29 0.27,0.59 0.31,0.92zm-7.47 -2.35c0.26,0.08 0.51,0.04 0.76,-0.13 0.25,-0.18 0.43,-0.4 0.54,-0.66 0.11,-0.26 0.12,-0.52 0.02,-0.77 -0.1,-0.25 -0.36,-0.4 -0.77,-0.47 -0.46,-0.09 -0.82,-0.04 -1.09,0.13 -0.28,0.18 -0.44,0.39 -0.49,0.64 -0.06,0.25 0,0.5 0.18,0.77 0.17,0.26 0.45,0.42 0.85,0.49zm11.95 3.91c-0.7,0.05 -1.23,-0.16 -1.59,-0.63 -0.35,-0.47 -0.61,-1.06 -0.76,-1.77 -0.15,-0.7 -0.24,-1.46 -0.25,-2.28 -0.01,-0.82 -0.01,-1.56 -0.01,-2.24l0 -9.11c0,-0.41 0,-0.86 0.01,-1.34 0.01,-0.48 0.07,-0.95 0.17,-1.42 0.09,-0.47 0.24,-0.9 0.42,-1.31 0.19,-0.4 0.46,-0.75 0.83,-1.06 0.53,-0.19 1.01,-0.24 1.46,-0.13 0.44,0.11 0.82,0.33 1.14,0.65 0.32,0.33 0.56,0.75 0.73,1.26 0.18,0.51 0.27,1.07 0.27,1.68 0,0.72 0,1.5 0,2.32 0,0.83 0,1.74 0,2.73 0,0.99 0,2.07 0.01,3.25 0.01,1.17 0.02,2.47 0.02,3.89 0,0.43 -0.03,0.95 -0.08,1.56 -0.06,0.61 -0.17,1.21 -0.33,1.78 -0.16,0.58 -0.41,1.08 -0.73,1.51 -0.33,0.42 -0.77,0.64 -1.31,0.66zm7.64 -16.81c-0.96,0.06 -1.7,-0.11 -2.24,-0.53 -0.53,-0.41 -0.83,-0.88 -0.91,-1.42 -0.08,-0.53 0.09,-1.04 0.51,-1.52 0.41,-0.47 1.08,-0.76 2.02,-0.84 0.76,-0.07 1.34,0.09 1.73,0.47 0.39,0.38 0.61,0.83 0.65,1.35 0.05,0.53 -0.08,1.03 -0.39,1.52 -0.3,0.49 -0.76,0.81 -1.37,0.97zm-0.88 1.73c0.67,-0.11 1.2,0.01 1.57,0.36 0.37,0.34 0.63,0.85 0.8,1.5 0.16,0.65 0.25,1.42 0.26,2.32 0.01,0.89 -0.01,1.83 -0.05,2.82 -0.04,0.99 -0.08,1.99 -0.12,3.01 -0.03,1.01 0,1.95 0.09,2.82 0.04,0.55 -0.12,1.06 -0.49,1.54 -0.37,0.48 -0.91,0.77 -1.6,0.88 -0.4,0.06 -0.77,0.03 -1.11,-0.1 -0.35,-0.13 -0.65,-0.31 -0.89,-0.54 -0.24,-0.23 -0.43,-0.49 -0.57,-0.78 -0.14,-0.3 -0.19,-0.57 -0.14,-0.84 -0.09,-0.78 -0.14,-1.61 -0.15,-2.49 -0.01,-0.89 -0.01,-1.78 0,-2.68 0.01,-0.9 0.03,-1.8 0.05,-2.68 0.02,-0.88 0.02,-1.72 0,-2.53 0.02,-0.26 0.08,-0.54 0.18,-0.85 0.1,-0.3 0.24,-0.59 0.42,-0.85 0.19,-0.26 0.43,-0.48 0.72,-0.65 0.29,-0.18 0.64,-0.26 1.03,-0.26zm9.11 1.96c1.74,-0.96 3.21,-1.39 4.39,-1.29 1.19,0.09 2.13,0.54 2.83,1.32 0.69,0.78 1.17,1.83 1.42,3.13 0.25,1.31 0.32,2.7 0.21,4.18 -0.09,1.07 -0.42,2 -1,2.78 -0.57,0.78 -1.26,1.39 -2.07,1.81 -0.8,0.43 -1.67,0.65 -2.6,0.67 -0.92,0.02 -1.78,-0.19 -2.56,-0.65 -0.04,0.54 -0.06,1.13 -0.05,1.76 0.01,0.63 0.01,1.28 -0.01,1.93 -0.03,0.65 -0.07,1.28 -0.15,1.88 -0.08,0.6 -0.22,1.13 -0.43,1.6 -0.2,0.47 -0.5,0.84 -0.89,1.11 -0.4,0.27 -0.91,0.4 -1.54,0.37 -0.28,0 -0.55,-0.07 -0.8,-0.22 -0.25,-0.16 -0.47,-0.35 -0.67,-0.58 -0.19,-0.22 -0.34,-0.49 -0.44,-0.78 -0.1,-0.29 -0.15,-0.58 -0.15,-0.87 0,-1.45 0,-2.84 0,-4.14 0,-1.31 0.01,-2.59 0.02,-3.86 0.01,-1.26 0.02,-2.54 0.03,-3.85 0.01,-1.31 0.04,-2.7 0.08,-4.18 0,-0.39 0.02,-0.8 0.04,-1.21 0.02,-0.41 0.09,-0.79 0.21,-1.13 0.12,-0.33 0.31,-0.61 0.59,-0.83 0.27,-0.22 0.67,-0.31 1.19,-0.29 0.5,0 0.99,0.09 1.47,0.28 0.48,0.18 0.77,0.53 0.88,1.06zm3.95 5.78c0,-0.5 -0.08,-0.91 -0.26,-1.21 -0.17,-0.31 -0.54,-0.48 -1.11,-0.52 -0.54,-0.03 -0.92,0.1 -1.13,0.39 -0.2,0.28 -0.31,0.74 -0.31,1.37 -0.02,0.48 0.11,0.85 0.4,1.11 0.28,0.26 0.6,0.4 0.96,0.41 0.36,0.01 0.68,-0.11 0.98,-0.36 0.29,-0.25 0.45,-0.65 0.47,-1.19zm18.23 -6.47c0.39,0.2 0.68,0.48 0.86,0.85 0.19,0.37 0.31,0.77 0.38,1.21 0.21,1.85 0.32,3.6 0.31,5.24 -0.01,1.64 -0.14,3.38 -0.38,5.21 -0.09,0.39 -0.33,0.73 -0.72,1.03 -0.39,0.29 -0.75,0.49 -1.08,0.6 -0.52,0 -1.01,-0.14 -1.48,-0.42 -0.47,-0.29 -0.74,-0.72 -0.8,-1.31 -1.37,0.72 -2.56,1.16 -3.56,1.32 -1,0.17 -1.85,0.12 -2.55,-0.14 -0.69,-0.27 -1.24,-0.72 -1.65,-1.38 -0.4,-0.65 -0.71,-1.43 -0.91,-2.35 -0.21,-0.91 -0.33,-1.93 -0.36,-3.07 -0.03,-1.13 -0.01,-2.32 0.08,-3.56 0.07,-0.21 0.12,-0.46 0.16,-0.75 0.05,-0.28 0.1,-0.55 0.17,-0.81 0.06,-0.27 0.15,-0.52 0.27,-0.75 0.12,-0.24 0.3,-0.43 0.54,-0.56 0.48,-0.41 0.95,-0.61 1.39,-0.59 0.45,0.02 0.84,0.18 1.18,0.46 0.33,0.28 0.6,0.66 0.8,1.14 0.19,0.48 0.29,0.97 0.29,1.47 0,0.42 0.02,0.76 0.05,1.05 0.03,0.28 0.06,0.55 0.08,0.8 0.02,0.25 0.05,0.52 0.08,0.81 0.04,0.3 0.05,0.65 0.05,1.06 0.02,0.44 0.08,0.84 0.17,1.21 0.08,0.37 0.28,0.68 0.58,0.92 0.4,0.13 0.79,0.09 1.18,-0.12 0.39,-0.2 0.67,-0.5 0.85,-0.89 0.26,-0.64 0.4,-1.26 0.41,-1.87 0.01,-0.61 0.01,-1.21 0.01,-1.81 0,-0.6 0.04,-1.2 0.12,-1.8 0.07,-0.59 0.3,-1.2 0.67,-1.81 0.37,-0.32 0.82,-0.5 1.35,-0.52 0.54,-0.02 1.02,0.02 1.46,0.13zm15.15 10.88c0.09,0.71 -0.05,1.29 -0.41,1.73 -0.36,0.43 -0.81,0.76 -1.34,0.98 -0.53,0.21 -1.09,0.36 -1.68,0.42 -0.59,0.07 -1.07,0.08 -1.44,0.03 -1.35,-0.11 -2.5,-0.33 -3.44,-0.67 -0.95,-0.33 -1.72,-0.8 -2.32,-1.38 -0.6,-0.59 -1.04,-1.33 -1.31,-2.21 -0.27,-0.88 -0.41,-1.92 -0.41,-3.12 0,-1.11 0.21,-2.12 0.62,-3.03 0.42,-0.92 0.97,-1.7 1.67,-2.36 0.7,-0.65 1.52,-1.16 2.47,-1.53 0.94,-0.37 1.95,-0.56 3.02,-0.56 0.43,0 0.9,0.06 1.4,0.18 0.5,0.12 0.97,0.31 1.41,0.56 0.43,0.25 0.8,0.57 1.09,0.96 0.29,0.39 0.44,0.86 0.44,1.41 0,0.65 -0.22,1.22 -0.67,1.69 -0.45,0.48 -0.95,0.75 -1.52,0.79 -0.35,0.02 -0.71,0 -1.09,-0.07 -0.38,-0.06 -0.76,-0.12 -1.14,-0.16 -0.39,-0.04 -0.75,-0.07 -1.1,-0.07 -0.35,0 -0.65,0.08 -0.91,0.23 -0.26,0.16 -0.47,0.41 -0.61,0.75 -0.14,0.35 -0.2,0.84 -0.18,1.47 0.02,0.79 0.22,1.33 0.59,1.62 0.37,0.29 0.82,0.46 1.34,0.51 0.52,0.04 1.09,0.02 1.71,-0.07 0.62,-0.09 1.2,-0.11 1.74,-0.08 0.53,0.03 0.99,0.18 1.38,0.46 0.4,0.27 0.62,0.78 0.69,1.52zm13.98 1.37c0.13,0.63 0.01,1.11 -0.36,1.45 -0.37,0.34 -0.88,0.52 -1.54,0.54 -0.56,0 -1.04,-0.09 -1.43,-0.28 -0.4,-0.18 -0.81,-0.42 -1.25,-0.7 -0.47,0.04 -0.99,0.12 -1.53,0.23 -0.54,0.11 -1.09,0.19 -1.65,0.24 -0.55,0.06 -1.1,0.06 -1.65,0.02 -0.54,-0.04 -1.05,-0.2 -1.53,-0.46 -0.61,-0.32 -1.1,-0.85 -1.46,-1.58 -0.36,-0.73 -0.56,-1.5 -0.62,-2.3 -0.05,-0.81 0.06,-1.58 0.35,-2.32 0.28,-0.74 0.75,-1.3 1.4,-1.67 0.33,-0.17 0.63,-0.32 0.9,-0.44 0.27,-0.12 0.56,-0.21 0.88,-0.28 0.32,-0.06 0.67,-0.12 1.06,-0.16 0.39,-0.04 0.87,-0.08 1.44,-0.1 0.52,-0.54 0.45,-0.93 -0.21,-1.16 -0.67,-0.23 -1.87,-0.12 -3.61,0.31 -0.63,-0.11 -1.06,-0.39 -1.28,-0.85 -0.21,-0.45 -0.27,-0.94 -0.16,-1.47 0.11,-0.52 0.36,-1.01 0.75,-1.48 0.39,-0.47 0.87,-0.77 1.44,-0.9 1.87,-0.33 3.53,-0.33 4.96,0 1.44,0.33 2.58,0.93 3.41,1.8 0.84,0.87 1.34,1.98 1.51,3.33 0.16,1.35 -0.1,2.87 -0.77,4.57 -0.2,0.37 -0.26,0.71 -0.2,1.01 0.07,0.31 0.18,0.6 0.35,0.88 0.16,0.29 0.32,0.57 0.49,0.85 0.16,0.29 0.26,0.59 0.31,0.92zm-7.48 -2.35c0.26,0.08 0.51,0.04 0.77,-0.13 0.25,-0.18 0.43,-0.4 0.53,-0.66 0.11,-0.26 0.12,-0.52 0.02,-0.77 -0.1,-0.25 -0.35,-0.4 -0.77,-0.47 -0.45,-0.09 -0.82,-0.04 -1.09,0.13 -0.27,0.18 -0.44,0.39 -0.49,0.64 -0.06,0.25 0,0.5 0.18,0.77 0.17,0.26 0.46,0.42 0.85,0.49z"/>
    <path id="1" class="fil15" d="M4.72 185.41c0.41,-0.06 0.79,-0.09 1.14,-0.09 0.35,0 0.67,0.08 0.95,0.24 0.28,0.16 0.53,0.44 0.75,0.83 0.22,0.4 0.39,0.94 0.52,1.64 0.15,0.63 0.28,1.41 0.39,2.33 0.11,0.93 0.21,1.88 0.3,2.86 0.08,0.98 0.17,1.9 0.24,2.78 0.08,0.87 0.15,1.54 0.21,2.02 0.16,-0.5 0.29,-0.93 0.41,-1.29 0.12,-0.36 0.26,-0.7 0.41,-1.01 0.15,-0.32 0.32,-0.65 0.49,-1 0.18,-0.35 0.39,-0.75 0.65,-1.21 0.5,-0.74 1.02,-1.12 1.54,-1.14 0.52,-0.02 1.04,0.2 1.55,0.65 0.51,0.46 1,1.09 1.45,1.88 0.46,0.8 0.86,1.63 1.21,2.5 0.07,-0.72 0.1,-1.37 0.1,-1.94 0,-0.58 0.01,-1.17 0.02,-1.77 0.01,-0.6 0.04,-1.24 0.09,-1.94 0.06,-0.7 0.17,-1.52 0.35,-2.48 0.11,-0.96 0.31,-1.74 0.62,-2.35 0.3,-0.61 0.65,-1.07 1.04,-1.38 0.39,-0.3 0.81,-0.45 1.24,-0.45 0.44,0 0.85,0.12 1.23,0.37 0.38,0.25 0.7,0.62 0.96,1.1 0.26,0.48 0.42,1.05 0.46,1.73 -0.09,1.57 -0.17,3.01 -0.25,4.34 -0.07,1.33 -0.16,2.55 -0.26,3.68 -0.09,1.12 -0.2,2.14 -0.32,3.07 -0.12,0.92 -0.28,1.76 -0.48,2.53 -0.15,0.76 -0.32,1.42 -0.5,1.99 -0.19,0.56 -0.42,1.05 -0.71,1.45 -0.28,0.4 -0.63,0.74 -1.06,1.01 -0.42,0.28 -0.94,0.51 -1.55,0.71 -0.83,0.02 -1.51,-0.16 -2.06,-0.54 -0.54,-0.38 -0.99,-0.87 -1.33,-1.47 -0.35,-0.6 -0.63,-1.27 -0.84,-1.99 -0.2,-0.73 -0.39,-1.44 -0.57,-2.11 -0.28,0.65 -0.59,1.41 -0.93,2.29 -0.34,0.87 -0.75,1.64 -1.24,2.33 -0.49,0.69 -1.07,1.18 -1.73,1.49 -0.67,0.3 -1.47,0.24 -2.4,-0.2 -0.31,-0.13 -0.63,-0.53 -0.97,-1.21 -0.33,-0.67 -0.65,-1.51 -0.96,-2.51 -0.3,-1 -0.58,-2.13 -0.83,-3.38 -0.25,-1.25 -0.46,-2.52 -0.64,-3.81 -0.17,-1.28 -0.29,-2.54 -0.34,-3.77 -0.06,-1.23 -0.04,-2.33 0.05,-3.31 0.08,-0.98 0.25,-1.78 0.5,-2.4 0.25,-0.63 0.62,-0.98 1.1,-1.07zm32.43 19.83c0.13,0.63 0.01,1.11 -0.36,1.45 -0.37,0.34 -0.88,0.52 -1.54,0.54 -0.56,0 -1.04,-0.09 -1.43,-0.28 -0.4,-0.18 -0.81,-0.42 -1.24,-0.7 -0.48,0.04 -1,0.12 -1.54,0.23 -0.54,0.11 -1.09,0.19 -1.65,0.24 -0.55,0.06 -1.1,0.06 -1.65,0.02 -0.54,-0.04 -1.05,-0.2 -1.53,-0.46 -0.61,-0.32 -1.1,-0.85 -1.46,-1.58 -0.36,-0.73 -0.56,-1.5 -0.62,-2.3 -0.05,-0.81 0.06,-1.58 0.35,-2.32 0.28,-0.74 0.75,-1.3 1.4,-1.67 0.33,-0.17 0.63,-0.32 0.9,-0.44 0.27,-0.12 0.56,-0.21 0.88,-0.28 0.32,-0.06 0.67,-0.12 1.06,-0.16 0.39,-0.04 0.87,-0.08 1.44,-0.1 0.52,-0.54 0.45,-0.93 -0.21,-1.16 -0.67,-0.23 -1.87,-0.12 -3.61,0.31 -0.63,-0.11 -1.06,-0.39 -1.28,-0.85 -0.21,-0.45 -0.27,-0.94 -0.16,-1.47 0.11,-0.52 0.36,-1.01 0.75,-1.48 0.39,-0.47 0.87,-0.77 1.44,-0.9 1.87,-0.33 3.53,-0.33 4.96,0 1.44,0.33 2.58,0.93 3.42,1.8 0.83,0.87 1.33,1.98 1.5,3.33 0.16,1.35 -0.09,2.87 -0.77,4.57 -0.2,0.37 -0.26,0.71 -0.2,1.01 0.07,0.31 0.18,0.6 0.35,0.88 0.16,0.29 0.32,0.57 0.49,0.85 0.16,0.29 0.26,0.59 0.31,0.92zm-7.48 -2.35c0.26,0.08 0.52,0.04 0.77,-0.13 0.25,-0.18 0.43,-0.4 0.53,-0.66 0.11,-0.26 0.12,-0.52 0.02,-0.77 -0.1,-0.25 -0.35,-0.4 -0.77,-0.47 -0.45,-0.09 -0.82,-0.04 -1.09,0.13 -0.27,0.18 -0.44,0.39 -0.49,0.64 -0.05,0.25 0.01,0.5 0.18,0.77 0.17,0.26 0.46,0.42 0.85,0.49zm14.01 -1.41c0,0.52 -0.01,1.11 -0.03,1.77 -0.03,0.65 -0.12,1.26 -0.28,1.84 -0.16,0.58 -0.42,1.07 -0.77,1.47 -0.35,0.4 -0.85,0.6 -1.5,0.6 -0.57,0 -1.01,-0.13 -1.34,-0.39 -0.33,-0.26 -0.57,-0.6 -0.72,-1.01 -0.15,-0.41 -0.24,-0.88 -0.28,-1.39 -0.03,-0.51 -0.05,-1.02 -0.05,-1.52 0,-1.41 0.02,-2.73 0.05,-3.95 0.04,-1.22 0.05,-2.53 0.05,-3.95 0,-0.98 0.25,-1.78 0.74,-2.4 0.49,-0.62 1.23,-0.93 2.23,-0.93 0.59,0 1.11,0.18 1.56,0.54 0.44,0.36 0.64,0.84 0.6,1.45 0.41,-0.46 0.81,-0.85 1.18,-1.19 0.37,-0.34 0.88,-0.51 1.53,-0.51 0.46,0 0.92,0.1 1.37,0.28 0.46,0.19 0.87,0.44 1.23,0.77 0.36,0.32 0.65,0.7 0.88,1.12 0.23,0.43 0.34,0.88 0.34,1.36 0,0.22 -0.04,0.46 -0.11,0.73 -0.08,0.28 -0.19,0.54 -0.35,0.79 -0.15,0.25 -0.32,0.48 -0.52,0.68 -0.19,0.21 -0.42,0.35 -0.68,0.41 -0.4,0.13 -0.8,0.12 -1.21,-0.05 -0.42,-0.16 -0.81,-0.33 -1.19,-0.52 -0.39,-0.18 -0.74,-0.33 -1.07,-0.44 -0.32,-0.11 -0.61,-0.05 -0.86,0.16 -0.25,0.22 -0.45,0.66 -0.59,1.31 -0.14,0.65 -0.21,1.64 -0.21,2.97zm16.33 4.83c-0.46,0.4 -0.95,0.65 -1.49,0.76 -0.53,0.11 -1.07,0.11 -1.61,0 -0.55,-0.11 -1.07,-0.32 -1.56,-0.62 -0.49,-0.31 -0.9,-0.68 -1.25,-1.11 -0.57,-0.66 -0.97,-1.36 -1.19,-2.11 -0.23,-0.75 -0.37,-1.53 -0.41,-2.34 -0.05,-0.8 -0.05,-1.61 0,-2.43 0.04,-0.82 0.06,-1.62 0.06,-2.4 -0.48,0 -0.86,-0.23 -1.14,-0.69 -0.28,-0.45 -0.44,-0.94 -0.46,-1.46 -0.02,-0.53 0.12,-1 0.43,-1.41 0.3,-0.41 0.8,-0.6 1.5,-0.55 -0.02,-0.53 -0.04,-1 -0.05,-1.41 -0.01,-0.41 -0.01,-0.8 0,-1.16 0.01,-0.36 0.04,-0.71 0.08,-1.04 0.04,-0.34 0.11,-0.69 0.2,-1.06 0,-0.46 0.13,-0.86 0.41,-1.21 0.27,-0.35 0.61,-0.61 1.01,-0.77 0.4,-0.16 0.82,-0.22 1.26,-0.18 0.43,0.04 0.8,0.23 1.11,0.56 0.24,0.52 0.4,1.02 0.5,1.5 0.1,0.48 0.15,0.96 0.16,1.45 0.02,0.49 0.01,0.99 -0.01,1.49 -0.02,0.5 -0.03,1.01 -0.03,1.53 0.28,0.05 0.57,0.07 0.86,0.07 0.3,0 0.58,0.02 0.87,0.06 0.28,0.05 0.54,0.14 0.78,0.28 0.24,0.14 0.44,0.36 0.59,0.67 0.19,0.26 0.3,0.58 0.33,0.95 0.02,0.37 -0.04,0.72 -0.17,1.06 -0.13,0.34 -0.32,0.63 -0.57,0.88 -0.25,0.25 -0.53,0.41 -0.83,0.47 -0.22,0.05 -0.41,0.07 -0.57,0.07 -0.17,0 -0.33,-0.01 -0.48,-0.02 -0.15,-0.01 -0.31,-0.01 -0.47,-0.01 -0.16,0 -0.35,0.01 -0.57,0.03 -0.05,0.91 -0.06,1.76 -0.05,2.55 0.01,0.78 0.11,1.62 0.31,2.51 0.15,0.52 0.39,0.87 0.7,1.05 0.32,0.17 0.7,0.37 1.16,0.58 0.31,0.16 0.56,0.37 0.75,0.66 0.2,0.28 0.33,0.59 0.39,0.93 0.07,0.33 0.06,0.67 -0.03,1.01 -0.09,0.34 -0.26,0.63 -0.52,0.86zm14.73 -1.07c0.13,0.63 0.01,1.11 -0.36,1.45 -0.37,0.34 -0.88,0.52 -1.54,0.54 -0.56,0 -1.04,-0.09 -1.43,-0.28 -0.4,-0.18 -0.81,-0.42 -1.25,-0.7 -0.47,0.04 -0.99,0.12 -1.53,0.23 -0.54,0.11 -1.09,0.19 -1.65,0.24 -0.55,0.06 -1.1,0.06 -1.65,0.02 -0.54,-0.04 -1.05,-0.2 -1.53,-0.46 -0.61,-0.32 -1.1,-0.85 -1.46,-1.58 -0.36,-0.73 -0.56,-1.5 -0.62,-2.3 -0.05,-0.81 0.06,-1.58 0.35,-2.32 0.28,-0.74 0.75,-1.3 1.4,-1.67 0.33,-0.17 0.63,-0.32 0.9,-0.44 0.27,-0.12 0.56,-0.21 0.88,-0.28 0.32,-0.06 0.67,-0.12 1.06,-0.16 0.39,-0.04 0.87,-0.08 1.44,-0.1 0.52,-0.54 0.45,-0.93 -0.21,-1.16 -0.67,-0.23 -1.87,-0.12 -3.61,0.31 -0.63,-0.11 -1.06,-0.39 -1.28,-0.85 -0.21,-0.45 -0.27,-0.94 -0.16,-1.47 0.11,-0.52 0.36,-1.01 0.75,-1.48 0.39,-0.47 0.87,-0.77 1.44,-0.9 1.87,-0.33 3.53,-0.33 4.96,0 1.44,0.33 2.58,0.93 3.42,1.8 0.83,0.87 1.33,1.98 1.5,3.33 0.16,1.35 -0.1,2.87 -0.77,4.57 -0.2,0.37 -0.26,0.71 -0.2,1.01 0.07,0.31 0.18,0.6 0.35,0.88 0.16,0.29 0.32,0.57 0.49,0.85 0.16,0.29 0.26,0.59 0.31,0.92zm-7.48 -2.35c0.26,0.08 0.52,0.04 0.77,-0.13 0.25,-0.18 0.43,-0.4 0.53,-0.66 0.11,-0.26 0.12,-0.52 0.02,-0.77 -0.1,-0.25 -0.35,-0.4 -0.77,-0.47 -0.45,-0.09 -0.82,-0.04 -1.09,0.13 -0.27,0.18 -0.44,0.39 -0.49,0.64 -0.06,0.25 0,0.5 0.18,0.77 0.17,0.26 0.46,0.42 0.85,0.49zm20.34 3.65c-0.24,-0.13 -0.43,-0.63 -0.57,-1.5 -0.14,-0.87 -0.24,-1.94 -0.31,-3.2 -0.06,-1.26 -0.1,-2.63 -0.1,-4.1 0,-1.47 0.02,-2.86 0.04,-4.18 0.02,-1.32 0.05,-2.47 0.08,-3.48 0.03,-1 0.06,-1.66 0.08,-1.99 0.04,-0.59 0.18,-1.05 0.41,-1.4 0.23,-0.35 0.5,-0.61 0.83,-0.77 0.33,-0.16 0.67,-0.27 1.03,-0.31 0.36,-0.04 0.69,-0.07 1,-0.07 0.71,0 1.23,0.18 1.53,0.54 0.31,0.36 0.51,0.84 0.61,1.42 0.09,0.59 0.13,1.25 0.11,1.98 -0.02,0.73 0,1.45 0.07,2.17 0.34,-0.43 0.7,-0.99 1.07,-1.66 0.37,-0.68 0.77,-1.34 1.19,-1.98 0.43,-0.64 0.89,-1.2 1.39,-1.67 0.5,-0.46 1.06,-0.7 1.67,-0.7 0.24,0 0.5,0.07 0.78,0.2 0.28,0.13 0.55,0.3 0.8,0.52 0.25,0.22 0.46,0.46 0.64,0.72 0.17,0.26 0.27,0.52 0.29,0.78 0.05,0.85 -0.11,1.7 -0.47,2.55 -0.36,0.85 -0.78,1.66 -1.27,2.43 -0.49,0.78 -0.98,1.47 -1.47,2.09 -0.49,0.62 -0.84,1.11 -1.03,1.46 0.3,0.43 0.68,0.97 1.14,1.6 0.46,0.63 0.9,1.3 1.34,2.02 0.43,0.72 0.82,1.45 1.14,2.19 0.33,0.74 0.51,1.43 0.56,2.06 0.02,0.39 -0.07,0.75 -0.26,1.09 -0.2,0.34 -0.45,0.63 -0.75,0.88 -0.31,0.25 -0.63,0.45 -0.97,0.59 -0.34,0.14 -0.64,0.21 -0.9,0.21 -0.65,0 -1.19,-0.2 -1.61,-0.6 -0.43,-0.4 -0.8,-0.89 -1.13,-1.47 -0.33,-0.58 -0.64,-1.19 -0.93,-1.85 -0.29,-0.65 -0.64,-1.23 -1.03,-1.73 -0.04,0.27 -0.06,0.42 -0.05,0.46 0.01,0.04 0.03,0.2 0.05,0.46 0.07,1.11 -0.05,2.01 -0.34,2.71 -0.3,0.7 -0.69,1.21 -1.19,1.53 -0.5,0.33 -1.07,0.49 -1.69,0.48 -0.62,-0.01 -1.21,-0.17 -1.78,-0.48zm26.42 -1.3c0.14,0.63 0.02,1.11 -0.35,1.45 -0.37,0.34 -0.89,0.52 -1.54,0.54 -0.57,0 -1.04,-0.09 -1.44,-0.28 -0.39,-0.18 -0.8,-0.42 -1.24,-0.7 -0.48,0.04 -0.99,0.12 -1.53,0.23 -0.55,0.11 -1.1,0.19 -1.65,0.24 -0.56,0.06 -1.11,0.06 -1.65,0.02 -0.55,-0.04 -1.06,-0.2 -1.54,-0.46 -0.61,-0.32 -1.09,-0.85 -1.45,-1.58 -0.36,-0.73 -0.57,-1.5 -0.62,-2.3 -0.05,-0.81 0.06,-1.58 0.34,-2.32 0.29,-0.74 0.75,-1.3 1.41,-1.67 0.32,-0.17 0.62,-0.32 0.9,-0.44 0.27,-0.12 0.56,-0.21 0.88,-0.28 0.31,-0.06 0.67,-0.12 1.06,-0.16 0.39,-0.04 0.87,-0.08 1.44,-0.1 0.52,-0.54 0.45,-0.93 -0.22,-1.16 -0.66,-0.23 -1.86,-0.12 -3.61,0.31 -0.63,-0.11 -1.05,-0.39 -1.27,-0.85 -0.22,-0.45 -0.27,-0.94 -0.16,-1.47 0.11,-0.52 0.36,-1.01 0.75,-1.48 0.39,-0.47 0.87,-0.77 1.44,-0.9 1.87,-0.33 3.52,-0.33 4.96,0 1.44,0.33 2.57,0.93 3.41,1.8 0.84,0.87 1.34,1.98 1.5,3.33 0.17,1.35 -0.09,2.87 -0.76,4.57 -0.2,0.37 -0.26,0.71 -0.2,1.01 0.07,0.31 0.18,0.6 0.34,0.88 0.17,0.29 0.33,0.57 0.49,0.85 0.17,0.29 0.27,0.59 0.31,0.92zm-7.47 -2.35c0.26,0.08 0.51,0.04 0.76,-0.13 0.25,-0.18 0.43,-0.4 0.54,-0.66 0.11,-0.26 0.12,-0.52 0.02,-0.77 -0.1,-0.25 -0.36,-0.4 -0.77,-0.47 -0.46,-0.09 -0.82,-0.04 -1.09,0.13 -0.28,0.18 -0.44,0.39 -0.49,0.64 -0.06,0.25 0,0.5 0.18,0.77 0.17,0.26 0.45,0.42 0.85,0.49zm11.95 3.91c-0.7,0.05 -1.23,-0.16 -1.59,-0.63 -0.35,-0.47 -0.61,-1.06 -0.76,-1.77 -0.15,-0.7 -0.24,-1.46 -0.25,-2.28 -0.01,-0.82 -0.01,-1.56 -0.01,-2.24l0 -9.11c0,-0.41 0,-0.86 0.01,-1.34 0.01,-0.48 0.07,-0.95 0.17,-1.42 0.09,-0.47 0.24,-0.9 0.42,-1.31 0.19,-0.4 0.46,-0.75 0.83,-1.06 0.53,-0.19 1.01,-0.24 1.46,-0.13 0.44,0.11 0.82,0.33 1.14,0.65 0.32,0.33 0.56,0.75 0.73,1.26 0.18,0.51 0.27,1.07 0.27,1.68 0,0.72 0,1.5 0,2.32 0,0.83 0,1.74 0,2.73 0,0.99 0,2.07 0.01,3.25 0.01,1.17 0.02,2.47 0.02,3.89 0,0.43 -0.03,0.95 -0.08,1.56 -0.06,0.61 -0.17,1.21 -0.33,1.78 -0.16,0.58 -0.41,1.08 -0.73,1.51 -0.33,0.42 -0.77,0.64 -1.31,0.66zm7.64 -16.81c-0.96,0.06 -1.7,-0.11 -2.24,-0.53 -0.53,-0.41 -0.83,-0.88 -0.91,-1.42 -0.08,-0.53 0.09,-1.04 0.51,-1.52 0.41,-0.47 1.08,-0.76 2.02,-0.84 0.76,-0.07 1.34,0.09 1.73,0.47 0.39,0.38 0.61,0.83 0.65,1.35 0.05,0.53 -0.08,1.03 -0.39,1.52 -0.3,0.49 -0.76,0.81 -1.37,0.97zm-0.88 1.73c0.67,-0.11 1.2,0.01 1.57,0.36 0.37,0.34 0.63,0.85 0.8,1.5 0.16,0.65 0.25,1.42 0.26,2.32 0.01,0.89 -0.01,1.83 -0.05,2.82 -0.04,0.99 -0.08,1.99 -0.12,3.01 -0.03,1.01 0,1.95 0.09,2.82 0.04,0.55 -0.12,1.06 -0.49,1.54 -0.37,0.48 -0.91,0.77 -1.6,0.88 -0.4,0.06 -0.77,0.03 -1.11,-0.1 -0.35,-0.13 -0.65,-0.31 -0.89,-0.54 -0.24,-0.23 -0.43,-0.49 -0.57,-0.78 -0.14,-0.3 -0.19,-0.57 -0.14,-0.84 -0.09,-0.78 -0.14,-1.61 -0.15,-2.49 -0.01,-0.89 -0.01,-1.78 0,-2.68 0.01,-0.9 0.03,-1.8 0.05,-2.68 0.02,-0.88 0.02,-1.72 0,-2.53 0.02,-0.26 0.08,-0.54 0.18,-0.85 0.1,-0.3 0.24,-0.59 0.42,-0.85 0.19,-0.26 0.43,-0.48 0.72,-0.65 0.29,-0.18 0.64,-0.26 1.03,-0.26zm9.11 1.96c1.74,-0.96 3.21,-1.39 4.39,-1.29 1.19,0.09 2.13,0.54 2.83,1.32 0.69,0.78 1.17,1.83 1.42,3.13 0.25,1.31 0.32,2.7 0.21,4.18 -0.09,1.07 -0.42,2 -1,2.78 -0.57,0.78 -1.26,1.39 -2.07,1.81 -0.8,0.43 -1.67,0.65 -2.6,0.67 -0.92,0.02 -1.78,-0.19 -2.56,-0.65 -0.04,0.54 -0.06,1.13 -0.05,1.76 0.01,0.63 0.01,1.28 -0.01,1.93 -0.03,0.65 -0.07,1.28 -0.15,1.88 -0.08,0.6 -0.22,1.13 -0.43,1.6 -0.2,0.47 -0.5,0.84 -0.89,1.11 -0.4,0.27 -0.91,0.4 -1.54,0.37 -0.28,0 -0.55,-0.07 -0.8,-0.22 -0.25,-0.16 -0.47,-0.35 -0.67,-0.58 -0.19,-0.22 -0.34,-0.49 -0.44,-0.78 -0.1,-0.29 -0.15,-0.58 -0.15,-0.87 0,-1.45 0,-2.84 0,-4.14 0,-1.31 0.01,-2.59 0.02,-3.86 0.01,-1.26 0.02,-2.54 0.03,-3.85 0.01,-1.31 0.04,-2.7 0.08,-4.18 0,-0.39 0.02,-0.8 0.04,-1.21 0.02,-0.41 0.09,-0.79 0.21,-1.13 0.12,-0.33 0.31,-0.61 0.59,-0.83 0.27,-0.22 0.67,-0.31 1.19,-0.29 0.5,0 0.99,0.09 1.47,0.28 0.48,0.18 0.77,0.53 0.88,1.06zm3.95 5.78c0,-0.5 -0.08,-0.91 -0.26,-1.21 -0.17,-0.31 -0.54,-0.48 -1.11,-0.52 -0.54,-0.03 -0.92,0.1 -1.13,0.39 -0.2,0.28 -0.31,0.74 -0.31,1.37 -0.02,0.48 0.11,0.85 0.4,1.11 0.28,0.26 0.6,0.4 0.96,0.41 0.36,0.01 0.68,-0.11 0.98,-0.36 0.29,-0.25 0.45,-0.65 0.47,-1.19zm18.23 -6.47c0.39,0.2 0.68,0.48 0.86,0.85 0.19,0.37 0.31,0.77 0.38,1.21 0.21,1.85 0.32,3.6 0.31,5.24 -0.01,1.64 -0.14,3.38 -0.38,5.21 -0.09,0.39 -0.33,0.73 -0.72,1.03 -0.39,0.29 -0.75,0.49 -1.08,0.6 -0.52,0 -1.01,-0.14 -1.48,-0.42 -0.47,-0.29 -0.74,-0.72 -0.8,-1.31 -1.37,0.72 -2.56,1.16 -3.56,1.32 -1,0.17 -1.85,0.12 -2.55,-0.14 -0.69,-0.27 -1.24,-0.72 -1.65,-1.38 -0.4,-0.65 -0.71,-1.43 -0.91,-2.35 -0.21,-0.91 -0.33,-1.93 -0.36,-3.07 -0.03,-1.13 -0.01,-2.32 0.08,-3.56 0.07,-0.21 0.12,-0.46 0.16,-0.75 0.05,-0.28 0.1,-0.55 0.17,-0.81 0.06,-0.27 0.15,-0.52 0.27,-0.75 0.12,-0.24 0.3,-0.43 0.54,-0.56 0.48,-0.41 0.95,-0.61 1.39,-0.59 0.45,0.02 0.84,0.18 1.18,0.46 0.33,0.28 0.6,0.66 0.8,1.14 0.19,0.48 0.29,0.97 0.29,1.47 0,0.42 0.02,0.76 0.05,1.05 0.03,0.28 0.06,0.55 0.08,0.8 0.02,0.25 0.05,0.52 0.08,0.81 0.04,0.3 0.05,0.65 0.05,1.06 0.02,0.44 0.08,0.84 0.17,1.21 0.08,0.37 0.28,0.68 0.58,0.92 0.4,0.13 0.79,0.09 1.18,-0.12 0.39,-0.2 0.67,-0.5 0.85,-0.89 0.26,-0.64 0.4,-1.26 0.41,-1.87 0.01,-0.61 0.01,-1.21 0.01,-1.81 0,-0.6 0.04,-1.2 0.12,-1.8 0.07,-0.59 0.3,-1.2 0.67,-1.81 0.37,-0.32 0.82,-0.5 1.35,-0.52 0.54,-0.02 1.02,0.02 1.46,0.13zm15.15 10.88c0.09,0.71 -0.05,1.29 -0.41,1.73 -0.36,0.43 -0.81,0.76 -1.34,0.98 -0.53,0.21 -1.09,0.36 -1.68,0.42 -0.59,0.07 -1.07,0.08 -1.44,0.03 -1.35,-0.11 -2.5,-0.33 -3.44,-0.67 -0.95,-0.33 -1.72,-0.8 -2.32,-1.38 -0.6,-0.59 -1.04,-1.33 -1.31,-2.21 -0.27,-0.88 -0.41,-1.92 -0.41,-3.12 0,-1.11 0.21,-2.12 0.62,-3.03 0.42,-0.92 0.97,-1.7 1.67,-2.36 0.7,-0.65 1.52,-1.16 2.47,-1.53 0.94,-0.37 1.95,-0.56 3.02,-0.56 0.43,0 0.9,0.06 1.4,0.18 0.5,0.12 0.97,0.31 1.41,0.56 0.43,0.25 0.8,0.57 1.09,0.96 0.29,0.39 0.44,0.86 0.44,1.41 0,0.65 -0.22,1.22 -0.67,1.69 -0.45,0.48 -0.95,0.75 -1.52,0.79 -0.35,0.02 -0.71,0 -1.09,-0.07 -0.38,-0.06 -0.76,-0.12 -1.14,-0.16 -0.39,-0.04 -0.75,-0.07 -1.1,-0.07 -0.35,0 -0.65,0.08 -0.91,0.23 -0.26,0.16 -0.47,0.41 -0.61,0.75 -0.14,0.35 -0.2,0.84 -0.18,1.47 0.02,0.79 0.22,1.33 0.59,1.62 0.37,0.29 0.82,0.46 1.34,0.51 0.52,0.04 1.09,0.02 1.71,-0.07 0.62,-0.09 1.2,-0.11 1.74,-0.08 0.53,0.03 0.99,0.18 1.38,0.46 0.4,0.27 0.62,0.78 0.69,1.52zm13.98 1.37c0.13,0.63 0.01,1.11 -0.36,1.45 -0.37,0.34 -0.88,0.52 -1.54,0.54 -0.56,0 -1.04,-0.09 -1.43,-0.28 -0.4,-0.18 -0.81,-0.42 -1.25,-0.7 -0.47,0.04 -0.99,0.12 -1.53,0.23 -0.54,0.11 -1.09,0.19 -1.65,0.24 -0.55,0.06 -1.1,0.06 -1.65,0.02 -0.54,-0.04 -1.05,-0.2 -1.53,-0.46 -0.61,-0.32 -1.1,-0.85 -1.46,-1.58 -0.36,-0.73 -0.56,-1.5 -0.62,-2.3 -0.05,-0.81 0.06,-1.58 0.35,-2.32 0.28,-0.74 0.75,-1.3 1.4,-1.67 0.33,-0.17 0.63,-0.32 0.9,-0.44 0.27,-0.12 0.56,-0.21 0.88,-0.28 0.32,-0.06 0.67,-0.12 1.06,-0.16 0.39,-0.04 0.87,-0.08 1.44,-0.1 0.52,-0.54 0.45,-0.93 -0.21,-1.16 -0.67,-0.23 -1.87,-0.12 -3.61,0.31 -0.63,-0.11 -1.06,-0.39 -1.28,-0.85 -0.21,-0.45 -0.27,-0.94 -0.16,-1.47 0.11,-0.52 0.36,-1.01 0.75,-1.48 0.39,-0.47 0.87,-0.77 1.44,-0.9 1.87,-0.33 3.53,-0.33 4.96,0 1.44,0.33 2.58,0.93 3.41,1.8 0.84,0.87 1.34,1.98 1.51,3.33 0.16,1.35 -0.1,2.87 -0.77,4.57 -0.2,0.37 -0.26,0.71 -0.2,1.01 0.07,0.31 0.18,0.6 0.35,0.88 0.16,0.29 0.32,0.57 0.49,0.85 0.16,0.29 0.26,0.59 0.31,0.92zm-7.48 -2.35c0.26,0.08 0.51,0.04 0.77,-0.13 0.25,-0.18 0.43,-0.4 0.53,-0.66 0.11,-0.26 0.12,-0.52 0.02,-0.77 -0.1,-0.25 -0.35,-0.4 -0.77,-0.47 -0.45,-0.09 -0.82,-0.04 -1.09,0.13 -0.27,0.18 -0.44,0.39 -0.49,0.64 -0.06,0.25 0,0.5 0.18,0.77 0.17,0.26 0.46,0.42 0.85,0.49z"/>
   </g>
   <g>
    <path class="fil2 str0" d="M188.75 206.84c-0.4,-0.2 -0.68,-0.48 -0.87,-0.85 -0.18,-0.37 -0.31,-0.77 -0.37,-1.21 -0.22,-1.85 -0.33,-3.7 -0.31,-5.55 0.01,-1.85 0.13,-3.7 0.37,-5.55 0.09,-0.4 0.33,-0.74 0.72,-1.03 0.39,-0.3 0.75,-0.5 1.08,-0.61 0.52,0 1.02,0.14 1.48,0.43 0.47,0.28 0.74,0.72 0.8,1.3 1.37,-0.71 2.56,-1.14 3.56,-1.27 1,-0.13 1.85,-0.04 2.55,0.28 0.7,0.31 1.25,0.83 1.65,1.53 0.4,0.71 0.71,1.54 0.91,2.5 0.21,0.96 0.32,2.02 0.35,3.19 0.02,1.16 0,2.36 -0.07,3.6 -0.06,0.24 -0.12,0.5 -0.16,0.77 -0.05,0.27 -0.1,0.54 -0.17,0.8 -0.06,0.26 -0.16,0.51 -0.29,0.75 -0.13,0.24 -0.3,0.43 -0.52,0.56 -0.48,0.41 -0.94,0.61 -1.39,0.59 -0.45,-0.03 -0.84,-0.18 -1.18,-0.46 -0.33,-0.28 -0.6,-0.66 -0.8,-1.14 -0.19,-0.48 -0.29,-0.97 -0.29,-1.47 -0.02,-0.83 -0.06,-1.55 -0.13,-2.18 -0.07,-0.62 -0.11,-1.35 -0.13,-2.2 -0.02,-0.44 -0.08,-0.84 -0.16,-1.21 -0.09,-0.37 -0.29,-0.67 -0.59,-0.91 -0.39,-0.13 -0.79,-0.1 -1.18,0.11 -0.39,0.21 -0.67,0.51 -0.85,0.9 -0.26,0.63 -0.39,1.28 -0.4,1.96 -0.02,0.67 -0.02,1.35 -0.02,2.04 0,0.69 -0.04,1.36 -0.12,2.03 -0.07,0.66 -0.29,1.3 -0.66,1.91 -0.37,0.32 -0.83,0.5 -1.36,0.52 -0.53,0.02 -1.02,-0.02 -1.45,-0.13zm26.55 -4.12c0,0.9 0.06,1.73 0.19,2.5 0.13,0.77 0.21,1.61 0.23,2.5 0.02,1.2 -0.18,2.2 -0.6,3 -0.43,0.81 -1,1.46 -1.73,1.95 -0.73,0.49 -1.58,0.84 -2.53,1.04 -0.96,0.21 -1.94,0.31 -2.94,0.31 -0.48,0 -1.05,-0.05 -1.7,-0.16 -0.65,-0.11 -1.27,-0.28 -1.85,-0.52 -0.57,-0.24 -1.06,-0.55 -1.45,-0.93 -0.39,-0.39 -0.57,-0.86 -0.52,-1.42 0.04,-0.83 0.25,-1.39 0.63,-1.69 0.39,-0.29 0.84,-0.45 1.38,-0.49 0.53,-0.03 1.1,0.01 1.69,0.13 0.6,0.12 1.16,0.18 1.69,0.18 0.48,0 0.95,-0.06 1.42,-0.18 0.46,-0.12 0.85,-0.29 1.16,-0.52 0.3,-0.23 0.48,-0.52 0.54,-0.88 0.05,-0.36 -0.1,-0.79 -0.45,-1.29 -1.43,0.63 -2.69,0.84 -3.77,0.64 -1.08,-0.21 -1.98,-0.68 -2.71,-1.42 -0.73,-0.74 -1.28,-1.69 -1.65,-2.83 -0.37,-1.14 -0.55,-2.33 -0.55,-3.58 0,-0.69 0.19,-1.4 0.57,-2.12 0.38,-0.72 0.87,-1.36 1.47,-1.94 0.6,-0.58 1.26,-1.05 1.99,-1.42 0.73,-0.37 1.44,-0.56 2.14,-0.56 1.04,0 2.05,0.3 3,0.89 0.11,-0.33 0.24,-0.64 0.38,-0.92 0.14,-0.28 0.32,-0.52 0.54,-0.7 0.22,-0.19 0.5,-0.31 0.85,-0.38 0.35,-0.06 0.79,-0.05 1.34,0.04 0.45,0.08 0.77,0.38 0.94,0.89 0.18,0.52 0.29,1.23 0.33,2.14 0.04,0.92 0.05,2.02 0.02,3.32 -0.04,1.29 -0.05,2.77 -0.05,4.42zm-8.3 -2.41c0.07,0.32 0.27,0.57 0.61,0.75 0.33,0.17 0.69,0.26 1.07,0.26 0.39,0 0.73,-0.1 1.03,-0.3 0.31,-0.19 0.46,-0.49 0.46,-0.88 0,-0.74 -0.2,-1.28 -0.59,-1.63 -0.39,-0.35 -0.8,-0.52 -1.22,-0.51 -0.43,0.01 -0.79,0.22 -1.1,0.61 -0.3,0.39 -0.39,0.96 -0.26,1.7zm22.41 -14.9c0.41,-0.06 0.79,-0.09 1.14,-0.09 0.35,0 0.66,0.08 0.95,0.24 0.28,0.16 0.53,0.44 0.75,0.83 0.21,0.4 0.39,0.94 0.52,1.64 0.15,0.63 0.28,1.41 0.39,2.33 0.11,0.93 0.21,1.88 0.3,2.86 0.08,0.98 0.16,1.9 0.24,2.78 0.08,0.87 0.15,1.54 0.21,2.02 0.16,-0.5 0.29,-0.93 0.41,-1.29 0.12,-0.36 0.26,-0.7 0.41,-1.01 0.15,-0.32 0.31,-0.65 0.49,-1 0.17,-0.35 0.39,-0.75 0.65,-1.21 0.5,-0.74 1.01,-1.12 1.54,-1.14 0.52,-0.02 1.04,0.2 1.55,0.65 0.51,0.46 0.99,1.09 1.45,1.88 0.46,0.8 0.86,1.63 1.21,2.5 0.07,-0.72 0.1,-1.37 0.1,-1.94 0,-0.58 0,-1.17 0.01,-1.77 0.02,-0.6 0.05,-1.24 0.1,-1.94 0.06,-0.7 0.17,-1.52 0.35,-2.48 0.1,-0.96 0.31,-1.74 0.62,-2.35 0.3,-0.61 0.65,-1.07 1.04,-1.38 0.39,-0.3 0.81,-0.45 1.24,-0.45 0.44,0 0.85,0.12 1.23,0.37 0.38,0.25 0.7,0.62 0.96,1.1 0.26,0.48 0.41,1.05 0.46,1.73 -0.09,1.57 -0.17,3.01 -0.25,4.34 -0.07,1.33 -0.16,2.55 -0.26,3.68 -0.1,1.12 -0.21,2.14 -0.33,3.07 -0.12,0.92 -0.27,1.76 -0.47,2.53 -0.15,0.76 -0.32,1.42 -0.51,1.99 -0.18,0.56 -0.41,1.05 -0.7,1.45 -0.28,0.4 -0.63,0.74 -1.06,1.01 -0.42,0.28 -0.94,0.51 -1.55,0.71 -0.83,0.02 -1.51,-0.16 -2.06,-0.54 -0.54,-0.38 -0.99,-0.87 -1.34,-1.47 -0.35,-0.6 -0.62,-1.27 -0.83,-1.99 -0.21,-0.73 -0.4,-1.44 -0.57,-2.11 -0.28,0.65 -0.59,1.41 -0.93,2.29 -0.34,0.87 -0.75,1.64 -1.24,2.33 -0.49,0.69 -1.07,1.18 -1.73,1.49 -0.67,0.3 -1.47,0.24 -2.4,-0.2 -0.31,-0.13 -0.63,-0.53 -0.97,-1.21 -0.33,-0.67 -0.66,-1.51 -0.96,-2.51 -0.31,-1 -0.58,-2.13 -0.83,-3.38 -0.25,-1.25 -0.47,-2.52 -0.64,-3.81 -0.17,-1.28 -0.29,-2.54 -0.34,-3.77 -0.06,-1.23 -0.04,-2.33 0.05,-3.31 0.08,-0.98 0.25,-1.78 0.5,-2.4 0.25,-0.63 0.62,-0.98 1.1,-1.07zm30.79 21c-0.54,0.31 -1.13,0.52 -1.76,0.64 -0.63,0.12 -1.25,0.16 -1.86,0.11 -0.96,-0.1 -1.94,-0.28 -2.93,-0.53 -0.99,-0.26 -1.84,-0.72 -2.56,-1.39 -0.91,-1.05 -1.52,-2.25 -1.81,-3.61 -0.3,-1.36 -0.27,-2.67 0.06,-3.92 0.34,-1.25 0.99,-2.35 1.95,-3.3 0.95,-0.95 2.21,-1.53 3.75,-1.75 0.92,-0.15 1.86,-0.16 2.83,-0.04 0.97,0.11 1.82,0.47 2.56,1.06 0.41,0.39 0.76,0.83 1.03,1.34 0.27,0.5 0.46,1.02 0.55,1.58 0.1,0.55 0.1,1.11 -0.01,1.66 -0.11,0.56 -0.35,1.08 -0.72,1.56 -0.52,0.41 -1.09,0.7 -1.7,0.88 -0.61,0.17 -1.24,0.29 -1.89,0.34 -0.66,0.06 -1.31,0.08 -1.98,0.07 -0.66,-0.01 -1.31,-0.01 -1.94,0.01 0.06,0.39 0.27,0.73 0.6,1 0.34,0.27 0.73,0.42 1.16,0.44 0.42,0.04 0.84,0.04 1.28,0 0.43,-0.04 0.87,-0.08 1.3,-0.11 0.44,-0.04 0.87,-0.04 1.29,0 0.43,0.03 0.84,0.15 1.23,0.37 0.26,0.24 0.44,0.53 0.55,0.87 0.11,0.33 0.15,0.67 0.12,1.01 -0.04,0.34 -0.15,0.66 -0.33,0.96 -0.19,0.31 -0.44,0.56 -0.77,0.75zm-5.78 -8.36c1,0.15 1.72,0.16 2.16,0.02 0.43,-0.14 0.68,-0.34 0.75,-0.59 0.06,-0.25 -0.02,-0.49 -0.25,-0.73 -0.23,-0.24 -0.5,-0.39 -0.83,-0.44 -0.33,-0.06 -0.67,0.04 -1.03,0.29 -0.36,0.25 -0.62,0.73 -0.8,1.45zm17.54 8.26c-0.46,0.4 -0.95,0.65 -1.49,0.76 -0.53,0.11 -1.07,0.11 -1.61,0 -0.55,-0.11 -1.06,-0.32 -1.55,-0.62 -0.49,-0.31 -0.91,-0.68 -1.26,-1.11 -0.57,-0.66 -0.97,-1.36 -1.19,-2.11 -0.23,-0.75 -0.37,-1.53 -0.41,-2.34 -0.05,-0.8 -0.05,-1.61 0,-2.43 0.04,-0.82 0.06,-1.62 0.06,-2.4 -0.48,0 -0.86,-0.23 -1.14,-0.69 -0.28,-0.45 -0.44,-0.94 -0.46,-1.46 -0.02,-0.53 0.12,-1 0.43,-1.41 0.3,-0.41 0.8,-0.6 1.5,-0.55 -0.02,-0.53 -0.04,-1 -0.05,-1.41 -0.01,-0.41 -0.01,-0.8 0,-1.16 0.01,-0.36 0.04,-0.71 0.08,-1.04 0.05,-0.34 0.11,-0.69 0.2,-1.06 0,-0.46 0.13,-0.86 0.41,-1.21 0.27,-0.35 0.61,-0.61 1.01,-0.77 0.4,-0.16 0.82,-0.22 1.26,-0.18 0.43,0.04 0.8,0.23 1.11,0.56 0.24,0.52 0.4,1.02 0.5,1.5 0.1,0.48 0.16,0.96 0.17,1.45 0.01,0.49 0,0.99 -0.02,1.49 -0.02,0.5 -0.03,1.01 -0.03,1.53 0.28,0.05 0.57,0.07 0.86,0.07 0.3,0 0.58,0.02 0.87,0.06 0.28,0.05 0.54,0.14 0.78,0.28 0.24,0.14 0.44,0.36 0.59,0.67 0.2,0.26 0.3,0.58 0.33,0.95 0.02,0.37 -0.04,0.72 -0.17,1.06 -0.13,0.34 -0.32,0.63 -0.57,0.88 -0.25,0.25 -0.53,0.41 -0.83,0.47 -0.22,0.05 -0.41,0.07 -0.57,0.07 -0.17,0 -0.32,-0.01 -0.48,-0.02 -0.15,-0.01 -0.31,-0.01 -0.47,-0.01 -0.16,0 -0.35,0.01 -0.57,0.03 -0.05,0.91 -0.06,1.76 -0.05,2.55 0.01,0.78 0.11,1.62 0.31,2.51 0.15,0.52 0.39,0.87 0.7,1.05 0.32,0.17 0.7,0.37 1.16,0.58 0.31,0.16 0.56,0.37 0.75,0.66 0.2,0.28 0.33,0.59 0.39,0.93 0.07,0.33 0.06,0.67 -0.03,1.01 -0.09,0.34 -0.26,0.63 -0.52,0.86zm14.73 -1.07c0.13,0.63 0.01,1.11 -0.36,1.45 -0.37,0.34 -0.88,0.52 -1.54,0.54 -0.56,0 -1.04,-0.09 -1.43,-0.28 -0.39,-0.18 -0.81,-0.42 -1.24,-0.7 -0.48,0.04 -0.99,0.12 -1.54,0.23 -0.54,0.11 -1.09,0.19 -1.65,0.24 -0.55,0.06 -1.1,0.06 -1.65,0.02 -0.54,-0.04 -1.05,-0.2 -1.53,-0.46 -0.61,-0.32 -1.1,-0.85 -1.46,-1.58 -0.36,-0.73 -0.56,-1.5 -0.62,-2.3 -0.05,-0.81 0.06,-1.58 0.35,-2.32 0.28,-0.74 0.75,-1.3 1.4,-1.67 0.33,-0.17 0.63,-0.32 0.9,-0.44 0.27,-0.12 0.57,-0.21 0.88,-0.28 0.32,-0.06 0.67,-0.12 1.06,-0.16 0.39,-0.04 0.87,-0.08 1.44,-0.1 0.52,-0.54 0.45,-0.93 -0.21,-1.16 -0.67,-0.23 -1.87,-0.12 -3.61,0.31 -0.63,-0.11 -1.06,-0.39 -1.28,-0.85 -0.21,-0.45 -0.27,-0.94 -0.16,-1.47 0.11,-0.52 0.36,-1.01 0.75,-1.48 0.39,-0.47 0.87,-0.77 1.44,-0.9 1.87,-0.33 3.53,-0.33 4.96,0 1.44,0.33 2.58,0.93 3.42,1.8 0.83,0.87 1.33,1.98 1.5,3.33 0.16,1.35 -0.09,2.87 -0.77,4.57 -0.2,0.37 -0.26,0.71 -0.2,1.01 0.07,0.31 0.18,0.6 0.35,0.88 0.16,0.29 0.32,0.57 0.49,0.85 0.16,0.29 0.26,0.59 0.31,0.92zm-7.48 -2.35c0.26,0.08 0.52,0.04 0.77,-0.13 0.25,-0.18 0.43,-0.4 0.54,-0.66 0.1,-0.26 0.11,-0.52 0.01,-0.77 -0.1,-0.25 -0.35,-0.4 -0.77,-0.47 -0.45,-0.09 -0.82,-0.04 -1.09,0.13 -0.27,0.18 -0.44,0.39 -0.49,0.64 -0.05,0.25 0.01,0.5 0.18,0.77 0.17,0.26 0.46,0.42 0.85,0.49zm10.55 3.95c-0.39,-0.2 -0.68,-0.48 -0.87,-0.85 -0.18,-0.37 -0.31,-0.77 -0.37,-1.21 -0.22,-1.85 -0.32,-3.7 -0.31,-5.55 0.01,-1.85 0.13,-3.7 0.37,-5.55 0.09,-0.4 0.33,-0.74 0.72,-1.03 0.39,-0.3 0.75,-0.5 1.08,-0.61 0.52,0 1.02,0.14 1.48,0.43 0.47,0.28 0.74,0.72 0.8,1.3 1.38,-0.71 2.56,-1.14 3.56,-1.27 1.01,-0.13 1.85,-0.04 2.55,0.28 0.7,0.31 1.25,0.83 1.65,1.53 0.4,0.71 0.71,1.54 0.92,2.5 0.2,0.96 0.32,2.02 0.34,3.19 0.02,1.16 0,2.36 -0.07,3.6 -0.06,0.24 -0.12,0.5 -0.16,0.77 -0.04,0.27 -0.1,0.54 -0.16,0.8 -0.07,0.26 -0.17,0.51 -0.3,0.75 -0.13,0.24 -0.3,0.43 -0.52,0.56 -0.48,0.41 -0.94,0.61 -1.39,0.59 -0.44,-0.03 -0.84,-0.18 -1.17,-0.46 -0.34,-0.28 -0.61,-0.66 -0.8,-1.14 -0.2,-0.48 -0.3,-0.97 -0.3,-1.47 -0.02,-0.83 -0.06,-1.55 -0.13,-2.18 -0.06,-0.62 -0.11,-1.35 -0.13,-2.2 -0.02,-0.44 -0.08,-0.84 -0.16,-1.21 -0.09,-0.37 -0.29,-0.67 -0.59,-0.91 -0.39,-0.13 -0.78,-0.1 -1.18,0.11 -0.39,0.21 -0.67,0.51 -0.85,0.9 -0.26,0.63 -0.39,1.28 -0.4,1.96 -0.01,0.67 -0.02,1.35 -0.02,2.04 0,0.69 -0.04,1.36 -0.11,2.03 -0.08,0.66 -0.3,1.3 -0.67,1.91 -0.37,0.32 -0.83,0.5 -1.36,0.52 -0.53,0.02 -1.02,-0.02 -1.45,-0.13z"/>
    <path id="1" class="fil15" d="M188.75 206.84c-0.4,-0.2 -0.68,-0.48 -0.87,-0.85 -0.18,-0.37 -0.31,-0.77 -0.37,-1.21 -0.22,-1.85 -0.33,-3.7 -0.31,-5.55 0.01,-1.85 0.13,-3.7 0.37,-5.55 0.09,-0.4 0.33,-0.74 0.72,-1.03 0.39,-0.3 0.75,-0.5 1.08,-0.61 0.52,0 1.02,0.14 1.48,0.43 0.47,0.28 0.74,0.72 0.8,1.3 1.37,-0.71 2.56,-1.14 3.56,-1.27 1,-0.13 1.85,-0.04 2.55,0.28 0.7,0.31 1.25,0.83 1.65,1.53 0.4,0.71 0.71,1.54 0.91,2.5 0.21,0.96 0.32,2.02 0.35,3.19 0.02,1.16 0,2.36 -0.07,3.6 -0.06,0.24 -0.12,0.5 -0.16,0.77 -0.05,0.27 -0.1,0.54 -0.17,0.8 -0.06,0.26 -0.16,0.51 -0.29,0.75 -0.13,0.24 -0.3,0.43 -0.52,0.56 -0.48,0.41 -0.94,0.61 -1.39,0.59 -0.45,-0.03 -0.84,-0.18 -1.18,-0.46 -0.33,-0.28 -0.6,-0.66 -0.8,-1.14 -0.19,-0.48 -0.29,-0.97 -0.29,-1.47 -0.02,-0.83 -0.06,-1.55 -0.13,-2.18 -0.07,-0.62 -0.11,-1.35 -0.13,-2.2 -0.02,-0.44 -0.08,-0.84 -0.16,-1.21 -0.09,-0.37 -0.29,-0.67 -0.59,-0.91 -0.39,-0.13 -0.79,-0.1 -1.18,0.11 -0.39,0.21 -0.67,0.51 -0.85,0.9 -0.26,0.63 -0.39,1.28 -0.4,1.96 -0.02,0.67 -0.02,1.35 -0.02,2.04 0,0.69 -0.04,1.36 -0.12,2.03 -0.07,0.66 -0.29,1.3 -0.66,1.91 -0.37,0.32 -0.83,0.5 -1.36,0.52 -0.53,0.02 -1.02,-0.02 -1.45,-0.13zm26.55 -4.12c0,0.9 0.06,1.73 0.19,2.5 0.13,0.77 0.21,1.61 0.23,2.5 0.02,1.2 -0.18,2.2 -0.6,3 -0.43,0.81 -1,1.46 -1.73,1.95 -0.73,0.49 -1.58,0.84 -2.53,1.04 -0.96,0.21 -1.94,0.31 -2.94,0.31 -0.48,0 -1.05,-0.05 -1.7,-0.16 -0.65,-0.11 -1.27,-0.28 -1.85,-0.52 -0.57,-0.24 -1.06,-0.55 -1.45,-0.93 -0.39,-0.39 -0.57,-0.86 -0.52,-1.42 0.04,-0.83 0.25,-1.39 0.63,-1.69 0.39,-0.29 0.84,-0.45 1.38,-0.49 0.53,-0.03 1.1,0.01 1.69,0.13 0.6,0.12 1.16,0.18 1.69,0.18 0.48,0 0.95,-0.06 1.42,-0.18 0.46,-0.12 0.85,-0.29 1.16,-0.52 0.3,-0.23 0.48,-0.52 0.54,-0.88 0.05,-0.36 -0.1,-0.79 -0.45,-1.29 -1.43,0.63 -2.69,0.84 -3.77,0.64 -1.08,-0.21 -1.98,-0.68 -2.71,-1.42 -0.73,-0.74 -1.28,-1.69 -1.65,-2.83 -0.37,-1.14 -0.55,-2.33 -0.55,-3.58 0,-0.69 0.19,-1.4 0.57,-2.12 0.38,-0.72 0.87,-1.36 1.47,-1.94 0.6,-0.58 1.26,-1.05 1.99,-1.42 0.73,-0.37 1.44,-0.56 2.14,-0.56 1.04,0 2.05,0.3 3,0.89 0.11,-0.33 0.24,-0.64 0.38,-0.92 0.14,-0.28 0.32,-0.52 0.54,-0.7 0.22,-0.19 0.5,-0.31 0.85,-0.38 0.35,-0.06 0.79,-0.05 1.34,0.04 0.45,0.08 0.77,0.38 0.94,0.89 0.18,0.52 0.29,1.23 0.33,2.14 0.04,0.92 0.05,2.02 0.02,3.32 -0.04,1.29 -0.05,2.77 -0.05,4.42zm-8.3 -2.41c0.07,0.32 0.27,0.57 0.61,0.75 0.33,0.17 0.69,0.26 1.07,0.26 0.39,0 0.73,-0.1 1.03,-0.3 0.31,-0.19 0.46,-0.49 0.46,-0.88 0,-0.74 -0.2,-1.28 -0.59,-1.63 -0.39,-0.35 -0.8,-0.52 -1.22,-0.51 -0.43,0.01 -0.79,0.22 -1.1,0.61 -0.3,0.39 -0.39,0.96 -0.26,1.7zm22.41 -14.9c0.41,-0.06 0.79,-0.09 1.14,-0.09 0.35,0 0.66,0.08 0.95,0.24 0.28,0.16 0.53,0.44 0.75,0.83 0.21,0.4 0.39,0.94 0.52,1.64 0.15,0.63 0.28,1.41 0.39,2.33 0.11,0.93 0.21,1.88 0.3,2.86 0.08,0.98 0.16,1.9 0.24,2.78 0.08,0.87 0.15,1.54 0.21,2.02 0.16,-0.5 0.29,-0.93 0.41,-1.29 0.12,-0.36 0.26,-0.7 0.41,-1.01 0.15,-0.32 0.31,-0.65 0.49,-1 0.17,-0.35 0.39,-0.75 0.65,-1.21 0.5,-0.74 1.01,-1.12 1.54,-1.14 0.52,-0.02 1.04,0.2 1.55,0.65 0.51,0.46 0.99,1.09 1.45,1.88 0.46,0.8 0.86,1.63 1.21,2.5 0.07,-0.72 0.1,-1.37 0.1,-1.94 0,-0.58 0,-1.17 0.01,-1.77 0.02,-0.6 0.05,-1.24 0.1,-1.94 0.06,-0.7 0.17,-1.52 0.35,-2.48 0.1,-0.96 0.31,-1.74 0.62,-2.35 0.3,-0.61 0.65,-1.07 1.04,-1.38 0.39,-0.3 0.81,-0.45 1.24,-0.45 0.44,0 0.85,0.12 1.23,0.37 0.38,0.25 0.7,0.62 0.96,1.1 0.26,0.48 0.41,1.05 0.46,1.73 -0.09,1.57 -0.17,3.01 -0.25,4.34 -0.07,1.33 -0.16,2.55 -0.26,3.68 -0.1,1.12 -0.21,2.14 -0.33,3.07 -0.12,0.92 -0.27,1.76 -0.47,2.53 -0.15,0.76 -0.32,1.42 -0.51,1.99 -0.18,0.56 -0.41,1.05 -0.7,1.45 -0.28,0.4 -0.63,0.74 -1.06,1.01 -0.42,0.28 -0.94,0.51 -1.55,0.71 -0.83,0.02 -1.51,-0.16 -2.06,-0.54 -0.54,-0.38 -0.99,-0.87 -1.34,-1.47 -0.35,-0.6 -0.62,-1.27 -0.83,-1.99 -0.21,-0.73 -0.4,-1.44 -0.57,-2.11 -0.28,0.65 -0.59,1.41 -0.93,2.29 -0.34,0.87 -0.75,1.64 -1.24,2.33 -0.49,0.69 -1.07,1.18 -1.73,1.49 -0.67,0.3 -1.47,0.24 -2.4,-0.2 -0.31,-0.13 -0.63,-0.53 -0.97,-1.21 -0.33,-0.67 -0.66,-1.51 -0.96,-2.51 -0.31,-1 -0.58,-2.13 -0.83,-3.38 -0.25,-1.25 -0.47,-2.52 -0.64,-3.81 -0.17,-1.28 -0.29,-2.54 -0.34,-3.77 -0.06,-1.23 -0.04,-2.33 0.05,-3.31 0.08,-0.98 0.25,-1.78 0.5,-2.4 0.25,-0.63 0.62,-0.98 1.1,-1.07zm30.79 21c-0.54,0.31 -1.13,0.52 -1.76,0.64 -0.63,0.12 -1.25,0.16 -1.86,0.11 -0.96,-0.1 -1.94,-0.28 -2.93,-0.53 -0.99,-0.26 -1.84,-0.72 -2.56,-1.39 -0.91,-1.05 -1.52,-2.25 -1.81,-3.61 -0.3,-1.36 -0.27,-2.67 0.06,-3.92 0.34,-1.25 0.99,-2.35 1.95,-3.3 0.95,-0.95 2.21,-1.53 3.75,-1.75 0.92,-0.15 1.86,-0.16 2.83,-0.04 0.97,0.11 1.82,0.47 2.56,1.06 0.41,0.39 0.76,0.83 1.03,1.34 0.27,0.5 0.46,1.02 0.55,1.58 0.1,0.55 0.1,1.11 -0.01,1.66 -0.11,0.56 -0.35,1.08 -0.72,1.56 -0.52,0.41 -1.09,0.7 -1.7,0.88 -0.61,0.17 -1.24,0.29 -1.89,0.34 -0.66,0.06 -1.31,0.08 -1.98,0.07 -0.66,-0.01 -1.31,-0.01 -1.94,0.01 0.06,0.39 0.27,0.73 0.6,1 0.34,0.27 0.73,0.42 1.16,0.44 0.42,0.04 0.84,0.04 1.28,0 0.43,-0.04 0.87,-0.08 1.3,-0.11 0.44,-0.04 0.87,-0.04 1.29,0 0.43,0.03 0.84,0.15 1.23,0.37 0.26,0.24 0.44,0.53 0.55,0.87 0.11,0.33 0.15,0.67 0.12,1.01 -0.04,0.34 -0.15,0.66 -0.33,0.96 -0.19,0.31 -0.44,0.56 -0.77,0.75zm-5.78 -8.36c1,0.15 1.72,0.16 2.16,0.02 0.43,-0.14 0.68,-0.34 0.75,-0.59 0.06,-0.25 -0.02,-0.49 -0.25,-0.73 -0.23,-0.24 -0.5,-0.39 -0.83,-0.44 -0.33,-0.06 -0.67,0.04 -1.03,0.29 -0.36,0.25 -0.62,0.73 -0.8,1.45zm17.54 8.26c-0.46,0.4 -0.95,0.65 -1.49,0.76 -0.53,0.11 -1.07,0.11 -1.61,0 -0.55,-0.11 -1.06,-0.32 -1.55,-0.62 -0.49,-0.31 -0.91,-0.68 -1.26,-1.11 -0.57,-0.66 -0.97,-1.36 -1.19,-2.11 -0.23,-0.75 -0.37,-1.53 -0.41,-2.34 -0.05,-0.8 -0.05,-1.61 0,-2.43 0.04,-0.82 0.06,-1.62 0.06,-2.4 -0.48,0 -0.86,-0.23 -1.14,-0.69 -0.28,-0.45 -0.44,-0.94 -0.46,-1.46 -0.02,-0.53 0.12,-1 0.43,-1.41 0.3,-0.41 0.8,-0.6 1.5,-0.55 -0.02,-0.53 -0.04,-1 -0.05,-1.41 -0.01,-0.41 -0.01,-0.8 0,-1.16 0.01,-0.36 0.04,-0.71 0.08,-1.04 0.05,-0.34 0.11,-0.69 0.2,-1.06 0,-0.46 0.13,-0.86 0.41,-1.21 0.27,-0.35 0.61,-0.61 1.01,-0.77 0.4,-0.16 0.82,-0.22 1.26,-0.18 0.43,0.04 0.8,0.23 1.11,0.56 0.24,0.52 0.4,1.02 0.5,1.5 0.1,0.48 0.16,0.96 0.17,1.45 0.01,0.49 0,0.99 -0.02,1.49 -0.02,0.5 -0.03,1.01 -0.03,1.53 0.28,0.05 0.57,0.07 0.86,0.07 0.3,0 0.58,0.02 0.87,0.06 0.28,0.05 0.54,0.14 0.78,0.28 0.24,0.14 0.44,0.36 0.59,0.67 0.2,0.26 0.3,0.58 0.33,0.95 0.02,0.37 -0.04,0.72 -0.17,1.06 -0.13,0.34 -0.32,0.63 -0.57,0.88 -0.25,0.25 -0.53,0.41 -0.83,0.47 -0.22,0.05 -0.41,0.07 -0.57,0.07 -0.17,0 -0.32,-0.01 -0.48,-0.02 -0.15,-0.01 -0.31,-0.01 -0.47,-0.01 -0.16,0 -0.35,0.01 -0.57,0.03 -0.05,0.91 -0.06,1.76 -0.05,2.55 0.01,0.78 0.11,1.62 0.31,2.51 0.15,0.52 0.39,0.87 0.7,1.05 0.32,0.17 0.7,0.37 1.16,0.58 0.31,0.16 0.56,0.37 0.75,0.66 0.2,0.28 0.33,0.59 0.39,0.93 0.07,0.33 0.06,0.67 -0.03,1.01 -0.09,0.34 -0.26,0.63 -0.52,0.86zm14.73 -1.07c0.13,0.63 0.01,1.11 -0.36,1.45 -0.37,0.34 -0.88,0.52 -1.54,0.54 -0.56,0 -1.04,-0.09 -1.43,-0.28 -0.39,-0.18 -0.81,-0.42 -1.24,-0.7 -0.48,0.04 -0.99,0.12 -1.54,0.23 -0.54,0.11 -1.09,0.19 -1.65,0.24 -0.55,0.06 -1.1,0.06 -1.65,0.02 -0.54,-0.04 -1.05,-0.2 -1.53,-0.46 -0.61,-0.32 -1.1,-0.85 -1.46,-1.58 -0.36,-0.73 -0.56,-1.5 -0.62,-2.3 -0.05,-0.81 0.06,-1.58 0.35,-2.32 0.28,-0.74 0.75,-1.3 1.4,-1.67 0.33,-0.17 0.63,-0.32 0.9,-0.44 0.27,-0.12 0.57,-0.21 0.88,-0.28 0.32,-0.06 0.67,-0.12 1.06,-0.16 0.39,-0.04 0.87,-0.08 1.44,-0.1 0.52,-0.54 0.45,-0.93 -0.21,-1.16 -0.67,-0.23 -1.87,-0.12 -3.61,0.31 -0.63,-0.11 -1.06,-0.39 -1.28,-0.85 -0.21,-0.45 -0.27,-0.94 -0.16,-1.47 0.11,-0.52 0.36,-1.01 0.75,-1.48 0.39,-0.47 0.87,-0.77 1.44,-0.9 1.87,-0.33 3.53,-0.33 4.96,0 1.44,0.33 2.58,0.93 3.42,1.8 0.83,0.87 1.33,1.98 1.5,3.33 0.16,1.35 -0.09,2.87 -0.77,4.57 -0.2,0.37 -0.26,0.71 -0.2,1.01 0.07,0.31 0.18,0.6 0.35,0.88 0.16,0.29 0.32,0.57 0.49,0.85 0.16,0.29 0.26,0.59 0.31,0.92zm-7.48 -2.35c0.26,0.08 0.52,0.04 0.77,-0.13 0.25,-0.18 0.43,-0.4 0.54,-0.66 0.1,-0.26 0.11,-0.52 0.01,-0.77 -0.1,-0.25 -0.35,-0.4 -0.77,-0.47 -0.45,-0.09 -0.82,-0.04 -1.09,0.13 -0.27,0.18 -0.44,0.39 -0.49,0.64 -0.05,0.25 0.01,0.5 0.18,0.77 0.17,0.26 0.46,0.42 0.85,0.49zm10.55 3.95c-0.39,-0.2 -0.68,-0.48 -0.87,-0.85 -0.18,-0.37 -0.31,-0.77 -0.37,-1.21 -0.22,-1.85 -0.32,-3.7 -0.31,-5.55 0.01,-1.85 0.13,-3.7 0.37,-5.55 0.09,-0.4 0.33,-0.74 0.72,-1.03 0.39,-0.3 0.75,-0.5 1.08,-0.61 0.52,0 1.02,0.14 1.48,0.43 0.47,0.28 0.74,0.72 0.8,1.3 1.38,-0.71 2.56,-1.14 3.56,-1.27 1.01,-0.13 1.85,-0.04 2.55,0.28 0.7,0.31 1.25,0.83 1.65,1.53 0.4,0.71 0.71,1.54 0.92,2.5 0.2,0.96 0.32,2.02 0.34,3.19 0.02,1.16 0,2.36 -0.07,3.6 -0.06,0.24 -0.12,0.5 -0.16,0.77 -0.04,0.27 -0.1,0.54 -0.16,0.8 -0.07,0.26 -0.17,0.51 -0.3,0.75 -0.13,0.24 -0.3,0.43 -0.52,0.56 -0.48,0.41 -0.94,0.61 -1.39,0.59 -0.44,-0.03 -0.84,-0.18 -1.17,-0.46 -0.34,-0.28 -0.61,-0.66 -0.8,-1.14 -0.2,-0.48 -0.3,-0.97 -0.3,-1.47 -0.02,-0.83 -0.06,-1.55 -0.13,-2.18 -0.06,-0.62 -0.11,-1.35 -0.13,-2.2 -0.02,-0.44 -0.08,-0.84 -0.16,-1.21 -0.09,-0.37 -0.29,-0.67 -0.59,-0.91 -0.39,-0.13 -0.78,-0.1 -1.18,0.11 -0.39,0.21 -0.67,0.51 -0.85,0.9 -0.26,0.63 -0.39,1.28 -0.4,1.96 -0.01,0.67 -0.02,1.35 -0.02,2.04 0,0.69 -0.04,1.36 -0.11,2.03 -0.08,0.66 -0.3,1.3 -0.67,1.91 -0.37,0.32 -0.83,0.5 -1.36,0.52 -0.53,0.02 -1.02,-0.02 -1.45,-0.13z"/>
   </g>
  </g>
 </g>
</svg>
