<?xml version="1.0" encoding="UTF-8"?>
<!DOCTYPE svg PUBLIC "-//W3C//DTD SVG 1.1//EN" "http://www.w3.org/Graphics/SVG/1.1/DTD/svg11.dtd">
<!-- Creator: CorelDRAW 2017 -->
<svg xmlns="http://www.w3.org/2000/svg" xml:space="preserve" width="112.39mm" height="74.9184mm" version="1.1" style="shape-rendering:geometricPrecision; text-rendering:geometricPrecision; image-rendering:optimizeQuality; fill-rule:evenodd; clip-rule:evenodd"
viewBox="0 0 19982.4 13320.13"
 xmlns:xlink="http://www.w3.org/1999/xlink">
 <defs>
  <style type="text/css">
   <![CDATA[
    .str0 {stroke:black;stroke-width:355.59;stroke-linecap:round;stroke-linejoin:round;stroke-miterlimit:22.9256}
    .str1 {stroke:white;stroke-width:355.59;stroke-linecap:round;stroke-linejoin:round;stroke-miterlimit:22.9256}
    .fil2 {fill:none;fill-rule:nonzero}
    .fil6 {fill:#007E85}
    .fil5 {fill:#008F96}
    .fil4 {fill:#009EA6}
    .fil0 {fill:#00B0B9}
    .fil13 {fill:#031E1F}
    .fil12 {fill:#04292B}
    .fil11 {fill:#093133}
    .fil10 {fill:#0B3D40}
    .fil7 {fill:#0D666B}
    .fil1 {fill:#0F6D72}
    .fil9 {fill:#104A4D}
    .fil8 {fill:#155659}
    .fil14 {fill:black;fill-rule:nonzero}
    .fil3 {fill:black;fill-rule:nonzero}
    .fil15 {fill:#00CCFF;fill-rule:nonzero}
   ]]>
  </style>
   <clipPath id="id0" style="clip-rule:nonzero">
    <path d="M7019.69 10070.74c532.32,0 1175.24,-676.65 1698.19,-1906.25 236.17,-566.06 417.98,-1171.49 537.94,-1803.15 73.11,-384.25 110.59,-746.01 110.59,-1092.76 0,-982.18 -281.15,-1670.08 -841.59,-2048.7l-22.49 0c-97.47,-59.99 -185.56,-88.1 -262.41,-88.1 -198.69,0 -318.64,193.07 -358.01,577.3 22.49,48.73 56.24,76.86 104.97,93.73 329.88,59.97 582.92,296.14 642.91,691.64 43.12,181.81 65.61,384.25 65.61,609.16 0,236.18 -33.75,560.45 -104.97,978.44 -71.22,417.98 -202.44,901.56 -395.49,1445.14 -191.18,543.57 -389.87,987.79 -603.56,1334.57 -181.81,290.52 -341.14,432.97 -477.97,432.97 -22.49,0 -43.1,-5.62 -65.59,-9.37 -125.59,-22.49 -224.93,-318.64 -296.15,-890.33 -33.75,-247.42 -50.62,-566.06 -50.62,-955.93 0,-500.46 28.13,-1115.26 82.48,-1846.26l0 -31.86c0,-67.47 -31.86,-127.46 -103.09,-187.45 -61.85,-11.24 -116.22,-16.85 -170.58,-16.85 -219.31,0 -423.61,99.33 -609.18,296.15 -187.43,198.67 -352.37,472.33 -500.46,824.72 -148.07,352.39 -273.66,697.26 -378.61,1032.78 -16.87,-236.17 -110.59,-912.82 -275.55,-2020.57 -213.67,-1439.54 -526.7,-2451.69 -927.81,-3032.76 -247.42,-346.75 -498.59,-515.45 -768.5,-515.45 -136.83,0 -284.9,48.73 -432.98,148.07 -236.17,159.32 -477.97,558.58 -725.37,1201.49 -16.87,59.99 -28.13,110.59 -28.13,159.32 0,142.45 198.69,358.01 588.56,637.29l26.24 5.62c39.36,0 71.22,-22.49 88.1,-65.61 193.07,-867.84 384.25,-1302.69 577.3,-1302.69 241.8,0 489.22,659.78 714.15,1911.87 114.34,626.03 213.67,1285.83 296.15,1983.09 88.1,697.28 153.69,1328.93 202.42,1900.63 50.62,571.68 82.48,984.04 93.73,1231.46 28.11,82.46 71.22,136.83 142.45,174.31 104.95,22.49 193.05,33.75 275.53,33.75 284.9,0 449.86,-142.45 489.22,-429.23l9.37 -20.62c121.83,-856.58 286.77,-1593.22 489.2,-2213.64l39.36 -133.08c14.99,935.31 108.72,1626.97 284.9,2082.43 208.06,549.19 489.22,824.74 839.73,824.74zm4646.59 -134.96c37.48,0 76.84,-5.62 119.96,-11.24 93.72,-5.64 170.56,-11.25 219.29,-11.25 50.62,0 76.86,0 104.97,-71.22 28.11,-28.11 37.5,-59.97 37.5,-99.33 0,-22.49 -3.75,-43.12 -9.39,-65.61 -82.46,-119.96 -138.7,-196.82 -170.56,-224.93 -127.46,-191.18 -275.53,-389.87 -440.49,-597.93 -196.8,-247.42 -384.23,-504.21 -558.56,-774.12 202.44,-301.77 410.49,-597.93 631.67,-877.21 136.83,-170.58 256.79,-335.52 367.38,-489.22 22.49,-37.48 76.84,-103.09 142.45,-191.18l28.11 -33.75 5.64 -54.35c0,-82.46 -56.24,-181.81 -127.46,-181.81l-22.49 0c-76.86,0 -148.09,-5.62 -213.69,-14.99l-103.09 -5.64c-56.24,0 -104.97,5.64 -144.32,15.01 -76.86,16.87 -174.33,116.21 -290.54,296.15 -71.22,104.95 -164.94,221.18 -284.9,346.75 -170.58,202.44 -341.14,410.49 -500.46,631.67l-119.98 157.44c0,-37.48 0,-71.22 5.64,-103.09 48.73,-566.06 76.84,-1180.86 76.84,-1844.39 0,-552.94 -33.75,-1019.66 -104.97,-1387.03 -20.61,-93.72 -48.73,-133.08 -140.56,-133.08l-28.13 0c-48.73,5.62 -91.85,11.24 -140.58,11.24 -48.73,0 -91.83,-5.62 -142.45,-11.24l-20.61 0c-119.98,0 -179.95,56.24 -179.95,170.56 28.11,378.63 37.48,768.5 37.48,1175.24 0,492.95 -14.99,1173.36 -54.35,2041.19 -16.87,444.24 -31.86,865.97 -37.48,1255.84l-16.87 774.12c0,174.31 22.49,262.41 59.97,262.41 114.34,28.11 208.06,44.98 288.67,44.98 125.58,0 211.79,-39.36 256.79,-110.59 59.97,-108.7 91.83,-339.25 91.83,-686.02l0 -114.34c43.12,-88.08 91.85,-170.56 146.2,-253.04l56.24 -93.72c148.09,208.06 307.41,406.74 477.97,592.31 131.21,153.7 230.55,281.15 301.77,384.25 103.1,159.32 179.95,241.78 236.18,258.66 59.97,16.87 108.7,22.49 159.32,22.49zm3154.58 11.25c159.32,-28.13 273.64,-121.84 344.87,-281.17 71.24,-159.32 121.84,-328.01 153.7,-504.21l33.75 -131.2c59.97,-292.4 119.96,-582.94 170.56,-873.47 82.48,-558.56 208.06,-1107.75 389.87,-1640.07l20.62 -59.99c16.87,-33.73 22.49,-61.85 22.49,-88.1 0,-22.49 16.87,-56.22 -136.83,-99.33 -59.97,-22.49 -116.21,-33.75 -170.56,-33.75 -159.32,0 -284.92,93.72 -378.63,281.17 -5.62,5.62 -5.62,14.99 -5.62,26.24 -125.58,412.36 -247.42,955.93 -373,1619.46l-71.22 341.14c-39.36,179.93 -76.86,284.9 -110.59,311.14 -37.5,-14.99 -99.35,-191.18 -176.19,-526.7 -26.24,-125.58 -54.37,-251.17 -88.1,-367.38l-43.12 -236.17c0,-108.72 -54.35,-163.07 -159.32,-163.07 -93.72,0 -202.44,54.35 -318.64,163.07l-76.84 378.61c-37.5,181.81 -82.48,369.26 -136.83,549.19l-16.87 39.36c-33.75,97.47 -59.99,153.7 -82.48,163.07 -37.48,-26.24 -88.1,-202.44 -148.07,-526.7 -131.21,-663.53 -247.42,-1162.12 -341.14,-1508.88 -37.5,-159.32 -65.61,-247.42 -71.22,-262.41 -93.72,-187.45 -219.31,-281.17 -378.63,-281.17 -48.73,0 -104.97,11.25 -164.94,33.75 -93.72,28.11 -136.83,59.97 -136.83,99.33 0,20.62 11.25,71.22 39.36,148.09 179.95,532.32 307.39,1081.51 389.87,1634.45 48.73,296.15 108.72,586.69 168.69,879.09l33.75 131.2c31.86,176.19 82.46,344.89 153.69,504.21 71.24,159.32 191.2,253.04 350.52,281.17 253.04,0 472.33,-412.36 654.14,-1229.6 88.1,356.12 187.45,657.91 296.15,916.57 93.73,208.06 215.56,313.03 363.64,313.03z"/>
   </clipPath>
   <clipPath id="id1" style="clip-rule:nonzero">
    <path d="M7232.48 9972.41c532.32,0 1175.24,-676.65 1698.19,-1906.25 236.17,-566.06 417.98,-1171.49 537.94,-1803.15 73.11,-384.25 110.59,-746.01 110.59,-1092.76 0,-982.18 -281.15,-1670.08 -841.59,-2048.7l-22.49 0c-97.47,-59.99 -185.56,-88.1 -262.41,-88.1 -198.69,0 -318.64,193.07 -358.01,577.3 22.49,48.73 56.24,76.86 104.97,93.73 329.88,59.97 582.92,296.14 642.91,691.64 43.12,181.81 65.61,384.25 65.61,609.16 0,236.18 -33.75,560.45 -104.97,978.44 -71.22,417.98 -202.44,901.56 -395.49,1445.14 -191.18,543.57 -389.87,987.79 -603.56,1334.57 -181.81,290.52 -341.14,432.97 -477.97,432.97 -22.49,0 -43.1,-5.62 -65.59,-9.37 -125.59,-22.49 -224.93,-318.64 -296.15,-890.33 -33.75,-247.42 -50.62,-566.06 -50.62,-955.93 0,-500.46 28.13,-1115.26 82.48,-1846.26l0 -31.86c0,-67.47 -31.86,-127.46 -103.09,-187.45 -61.85,-11.24 -116.22,-16.85 -170.58,-16.85 -219.31,0 -423.61,99.33 -609.18,296.15 -187.43,198.67 -352.37,472.33 -500.46,824.72 -148.07,352.39 -273.66,697.26 -378.61,1032.78 -16.87,-236.17 -110.59,-912.82 -275.55,-2020.57 -213.67,-1439.54 -526.7,-2451.69 -927.81,-3032.76 -247.42,-346.75 -498.59,-515.45 -768.5,-515.45 -136.83,0 -284.9,48.73 -432.98,148.07 -236.17,159.32 -477.97,558.58 -725.37,1201.49 -16.87,59.99 -28.13,110.59 -28.13,159.32 0,142.45 198.69,358.01 588.56,637.29l26.24 5.62c39.36,0 71.22,-22.49 88.1,-65.61 193.07,-867.84 384.25,-1302.69 577.3,-1302.69 241.8,0 489.22,659.78 714.15,1911.87 114.34,626.03 213.67,1285.83 296.15,1983.09 88.1,697.28 153.69,1328.93 202.42,1900.63 50.62,571.68 82.48,984.04 93.73,1231.46 28.11,82.46 71.22,136.83 142.45,174.31 104.95,22.49 193.05,33.75 275.53,33.75 284.9,0 449.86,-142.45 489.22,-429.23l9.37 -20.62c121.83,-856.58 286.77,-1593.22 489.2,-2213.64l39.36 -133.08c14.99,935.31 108.72,1626.97 284.9,2082.43 208.06,549.19 489.22,824.74 839.73,824.74zm4646.59 -134.96c37.48,0 76.84,-5.62 119.96,-11.24 93.72,-5.64 170.56,-11.25 219.29,-11.25 50.62,0 76.86,0 104.97,-71.22 28.11,-28.11 37.5,-59.97 37.5,-99.33 0,-22.49 -3.75,-43.12 -9.39,-65.61 -82.46,-119.96 -138.7,-196.82 -170.56,-224.93 -127.46,-191.18 -275.53,-389.87 -440.49,-597.93 -196.8,-247.42 -384.23,-504.21 -558.56,-774.12 202.44,-301.77 410.49,-597.93 631.67,-877.21 136.83,-170.58 256.79,-335.52 367.38,-489.22 22.49,-37.48 76.84,-103.09 142.45,-191.18l28.11 -33.75 5.64 -54.35c0,-82.46 -56.24,-181.81 -127.46,-181.81l-22.49 0c-76.86,0 -148.09,-5.62 -213.69,-14.99l-103.09 -5.64c-56.24,0 -104.97,5.64 -144.32,15.01 -76.86,16.87 -174.33,116.21 -290.54,296.15 -71.22,104.95 -164.94,221.18 -284.9,346.75 -170.58,202.44 -341.14,410.49 -500.46,631.67l-119.98 157.44c0,-37.48 0,-71.22 5.64,-103.09 48.73,-566.06 76.84,-1180.86 76.84,-1844.39 0,-552.94 -33.75,-1019.66 -104.97,-1387.03 -20.61,-93.72 -48.73,-133.08 -140.56,-133.08l-28.13 0c-48.73,5.62 -91.85,11.24 -140.58,11.24 -48.73,0 -91.83,-5.62 -142.45,-11.24l-20.61 0c-119.98,0 -179.95,56.24 -179.95,170.56 28.11,378.63 37.48,768.5 37.48,1175.24 0,492.95 -14.99,1173.36 -54.35,2041.19 -16.87,444.24 -31.86,865.97 -37.48,1255.84l-16.87 774.12c0,174.31 22.49,262.41 59.97,262.41 114.34,28.11 208.06,44.98 288.67,44.98 125.58,0 211.79,-39.36 256.79,-110.59 59.97,-108.7 91.83,-339.25 91.83,-686.02l0 -114.34c43.12,-88.08 91.85,-170.56 146.2,-253.04l56.24 -93.72c148.09,208.06 307.41,406.74 477.97,592.31 131.21,153.7 230.55,281.15 301.77,384.25 103.1,159.32 179.95,241.78 236.18,258.66 59.97,16.87 108.7,22.49 159.32,22.49zm3154.58 11.25c159.32,-28.13 273.64,-121.84 344.87,-281.17 71.24,-159.32 121.84,-328.01 153.7,-504.21l33.75 -131.2c59.97,-292.4 119.96,-582.94 170.56,-873.47 82.48,-558.56 208.06,-1107.75 389.87,-1640.07l20.62 -59.99c16.87,-33.73 22.49,-61.85 22.49,-88.1 0,-22.49 16.87,-56.22 -136.83,-99.33 -59.97,-22.49 -116.21,-33.75 -170.56,-33.75 -159.32,0 -284.92,93.72 -378.63,281.17 -5.62,5.62 -5.62,14.99 -5.62,26.24 -125.58,412.36 -247.42,955.93 -373,1619.46l-71.22 341.14c-39.36,179.93 -76.86,284.9 -110.59,311.14 -37.5,-14.99 -99.35,-191.18 -176.19,-526.7 -26.24,-125.58 -54.37,-251.17 -88.1,-367.38l-43.12 -236.17c0,-108.72 -54.35,-163.07 -159.32,-163.07 -93.72,0 -202.44,54.35 -318.64,163.07l-76.84 378.61c-37.5,181.81 -82.48,369.26 -136.83,549.19l-16.87 39.36c-33.75,97.47 -59.99,153.7 -82.48,163.07 -37.48,-26.24 -88.1,-202.44 -148.07,-526.7 -131.21,-663.53 -247.42,-1162.12 -341.14,-1508.88 -37.5,-159.32 -65.61,-247.42 -71.22,-262.41 -93.72,-187.45 -219.31,-281.17 -378.63,-281.17 -48.73,0 -104.97,11.25 -164.94,33.75 -93.72,28.11 -136.83,59.97 -136.83,99.33 0,20.62 11.25,71.22 39.36,148.09 179.95,532.32 307.39,1081.51 389.87,1634.45 48.73,296.15 108.72,586.69 168.69,879.09l33.75 131.2c31.86,176.19 82.46,344.89 153.69,504.21 71.24,159.32 191.2,253.04 350.52,281.17 253.04,0 472.33,-412.36 654.14,-1229.6 88.1,356.12 187.45,657.91 296.15,916.57 93.73,208.06 215.56,313.03 363.64,313.03z"/>
   </clipPath>
 </defs>
 <g id="Layer_x0020_1">
  <metadata id="CorelCorpID_0Corel-Layer"/>
  <g id="_2070682878384">
   <polygon class="fil0" points="4606.62,1167.69 2511.78,4550.28 850.06,4550.28 2944.89,1167.69 "/>
   <polygon class="fil1" points="5877.53,1798.75 3782.7,5181.34 2120.97,5181.34 4215.81,1798.75 "/>
   <polygon class="fil1" points="5911.64,4426.92 3816.8,7809.51 2155.07,7809.51 4249.91,4426.92 "/>
   <polygon class="fil1" points="8006.47,1044.33 5911.64,4426.92 4249.91,4426.92 6344.74,1044.33 "/>
   <polygon class="fil1" points="7113.14,5170.05 5018.3,8552.64 3356.58,8552.64 5451.41,5170.05 "/>
   <polygon class="fil1" points="9207.97,1787.46 7113.14,5170.05 5451.41,5170.05 7546.25,1787.46 "/>
   <polygon class="fil1" points="9881.85,3382.59 7787.02,6765.18 6125.29,6765.18 8220.13,3382.59 "/>
   <polygon class="fil1" points="11976.69,0 9881.85,3382.59 8220.13,3382.59 10314.96,0 "/>
   <polygon class="fil1" points="5018.3,8552.64 2923.47,11935.23 1261.74,11935.23 3356.58,8552.64 "/>
   <polygon class="fil1" points="7787.02,6765.18 5692.18,10147.76 4030.46,10147.76 6125.29,6765.18 "/>
   <g>
    <polygon class="fil1" points="11031.94,4208.77 8937.1,7591.35 7275.38,7591.35 9370.21,4208.77 "/>
    <polygon class="fil1" points="13126.78,826.18 11031.94,4208.77 9370.21,4208.77 11465.05,826.18 "/>
    <polygon class="fil1" points="8937.1,7591.35 6842.27,10973.94 5180.54,10973.94 7275.38,7591.35 "/>
   </g>
   <g>
    <polygon class="fil1" points="12003.04,5323.95 9908.2,8706.54 8246.48,8706.54 10341.31,5323.95 "/>
    <polygon class="fil1" points="14097.87,1941.36 12003.04,5323.95 10341.31,5323.95 12436.15,1941.36 "/>
    <polygon class="fil1" points="9908.2,8706.54 7813.37,12089.13 6151.64,12089.13 8246.48,8706.54 "/>
   </g>
   <g>
    <polygon class="fil1" points="12974.14,6439.14 10879.3,9821.72 9217.58,9821.72 11312.41,6439.14 "/>
    <polygon class="fil1" points="15068.97,3056.55 12974.14,6439.14 11312.41,6439.14 13407.25,3056.55 "/>
    <polygon class="fil1" points="10879.3,9821.72 8784.47,13204.31 7122.74,13204.31 9217.58,9821.72 "/>
   </g>
   <g>
    <polygon class="fil1" points="15391.81,5218.5 13296.98,8601.09 11635.25,8601.09 13730.09,5218.5 "/>
    <polygon class="fil1" points="17486.65,1835.91 15391.81,5218.5 13730.09,5218.5 15824.92,1835.91 "/>
    <polygon class="fil1" points="13296.98,8601.09 11202.14,11983.68 9540.42,11983.68 11635.25,8601.09 "/>
   </g>
   <g>
    <polygon class="fil1" points="16639.69,5886.73 14544.85,9269.31 12883.13,9269.31 14977.96,5886.73 "/>
    <polygon class="fil1" points="18734.52,2504.14 16639.69,5886.73 14977.96,5886.73 17072.8,2504.14 "/>
    <polygon class="fil1" points="14544.85,9269.31 12450.02,12651.9 10788.29,12651.9 12883.13,9269.31 "/>
   </g>
   <g>
    <polygon class="fil1" points="17887.56,6554.95 15792.72,9937.54 14131,9937.54 16225.83,6554.95 "/>
    <polygon class="fil1" points="19982.4,3172.36 17887.56,6554.95 16225.83,6554.95 18320.67,3172.36 "/>
    <polygon class="fil1" points="15792.72,9937.54 13697.89,13320.13 12036.16,13320.13 14131,9937.54 "/>
   </g>
  </g>
  <g>
   <path class="fil2 str0" d="M7019.69 10070.74c532.32,0 1175.24,-676.65 1698.19,-1906.25 236.17,-566.06 417.98,-1171.49 537.94,-1803.15 73.11,-384.25 110.59,-746.01 110.59,-1092.76 0,-982.18 -281.15,-1670.08 -841.59,-2048.7l-22.49 0c-97.47,-59.99 -185.56,-88.1 -262.41,-88.1 -198.69,0 -318.64,193.07 -358.01,577.3 22.49,48.73 56.24,76.86 104.97,93.73 329.88,59.97 582.92,296.14 642.91,691.64 43.12,181.81 65.61,384.25 65.61,609.16 0,236.18 -33.75,560.45 -104.97,978.44 -71.22,417.98 -202.44,901.56 -395.49,1445.14 -191.18,543.57 -389.87,987.79 -603.56,1334.57 -181.81,290.52 -341.14,432.97 -477.97,432.97 -22.49,0 -43.1,-5.62 -65.59,-9.37 -125.59,-22.49 -224.93,-318.64 -296.15,-890.33 -33.75,-247.42 -50.62,-566.06 -50.62,-955.93 0,-500.46 28.13,-1115.26 82.48,-1846.26l0 -31.86c0,-67.47 -31.86,-127.46 -103.09,-187.45 -61.85,-11.24 -116.22,-16.85 -170.58,-16.85 -219.31,0 -423.61,99.33 -609.18,296.15 -187.43,198.67 -352.37,472.33 -500.46,824.72 -148.07,352.39 -273.66,697.26 -378.61,1032.78 -16.87,-236.17 -110.59,-912.82 -275.55,-2020.57 -213.67,-1439.54 -526.7,-2451.69 -927.81,-3032.76 -247.42,-346.75 -498.59,-515.45 -768.5,-515.45 -136.83,0 -284.9,48.73 -432.98,148.07 -236.17,159.32 -477.97,558.58 -725.37,1201.49 -16.87,59.99 -28.13,110.59 -28.13,159.32 0,142.45 198.69,358.01 588.56,637.29l26.24 5.62c39.36,0 71.22,-22.49 88.1,-65.61 193.07,-867.84 384.25,-1302.69 577.3,-1302.69 241.8,0 489.22,659.78 714.15,1911.87 114.34,626.03 213.67,1285.83 296.15,1983.09 88.1,697.28 153.69,1328.93 202.42,1900.63 50.62,571.68 82.48,984.04 93.73,1231.46 28.11,82.46 71.22,136.83 142.45,174.31 104.95,22.49 193.05,33.75 275.53,33.75 284.9,0 449.86,-142.45 489.22,-429.23l9.37 -20.62c121.83,-856.58 286.77,-1593.22 489.2,-2213.64l39.36 -133.08c14.99,935.31 108.72,1626.97 284.9,2082.43 208.06,549.19 489.22,824.74 839.73,824.74zm4646.59 -134.96c37.48,0 76.84,-5.62 119.96,-11.24 93.72,-5.64 170.56,-11.25 219.29,-11.25 50.62,0 76.86,0 104.97,-71.22 28.11,-28.11 37.5,-59.97 37.5,-99.33 0,-22.49 -3.75,-43.12 -9.39,-65.61 -82.46,-119.96 -138.7,-196.82 -170.56,-224.93 -127.46,-191.18 -275.53,-389.87 -440.49,-597.93 -196.8,-247.42 -384.23,-504.21 -558.56,-774.12 202.44,-301.77 410.49,-597.93 631.67,-877.21 136.83,-170.58 256.79,-335.52 367.38,-489.22 22.49,-37.48 76.84,-103.09 142.45,-191.18l28.11 -33.75 5.64 -54.35c0,-82.46 -56.24,-181.81 -127.46,-181.81l-22.49 0c-76.86,0 -148.09,-5.62 -213.69,-14.99l-103.09 -5.64c-56.24,0 -104.97,5.64 -144.32,15.01 -76.86,16.87 -174.33,116.21 -290.54,296.15 -71.22,104.95 -164.94,221.18 -284.9,346.75 -170.58,202.44 -341.14,410.49 -500.46,631.67l-119.98 157.44c0,-37.48 0,-71.22 5.64,-103.09 48.73,-566.06 76.84,-1180.86 76.84,-1844.39 0,-552.94 -33.75,-1019.66 -104.97,-1387.03 -20.61,-93.72 -48.73,-133.08 -140.56,-133.08l-28.13 0c-48.73,5.62 -91.85,11.24 -140.58,11.24 -48.73,0 -91.83,-5.62 -142.45,-11.24l-20.61 0c-119.98,0 -179.95,56.24 -179.95,170.56 28.11,378.63 37.48,768.5 37.48,1175.24 0,492.95 -14.99,1173.36 -54.35,2041.19 -16.87,444.24 -31.86,865.97 -37.48,1255.84l-16.87 774.12c0,174.31 22.49,262.41 59.97,262.41 114.34,28.11 208.06,44.98 288.67,44.98 125.58,0 211.79,-39.36 256.79,-110.59 59.97,-108.7 91.83,-339.25 91.83,-686.02l0 -114.34c43.12,-88.08 91.85,-170.56 146.2,-253.04l56.24 -93.72c148.09,208.06 307.41,406.74 477.97,592.31 131.21,153.7 230.55,281.15 301.77,384.25 103.1,159.32 179.95,241.78 236.18,258.66 59.97,16.87 108.7,22.49 159.32,22.49zm3154.58 11.25c159.32,-28.13 273.64,-121.84 344.87,-281.17 71.24,-159.32 121.84,-328.01 153.7,-504.21l33.75 -131.2c59.97,-292.4 119.96,-582.94 170.56,-873.47 82.48,-558.56 208.06,-1107.75 389.87,-1640.07l20.62 -59.99c16.87,-33.73 22.49,-61.85 22.49,-88.1 0,-22.49 16.87,-56.22 -136.83,-99.33 -59.97,-22.49 -116.21,-33.75 -170.56,-33.75 -159.32,0 -284.92,93.72 -378.63,281.17 -5.62,5.62 -5.62,14.99 -5.62,26.24 -125.58,412.36 -247.42,955.93 -373,1619.46l-71.22 341.14c-39.36,179.93 -76.86,284.9 -110.59,311.14 -37.5,-14.99 -99.35,-191.18 -176.19,-526.7 -26.24,-125.58 -54.37,-251.17 -88.1,-367.38l-43.12 -236.17c0,-108.72 -54.35,-163.07 -159.32,-163.07 -93.72,0 -202.44,54.35 -318.64,163.07l-76.84 378.61c-37.5,181.81 -82.48,369.26 -136.83,549.19l-16.87 39.36c-33.75,97.47 -59.99,153.7 -82.48,163.07 -37.48,-26.24 -88.1,-202.44 -148.07,-526.7 -131.21,-663.53 -247.42,-1162.12 -341.14,-1508.88 -37.5,-159.32 -65.61,-247.42 -71.22,-262.41 -93.72,-187.45 -219.31,-281.17 -378.63,-281.17 -48.73,0 -104.97,11.25 -164.94,33.75 -93.72,28.11 -136.83,59.97 -136.83,99.33 0,20.62 11.25,71.22 39.36,148.09 179.95,532.32 307.39,1081.51 389.87,1634.45 48.73,296.15 108.72,586.69 168.69,879.09l33.75 131.2c31.86,176.19 82.46,344.89 153.69,504.21 71.24,159.32 191.2,253.04 350.52,281.17 253.04,0 472.33,-412.36 654.14,-1229.6 88.1,356.12 187.45,657.91 296.15,916.57 93.73,208.06 215.56,313.03 363.64,313.03z"/>
  </g>
  <path id="1" class="fil3" d="M7019.69 10070.74c532.32,0 1175.24,-676.65 1698.19,-1906.25 236.17,-566.06 417.98,-1171.49 537.94,-1803.15 73.11,-384.25 110.59,-746.01 110.59,-1092.76 0,-982.18 -281.15,-1670.08 -841.59,-2048.7l-22.49 0c-97.47,-59.99 -185.56,-88.1 -262.41,-88.1 -198.69,0 -318.64,193.07 -358.01,577.3 22.49,48.73 56.24,76.86 104.97,93.73 329.88,59.97 582.92,296.14 642.91,691.64 43.12,181.81 65.61,384.25 65.61,609.16 0,236.18 -33.75,560.45 -104.97,978.44 -71.22,417.98 -202.44,901.56 -395.49,1445.14 -191.18,543.57 -389.87,987.79 -603.56,1334.57 -181.81,290.52 -341.14,432.97 -477.97,432.97 -22.49,0 -43.1,-5.62 -65.59,-9.37 -125.59,-22.49 -224.93,-318.64 -296.15,-890.33 -33.75,-247.42 -50.62,-566.06 -50.62,-955.93 0,-500.46 28.13,-1115.26 82.48,-1846.26l0 -31.86c0,-67.47 -31.86,-127.46 -103.09,-187.45 -61.85,-11.24 -116.22,-16.85 -170.58,-16.85 -219.31,0 -423.61,99.33 -609.18,296.15 -187.43,198.67 -352.37,472.33 -500.46,824.72 -148.07,352.39 -273.66,697.26 -378.61,1032.78 -16.87,-236.17 -110.59,-912.82 -275.55,-2020.57 -213.67,-1439.54 -526.7,-2451.69 -927.81,-3032.76 -247.42,-346.75 -498.59,-515.45 -768.5,-515.45 -136.83,0 -284.9,48.73 -432.98,148.07 -236.17,159.32 -477.97,558.58 -725.37,1201.49 -16.87,59.99 -28.13,110.59 -28.13,159.32 0,142.45 198.69,358.01 588.56,637.29l26.24 5.62c39.36,0 71.22,-22.49 88.1,-65.61 193.07,-867.84 384.25,-1302.69 577.3,-1302.69 241.8,0 489.22,659.78 714.15,1911.87 114.34,626.03 213.67,1285.83 296.15,1983.09 88.1,697.28 153.69,1328.93 202.42,1900.63 50.62,571.68 82.48,984.04 93.73,1231.46 28.11,82.46 71.22,136.83 142.45,174.31 104.95,22.49 193.05,33.75 275.53,33.75 284.9,0 449.86,-142.45 489.22,-429.23l9.37 -20.62c121.83,-856.58 286.77,-1593.22 489.2,-2213.64l39.36 -133.08c14.99,935.31 108.72,1626.97 284.9,2082.43 208.06,549.19 489.22,824.74 839.73,824.74zm4646.59 -134.96c37.48,0 76.84,-5.62 119.96,-11.24 93.72,-5.64 170.56,-11.25 219.29,-11.25 50.62,0 76.86,0 104.97,-71.22 28.11,-28.11 37.5,-59.97 37.5,-99.33 0,-22.49 -3.75,-43.12 -9.39,-65.61 -82.46,-119.96 -138.7,-196.82 -170.56,-224.93 -127.46,-191.18 -275.53,-389.87 -440.49,-597.93 -196.8,-247.42 -384.23,-504.21 -558.56,-774.12 202.44,-301.77 410.49,-597.93 631.67,-877.21 136.83,-170.58 256.79,-335.52 367.38,-489.22 22.49,-37.48 76.84,-103.09 142.45,-191.18l28.11 -33.75 5.64 -54.35c0,-82.46 -56.24,-181.81 -127.46,-181.81l-22.49 0c-76.86,0 -148.09,-5.62 -213.69,-14.99l-103.09 -5.64c-56.24,0 -104.97,5.64 -144.32,15.01 -76.86,16.87 -174.33,116.21 -290.54,296.15 -71.22,104.95 -164.94,221.18 -284.9,346.75 -170.58,202.44 -341.14,410.49 -500.46,631.67l-119.98 157.44c0,-37.48 0,-71.22 5.64,-103.09 48.73,-566.06 76.84,-1180.86 76.84,-1844.39 0,-552.94 -33.75,-1019.66 -104.97,-1387.03 -20.61,-93.72 -48.73,-133.08 -140.56,-133.08l-28.13 0c-48.73,5.62 -91.85,11.24 -140.58,11.24 -48.73,0 -91.83,-5.62 -142.45,-11.24l-20.61 0c-119.98,0 -179.95,56.24 -179.95,170.56 28.11,378.63 37.48,768.5 37.48,1175.24 0,492.95 -14.99,1173.36 -54.35,2041.19 -16.87,444.24 -31.86,865.97 -37.48,1255.84l-16.87 774.12c0,174.31 22.49,262.41 59.97,262.41 114.34,28.11 208.06,44.98 288.67,44.98 125.58,0 211.79,-39.36 256.79,-110.59 59.97,-108.7 91.83,-339.25 91.83,-686.02l0 -114.34c43.12,-88.08 91.85,-170.56 146.2,-253.04l56.24 -93.72c148.09,208.06 307.41,406.74 477.97,592.31 131.21,153.7 230.55,281.15 301.77,384.25 103.1,159.32 179.95,241.78 236.18,258.66 59.97,16.87 108.7,22.49 159.32,22.49zm3154.58 11.25c159.32,-28.13 273.64,-121.84 344.87,-281.17 71.24,-159.32 121.84,-328.01 153.7,-504.21l33.75 -131.2c59.97,-292.4 119.96,-582.94 170.56,-873.47 82.48,-558.56 208.06,-1107.75 389.87,-1640.07l20.62 -59.99c16.87,-33.73 22.49,-61.85 22.49,-88.1 0,-22.49 16.87,-56.22 -136.83,-99.33 -59.97,-22.49 -116.21,-33.75 -170.56,-33.75 -159.32,0 -284.92,93.72 -378.63,281.17 -5.62,5.62 -5.62,14.99 -5.62,26.24 -125.58,412.36 -247.42,955.93 -373,1619.46l-71.22 341.14c-39.36,179.93 -76.86,284.9 -110.59,311.14 -37.5,-14.99 -99.35,-191.18 -176.19,-526.7 -26.24,-125.58 -54.37,-251.17 -88.1,-367.38l-43.12 -236.17c0,-108.72 -54.35,-163.07 -159.32,-163.07 -93.72,0 -202.44,54.35 -318.64,163.07l-76.84 378.61c-37.5,181.81 -82.48,369.26 -136.83,549.19l-16.87 39.36c-33.75,97.47 -59.99,153.7 -82.48,163.07 -37.48,-26.24 -88.1,-202.44 -148.07,-526.7 -131.21,-663.53 -247.42,-1162.12 -341.14,-1508.88 -37.5,-159.32 -65.61,-247.42 -71.22,-262.41 -93.72,-187.45 -219.31,-281.17 -378.63,-281.17 -48.73,0 -104.97,11.25 -164.94,33.75 -93.72,28.11 -136.83,59.97 -136.83,99.33 0,20.62 11.25,71.22 39.36,148.09 179.95,532.32 307.39,1081.51 389.87,1634.45 48.73,296.15 108.72,586.69 168.69,879.09l33.75 131.2c31.86,176.19 82.46,344.89 153.69,504.21 71.24,159.32 191.2,253.04 350.52,281.17 253.04,0 472.33,-412.36 654.14,-1229.6 88.1,356.12 187.45,657.91 296.15,916.57 93.73,208.06 215.56,313.03 363.64,313.03z"/>
  <g style="clip-path:url(#id0)">
   <g>
    <polygon id="2" class="fil0" points="4606.62,1167.69 2511.78,4550.28 850.06,4550.28 2944.89,1167.69 "/>
    <polygon class="fil4" points="5877.53,1798.75 3782.7,5181.34 2120.97,5181.34 4215.81,1798.75 "/>
    <polygon class="fil5" points="5911.64,4426.92 3816.8,7809.51 2155.07,7809.51 4249.91,4426.92 "/>
    <polygon class="fil5" points="8006.47,1044.33 5911.64,4426.92 4249.91,4426.92 6344.74,1044.33 "/>
    <polygon class="fil6" points="7113.14,5170.05 5018.3,8552.64 3356.58,8552.64 5451.41,5170.05 "/>
    <polygon class="fil6" points="9207.97,1787.46 7113.14,5170.05 5451.41,5170.05 7546.25,1787.46 "/>
    <polygon class="fil7" points="9881.85,3382.59 7787.02,6765.18 6125.29,6765.18 8220.13,3382.59 "/>
    <polygon class="fil7" points="11976.69,0 9881.85,3382.59 8220.13,3382.59 10314.96,0 "/>
    <polygon class="fil6" points="5018.3,8552.64 2923.47,11935.23 1261.74,11935.23 3356.58,8552.64 "/>
    <polygon class="fil7" points="7787.02,6765.18 5692.18,10147.76 4030.46,10147.76 6125.29,6765.18 "/>
    <g id="_2070682898000">
     <polygon class="fil8" points="11031.94,4208.77 8937.1,7591.35 7275.38,7591.35 9370.21,4208.77 "/>
     <polygon class="fil8" points="13126.78,826.18 11031.94,4208.77 9370.21,4208.77 11465.05,826.18 "/>
     <polygon class="fil8" points="8937.1,7591.35 6842.27,10973.94 5180.54,10973.94 7275.38,7591.35 "/>
    </g>
    <g id="_2070682895312">
     <polygon class="fil9" points="12003.04,5323.95 9908.2,8706.54 8246.48,8706.54 10341.31,5323.95 "/>
     <polygon class="fil9" points="14097.87,1941.36 12003.04,5323.95 10341.31,5323.95 12436.15,1941.36 "/>
     <polygon class="fil9" points="9908.2,8706.54 7813.37,12089.13 6151.64,12089.13 8246.48,8706.54 "/>
    </g>
    <g id="_2070682895280">
     <polygon class="fil10" points="12974.14,6439.14 10879.3,9821.72 9217.58,9821.72 11312.41,6439.14 "/>
     <polygon class="fil10" points="15068.97,3056.55 12974.14,6439.14 11312.41,6439.14 13407.25,3056.55 "/>
     <polygon class="fil10" points="10879.3,9821.72 8784.47,13204.31 7122.74,13204.31 9217.58,9821.72 "/>
    </g>
    <g id="_2070682893520">
     <polygon class="fil11" points="15391.81,5218.5 13296.98,8601.09 11635.25,8601.09 13730.09,5218.5 "/>
     <polygon class="fil11" points="17486.65,1835.91 15391.81,5218.5 13730.09,5218.5 15824.92,1835.91 "/>
     <polygon class="fil11" points="13296.98,8601.09 11202.14,11983.68 9540.42,11983.68 11635.25,8601.09 "/>
    </g>
    <g id="_2070682891472">
     <polygon class="fil12" points="16639.69,5886.73 14544.85,9269.31 12883.13,9269.31 14977.96,5886.73 "/>
     <polygon class="fil12" points="18734.52,2504.14 16639.69,5886.73 14977.96,5886.73 17072.8,2504.14 "/>
     <polygon class="fil12" points="14544.85,9269.31 12450.02,12651.9 10788.29,12651.9 12883.13,9269.31 "/>
    </g>
    <g id="_2070682891120">
     <polygon class="fil13" points="17887.56,6554.95 15792.72,9937.54 14131,9937.54 16225.83,6554.95 "/>
     <polygon class="fil13" points="19982.4,3172.36 17887.56,6554.95 16225.83,6554.95 18320.67,3172.36 "/>
     <polygon class="fil13" points="15792.72,9937.54 13697.89,13320.13 12036.16,13320.13 14131,9937.54 "/>
    </g>
   </g>
  </g>
  <g>
   <path class="fil2 str1" d="M7232.48 9972.41c532.32,0 1175.24,-676.65 1698.19,-1906.25 236.17,-566.06 417.98,-1171.49 537.94,-1803.15 73.11,-384.25 110.59,-746.01 110.59,-1092.76 0,-982.18 -281.15,-1670.08 -841.59,-2048.7l-22.49 0c-97.47,-59.99 -185.56,-88.1 -262.41,-88.1 -198.69,0 -318.64,193.07 -358.01,577.3 22.49,48.73 56.24,76.86 104.97,93.73 329.88,59.97 582.92,296.14 642.91,691.64 43.12,181.81 65.61,384.25 65.61,609.16 0,236.18 -33.75,560.45 -104.97,978.44 -71.22,417.98 -202.44,901.56 -395.49,1445.14 -191.18,543.57 -389.87,987.79 -603.56,1334.57 -181.81,290.52 -341.14,432.97 -477.97,432.97 -22.49,0 -43.1,-5.62 -65.59,-9.37 -125.59,-22.49 -224.93,-318.64 -296.15,-890.33 -33.75,-247.42 -50.62,-566.06 -50.62,-955.93 0,-500.46 28.13,-1115.26 82.48,-1846.26l0 -31.86c0,-67.47 -31.86,-127.46 -103.09,-187.45 -61.85,-11.24 -116.22,-16.85 -170.58,-16.85 -219.31,0 -423.61,99.33 -609.18,296.15 -187.43,198.67 -352.37,472.33 -500.46,824.72 -148.07,352.39 -273.66,697.26 -378.61,1032.78 -16.87,-236.17 -110.59,-912.82 -275.55,-2020.57 -213.67,-1439.54 -526.7,-2451.69 -927.81,-3032.76 -247.42,-346.75 -498.59,-515.45 -768.5,-515.45 -136.83,0 -284.9,48.73 -432.98,148.07 -236.17,159.32 -477.97,558.58 -725.37,1201.49 -16.87,59.99 -28.13,110.59 -28.13,159.32 0,142.45 198.69,358.01 588.56,637.29l26.24 5.62c39.36,0 71.22,-22.49 88.1,-65.61 193.07,-867.84 384.25,-1302.69 577.3,-1302.69 241.8,0 489.22,659.78 714.15,1911.87 114.34,626.03 213.67,1285.83 296.15,1983.09 88.1,697.28 153.69,1328.93 202.42,1900.63 50.62,571.68 82.48,984.04 93.73,1231.46 28.11,82.46 71.22,136.83 142.45,174.31 104.95,22.49 193.05,33.75 275.53,33.75 284.9,0 449.86,-142.45 489.22,-429.23l9.37 -20.62c121.83,-856.58 286.77,-1593.22 489.2,-2213.64l39.36 -133.08c14.99,935.31 108.72,1626.97 284.9,2082.43 208.06,549.19 489.22,824.74 839.73,824.74zm4646.59 -134.96c37.48,0 76.84,-5.62 119.96,-11.24 93.72,-5.64 170.56,-11.25 219.29,-11.25 50.62,0 76.86,0 104.97,-71.22 28.11,-28.11 37.5,-59.97 37.5,-99.33 0,-22.49 -3.75,-43.12 -9.39,-65.61 -82.46,-119.96 -138.7,-196.82 -170.56,-224.93 -127.46,-191.18 -275.53,-389.87 -440.49,-597.93 -196.8,-247.42 -384.23,-504.21 -558.56,-774.12 202.44,-301.77 410.49,-597.93 631.67,-877.21 136.83,-170.58 256.79,-335.52 367.38,-489.22 22.49,-37.48 76.84,-103.09 142.45,-191.18l28.11 -33.75 5.64 -54.35c0,-82.46 -56.24,-181.81 -127.46,-181.81l-22.49 0c-76.86,0 -148.09,-5.62 -213.69,-14.99l-103.09 -5.64c-56.24,0 -104.97,5.64 -144.32,15.01 -76.86,16.87 -174.33,116.21 -290.54,296.15 -71.22,104.95 -164.94,221.18 -284.9,346.75 -170.58,202.44 -341.14,410.49 -500.46,631.67l-119.98 157.44c0,-37.48 0,-71.22 5.64,-103.09 48.73,-566.06 76.84,-1180.86 76.84,-1844.39 0,-552.94 -33.75,-1019.66 -104.97,-1387.03 -20.61,-93.72 -48.73,-133.08 -140.56,-133.08l-28.13 0c-48.73,5.62 -91.85,11.24 -140.58,11.24 -48.73,0 -91.83,-5.62 -142.45,-11.24l-20.61 0c-119.98,0 -179.95,56.24 -179.95,170.56 28.11,378.63 37.48,768.5 37.48,1175.24 0,492.95 -14.99,1173.36 -54.35,2041.19 -16.87,444.24 -31.86,865.97 -37.48,1255.84l-16.87 774.12c0,174.31 22.49,262.41 59.97,262.41 114.34,28.11 208.06,44.98 288.67,44.98 125.58,0 211.79,-39.36 256.79,-110.59 59.97,-108.7 91.83,-339.25 91.83,-686.02l0 -114.34c43.12,-88.08 91.85,-170.56 146.2,-253.04l56.24 -93.72c148.09,208.06 307.41,406.74 477.97,592.31 131.21,153.7 230.55,281.15 301.77,384.25 103.1,159.32 179.95,241.78 236.18,258.66 59.97,16.87 108.7,22.49 159.32,22.49zm3154.58 11.25c159.32,-28.13 273.64,-121.84 344.87,-281.17 71.24,-159.32 121.84,-328.01 153.7,-504.21l33.75 -131.2c59.97,-292.4 119.96,-582.94 170.56,-873.47 82.48,-558.56 208.06,-1107.75 389.87,-1640.07l20.62 -59.99c16.87,-33.73 22.49,-61.85 22.49,-88.1 0,-22.49 16.87,-56.22 -136.83,-99.33 -59.97,-22.49 -116.21,-33.75 -170.56,-33.75 -159.32,0 -284.92,93.72 -378.63,281.17 -5.62,5.62 -5.62,14.99 -5.62,26.24 -125.58,412.36 -247.42,955.93 -373,1619.46l-71.22 341.14c-39.36,179.93 -76.86,284.9 -110.59,311.14 -37.5,-14.99 -99.35,-191.18 -176.19,-526.7 -26.24,-125.58 -54.37,-251.17 -88.1,-367.38l-43.12 -236.17c0,-108.72 -54.35,-163.07 -159.32,-163.07 -93.72,0 -202.44,54.35 -318.64,163.07l-76.84 378.61c-37.5,181.81 -82.48,369.26 -136.83,549.19l-16.87 39.36c-33.75,97.47 -59.99,153.7 -82.48,163.07 -37.48,-26.24 -88.1,-202.44 -148.07,-526.7 -131.21,-663.53 -247.42,-1162.12 -341.14,-1508.88 -37.5,-159.32 -65.61,-247.42 -71.22,-262.41 -93.72,-187.45 -219.31,-281.17 -378.63,-281.17 -48.73,0 -104.97,11.25 -164.94,33.75 -93.72,28.11 -136.83,59.97 -136.83,99.33 0,20.62 11.25,71.22 39.36,148.09 179.95,532.32 307.39,1081.51 389.87,1634.45 48.73,296.15 108.72,586.69 168.69,879.09l33.75 131.2c31.86,176.19 82.46,344.89 153.69,504.21 71.24,159.32 191.2,253.04 350.52,281.17 253.04,0 472.33,-412.36 654.14,-1229.6 88.1,356.12 187.45,657.91 296.15,916.57 93.73,208.06 215.56,313.03 363.64,313.03z"/>
  </g>
  <path id="1" class="fil14" d="M7232.48 9972.41c532.32,0 1175.24,-676.65 1698.19,-1906.25 236.17,-566.06 417.98,-1171.49 537.94,-1803.15 73.11,-384.25 110.59,-746.01 110.59,-1092.76 0,-982.18 -281.15,-1670.08 -841.59,-2048.7l-22.49 0c-97.47,-59.99 -185.56,-88.1 -262.41,-88.1 -198.69,0 -318.64,193.07 -358.01,577.3 22.49,48.73 56.24,76.86 104.97,93.73 329.88,59.97 582.92,296.14 642.91,691.64 43.12,181.81 65.61,384.25 65.61,609.16 0,236.18 -33.75,560.45 -104.97,978.44 -71.22,417.98 -202.44,901.56 -395.49,1445.14 -191.18,543.57 -389.87,987.79 -603.56,1334.57 -181.81,290.52 -341.14,432.97 -477.97,432.97 -22.49,0 -43.1,-5.62 -65.59,-9.37 -125.59,-22.49 -224.93,-318.64 -296.15,-890.33 -33.75,-247.42 -50.62,-566.06 -50.62,-955.93 0,-500.46 28.13,-1115.26 82.48,-1846.26l0 -31.86c0,-67.47 -31.86,-127.46 -103.09,-187.45 -61.85,-11.24 -116.22,-16.85 -170.58,-16.85 -219.31,0 -423.61,99.33 -609.18,296.15 -187.43,198.67 -352.37,472.33 -500.46,824.72 -148.07,352.39 -273.66,697.26 -378.61,1032.78 -16.87,-236.17 -110.59,-912.82 -275.55,-2020.57 -213.67,-1439.54 -526.7,-2451.69 -927.81,-3032.76 -247.42,-346.75 -498.59,-515.45 -768.5,-515.45 -136.83,0 -284.9,48.73 -432.98,148.07 -236.17,159.32 -477.97,558.58 -725.37,1201.49 -16.87,59.99 -28.13,110.59 -28.13,159.32 0,142.45 198.69,358.01 588.56,637.29l26.24 5.62c39.36,0 71.22,-22.49 88.1,-65.61 193.07,-867.84 384.25,-1302.69 577.3,-1302.69 241.8,0 489.22,659.78 714.15,1911.87 114.34,626.03 213.67,1285.83 296.15,1983.09 88.1,697.28 153.69,1328.93 202.42,1900.63 50.62,571.68 82.48,984.04 93.73,1231.46 28.11,82.46 71.22,136.83 142.45,174.31 104.95,22.49 193.05,33.75 275.53,33.75 284.9,0 449.86,-142.45 489.22,-429.23l9.37 -20.62c121.83,-856.58 286.77,-1593.22 489.2,-2213.64l39.36 -133.08c14.99,935.31 108.72,1626.97 284.9,2082.43 208.06,549.19 489.22,824.74 839.73,824.74zm4646.59 -134.96c37.48,0 76.84,-5.62 119.96,-11.24 93.72,-5.64 170.56,-11.25 219.29,-11.25 50.62,0 76.86,0 104.97,-71.22 28.11,-28.11 37.5,-59.97 37.5,-99.33 0,-22.49 -3.75,-43.12 -9.39,-65.61 -82.46,-119.96 -138.7,-196.82 -170.56,-224.93 -127.46,-191.18 -275.53,-389.87 -440.49,-597.93 -196.8,-247.42 -384.23,-504.21 -558.56,-774.12 202.44,-301.77 410.49,-597.93 631.67,-877.21 136.83,-170.58 256.79,-335.52 367.38,-489.22 22.49,-37.48 76.84,-103.09 142.45,-191.18l28.11 -33.75 5.64 -54.35c0,-82.46 -56.24,-181.81 -127.46,-181.81l-22.49 0c-76.86,0 -148.09,-5.62 -213.69,-14.99l-103.09 -5.64c-56.24,0 -104.97,5.64 -144.32,15.01 -76.86,16.87 -174.33,116.21 -290.54,296.15 -71.22,104.95 -164.94,221.18 -284.9,346.75 -170.58,202.44 -341.14,410.49 -500.46,631.67l-119.98 157.44c0,-37.48 0,-71.22 5.64,-103.09 48.73,-566.06 76.84,-1180.86 76.84,-1844.39 0,-552.94 -33.75,-1019.66 -104.97,-1387.03 -20.61,-93.72 -48.73,-133.08 -140.56,-133.08l-28.13 0c-48.73,5.62 -91.85,11.24 -140.58,11.24 -48.73,0 -91.83,-5.62 -142.45,-11.24l-20.61 0c-119.98,0 -179.95,56.24 -179.95,170.56 28.11,378.63 37.48,768.5 37.48,1175.24 0,492.95 -14.99,1173.36 -54.35,2041.19 -16.87,444.24 -31.86,865.97 -37.48,1255.84l-16.87 774.12c0,174.31 22.49,262.41 59.97,262.41 114.34,28.11 208.06,44.98 288.67,44.98 125.58,0 211.79,-39.36 256.79,-110.59 59.97,-108.7 91.83,-339.25 91.83,-686.02l0 -114.34c43.12,-88.08 91.85,-170.56 146.2,-253.04l56.24 -93.72c148.09,208.06 307.41,406.74 477.97,592.31 131.21,153.7 230.55,281.15 301.77,384.25 103.1,159.32 179.95,241.78 236.18,258.66 59.97,16.87 108.7,22.49 159.32,22.49zm3154.58 11.25c159.32,-28.13 273.64,-121.84 344.87,-281.17 71.24,-159.32 121.84,-328.01 153.7,-504.21l33.75 -131.2c59.97,-292.4 119.96,-582.94 170.56,-873.47 82.48,-558.56 208.06,-1107.75 389.87,-1640.07l20.62 -59.99c16.87,-33.73 22.49,-61.85 22.49,-88.1 0,-22.49 16.87,-56.22 -136.83,-99.33 -59.97,-22.49 -116.21,-33.75 -170.56,-33.75 -159.32,0 -284.92,93.72 -378.63,281.17 -5.62,5.62 -5.62,14.99 -5.62,26.24 -125.58,412.36 -247.42,955.93 -373,1619.46l-71.22 341.14c-39.36,179.93 -76.86,284.9 -110.59,311.14 -37.5,-14.99 -99.35,-191.18 -176.19,-526.7 -26.24,-125.58 -54.37,-251.17 -88.1,-367.38l-43.12 -236.17c0,-108.72 -54.35,-163.07 -159.32,-163.07 -93.72,0 -202.44,54.35 -318.64,163.07l-76.84 378.61c-37.5,181.81 -82.48,369.26 -136.83,549.19l-16.87 39.36c-33.75,97.47 -59.99,153.7 -82.48,163.07 -37.48,-26.24 -88.1,-202.44 -148.07,-526.7 -131.21,-663.53 -247.42,-1162.12 -341.14,-1508.88 -37.5,-159.32 -65.61,-247.42 -71.22,-262.41 -93.72,-187.45 -219.31,-281.17 -378.63,-281.17 -48.73,0 -104.97,11.25 -164.94,33.75 -93.72,28.11 -136.83,59.97 -136.83,99.33 0,20.62 11.25,71.22 39.36,148.09 179.95,532.32 307.39,1081.51 389.87,1634.45 48.73,296.15 108.72,586.69 168.69,879.09l33.75 131.2c31.86,176.19 82.46,344.89 153.69,504.21 71.24,159.32 191.2,253.04 350.52,281.17 253.04,0 472.33,-412.36 654.14,-1229.6 88.1,356.12 187.45,657.91 296.15,916.57 93.73,208.06 215.56,313.03 363.64,313.03z"/>
  <g style="clip-path:url(#id1)">
   <g>
    <polygon id="2" class="fil0" points="4819.4,1069.35 2724.57,4451.94 1062.84,4451.94 3157.68,1069.35 "/>
    <polygon class="fil4" points="6090.32,1700.41 3995.48,5083 2333.76,5083 4428.59,1700.41 "/>
    <polygon class="fil5" points="6124.42,4328.58 4029.58,7711.17 2367.86,7711.17 4462.69,4328.58 "/>
    <polygon class="fil5" points="8219.26,945.99 6124.42,4328.58 4462.69,4328.58 6557.53,945.99 "/>
    <polygon class="fil6" points="7325.92,5071.71 5231.09,8454.3 3569.36,8454.3 5664.2,5071.71 "/>
    <polygon class="fil6" points="9420.76,1689.12 7325.92,5071.71 5664.2,5071.71 7759.03,1689.12 "/>
    <polygon class="fil7" points="10094.64,3284.25 7999.8,6666.84 6338.08,6666.84 8432.91,3284.25 "/>
    <polygon class="fil7" points="12189.48,-98.34 10094.64,3284.25 8432.91,3284.25 10527.75,-98.34 "/>
    <polygon class="fil6" points="5231.09,8454.3 3136.25,11836.89 1474.53,11836.89 3569.36,8454.3 "/>
    <polygon class="fil7" points="7999.8,6666.84 5904.97,10049.43 4243.24,10049.43 6338.08,6666.84 "/>
    <g>
     <polygon class="fil8" points="11244.73,4110.43 9149.89,7493.02 7488.16,7493.02 9583,4110.43 "/>
     <polygon class="fil8" points="13339.56,727.84 11244.73,4110.43 9583,4110.43 11677.83,727.84 "/>
     <polygon class="fil8" points="9149.89,7493.02 7055.05,10875.6 5393.33,10875.6 7488.16,7493.02 "/>
    </g>
    <g>
     <polygon class="fil9" points="12215.82,5225.61 10120.99,8608.2 8459.26,8608.2 10554.1,5225.61 "/>
     <polygon class="fil9" points="14310.66,1843.02 12215.82,5225.61 10554.1,5225.61 12648.93,1843.02 "/>
     <polygon class="fil9" points="10120.99,8608.2 8026.15,11990.79 6364.43,11990.79 8459.26,8608.2 "/>
    </g>
    <g>
     <polygon class="fil10" points="13186.92,6340.8 11092.09,9723.39 9430.36,9723.39 11525.2,6340.8 "/>
     <polygon class="fil10" points="15281.76,2958.21 13186.92,6340.8 11525.2,6340.8 13620.03,2958.21 "/>
     <polygon class="fil10" points="11092.09,9723.39 8997.25,13105.97 7335.53,13105.97 9430.36,9723.39 "/>
    </g>
    <g>
     <polygon class="fil11" points="15604.6,5120.16 13509.76,8502.75 11848.04,8502.75 13942.87,5120.16 "/>
     <polygon class="fil11" points="17699.44,1737.57 15604.6,5120.16 13942.87,5120.16 16037.71,1737.57 "/>
     <polygon class="fil11" points="13509.76,8502.75 11414.93,11885.34 9753.2,11885.34 11848.04,8502.75 "/>
    </g>
    <g>
     <polygon class="fil12" points="16852.47,5788.39 14757.64,9170.98 13095.91,9170.98 15190.75,5788.39 "/>
     <polygon class="fil12" points="18947.31,2405.8 16852.47,5788.39 15190.75,5788.39 17285.58,2405.8 "/>
     <polygon class="fil12" points="14757.64,9170.98 12662.8,12553.56 11001.07,12553.56 13095.91,9170.98 "/>
    </g>
    <g>
     <polygon class="fil13" points="18100.35,6456.61 16005.51,9839.2 14343.78,9839.2 16438.62,6456.61 "/>
     <polygon class="fil13" points="20195.18,3074.02 18100.35,6456.61 16438.62,6456.61 18533.45,3074.02 "/>
     <polygon class="fil13" points="16005.51,9839.2 13910.67,13221.79 12248.95,13221.79 14343.78,9839.2 "/>
    </g>
   </g>
  </g>
  <g>
   <g>
    <path class="fil2 str0" d="M276.17 10853.47c24.22,-3.82 46.51,-5.73 66.9,-5.73 20.39,0 38.88,4.76 55.45,14.33 16.55,9.57 31.22,25.8 43.97,48.75 12.73,22.94 22.94,54.8 30.58,95.58 8.93,36.96 16.57,82.51 22.94,136.69 6.38,54.16 12.11,109.91 17.21,167.27 5.1,57.36 9.87,111.51 14.33,162.49 4.46,50.97 8.61,90.5 12.43,118.54 8.93,-29.32 16.89,-54.49 23.9,-75.53 7.01,-21.02 14.97,-40.77 23.9,-59.26 8.93,-18.47 18.49,-37.91 28.68,-58.3 10.19,-20.39 22.94,-43.97 38.23,-70.73 29.32,-43.35 59.28,-65.64 89.86,-66.92 30.58,-1.26 60.86,11.47 90.8,38.24 29.96,26.76 58.32,63.4 85.07,109.91 26.76,46.53 50.33,95.26 70.73,146.25 3.82,-42.07 5.74,-79.97 5.74,-113.75 0,-33.76 0.32,-68.18 0.96,-103.23 0.64,-35.04 2.54,-72.97 5.73,-113.75 3.18,-40.77 9.89,-89.2 20.07,-145.28 6.38,-56.08 18.49,-101.97 36.32,-137.65 17.85,-35.68 38.24,-62.44 61.18,-80.29 22.94,-17.83 47.15,-26.76 72.65,-26.76 25.48,0 49.37,7.33 71.69,21.98 22.3,14.67 41.09,36 56.4,64.04 15.29,28.04 24.22,61.82 26.76,101.33 -5.1,91.76 -9.89,176.52 -14.33,254.25 -4.46,77.75 -9.57,149.44 -15.31,215.08 -5.73,65.62 -12.11,125.52 -19.11,179.7 -7.01,54.16 -16.25,103.55 -27.72,148.16 -8.93,44.61 -18.79,83.47 -29.64,116.62 -10.83,33.12 -24.52,61.48 -41.09,85.06 -16.57,23.58 -37.28,43.33 -62.14,59.26 -24.84,15.93 -55.12,29.64 -90.8,41.11 -48.43,1.28 -88.58,-9.25 -120.44,-31.54 -31.86,-22.3 -57.98,-50.97 -78.37,-86.02 -20.39,-35.06 -36.64,-73.93 -48.75,-116.62 -12.11,-42.71 -23.26,-83.79 -33.46,-123.3 -16.57,38.23 -34.72,82.83 -54.48,133.81 -19.75,50.97 -43.97,96.54 -72.65,136.69 -28.68,40.15 -62.44,69.14 -101.33,86.98 -38.87,17.85 -85.7,14.03 -140.49,-11.47 -17.85,-7.65 -36.64,-31.22 -56.4,-70.73 -19.75,-39.51 -38.56,-88.58 -56.4,-147.2 -17.85,-58.64 -34.1,-124.58 -48.75,-197.87 -14.65,-73.29 -27.08,-147.52 -37.28,-222.71 -10.19,-75.21 -16.89,-148.8 -20.07,-220.8 -3.18,-72.01 -2.22,-136.69 2.88,-194.05 5.08,-57.34 14.97,-104.19 29.62,-140.49 14.65,-36.32 36,-57.04 64.04,-62.14zm1898.3 1160.4c7.65,36.96 0.64,65.32 -21.03,85.07 -21.66,19.75 -51.61,30.26 -89.84,31.54 -33.14,0 -61.18,-5.42 -84.11,-16.25 -22.94,-10.83 -47.15,-24.54 -72.65,-41.11 -28.04,2.54 -57.98,7.01 -89.84,13.39 -31.86,6.37 -64.04,11.15 -96.54,14.33 -32.5,3.18 -64.68,3.5 -96.54,0.96 -31.86,-2.54 -61.82,-11.47 -89.86,-26.76 -35.68,-19.13 -64.04,-50.03 -85.06,-92.72 -21.03,-42.69 -33.14,-87.62 -36.32,-134.77 -3.2,-47.17 3.5,-92.4 20.07,-135.75 16.55,-43.33 43.97,-75.83 82.19,-97.49 19.11,-10.21 36.64,-18.79 52.57,-25.82 15.93,-7.01 33.14,-12.43 51.61,-16.25 18.47,-3.82 39.19,-7.01 62.12,-9.55 22.95,-2.56 50.99,-4.46 84.11,-5.74 30.6,-31.86 26.46,-54.48 -12.41,-67.86 -38.88,-13.39 -109.29,-7.33 -211.26,18.17 -36.95,-6.38 -61.8,-22.95 -74.55,-49.71 -12.75,-26.76 -15.93,-55.44 -9.57,-86.02 6.38,-30.6 21.03,-59.6 43.97,-87 22.95,-27.4 50.99,-44.91 84.11,-52.57 109.61,-19.11 206.47,-19.11 290.59,0 84.11,19.13 150.7,54.17 199.77,105.15 49.05,50.97 78.37,115.98 87.94,194.99 9.55,79.03 -5.42,168.23 -44.93,267.64 -11.47,21.67 -15.29,41.43 -11.47,59.28 3.82,17.83 10.51,35.04 20.07,51.61 9.55,16.57 19.11,33.12 28.68,49.69 9.55,16.57 15.61,34.42 18.15,53.53zm-437.77 -137.65c15.29,5.1 30.26,2.56 44.91,-7.65 14.67,-10.19 25.18,-22.94 31.54,-38.23 6.38,-15.29 6.7,-30.28 0.96,-44.93 -5.73,-14.65 -20.71,-23.9 -44.93,-27.72 -26.76,-5.1 -48.09,-2.54 -64.02,7.65 -15.95,10.21 -25.5,22.62 -28.68,37.28 -3.2,14.65 0.32,29.62 10.51,44.93 10.19,15.29 26.76,24.84 49.71,28.66zm820.12 -82.19c0,30.58 -0.64,65 -1.92,103.23 -1.26,38.24 -6.69,74.25 -16.25,108.01 -9.55,33.78 -24.52,62.44 -44.91,86.04 -20.39,23.58 -49.71,35.36 -87.94,35.36 -33.14,0 -59.28,-7.65 -78.39,-22.95 -19.11,-15.29 -33.14,-35.04 -42.05,-59.26 -8.93,-24.22 -14.35,-51.29 -16.25,-81.23 -1.92,-29.96 -2.88,-59.58 -2.88,-88.9 0,-82.83 0.96,-159.94 2.88,-231.31 1.9,-71.37 2.86,-148.48 2.86,-231.31 0,-57.36 14.33,-104.19 43.01,-140.51 28.68,-36.32 72.33,-54.49 130.96,-54.49 34.4,0 64.66,10.53 90.8,31.54 26.12,21.03 37.91,49.39 35.36,85.07 24.22,-26.76 47.15,-50.01 68.82,-69.77 21.66,-19.77 51.61,-29.64 89.84,-29.64 26.78,0 53.53,5.42 80.29,16.25 26.78,10.83 50.67,25.8 71.69,44.93 21.03,19.11 38.24,41.09 51.61,65.94 13.39,24.86 20.07,51.29 20.07,79.33 0,12.75 -2.22,27.1 -6.69,43.03 -4.46,15.93 -11.15,31.22 -20.07,45.87 -8.93,14.65 -19.11,28.04 -30.58,40.15 -11.47,12.11 -24.86,20.07 -40.15,23.9 -22.94,7.65 -46.53,6.69 -70.74,-2.86 -24.2,-9.57 -47.47,-19.75 -69.77,-30.6 -22.31,-10.83 -43.01,-19.43 -62.14,-25.8 -19.11,-6.37 -36,-3.18 -50.65,9.57 -14.65,12.73 -26.12,38.23 -34.4,76.45 -8.29,38.24 -12.43,96.22 -12.43,173.97zm955.84 282.93c-26.78,22.94 -55.76,37.6 -87,43.97 -31.22,6.38 -62.76,6.38 -94.62,0 -31.86,-6.37 -62.12,-18.47 -90.8,-36.32 -28.68,-17.83 -53.21,-39.51 -73.61,-64.98 -33.12,-38.24 -56.4,-79.35 -69.77,-123.32 -13.39,-43.97 -21.35,-89.52 -23.9,-136.67 -2.56,-47.17 -2.56,-94.64 0,-142.43 2.54,-47.79 3.82,-94.62 3.82,-140.51 -28.04,0 -50.35,-13.37 -66.92,-40.15 -16.55,-26.76 -25.48,-55.44 -26.76,-86.02 -1.28,-30.6 7.01,-58 24.86,-82.21 17.83,-24.22 47.15,-35.04 87.94,-32.5 -1.28,-30.58 -2.24,-57.98 -2.86,-82.19 -0.64,-24.22 -0.64,-46.83 0,-67.86 0.62,-21.03 2.22,-41.43 4.76,-61.18 2.56,-19.75 6.38,-40.47 11.49,-62.12 0,-26.76 7.97,-50.35 23.9,-70.73 15.93,-20.39 35.68,-35.38 59.26,-44.93 23.58,-9.57 48.11,-13.07 73.59,-10.53 25.5,2.56 47.17,13.39 65,32.5 14.03,30.6 23.9,59.9 29.64,87.94 5.73,28.04 8.91,56.4 9.55,85.07 0.64,28.68 0.32,57.68 -0.94,86.98 -1.28,29.32 -1.92,59.26 -1.92,89.86 16.57,2.54 33.46,3.82 50.65,3.82 17.21,0 34.1,1.28 50.67,3.82 16.57,2.54 31.86,7.97 45.87,16.25 14.03,8.29 25.5,21.34 34.42,39.19 11.47,15.29 17.83,33.78 19.11,55.44 1.28,21.67 -1.92,42.39 -9.57,62.14 -7.65,19.75 -18.79,36.95 -33.44,51.61 -14.67,14.65 -30.92,23.9 -48.75,27.72 -12.75,2.54 -23.9,3.82 -33.46,3.82 -9.55,0 -18.79,-0.32 -27.72,-0.96 -8.93,-0.64 -18.15,-0.96 -27.72,-0.96 -9.57,0 -20.71,0.64 -33.46,1.92 -2.54,53.52 -3.5,103.23 -2.86,149.12 0.64,45.87 6.69,94.94 18.17,147.2 8.91,30.58 22.62,50.97 41.09,61.16 18.49,10.21 41.11,21.67 67.86,34.42 17.85,8.93 32.5,21.66 43.97,38.23 11.47,16.57 19.13,34.74 22.95,54.49 3.82,19.75 3.18,39.51 -1.92,59.26 -5.1,19.75 -15.29,36.64 -30.58,50.65zm862.16 -63.08c7.65,36.96 0.64,65.32 -21.03,85.07 -21.66,19.75 -51.61,30.26 -89.84,31.54 -33.14,0 -61.18,-5.42 -84.11,-16.25 -22.94,-10.83 -47.15,-24.54 -72.65,-41.11 -28.04,2.54 -57.98,7.01 -89.84,13.39 -31.86,6.37 -64.04,11.15 -96.54,14.33 -32.5,3.18 -64.68,3.5 -96.54,0.96 -31.86,-2.54 -61.82,-11.47 -89.86,-26.76 -35.68,-19.13 -64.04,-50.03 -85.06,-92.72 -21.03,-42.69 -33.14,-87.62 -36.32,-134.77 -3.2,-47.17 3.5,-92.4 20.07,-135.75 16.55,-43.33 43.97,-75.83 82.19,-97.49 19.11,-10.21 36.64,-18.79 52.57,-25.82 15.93,-7.01 33.14,-12.43 51.61,-16.25 18.47,-3.82 39.19,-7.01 62.12,-9.55 22.95,-2.56 50.99,-4.46 84.11,-5.74 30.6,-31.86 26.46,-54.48 -12.41,-67.86 -38.88,-13.39 -109.29,-7.33 -211.26,18.17 -36.95,-6.38 -61.8,-22.95 -74.55,-49.71 -12.75,-26.76 -15.93,-55.44 -9.57,-86.02 6.38,-30.6 21.03,-59.6 43.97,-87 22.95,-27.4 50.99,-44.91 84.11,-52.57 109.61,-19.11 206.47,-19.11 290.59,0 84.11,19.13 150.7,54.17 199.77,105.15 49.05,50.97 78.37,115.98 87.94,194.99 9.55,79.03 -5.42,168.23 -44.93,267.64 -11.47,21.67 -15.29,41.43 -11.47,59.28 3.82,17.83 10.51,35.04 20.07,51.61 9.55,16.57 19.11,33.12 28.68,49.69 9.55,16.57 15.61,34.42 18.15,53.53zm-437.77 -137.65c15.29,5.1 30.26,2.56 44.91,-7.65 14.67,-10.19 25.18,-22.94 31.54,-38.23 6.38,-15.29 6.7,-30.28 0.96,-44.93 -5.73,-14.65 -20.71,-23.9 -44.93,-27.72 -26.76,-5.1 -48.09,-2.54 -64.02,7.65 -15.95,10.21 -25.5,22.62 -28.68,37.28 -3.2,14.65 0.32,29.62 10.51,44.93 10.19,15.29 26.76,24.84 49.71,28.66zm1190.98 214.12c-14.01,-7.65 -25.18,-36.96 -33.46,-87.94 -8.29,-50.97 -14.33,-113.43 -18.15,-187.34 -3.82,-73.93 -5.74,-153.9 -5.74,-239.92 0,-86.04 0.64,-167.59 1.92,-244.7 1.28,-77.11 2.86,-144.97 4.78,-203.59 1.9,-58.64 3.5,-97.5 4.78,-116.62 2.54,-34.42 10.51,-61.82 23.9,-82.21 13.37,-20.38 29.62,-35.36 48.73,-44.91 19.13,-9.57 39.2,-15.61 60.22,-18.17 21.03,-2.54 40.47,-3.82 58.32,-3.82 42.05,0 72.01,10.53 89.84,31.54 17.85,21.03 29.64,48.75 35.36,83.15 5.74,34.42 7.97,72.97 6.7,115.67 -1.28,42.69 0,85.06 3.82,127.12 20.39,-25.5 41.41,-58 63.08,-97.5 21.67,-39.51 44.93,-78.05 69.78,-115.66 24.84,-37.6 51.93,-70.09 81.23,-97.5 29.32,-27.4 61.82,-41.09 97.5,-41.09 14.01,0 29.32,3.82 45.87,11.47 16.57,7.65 32.18,17.83 46.85,30.58 14.65,12.75 27.08,26.78 37.27,42.07 10.21,15.29 15.93,30.58 17.21,45.87 2.54,49.71 -6.69,99.41 -27.72,149.12 -21.03,49.71 -45.89,97.18 -74.55,142.41 -28.68,45.25 -57.36,86.04 -86.04,122.36 -28.68,36.32 -48.75,64.68 -60.22,85.06 17.85,25.5 40.15,56.72 66.9,93.68 26.78,36.96 52.89,76.47 78.39,118.52 25.5,42.07 47.79,84.75 66.9,128.08 19.11,43.35 29.96,83.49 32.5,120.44 1.28,22.95 -3.82,44.29 -15.29,64.04 -11.47,19.75 -26.14,36.96 -43.97,51.61 -17.85,14.67 -36.64,26.14 -56.4,34.42 -19.75,8.29 -37.28,12.43 -52.57,12.43 -38.23,0 -69.77,-11.79 -94.62,-35.38 -24.86,-23.58 -46.85,-52.24 -65.96,-86.02 -19.11,-33.78 -37.27,-69.78 -54.48,-108.01 -17.21,-38.23 -37.28,-72.01 -60.22,-101.33 -2.54,15.31 -3.5,24.22 -2.86,26.78 0.62,2.54 1.58,11.47 2.86,26.76 3.82,65 -2.86,117.88 -20.07,158.66 -17.21,40.79 -40.47,70.74 -69.78,89.86 -29.3,19.11 -62.12,28.36 -98.45,27.72 -36.32,-0.64 -71.05,-9.89 -104.19,-27.72zm1546.55 -76.47c7.65,36.96 0.64,65.32 -21.03,85.07 -21.66,19.75 -51.61,30.26 -89.84,31.54 -33.14,0 -61.18,-5.42 -84.11,-16.25 -22.94,-10.83 -47.15,-24.54 -72.65,-41.11 -28.04,2.54 -57.98,7.01 -89.84,13.39 -31.86,6.37 -64.04,11.15 -96.54,14.33 -32.5,3.18 -64.68,3.5 -96.54,0.96 -31.86,-2.54 -61.82,-11.47 -89.86,-26.76 -35.68,-19.13 -64.04,-50.03 -85.06,-92.72 -21.03,-42.69 -33.14,-87.62 -36.32,-134.77 -3.2,-47.17 3.5,-92.4 20.07,-135.75 16.55,-43.33 43.97,-75.83 82.19,-97.49 19.11,-10.21 36.64,-18.79 52.57,-25.82 15.93,-7.01 33.14,-12.43 51.61,-16.25 18.47,-3.82 39.19,-7.01 62.12,-9.55 22.95,-2.56 50.99,-4.46 84.11,-5.74 30.6,-31.86 26.46,-54.48 -12.41,-67.86 -38.88,-13.39 -109.29,-7.33 -211.26,18.17 -36.95,-6.38 -61.8,-22.95 -74.55,-49.71 -12.75,-26.76 -15.93,-55.44 -9.57,-86.02 6.38,-30.6 21.03,-59.6 43.97,-87 22.95,-27.4 50.99,-44.91 84.11,-52.57 109.61,-19.11 206.47,-19.11 290.59,0 84.11,19.13 150.7,54.17 199.77,105.15 49.05,50.97 78.37,115.98 87.94,194.99 9.55,79.03 -5.42,168.23 -44.93,267.64 -11.47,21.67 -15.29,41.43 -11.47,59.28 3.82,17.83 10.51,35.04 20.07,51.61 9.55,16.57 19.11,33.12 28.68,49.69 9.55,16.57 15.61,34.42 18.15,53.53zm-437.77 -137.65c15.29,5.1 30.26,2.56 44.91,-7.65 14.67,-10.19 25.18,-22.94 31.54,-38.23 6.38,-15.29 6.7,-30.28 0.96,-44.93 -5.73,-14.65 -20.71,-23.9 -44.93,-27.72 -26.76,-5.1 -48.09,-2.54 -64.02,7.65 -15.95,10.21 -25.5,22.62 -28.68,37.28 -3.2,14.65 0.32,29.62 10.51,44.93 10.19,15.29 26.76,24.84 49.71,28.66zm699.68 229.41c-40.79,2.54 -71.69,-9.89 -92.72,-37.28 -21.03,-27.4 -36,-61.8 -44.93,-103.23 -8.91,-41.43 -13.69,-86.02 -14.33,-133.81 -0.64,-47.79 -0.96,-91.46 -0.96,-130.96l0 -533.35c0,-24.22 0.32,-50.35 0.96,-78.39 0.64,-28.04 3.82,-55.76 9.57,-83.15 5.73,-27.4 14.01,-52.89 24.84,-76.47 10.85,-23.58 27.1,-44.29 48.75,-62.12 30.6,-11.47 58.94,-14.03 85.07,-7.65 26.12,6.37 48.43,19.11 66.9,38.23 18.49,19.11 32.82,43.65 43.01,73.61 10.21,29.94 15.31,62.76 15.31,98.45 0,42.07 0,87.3 0,135.73 0,48.43 0,101.65 0,159.62 0,58 0.3,121.4 0.94,190.22 0.64,68.81 0.96,144.64 0.96,227.49 0,25.48 -1.6,56.08 -4.78,91.76 -3.18,35.68 -9.55,70.41 -19.11,104.19 -9.57,33.76 -23.9,63.08 -43.01,87.94 -19.11,24.86 -44.61,37.91 -76.47,39.19zm447.33 -984.52c-56.08,3.82 -99.73,-6.37 -130.95,-30.58 -31.24,-24.22 -49.07,-51.93 -53.53,-83.15 -4.46,-31.24 5.42,-60.86 29.64,-88.9 24.22,-28.04 63.72,-44.61 118.52,-49.71 44.61,-3.82 78.37,5.42 101.33,27.72 22.94,22.31 35.68,48.75 38.23,79.33 2.54,30.6 -5.1,60.22 -22.94,88.9 -17.85,28.68 -44.61,47.47 -80.29,56.4zm-51.61 101.33c39.51,-6.38 70.09,0.64 91.76,21.03 21.66,20.38 37.28,49.69 46.83,87.94 9.57,38.23 14.65,83.47 15.29,135.73 0.64,52.25 -0.32,107.37 -2.86,165.35 -2.54,58 -4.78,116.62 -6.69,175.87 -1.92,59.28 -0.32,114.39 4.76,165.37 2.56,31.86 -7.01,61.82 -28.66,89.86 -21.67,28.02 -52.89,45.23 -93.68,51.61 -22.94,3.82 -44.61,1.9 -65,-5.74 -20.39,-7.65 -37.59,-18.15 -51.61,-31.54 -14.01,-13.39 -25.16,-28.68 -33.44,-45.89 -8.29,-17.19 -11.17,-33.44 -8.61,-48.73 -5.1,-45.89 -7.97,-94.64 -8.61,-146.25 -0.64,-51.61 -0.64,-103.87 0,-156.76 0.64,-52.88 1.6,-105.13 2.86,-156.74 1.28,-51.63 1.28,-101.01 0,-148.16 1.28,-15.31 4.78,-31.86 10.53,-49.71 5.73,-17.85 14.01,-34.4 24.84,-49.71 10.85,-15.29 24.86,-28.04 42.07,-38.23 17.21,-10.19 37.28,-15.29 60.22,-15.29zm533.37 114.7c101.95,-56.08 187.66,-81.25 257.11,-75.51 69.46,5.74 124.58,31.54 165.37,77.43 40.79,45.87 68.5,107.05 83.15,183.52 14.67,76.47 18.79,158.02 12.43,244.7 -5.1,62.44 -24.54,116.6 -58.3,162.49 -33.78,45.87 -74.25,81.25 -121.4,106.09 -47.15,24.86 -97.82,37.92 -151.98,39.2 -54.16,1.26 -104.19,-11.47 -150.06,-38.24 -2.56,31.86 -3.52,66.28 -2.88,103.23 0.64,36.96 0.32,74.57 -0.96,112.79 -1.26,38.24 -4.12,74.87 -8.59,109.93 -4.46,35.04 -12.75,66.26 -24.86,93.66 -12.11,27.4 -29.64,49.07 -52.57,65 -22.94,15.93 -52.89,23.26 -89.86,21.99 -16.55,0 -32.16,-4.46 -46.83,-13.39 -14.65,-8.93 -27.72,-20.07 -39.19,-33.46 -11.47,-13.37 -20.07,-28.68 -25.82,-45.87 -5.73,-17.21 -8.59,-34.1 -8.59,-50.67 0,-85.38 0,-166.31 0,-242.78 0,-76.47 0.3,-151.66 0.94,-225.59 0.64,-73.91 1.28,-149.1 1.92,-225.57 0.64,-76.47 2.22,-158.04 4.78,-244.7 0,-22.94 0.64,-46.51 1.9,-70.73 1.28,-24.22 5.42,-46.21 12.43,-65.96 7.01,-19.75 18.47,-36 34.4,-48.75 15.93,-12.73 39.2,-18.47 69.78,-17.19 29.32,0 58,5.4 86.04,16.25 28.04,10.83 45.23,31.54 51.61,62.12zm231.31 338.38c0,-29.32 -5.1,-52.89 -15.29,-70.74 -10.21,-17.83 -31.86,-28.04 -65,-30.58 -31.86,-1.28 -53.85,6.37 -65.96,22.94 -12.11,16.57 -18.15,43.33 -18.15,80.29 -1.28,28.04 6.37,49.71 22.94,65 16.57,15.29 35.36,23.26 56.4,23.9 21.03,0.64 40.15,-6.38 57.36,-21.03 17.19,-14.65 26.44,-37.91 27.72,-69.77zm1066.72 -378.53c22.94,11.47 39.83,28.04 50.65,49.71 10.85,21.66 18.17,45.23 21.99,70.73 12.75,108.33 18.79,210.6 18.15,306.82 -0.62,96.22 -7.97,197.87 -21.98,304.92 -5.1,22.94 -19.11,43.01 -42.07,60.22 -22.94,17.21 -43.97,29 -63.08,35.36 -30.58,0 -59.58,-8.29 -86.98,-24.86 -27.4,-16.55 -43.01,-42.05 -46.83,-76.45 -80.29,42.05 -149.76,67.86 -208.38,77.41 -58.64,9.57 -108.33,6.7 -149.12,-8.61 -40.79,-15.29 -72.97,-42.05 -96.54,-80.29 -23.58,-38.23 -41.43,-84.11 -53.52,-137.63 -12.11,-53.53 -19.13,-113.43 -21.03,-179.7 -1.92,-66.28 -0.32,-135.73 4.78,-208.38 3.82,-12.75 7.01,-27.4 9.55,-43.97 2.56,-16.57 5.74,-32.5 9.57,-47.79 3.82,-15.29 9.23,-29.96 16.25,-43.97 7.01,-14.03 17.51,-24.86 31.54,-32.5 28.04,-24.22 55.12,-35.68 81.25,-34.4 26.12,1.26 49.05,10.19 68.81,26.76 19.75,16.57 35.36,38.87 46.85,66.9 11.47,28.04 17.19,56.72 17.19,86.04 0,24.22 0.96,44.59 2.88,61.16 1.9,16.57 3.5,32.18 4.76,46.85 1.28,14.65 2.88,30.58 4.78,47.79 1.92,17.19 2.86,37.91 2.86,62.12 1.28,25.5 4.46,49.07 9.57,70.73 5.1,21.67 16.57,39.52 34.4,53.53 22.95,7.65 45.89,5.42 68.82,-6.69 22.95,-12.11 39.51,-29.64 49.71,-52.57 15.29,-36.96 23.26,-73.29 23.9,-108.97 0.64,-35.68 0.96,-71.05 0.96,-106.09 0,-35.06 2.22,-70.1 6.69,-105.15 4.46,-35.04 17.53,-70.41 39.19,-106.11 21.67,-19.11 48.11,-29.3 79.33,-30.58 31.24,-1.28 59.58,1.28 85.07,7.65zm887.04 636.6c5.08,42.05 -2.88,75.83 -23.9,101.33 -21.03,25.48 -47.17,44.61 -78.39,57.34 -31.22,12.75 -64.04,21.03 -98.45,24.86 -34.42,3.82 -62.46,4.46 -84.11,1.92 -79.01,-6.38 -146.25,-19.43 -201.69,-39.2 -55.44,-19.75 -100.69,-46.83 -135.73,-81.23 -35.04,-34.42 -60.54,-77.43 -76.47,-129.04 -15.93,-51.61 -23.9,-112.47 -23.9,-182.56 0,-65 12.11,-124.26 36.32,-177.8 24.22,-53.52 56.72,-99.41 97.5,-137.63 40.79,-38.24 88.9,-68.18 144.33,-89.86 55.44,-21.67 114.38,-32.5 176.84,-32.5 25.48,0 52.88,3.5 82.19,10.53 29.32,7.01 56.72,17.83 82.19,32.48 25.5,14.67 46.85,33.46 64.04,56.4 17.21,22.95 25.82,50.35 25.82,82.21 0,38.23 -13.07,71.37 -39.19,99.41 -26.14,28.04 -55.76,43.33 -88.9,45.87 -20.39,1.28 -41.75,0 -64.04,-3.82 -22.3,-3.82 -44.61,-7.01 -66.9,-9.55 -22.31,-2.56 -43.65,-3.82 -64.04,-3.82 -20.39,0 -38.24,4.46 -53.53,13.37 -15.29,8.93 -27.08,23.58 -35.36,43.97 -8.29,20.39 -11.79,49.07 -10.51,86.04 1.26,45.87 12.73,77.41 34.4,94.62 21.67,17.21 47.79,27.08 78.37,29.64 30.6,2.54 64.04,1.26 100.37,-3.82 36.32,-5.1 70.1,-6.7 101.33,-4.78 31.22,1.9 58.3,10.83 81.25,26.76 22.94,15.93 36.32,45.57 40.15,88.9zm818.2 80.29c7.65,36.96 0.64,65.32 -21.03,85.07 -21.66,19.75 -51.61,30.26 -89.84,31.54 -33.14,0 -61.18,-5.42 -84.11,-16.25 -22.94,-10.83 -47.15,-24.54 -72.65,-41.11 -28.04,2.54 -57.98,7.01 -89.84,13.39 -31.86,6.37 -64.04,11.15 -96.54,14.33 -32.5,3.18 -64.68,3.5 -96.54,0.96 -31.86,-2.54 -61.82,-11.47 -89.86,-26.76 -35.68,-19.13 -64.04,-50.03 -85.06,-92.72 -21.03,-42.69 -33.14,-87.62 -36.32,-134.77 -3.2,-47.17 3.5,-92.4 20.07,-135.75 16.55,-43.33 43.97,-75.83 82.19,-97.49 19.11,-10.21 36.64,-18.79 52.57,-25.82 15.93,-7.01 33.14,-12.43 51.61,-16.25 18.47,-3.82 39.19,-7.01 62.12,-9.55 22.95,-2.56 50.99,-4.46 84.11,-5.74 30.6,-31.86 26.46,-54.48 -12.41,-67.86 -38.88,-13.39 -109.29,-7.33 -211.26,18.17 -36.95,-6.38 -61.8,-22.95 -74.55,-49.71 -12.75,-26.76 -15.93,-55.44 -9.57,-86.02 6.38,-30.6 21.03,-59.6 43.97,-87 22.95,-27.4 50.99,-44.91 84.11,-52.57 109.61,-19.11 206.47,-19.11 290.59,0 84.11,19.13 150.7,54.17 199.77,105.15 49.05,50.97 78.37,115.98 87.94,194.99 9.55,79.03 -5.42,168.23 -44.93,267.64 -11.47,21.67 -15.29,41.43 -11.47,59.28 3.82,17.83 10.51,35.04 20.07,51.61 9.55,16.57 19.11,33.12 28.68,49.69 9.55,16.57 15.61,34.42 18.15,53.53zm-437.77 -137.65c15.29,5.1 30.26,2.56 44.91,-7.65 14.67,-10.19 25.18,-22.94 31.54,-38.23 6.38,-15.29 6.7,-30.28 0.96,-44.93 -5.73,-14.65 -20.71,-23.9 -44.93,-27.72 -26.76,-5.1 -48.09,-2.54 -64.02,7.65 -15.95,10.21 -25.5,22.62 -28.68,37.28 -3.2,14.65 0.32,29.62 10.51,44.93 10.19,15.29 26.76,24.84 49.71,28.66z"/>
    <path id="1" class="fil15" d="M276.17 10853.47c24.22,-3.82 46.51,-5.73 66.9,-5.73 20.39,0 38.88,4.76 55.45,14.33 16.55,9.57 31.22,25.8 43.97,48.75 12.73,22.94 22.94,54.8 30.58,95.58 8.93,36.96 16.57,82.51 22.94,136.69 6.38,54.16 12.11,109.91 17.21,167.27 5.1,57.36 9.87,111.51 14.33,162.49 4.46,50.97 8.61,90.5 12.43,118.54 8.93,-29.32 16.89,-54.49 23.9,-75.53 7.01,-21.02 14.97,-40.77 23.9,-59.26 8.93,-18.47 18.49,-37.91 28.68,-58.3 10.19,-20.39 22.94,-43.97 38.23,-70.73 29.32,-43.35 59.28,-65.64 89.86,-66.92 30.58,-1.26 60.86,11.47 90.8,38.24 29.96,26.76 58.32,63.4 85.07,109.91 26.76,46.53 50.33,95.26 70.73,146.25 3.82,-42.07 5.74,-79.97 5.74,-113.75 0,-33.76 0.32,-68.18 0.96,-103.23 0.64,-35.04 2.54,-72.97 5.73,-113.75 3.18,-40.77 9.89,-89.2 20.07,-145.28 6.38,-56.08 18.49,-101.97 36.32,-137.65 17.85,-35.68 38.24,-62.44 61.18,-80.29 22.94,-17.83 47.15,-26.76 72.65,-26.76 25.48,0 49.37,7.33 71.69,21.98 22.3,14.67 41.09,36 56.4,64.04 15.29,28.04 24.22,61.82 26.76,101.33 -5.1,91.76 -9.89,176.52 -14.33,254.25 -4.46,77.75 -9.57,149.44 -15.31,215.08 -5.73,65.62 -12.11,125.52 -19.11,179.7 -7.01,54.16 -16.25,103.55 -27.72,148.16 -8.93,44.61 -18.79,83.47 -29.64,116.62 -10.83,33.12 -24.52,61.48 -41.09,85.06 -16.57,23.58 -37.28,43.33 -62.14,59.26 -24.84,15.93 -55.12,29.64 -90.8,41.11 -48.43,1.28 -88.58,-9.25 -120.44,-31.54 -31.86,-22.3 -57.98,-50.97 -78.37,-86.02 -20.39,-35.06 -36.64,-73.93 -48.75,-116.62 -12.11,-42.71 -23.26,-83.79 -33.46,-123.3 -16.57,38.23 -34.72,82.83 -54.48,133.81 -19.75,50.97 -43.97,96.54 -72.65,136.69 -28.68,40.15 -62.44,69.14 -101.33,86.98 -38.87,17.85 -85.7,14.03 -140.49,-11.47 -17.85,-7.65 -36.64,-31.22 -56.4,-70.73 -19.75,-39.51 -38.56,-88.58 -56.4,-147.2 -17.85,-58.64 -34.1,-124.58 -48.75,-197.87 -14.65,-73.29 -27.08,-147.52 -37.28,-222.71 -10.19,-75.21 -16.89,-148.8 -20.07,-220.8 -3.18,-72.01 -2.22,-136.69 2.88,-194.05 5.08,-57.34 14.97,-104.19 29.62,-140.49 14.65,-36.32 36,-57.04 64.04,-62.14zm1898.3 1160.4c7.65,36.96 0.64,65.32 -21.03,85.07 -21.66,19.75 -51.61,30.26 -89.84,31.54 -33.14,0 -61.18,-5.42 -84.11,-16.25 -22.94,-10.83 -47.15,-24.54 -72.65,-41.11 -28.04,2.54 -57.98,7.01 -89.84,13.39 -31.86,6.37 -64.04,11.15 -96.54,14.33 -32.5,3.18 -64.68,3.5 -96.54,0.96 -31.86,-2.54 -61.82,-11.47 -89.86,-26.76 -35.68,-19.13 -64.04,-50.03 -85.06,-92.72 -21.03,-42.69 -33.14,-87.62 -36.32,-134.77 -3.2,-47.17 3.5,-92.4 20.07,-135.75 16.55,-43.33 43.97,-75.83 82.19,-97.49 19.11,-10.21 36.64,-18.79 52.57,-25.82 15.93,-7.01 33.14,-12.43 51.61,-16.25 18.47,-3.82 39.19,-7.01 62.12,-9.55 22.95,-2.56 50.99,-4.46 84.11,-5.74 30.6,-31.86 26.46,-54.48 -12.41,-67.86 -38.88,-13.39 -109.29,-7.33 -211.26,18.17 -36.95,-6.38 -61.8,-22.95 -74.55,-49.71 -12.75,-26.76 -15.93,-55.44 -9.57,-86.02 6.38,-30.6 21.03,-59.6 43.97,-87 22.95,-27.4 50.99,-44.91 84.11,-52.57 109.61,-19.11 206.47,-19.11 290.59,0 84.11,19.13 150.7,54.17 199.77,105.15 49.05,50.97 78.37,115.98 87.94,194.99 9.55,79.03 -5.42,168.23 -44.93,267.64 -11.47,21.67 -15.29,41.43 -11.47,59.28 3.82,17.83 10.51,35.04 20.07,51.61 9.55,16.57 19.11,33.12 28.68,49.69 9.55,16.57 15.61,34.42 18.15,53.53zm-437.77 -137.65c15.29,5.1 30.26,2.56 44.91,-7.65 14.67,-10.19 25.18,-22.94 31.54,-38.23 6.38,-15.29 6.7,-30.28 0.96,-44.93 -5.73,-14.65 -20.71,-23.9 -44.93,-27.72 -26.76,-5.1 -48.09,-2.54 -64.02,7.65 -15.95,10.21 -25.5,22.62 -28.68,37.28 -3.2,14.65 0.32,29.62 10.51,44.93 10.19,15.29 26.76,24.84 49.71,28.66zm820.12 -82.19c0,30.58 -0.64,65 -1.92,103.23 -1.26,38.24 -6.69,74.25 -16.25,108.01 -9.55,33.78 -24.52,62.44 -44.91,86.04 -20.39,23.58 -49.71,35.36 -87.94,35.36 -33.14,0 -59.28,-7.65 -78.39,-22.95 -19.11,-15.29 -33.14,-35.04 -42.05,-59.26 -8.93,-24.22 -14.35,-51.29 -16.25,-81.23 -1.92,-29.96 -2.88,-59.58 -2.88,-88.9 0,-82.83 0.96,-159.94 2.88,-231.31 1.9,-71.37 2.86,-148.48 2.86,-231.31 0,-57.36 14.33,-104.19 43.01,-140.51 28.68,-36.32 72.33,-54.49 130.96,-54.49 34.4,0 64.66,10.53 90.8,31.54 26.12,21.03 37.91,49.39 35.36,85.07 24.22,-26.76 47.15,-50.01 68.82,-69.77 21.66,-19.77 51.61,-29.64 89.84,-29.64 26.78,0 53.53,5.42 80.29,16.25 26.78,10.83 50.67,25.8 71.69,44.93 21.03,19.11 38.24,41.09 51.61,65.94 13.39,24.86 20.07,51.29 20.07,79.33 0,12.75 -2.22,27.1 -6.69,43.03 -4.46,15.93 -11.15,31.22 -20.07,45.87 -8.93,14.65 -19.11,28.04 -30.58,40.15 -11.47,12.11 -24.86,20.07 -40.15,23.9 -22.94,7.65 -46.53,6.69 -70.74,-2.86 -24.2,-9.57 -47.47,-19.75 -69.77,-30.6 -22.31,-10.83 -43.01,-19.43 -62.14,-25.8 -19.11,-6.37 -36,-3.18 -50.65,9.57 -14.65,12.73 -26.12,38.23 -34.4,76.45 -8.29,38.24 -12.43,96.22 -12.43,173.97zm955.84 282.93c-26.78,22.94 -55.76,37.6 -87,43.97 -31.22,6.38 -62.76,6.38 -94.62,0 -31.86,-6.37 -62.12,-18.47 -90.8,-36.32 -28.68,-17.83 -53.21,-39.51 -73.61,-64.98 -33.12,-38.24 -56.4,-79.35 -69.77,-123.32 -13.39,-43.97 -21.35,-89.52 -23.9,-136.67 -2.56,-47.17 -2.56,-94.64 0,-142.43 2.54,-47.79 3.82,-94.62 3.82,-140.51 -28.04,0 -50.35,-13.37 -66.92,-40.15 -16.55,-26.76 -25.48,-55.44 -26.76,-86.02 -1.28,-30.6 7.01,-58 24.86,-82.21 17.83,-24.22 47.15,-35.04 87.94,-32.5 -1.28,-30.58 -2.24,-57.98 -2.86,-82.19 -0.64,-24.22 -0.64,-46.83 0,-67.86 0.62,-21.03 2.22,-41.43 4.76,-61.18 2.56,-19.75 6.38,-40.47 11.49,-62.12 0,-26.76 7.97,-50.35 23.9,-70.73 15.93,-20.39 35.68,-35.38 59.26,-44.93 23.58,-9.57 48.11,-13.07 73.59,-10.53 25.5,2.56 47.17,13.39 65,32.5 14.03,30.6 23.9,59.9 29.64,87.94 5.73,28.04 8.91,56.4 9.55,85.07 0.64,28.68 0.32,57.68 -0.94,86.98 -1.28,29.32 -1.92,59.26 -1.92,89.86 16.57,2.54 33.46,3.82 50.65,3.82 17.21,0 34.1,1.28 50.67,3.82 16.57,2.54 31.86,7.97 45.87,16.25 14.03,8.29 25.5,21.34 34.42,39.19 11.47,15.29 17.83,33.78 19.11,55.44 1.28,21.67 -1.92,42.39 -9.57,62.14 -7.65,19.75 -18.79,36.95 -33.44,51.61 -14.67,14.65 -30.92,23.9 -48.75,27.72 -12.75,2.54 -23.9,3.82 -33.46,3.82 -9.55,0 -18.79,-0.32 -27.72,-0.96 -8.93,-0.64 -18.15,-0.96 -27.72,-0.96 -9.57,0 -20.71,0.64 -33.46,1.92 -2.54,53.52 -3.5,103.23 -2.86,149.12 0.64,45.87 6.69,94.94 18.17,147.2 8.91,30.58 22.62,50.97 41.09,61.16 18.49,10.21 41.11,21.67 67.86,34.42 17.85,8.93 32.5,21.66 43.97,38.23 11.47,16.57 19.13,34.74 22.95,54.49 3.82,19.75 3.18,39.51 -1.92,59.26 -5.1,19.75 -15.29,36.64 -30.58,50.65zm862.16 -63.08c7.65,36.96 0.64,65.32 -21.03,85.07 -21.66,19.75 -51.61,30.26 -89.84,31.54 -33.14,0 -61.18,-5.42 -84.11,-16.25 -22.94,-10.83 -47.15,-24.54 -72.65,-41.11 -28.04,2.54 -57.98,7.01 -89.84,13.39 -31.86,6.37 -64.04,11.15 -96.54,14.33 -32.5,3.18 -64.68,3.5 -96.54,0.96 -31.86,-2.54 -61.82,-11.47 -89.86,-26.76 -35.68,-19.13 -64.04,-50.03 -85.06,-92.72 -21.03,-42.69 -33.14,-87.62 -36.32,-134.77 -3.2,-47.17 3.5,-92.4 20.07,-135.75 16.55,-43.33 43.97,-75.83 82.19,-97.49 19.11,-10.21 36.64,-18.79 52.57,-25.82 15.93,-7.01 33.14,-12.43 51.61,-16.25 18.47,-3.82 39.19,-7.01 62.12,-9.55 22.95,-2.56 50.99,-4.46 84.11,-5.74 30.6,-31.86 26.46,-54.48 -12.41,-67.86 -38.88,-13.39 -109.29,-7.33 -211.26,18.17 -36.95,-6.38 -61.8,-22.95 -74.55,-49.71 -12.75,-26.76 -15.93,-55.44 -9.57,-86.02 6.38,-30.6 21.03,-59.6 43.97,-87 22.95,-27.4 50.99,-44.91 84.11,-52.57 109.61,-19.11 206.47,-19.11 290.59,0 84.11,19.13 150.7,54.17 199.77,105.15 49.05,50.97 78.37,115.98 87.94,194.99 9.55,79.03 -5.42,168.23 -44.93,267.64 -11.47,21.67 -15.29,41.43 -11.47,59.28 3.82,17.83 10.51,35.04 20.07,51.61 9.55,16.57 19.11,33.12 28.68,49.69 9.55,16.57 15.61,34.42 18.15,53.53zm-437.77 -137.65c15.29,5.1 30.26,2.56 44.91,-7.65 14.67,-10.19 25.18,-22.94 31.54,-38.23 6.38,-15.29 6.7,-30.28 0.96,-44.93 -5.73,-14.65 -20.71,-23.9 -44.93,-27.72 -26.76,-5.1 -48.09,-2.54 -64.02,7.65 -15.95,10.21 -25.5,22.62 -28.68,37.28 -3.2,14.65 0.32,29.62 10.51,44.93 10.19,15.29 26.76,24.84 49.71,28.66zm1190.98 214.12c-14.01,-7.65 -25.18,-36.96 -33.46,-87.94 -8.29,-50.97 -14.33,-113.43 -18.15,-187.34 -3.82,-73.93 -5.74,-153.9 -5.74,-239.92 0,-86.04 0.64,-167.59 1.92,-244.7 1.28,-77.11 2.86,-144.97 4.78,-203.59 1.9,-58.64 3.5,-97.5 4.78,-116.62 2.54,-34.42 10.51,-61.82 23.9,-82.21 13.37,-20.38 29.62,-35.36 48.73,-44.91 19.13,-9.57 39.2,-15.61 60.22,-18.17 21.03,-2.54 40.47,-3.82 58.32,-3.82 42.05,0 72.01,10.53 89.84,31.54 17.85,21.03 29.64,48.75 35.36,83.15 5.74,34.42 7.97,72.97 6.7,115.67 -1.28,42.69 0,85.06 3.82,127.12 20.39,-25.5 41.41,-58 63.08,-97.5 21.67,-39.51 44.93,-78.05 69.78,-115.66 24.84,-37.6 51.93,-70.09 81.23,-97.5 29.32,-27.4 61.82,-41.09 97.5,-41.09 14.01,0 29.32,3.82 45.87,11.47 16.57,7.65 32.18,17.83 46.85,30.58 14.65,12.75 27.08,26.78 37.27,42.07 10.21,15.29 15.93,30.58 17.21,45.87 2.54,49.71 -6.69,99.41 -27.72,149.12 -21.03,49.71 -45.89,97.18 -74.55,142.41 -28.68,45.25 -57.36,86.04 -86.04,122.36 -28.68,36.32 -48.75,64.68 -60.22,85.06 17.85,25.5 40.15,56.72 66.9,93.68 26.78,36.96 52.89,76.47 78.39,118.52 25.5,42.07 47.79,84.75 66.9,128.08 19.11,43.35 29.96,83.49 32.5,120.44 1.28,22.95 -3.82,44.29 -15.29,64.04 -11.47,19.75 -26.14,36.96 -43.97,51.61 -17.85,14.67 -36.64,26.14 -56.4,34.42 -19.75,8.29 -37.28,12.43 -52.57,12.43 -38.23,0 -69.77,-11.79 -94.62,-35.38 -24.86,-23.58 -46.85,-52.24 -65.96,-86.02 -19.11,-33.78 -37.27,-69.78 -54.48,-108.01 -17.21,-38.23 -37.28,-72.01 -60.22,-101.33 -2.54,15.31 -3.5,24.22 -2.86,26.78 0.62,2.54 1.58,11.47 2.86,26.76 3.82,65 -2.86,117.88 -20.07,158.66 -17.21,40.79 -40.47,70.74 -69.78,89.86 -29.3,19.11 -62.12,28.36 -98.45,27.72 -36.32,-0.64 -71.05,-9.89 -104.19,-27.72zm1546.55 -76.47c7.65,36.96 0.64,65.32 -21.03,85.07 -21.66,19.75 -51.61,30.26 -89.84,31.54 -33.14,0 -61.18,-5.42 -84.11,-16.25 -22.94,-10.83 -47.15,-24.54 -72.65,-41.11 -28.04,2.54 -57.98,7.01 -89.84,13.39 -31.86,6.37 -64.04,11.15 -96.54,14.33 -32.5,3.18 -64.68,3.5 -96.54,0.96 -31.86,-2.54 -61.82,-11.47 -89.86,-26.76 -35.68,-19.13 -64.04,-50.03 -85.06,-92.72 -21.03,-42.69 -33.14,-87.62 -36.32,-134.77 -3.2,-47.17 3.5,-92.4 20.07,-135.75 16.55,-43.33 43.97,-75.83 82.19,-97.49 19.11,-10.21 36.64,-18.79 52.57,-25.82 15.93,-7.01 33.14,-12.43 51.61,-16.25 18.47,-3.82 39.19,-7.01 62.12,-9.55 22.95,-2.56 50.99,-4.46 84.11,-5.74 30.6,-31.86 26.46,-54.48 -12.41,-67.86 -38.88,-13.39 -109.29,-7.33 -211.26,18.17 -36.95,-6.38 -61.8,-22.95 -74.55,-49.71 -12.75,-26.76 -15.93,-55.44 -9.57,-86.02 6.38,-30.6 21.03,-59.6 43.97,-87 22.95,-27.4 50.99,-44.91 84.11,-52.57 109.61,-19.11 206.47,-19.11 290.59,0 84.11,19.13 150.7,54.17 199.77,105.15 49.05,50.97 78.37,115.98 87.94,194.99 9.55,79.03 -5.42,168.23 -44.93,267.64 -11.47,21.67 -15.29,41.43 -11.47,59.28 3.82,17.83 10.51,35.04 20.07,51.61 9.55,16.57 19.11,33.12 28.68,49.69 9.55,16.57 15.61,34.42 18.15,53.53zm-437.77 -137.65c15.29,5.1 30.26,2.56 44.91,-7.65 14.67,-10.19 25.18,-22.94 31.54,-38.23 6.38,-15.29 6.7,-30.28 0.96,-44.93 -5.73,-14.65 -20.71,-23.9 -44.93,-27.72 -26.76,-5.1 -48.09,-2.54 -64.02,7.65 -15.95,10.21 -25.5,22.62 -28.68,37.28 -3.2,14.65 0.32,29.62 10.51,44.93 10.19,15.29 26.76,24.84 49.71,28.66zm699.68 229.41c-40.79,2.54 -71.69,-9.89 -92.72,-37.28 -21.03,-27.4 -36,-61.8 -44.93,-103.23 -8.91,-41.43 -13.69,-86.02 -14.33,-133.81 -0.64,-47.79 -0.96,-91.46 -0.96,-130.96l0 -533.35c0,-24.22 0.32,-50.35 0.96,-78.39 0.64,-28.04 3.82,-55.76 9.57,-83.15 5.73,-27.4 14.01,-52.89 24.84,-76.47 10.85,-23.58 27.1,-44.29 48.75,-62.12 30.6,-11.47 58.94,-14.03 85.07,-7.65 26.12,6.37 48.43,19.11 66.9,38.23 18.49,19.11 32.82,43.65 43.01,73.61 10.21,29.94 15.31,62.76 15.31,98.45 0,42.07 0,87.3 0,135.73 0,48.43 0,101.65 0,159.62 0,58 0.3,121.4 0.94,190.22 0.64,68.81 0.96,144.64 0.96,227.49 0,25.48 -1.6,56.08 -4.78,91.76 -3.18,35.68 -9.55,70.41 -19.11,104.19 -9.57,33.76 -23.9,63.08 -43.01,87.94 -19.11,24.86 -44.61,37.91 -76.47,39.19zm447.33 -984.52c-56.08,3.82 -99.73,-6.37 -130.95,-30.58 -31.24,-24.22 -49.07,-51.93 -53.53,-83.15 -4.46,-31.24 5.42,-60.86 29.64,-88.9 24.22,-28.04 63.72,-44.61 118.52,-49.71 44.61,-3.82 78.37,5.42 101.33,27.72 22.94,22.31 35.68,48.75 38.23,79.33 2.54,30.6 -5.1,60.22 -22.94,88.9 -17.85,28.68 -44.61,47.47 -80.29,56.4zm-51.61 101.33c39.51,-6.38 70.09,0.64 91.76,21.03 21.66,20.38 37.28,49.69 46.83,87.94 9.57,38.23 14.65,83.47 15.29,135.73 0.64,52.25 -0.32,107.37 -2.86,165.35 -2.54,58 -4.78,116.62 -6.69,175.87 -1.92,59.28 -0.32,114.39 4.76,165.37 2.56,31.86 -7.01,61.82 -28.66,89.86 -21.67,28.02 -52.89,45.23 -93.68,51.61 -22.94,3.82 -44.61,1.9 -65,-5.74 -20.39,-7.65 -37.59,-18.15 -51.61,-31.54 -14.01,-13.39 -25.16,-28.68 -33.44,-45.89 -8.29,-17.19 -11.17,-33.44 -8.61,-48.73 -5.1,-45.89 -7.97,-94.64 -8.61,-146.25 -0.64,-51.61 -0.64,-103.87 0,-156.76 0.64,-52.88 1.6,-105.13 2.86,-156.74 1.28,-51.63 1.28,-101.01 0,-148.16 1.28,-15.31 4.78,-31.86 10.53,-49.71 5.73,-17.85 14.01,-34.4 24.84,-49.71 10.85,-15.29 24.86,-28.04 42.07,-38.23 17.21,-10.19 37.28,-15.29 60.22,-15.29zm533.37 114.7c101.95,-56.08 187.66,-81.25 257.11,-75.51 69.46,5.74 124.58,31.54 165.37,77.43 40.79,45.87 68.5,107.05 83.15,183.52 14.67,76.47 18.79,158.02 12.43,244.7 -5.1,62.44 -24.54,116.6 -58.3,162.49 -33.78,45.87 -74.25,81.25 -121.4,106.09 -47.15,24.86 -97.82,37.92 -151.98,39.2 -54.16,1.26 -104.19,-11.47 -150.06,-38.24 -2.56,31.86 -3.52,66.28 -2.88,103.23 0.64,36.96 0.32,74.57 -0.96,112.79 -1.26,38.24 -4.12,74.87 -8.59,109.93 -4.46,35.04 -12.75,66.26 -24.86,93.66 -12.11,27.4 -29.64,49.07 -52.57,65 -22.94,15.93 -52.89,23.26 -89.86,21.99 -16.55,0 -32.16,-4.46 -46.83,-13.39 -14.65,-8.93 -27.72,-20.07 -39.19,-33.46 -11.47,-13.37 -20.07,-28.68 -25.82,-45.87 -5.73,-17.21 -8.59,-34.1 -8.59,-50.67 0,-85.38 0,-166.31 0,-242.78 0,-76.47 0.3,-151.66 0.94,-225.59 0.64,-73.91 1.28,-149.1 1.92,-225.57 0.64,-76.47 2.22,-158.04 4.78,-244.7 0,-22.94 0.64,-46.51 1.9,-70.73 1.28,-24.22 5.42,-46.21 12.43,-65.96 7.01,-19.75 18.47,-36 34.4,-48.75 15.93,-12.73 39.2,-18.47 69.78,-17.19 29.32,0 58,5.4 86.04,16.25 28.04,10.83 45.23,31.54 51.61,62.12zm231.31 338.38c0,-29.32 -5.1,-52.89 -15.29,-70.74 -10.21,-17.83 -31.86,-28.04 -65,-30.58 -31.86,-1.28 -53.85,6.37 -65.96,22.94 -12.11,16.57 -18.15,43.33 -18.15,80.29 -1.28,28.04 6.37,49.71 22.94,65 16.57,15.29 35.36,23.26 56.4,23.9 21.03,0.64 40.15,-6.38 57.36,-21.03 17.19,-14.65 26.44,-37.91 27.72,-69.77zm1066.72 -378.53c22.94,11.47 39.83,28.04 50.65,49.71 10.85,21.66 18.17,45.23 21.99,70.73 12.75,108.33 18.79,210.6 18.15,306.82 -0.62,96.22 -7.97,197.87 -21.98,304.92 -5.1,22.94 -19.11,43.01 -42.07,60.22 -22.94,17.21 -43.97,29 -63.08,35.36 -30.58,0 -59.58,-8.29 -86.98,-24.86 -27.4,-16.55 -43.01,-42.05 -46.83,-76.45 -80.29,42.05 -149.76,67.86 -208.38,77.41 -58.64,9.57 -108.33,6.7 -149.12,-8.61 -40.79,-15.29 -72.97,-42.05 -96.54,-80.29 -23.58,-38.23 -41.43,-84.11 -53.52,-137.63 -12.11,-53.53 -19.13,-113.43 -21.03,-179.7 -1.92,-66.28 -0.32,-135.73 4.78,-208.38 3.82,-12.75 7.01,-27.4 9.55,-43.97 2.56,-16.57 5.74,-32.5 9.57,-47.79 3.82,-15.29 9.23,-29.96 16.25,-43.97 7.01,-14.03 17.51,-24.86 31.54,-32.5 28.04,-24.22 55.12,-35.68 81.25,-34.4 26.12,1.26 49.05,10.19 68.81,26.76 19.75,16.57 35.36,38.87 46.85,66.9 11.47,28.04 17.19,56.72 17.19,86.04 0,24.22 0.96,44.59 2.88,61.16 1.9,16.57 3.5,32.18 4.76,46.85 1.28,14.65 2.88,30.58 4.78,47.79 1.92,17.19 2.86,37.91 2.86,62.12 1.28,25.5 4.46,49.07 9.57,70.73 5.1,21.67 16.57,39.52 34.4,53.53 22.95,7.65 45.89,5.42 68.82,-6.69 22.95,-12.11 39.51,-29.64 49.71,-52.57 15.29,-36.96 23.26,-73.29 23.9,-108.97 0.64,-35.68 0.96,-71.05 0.96,-106.09 0,-35.06 2.22,-70.1 6.69,-105.15 4.46,-35.04 17.53,-70.41 39.19,-106.11 21.67,-19.11 48.11,-29.3 79.33,-30.58 31.24,-1.28 59.58,1.28 85.07,7.65zm887.04 636.6c5.08,42.05 -2.88,75.83 -23.9,101.33 -21.03,25.48 -47.17,44.61 -78.39,57.34 -31.22,12.75 -64.04,21.03 -98.45,24.86 -34.42,3.82 -62.46,4.46 -84.11,1.92 -79.01,-6.38 -146.25,-19.43 -201.69,-39.2 -55.44,-19.75 -100.69,-46.83 -135.73,-81.23 -35.04,-34.42 -60.54,-77.43 -76.47,-129.04 -15.93,-51.61 -23.9,-112.47 -23.9,-182.56 0,-65 12.11,-124.26 36.32,-177.8 24.22,-53.52 56.72,-99.41 97.5,-137.63 40.79,-38.24 88.9,-68.18 144.33,-89.86 55.44,-21.67 114.38,-32.5 176.84,-32.5 25.48,0 52.88,3.5 82.19,10.53 29.32,7.01 56.72,17.83 82.19,32.48 25.5,14.67 46.85,33.46 64.04,56.4 17.21,22.95 25.82,50.35 25.82,82.21 0,38.23 -13.07,71.37 -39.19,99.41 -26.14,28.04 -55.76,43.33 -88.9,45.87 -20.39,1.28 -41.75,0 -64.04,-3.82 -22.3,-3.82 -44.61,-7.01 -66.9,-9.55 -22.31,-2.56 -43.65,-3.82 -64.04,-3.82 -20.39,0 -38.24,4.46 -53.53,13.37 -15.29,8.93 -27.08,23.58 -35.36,43.97 -8.29,20.39 -11.79,49.07 -10.51,86.04 1.26,45.87 12.73,77.41 34.4,94.62 21.67,17.21 47.79,27.08 78.37,29.64 30.6,2.54 64.04,1.26 100.37,-3.82 36.32,-5.1 70.1,-6.7 101.33,-4.78 31.22,1.9 58.3,10.83 81.25,26.76 22.94,15.93 36.32,45.57 40.15,88.9zm818.2 80.29c7.65,36.96 0.64,65.32 -21.03,85.07 -21.66,19.75 -51.61,30.26 -89.84,31.54 -33.14,0 -61.18,-5.42 -84.11,-16.25 -22.94,-10.83 -47.15,-24.54 -72.65,-41.11 -28.04,2.54 -57.98,7.01 -89.84,13.39 -31.86,6.37 -64.04,11.15 -96.54,14.33 -32.5,3.18 -64.68,3.5 -96.54,0.96 -31.86,-2.54 -61.82,-11.47 -89.86,-26.76 -35.68,-19.13 -64.04,-50.03 -85.06,-92.72 -21.03,-42.69 -33.14,-87.62 -36.32,-134.77 -3.2,-47.17 3.5,-92.4 20.07,-135.75 16.55,-43.33 43.97,-75.83 82.19,-97.49 19.11,-10.21 36.64,-18.79 52.57,-25.82 15.93,-7.01 33.14,-12.43 51.61,-16.25 18.47,-3.82 39.19,-7.01 62.12,-9.55 22.95,-2.56 50.99,-4.46 84.11,-5.74 30.6,-31.86 26.46,-54.48 -12.41,-67.86 -38.88,-13.39 -109.29,-7.33 -211.26,18.17 -36.95,-6.38 -61.8,-22.95 -74.55,-49.71 -12.75,-26.76 -15.93,-55.44 -9.57,-86.02 6.38,-30.6 21.03,-59.6 43.97,-87 22.95,-27.4 50.99,-44.91 84.11,-52.57 109.61,-19.11 206.47,-19.11 290.59,0 84.11,19.13 150.7,54.17 199.77,105.15 49.05,50.97 78.37,115.98 87.94,194.99 9.55,79.03 -5.42,168.23 -44.93,267.64 -11.47,21.67 -15.29,41.43 -11.47,59.28 3.82,17.83 10.51,35.04 20.07,51.61 9.55,16.57 19.11,33.12 28.68,49.69 9.55,16.57 15.61,34.42 18.15,53.53zm-437.77 -137.65c15.29,5.1 30.26,2.56 44.91,-7.65 14.67,-10.19 25.18,-22.94 31.54,-38.23 6.38,-15.29 6.7,-30.28 0.96,-44.93 -5.73,-14.65 -20.71,-23.9 -44.93,-27.72 -26.76,-5.1 -48.09,-2.54 -64.02,7.65 -15.95,10.21 -25.5,22.62 -28.68,37.28 -3.2,14.65 0.32,29.62 10.51,44.93 10.19,15.29 26.76,24.84 49.71,28.66z"/>
   </g>
   <g>
    <path class="fil2 str0" d="M11048.55 12107.55c-22.94,-11.49 -39.83,-28.04 -50.65,-49.71 -10.83,-21.67 -18.15,-45.25 -21.98,-70.73 -12.75,-108.33 -18.81,-216.66 -18.17,-324.99 0.64,-108.33 7.97,-216.66 21.99,-324.99 5.08,-22.94 19.11,-43.01 42.05,-60.22 22.94,-17.19 43.97,-29 63.08,-35.36 30.6,0 59.6,8.29 87,24.86 27.4,16.57 43.01,42.05 46.83,76.47 80.29,-42.07 149.76,-66.92 208.38,-74.57 58.62,-7.65 108.33,-2.22 149.12,16.25 40.77,18.49 72.95,48.43 96.52,89.86 23.59,41.41 41.43,90.16 53.53,146.24 12.11,56.08 18.79,118.22 20.07,186.4 1.28,68.18 0,138.59 -3.82,211.24 -3.82,14.01 -7.01,29 -9.57,44.93 -2.54,15.93 -5.73,31.54 -9.55,46.83 -3.82,15.29 -9.57,29.94 -17.21,43.97 -7.65,14.01 -17.83,24.86 -30.58,32.5 -28.04,24.22 -55.13,35.68 -81.25,34.4 -26.12,-1.28 -49.07,-10.19 -68.82,-26.76 -19.75,-16.57 -35.36,-38.87 -46.83,-66.9 -11.47,-28.04 -17.21,-56.72 -17.21,-86.04 -1.26,-48.43 -3.82,-90.8 -7.65,-127.12 -3.82,-36.32 -6.37,-79.33 -7.65,-129.04 -1.28,-25.48 -4.46,-49.07 -9.57,-70.73 -5.08,-21.67 -16.55,-39.51 -34.4,-53.53 -22.94,-7.65 -45.87,-5.4 -68.82,6.7 -22.94,12.11 -39.51,29.62 -49.69,52.56 -15.29,36.96 -23.26,75.21 -23.9,114.71 -0.64,39.51 -0.96,79.33 -0.96,119.48 0,40.15 -2.24,79.65 -6.69,118.52 -4.46,38.87 -17.53,76.15 -39.2,111.83 -21.66,19.11 -48.11,29.32 -79.33,30.6 -31.22,1.26 -59.58,-1.28 -85.07,-7.65zm1554.21 -240.88c0,52.25 3.82,100.99 11.47,146.24 7.65,45.25 12.11,94 13.39,146.25 1.26,70.09 -10.53,128.71 -35.36,175.87 -24.86,47.15 -58.64,85.06 -101.33,113.74 -42.69,28.68 -92.08,49.07 -148.16,61.18 -56.08,12.11 -113.43,18.15 -172.05,18.15 -28.04,0 -61.18,-3.18 -99.41,-9.55 -38.24,-6.38 -74.25,-16.57 -108.01,-30.6 -33.78,-14.01 -62.14,-32.18 -85.07,-54.48 -22.94,-22.3 -33.14,-50.01 -30.58,-83.15 2.54,-48.43 14.97,-81.25 37.27,-98.46 22.31,-17.19 49.07,-26.76 80.29,-28.66 31.24,-1.92 64.36,0.62 99.42,7.65 35.04,7.01 67.86,10.51 98.45,10.51 28.04,0 55.76,-3.5 83.15,-10.51 27.4,-7.02 50.03,-17.21 67.86,-30.6 17.85,-13.37 28.36,-30.58 31.54,-51.61 3.18,-21.03 -5.4,-46.19 -25.8,-75.51 -84.11,36.96 -157.72,49.39 -220.8,37.28 -63.08,-12.11 -115.98,-39.83 -158.66,-83.15 -42.71,-43.35 -74.89,-98.46 -96.54,-165.37 -21.67,-66.9 -32.5,-136.69 -32.5,-209.34 0,-40.79 11.15,-82.19 33.46,-124.26 22.3,-42.05 50.97,-79.97 86.02,-113.74 35.04,-33.78 73.93,-61.5 116.62,-83.15 42.69,-21.67 84.43,-32.5 125.22,-32.5 61.16,0 119.8,17.19 175.87,51.61 6.37,-19.11 13.69,-36.96 21.98,-53.53 8.29,-16.57 18.79,-30.26 31.54,-41.11 12.75,-10.83 29.32,-18.15 49.71,-21.98 20.39,-3.82 46.51,-3.18 78.37,1.9 26.76,5.1 45.25,22.63 55.44,52.57 10.21,29.96 16.57,71.69 19.13,125.22 2.54,53.53 2.86,118.2 0.94,194.05 -1.9,75.83 -2.86,162.17 -2.86,259.03zm-485.58 -141.47c3.82,19.11 15.61,33.78 35.38,43.97 19.75,10.21 40.77,15.29 63.08,15.29 22.3,0 42.37,-5.73 60.22,-17.19 17.83,-11.49 26.76,-28.68 26.76,-51.61 0,-43.35 -11.47,-75.21 -34.4,-95.6 -22.95,-20.38 -46.85,-30.26 -71.69,-29.62 -24.86,0.64 -46.21,12.43 -64.04,35.36 -17.85,22.94 -22.95,56.08 -15.31,99.41zm1311.42 -871.73c24.22,-3.82 46.51,-5.73 66.9,-5.73 20.39,0 38.88,4.76 55.45,14.33 16.55,9.57 31.22,25.8 43.97,48.75 12.73,22.94 22.94,54.8 30.58,95.58 8.93,36.96 16.57,82.51 22.94,136.69 6.38,54.16 12.11,109.91 17.21,167.27 5.1,57.36 9.87,111.51 14.33,162.49 4.46,50.97 8.61,90.5 12.43,118.54 8.93,-29.32 16.89,-54.49 23.9,-75.53 7.01,-21.02 14.97,-40.77 23.9,-59.26 8.93,-18.47 18.49,-37.91 28.68,-58.3 10.19,-20.39 22.94,-43.97 38.23,-70.73 29.32,-43.35 59.28,-65.64 89.86,-66.92 30.58,-1.26 60.86,11.47 90.8,38.24 29.96,26.76 58.32,63.4 85.07,109.91 26.76,46.53 50.33,95.26 70.73,146.25 3.82,-42.07 5.74,-79.97 5.74,-113.75 0,-33.76 0.32,-68.18 0.96,-103.23 0.64,-35.04 2.54,-72.97 5.73,-113.75 3.18,-40.77 9.89,-89.2 20.07,-145.28 6.38,-56.08 18.49,-101.97 36.32,-137.65 17.85,-35.68 38.24,-62.44 61.18,-80.29 22.94,-17.83 47.15,-26.76 72.65,-26.76 25.48,0 49.37,7.33 71.69,21.98 22.3,14.67 41.09,36 56.4,64.04 15.29,28.04 24.22,61.82 26.76,101.33 -5.1,91.76 -9.89,176.52 -14.33,254.25 -4.46,77.75 -9.57,149.44 -15.31,215.08 -5.73,65.62 -12.11,125.52 -19.11,179.7 -7.01,54.16 -16.25,103.55 -27.72,148.16 -8.93,44.61 -18.79,83.47 -29.64,116.62 -10.83,33.12 -24.52,61.48 -41.09,85.06 -16.57,23.58 -37.28,43.33 -62.14,59.26 -24.84,15.93 -55.12,29.64 -90.8,41.11 -48.43,1.28 -88.58,-9.25 -120.44,-31.54 -31.86,-22.3 -57.98,-50.97 -78.37,-86.02 -20.39,-35.06 -36.64,-73.93 -48.75,-116.62 -12.11,-42.71 -23.26,-83.79 -33.46,-123.3 -16.57,38.23 -34.72,82.83 -54.48,133.81 -19.75,50.97 -43.97,96.54 -72.65,136.69 -28.68,40.15 -62.44,69.14 -101.33,86.98 -38.87,17.85 -85.7,14.03 -140.49,-11.47 -17.85,-7.65 -36.64,-31.22 -56.4,-70.73 -19.75,-39.51 -38.56,-88.58 -56.4,-147.2 -17.85,-58.64 -34.1,-124.58 -48.75,-197.87 -14.65,-73.29 -27.08,-147.52 -37.28,-222.71 -10.19,-75.21 -16.89,-148.8 -20.07,-220.8 -3.18,-72.01 -2.22,-136.69 2.88,-194.05 5.08,-57.34 14.97,-104.19 29.62,-140.49 14.65,-36.32 36,-57.04 64.04,-62.14zm1802.72 1229.22c-31.86,17.83 -66.26,30.26 -103.23,37.27 -36.96,7.02 -73.29,9.25 -108.97,6.7 -56.08,-6.38 -113.11,-16.89 -171.09,-31.54 -58,-14.67 -108.01,-41.75 -150.08,-81.25 -53.52,-61.18 -88.88,-131.59 -106.09,-211.24 -17.21,-79.65 -15.93,-156.12 3.82,-229.41 19.75,-73.29 57.68,-137.63 113.75,-193.09 56.08,-55.44 129.35,-89.52 219.84,-102.27 53.52,-8.93 108.63,-9.89 165.35,-2.86 56.72,7.01 106.75,27.72 150.08,62.12 24.22,22.94 44.29,49.07 60.22,78.39 15.93,29.3 26.76,60.2 32.5,92.7 5.73,32.5 5.4,65 -0.96,97.5 -6.38,32.5 -20.39,62.76 -42.07,90.8 -30.58,24.22 -63.72,41.43 -99.41,51.61 -35.68,10.21 -72.65,16.89 -110.87,20.07 -38.24,3.2 -76.79,4.46 -115.66,3.82 -38.88,-0.62 -76.79,-0.32 -113.75,0.96 3.82,22.94 15.61,42.39 35.36,58.32 19.75,15.93 42.39,24.52 67.86,25.8 24.22,2.54 49.07,2.54 74.57,0 25.48,-2.54 50.97,-4.78 76.47,-6.69 25.48,-1.92 50.65,-1.92 75.51,0 24.86,1.9 48.75,9.23 71.69,21.98 15.29,14.03 26.12,30.92 32.5,50.67 6.37,19.75 8.61,39.51 6.69,59.26 -1.9,19.75 -8.29,38.55 -19.11,56.4 -10.83,17.83 -25.82,32.5 -44.93,43.97zm-338.36 -489.4c58.62,8.93 100.67,9.25 126.16,0.96 25.5,-8.29 40.15,-19.75 43.97,-34.42 3.82,-14.65 -0.96,-28.98 -14.33,-43.01 -13.39,-14.01 -29.64,-22.62 -48.75,-25.8 -19.11,-3.2 -39.19,2.54 -60.22,17.19 -21.03,14.67 -36.64,43.03 -46.83,85.07zm1026.57 483.66c-26.78,22.94 -55.76,37.6 -87,43.97 -31.22,6.38 -62.76,6.38 -94.62,0 -31.86,-6.37 -62.12,-18.47 -90.8,-36.32 -28.68,-17.83 -53.21,-39.51 -73.61,-64.98 -33.12,-38.24 -56.4,-79.35 -69.77,-123.32 -13.39,-43.97 -21.35,-89.52 -23.9,-136.67 -2.56,-47.17 -2.56,-94.64 0,-142.43 2.54,-47.79 3.82,-94.62 3.82,-140.51 -28.04,0 -50.35,-13.37 -66.92,-40.15 -16.55,-26.76 -25.48,-55.44 -26.76,-86.02 -1.28,-30.6 7.01,-58 24.86,-82.21 17.83,-24.22 47.15,-35.04 87.94,-32.5 -1.28,-30.58 -2.24,-57.98 -2.86,-82.19 -0.64,-24.22 -0.64,-46.83 0,-67.86 0.62,-21.03 2.22,-41.43 4.76,-61.18 2.56,-19.75 6.38,-40.47 11.49,-62.12 0,-26.76 7.97,-50.35 23.9,-70.73 15.93,-20.39 35.68,-35.38 59.26,-44.93 23.58,-9.57 48.11,-13.07 73.59,-10.53 25.5,2.56 47.17,13.39 65,32.5 14.03,30.6 23.9,59.9 29.64,87.94 5.73,28.04 8.91,56.4 9.55,85.07 0.64,28.68 0.32,57.68 -0.94,86.98 -1.28,29.32 -1.92,59.26 -1.92,89.86 16.57,2.54 33.46,3.82 50.65,3.82 17.21,0 34.1,1.28 50.67,3.82 16.57,2.54 31.86,7.97 45.87,16.25 14.03,8.29 25.5,21.34 34.42,39.19 11.47,15.29 17.83,33.78 19.11,55.44 1.28,21.67 -1.92,42.39 -9.57,62.14 -7.65,19.75 -18.79,36.95 -33.44,51.61 -14.67,14.65 -30.92,23.9 -48.75,27.72 -12.75,2.54 -23.9,3.82 -33.46,3.82 -9.55,0 -18.79,-0.32 -27.72,-0.96 -8.93,-0.64 -18.15,-0.96 -27.72,-0.96 -9.57,0 -20.71,0.64 -33.46,1.92 -2.54,53.52 -3.5,103.23 -2.86,149.12 0.64,45.87 6.69,94.94 18.17,147.2 8.91,30.58 22.62,50.97 41.09,61.16 18.49,10.21 41.11,21.67 67.86,34.42 17.85,8.93 32.5,21.66 43.97,38.23 11.47,16.57 19.13,34.74 22.95,54.49 3.82,19.75 3.18,39.51 -1.92,59.26 -5.1,19.75 -15.29,36.64 -30.58,50.65zm862.16 -63.08c7.65,36.96 0.64,65.32 -21.03,85.07 -21.66,19.75 -51.61,30.26 -89.84,31.54 -33.14,0 -61.18,-5.42 -84.11,-16.25 -22.94,-10.83 -47.15,-24.54 -72.65,-41.11 -28.04,2.54 -57.98,7.01 -89.84,13.39 -31.86,6.37 -64.04,11.15 -96.54,14.33 -32.5,3.18 -64.68,3.5 -96.54,0.96 -31.86,-2.54 -61.82,-11.47 -89.86,-26.76 -35.68,-19.13 -64.04,-50.03 -85.06,-92.72 -21.03,-42.69 -33.14,-87.62 -36.32,-134.77 -3.2,-47.17 3.5,-92.4 20.07,-135.75 16.55,-43.33 43.97,-75.83 82.19,-97.49 19.11,-10.21 36.64,-18.79 52.57,-25.82 15.93,-7.01 33.14,-12.43 51.61,-16.25 18.47,-3.82 39.19,-7.01 62.12,-9.55 22.95,-2.56 50.99,-4.46 84.11,-5.74 30.6,-31.86 26.46,-54.48 -12.41,-67.86 -38.88,-13.39 -109.29,-7.33 -211.26,18.17 -36.95,-6.38 -61.8,-22.95 -74.55,-49.71 -12.75,-26.76 -15.93,-55.44 -9.57,-86.02 6.38,-30.6 21.03,-59.6 43.97,-87 22.95,-27.4 50.99,-44.91 84.11,-52.57 109.61,-19.11 206.47,-19.11 290.59,0 84.11,19.13 150.7,54.17 199.77,105.15 49.05,50.97 78.37,115.98 87.94,194.99 9.55,79.03 -5.42,168.23 -44.93,267.64 -11.47,21.67 -15.29,41.43 -11.47,59.28 3.82,17.83 10.51,35.04 20.07,51.61 9.55,16.57 19.11,33.12 28.68,49.69 9.55,16.57 15.61,34.42 18.15,53.53zm-437.77 -137.65c15.29,5.1 30.26,2.56 44.91,-7.65 14.67,-10.19 25.18,-22.94 31.54,-38.23 6.38,-15.29 6.7,-30.28 0.96,-44.93 -5.73,-14.65 -20.71,-23.9 -44.93,-27.72 -26.76,-5.1 -48.09,-2.54 -64.02,7.65 -15.95,10.21 -25.5,22.62 -28.68,37.28 -3.2,14.65 0.32,29.62 10.51,44.93 10.19,15.29 26.76,24.84 49.71,28.66zm617.46 231.33c-22.94,-11.49 -39.83,-28.04 -50.65,-49.71 -10.83,-21.67 -18.15,-45.25 -21.98,-70.73 -12.75,-108.33 -18.81,-216.66 -18.17,-324.99 0.64,-108.33 7.97,-216.66 21.99,-324.99 5.08,-22.94 19.11,-43.01 42.05,-60.22 22.94,-17.19 43.97,-29 63.08,-35.36 30.6,0 59.6,8.29 87,24.86 27.4,16.57 43.01,42.05 46.83,76.47 80.29,-42.07 149.76,-66.92 208.38,-74.57 58.62,-7.65 108.33,-2.22 149.12,16.25 40.77,18.49 72.95,48.43 96.52,89.86 23.59,41.41 41.43,90.16 53.53,146.24 12.11,56.08 18.79,118.22 20.07,186.4 1.28,68.18 0,138.59 -3.82,211.24 -3.82,14.01 -7.01,29 -9.57,44.93 -2.54,15.93 -5.73,31.54 -9.55,46.83 -3.82,15.29 -9.57,29.94 -17.21,43.97 -7.65,14.01 -17.83,24.86 -30.58,32.5 -28.04,24.22 -55.13,35.68 -81.25,34.4 -26.12,-1.28 -49.07,-10.19 -68.82,-26.76 -19.75,-16.57 -35.36,-38.87 -46.83,-66.9 -11.47,-28.04 -17.21,-56.72 -17.21,-86.04 -1.26,-48.43 -3.82,-90.8 -7.65,-127.12 -3.82,-36.32 -6.37,-79.33 -7.65,-129.04 -1.28,-25.48 -4.46,-49.07 -9.57,-70.73 -5.08,-21.67 -16.55,-39.51 -34.4,-53.53 -22.94,-7.65 -45.87,-5.4 -68.82,6.7 -22.94,12.11 -39.51,29.62 -49.69,52.56 -15.29,36.96 -23.26,75.21 -23.9,114.71 -0.64,39.51 -0.96,79.33 -0.96,119.48 0,40.15 -2.24,79.65 -6.69,118.52 -4.46,38.87 -17.53,76.15 -39.2,111.83 -21.66,19.11 -48.11,29.32 -79.33,30.6 -31.22,1.26 -59.58,-1.28 -85.07,-7.65z"/>
    <path id="1" class="fil15" d="M11048.55 12107.55c-22.94,-11.49 -39.83,-28.04 -50.65,-49.71 -10.83,-21.67 -18.15,-45.25 -21.98,-70.73 -12.75,-108.33 -18.81,-216.66 -18.17,-324.99 0.64,-108.33 7.97,-216.66 21.99,-324.99 5.08,-22.94 19.11,-43.01 42.05,-60.22 22.94,-17.19 43.97,-29 63.08,-35.36 30.6,0 59.6,8.29 87,24.86 27.4,16.57 43.01,42.05 46.83,76.47 80.29,-42.07 149.76,-66.92 208.38,-74.57 58.62,-7.65 108.33,-2.22 149.12,16.25 40.77,18.49 72.95,48.43 96.52,89.86 23.59,41.41 41.43,90.16 53.53,146.24 12.11,56.08 18.79,118.22 20.07,186.4 1.28,68.18 0,138.59 -3.82,211.24 -3.82,14.01 -7.01,29 -9.57,44.93 -2.54,15.93 -5.73,31.54 -9.55,46.83 -3.82,15.29 -9.57,29.94 -17.21,43.97 -7.65,14.01 -17.83,24.86 -30.58,32.5 -28.04,24.22 -55.13,35.68 -81.25,34.4 -26.12,-1.28 -49.07,-10.19 -68.82,-26.76 -19.75,-16.57 -35.36,-38.87 -46.83,-66.9 -11.47,-28.04 -17.21,-56.72 -17.21,-86.04 -1.26,-48.43 -3.82,-90.8 -7.65,-127.12 -3.82,-36.32 -6.37,-79.33 -7.65,-129.04 -1.28,-25.48 -4.46,-49.07 -9.57,-70.73 -5.08,-21.67 -16.55,-39.51 -34.4,-53.53 -22.94,-7.65 -45.87,-5.4 -68.82,6.7 -22.94,12.11 -39.51,29.62 -49.69,52.56 -15.29,36.96 -23.26,75.21 -23.9,114.71 -0.64,39.51 -0.96,79.33 -0.96,119.48 0,40.15 -2.24,79.65 -6.69,118.52 -4.46,38.87 -17.53,76.15 -39.2,111.83 -21.66,19.11 -48.11,29.32 -79.33,30.6 -31.22,1.26 -59.58,-1.28 -85.07,-7.65zm1554.21 -240.88c0,52.25 3.82,100.99 11.47,146.24 7.65,45.25 12.11,94 13.39,146.25 1.26,70.09 -10.53,128.71 -35.36,175.87 -24.86,47.15 -58.64,85.06 -101.33,113.74 -42.69,28.68 -92.08,49.07 -148.16,61.18 -56.08,12.11 -113.43,18.15 -172.05,18.15 -28.04,0 -61.18,-3.18 -99.41,-9.55 -38.24,-6.38 -74.25,-16.57 -108.01,-30.6 -33.78,-14.01 -62.14,-32.18 -85.07,-54.48 -22.94,-22.3 -33.14,-50.01 -30.58,-83.15 2.54,-48.43 14.97,-81.25 37.27,-98.46 22.31,-17.19 49.07,-26.76 80.29,-28.66 31.24,-1.92 64.36,0.62 99.42,7.65 35.04,7.01 67.86,10.51 98.45,10.51 28.04,0 55.76,-3.5 83.15,-10.51 27.4,-7.02 50.03,-17.21 67.86,-30.6 17.85,-13.37 28.36,-30.58 31.54,-51.61 3.18,-21.03 -5.4,-46.19 -25.8,-75.51 -84.11,36.96 -157.72,49.39 -220.8,37.28 -63.08,-12.11 -115.98,-39.83 -158.66,-83.15 -42.71,-43.35 -74.89,-98.46 -96.54,-165.37 -21.67,-66.9 -32.5,-136.69 -32.5,-209.34 0,-40.79 11.15,-82.19 33.46,-124.26 22.3,-42.05 50.97,-79.97 86.02,-113.74 35.04,-33.78 73.93,-61.5 116.62,-83.15 42.69,-21.67 84.43,-32.5 125.22,-32.5 61.16,0 119.8,17.19 175.87,51.61 6.37,-19.11 13.69,-36.96 21.98,-53.53 8.29,-16.57 18.79,-30.26 31.54,-41.11 12.75,-10.83 29.32,-18.15 49.71,-21.98 20.39,-3.82 46.51,-3.18 78.37,1.9 26.76,5.1 45.25,22.63 55.44,52.57 10.21,29.96 16.57,71.69 19.13,125.22 2.54,53.53 2.86,118.2 0.94,194.05 -1.9,75.83 -2.86,162.17 -2.86,259.03zm-485.58 -141.47c3.82,19.11 15.61,33.78 35.38,43.97 19.75,10.21 40.77,15.29 63.08,15.29 22.3,0 42.37,-5.73 60.22,-17.19 17.83,-11.49 26.76,-28.68 26.76,-51.61 0,-43.35 -11.47,-75.21 -34.4,-95.6 -22.95,-20.38 -46.85,-30.26 -71.69,-29.62 -24.86,0.64 -46.21,12.43 -64.04,35.36 -17.85,22.94 -22.95,56.08 -15.31,99.41zm1311.42 -871.73c24.22,-3.82 46.51,-5.73 66.9,-5.73 20.39,0 38.88,4.76 55.45,14.33 16.55,9.57 31.22,25.8 43.97,48.75 12.73,22.94 22.94,54.8 30.58,95.58 8.93,36.96 16.57,82.51 22.94,136.69 6.38,54.16 12.11,109.91 17.21,167.27 5.1,57.36 9.87,111.51 14.33,162.49 4.46,50.97 8.61,90.5 12.43,118.54 8.93,-29.32 16.89,-54.49 23.9,-75.53 7.01,-21.02 14.97,-40.77 23.9,-59.26 8.93,-18.47 18.49,-37.91 28.68,-58.3 10.19,-20.39 22.94,-43.97 38.23,-70.73 29.32,-43.35 59.28,-65.64 89.86,-66.92 30.58,-1.26 60.86,11.47 90.8,38.24 29.96,26.76 58.32,63.4 85.07,109.91 26.76,46.53 50.33,95.26 70.73,146.25 3.82,-42.07 5.74,-79.97 5.74,-113.75 0,-33.76 0.32,-68.18 0.96,-103.23 0.64,-35.04 2.54,-72.97 5.73,-113.75 3.18,-40.77 9.89,-89.2 20.07,-145.28 6.38,-56.08 18.49,-101.97 36.32,-137.65 17.85,-35.68 38.24,-62.44 61.18,-80.29 22.94,-17.83 47.15,-26.76 72.65,-26.76 25.48,0 49.37,7.33 71.69,21.98 22.3,14.67 41.09,36 56.4,64.04 15.29,28.04 24.22,61.82 26.76,101.33 -5.1,91.76 -9.89,176.52 -14.33,254.25 -4.46,77.75 -9.57,149.44 -15.31,215.08 -5.73,65.62 -12.11,125.52 -19.11,179.7 -7.01,54.16 -16.25,103.55 -27.72,148.16 -8.93,44.61 -18.79,83.47 -29.64,116.62 -10.83,33.12 -24.52,61.48 -41.09,85.06 -16.57,23.58 -37.28,43.33 -62.14,59.26 -24.84,15.93 -55.12,29.64 -90.8,41.11 -48.43,1.28 -88.58,-9.25 -120.44,-31.54 -31.86,-22.3 -57.98,-50.97 -78.37,-86.02 -20.39,-35.06 -36.64,-73.93 -48.75,-116.62 -12.11,-42.71 -23.26,-83.79 -33.46,-123.3 -16.57,38.23 -34.72,82.83 -54.48,133.81 -19.75,50.97 -43.97,96.54 -72.65,136.69 -28.68,40.15 -62.44,69.14 -101.33,86.98 -38.87,17.85 -85.7,14.03 -140.49,-11.47 -17.85,-7.65 -36.64,-31.22 -56.4,-70.73 -19.75,-39.51 -38.56,-88.58 -56.4,-147.2 -17.85,-58.64 -34.1,-124.58 -48.75,-197.87 -14.65,-73.29 -27.08,-147.52 -37.28,-222.71 -10.19,-75.21 -16.89,-148.8 -20.07,-220.8 -3.18,-72.01 -2.22,-136.69 2.88,-194.05 5.08,-57.34 14.97,-104.19 29.62,-140.49 14.65,-36.32 36,-57.04 64.04,-62.14zm1802.72 1229.22c-31.86,17.83 -66.26,30.26 -103.23,37.27 -36.96,7.02 -73.29,9.25 -108.97,6.7 -56.08,-6.38 -113.11,-16.89 -171.09,-31.54 -58,-14.67 -108.01,-41.75 -150.08,-81.25 -53.52,-61.18 -88.88,-131.59 -106.09,-211.24 -17.21,-79.65 -15.93,-156.12 3.82,-229.41 19.75,-73.29 57.68,-137.63 113.75,-193.09 56.08,-55.44 129.35,-89.52 219.84,-102.27 53.52,-8.93 108.63,-9.89 165.35,-2.86 56.72,7.01 106.75,27.72 150.08,62.12 24.22,22.94 44.29,49.07 60.22,78.39 15.93,29.3 26.76,60.2 32.5,92.7 5.73,32.5 5.4,65 -0.96,97.5 -6.38,32.5 -20.39,62.76 -42.07,90.8 -30.58,24.22 -63.72,41.43 -99.41,51.61 -35.68,10.21 -72.65,16.89 -110.87,20.07 -38.24,3.2 -76.79,4.46 -115.66,3.82 -38.88,-0.62 -76.79,-0.32 -113.75,0.96 3.82,22.94 15.61,42.39 35.36,58.32 19.75,15.93 42.39,24.52 67.86,25.8 24.22,2.54 49.07,2.54 74.57,0 25.48,-2.54 50.97,-4.78 76.47,-6.69 25.48,-1.92 50.65,-1.92 75.51,0 24.86,1.9 48.75,9.23 71.69,21.98 15.29,14.03 26.12,30.92 32.5,50.67 6.37,19.75 8.61,39.51 6.69,59.26 -1.9,19.75 -8.29,38.55 -19.11,56.4 -10.83,17.83 -25.82,32.5 -44.93,43.97zm-338.36 -489.4c58.62,8.93 100.67,9.25 126.16,0.96 25.5,-8.29 40.15,-19.75 43.97,-34.42 3.82,-14.65 -0.96,-28.98 -14.33,-43.01 -13.39,-14.01 -29.64,-22.62 -48.75,-25.8 -19.11,-3.2 -39.19,2.54 -60.22,17.19 -21.03,14.67 -36.64,43.03 -46.83,85.07zm1026.57 483.66c-26.78,22.94 -55.76,37.6 -87,43.97 -31.22,6.38 -62.76,6.38 -94.62,0 -31.86,-6.37 -62.12,-18.47 -90.8,-36.32 -28.68,-17.83 -53.21,-39.51 -73.61,-64.98 -33.12,-38.24 -56.4,-79.35 -69.77,-123.32 -13.39,-43.97 -21.35,-89.52 -23.9,-136.67 -2.56,-47.17 -2.56,-94.64 0,-142.43 2.54,-47.79 3.82,-94.62 3.82,-140.51 -28.04,0 -50.35,-13.37 -66.92,-40.15 -16.55,-26.76 -25.48,-55.44 -26.76,-86.02 -1.28,-30.6 7.01,-58 24.86,-82.21 17.83,-24.22 47.15,-35.04 87.94,-32.5 -1.28,-30.58 -2.24,-57.98 -2.86,-82.19 -0.64,-24.22 -0.64,-46.83 0,-67.86 0.62,-21.03 2.22,-41.43 4.76,-61.18 2.56,-19.75 6.38,-40.47 11.49,-62.12 0,-26.76 7.97,-50.35 23.9,-70.73 15.93,-20.39 35.68,-35.38 59.26,-44.93 23.58,-9.57 48.11,-13.07 73.59,-10.53 25.5,2.56 47.17,13.39 65,32.5 14.03,30.6 23.9,59.9 29.64,87.94 5.73,28.04 8.91,56.4 9.55,85.07 0.64,28.68 0.32,57.68 -0.94,86.98 -1.28,29.32 -1.92,59.26 -1.92,89.86 16.57,2.54 33.46,3.82 50.65,3.82 17.21,0 34.1,1.28 50.67,3.82 16.57,2.54 31.86,7.97 45.87,16.25 14.03,8.29 25.5,21.34 34.42,39.19 11.47,15.29 17.83,33.78 19.11,55.44 1.28,21.67 -1.92,42.39 -9.57,62.14 -7.65,19.75 -18.79,36.95 -33.44,51.61 -14.67,14.65 -30.92,23.9 -48.75,27.72 -12.75,2.54 -23.9,3.82 -33.46,3.82 -9.55,0 -18.79,-0.32 -27.72,-0.96 -8.93,-0.64 -18.15,-0.96 -27.72,-0.96 -9.57,0 -20.71,0.64 -33.46,1.92 -2.54,53.52 -3.5,103.23 -2.86,149.12 0.64,45.87 6.69,94.94 18.17,147.2 8.91,30.58 22.62,50.97 41.09,61.16 18.49,10.21 41.11,21.67 67.86,34.42 17.85,8.93 32.5,21.66 43.97,38.23 11.47,16.57 19.13,34.74 22.95,54.49 3.82,19.75 3.18,39.51 -1.92,59.26 -5.1,19.75 -15.29,36.64 -30.58,50.65zm862.16 -63.08c7.65,36.96 0.64,65.32 -21.03,85.07 -21.66,19.75 -51.61,30.26 -89.84,31.54 -33.14,0 -61.18,-5.42 -84.11,-16.25 -22.94,-10.83 -47.15,-24.54 -72.65,-41.11 -28.04,2.54 -57.98,7.01 -89.84,13.39 -31.86,6.37 -64.04,11.15 -96.54,14.33 -32.5,3.18 -64.68,3.5 -96.54,0.96 -31.86,-2.54 -61.82,-11.47 -89.86,-26.76 -35.68,-19.13 -64.04,-50.03 -85.06,-92.72 -21.03,-42.69 -33.14,-87.62 -36.32,-134.77 -3.2,-47.17 3.5,-92.4 20.07,-135.75 16.55,-43.33 43.97,-75.83 82.19,-97.49 19.11,-10.21 36.64,-18.79 52.57,-25.82 15.93,-7.01 33.14,-12.43 51.61,-16.25 18.47,-3.82 39.19,-7.01 62.12,-9.55 22.95,-2.56 50.99,-4.46 84.11,-5.74 30.6,-31.86 26.46,-54.48 -12.41,-67.86 -38.88,-13.39 -109.29,-7.33 -211.26,18.17 -36.95,-6.38 -61.8,-22.95 -74.55,-49.71 -12.75,-26.76 -15.93,-55.44 -9.57,-86.02 6.38,-30.6 21.03,-59.6 43.97,-87 22.95,-27.4 50.99,-44.91 84.11,-52.57 109.61,-19.11 206.47,-19.11 290.59,0 84.11,19.13 150.7,54.17 199.77,105.15 49.05,50.97 78.37,115.98 87.94,194.99 9.55,79.03 -5.42,168.23 -44.93,267.64 -11.47,21.67 -15.29,41.43 -11.47,59.28 3.82,17.83 10.51,35.04 20.07,51.61 9.55,16.57 19.11,33.12 28.68,49.69 9.55,16.57 15.61,34.42 18.15,53.53zm-437.77 -137.65c15.29,5.1 30.26,2.56 44.91,-7.65 14.67,-10.19 25.18,-22.94 31.54,-38.23 6.38,-15.29 6.7,-30.28 0.96,-44.93 -5.73,-14.65 -20.71,-23.9 -44.93,-27.72 -26.76,-5.1 -48.09,-2.54 -64.02,7.65 -15.95,10.21 -25.5,22.62 -28.68,37.28 -3.2,14.65 0.32,29.62 10.51,44.93 10.19,15.29 26.76,24.84 49.71,28.66zm617.46 231.33c-22.94,-11.49 -39.83,-28.04 -50.65,-49.71 -10.83,-21.67 -18.15,-45.25 -21.98,-70.73 -12.75,-108.33 -18.81,-216.66 -18.17,-324.99 0.64,-108.33 7.97,-216.66 21.99,-324.99 5.08,-22.94 19.11,-43.01 42.05,-60.22 22.94,-17.19 43.97,-29 63.08,-35.36 30.6,0 59.6,8.29 87,24.86 27.4,16.57 43.01,42.05 46.83,76.47 80.29,-42.07 149.76,-66.92 208.38,-74.57 58.62,-7.65 108.33,-2.22 149.12,16.25 40.77,18.49 72.95,48.43 96.52,89.86 23.59,41.41 41.43,90.16 53.53,146.24 12.11,56.08 18.79,118.22 20.07,186.4 1.28,68.18 0,138.59 -3.82,211.24 -3.82,14.01 -7.01,29 -9.57,44.93 -2.54,15.93 -5.73,31.54 -9.55,46.83 -3.82,15.29 -9.57,29.94 -17.21,43.97 -7.65,14.01 -17.83,24.86 -30.58,32.5 -28.04,24.22 -55.13,35.68 -81.25,34.4 -26.12,-1.28 -49.07,-10.19 -68.82,-26.76 -19.75,-16.57 -35.36,-38.87 -46.83,-66.9 -11.47,-28.04 -17.21,-56.72 -17.21,-86.04 -1.26,-48.43 -3.82,-90.8 -7.65,-127.12 -3.82,-36.32 -6.37,-79.33 -7.65,-129.04 -1.28,-25.48 -4.46,-49.07 -9.57,-70.73 -5.08,-21.67 -16.55,-39.51 -34.4,-53.53 -22.94,-7.65 -45.87,-5.4 -68.82,6.7 -22.94,12.11 -39.51,29.62 -49.69,52.56 -15.29,36.96 -23.26,75.21 -23.9,114.71 -0.64,39.51 -0.96,79.33 -0.96,119.48 0,40.15 -2.24,79.65 -6.69,118.52 -4.46,38.87 -17.53,76.15 -39.2,111.83 -21.66,19.11 -48.11,29.32 -79.33,30.6 -31.22,1.26 -59.58,-1.28 -85.07,-7.65z"/>
   </g>
  </g>
 </g>
</svg>
