<svg xmlns="http://www.w3.org/2000/svg" width="32" height="32" viewBox="0 0 32 32">
  <g id="Group_246" data-name="Group 246" transform="translate(-641 -755)">
    <rect id="Rectangle_27" data-name="Rectangle 27" width="32" height="32" transform="translate(641 755)" fill="none"/>
    <g id="Group_216" data-name="Group 216" transform="translate(997 396)">
      <path id="Path_538" data-name="Path 538" d="M22.3,5.635H18.721V2.113A2.134,2.134,0,0,0,16.572,0H2.149A2.134,2.134,0,0,0,0,2.113V21.931a2.134,2.134,0,0,0,2.149,2.113H22.3a2.134,2.134,0,0,0,2.149-2.113V7.749A2.134,2.134,0,0,0,22.3,5.635ZM1.433,2.113a.711.711,0,0,1,.716-.7H16.572a.711.711,0,0,1,.716.7v.7H1.433Zm.716,20.522a.711.711,0,0,1-.716-.7V19.818H11.557v2.113a2.072,2.072,0,0,0,.123.7ZM11.557,7.749v10.66H1.433V4.227H17.288V5.635H13.706A2.134,2.134,0,0,0,11.557,7.749ZM23.019,21.931a.711.711,0,0,1-.716.7h-8.6a.711.711,0,0,1-.716-.7v-.7H23.019Zm0-2.113H12.99V9.862H23.019Zm0-11.365H12.99v-.7a.711.711,0,0,1,.716-.7h8.6a.711.711,0,0,1,.716.7Z" transform="translate(-352 363)" fill="#b2adad"/>
      <path id="Path_539" data-name="Path 539" d="M66.254,120H60.695a.7.7,0,0,0-.695.695v4.17a.7.7,0,0,0,.695.695h5.559a.7.7,0,0,0,.695-.695v-4.17A.7.7,0,0,0,66.254,120Zm-.695,4.17H61.39v-2.78h4.17Z" transform="translate(-409.22 248.659)" fill="#b2adad"/>
      <path id="Path_540" data-name="Path 540" d="M63.475,270h-2.78a.695.695,0,1,0,0,1.39h2.78a.695.695,0,1,0,0-1.39Z" transform="translate(-409.22 105.69)" fill="#b2adad"/>
      <path id="Path_541" data-name="Path 541" d="M308.254,240h-5.559a.695.695,0,1,0,0,1.39h5.559a.695.695,0,0,0,0-1.39Z" transform="translate(-639.277 134.28)" fill="#b2adad"/>
      <path id="Path_542" data-name="Path 542" d="M305.475,300h-2.78a.695.695,0,0,0,0,1.39h2.78a.695.695,0,0,0,0-1.39Z" transform="translate(-639.485 77.1)" fill="#b2adad"/>
    </g>
  </g>
</svg>
