<svg xmlns="http://www.w3.org/2000/svg" width="32" height="32" viewBox="0 0 32 32">
  <g id="Group_244" data-name="Group 244" transform="translate(-769 -755)">
    <rect id="Rectangle_25" data-name="Rectangle 25" width="32" height="32" transform="translate(769 755)" fill="none"/>
    <g id="_004-assistance" data-name="004-assistance" transform="translate(722.317 759)">
      <g id="Group_238" data-name="Group 238" transform="translate(52.683)">
        <g id="Group_237" data-name="Group 237" transform="translate(0)">
          <path id="Path_553" data-name="Path 553" d="M70.2,14.351l-.03-.009-2.632-.751-1.868-1.782V11.33a4.924,4.924,0,0,0,1.457-3.487V4.931a4.926,4.926,0,1,0-9.852,0V7.843A4.924,4.924,0,0,0,58.73,11.33v.479l-1.856,1.78-2.583.754-.025.008a2.325,2.325,0,0,0-1.518,2.738l1.245,6.386a.7.7,0,0,0,.691.57l.059,0,.054,0H69.712a.7.7,0,0,0,.69-.563l1.313-6.389A2.325,2.325,0,0,0,70.2,14.351Zm-3.976-.07L64.207,17.3l-1.1-1.1,1.993-3ZM62.2,1.409a3.519,3.519,0,0,1,2.817,1.41A3.537,3.537,0,0,1,62.2,4.227H58.752A3.528,3.528,0,0,1,62.2,1.409ZM58.672,7.843V5.635H62.2a4.948,4.948,0,0,0,3.451-1.411,3.525,3.525,0,0,1,.071.707V7.843a3.527,3.527,0,0,1-7.054,0Zm.633,5.359,1.993,3-1.1,1.1-2.015-3.022ZM61.5,22.635H55.264c-.005-.027-1.139-5.843-1.145-5.869a.91.91,0,0,1,.582-1.075l2.286-.668L59.5,18.8a.7.7,0,0,0,1.084.107L61.5,18v4.639Zm-.985-10.16a4.935,4.935,0,0,0,3.379,0L62.2,15.021Zm9.824,4.32-1.2,5.84H62.9V18l.92.911A.7.7,0,0,0,64.9,18.8l2.518-3.777,2.344.668A.91.91,0,0,1,70.338,16.8Z" transform="translate(-52.683)" fill="#b2adad"/>
        </g>
      </g>
      <g id="Group_240" data-name="Group 240" transform="translate(65.725 19.818)">
        <g id="Group_239" data-name="Group 239">
          <path id="Path_554" data-name="Path 554" d="M332.512,422H331.1a.7.7,0,0,0,0,1.409h1.409a.7.7,0,0,0,0-1.409Z" transform="translate(-330.399 -421.998)" fill="#b2adad"/>
        </g>
      </g>
    </g>
  </g>
</svg>
