<svg id="Layer_x0020_1" xmlns="http://www.w3.org/2000/svg" width="45" height="45" viewBox="0 0 45 45">
  <path id="Path_558" data-name="Path 558" d="M22.5,0A22.5,22.5,0,1,0,45,22.5,22.5,22.5,0,0,0,22.5,0ZM13.547,30.673a1.56,1.56,0,1,1,1.56-1.56,1.556,1.556,0,0,1-1.56,1.56Zm0-6.613a1.56,1.56,0,1,1,1.56-1.56,1.556,1.556,0,0,1-1.56,1.56Zm0-6.63a1.551,1.551,0,1,1,1.56-1.543,1.552,1.552,0,0,1-1.56,1.543ZM33.012,30.571H18.431a1.56,1.56,0,1,1,0-3.12H33.012a1.56,1.56,0,0,1,0,3.12Zm0-6.562H18.431a1.56,1.56,0,0,1,0-3.12H33.012a1.56,1.56,0,0,1,0,3.12Zm0-6.562H18.431a1.56,1.56,0,0,1,0-3.12H33.012a1.56,1.56,0,0,1,0,3.12Z" fill="#219536" fill-rule="evenodd"/>
</svg>
