<?xml version="1.0" encoding="UTF-8"?>
<!DOCTYPE svg PUBLIC "-//W3C//DTD SVG 1.1//EN" "http://www.w3.org/Graphics/SVG/1.1/DTD/svg11.dtd">
<!-- Creator: CorelDRAW 2017 -->
<svg xmlns="http://www.w3.org/2000/svg" xml:space="preserve" width="343px" height="343px" version="1.1" style="shape-rendering:geometricPrecision; text-rendering:geometricPrecision; image-rendering:optimizeQuality; fill-rule:evenodd; clip-rule:evenodd"
viewBox="0 0 14.1 14.1"
 xmlns:xlink="http://www.w3.org/1999/xlink">
 <defs>
  <style type="text/css">
   <![CDATA[
    .str0 {stroke:#4A3328;stroke-width:0.16;stroke-linecap:round;stroke-miterlimit:10}
    .fil5 {fill:none;fill-rule:nonzero}
    .fil7 {fill:#FEFEFE;fill-rule:nonzero}
    .fil1 {fill:#F9CCA9;fill-rule:nonzero}
    .fil8 {fill:#E4BC9D;fill-rule:nonzero}
    .fil6 {fill:#D6B094;fill-rule:nonzero}
    .fil3 {fill:#BC3D43;fill-rule:nonzero}
    .fil4 {fill:#8C3034;fill-rule:nonzero}
    .fil10 {fill:#644136;fill-rule:nonzero}
    .fil9 {fill:#4A3328;fill-rule:nonzero}
    .fil0 {fill:yellow;fill-rule:nonzero}
    .fil2 {fill:#DDDEDE;fill-rule:nonzero}
   ]]>
  </style>
 </defs>
 <g id="Layer_x0020_1">
  <metadata id="CorelCorpID_0Corel-Layer"/>
  <g id="_2128124927920">
   <g>
    <path class="fil0" d="M14.1 7.05c0,3.89 -3.16,7.05 -7.05,7.05 -3.89,0 -7.05,-3.16 -7.05,-7.05 0,-3.89 3.16,-7.05 7.05,-7.05 3.89,0 7.05,3.16 7.05,7.05z"/>
   </g>
   <g>
    <path class="fil1" d="M7.81 11.53l-0.76 0 -0.76 0c0,0 -2.25,0.31 -3.42,1.19 1.17,0.86 2.61,1.38 4.18,1.38 1.56,0 3.01,-0.52 4.18,-1.38 -1.18,-0.88 -3.42,-1.19 -3.42,-1.19z"/>
    <g>
     <g>
      <path class="fil1" d="M9.93 7.51c-0.07,0.35 0.05,0.67 0.27,0.71 0.22,0.04 0.45,-0.21 0.52,-0.56 0.06,-0.34 -0.06,-0.66 -0.28,-0.7 -0.22,-0.04 -0.45,0.21 -0.51,0.55z"/>
     </g>
     <path class="fil2" d="M10.32 7.3c0,0 0.01,0.01 0.04,0.01 0.01,0.01 0.03,0.01 0.04,0.02 0.01,0.02 0.03,0.02 0.04,0.04 0.01,0.01 0.02,0.03 0.02,0.05 0.01,0.02 0.01,0.04 0.02,0.06 0,0.05 0,0.1 -0.02,0.16 -0.01,0.05 -0.03,0.1 -0.05,0.15 -0.02,0.04 -0.04,0.08 -0.07,0.11 -0.01,0.01 -0.02,0.02 -0.04,0.03 -0.01,0 -0.02,0.01 -0.04,0.01 -0.02,-0.01 -0.04,-0.01 -0.04,-0.01 0,0 0.01,0.01 0.04,0.03 0.01,0.01 0.03,0.01 0.05,0.02 0.02,0 0.05,-0.01 0.08,-0.02 0.05,-0.02 0.09,-0.06 0.13,-0.12 0.03,-0.05 0.06,-0.11 0.07,-0.18 0.01,-0.03 0.01,-0.06 0.01,-0.1 0.01,-0.03 0,-0.07 -0.01,-0.1 -0.01,-0.03 -0.02,-0.06 -0.04,-0.09 -0.01,-0.01 -0.02,-0.02 -0.03,-0.03 -0.01,-0.01 -0.02,-0.02 -0.03,-0.03 -0.03,-0.02 -0.06,-0.02 -0.08,-0.02 -0.02,-0.01 -0.03,0 -0.05,0 -0.02,0 -0.04,0.01 -0.04,0.01z"/>
    </g>
    <g>
     <g>
      <path class="fil1" d="M4.28 7.51c0.06,0.35 -0.06,0.67 -0.28,0.71 -0.22,0.04 -0.45,-0.21 -0.52,-0.56 -0.06,-0.34 0.06,-0.66 0.28,-0.7 0.22,-0.04 0.45,0.21 0.52,0.55z"/>
     </g>
     <path class="fil2" d="M3.88 7.3c0,0 -0.01,0.01 -0.04,0.01 -0.01,0.01 -0.03,0.01 -0.04,0.02 -0.01,0.02 -0.03,0.02 -0.04,0.04 -0.01,0.01 -0.02,0.03 -0.02,0.05 -0.01,0.02 -0.01,0.04 -0.01,0.06 0,0.05 0,0.1 0.01,0.16 0.01,0.05 0.03,0.1 0.05,0.15 0.02,0.04 0.04,0.08 0.07,0.11 0.01,0.01 0.02,0.02 0.04,0.03 0.01,0 0.03,0.01 0.04,0.01 0.02,-0.01 0.04,-0.01 0.04,-0.01 0,0 -0.01,0.01 -0.03,0.03 -0.02,0.01 -0.04,0.01 -0.06,0.02 -0.02,0 -0.05,-0.01 -0.07,-0.02 -0.05,-0.02 -0.1,-0.06 -0.13,-0.12 -0.04,-0.05 -0.07,-0.11 -0.08,-0.18 -0.01,-0.03 -0.01,-0.06 -0.01,-0.1 0,-0.03 0.01,-0.07 0.01,-0.1 0.01,-0.03 0.02,-0.06 0.04,-0.09 0.01,-0.01 0.02,-0.02 0.03,-0.03 0.01,-0.01 0.02,-0.02 0.04,-0.03 0.02,-0.02 0.05,-0.02 0.07,-0.02 0.02,-0.01 0.04,0 0.05,0 0.03,0 0.04,0.01 0.04,0.01z"/>
    </g>
    <polygon class="fil1" points="7.81,11.82 6.29,11.82 6.29,10.53 7.81,10.53 "/>
    <path class="fil2" d="M7.81 10.67l0 -0.14 -1.52 0 0 0.99c0.25,-0.54 0.9,-0.83 1.52,-0.85z"/>
    <g>
     <path class="fil1" d="M10.31 6.54c0,2.27 -1.38,4.12 -3.26,4.12 -1.88,0 -3.23,-1.91 -3.23,-4.19 -0.03,-3.02 1.35,-4.04 3.23,-4.04 1.88,0 3.43,0.92 3.26,4.11z"/>
    </g>
    <path class="fil3" d="M8.02 11.57c-0.15,0.35 -0.47,0.63 -0.97,0.63 -0.5,0 -0.83,-0.28 -0.97,-0.63 -0.59,0.1 -2.25,0.43 -3.22,1.15 1.17,0.86 2.62,1.38 4.19,1.38 1.56,0 3.01,-0.52 4.18,-1.38 -0.96,-0.72 -2.63,-1.05 -3.21,-1.15z"/>
    <g>
     <path class="fil4" d="M8.02 11.57c-0.15,0.35 -0.47,0.63 -0.97,0.63 -0.5,0 -0.83,-0.28 -0.97,-0.63 -0.09,0.01 -0.2,0.03 -0.32,0.06 0.16,0.55 0.68,0.96 1.27,0.96l0.02 0c0.6,0 1.11,-0.41 1.27,-0.97 -0.12,-0.02 -0.22,-0.04 -0.3,-0.05z"/>
    </g>
    <path class="fil5 str0" d="M4.78 5.89c0,0 0.41,-0.76 1.19,-0.21"/>
    <path class="fil5 str0" d="M9.32 5.89c0,0 -0.42,-0.76 -1.2,-0.21"/>
    <g>
     <path class="fil6" d="M7.44 7.96c0,0 0.02,0.01 0.05,0.04 0.02,0.03 0.06,0.07 0.08,0.14 0.01,0.03 0.02,0.07 0.02,0.11 0,0.05 -0.01,0.1 -0.04,0.15 -0.02,0.02 -0.03,0.04 -0.05,0.06 -0.02,0.01 -0.04,0.03 -0.07,0.04 -0.04,0.02 -0.09,0.04 -0.14,0.05 -0.04,0 -0.09,0.01 -0.13,0.01 -0.05,0 -0.09,-0.01 -0.13,-0.01 -0.08,-0.02 -0.16,-0.03 -0.22,-0.05 -0.12,-0.05 -0.19,-0.09 -0.19,-0.09 0,0 0.09,-0.02 0.21,-0.01 0.06,0 0.13,-0.01 0.21,0 0.04,-0.01 0.07,-0.01 0.11,-0.01 0.04,0 0.07,-0.01 0.11,-0.01 0.04,-0.01 0.07,-0.02 0.1,-0.03 0.01,-0.01 0.02,-0.01 0.04,-0.02l0.02 -0.02c0.02,-0.02 0.03,-0.04 0.04,-0.07 0.01,-0.03 0.01,-0.05 0.01,-0.08 0,-0.06 -0.01,-0.11 -0.01,-0.15 -0.01,-0.03 -0.02,-0.05 -0.02,-0.05z"/>
    </g>
    <g>
     <path class="fil7" d="M6.16 9.18c0.19,0.35 0.52,0.58 0.91,0.58 0.39,0 0.73,-0.23 0.92,-0.58l-1.83 0z"/>
     <g>
      <path class="fil8" d="M6.16 9.18l0.08 0.11 0.1 0.1 0.1 0.1 0.12 0.07 0.12 0.06 0.13 0.05 0.13 0.02 0.13 0.01 0.14 -0.02 0.12 -0.03 0.13 -0.05 0.11 -0.06 0.11 -0.09 0.09 -0.09 0.09 -0.1 0.07 -0.12 0.06 0.11c-0.61,-0.01 -1.22,-0.02 -1.83,-0.07zm0 0c0.61,-0.06 1.22,-0.07 1.83,-0.08l0 0c0.04,0 0.07,0.04 0.07,0.07 0,0.02 0,0.03 -0.01,0.04l-0.08 0.13c-0.03,0.04 -0.06,0.08 -0.09,0.12 -0.03,0.03 -0.07,0.07 -0.11,0.1 -0.04,0.03 -0.08,0.06 -0.12,0.09 -0.04,0.03 -0.09,0.05 -0.13,0.08l-0.15 0.05 -0.15 0.03 -0.15 0.01 -0.15 -0.02 -0.14 -0.03 -0.14 -0.06c-0.04,-0.03 -0.09,-0.06 -0.13,-0.08 -0.03,-0.03 -0.07,-0.07 -0.11,-0.1 -0.03,-0.04 -0.06,-0.07 -0.1,-0.11l-0.08 -0.12 -0.06 -0.12z"/>
     </g>
    </g>
    <g>
     <path class="fil9" d="M5.79 6.64c0,0.2 -0.14,0.37 -0.32,0.37 -0.18,0 -0.32,-0.17 -0.32,-0.37 0,-0.21 0.14,-0.38 0.32,-0.38 0.18,0 0.32,0.17 0.32,0.38z"/>
     <g>
      <path class="fil7" d="M5.37 6.49c0,0.08 -0.07,0.15 -0.15,0.15 -0.08,0 -0.15,-0.07 -0.15,-0.15 0,-0.09 0.07,-0.15 0.15,-0.15 0.08,0 0.15,0.06 0.15,0.15z"/>
      <path class="fil7" d="M5.36 6.7c0,0.04 -0.03,0.08 -0.07,0.08 -0.04,0 -0.07,-0.04 -0.07,-0.08 0,-0.03 0.03,-0.07 0.07,-0.07 0.04,0 0.07,0.04 0.07,0.07z"/>
     </g>
    </g>
    <g>
     <path class="fil9" d="M8.32 6.64c0,0.2 0.14,0.37 0.32,0.37 0.18,0 0.32,-0.17 0.32,-0.37 0,-0.21 -0.14,-0.38 -0.32,-0.38 -0.18,0 -0.32,0.17 -0.32,0.38z"/>
     <g>
      <path class="fil7" d="M8.74 6.49c0,0.08 0.06,0.15 0.15,0.15 0.08,0 0.15,-0.07 0.15,-0.15 0,-0.09 -0.07,-0.15 -0.15,-0.15 -0.09,0 -0.15,0.06 -0.15,0.15z"/>
      <path class="fil7" d="M8.75 6.7c0,0.04 0.03,0.08 0.07,0.08 0.04,0 0.07,-0.04 0.07,-0.08 0,-0.03 -0.03,-0.07 -0.07,-0.07 -0.04,0 -0.07,0.04 -0.07,0.07z"/>
     </g>
    </g>
    <g>
     <path class="fil10" d="M9.73 1.98c0,0 0.58,0.51 1.18,-0.26 0,0 -0.07,0.74 -0.5,1.01 0,0 0.41,0.41 0.9,-0.01 0,0 0.14,0.52 -0.42,1.01 0,0 0.09,1.42 -0.29,2.81l-0.16 0.42 -0.15 0.05 -0.08 0.58 -0.16 0 0.17 -1.91c0,0 0.16,-2.26 -1.9,-2.33 0,0 -0.92,-0.16 -1.08,0.51 0,0 -0.04,-0.69 -1.27,-0.51 0,0 -0.59,-0.92 0.32,-1.74 0,0 1.46,-1.12 3.44,0.37z"/>
    </g>
    <g>
     <path class="fil10" d="M4.46 1.98c1.97,-1.49 3.94,-0.68 3.94,-0.68 0.91,0.82 -0.19,2.05 -0.19,2.05 -0.87,-0.09 -0.97,0.51 -0.97,0.51 -0.02,-0.73 -1.38,-0.51 -1.38,-0.51 -1.71,0.08 -1.77,2.33 -1.77,2.33l0.04 1.91 -0.16 0 -0.08 -0.58 -0.15 -0.05c0,0 -1.02,-3.66 0.72,-4.98z"/>
    </g>
   </g>
  </g>
 </g>
</svg>
