<?xml version="1.0" encoding="UTF-8"?>
<!DOCTYPE svg PUBLIC "-//W3C//DTD SVG 1.1//EN" "http://www.w3.org/Graphics/SVG/1.1/DTD/svg11.dtd">
<!-- Creator: CorelDRAW 2017 -->
<svg xmlns="http://www.w3.org/2000/svg" xml:space="preserve" width="117px" height="88px" version="1.1" style="shape-rendering:geometricPrecision; text-rendering:geometricPrecision; image-rendering:optimizeQuality; fill-rule:evenodd; clip-rule:evenodd"
viewBox="0 0 1.75 1.32"
 xmlns:xlink="http://www.w3.org/1999/xlink">
 <defs>
  <style type="text/css">
   <![CDATA[
    .fil0 {fill:#787A7C;fill-rule:nonzero}
    .fil1 {fill:white;fill-rule:nonzero}
   ]]>
  </style>
 </defs>
 <g id="Layer_x0020_1">
  <metadata id="CorelCorpID_0Corel-Layer"/>
  <g id="_2091695939440">
   <path class="fil0" d="M1.52 1.32l-1.29 0c-0.13,0 -0.23,-0.1 -0.23,-0.23l0 -0.61c0,-0.13 0.1,-0.23 0.23,-0.23l0.05 0c0.09,0 0.16,-0.05 0.17,-0.09 0.01,-0.09 0.12,-0.16 0.24,-0.16l0.35 0c0.12,0 0.23,0.07 0.24,0.15 0.01,0.05 0.09,0.1 0.18,0.1l0.06 0c0.13,0 0.23,0.1 0.23,0.23l0 0.61c0,0.13 -0.1,0.23 -0.23,0.23zm-1.29 -1l0 0c-0.09,0 -0.16,0.07 -0.16,0.16l0 0.61c0,0.09 0.07,0.16 0.16,0.16l1.29 0c0.09,0 0.16,-0.07 0.16,-0.16l0 -0.61c0,-0.09 -0.07,-0.16 -0.16,-0.16l-0.06 0c-0.12,0 -0.23,-0.07 -0.25,-0.15 0,-0.05 -0.08,-0.1 -0.17,-0.1l-0.35 0c-0.09,0 -0.16,0.05 -0.17,0.1 -0.01,0.08 -0.12,0.15 -0.24,0.15l-0.05 0z"/>
   <path class="fil0" d="M0.87 1.14c-0.22,0 -0.4,-0.18 -0.4,-0.41 0,-0.22 0.18,-0.41 0.4,-0.41 0.23,0 0.41,0.19 0.41,0.41 0,0.23 -0.18,0.41 -0.41,0.41zm0 -0.74l0 0c-0.18,0 -0.33,0.15 -0.33,0.33 0,0.19 0.15,0.34 0.33,0.34 0.19,0 0.34,-0.15 0.34,-0.34 0,-0.18 -0.15,-0.33 -0.34,-0.33z"/>
   <path class="fil0" d="M1.13 0.73c0,0.15 -0.11,0.26 -0.26,0.26 -0.14,0 -0.25,-0.11 -0.25,-0.26 0,-0.14 0.11,-0.26 0.25,-0.26 0.15,0 0.26,0.12 0.26,0.26z"/>
   <path class="fil1" d="M0.87 0.65c0,0.05 -0.03,0.08 -0.07,0.08 -0.05,0 -0.08,-0.03 -0.08,-0.08 0,-0.04 0.03,-0.07 0.08,-0.07 0.04,0 0.07,0.03 0.07,0.07z"/>
  </g>
 </g>
</svg>
