<?xml version="1.0" encoding="UTF-8"?>
<!DOCTYPE svg PUBLIC "-//W3C//DTD SVG 1.1//EN" "http://www.w3.org/Graphics/SVG/1.1/DTD/svg11.dtd">
<!-- Creator: CorelDRAW 2017 -->
<svg xmlns="http://www.w3.org/2000/svg" xml:space="preserve" width="51px" height="61px" version="1.1" style="shape-rendering:geometricPrecision; text-rendering:geometricPrecision; image-rendering:optimizeQuality; fill-rule:evenodd; clip-rule:evenodd"
viewBox="0 0 0.28 0.34"
 xmlns:xlink="http://www.w3.org/1999/xlink">
 <defs>
  <style type="text/css">
   <![CDATA[
    .fil0 {fill:black}
   ]]>
  </style>
 </defs>
 <g id="Layer_x0020_1">
  <metadata id="CorelCorpID_0Corel-Layer"/>
  <g id="_2091780446384">
   <path class="fil0" d="M0.14 0.16c0.02,0 0.04,0 0.06,-0.02 0.01,-0.02 0.02,-0.04 0.02,-0.06 0,-0.02 -0.01,-0.04 -0.02,-0.06 -0.02,-0.01 -0.04,-0.02 -0.06,-0.02 -0.02,0 -0.04,0.01 -0.06,0.02 -0.01,0.02 -0.02,0.04 -0.02,0.06 0,0.02 0.01,0.04 0.02,0.06 0.02,0.02 0.04,0.02 0.06,0.02l0 0zm0 0z"/>
   <path class="fil0" d="M0.28 0.26c0,-0.01 0,-0.01 0,-0.02 0,-0.01 0,-0.02 -0.01,-0.02 0,-0.01 0,-0.02 0,-0.02 -0.01,-0.01 -0.01,-0.02 -0.02,-0.02 0,0 -0.01,-0.01 -0.02,-0.01 0,0 -0.01,-0.01 -0.02,-0.01 -0.01,0 -0.01,0.01 -0.02,0.01 0,0 0,0 -0.01,0.01 0,0 -0.01,0 -0.02,0.01 0,0 -0.01,0 -0.02,0 -0.01,0 -0.01,0 -0.02,0 -0.01,-0.01 -0.01,-0.01 -0.02,-0.01 0,-0.01 -0.01,-0.01 -0.01,-0.01 -0.01,0 -0.01,-0.01 -0.02,-0.01 0,0 -0.01,0.01 -0.02,0.01 -0.01,0 -0.01,0.01 -0.02,0.01 0,0 -0.01,0.01 -0.01,0.02 -0.01,0 -0.01,0.01 -0.01,0.02 0,0 -0.01,0.01 -0.01,0.02 0,0.01 0,0.01 0,0.02 0,0.01 0,0.01 0,0.02 0,0.02 0.01,0.03 0.02,0.04 0.01,0.01 0.02,0.02 0.04,0.02l0.16 0c0.02,0 0.03,-0.01 0.05,-0.02 0.01,-0.01 0.01,-0.02 0.01,-0.04 0,-0.01 0,-0.01 0,-0.02zm0 0z"/>
  </g>
 </g>
</svg>
