<?xml version="1.0" encoding="UTF-8"?>
<!DOCTYPE svg PUBLIC "-//W3C//DTD SVG 1.1//EN" "http://www.w3.org/Graphics/SVG/1.1/DTD/svg11.dtd">
<!-- Creator: CorelDRAW 2017 -->
<svg xmlns="http://www.w3.org/2000/svg" xml:space="preserve" width="586px" height="571px" version="1.1" style="shape-rendering:geometricPrecision; text-rendering:geometricPrecision; image-rendering:optimizeQuality; fill-rule:evenodd; clip-rule:evenodd"
viewBox="0 0 63.78 62.11"
 xmlns:xlink="http://www.w3.org/1999/xlink">
 <defs>
  <style type="text/css">
   <![CDATA[
    .fil6 {fill:#EE7B27}
    .fil5 {fill:#EE7B26}
    .fil8 {fill:#E4692E}
    .fil2 {fill:#E46924}
    .fil3 {fill:#C7602A}
    .fil10 {fill:black;fill-rule:nonzero}
    .fil9 {fill:#FF6600;fill-rule:nonzero}
    .fil7 {fill:url(#id0)}
    .fil0 {fill:url(#id1)}
    .fil4 {fill:url(#id2)}
    .fil1 {fill:url(#id3)}
   ]]>
  </style>
  <linearGradient id="id0" gradientUnits="userSpaceOnUse" x1="53.48" y1="5.41" x2="60.88" y2="1.13">
   <stop offset="0" style="stop-opacity:1; stop-color:#EE7B27"/>
   <stop offset="1" style="stop-opacity:1; stop-color:#CF6531"/>
  </linearGradient>
  <linearGradient id="id1" gradientUnits="userSpaceOnUse" x1="11.19" y1="26.12" x2="12.56" y2="29.89">
   <stop offset="0" style="stop-opacity:1; stop-color:#E4692E"/>
   <stop offset="1" style="stop-opacity:1; stop-color:#C7602A"/>
  </linearGradient>
  <linearGradient id="id2" gradientUnits="userSpaceOnUse" x1="31.28" y1="21.25" x2="35.34" y2="36.42">
   <stop offset="0" style="stop-opacity:1; stop-color:#C7602A"/>
   <stop offset="0.301961" style="stop-opacity:1; stop-color:#E4692E"/>
   <stop offset="0.521569" style="stop-opacity:1; stop-color:#E4692E"/>
   <stop offset="0.701961" style="stop-opacity:1; stop-color:#E4692E"/>
   <stop offset="1" style="stop-opacity:1; stop-color:#C7602A"/>
  </linearGradient>
  <linearGradient id="id3" gradientUnits="userSpaceOnUse" x1="13.01" y1="30.23" x2="14.39" y2="34">
   <stop offset="0" style="stop-opacity:1; stop-color:#E46524"/>
   <stop offset="1" style="stop-opacity:1; stop-color:#C7602A"/>
  </linearGradient>
 </defs>
 <g id="Layer_x0020_1">
  <metadata id="CorelCorpID_0Corel-Layer"/>
  <g id="_2091779725136">
   <path class="fil0" d="M13.2 21.89c-2,-4.11 -9.07,-2.34 -7.4,2.97l5.13 11.53 7.27 -3.29 -5 -11.21z"/>
   <path class="fil1" d="M15.03 25.99c-2,-4.1 -9.07,-2.33 -7.4,2.98l3.67 8.24 7.42 -2.94 -3.69 -8.28z"/>
   <path class="fil2" d="M48.35 1.79l2.23 0.49c-1.16,2.83 -2.21,5.57 -3.3,8.17l-2.3 -2.66c1.33,-1.3 3.39,-4.27 3.37,-6z"/>
   <path class="fil3" d="M48.35 1.79c-0.01,1.73 -1.95,4.63 -3.37,6 -0.12,-1.74 2.11,-5.98 3.37,-6z"/>
   <polygon class="fil4" points="34.4,18.88 26.83,21.38 32.15,38.8 39.8,36.54 "/>
   <path class="fil5" d="M33.88 17.2l1.75 5.7c-2.82,-2.68 -5.55,-0.9 -7.76,4.63l-5.8 15.11c-1.16,3.13 -6.58,4 -8.35,0.01l-4.84 -10.87c2.12,2.55 7.63,2.67 9.15,-0.87l5.26 -13.71c1.8,-4.83 9.02,-5.13 10.59,0z"/>
   <path class="fil6" d="M63.78 6.54c-1.25,-3.47 -4.96,-3.37 -6.17,-0.39l-14.64 36.24c-0.72,2.19 -7.19,5.74 -9.7,0.09l-3.07 -10.07c3.61,5.66 7.13,3.27 8.94,-1.83l11.44 -28.3c4.36,-5.05 13.19,-0.86 13.2,4.26z"/>
   <path class="fil7" d="M63.78 6.54c-1.25,-3.47 -4.96,-3.37 -6.17,-0.39l-1.07 2.65 -5.24 -5.73 -0.72 -0.79c4.36,-5.05 13.19,-0.86 13.2,4.26z"/>
   <circle class="fil8" cx="4.08" cy="13.34" r="4.08"/>
   <path class="fil9" d="M24.14 53.56l-1.11 -3.36 -1.12 3.36c-0.08,0.26 -0.15,0.44 -0.2,0.56 -0.05,0.1 -0.15,0.21 -0.27,0.29 -0.13,0.09 -0.3,0.14 -0.51,0.14 -0.17,0 -0.31,-0.03 -0.42,-0.08 -0.11,-0.06 -0.2,-0.13 -0.27,-0.23 -0.07,-0.09 -0.12,-0.2 -0.17,-0.34 -0.04,-0.13 -0.08,-0.25 -0.11,-0.36l-1.14 -3.79c-0.07,-0.22 -0.1,-0.38 -0.1,-0.5 0,-0.14 0.06,-0.27 0.18,-0.37 0.13,-0.09 0.28,-0.14 0.46,-0.14 0.26,0 0.43,0.06 0.51,0.19 0.09,0.14 0.17,0.33 0.23,0.58l0.9 3.28 1 -3.07c0.07,-0.23 0.14,-0.41 0.2,-0.53 0.06,-0.12 0.15,-0.23 0.29,-0.32 0.13,-0.09 0.31,-0.13 0.54,-0.13 0.23,0 0.42,0.04 0.54,0.14 0.13,0.09 0.22,0.19 0.27,0.3 0.05,0.11 0.12,0.29 0.2,0.54l1.01 3.07 0.9 -3.28c0.04,-0.17 0.08,-0.3 0.12,-0.4 0.04,-0.1 0.11,-0.18 0.2,-0.26 0.1,-0.08 0.23,-0.11 0.41,-0.11 0.18,0 0.34,0.05 0.46,0.14 0.13,0.1 0.19,0.22 0.19,0.37 0,0.11 -0.03,0.27 -0.1,0.5l-1.14 3.79c-0.08,0.25 -0.14,0.44 -0.19,0.56 -0.05,0.12 -0.14,0.22 -0.26,0.31 -0.12,0.09 -0.3,0.14 -0.52,0.14 -0.21,0 -0.38,-0.05 -0.51,-0.14 -0.13,-0.08 -0.22,-0.18 -0.26,-0.29 -0.06,-0.11 -0.12,-0.29 -0.21,-0.56z"/>
   <path id="1" class="fil9" d="M30.5 49.43l0 1.97 2.72 -2.33c0.13,-0.12 0.24,-0.2 0.33,-0.25 0.09,-0.06 0.21,-0.08 0.37,-0.08 0.19,0 0.36,0.04 0.48,0.14 0.12,0.09 0.18,0.21 0.18,0.35 0,0.17 -0.1,0.33 -0.31,0.49l-1.68 1.31 1.94 2.29c0.13,0.16 0.24,0.3 0.3,0.42 0.07,0.11 0.11,0.23 0.11,0.34 0,0.13 -0.06,0.24 -0.18,0.33 -0.12,0.09 -0.28,0.14 -0.49,0.14 -0.19,0 -0.35,-0.04 -0.47,-0.11 -0.12,-0.06 -0.22,-0.15 -0.31,-0.27 -0.08,-0.11 -0.16,-0.21 -0.22,-0.3l-1.64 -2.07 -1.13 0.89 0 1.16c0,0.24 -0.06,0.41 -0.19,0.53 -0.13,0.11 -0.3,0.17 -0.51,0.17 -0.11,0 -0.23,-0.03 -0.34,-0.08 -0.11,-0.05 -0.19,-0.12 -0.25,-0.21 -0.04,-0.07 -0.07,-0.15 -0.08,-0.25 -0.01,-0.09 -0.01,-0.23 -0.01,-0.41l0 -4.17c0,-0.24 0.06,-0.41 0.18,-0.52 0.13,-0.12 0.29,-0.17 0.5,-0.17 0.21,0 0.38,0.05 0.51,0.17 0.13,0.11 0.19,0.28 0.19,0.52z"/>
   <path id="2" class="fil9" d="M41.87 53.56l-1.11 -3.36 -1.11 3.36c-0.09,0.26 -0.16,0.44 -0.21,0.56 -0.05,0.1 -0.14,0.21 -0.27,0.29 -0.13,0.09 -0.29,0.14 -0.51,0.14 -0.17,0 -0.31,-0.03 -0.42,-0.08 -0.11,-0.06 -0.2,-0.13 -0.27,-0.23 -0.06,-0.09 -0.12,-0.2 -0.16,-0.34 -0.05,-0.13 -0.09,-0.25 -0.12,-0.36l-1.14 -3.79c-0.06,-0.22 -0.1,-0.38 -0.1,-0.5 0,-0.14 0.06,-0.27 0.19,-0.37 0.12,-0.09 0.28,-0.14 0.46,-0.14 0.25,0 0.42,0.06 0.51,0.19 0.08,0.14 0.16,0.33 0.22,0.58l0.9 3.28 1 -3.07c0.08,-0.23 0.14,-0.41 0.2,-0.53 0.06,-0.12 0.16,-0.23 0.29,-0.32 0.13,-0.09 0.32,-0.13 0.54,-0.13 0.24,0 0.42,0.04 0.55,0.14 0.13,0.09 0.22,0.19 0.27,0.3 0.04,0.11 0.11,0.29 0.2,0.54l1.01 3.07 0.89 -3.28c0.04,-0.17 0.09,-0.3 0.12,-0.4 0.04,-0.1 0.11,-0.18 0.2,-0.26 0.1,-0.08 0.24,-0.11 0.42,-0.11 0.18,0 0.33,0.05 0.46,0.14 0.12,0.1 0.18,0.22 0.18,0.37 0,0.11 -0.03,0.27 -0.1,0.5l-1.13 3.79c-0.08,0.25 -0.15,0.44 -0.2,0.56 -0.05,0.12 -0.14,0.22 -0.26,0.31 -0.12,0.09 -0.29,0.14 -0.52,0.14 -0.21,0 -0.38,-0.05 -0.51,-0.14 -0.12,-0.08 -0.21,-0.18 -0.26,-0.29 -0.05,-0.11 -0.12,-0.29 -0.21,-0.56z"/>
   <polygon class="fil10" points="2.69,61.02 1.82,57.31 2.59,57.31 3.14,59.86 3.82,57.31 4.72,57.31 5.36,59.9 5.93,57.31 6.68,57.31 5.79,61.02 4.99,61.02 4.25,58.24 3.52,61.02 "/>
   <path id="1" class="fil10" d="M7.41 59.16l-0.65 -0.12c0.08,-0.26 0.2,-0.45 0.38,-0.58 0.18,-0.13 0.44,-0.19 0.79,-0.19 0.32,0 0.55,0.04 0.71,0.11 0.15,0.08 0.26,0.17 0.33,0.29 0.06,0.11 0.09,0.33 0.09,0.64l-0.01 0.83c0,0.23 0.01,0.41 0.03,0.52 0.03,0.11 0.07,0.23 0.13,0.36l-0.7 0c-0.02,-0.05 -0.04,-0.12 -0.07,-0.21 -0.01,-0.04 -0.02,-0.07 -0.03,-0.08 -0.12,0.12 -0.25,0.21 -0.39,0.27 -0.13,0.06 -0.28,0.09 -0.44,0.09 -0.27,0 -0.49,-0.08 -0.65,-0.23 -0.16,-0.15 -0.24,-0.34 -0.24,-0.57 0,-0.15 0.04,-0.29 0.11,-0.4 0.07,-0.12 0.17,-0.22 0.31,-0.28 0.13,-0.06 0.31,-0.12 0.56,-0.16 0.33,-0.07 0.56,-0.13 0.69,-0.18l0 -0.07c0,-0.14 -0.03,-0.24 -0.1,-0.3 -0.07,-0.06 -0.2,-0.08 -0.38,-0.08 -0.13,0 -0.23,0.02 -0.3,0.07 -0.07,0.05 -0.13,0.14 -0.17,0.27zm0.95 0.57c-0.09,0.03 -0.23,0.07 -0.43,0.11 -0.2,0.04 -0.33,0.09 -0.39,0.13 -0.09,0.06 -0.14,0.14 -0.14,0.25 0,0.1 0.04,0.18 0.11,0.25 0.08,0.08 0.17,0.11 0.29,0.11 0.13,0 0.25,-0.04 0.36,-0.12 0.09,-0.07 0.15,-0.15 0.17,-0.24 0.02,-0.06 0.03,-0.18 0.03,-0.35l0 -0.14z"/>
   <path id="2" class="fil10" d="M10.44 61.02l-0.71 0 0 -2.69 0.66 0 0 0.38c0.11,-0.18 0.21,-0.3 0.31,-0.36 0.09,-0.05 0.19,-0.08 0.3,-0.08 0.17,0 0.32,0.05 0.47,0.13l-0.22 0.63c-0.12,-0.08 -0.23,-0.12 -0.33,-0.12 -0.1,0 -0.19,0.03 -0.26,0.08 -0.06,0.06 -0.12,0.15 -0.16,0.3 -0.04,0.14 -0.06,0.44 -0.06,0.9l0 0.83z"/>
   <path id="3" class="fil10" d="M13.01 58.33l0 0.56 -0.49 0 0 1.09c0,0.22 0.01,0.35 0.02,0.39 0.01,0.04 0.03,0.07 0.06,0.09 0.03,0.02 0.07,0.04 0.12,0.04 0.07,0 0.16,-0.03 0.29,-0.07l0.06 0.55c-0.17,0.07 -0.36,0.11 -0.56,0.11 -0.13,0 -0.25,-0.03 -0.35,-0.07 -0.1,-0.04 -0.18,-0.1 -0.23,-0.17 -0.04,-0.07 -0.08,-0.16 -0.1,-0.28 -0.01,-0.08 -0.02,-0.25 -0.02,-0.5l0 -1.18 -0.33 0 0 -0.56 0.33 0 0 -0.54 0.71 -0.42 0 0.96 0.49 0z"/>
   <path id="4" class="fil10" d="M14.04 59.16l-0.65 -0.12c0.08,-0.26 0.2,-0.45 0.38,-0.58 0.18,-0.13 0.44,-0.19 0.79,-0.19 0.32,0 0.55,0.04 0.71,0.11 0.15,0.08 0.26,0.17 0.33,0.29 0.06,0.11 0.09,0.33 0.09,0.64l-0.01 0.83c0,0.23 0.01,0.41 0.03,0.52 0.03,0.11 0.07,0.23 0.13,0.36l-0.7 0c-0.02,-0.05 -0.05,-0.12 -0.07,-0.21 -0.01,-0.04 -0.02,-0.07 -0.03,-0.08 -0.12,0.12 -0.25,0.21 -0.39,0.27 -0.14,0.06 -0.28,0.09 -0.44,0.09 -0.27,0 -0.49,-0.08 -0.65,-0.23 -0.16,-0.15 -0.24,-0.34 -0.24,-0.57 0,-0.15 0.04,-0.29 0.11,-0.4 0.07,-0.12 0.17,-0.22 0.3,-0.28 0.13,-0.06 0.32,-0.12 0.57,-0.16 0.33,-0.07 0.56,-0.13 0.69,-0.18l0 -0.07c0,-0.14 -0.03,-0.24 -0.1,-0.3 -0.07,-0.06 -0.2,-0.08 -0.38,-0.08 -0.13,0 -0.23,0.02 -0.3,0.07 -0.07,0.05 -0.13,0.14 -0.17,0.27zm0.95 0.57c-0.09,0.03 -0.23,0.07 -0.43,0.11 -0.2,0.04 -0.33,0.09 -0.39,0.13 -0.09,0.06 -0.14,0.14 -0.14,0.25 0,0.1 0.04,0.18 0.11,0.25 0.08,0.08 0.17,0.11 0.29,0.11 0.12,0 0.25,-0.04 0.36,-0.12 0.09,-0.07 0.15,-0.15 0.17,-0.24 0.02,-0.06 0.03,-0.18 0.03,-0.35l0 -0.14z"/>
   <polygon id="5" class="fil10" points="17.85,61.02 17.85,57.31 18.6,57.31 18.6,58.95 20.11,57.31 21.12,57.31 19.72,58.75 21.19,61.02 20.22,61.02 19.2,59.28 18.6,59.9 18.6,61.02 "/>
   <path id="6" class="fil10" d="M22.11 59.16l-0.65 -0.12c0.08,-0.26 0.2,-0.45 0.38,-0.58 0.17,-0.13 0.44,-0.19 0.79,-0.19 0.31,0 0.55,0.04 0.71,0.11 0.15,0.08 0.26,0.17 0.32,0.29 0.07,0.11 0.1,0.33 0.1,0.64l-0.01 0.83c0,0.23 0.01,0.41 0.03,0.52 0.03,0.11 0.07,0.23 0.13,0.36l-0.71 0c-0.01,-0.05 -0.04,-0.12 -0.06,-0.21 -0.01,-0.04 -0.02,-0.07 -0.03,-0.08 -0.12,0.12 -0.25,0.21 -0.39,0.27 -0.14,0.06 -0.28,0.09 -0.44,0.09 -0.27,0 -0.49,-0.08 -0.65,-0.23 -0.16,-0.15 -0.24,-0.34 -0.24,-0.57 0,-0.15 0.04,-0.29 0.11,-0.4 0.07,-0.12 0.17,-0.22 0.3,-0.28 0.13,-0.06 0.32,-0.12 0.57,-0.16 0.33,-0.07 0.56,-0.13 0.69,-0.18l0 -0.07c0,-0.14 -0.03,-0.24 -0.1,-0.3 -0.07,-0.06 -0.2,-0.08 -0.39,-0.08 -0.12,0 -0.22,0.02 -0.29,0.07 -0.07,0.05 -0.13,0.14 -0.17,0.27zm0.95 0.57c-0.09,0.03 -0.24,0.07 -0.43,0.11 -0.2,0.04 -0.33,0.09 -0.39,0.13 -0.09,0.06 -0.14,0.14 -0.14,0.25 0,0.1 0.04,0.18 0.11,0.25 0.08,0.08 0.17,0.11 0.29,0.11 0.12,0 0.25,-0.04 0.36,-0.12 0.09,-0.07 0.15,-0.15 0.17,-0.24 0.02,-0.06 0.03,-0.18 0.03,-0.35l0 -0.14z"/>
   <polygon id="7" class="fil10" points="24.46,61.02 24.46,57.31 25.17,57.31 25.17,61.02 "/>
   <path id="8" class="fil10" d="M25.9 57.96l0 -0.65 0.71 0 0 0.65 -0.71 0zm0 3.06l0 -2.69 0.71 0 0 2.69 -0.71 0z"/>
   <path id="9" class="fil10" d="M27.32 58.33l0.67 0 0 0.39c0.08,-0.13 0.2,-0.24 0.34,-0.33 0.15,-0.08 0.31,-0.12 0.49,-0.12 0.32,0 0.58,0.12 0.8,0.37 0.22,0.24 0.33,0.59 0.33,1.02 0,0.45 -0.11,0.8 -0.33,1.05 -0.22,0.25 -0.49,0.38 -0.8,0.38 -0.15,0 -0.29,-0.03 -0.41,-0.09 -0.12,-0.06 -0.24,-0.16 -0.38,-0.31l0 1.35 -0.71 0 0 -3.71zm0.7 1.3c0,0.31 0.06,0.53 0.18,0.67 0.12,0.15 0.27,0.22 0.44,0.22 0.16,0 0.3,-0.07 0.41,-0.2 0.11,-0.13 0.16,-0.35 0.16,-0.65 0,-0.29 -0.05,-0.5 -0.17,-0.63 -0.11,-0.14 -0.25,-0.21 -0.41,-0.21 -0.18,0 -0.32,0.07 -0.44,0.2 -0.11,0.14 -0.17,0.34 -0.17,0.6z"/>
   <path id="10" class="fil10" d="M32.29 61.02l0 -0.4c-0.1,0.14 -0.23,0.25 -0.39,0.34 -0.16,0.08 -0.33,0.13 -0.5,0.13 -0.19,0 -0.35,-0.04 -0.49,-0.12 -0.15,-0.08 -0.25,-0.19 -0.31,-0.34 -0.07,-0.14 -0.1,-0.34 -0.1,-0.6l0 -1.7 0.71 0 0 1.24c0,0.38 0.01,0.61 0.04,0.69 0.03,0.09 0.07,0.16 0.14,0.21 0.07,0.05 0.16,0.07 0.27,0.07 0.12,0 0.23,-0.03 0.33,-0.1 0.09,-0.06 0.16,-0.15 0.19,-0.25 0.04,-0.1 0.06,-0.34 0.06,-0.73l0 -1.13 0.71 0 0 2.69 -0.66 0z"/>
   <path id="11" class="fil10" d="M36.02 59.13l-0.7 0.12c-0.02,-0.14 -0.08,-0.24 -0.16,-0.31 -0.08,-0.07 -0.19,-0.11 -0.32,-0.11 -0.18,0 -0.32,0.06 -0.43,0.18 -0.1,0.13 -0.16,0.33 -0.16,0.62 0,0.32 0.06,0.55 0.16,0.68 0.11,0.13 0.25,0.2 0.43,0.2 0.14,0 0.25,-0.04 0.33,-0.12 0.09,-0.08 0.15,-0.21 0.19,-0.4l0.7 0.12c-0.08,0.32 -0.21,0.57 -0.42,0.73 -0.21,0.16 -0.48,0.25 -0.83,0.25 -0.39,0 -0.7,-0.13 -0.94,-0.38 -0.23,-0.25 -0.35,-0.59 -0.35,-1.03 0,-0.44 0.12,-0.79 0.35,-1.04 0.24,-0.25 0.55,-0.37 0.95,-0.37 0.33,0 0.59,0.07 0.79,0.21 0.19,0.14 0.33,0.36 0.41,0.65z"/>
   <path id="12" class="fil10" d="M37.09 59.16l-0.64 -0.12c0.07,-0.26 0.19,-0.45 0.37,-0.58 0.18,-0.13 0.44,-0.19 0.79,-0.19 0.32,0 0.56,0.04 0.71,0.11 0.16,0.08 0.27,0.17 0.33,0.29 0.06,0.11 0.09,0.33 0.09,0.64l-0.01 0.83c0,0.23 0.02,0.41 0.04,0.52 0.02,0.11 0.06,0.23 0.12,0.36l-0.7 0c-0.02,-0.05 -0.04,-0.12 -0.07,-0.21 -0.01,-0.04 -0.02,-0.07 -0.02,-0.08 -0.12,0.12 -0.25,0.21 -0.39,0.27 -0.14,0.06 -0.29,0.09 -0.44,0.09 -0.28,0 -0.5,-0.08 -0.66,-0.23 -0.16,-0.15 -0.24,-0.34 -0.24,-0.57 0,-0.15 0.04,-0.29 0.11,-0.4 0.08,-0.12 0.18,-0.22 0.31,-0.28 0.13,-0.06 0.32,-0.12 0.56,-0.16 0.34,-0.07 0.57,-0.13 0.69,-0.18l0 -0.07c0,-0.14 -0.03,-0.24 -0.1,-0.3 -0.07,-0.06 -0.19,-0.08 -0.38,-0.08 -0.13,0 -0.23,0.02 -0.3,0.07 -0.07,0.05 -0.13,0.14 -0.17,0.27zm0.95 0.57c-0.09,0.03 -0.23,0.07 -0.43,0.11 -0.2,0.04 -0.33,0.09 -0.39,0.13 -0.09,0.06 -0.14,0.14 -0.14,0.25 0,0.1 0.04,0.18 0.12,0.25 0.07,0.08 0.16,0.11 0.28,0.11 0.13,0 0.25,-0.04 0.37,-0.12 0.08,-0.07 0.14,-0.15 0.17,-0.24 0.01,-0.06 0.02,-0.18 0.02,-0.35l0 -0.14z"/>
   <path id="13" class="fil10" d="M41.89 61.02l-0.71 0 0 -1.37c0,-0.29 -0.01,-0.48 -0.04,-0.57 -0.03,-0.08 -0.08,-0.15 -0.15,-0.19 -0.07,-0.05 -0.16,-0.07 -0.25,-0.07 -0.13,0 -0.24,0.03 -0.34,0.1 -0.1,0.06 -0.16,0.15 -0.2,0.26 -0.04,0.12 -0.05,0.32 -0.05,0.62l0 1.22 -0.72 0 0 -2.69 0.66 0 0 0.39c0.24,-0.3 0.54,-0.45 0.89,-0.45 0.16,0 0.31,0.03 0.44,0.09 0.13,0.05 0.23,0.12 0.29,0.21 0.07,0.09 0.12,0.19 0.14,0.3 0.03,0.11 0.04,0.27 0.04,0.48l0 1.67z"/>
   <path id="14" class="fil10" d="M42.55 61.19l0.81 0.1c0.01,0.09 0.04,0.16 0.09,0.2 0.07,0.05 0.18,0.07 0.32,0.07 0.19,0 0.33,-0.02 0.42,-0.08 0.06,-0.04 0.11,-0.1 0.14,-0.18 0.02,-0.06 0.04,-0.17 0.04,-0.33l0 -0.39c-0.22,0.29 -0.49,0.44 -0.81,0.44 -0.36,0 -0.65,-0.15 -0.86,-0.46 -0.17,-0.24 -0.25,-0.54 -0.25,-0.9 0,-0.45 0.11,-0.79 0.33,-1.03 0.21,-0.24 0.49,-0.36 0.81,-0.36 0.33,0 0.61,0.15 0.82,0.44l0 -0.38 0.67 0 0 2.41c0,0.32 -0.03,0.56 -0.08,0.71 -0.05,0.16 -0.13,0.28 -0.22,0.37 -0.1,0.09 -0.22,0.16 -0.38,0.21 -0.16,0.05 -0.36,0.08 -0.6,0.08 -0.46,0 -0.78,-0.08 -0.97,-0.24 -0.19,-0.15 -0.29,-0.35 -0.29,-0.59 0,-0.03 0,-0.06 0.01,-0.09zm0.63 -1.57c0,0.28 0.06,0.49 0.17,0.62 0.11,0.14 0.25,0.2 0.41,0.2 0.17,0 0.32,-0.06 0.44,-0.2 0.12,-0.14 0.18,-0.34 0.18,-0.6 0,-0.28 -0.06,-0.49 -0.18,-0.62 -0.11,-0.14 -0.26,-0.2 -0.43,-0.2 -0.17,0 -0.31,0.06 -0.42,0.19 -0.11,0.14 -0.17,0.34 -0.17,0.61z"/>
   <polygon id="15" class="fil10" points="47.74,61.02 46.86,57.31 47.64,57.31 48.19,59.86 48.87,57.31 49.76,57.31 50.41,59.9 50.97,57.31 51.73,57.31 50.83,61.02 50.03,61.02 49.3,58.24 48.56,61.02 "/>
   <path id="16" class="fil10" d="M53.58 60.17l0.71 0.12c-0.09,0.26 -0.24,0.46 -0.43,0.59 -0.2,0.14 -0.45,0.21 -0.74,0.21 -0.47,0 -0.82,-0.16 -1.04,-0.46 -0.18,-0.25 -0.27,-0.56 -0.27,-0.93 0,-0.45 0.12,-0.8 0.35,-1.05 0.24,-0.25 0.53,-0.38 0.89,-0.38 0.4,0 0.71,0.13 0.94,0.4 0.23,0.26 0.34,0.67 0.33,1.21l-1.77 0c0,0.21 0.06,0.38 0.17,0.5 0.11,0.11 0.24,0.17 0.41,0.17 0.11,0 0.2,-0.03 0.28,-0.09 0.07,-0.06 0.13,-0.16 0.17,-0.29zm0.04 -0.72c-0.01,-0.21 -0.06,-0.37 -0.16,-0.47 -0.1,-0.11 -0.22,-0.16 -0.37,-0.16 -0.15,0 -0.28,0.05 -0.38,0.17 -0.1,0.11 -0.15,0.26 -0.15,0.46l1.06 0z"/>
   <path id="17" class="fil10" d="M56.13 58.33l0 0.56 -0.48 0 0 1.09c0,0.22 0,0.35 0.01,0.39 0.01,0.04 0.03,0.07 0.07,0.09 0.03,0.02 0.07,0.04 0.12,0.04 0.06,0 0.16,-0.03 0.28,-0.07l0.06 0.55c-0.16,0.07 -0.35,0.11 -0.56,0.11 -0.13,0 -0.24,-0.03 -0.34,-0.07 -0.11,-0.04 -0.18,-0.1 -0.23,-0.17 -0.05,-0.07 -0.08,-0.16 -0.1,-0.28 -0.02,-0.08 -0.02,-0.25 -0.02,-0.5l0 -1.18 -0.33 0 0 -0.56 0.33 0 0 -0.54 0.71 -0.42 0 0.96 0.48 0z"/>
   <path id="18" class="fil10" d="M57.16 59.16l-0.64 -0.12c0.07,-0.26 0.2,-0.45 0.37,-0.58 0.18,-0.13 0.44,-0.19 0.79,-0.19 0.32,0 0.56,0.04 0.71,0.11 0.16,0.08 0.27,0.17 0.33,0.29 0.06,0.11 0.1,0.33 0.1,0.64l-0.01 0.83c0,0.23 0.01,0.41 0.03,0.52 0.02,0.11 0.06,0.23 0.13,0.36l-0.71 0c-0.02,-0.05 -0.04,-0.12 -0.07,-0.21 -0.01,-0.04 -0.02,-0.07 -0.02,-0.08 -0.12,0.12 -0.25,0.21 -0.39,0.27 -0.14,0.06 -0.29,0.09 -0.44,0.09 -0.28,0 -0.5,-0.08 -0.66,-0.23 -0.15,-0.15 -0.23,-0.34 -0.23,-0.57 0,-0.15 0.03,-0.29 0.1,-0.4 0.08,-0.12 0.18,-0.22 0.31,-0.28 0.13,-0.06 0.32,-0.12 0.57,-0.16 0.33,-0.07 0.56,-0.13 0.69,-0.18l0 -0.07c0,-0.14 -0.04,-0.24 -0.11,-0.3 -0.06,-0.06 -0.19,-0.08 -0.38,-0.08 -0.13,0 -0.22,0.02 -0.3,0.07 -0.07,0.05 -0.12,0.14 -0.17,0.27zm0.96 0.57c-0.1,0.03 -0.24,0.07 -0.44,0.11 -0.19,0.04 -0.32,0.09 -0.38,0.13 -0.1,0.06 -0.14,0.14 -0.14,0.25 0,0.1 0.03,0.18 0.11,0.25 0.07,0.08 0.17,0.11 0.28,0.11 0.13,0 0.25,-0.04 0.37,-0.12 0.08,-0.07 0.14,-0.15 0.17,-0.24 0.02,-0.06 0.03,-0.18 0.03,-0.35l0 -0.14z"/>
   <path id="19" class="fil10" d="M61.96 61.02l-0.71 0 0 -1.37c0,-0.29 -0.01,-0.48 -0.04,-0.57 -0.03,-0.08 -0.08,-0.15 -0.15,-0.19 -0.07,-0.05 -0.15,-0.07 -0.25,-0.07 -0.12,0 -0.24,0.03 -0.33,0.1 -0.1,0.06 -0.17,0.15 -0.21,0.26 -0.04,0.12 -0.05,0.32 -0.05,0.62l0 1.22 -0.71 0 0 -2.69 0.65 0 0 0.39c0.24,-0.3 0.54,-0.45 0.9,-0.45 0.15,0 0.3,0.03 0.43,0.09 0.13,0.05 0.23,0.12 0.29,0.21 0.07,0.09 0.12,0.19 0.14,0.3 0.03,0.11 0.04,0.27 0.04,0.48l0 1.67z"/>
  </g>
 </g>
</svg>
