<?xml version="1.0" encoding="UTF-8"?>
<!DOCTYPE svg PUBLIC "-//W3C//DTD SVG 1.1//EN" "http://www.w3.org/Graphics/SVG/1.1/DTD/svg11.dtd">
<!-- Creator: CorelDRAW 2017 -->
<svg xmlns="http://www.w3.org/2000/svg" xml:space="preserve" width="78px" height="67px" version="1.1" style="shape-rendering:geometricPrecision; text-rendering:geometricPrecision; image-rendering:optimizeQuality; fill-rule:evenodd; clip-rule:evenodd"
viewBox="0 0 0.68 0.58"
 xmlns:xlink="http://www.w3.org/1999/xlink">
 <defs>
  <style type="text/css">
   <![CDATA[
    .fil0 {fill:#999999}
   ]]>
  </style>
 </defs>
 <g id="Layer_x0020_1">
  <metadata id="CorelCorpID_0Corel-Layer"/>
  <g id="_2091780402704">
   <g>
    <g>
     <path class="fil0" d="M0.68 0.28c-0.05,-0.06 -0.1,-0.1 -0.15,-0.14l0.09 -0.1c0.01,-0.01 0.01,-0.02 0.01,-0.03 -0.01,-0.01 -0.03,-0.01 -0.04,0 0,0 0,0 0,0l-0.1 0.1c-0.05,-0.02 -0.1,-0.04 -0.15,-0.04 -0.18,0 -0.33,0.2 -0.34,0.21 0,0.01 0,0.02 0,0.03 0.05,0.05 0.1,0.1 0.15,0.14l-0.09 0.09c-0.01,0.01 -0.01,0.03 0,0.04 0,0.01 0.02,0.01 0.03,0 0,0 0,0 0,0l0.1 -0.11c0.05,0.03 0.1,0.04 0.15,0.04 0.18,0 0.33,-0.2 0.34,-0.2 0,-0.01 0,-0.02 0,-0.03zm-0.49 0.13c-0.05,-0.03 -0.1,-0.07 -0.13,-0.12 0.03,-0.04 0.15,-0.17 0.28,-0.17 0.04,0 0.08,0.01 0.11,0.03l-0.04 0.04c-0.06,-0.04 -0.13,-0.02 -0.17,0.03 -0.03,0.05 -0.03,0.1 0,0.14l-0.05 0.05zm0.22 -0.15c0,0.01 0,0.02 0,0.03 0,0.04 -0.03,0.07 -0.07,0.07 -0.01,0 -0.02,0 -0.03,0l0.1 -0.1zm-0.14 0.06c0,-0.01 0,-0.02 0,-0.03 0,-0.04 0.03,-0.07 0.07,-0.07 0.01,0 0.02,0 0.03,0.01l-0.1 0.09zm0.07 0.14c-0.04,0 -0.08,-0.01 -0.11,-0.02l0.04 -0.05c0.06,0.04 0.13,0.02 0.17,-0.03 0.03,-0.04 0.03,-0.09 0,-0.14l0.05 -0.05c0.05,0.04 0.1,0.08 0.13,0.12 -0.03,0.05 -0.15,0.17 -0.28,0.17z"/>
    </g>
   </g>
   <g>
   </g>
   <g>
   </g>
   <g>
   </g>
   <g>
   </g>
   <g>
   </g>
   <g>
   </g>
   <g>
   </g>
   <g>
   </g>
   <g>
   </g>
   <g>
   </g>
   <g>
   </g>
   <g>
   </g>
   <g>
   </g>
   <g>
   </g>
   <g>
   </g>
  </g>
 </g>
</svg>
