<?xml version="1.0" encoding="UTF-8"?>
<!DOCTYPE svg PUBLIC "-//W3C//DTD SVG 1.1//EN" "http://www.w3.org/Graphics/SVG/1.1/DTD/svg11.dtd">
<!-- Creator: CorelDRAW 2017 -->
<svg xmlns="http://www.w3.org/2000/svg" xml:space="preserve" width="97px" height="86px" version="1.1" style="shape-rendering:geometricPrecision; text-rendering:geometricPrecision; image-rendering:optimizeQuality; fill-rule:evenodd; clip-rule:evenodd"
viewBox="0 0 1.04 0.91"
 xmlns:xlink="http://www.w3.org/1999/xlink">
 <defs>
  <style type="text/css">
   <![CDATA[
    .fil0 {fill:black}
   ]]>
  </style>
 </defs>
 <g id="Layer_x0020_1">
  <metadata id="CorelCorpID_0Corel-Layer"/>
  <g id="_2091938570256">
   <g>
    <g>
     <path class="fil0" d="M0.48 0.17l-0.21 0c-0.01,0 -0.02,0 -0.02,0.01 0,0.01 0.01,0.02 0.02,0.02l0.21 0c0,0 0.01,-0.01 0.01,-0.02 0,-0.01 -0.01,-0.01 -0.01,-0.01z"/>
    </g>
   </g>
   <g>
    <g>
     <path class="fil0" d="M0.76 0.68l-0.11 0c-0.01,0 -0.02,0 -0.02,0.01 0,0.01 0.01,0.02 0.02,0.02l0.11 0c0.01,0 0.02,-0.01 0.02,-0.02 0,-0.01 -0.01,-0.01 -0.02,-0.01z"/>
    </g>
   </g>
   <g>
    <g>
     <path class="fil0" d="M0.96 0.21c0.01,0.01 0.02,0.01 0.03,0 0.03,-0.06 0.04,-0.11 0.05,-0.16 0,-0.01 -0.01,-0.02 -0.02,-0.02 -0.06,0.01 -0.12,0.03 -0.18,0.07 -0.01,-0.03 -0.02,-0.05 -0.03,-0.06 -0.01,-0.03 -0.03,-0.04 -0.06,-0.04l-0.66 0c-0.03,0 -0.06,0.01 -0.07,0.03 -0.03,0.04 -0.02,0.1 -0.02,0.1 0.01,0.01 0.01,0.01 0.02,0.01l0.13 0c0.02,0.09 0.02,0.21 0.02,0.33 0,0.05 -0.01,0.11 0,0.17 0,0.01 0,0.01 0.01,0.01 0.01,0 0.02,-0.01 0.02,-0.01 0,-0.06 0,-0.12 0,-0.17 0,-0.14 0,-0.27 -0.02,-0.36 0,-0.01 -0.01,-0.01 -0.01,-0.02 0,-0.03 -0.01,-0.05 -0.02,-0.06l0.6 0c0.03,0 0.05,0.03 0.06,0.09 -0.01,0.01 -0.03,0.02 -0.05,0.04 -0.03,0.03 -0.06,0.06 -0.09,0.1l-0.4 0c-0.01,0 -0.02,0 -0.02,0.01 0,0.01 0.01,0.02 0.02,0.02l0.38 0c-0.01,0.01 -0.02,0.03 -0.03,0.05l-0.35 0c-0.01,0 -0.02,0.01 -0.02,0.01 0,0.01 0.01,0.02 0.02,0.02l0.33 0c0,0.02 -0.01,0.03 -0.01,0.05l-0.32 0c-0.01,0 -0.02,0.01 -0.02,0.02 0,0.01 0.01,0.01 0.02,0.01l0.31 0c0,0.01 0,0.02 0,0.02l-0.05 0.05c-0.01,0.01 -0.01,0.02 0,0.02 0.01,0.01 0.02,0.01 0.02,0l0.05 -0.05c0.03,0 0.05,0 0.08,-0.01 0.03,-0.01 0.05,-0.03 0.08,-0.04 0.02,-0.02 0.05,-0.03 0.07,-0.05 0,0.03 0,0.05 0,0.08 0,0.11 0,0.22 0.01,0.3 0,0 -0.5,0 -0.51,0 -0.01,0 -0.01,0.01 -0.01,0.02 0,0 0,0 0,0 0,0 0,0 0,0 0,0 0.01,0.05 -0.01,0.07 0,0 0,0 0,0 -0.01,0.02 -0.03,0.02 -0.05,0.02 -0.03,0 -0.05,-0.06 -0.06,-0.18 0,-0.01 -0.01,-0.02 -0.02,-0.02 -0.01,0 -0.01,0.01 -0.01,0.02 0,0.1 0.02,0.21 0.1,0.21l0.66 0c0.03,0 0.05,-0.01 0.07,-0.03 0.03,-0.03 0.01,-0.1 0.01,-0.1 0,0 -0.01,-0.01 -0.01,-0.01l-0.13 0c-0.01,-0.08 -0.01,-0.19 -0.01,-0.3 0,-0.04 0,-0.07 0,-0.1 0.01,-0.01 0.02,-0.02 0.02,-0.03 0.03,-0.02 0.05,-0.05 0.07,-0.08 0.01,-0.01 0.01,-0.02 0,-0.02 -0.01,0 -0.02,0 -0.02,0 -0.02,0.03 -0.04,0.06 -0.07,0.08 -0.02,0.02 -0.04,0.04 -0.06,0.05 -0.05,0.04 -0.11,0.07 -0.16,0.09 0,0 0,0 0,0l0.27 -0.27c0,-0.01 0,-0.02 0,-0.02 -0.01,-0.01 -0.02,-0.01 -0.03,0l-0.27 0.27c0,-0.01 0,-0.01 0,-0.01 0.02,-0.06 0.05,-0.11 0.09,-0.16 0,0 0,0 0,0 0,0 0,0 0,0 0.03,-0.05 0.07,-0.09 0.12,-0.12 0.06,-0.05 0.13,-0.07 0.18,-0.08 0,0.04 -0.02,0.08 -0.04,0.12 -0.01,0.01 0,0.02 0,0.02zm-0.81 -0.1l-0.12 0 0 0c0,0 0,-0.01 0,-0.01 0,-0.02 0,-0.04 0.01,-0.05 0.01,-0.01 0.03,-0.02 0.05,-0.02l0.01 0c0,0 0,0 0,0 0.02,0.01 0.03,0.03 0.05,0.07 0,0.01 0,0.01 0,0.01zm0.84 0.69c0,0.02 0,0.05 -0.02,0.07 0,0.01 -0.02,0.01 -0.04,0.01l-0.59 0c0.02,-0.02 0.02,-0.06 0.01,-0.08l0.64 0z"/>
    </g>
   </g>
   <g>
   </g>
   <g>
   </g>
   <g>
   </g>
   <g>
   </g>
   <g>
   </g>
   <g>
   </g>
   <g>
   </g>
   <g>
   </g>
   <g>
   </g>
   <g>
   </g>
   <g>
   </g>
   <g>
   </g>
   <g>
   </g>
   <g>
   </g>
   <g>
   </g>
  </g>
 </g>
</svg>
