<?xml version="1.0" encoding="UTF-8"?>
<!DOCTYPE svg PUBLIC "-//W3C//DTD SVG 1.1//EN" "http://www.w3.org/Graphics/SVG/1.1/DTD/svg11.dtd">
<!-- Creator: CorelDRAW 2017 -->
<svg xmlns="http://www.w3.org/2000/svg" xml:space="preserve" width="127px" height="142px" version="1.1" style="shape-rendering:geometricPrecision; text-rendering:geometricPrecision; image-rendering:optimizeQuality; fill-rule:evenodd; clip-rule:evenodd"
viewBox="0 0 4.08 4.55"
 xmlns:xlink="http://www.w3.org/1999/xlink">
 <defs>
  <style type="text/css">
   <![CDATA[
    .fil0 {fill:black}
   ]]>
  </style>
 </defs>
 <g id="Layer_x0020_1">
  <metadata id="CorelCorpID_0Corel-Layer"/>
  <g id="_2091864349472">
   <g>
    <g>
     <g>
      <path class="fil0" d="M2.9 1.96c0,-0.1 -0.08,-0.18 -0.18,-0.18l-1.83 0c-0.1,0 -0.18,0.08 -0.18,0.18 0,0.09 0.08,0.17 0.18,0.17l1.83 0c0.1,0 0.18,-0.08 0.18,-0.17z"/>
      <path class="fil0" d="M0.89 2.49c-0.1,0 -0.18,0.08 -0.18,0.18 0,0.09 0.08,0.17 0.18,0.17l1.11 0c0.1,0 0.18,-0.08 0.18,-0.17 0,-0.1 -0.08,-0.18 -0.18,-0.18l-1.11 0z"/>
      <path class="fil0" d="M1.31 4.2l-0.6 0c-0.19,0 -0.35,-0.16 -0.35,-0.36l0 -3.13c0,-0.19 0.16,-0.35 0.35,-0.35l2.19 0c0.19,0 0.35,0.16 0.35,0.35l0 1.09c0,0.1 0.08,0.18 0.18,0.18 0.1,0 0.18,-0.08 0.18,-0.18l0 -1.09c0,-0.39 -0.32,-0.71 -0.71,-0.71l-2.19 0c-0.39,0 -0.71,0.32 -0.71,0.71l0 3.13c0,0.39 0.32,0.71 0.71,0.71l0.6 0c0.09,0 0.17,-0.08 0.17,-0.18 0,-0.09 -0.08,-0.17 -0.17,-0.17z"/>
      <path class="fil0" d="M3.92 2.57c-0.21,-0.2 -0.54,-0.2 -0.75,0l-0.98 0.98c-0.02,0.02 -0.03,0.04 -0.04,0.07l-0.21 0.7c-0.02,0.06 -0.01,0.13 0.04,0.18 0.03,0.03 0.08,0.05 0.13,0.05 0.01,0 0.03,0 0.04,-0.01l0.72 -0.19c0.03,-0.01 0.06,-0.03 0.08,-0.05l0.97 -0.97c0.21,-0.21 0.21,-0.55 0,-0.76zm-1.19 1.45l-0.36 0.1 0.11 -0.35 0.65 -0.66 0.26 0.25 -0.66 0.66zm0.94 -0.94l-0.03 0.03 -0.25 -0.25 0.03 -0.03c0.07,-0.07 0.18,-0.07 0.25,0 0.07,0.06 0.07,0.18 0,0.25z"/>
      <path class="fil0" d="M2.72 1.07l-1.83 0c-0.1,0 -0.18,0.08 -0.18,0.17 0,0.1 0.08,0.18 0.18,0.18l1.83 0c0.1,0 0.18,-0.08 0.18,-0.18 0,-0.09 -0.08,-0.17 -0.18,-0.17z"/>
     </g>
    </g>
   </g>
   <g>
   </g>
   <g>
   </g>
   <g>
   </g>
   <g>
   </g>
   <g>
   </g>
   <g>
   </g>
   <g>
   </g>
   <g>
   </g>
   <g>
   </g>
   <g>
   </g>
   <g>
   </g>
   <g>
   </g>
   <g>
   </g>
   <g>
   </g>
   <g>
   </g>
  </g>
 </g>
</svg>
